<svg version="1.1" xmlns="http://www.w3.org/2000/svg" xmlns:xlink="http://www.w3.org/1999/xlink" width="424" height="483"><desc>%23%20-----%20font%20-----%0Afontfamily%20monospace%0A%0A%23%20-----%20setup%20components%20-----%0Atitle%20CLEAR%20OLD%20ANALYSIS%0Aparticipantgroup%20%23e4fcd9%20Backend%20API%0Acontrol%20%23red%3A0.7%20Report%20Service%0Aend%0A%0Adatabase%20Database%20%23pink%0A%0A%23%20-----%20to%20show%20bottom%20icons%20-----%0Abottomparticipants%0A%0A%23%20-----%20Activations%20-----%0A%0Aactivate%20Report%20Service%0A%0A%23%20-----%20START%20OF%20SEQUENCE%20-----%0Aloop%20for%20every%20n%20days%0AReport%20Service-%3EDatabase%3A%20clearTempAnalysis()%0Aactivate%20Database%0AReport%20Service%3C--Database%3A%20Success%0Adeactivate%20Database%0Aend%0A%23%20-----%20END%20OF%20SEQUENCE%20-----%0A%0A</desc><defs/><g><g/><g/><g/><g><rect fill="white" stroke="none" x="0" y="0" width="424" height="483"/></g><g><text fill="black" stroke="none" font-family="monospace" font-size="16.5pt" font-style="normal" font-weight="normal" text-decoration="normal" x="103.46051380670573" y="22.617973800000005" text-anchor="start" dominant-baseline="alphabetic" xml:space="preserve">CLEAR OLD ANALYSIS</text></g><g><g><path fill="#e4fcd9" stroke="black" paint-order="fill stroke markers" d=" M 17.0874706361328 48.50927103050001 L 146.26456236386719 48.50927103050001 L 146.26456236386719 474.876925472 L 17.0874706361328 474.876925472 L 17.0874706361328 48.50927103050001" stroke-miterlimit="10" stroke-width="1.3612669416666667" stroke-dasharray=""/></g><g><text fill="black" stroke="none" font-family="monospace" font-size="11pt" font-style="normal" font-weight="normal" text-decoration="normal" x="37.34527461767577" y="70.24765696050001" text-anchor="start" dominant-baseline="alphabetic" xml:space="preserve">Backend API</text></g></g><g><path fill="none" stroke="black" paint-order="fill stroke markers" d=" M 81.67601649999999 162.497576212 L 81.67601649999999 384.656341092" stroke-miterlimit="10" stroke-width="1.3612669416666667" stroke-dasharray="12.565541,5.445067766666667"/><path fill="none" stroke="black" paint-order="fill stroke markers" d=" M 342.96766736341146 162.497576212 L 342.96766736341146 384.656341092" stroke-miterlimit="10" stroke-width="1.3612669416666667" stroke-dasharray="12.565541,5.445067766666667"/></g><g><g><path fill="white" stroke="red" paint-order="fill stroke markers" d=" M 105.9337934005 116.872096841 A 24.2577769005 24.2577769005 0 1 1 105.93378127161255 116.84783906814245 M 78.40897583999998 92.6143199405 L 88.21009781999999 84.4467182905 M 78.40897583999998 92.6143199405 L 88.21009781999999 100.78192159049999" stroke-miterlimit="10" stroke-width="1.9438891927000002" stroke-dasharray=""/></g><g><g/><text fill="black" stroke="none" font-family="monospace" font-size="11pt" font-style="normal" font-weight="normal" text-decoration="normal" x="25.2550722861328" y="157.597015222" text-anchor="start" dominant-baseline="alphabetic" xml:space="preserve">Report Service</text></g><g><path fill="pink" stroke="black" paint-order="fill stroke markers" d=" M 319.11827054541146 131.737131844 L 319.11827054541146 97.43320491400002 L 366.81706418141147 97.43320491400002 L 366.81706418141147 131.737131844" stroke-miterlimit="10" stroke-width="2.7769845610000004" stroke-dasharray=""/><path fill="pink" stroke="black" paint-order="fill stroke markers" d=" M 366.81706418141147 96.24073507310001 L 366.8158717215078 96.34854561801663 L 366.81229446104174 96.4563453819686 L 366.80633275773636 96.56412358506937 L 366.79798720775705 96.67186944958841 L 366.78725864565183 96.7795722010291 L 366.774148144268 96.88722106920602 L 366.75865701464477 96.99480528932206 L 366.7407868058821 97.10231410304486 L 366.7205393049861 97.20973675958267 L 366.69791653668995 97.31706251675931 L 366.6729207632516 97.42428064208853 L 366.6455544842276 97.53138041384713 L 366.615820436223 97.6383511221472 L 366.58372159261785 97.74518207000703 L 366.54926116326976 97.85186257442088 L 366.5124425941929 97.95838196742719 L 366.4732695672136 98.06472959717544 L 366.43174599960184 98.17089482899127 L 366.3878760436798 98.27686704643997 L 366.3416640864065 98.38263565238812 L 366.2931147489392 98.48819007006324 L 366.2422328861711 98.59351974411153 L 366.1890235862462 98.69861414165338 L 366.13349217005003 98.8034627533366 L 366.07564419067796 98.9080550943874 L 366.0154854328798 99.01238070565881 L 365.9530219124811 99.11642915467668 L 365.88825987578196 99.2201900366828 L 365.821205798932 99.32365297567542 L 365.751866387283 99.42680762544687 L 365.68024857471835 99.52964367061814 L 365.60635952295974 99.63215082767042 L 365.53020662085066 99.73431884597339 L 365.45179748361784 99.8361375088104 L 365.3711399521098 99.9375966344 L 365.2882420920123 100.03868607691416 L 365.2031121930424 100.1393957274929 L 365.115758768119 100.23971551525507 L 365.0261905525118 100.3396354083055 L 364.9344165029678 100.43914541473814 L 364.84044579681535 100.53823558363528 L 364.7442878310468 100.63689600606261 L 364.64595222137865 100.73511681606011 L 364.54544880128987 100.83288819162861 L 364.4427876210387 100.93020035571203 L 364.3379789466577 101.02704357717508 L 364.23103325892686 101.12340817177629 L 364.1219612523259 101.2192845031365 L 364.01077383396455 101.3146629837025 L 363.897482122492 101.40953407570571 L 363.782097446985 101.50388829211596 L 363.664631345815 101.59771619759026 L 363.5450955654941 101.69100840941624 L 363.42350205950083 101.78375559845048 L 363.2998629870844 101.87594849005134 L 363.17419071204904 101.96757786500652 L 363.04649780151755 102.05863456045485 L 362.91679702467457 102.14910947080267 L 362.78510135148963 102.23899354863435 L 362.65142395142044 102.32827780561702 L 362.51577819209547 102.41695331339938 L 362.37817763797767 102.50501120450453 L 362.23863604900777 102.59244267321675 L 362.0971673792284 102.67923897646203 L 361.95378577538867 102.76539143468239 L 361.80850557552947 102.85089143270376 L 361.66134130754966 102.93573042059764 L 361.51230768775343 103.0198999145359 L 361.36141961937864 103.10339149763931 L 361.2086921911063 103.18619682081912 L 361.054140675552 103.26830760361203 L 360.8977805277385 103.34971563500818 L 360.73962738355027 103.43041277427227 L 360.5796970581699 103.51039095175761 L 360.4180055444968 103.58964216971313 L 360.2545690115474 103.66815850308305 L 360.08940380283894 103.74593210029946 L 359.92252643475456 103.82295518406747 L 359.7539535948921 103.89922005214288 L 359.583702140395 103.97471907810242 L 359.41178909626683 104.04944471210644 L 359.2382316536688 104.12338948165379 L 359.06304716820046 104.19654599232915 L 358.88625315816444 104.26890692854239 L 358.7078673028144 104.34046505426022 L 358.52790744058717 104.4112132137297 L 358.3463915673191 104.4811443321938 L 358.1633378344461 104.55025141659898 L 357.9787645471891 104.6185275562944 L 357.7926901627229 104.68596592372296 L 357.60513328833093 104.75255977510412 L 357.4161126795443 104.81830245110825 L 357.2256472382664 104.88318737752253 L 357.03375601088266 104.94720806590838 L 356.8404581863558 105.01035811425034 L 356.6457730943073 105.07263120759616 L 356.4497202030841 105.13402111868842 L 356.2523191178119 105.19452170858717 L 356.0535895784348 105.25412692728385 L 355.8535514577411 105.31283081430622 L 355.65222475937617 105.37062749931455 L 355.44962961584207 105.42751120268846 L 355.24578628648436 105.48347623610503 L 355.040715155466 105.53851700310757 L 354.8344367297293 105.59262799966524 L 354.626971636945 105.64580381472345 L 354.4183406234493 105.69803913074504 L 354.2085645521698 105.74932872424193 L 353.99766440053884 105.7996674662975 L 353.78566125839575 105.84905032307951 L 353.5725763258782 105.89747235634343 L 353.35843091130175 105.94492872392627 L 353.14324642902943 105.99141468023082 L 352.9270443973302 106.03692557670021 L 352.70984643622705 106.08145686228269 L 352.49167426533506 106.12500408388684 L 352.2725497016895 106.16756288682677 L 352.0524946575642 106.20912901525766 L 351.83153113828007 106.2496983126013 L 351.60968124000505 106.28926672196175 L 351.386967147544 106.32783028653108 L 351.1634111321206 106.36538514998495 L 350.9390355491501 106.4019275568683 L 350.71386283600384 106.43745385297092 L 350.4879155097654 106.47196048569278 L 350.2612161649792 106.50544400439938 L 350.0337874713908 106.53790106076674 L 349.80565217168 106.56932840911628 L 349.5768330791867 106.59972290673934 L 349.3473530756294 106.62908151421152 L 349.1172351088173 106.6574012956965 L 348.88650219035526 106.68467941923974 L 348.65517739334285 106.71091315705164 L 348.4232838500671 106.73609988578026 L 348.19084474968895 106.76023708677371 L 347.9578833359248 106.78332234633203 L 347.72442290472196 106.80535335594848 L 347.4904868019289 106.82632791254046 L 347.256098420961 106.8462439186698 L 347.021281200461 106.86509938275248 L 346.7860586219553 106.88289241925779 L 346.55045420750577 106.89962124889692 L 346.31449151735745 106.91528419880086 L 346.07819414758274 106.92987970268764 L 345.8415857277217 106.94340630101907 L 345.6046899184192 106.95586264114657 L 345.36753040905865 106.96724747744649 L 345.1301309153934 106.97755967144472 L 344.8925151771751 106.98679819193043 L 344.6547069557794 106.9949621150593 L 344.4167300318303 107.00205062444579 L 344.1786082028219 107.00806301124487 L 343.9403652807387 107.01299867422289 L 343.7020250896744 107.01685711981764 L 343.46361146344935 107.0196379621878 L 343.22514824322764 107.02134092325144 L 342.98665927513247 107.02196583271387 L 342.748168407862 107.02151262808466 L 342.5096994903041 107.01998135468392 L 342.27127636915196 107.0173721656377 L 342.03292288651886 107.01368532186271 L 341.7946628775545 107.00892119204028 L 341.5565201680613 107.00308025257941 L 341.3185185721116 106.99616308756919 L 341.0806818896668 106.98817038872035 L 340.84303390419683 106.9791029552961 L 340.6055983803023 106.96896169403226 L 340.3683990613377 106.95774761904647 L 340.13145966703723 106.94546185173691 L 339.89480389114294 106.93210562067006 L 339.6584553990351 106.91768026145789 L 339.4224378253661 106.90218721662433 L 339.18677477169655 106.88562803546091 L 338.9514898041354 106.86800437387197 L 338.71660645098336 106.84931799420899 L 338.4821482003801 106.82957076509436 L 338.24813849795515 106.80876466123452 L 338.01460074448386 106.78690176322253 L 337.7815582935469 106.76398425732997 L 337.5490344491952 106.74001443528833 L 337.3170524636194 106.71499469405985 L 337.08563553482475 106.6889275355978 L 336.85480680431124 106.66181556659627 L 336.6245893547597 106.63366149822963 L 336.39500620772304 106.6044681458812 L 336.16608032132484 106.57423842886192 L 335.9378345879628 106.54297537011827 L 335.7102918320202 106.5106820959301 L 335.4834748075829 106.4773618355979 L 335.25740619616437 106.44301792111996 L 335.03210860443744 106.40765378685909 L 334.8076045619734 106.37127296919923 L 334.5839165189895 106.33387910619186 L 334.36106684410356 106.29547593719211 L 334.1390778220975 106.25606730248487 L 333.91797165168833 106.21565714290077 L 333.697770443309 106.17424949942209 L 333.4784962168968 106.13184851277869 L 333.2601708996916 106.08845842303388 L 333.04281632404326 106.0440835691605 L 332.82645422522813 105.99872838860693 L 332.6111062392759 105.95239741685346 L 332.3967939008056 105.90509528695863 L 332.18353864087254 105.85682672909601 L 331.971361784825 105.80759657008119 L 331.7602845501717 105.75740973288903 L 331.55032804446034 105.70627123616141 L 331.34151326316646 105.65418619370543 L 331.13386108759414 105.6011598139819 L 330.92739228278793 105.54719739958459 L 330.7221274954563 105.49230434671 L 330.5180872519068 105.43648614461767 L 330.3152919559939 105.37974837508128 L 330.1137618870781 105.32209671183053 L 329.91351719799843 105.26353691998366 L 329.7145779130568 105.20407485547109 L 329.51696392601605 105.14371646444971 L 329.3206949981102 105.0824677827083 L 329.12579075606834 105.02033493506404 L 328.93227069015245 104.95732413474988 L 328.7401541522077 104.89344168279337 L 328.54946035372785 104.82869396738644 L 328.36020836393385 104.76308746324669 L 328.172417107867 104.69662873096988 L 327.9861053644963 104.62932441637382 L 327.8012917648409 104.56118124983391 L 327.6179947901068 104.49220604561 L 327.4362327698387 104.42240570116505 L 327.25602388008707 104.35178719647531 L 327.0773861415908 104.28035759333244 L 326.90033741797487 104.20812403463721 L 326.7248954139641 104.13509374368529 L 326.55107767361267 104.06127402344492 L 326.37890157854974 103.98667225582662 L 326.20838434624136 103.91129590094496 L 326.0395430282687 103.83515249637263 L 325.87239450862285 103.75824965638664 L 325.70695550201646 103.6805950712069 L 325.54324255221235 103.6021965062272 L 325.381272030369 103.52306180123873 L 325.2210601334037 103.44319886964601 L 325.06262288237264 103.3626156976757 L 324.9059761208688 103.28132034357779 L 324.7511355134379 103.19932093681997 L 324.5981165440116 103.11662567727458 L 324.4469345143593 103.03324283439866 L 324.2976045425581 102.94918074640702 L 324.15014156148055 102.86444781943841 L 324.004560317302 102.7790525267149 L 323.8608753680255 102.6930034076946 L 323.7191010820263 102.60630906721774 L 323.57925163661486 102.51897817464607 L 323.4413410166191 102.4310194629961 L 323.30538301298617 102.3424417280657 L 323.17139122140304 102.25325382755454 L 323.0393790409373 102.16346468017835 L 322.90935967269695 102.07308326477704 L 322.7813461185105 101.98211861941685 L 322.6553511796266 101.89057984048648 L 322.53138745543424 101.79847608178757 L 322.4094673422025 101.70581655361923 L 322.2896030318411 101.61261052185705 L 322.1718065106812 101.51886730702655 L 322.05608955827677 101.42459628337107 L 321.94246374622657 101.32980687791445 L 321.83094043701715 101.23450856951823 L 321.7215307828865 101.13871088793383 L 321.6142457247088 101.04242341284956 L 321.50909599090056 100.94565577293272 L 321.4060920963475 100.84841764486666 L 321.30524434135316 100.75071875238314 L 321.2065628106091 100.65256886529 L 321.11005737218613 100.55397779849415 L 321.0157376765477 100.45495541102012 L 320.9236131555847 100.35551160502415 L 320.8336930216725 100.25565632480394 L 320.7459862667496 100.15539955580432 L 320.6605016614183 100.05475132361865 L 320.57724775406797 99.95372169298625 L 320.49623287002 99.85232076678601 L 320.41746511069516 99.75055868502605 L 320.34095235280387 99.64844562382973 L 320.2667022475581 99.5459917944181 L 320.1947222199065 99.4432074420887 L 320.1250194677919 99.34010284519113 L 320.0576009614314 99.23668831409914 L 319.99247344261937 99.13297419017968 L 319.9296434240535 99.02897084475869 L 319.8691171886833 98.92468867808407 L 319.8109007890818 98.82013811828556 L 319.7550000468405 98.71532962033203 L 319.7014205519871 98.61027366498594 L 319.6501676624263 98.50498075775526 L 319.60124650340447 98.39946142784298 L 319.5546619669966 98.29372622709415 L 319.51041871161766 98.18778572894077 L 319.4685211615563 98.08165052734432 L 319.4289735065325 97.97533123573653 L 319.3917797012789 97.868838485958 L 319.356943465145 97.7621829271949 L 319.3244682817254 97.65537522491428 L 319.29435739851135 97.54842605979732 L 319.2666138265661 97.44134612667145 L 319.2412403402237 97.33414613344073 L 319.21823947681173 97.22683680001514 L 319.1976135363972 97.1194288572386 L 319.17936458155714 97.0119330458159 L 319.1634944371717 96.90436011523857 L 319.1500046902422 96.79672082271007 L 319.138896689732 96.68902593206992 L 319.1301715464319 96.58128621271746 L 319.123830132849 96.47351243853481 L 319.1198730831194 96.36571538680961 L 319.11830079294464 96.25790583715718 L 319.1191134195526 96.15009457044266 L 319.1223108816812 96.04229236770287 L 319.1278928595869 95.93451000906825 L 319.13585879507656 95.82675827268484 L 319.1462078915633 95.7190479336365 L 319.15893911414605 95.61138976286738 L 319.17405118971317 95.50379452610481 L 319.1915426070697 95.39627298278283 L 319.2114116170886 95.28883588496618 L 319.2336562328852 95.18149397627508 L 319.25827423001664 95.07425799081098 L 319.28526314670364 94.96713865208302 L 319.3146202840771 94.86014667193587 L 319.34634270644756 94.75329274947832 L 319.3804272415994 94.64658757001362 L 319.41687048110754 94.54004180397077 L 319.4556687806782 94.43366610583759 L 319.4968182605139 94.32747111309526 L 319.5403148057009 94.22146744515454 L 319.586154066621 94.1156657022939 L 319.6343314593862 94.01007646459945 L 319.68484216629747 93.90471029090699 L 319.7376811363261 93.79957771774606 L 319.7928430856192 93.69468925828637 L 319.8503224980278 93.59005540128646 L 319.91011362565854 93.48568661004485 L 319.9722104894485 93.38159332135368 L 320.03660687976304 93.27778594445506 L 320.1032963570168 93.1742748600002 L 320.1722722523176 93.07107041901128 L 320.2435276681334 92.96818294184638 L 320.317055478982 92.86562271716748 L 320.39284833214367 92.7634000009116 L 320.4708986483961 92.66152501526518 L 320.5511986227728 92.56000794764186 L 320.6337402253433 92.45885894966383 L 320.71851520201596 92.35808813614659 L 320.8055150753639 92.25770558408753 L 320.8947311454723 92.15772133165818 L 320.9861544908084 92.05814537720047 L 321.0797759691139 91.95898767822688 L 321.175586218319 91.86025815042466 L 321.27357565747855 91.76196666666432 L 321.37373448773036 91.66412305601233 L 321.4760526932749 91.56673710274822 L 321.5805200423768 91.46981854538616 L 321.68712608838825 91.37337707570111 L 321.79586017079345 91.2774223377597 L 321.90671141627485 91.18196392695573 L 322.0196687398002 91.08701138905076 L 322.13472084573124 90.99257421921942 L 322.2518562289534 90.89866186110004 L 322.37106317602587 90.80528370585013 L 322.4923297663533 90.71244909120742 L 322.6156438733777 90.620167300556 L 322.7409931657911 90.52844756199806 L 322.86836510876884 90.437299047431 L 322.99774696522263 90.34673087163033 L 323.12912579707466 90.25675209133814 L 323.2624884665513 90.1673717043575 L 323.39782163749675 90.07859864865262 L 323.5351117767066 89.99044180145509 L 323.67434515528134 89.90290997837616 L 323.8155078499992 89.81601193252519 L 323.95858574470833 89.72975635363437 L 324.10356453173847 89.64415186718969 L 324.25042971333176 89.55920703356847 L 324.39916660309245 89.47493034718329 L 324.54976032745543 89.39133023563254 L 324.7021958271738 89.30841505885772 L 324.8564578588246 89.22619310830741 L 325.0125309963332 89.14467260610814 L 325.170399632516 89.06386170424221 L 325.3300479806409 88.98376848373246 L 325.4914600760061 88.9044009538342 L 325.6546197775366 88.82576705123427 L 325.81951076939816 88.7478746392574 L 325.98611656262904 88.67073150707989 L 326.15442049678876 88.59434536895068 L 326.32440574162416 88.5187238634199 L 326.49605529875237 88.4438745525751 L 326.6693520033608 88.369804921285 L 326.8442785259233 88.29652237645098 L 327.0208173739335 88.22403424626648 L 327.19895089365355 88.1523477794841 L 327.3786612718801 88.08147014469078 L 327.559930537725 88.01140842959094 L 327.7427405644127 87.94216964029769 L 327.92707307109293 87.87376070063229 L 328.1129096246686 87.80618845143167 L 328.3002316416392 87.73945964986444 L 328.4890203899592 87.67358096875519 L 328.679256990911 87.60855899591708 L 328.8709224209931 87.54440023349323 L 329.0639975138222 87.48111109730644 L 329.25846296204986 87.41869791621755 L 329.4542993192934 87.35716693149269 L 329.6514870020803 87.29652429617903 L 329.85000629180644 87.23677607448957 L 330.0498373367085 87.17792824119671 L 330.2509601538483 87.11998668103473 L 330.4533546311119 87.06295718811135 L 330.65700052922017 87.00684546532835 L 330.861877483753 86.95165712381124 L 331.06796500718565 86.89739768234818 L 331.27524249093756 86.84407256683812 L 331.4836892074331 86.79168710974815 L 331.6932843121742 86.74024654958035 L 331.9040068458252 86.68975603034785 L 332.11583573630827 86.64022060106049 L 332.3287498009109 86.59164521521994 L 332.542727748404 86.5440347303243 L 332.75774818117117 86.49739390738237 L 332.97378959734834 86.4517274104376 L 333.19083039297396 86.40703980610161 L 333.40884886414926 86.3633355630976 L 333.6278232092088 86.32061905181345 L 333.8477315309006 86.27889454386471 L 334.06855183857573 86.23816621166738 L 334.29026205038747 86.19843812802074 L 334.51283999549935 86.15971426570005 L 334.73626341630234 86.12199849705928 L 334.96050997064054 86.08529459364387 L 335.18555723404546 86.04960622581356 L 335.4113827019782 86.0149369623754 L 335.6379637920802 85.98129027022685 L 335.8652778464313 85.94866951400907 L 336.0933021338154 85.91707795577051 L 336.3220138519939 85.88651875464066 L 336.5513901299855 85.85699496651418 L 336.7814080303536 85.82850954374526 L 337.0120445514998 85.80106533485245 L 337.24327662996416 85.77466508423377 L 337.47508114273154 85.7493114318923 L 337.70743490954385 85.7250069131721 L 337.94031469521804 85.70175395850482 L 338.1736972119696 85.67955489316655 L 338.4075591217414 85.65841193704532 L 338.64187703853725 85.63832720441913 L 338.87662753076074 85.61930270374448 L 339.1117871235583 85.60134033745561 L 339.3473323011667 85.58444190177417 L 339.58323950926433 85.56860908652965 L 339.81948515732705 85.55384347499039 L 340.0560456209869 85.5401465437052 L 340.2928972443946 85.52751966235584 L 340.5300163425853 85.51596409361991 L 340.7673792038467 85.50548099304464 L 341.0049620920905 85.49607140893136 L 341.24274124922584 85.48773628223064 L 341.48069289753516 85.48047644644821 L 341.7187932420519 85.4742926275616 L 341.9570184729401 85.46918544394751 L 342.1953447678751 85.4651554063201 L 342.43374829442604 85.46220291767973 L 342.672205212439 85.46032827327284 L 342.9106916764208 85.45953166056228 L 343.14918383792383 85.45981315920866 L 343.3876578479307 85.46117274106237 L 343.6260898592391 85.46361027016634 L 343.8644560288466 85.4671255027697 L 344.1027325203348 85.47171808735212 L 344.3408955062533 85.47738756465895 L 344.5789211705018 85.4841333677472 L 344.81678571071234 85.49195482204219 L 345.05446534062906 85.500851145405 L 345.29193629248704 85.51082144821069 L 345.529174819389 85.52186473343731 L 345.76615719767995 85.53397989676554 L 346.00285972931954 85.54716572668913 L 346.2392587442519 85.5614209046361 L 346.47533060277243 85.5767440051005 L 346.7110516978921 85.59313349578507 L 346.9463984576978 85.6105877377544 L 347.1813473477097 85.62910498559884 L 347.4158748732345 85.64868338760904 L 347.6499575817151 85.66932098596111 L 347.88357206507584 85.6910157169124 L 348.116694962063 85.71376541100791 L 348.3493029605811 85.73756779329719 L 348.58137280002416 85.76242048356184 L 348.81288127360165 85.78832099655354 L 349.04380523065913 85.81526674224258 L 349.2741215789933 85.84325502607685 L 349.5038072871613 85.87228304925127 L 349.7328393867836 85.90234790898774 L 349.9611949748413 85.93344659882531 L 350.1888512159657 85.96557600892095 L 350.4157853447225 85.99873292636039 L 350.64197466788795 86.03291403547954 L 350.8673965667181 86.06811591819596 L 351.0920284992111 86.10433505435071 L 351.3158480023608 86.14156782206037 L 351.5388326944033 86.17981049807918 L 351.7609602770554 86.21905925817143 L 351.9822085377438 86.25931017749379 L 352.2025553518269 86.30055923098789 L 352.4219786848069 86.34280229378275 L 352.64045659453325 86.3860351416073 L 352.8579672333972 86.43025345121276 L 353.074488850516 86.47545280080504 L 353.28999979390835 86.52162867048685 L 353.50447851265966 86.56877644270969 L 353.71790355907666 86.61689140273562 L 353.9302535908326 86.66596873910875 L 354.1415073731012 86.71600354413634 L 354.35164378068043 86.76699081437957 L 354.56064180010446 86.81892545115392 L 354.76848053174564 86.87180226103897 L 354.97513919190396 86.9256159563978 L 355.18059711488564 86.98036115590575 L 355.38483375506956 87.03603238508846 L 355.58782868896196 87.0926240768694 L 355.7895616172385 87.15013057212657 L 355.9900123667746 87.20854612025836 L 356.18916089266224 87.26786487975863 L 356.38698728021484 87.32808091880088 L 356.5834717469585 87.38918821583137 L 356.7785946446103 87.45118066017132 L 356.97233646104297 87.51405205262795 L 357.16467782223646 87.57779610611442 L 357.35559949421486 87.6424064462785 L 357.54508238497004 87.70787661214001 L 357.7331075463709 87.77420005673692 L 357.91965617605797 87.84137014778005 L 358.10470961932367 87.90938016831626 L 358.288249370978 87.97822331740018 L 358.47025707719865 88.04789271077426 L 358.65071453736675 88.11838138155724 L 358.82960370588654 88.18968228094076 L 359.0069066939904 88.2617882788943 L 359.1826057715271 88.33469216487818 L 359.3566833687355 88.40838664856452 L 359.52912207800074 88.48286436056638 L 359.69990465559573 88.55811785317462 L 359.869014023405 88.6341396011027 L 360.03643327063264 88.71092200223917 L 360.2021456554935 88.7884573784079 L 360.3661346068872 88.8667379761359 L 360.5283837260552 88.9457559674286 L 360.6888767882208 89.02550345055275 L 360.84759774421155 89.10597245082647 L 361.00453072206415 89.1871549214168 L 361.15966002861154 89.26904274414436 L 361.3129701510523 89.35162773029508 L 361.46444575850205 89.43490162143917 L 361.61407170352624 89.51885609025692 L 361.761833023655 89.60348274137141 L 361.90771494287947 89.68877311218804 L 362.05170287312933 89.77471867374081 L 362.19378241573156 89.8613108315452 L 362.33393936285023 89.94854092645757 L 362.4721596989075 90.03640023554112 L 362.6084296019849 90.12487997293817 L 362.74273544520565 90.2139712907487 L 362.8750637980974 90.3036652799152 L 363.00540142793517 90.39395297111345 L 363.1337353010645 90.48482533564962 L 363.2600525842051 90.57627328636293 L 363.38434064573386 90.66828767853457 L 363.5065870569482 90.76085931080198 L 363.6267795933089 90.85397892607905 L 363.74490623566254 90.94763721248188 L 363.86095517144327 91.04182480425987 L 363.97491479585415 91.13653228273235 L 364.08677371302775 91.23175017723037 L 364.19652073716566 91.32746896604384 L 364.3041448936568 91.42367907737363 L 364.4096354201753 91.5203708902888 L 364.5129817677563 91.61753473568862 L 364.6141736018513 91.71516089726953 L 364.7132008033611 91.81323961249673 L 364.8100534696481 91.91176107358042 L 364.90472191552647 92.01071542845659 L 364.99719667423045 92.11009278177222 L 365.0874684983612 92.20988319587481 L 365.17552836081154 92.31007669180607 L 365.2613674556687 92.41066325029993 L 365.34497719909456 92.51163281278436 L 365.4263492301846 92.61297528238724 L 365.50547541180345 92.71468052494606 L 365.5823478313989 92.81673837002134 L 365.6569588017931 92.9191386119136 L 365.7293008619511 93.02187101068398 L 365.79936677772724 93.12492529317824 L 365.8671495425883 93.22829115405399 L 365.93264237831426 93.33195825681128 L 365.99583873567616 93.43591623482622 L 366.0567322950909 93.54015469238766 L 366.1153169672533 93.64466320573669 L 366.171586893745 93.74943132410907 L 366.22553644762013 93.85444857078026 L 366.27716023396835 93.95970444411313 L 366.32645309045404 94.06518841860805 L 366.37341008783267 94.17088994595545 L 366.4180265304435 94.27679845609072 L 366.46029795667954 94.38290335825107 L 366.5002201394334 94.48919404203473 L 366.53778908652004 94.59565987846186 L 366.5730010410761 94.70229022103757 L 366.6058524819354 94.80907440681646 L 366.6363401239813 94.91600175746893 L 366.66446091847496 95.02306158034904 L 366.69021205336037 95.13024316956367 L 366.7135909535455 95.23753580704327 L 366.73459528115984 95.34492876361347 L 366.75322293578813 95.4524113000681 L 366.76947205468036 95.55997266824312 L 366.7833410129383 95.66760211209133 L 366.7948284236776 95.77528886875801 L 366.8039331381667 95.88302216965727 L 366.81065424594186 95.99079124154878 L 366.8149910748979 96.09858530761515 L 366.81694319135545 96.20639358853963 M 366.81706418141147 130.5446620031 L 366.8158717215078 130.65247254801662 L 366.81229446104174 130.7602723119686 L 366.80633275773636 130.86805051506934 L 366.79798720775705 130.97579637958842 L 366.78725864565183 131.08349913102907 L 366.774148144268 131.191147999206 L 366.75865701464477 131.29873221932203 L 366.7407868058821 131.40624103304486 L 366.7205393049861 131.51366368958264 L 366.69791653668995 131.6209894467593 L 366.6729207632516 131.7282075720885 L 366.6455544842276 131.83530734384712 L 366.615820436223 131.94227805214717 L 366.58372159261785 132.049109000007 L 366.54926116326976 132.15578950442085 L 366.5124425941929 132.26230889742718 L 366.4732695672136 132.36865652717543 L 366.43174599960184 132.47482175899125 L 366.3878760436798 132.58079397643996 L 366.3416640864065 132.6865625823881 L 366.2931147489392 132.79211700006323 L 366.2422328861711 132.89744667411154 L 366.1890235862462 133.00254107165338 L 366.13349217005003 133.10738968333658 L 366.07564419067796 133.2119820243874 L 366.0154854328798 133.3163076356588 L 365.9530219124811 133.42035608467668 L 365.88825987578196 133.52411696668278 L 365.821205798932 133.62757990567542 L 365.751866387283 133.73073455544687 L 365.68024857471835 133.83357060061815 L 365.60635952295974 133.9360777576704 L 365.53020662085066 134.0382457759734 L 365.45179748361784 134.14006443881038 L 365.3711399521098 134.24152356439998 L 365.2882420920123 134.34261300691415 L 365.2031121930424 134.44332265749287 L 365.115758768119 134.54364244525505 L 365.0261905525118 134.6435623383055 L 364.9344165029678 134.74307234473812 L 364.84044579681535 134.8421625136353 L 364.7442878310468 134.9408229360626 L 364.64595222137865 135.0390437460601 L 364.54544880128987 135.1368151216286 L 364.4427876210387 135.23412728571202 L 364.3379789466577 135.33097050717507 L 364.23103325892686 135.42733510177626 L 364.1219612523259 135.5232114331365 L 364.01077383396455 135.6185899137025 L 363.897482122492 135.71346100570568 L 363.782097446985 135.80781522211595 L 363.664631345815 135.90164312759026 L 363.5450955654941 135.99493533941623 L 363.42350205950083 136.08768252845047 L 363.2998629870844 136.17987542005133 L 363.17419071204904 136.2715047950065 L 363.04649780151755 136.36256149045482 L 362.91679702467457 136.45303640080266 L 362.78510135148963 136.54292047863436 L 362.65142395142044 136.63220473561702 L 362.51577819209547 136.72088024339936 L 362.37817763797767 136.8089381345045 L 362.23863604900777 136.89636960321673 L 362.0971673792284 136.98316590646203 L 361.95378577538867 137.06931836468237 L 361.80850557552947 137.15481836270376 L 361.66134130754966 137.23965735059764 L 361.51230768775343 137.3238268445359 L 361.36141961937864 137.4073184276393 L 361.2086921911063 137.49012375081912 L 361.054140675552 137.57223453361203 L 360.8977805277385 137.65364256500817 L 360.73962738355027 137.73433970427226 L 360.5796970581699 137.8143178817576 L 360.4180055444968 137.89356909971312 L 360.2545690115474 137.97208543308304 L 360.08940380283894 138.04985903029944 L 359.92252643475456 138.12688211406746 L 359.7539535948921 138.20314698214287 L 359.583702140395 138.2786460081024 L 359.41178909626683 138.35337164210642 L 359.2382316536688 138.42731641165378 L 359.06304716820046 138.50047292232912 L 358.88625315816444 138.5728338585424 L 358.7078673028144 138.6443919842602 L 358.52790744058717 138.71514014372968 L 358.3463915673191 138.78507126219378 L 358.1633378344461 138.85417834659899 L 357.9787645471891 138.92245448629438 L 357.7926901627229 138.98989285372295 L 357.60513328833093 139.0564867051041 L 357.4161126795443 139.12222938110824 L 357.2256472382664 139.18711430752253 L 357.03375601088266 139.2511349959084 L 356.8404581863558 139.3142850442503 L 356.6457730943073 139.37655813759613 L 356.4497202030841 139.4379480486884 L 356.2523191178119 139.49844863858718 L 356.0535895784348 139.55805385728382 L 355.8535514577411 139.61675774430623 L 355.65222475937617 139.67455442931453 L 355.44962961584207 139.73143813268845 L 355.24578628648436 139.78740316610504 L 355.040715155466 139.84244393310757 L 354.8344367297293 139.89655492966523 L 354.626971636945 139.94973074472344 L 354.4183406234493 140.00196606074505 L 354.2085645521698 140.05325565424192 L 353.99766440053884 140.1035943962975 L 353.78566125839575 140.1529772530795 L 353.5725763258782 140.20139928634342 L 353.35843091130175 140.24885565392626 L 353.14324642902943 140.29534161023082 L 352.9270443973302 140.3408525067002 L 352.70984643622705 140.38538379228268 L 352.49167426533506 140.42893101388682 L 352.2725497016895 140.47148981682676 L 352.0524946575642 140.51305594525763 L 351.83153113828007 140.55362524260127 L 351.60968124000505 140.59319365196174 L 351.386967147544 140.63175721653107 L 351.1634111321206 140.66931207998493 L 350.9390355491501 140.7058544868683 L 350.71386283600384 140.7413807829709 L 350.4879155097654 140.77588741569278 L 350.2612161649792 140.80937093439937 L 350.0337874713908 140.84182799076672 L 349.80565217168 140.87325533911627 L 349.5768330791867 140.90364983673933 L 349.3473530756294 140.9330084442115 L 349.1172351088173 140.9613282256965 L 348.88650219035526 140.98860634923975 L 348.65517739334285 141.01484008705162 L 348.4232838500671 141.04002681578024 L 348.19084474968895 141.0641640167737 L 347.9578833359248 141.08724927633202 L 347.72442290472196 141.10928028594847 L 347.4904868019289 141.13025484254044 L 347.256098420961 141.15017084866977 L 347.021281200461 141.16902631275246 L 346.7860586219553 141.18681934925777 L 346.55045420750577 141.2035481788969 L 346.31449151735745 141.21921112880085 L 346.07819414758274 141.23380663268765 L 345.8415857277217 141.24733323101907 L 345.6046899184192 141.25978957114654 L 345.36753040905865 141.2711744074465 L 345.1301309153934 141.28148660144473 L 344.8925151771751 141.29072512193042 L 344.6547069557794 141.2988890450593 L 344.4167300318303 141.30597755444578 L 344.1786082028219 141.31198994124486 L 343.9403652807387 141.31692560422286 L 343.7020250896744 141.32078404981763 L 343.46361146344935 141.3235648921878 L 343.22514824322764 141.32526785325143 L 342.98665927513247 141.32589276271386 L 342.748168407862 141.32543955808467 L 342.5096994903041 141.3239082846839 L 342.27127636915196 141.32129909563767 L 342.03292288651886 141.3176122518627 L 341.7946628775545 141.31284812204026 L 341.5565201680613 141.3070071825794 L 341.3185185721116 141.30009001756918 L 341.0806818896668 141.29209731872032 L 340.84303390419683 141.2830298852961 L 340.6055983803023 141.27288862403225 L 340.3683990613377 141.26167454904646 L 340.13145966703723 141.2493887817369 L 339.89480389114294 141.23603255067005 L 339.6584553990351 141.22160719145788 L 339.4224378253661 141.20611414662432 L 339.18677477169655 141.1895549654609 L 338.9514898041354 141.17193130387196 L 338.71660645098336 141.153244924209 L 338.4821482003801 141.13349769509435 L 338.24813849795515 141.1126915912345 L 338.01460074448386 141.0908286932225 L 337.7815582935469 141.06791118732997 L 337.5490344491952 141.04394136528833 L 337.3170524636194 141.01892162405983 L 337.08563553482475 140.9928544655978 L 336.85480680431124 140.96574249659628 L 336.6245893547597 140.93758842822962 L 336.39500620772304 140.90839507588117 L 336.16608032132484 140.8781653588619 L 335.9378345879628 140.84690230011824 L 335.7102918320202 140.81460902593008 L 335.4834748075829 140.7812887655979 L 335.25740619616437 140.74694485111993 L 335.03210860443744 140.71158071685906 L 334.8076045619734 140.6751998991992 L 334.5839165189895 140.63780603619185 L 334.36106684410356 140.59940286719208 L 334.1390778220975 140.55999423248485 L 333.91797165168833 140.51958407290076 L 333.697770443309 140.4781764294221 L 333.4784962168968 140.4357754427787 L 333.2601708996916 140.3923853530339 L 333.04281632404326 140.3480104991605 L 332.82645422522813 140.30265531860692 L 332.6111062392759 140.25632434685343 L 332.3967939008056 140.2090222169586 L 332.18353864087254 140.160753659096 L 331.971361784825 140.11152350008118 L 331.7602845501717 140.061336662889 L 331.55032804446034 140.01019816616142 L 331.34151326316646 139.9581131237054 L 331.13386108759414 139.90508674398188 L 330.92739228278793 139.85112432958456 L 330.7221274954563 139.79623127671 L 330.5180872519068 139.74041307461766 L 330.3152919559939 139.68367530508127 L 330.1137618870781 139.6260236418305 L 329.91351719799843 139.56746384998365 L 329.7145779130568 139.50800178547107 L 329.51696392601605 139.4476433944497 L 329.3206949981102 139.3863947127083 L 329.12579075606834 139.32426186506402 L 328.93227069015245 139.26125106474987 L 328.7401541522077 139.19736861279335 L 328.54946035372785 139.13262089738643 L 328.36020836393385 139.0670143932467 L 328.172417107867 139.00055566096987 L 327.9861053644963 138.93325134637382 L 327.8012917648409 138.8651081798339 L 327.6179947901068 138.79613297561 L 327.4362327698387 138.72633263116504 L 327.25602388008707 138.65571412647532 L 327.0773861415908 138.58428452333243 L 326.90033741797487 138.5120509646372 L 326.7248954139641 138.4390206736853 L 326.55107767361267 138.3652009534449 L 326.37890157854974 138.2905991858266 L 326.20838434624136 138.21522283094495 L 326.0395430282687 138.13907942637263 L 325.87239450862285 138.06217658638664 L 325.70695550201646 137.9845220012069 L 325.54324255221235 137.90612343622718 L 325.381272030369 137.8269887312387 L 325.2210601334037 137.747125799646 L 325.06262288237264 137.66654262767568 L 324.9059761208688 137.58524727357778 L 324.7511355134379 137.50324786681995 L 324.5981165440116 137.42055260727457 L 324.4469345143593 137.33716976439865 L 324.2976045425581 137.253107676407 L 324.15014156148055 137.16837474943839 L 324.004560317302 137.0829794567149 L 323.8608753680255 136.9969303376946 L 323.7191010820263 136.9102359972177 L 323.57925163661486 136.82290510464605 L 323.4413410166191 136.73494639299608 L 323.30538301298617 136.64636865806568 L 323.17139122140304 136.55718075755453 L 323.0393790409373 136.46739161017834 L 322.90935967269695 136.37701019477703 L 322.7813461185105 136.28604554941683 L 322.6553511796266 136.19450677048647 L 322.53138745543424 136.10240301178757 L 322.4094673422025 136.00974348361922 L 322.2896030318411 135.91653745185704 L 322.1718065106812 135.82279423702653 L 322.05608955827677 135.72852321337106 L 321.94246374622657 135.63373380791444 L 321.83094043701715 135.53843549951822 L 321.7215307828865 135.44263781793381 L 321.6142457247088 135.34635034284955 L 321.50909599090056 135.2495827029327 L 321.4060920963475 135.15234457486665 L 321.30524434135316 135.05464568238312 L 321.2065628106091 134.95649579528998 L 321.11005737218613 134.85790472849413 L 321.0157376765477 134.75888234102013 L 320.9236131555847 134.65943853502412 L 320.8336930216725 134.55958325480393 L 320.7459862667496 134.4593264858043 L 320.6605016614183 134.35867825361862 L 320.57724775406797 134.25764862298624 L 320.49623287002 134.156247696786 L 320.41746511069516 134.05448561502604 L 320.34095235280387 133.95237255382972 L 320.2667022475581 133.8499187244181 L 320.1947222199065 133.7471343720887 L 320.1250194677919 133.64402977519111 L 320.0576009614314 133.54061524409914 L 319.99247344261937 133.43690112017967 L 319.9296434240535 133.3328977747587 L 319.8691171886833 133.22861560808406 L 319.8109007890818 133.12406504828556 L 319.7550000468405 133.01925655033202 L 319.7014205519871 132.9142005949859 L 319.6501676624263 132.80890768775524 L 319.60124650340447 132.70338835784298 L 319.5546619669966 132.59765315709416 L 319.51041871161766 132.49171265894074 L 319.4685211615563 132.3855774573443 L 319.4289735065325 132.27925816573654 L 319.3917797012789 132.17276541595797 L 319.356943465145 132.0661098571949 L 319.3244682817254 131.95930215491427 L 319.29435739851135 131.8523529897973 L 319.2666138265661 131.74527305667144 L 319.2412403402237 131.63807306344071 L 319.21823947681173 131.5307637300151 L 319.1976135363972 131.4233557872386 L 319.17936458155714 131.31585997581587 L 319.1634944371717 131.20828704523856 L 319.1500046902422 131.10064775271007 L 319.138896689732 130.9929528620699 L 319.1301715464319 130.88521314271745 L 319.123830132849 130.7774393685348 L 319.1198730831194 130.6696423168096 L 319.11830079294464 130.56183276715717" stroke-miterlimit="10" stroke-width="2.7769845610000004" stroke-dasharray=""/></g><g><g/><text fill="black" stroke="none" font-family="monospace" font-size="11pt" font-style="normal" font-weight="normal" text-decoration="normal" x="310.7271278126302" y="157.597015222" text-anchor="start" dominant-baseline="alphabetic" xml:space="preserve">Database</text></g><g><path fill="white" stroke="red" paint-order="fill stroke markers" d=" M 105.9337934005 438.44942211299997 A 24.2577769005 24.2577769005 0 1 1 105.93378127161255 438.42516434014243 M 78.40897583999998 414.19164521249996 L 88.21009781999999 406.02404356249997 M 78.40897583999998 414.19164521249996 L 88.21009781999999 422.35924686249996" stroke-miterlimit="10" stroke-width="1.9438891927000002" stroke-dasharray=""/></g><g><g/><text fill="black" stroke="none" font-family="monospace" font-size="11pt" font-style="normal" font-weight="normal" text-decoration="normal" x="25.2550722861328" y="399.734990292" text-anchor="start" dominant-baseline="alphabetic" xml:space="preserve">Report Service</text></g><g><path fill="pink" stroke="black" paint-order="fill stroke markers" d=" M 319.11827054541146 452.497696951 L 319.11827054541146 418.193770021 L 366.81706418141147 418.193770021 L 366.81706418141147 452.497696951" stroke-miterlimit="10" stroke-width="2.7769845610000004" stroke-dasharray=""/><path fill="pink" stroke="black" paint-order="fill stroke markers" d=" M 366.81706418141147 417.0013001801 L 366.8158717215078 417.1091107250166 L 366.81229446104174 417.21691048896855 L 366.80633275773636 417.32468869206934 L 366.79798720775705 417.43243455658836 L 366.78725864565183 417.54013730802905 L 366.774148144268 417.64778617620595 L 366.75865701464477 417.755370396322 L 366.7407868058821 417.8628792100448 L 366.7205393049861 417.97030186658264 L 366.69791653668995 418.07762762375927 L 366.6729207632516 418.1848457490885 L 366.6455544842276 418.2919455208471 L 366.615820436223 418.3989162291472 L 366.58372159261785 418.505747177007 L 366.54926116326976 418.61242768142085 L 366.5124425941929 418.71894707442715 L 366.4732695672136 418.8252947041754 L 366.43174599960184 418.93145993599126 L 366.3878760436798 419.0374321534399 L 366.3416640864065 419.1432007593881 L 366.2931147489392 419.2487551770632 L 366.2422328861711 419.3540848511115 L 366.1890235862462 419.45917924865336 L 366.13349217005003 419.5640278603366 L 366.07564419067796 419.66862020138734 L 366.0154854328798 419.7729458126588 L 365.9530219124811 419.87699426167666 L 365.88825987578196 419.98075514368276 L 365.821205798932 420.08421808267536 L 365.751866387283 420.1873727324468 L 365.68024857471835 420.2902087776181 L 365.60635952295974 420.3927159346704 L 365.53020662085066 420.49488395297334 L 365.45179748361784 420.5967026158104 L 365.3711399521098 420.69816174139993 L 365.2882420920123 420.7992511839141 L 365.2031121930424 420.89996083449284 L 365.115758768119 421.00028062225505 L 365.0261905525118 421.10020051530546 L 364.9344165029678 421.1997105217381 L 364.84044579681535 421.29880069063523 L 364.7442878310468 421.3974611130626 L 364.64595222137865 421.4956819230601 L 364.54544880128987 421.59345329862856 L 364.4427876210387 421.690765462712 L 364.3379789466577 421.78760868417504 L 364.23103325892686 421.88397327877624 L 364.1219612523259 421.97984961013645 L 364.01077383396455 422.07522809070247 L 363.897482122492 422.17009918270566 L 363.782097446985 422.26445339911595 L 363.664631345815 422.3582813045902 L 363.5450955654941 422.4515735164162 L 363.42350205950083 422.54432070545045 L 363.2998629870844 422.6365135970513 L 363.17419071204904 422.7281429720065 L 363.04649780151755 422.8191996674548 L 362.91679702467457 422.90967457780266 L 362.78510135148963 422.9995586556343 L 362.65142395142044 423.088842912617 L 362.51577819209547 423.17751842039934 L 362.37817763797767 423.2655763115045 L 362.23863604900777 423.3530077802167 L 362.0971673792284 423.439804083462 L 361.95378577538867 423.5259565416823 L 361.80850557552947 423.61145653970374 L 361.66134130754966 423.6962955275976 L 361.51230768775343 423.78046502153586 L 361.36141961937864 423.86395660463927 L 361.2086921911063 423.94676192781907 L 361.054140675552 424.028872710612 L 360.8977805277385 424.1102807420081 L 360.73962738355027 424.1909778812722 L 360.5796970581699 424.2709560587576 L 360.4180055444968 424.3502072767131 L 360.2545690115474 424.428723610083 L 360.08940380283894 424.50649720729945 L 359.92252643475456 424.58352029106743 L 359.7539535948921 424.6597851591428 L 359.583702140395 424.7352841851024 L 359.41178909626683 424.8100098191064 L 359.2382316536688 424.88395458865375 L 359.06304716820046 424.9571110993291 L 358.88625315816444 425.02947203554237 L 358.7078673028144 425.1010301612602 L 358.52790744058717 425.17177832072963 L 358.3463915673191 425.24170943919376 L 358.1633378344461 425.31081652359893 L 357.9787645471891 425.3790926632944 L 357.7926901627229 425.4465310307229 L 357.60513328833093 425.5131248821041 L 357.4161126795443 425.57886755810824 L 357.2256472382664 425.6437524845225 L 357.03375601088266 425.70777317290833 L 356.8404581863558 425.7709232212503 L 356.6457730943073 425.83319631459614 L 356.4497202030841 425.8945862256884 L 356.2523191178119 425.95508681558715 L 356.0535895784348 426.0146920342838 L 355.8535514577411 426.0733959213062 L 355.65222475937617 426.1311926063145 L 355.44962961584207 426.1880763096884 L 355.24578628648436 426.244041343105 L 355.040715155466 426.2990821101075 L 354.8344367297293 426.3531931066652 L 354.626971636945 426.4063689217234 L 354.4183406234493 426.458604237745 L 354.2085645521698 426.5098938312419 L 353.99766440053884 426.56023257329747 L 353.78566125839575 426.6096154300795 L 353.5725763258782 426.65803746334336 L 353.35843091130175 426.70549383092623 L 353.14324642902943 426.75197978723077 L 352.9270443973302 426.7974906837002 L 352.70984643622705 426.84202196928265 L 352.49167426533506 426.8855691908868 L 352.2725497016895 426.9281279938267 L 352.0524946575642 426.96969412225764 L 351.83153113828007 427.01026341960124 L 351.60968124000505 427.0498318289617 L 351.386967147544 427.088395393531 L 351.1634111321206 427.12595025698494 L 350.9390355491501 427.16249266386825 L 350.71386283600384 427.1980189599709 L 350.4879155097654 427.23252559269275 L 350.2612161649792 427.26600911139934 L 350.0337874713908 427.2984661677667 L 349.80565217168 427.3298935161163 L 349.5768330791867 427.3602880137393 L 349.3473530756294 427.38964662121145 L 349.1172351088173 427.41796640269644 L 348.88650219035526 427.4452445262397 L 348.65517739334285 427.4714782640516 L 348.4232838500671 427.4966649927802 L 348.19084474968895 427.5208021937737 L 347.9578833359248 427.543887453332 L 347.72442290472196 427.56591846294845 L 347.4904868019289 427.5868930195404 L 347.256098420961 427.60680902566975 L 347.021281200461 427.6256644897524 L 346.7860586219553 427.64345752625775 L 346.55045420750577 427.6601863558969 L 346.31449151735745 427.6758493058008 L 346.07819414758274 427.6904448096876 L 345.8415857277217 427.703971408019 L 345.6046899184192 427.71642774814654 L 345.36753040905865 427.72781258444644 L 345.1301309153934 427.73812477844467 L 344.8925151771751 427.7473632989304 L 344.6547069557794 427.75552722205924 L 344.4167300318303 427.76261573144575 L 344.1786082028219 427.7686281182448 L 343.9403652807387 427.77356378122283 L 343.7020250896744 427.7774222268176 L 343.46361146344935 427.7802030691878 L 343.22514824322764 427.7819060302514 L 342.98665927513247 427.7825309397138 L 342.748168407862 427.7820777350846 L 342.5096994903041 427.7805464616839 L 342.27127636915196 427.77793727263764 L 342.03292288651886 427.7742504288627 L 341.7946628775545 427.76948629904024 L 341.5565201680613 427.76364535957936 L 341.3185185721116 427.7567281945692 L 341.0806818896668 427.7487354957203 L 340.84303390419683 427.73966806229606 L 340.6055983803023 427.7295268010322 L 340.3683990613377 427.7183127260464 L 340.13145966703723 427.70602695873686 L 339.89480389114294 427.69267072767 L 339.6584553990351 427.67824536845785 L 339.4224378253661 427.66275232362426 L 339.18677477169655 427.64619314246085 L 338.9514898041354 427.62856948087193 L 338.71660645098336 427.60988310120894 L 338.4821482003801 427.5901358720943 L 338.24813849795515 427.56932976823447 L 338.01460074448386 427.5474668702225 L 337.7815582935469 427.5245493643299 L 337.5490344491952 427.5005795422883 L 337.3170524636194 427.47555980105983 L 337.08563553482475 427.44949264259776 L 336.85480680431124 427.42238067359625 L 336.6245893547597 427.39422660522956 L 336.39500620772304 427.3650332528812 L 336.16608032132484 427.33480353586185 L 335.9378345879628 427.30354047711825 L 335.7102918320202 427.27124720293006 L 335.4834748075829 427.2379269425979 L 335.25740619616437 427.2035830281199 L 335.03210860443744 427.16821889385903 L 334.8076045619734 427.1318380761992 L 334.5839165189895 427.0944442131918 L 334.36106684410356 427.05604104419206 L 334.1390778220975 427.0166324094848 L 333.91797165168833 426.97622224990073 L 333.697770443309 426.93481460642204 L 333.4784962168968 426.89241361977867 L 333.2601708996916 426.84902353003383 L 333.04281632404326 426.80464867616047 L 332.82645422522813 426.7592934956069 L 332.6111062392759 426.71296252385343 L 332.3967939008056 426.6656603939586 L 332.18353864087254 426.617391836096 L 331.971361784825 426.56816167708115 L 331.7602845501717 426.517974839889 L 331.55032804446034 426.4668363431614 L 331.34151326316646 426.4147513007054 L 331.13386108759414 426.3617249209818 L 330.92739228278793 426.30776250658454 L 330.7221274954563 426.25286945371 L 330.5180872519068 426.1970512516176 L 330.3152919559939 426.14031348208124 L 330.1137618870781 426.0826618188305 L 329.91351719799843 426.0241020269836 L 329.7145779130568 425.96463996247104 L 329.51696392601605 425.90428157144964 L 329.3206949981102 425.8430328897083 L 329.12579075606834 425.780900042064 L 328.93227069015245 425.71788924174984 L 328.7401541522077 425.65400678979336 L 328.54946035372785 425.5892590743864 L 328.36020836393385 425.52365257024667 L 328.172417107867 425.45719383796984 L 327.9861053644963 425.38988952337377 L 327.8012917648409 425.32174635683384 L 327.6179947901068 425.25277115260997 L 327.4362327698387 425.182970808165 L 327.25602388008707 425.1123523034753 L 327.0773861415908 425.04092270033243 L 326.90033741797487 424.9686891416372 L 326.7248954139641 424.89565885068527 L 326.55107767361267 424.8218391304449 L 326.37890157854974 424.7472373628266 L 326.20838434624136 424.6718610079449 L 326.0395430282687 424.5957176033726 L 325.87239450862285 424.5188147633866 L 325.70695550201646 424.44116017820687 L 325.54324255221235 424.3627616132272 L 325.381272030369 424.28362690823866 L 325.2210601334037 424.203763976646 L 325.06262288237264 424.12318080467566 L 324.9059761208688 424.04188545057775 L 324.7511355134379 423.95988604381995 L 324.5981165440116 423.87719078427455 L 324.4469345143593 423.79380794139865 L 324.2976045425581 423.709745853407 L 324.15014156148055 423.6250129264384 L 324.004560317302 423.53961763371484 L 323.8608753680255 423.45356851469455 L 323.7191010820263 423.3668741742177 L 323.57925163661486 423.27954328164606 L 323.4413410166191 423.19158456999605 L 323.30538301298617 423.1030068350657 L 323.17139122140304 423.0138189345545 L 323.0393790409373 422.9240297871783 L 322.90935967269695 422.83364837177703 L 322.7813461185105 422.74268372641683 L 322.6553511796266 422.65114494748644 L 322.53138745543424 422.55904118878755 L 322.4094673422025 422.4663816606192 L 322.2896030318411 422.37317562885704 L 322.1718065106812 422.27943241402653 L 322.05608955827677 422.18516139037104 L 321.94246374622657 422.09037198491444 L 321.83094043701715 421.9950736765182 L 321.7215307828865 421.89927599493376 L 321.6142457247088 421.8029885198495 L 321.50909599090056 421.7062208799327 L 321.4060920963475 421.6089827518666 L 321.30524434135316 421.5112838593831 L 321.2065628106091 421.41313397229 L 321.11005737218613 421.31454290549414 L 321.0157376765477 421.21552051802007 L 320.9236131555847 421.1160767120241 L 320.8336930216725 421.0162214318039 L 320.7459862667496 420.9159646628043 L 320.6605016614183 420.8153164306186 L 320.57724775406797 420.7142867999862 L 320.49623287002 420.61288587378596 L 320.41746511069516 420.511123792026 L 320.34095235280387 420.4090107308297 L 320.2667022475581 420.30655690141805 L 320.1947222199065 420.2037725490887 L 320.1250194677919 420.1006679521911 L 320.0576009614314 419.9972534210991 L 319.99247344261937 419.89353929717964 L 319.9296434240535 419.78953595175864 L 319.8691171886833 419.685253785084 L 319.8109007890818 419.5807032252855 L 319.7550000468405 419.475894727332 L 319.7014205519871 419.3708387719859 L 319.6501676624263 419.2655458647552 L 319.60124650340447 419.1600265348429 L 319.5546619669966 419.0542913340941 L 319.51041871161766 418.94835083594074 L 319.4685211615563 418.84221563434426 L 319.4289735065325 418.7358963427365 L 319.3917797012789 418.62940359295794 L 319.356943465145 418.5227480341949 L 319.3244682817254 418.4159403319142 L 319.29435739851135 418.3089911667973 L 319.2666138265661 418.2019112336714 L 319.2412403402237 418.0947112404407 L 319.21823947681173 417.9874019070151 L 319.1976135363972 417.87999396423857 L 319.17936458155714 417.77249815281584 L 319.1634944371717 417.66492522223854 L 319.1500046902422 417.55728592971 L 319.138896689732 417.4495910390699 L 319.1301715464319 417.3418513197174 L 319.123830132849 417.2340775455348 L 319.1198730831194 417.1262804938096 L 319.11830079294464 417.0184709441571 L 319.1191134195526 416.9106596774426 L 319.1223108816812 416.8028574747028 L 319.1278928595869 416.6950751160682 L 319.13585879507656 416.5873233796848 L 319.1462078915633 416.4796130406365 L 319.15893911414605 416.37195486986735 L 319.17405118971317 416.2643596331048 L 319.1915426070697 416.1568380897828 L 319.2114116170886 416.04940099196614 L 319.2336562328852 415.94205908327507 L 319.25827423001664 415.83482309781095 L 319.28526314670364 415.727703759083 L 319.3146202840771 415.6207117789358 L 319.34634270644756 415.5138578564783 L 319.3804272415994 415.4071526770136 L 319.41687048110754 415.3006069109707 L 319.4556687806782 415.19423121283756 L 319.4968182605139 415.0880362200952 L 319.5403148057009 414.9820325521545 L 319.586154066621 414.8762308092939 L 319.6343314593862 414.7706415715994 L 319.68484216629747 414.66527539790695 L 319.7376811363261 414.56014282474604 L 319.7928430856192 414.45525436528635 L 319.8503224980278 414.35062050828645 L 319.91011362565854 414.2462517170448 L 319.9722104894485 414.14215842835364 L 320.03660687976304 414.03835105145504 L 320.1032963570168 413.9348399670002 L 320.1722722523176 413.8316355260112 L 320.2435276681334 413.72874804884634 L 320.317055478982 413.62618782416746 L 320.39284833214367 413.5239651079116 L 320.4708986483961 413.42209012226516 L 320.5511986227728 413.32057305464184 L 320.6337402253433 413.2194240566638 L 320.71851520201596 413.1186532431466 L 320.8055150753639 413.0182706910875 L 320.8947311454723 412.91828643865813 L 320.9861544908084 412.81871048420044 L 321.0797759691139 412.7195527852268 L 321.175586218319 412.6208232574246 L 321.27357565747855 412.5225317736643 L 321.37373448773036 412.42468816301226 L 321.4760526932749 412.32730220974815 L 321.5805200423768 412.23038365238614 L 321.68712608838825 412.1339421827011 L 321.79586017079345 412.03798744475966 L 321.90671141627485 411.9425290339557 L 322.0196687398002 411.8475764960507 L 322.13472084573124 411.7531393262194 L 322.2518562289534 411.6592269681 L 322.37106317602587 411.5658488128501 L 322.4923297663533 411.47301419820735 L 322.6156438733777 411.38073240755597 L 322.7409931657911 411.289012668998 L 322.86836510876884 411.197864154431 L 322.99774696522263 411.1072959786303 L 323.12912579707466 411.0173171983381 L 323.2624884665513 410.9279368113575 L 323.39782163749675 410.8391637556526 L 323.5351117767066 410.75100690845505 L 323.67434515528134 410.6634750853761 L 323.8155078499992 410.57657703952515 L 323.95858574470833 410.49032146063433 L 324.10356453173847 410.4047169741896 L 324.25042971333176 410.31977214056843 L 324.39916660309245 410.23549545418325 L 324.54976032745543 410.1518953426325 L 324.7021958271738 410.0689801658577 L 324.8564578588246 409.98675821530736 L 325.0125309963332 409.90523771310814 L 325.170399632516 409.8244268112422 L 325.3300479806409 409.7443335907324 L 325.4914600760061 409.66496606083416 L 325.6546197775366 409.58633215823426 L 325.81951076939816 409.50843974625735 L 325.98611656262904 409.4312966140799 L 326.15442049678876 409.35491047595065 L 326.32440574162416 409.2792889704199 L 326.49605529875237 409.2044396595751 L 326.6693520033608 409.130370028285 L 326.8442785259233 409.05708748345097 L 327.0208173739335 408.98459935326645 L 327.19895089365355 408.91291288648404 L 327.3786612718801 408.84203525169073 L 327.559930537725 408.7719735365909 L 327.7427405644127 408.70273474729765 L 327.92707307109293 408.63432580763225 L 328.1129096246686 408.5667535584316 L 328.3002316416392 408.50002475686443 L 328.4890203899592 408.43414607575517 L 328.679256990911 408.36912410291706 L 328.8709224209931 408.3049653404932 L 329.0639975138222 408.2416762043064 L 329.25846296204986 408.1792630232175 L 329.4542993192934 408.11773203849265 L 329.6514870020803 408.05708940317896 L 329.85000629180644 407.99734118148956 L 330.0498373367085 407.9384933481967 L 330.2509601538483 407.88055178803467 L 330.4533546311119 407.82352229511133 L 330.65700052922017 407.7674105723283 L 330.861877483753 407.7122222308112 L 331.06796500718565 407.6579627893482 L 331.27524249093756 407.6046376738381 L 331.4836892074331 407.5522522167481 L 331.6932843121742 407.5008116565803 L 331.9040068458252 407.4503211373478 L 332.11583573630827 407.4007857080605 L 332.3287498009109 407.3522103222199 L 332.542727748404 407.30459983732425 L 332.75774818117117 407.2579590143823 L 332.97378959734834 407.21229251743756 L 333.19083039297396 407.16760491310157 L 333.40884886414926 407.12390067009756 L 333.6278232092088 407.0811841588134 L 333.8477315309006 407.03945965086467 L 334.06855183857573 406.99873131866735 L 334.29026205038747 406.9590032350207 L 334.51283999549935 406.9202793727 L 334.73626341630234 406.88256360405927 L 334.96050997064054 406.8458597006438 L 335.18555723404546 406.8101713328135 L 335.4113827019782 406.77550206937536 L 335.6379637920802 406.7418553772268 L 335.8652778464313 406.70923462100905 L 336.0933021338154 406.67764306277047 L 336.3220138519939 406.6470838616406 L 336.5513901299855 406.61756007351414 L 336.7814080303536 406.5890746507452 L 337.0120445514998 406.5616304418524 L 337.24327662996416 406.5352301912337 L 337.47508114273154 406.50987653889223 L 337.70743490954385 406.48557202017207 L 337.94031469521804 406.4623190655048 L 338.1736972119696 406.44012000016653 L 338.4075591217414 406.4189770440453 L 338.64187703853725 406.3988923114191 L 338.87662753076074 406.37986781074443 L 339.1117871235583 406.3619054444556 L 339.3473323011667 406.34500700877413 L 339.58323950926433 406.32917419352964 L 339.81948515732705 406.31440858199034 L 340.0560456209869 406.3007116507052 L 340.2928972443946 406.2880847693558 L 340.5300163425853 406.27652920061985 L 340.7673792038467 406.2660461000446 L 341.0049620920905 406.25663651593135 L 341.24274124922584 406.2483013892306 L 341.48069289753516 406.24104155344816 L 341.7187932420519 406.23485773456156 L 341.9570184729401 406.2297505509475 L 342.1953447678751 406.2257205133201 L 342.43374829442604 406.2227680246797 L 342.672205212439 406.2208933802728 L 342.9106916764208 406.22009676756227 L 343.14918383792383 406.2203782662086 L 343.3876578479307 406.22173784806233 L 343.6260898592391 406.2241753771663 L 343.8644560288466 406.22769060976964 L 344.1027325203348 406.2322831943521 L 344.3408955062533 406.2379526716589 L 344.5789211705018 406.24469847474717 L 344.81678571071234 406.25251992904214 L 345.05446534062906 406.26141625240496 L 345.29193629248704 406.27138655521065 L 345.529174819389 406.28242984043726 L 345.76615719767995 406.2945450037655 L 346.00285972931954 406.3077308336891 L 346.2392587442519 406.32198601163606 L 346.47533060277243 406.33730911210046 L 346.7110516978921 406.353698602785 L 346.9463984576978 406.37115284475436 L 347.1813473477097 406.3896700925988 L 347.4158748732345 406.409248494609 L 347.6499575817151 406.42988609296106 L 347.88357206507584 406.45158082391237 L 348.116694962063 406.4743305180079 L 348.3493029605811 406.49813290029715 L 348.58137280002416 406.5229855905618 L 348.81288127360165 406.5488861035535 L 349.04380523065913 406.57583184924255 L 349.2741215789933 406.6038201330768 L 349.5038072871613 406.6328481562512 L 349.7328393867836 406.66291301598767 L 349.9611949748413 406.6940117058253 L 350.1888512159657 406.7261411159209 L 350.4157853447225 406.7592980333604 L 350.64197466788795 406.7934791424795 L 350.8673965667181 406.8286810251959 L 351.0920284992111 406.86490016135065 L 351.3158480023608 406.9021329290603 L 351.5388326944033 406.94037560507917 L 351.7609602770554 406.9796243651714 L 351.9822085377438 407.01987528449376 L 352.2025553518269 407.06112433798785 L 352.4219786848069 407.1033674007827 L 352.64045659453325 407.14660024860723 L 352.8579672333972 407.1908185582127 L 353.074488850516 407.236017907805 L 353.28999979390835 407.2821937774868 L 353.50447851265966 407.3293415497096 L 353.71790355907666 407.37745650973557 L 353.9302535908326 407.4265338461087 L 354.1415073731012 407.4765686511363 L 354.35164378068043 407.52755592137953 L 354.56064180010446 407.57949055815385 L 354.76848053174564 407.6323673680389 L 354.97513919190396 407.6861810633978 L 355.18059711488564 407.7409262629057 L 355.38483375506956 407.79659749208844 L 355.58782868896196 407.85318918386935 L 355.7895616172385 407.91069567912655 L 355.9900123667746 407.96911122725834 L 356.18916089266224 408.0284299867586 L 356.38698728021484 408.08864602580087 L 356.5834717469585 408.1497533228313 L 356.7785946446103 408.2117457671713 L 356.97233646104297 408.2746171596279 L 357.16467782223646 408.33836121311435 L 357.35559949421486 408.40297155327846 L 357.54508238497004 408.46844171913995 L 357.7331075463709 408.5347651637369 L 357.91965617605797 408.60193525478 L 358.10470961932367 408.6699452753162 L 358.288249370978 408.7387884244001 L 358.47025707719865 408.80845781777424 L 358.65071453736675 408.8789464885572 L 358.82960370588654 408.95024738794075 L 359.0069066939904 409.0223533858943 L 359.1826057715271 409.09525727187815 L 359.3566833687355 409.1689517555645 L 359.52912207800074 409.24342946756633 L 359.69990465559573 409.3186829601746 L 359.869014023405 409.39470470810267 L 360.03643327063264 409.47148710923915 L 360.2021456554935 409.5490224854079 L 360.3661346068872 409.62730308313587 L 360.5283837260552 409.70632107442856 L 360.6888767882208 409.7860685575527 L 360.84759774421155 409.86653755782646 L 361.00453072206415 409.94772002841677 L 361.15966002861154 410.0296078511443 L 361.3129701510523 410.112192837295 L 361.46444575850205 410.1954667284391 L 361.61407170352624 410.27942119725685 L 361.761833023655 410.36404784837134 L 361.90771494287947 410.449338219188 L 362.05170287312933 410.53528378074077 L 362.19378241573156 410.62187593854514 L 362.33393936285023 410.70910603345754 L 362.4721596989075 410.79696534254106 L 362.6084296019849 410.8854450799381 L 362.74273544520565 410.9745363977487 L 362.8750637980974 411.06423038691514 L 363.00540142793517 411.1545180781134 L 363.1337353010645 411.2453904426496 L 363.2600525842051 411.3368383933629 L 363.38434064573386 411.42885278553456 L 363.5065870569482 411.52142441780194 L 363.6267795933089 411.614544033079 L 363.74490623566254 411.70820231948187 L 363.86095517144327 411.80238991125987 L 363.97491479585415 411.8970973897323 L 364.08677371302775 411.99231528423036 L 364.19652073716566 412.0880340730438 L 364.3041448936568 412.1842441843736 L 364.4096354201753 412.28093599728874 L 364.5129817677563 412.3780998426886 L 364.6141736018513 412.4757260042695 L 364.7132008033611 412.5738047194967 L 364.8100534696481 412.6723261805804 L 364.90472191552647 412.7712805354566 L 364.99719667423045 412.8706578887722 L 365.0874684983612 412.9704483028748 L 365.17552836081154 413.07064179880604 L 365.2613674556687 413.17122835729987 L 365.34497719909456 413.27219791978433 L 365.4263492301846 413.3735403893872 L 365.50547541180345 413.475245631946 L 365.5823478313989 413.5773034770213 L 365.6569588017931 413.6797037189136 L 365.7293008619511 413.782436117684 L 365.79936677772724 413.8854904001782 L 365.8671495425883 413.98885626105397 L 365.93264237831426 414.09252336381127 L 365.99583873567616 414.1964813418262 L 366.0567322950909 414.30071979938765 L 366.1153169672533 414.40522831273665 L 366.171586893745 414.509996431109 L 366.22553644762013 414.6150136777802 L 366.27716023396835 414.7202695511131 L 366.32645309045404 414.82575352560804 L 366.37341008783267 414.9314550529554 L 366.4180265304435 415.0373635630907 L 366.46029795667954 415.14346846525103 L 366.5002201394334 415.2497591490347 L 366.53778908652004 415.35622498546184 L 366.5730010410761 415.46285532803756 L 366.6058524819354 415.5696395138164 L 366.6363401239813 415.6765668644689 L 366.66446091847496 415.783626687349 L 366.69021205336037 415.89080827656363 L 366.7135909535455 415.9981009140432 L 366.73459528115984 416.10549387061343 L 366.75322293578813 416.2129764070681 L 366.76947205468036 416.3205377752431 L 366.7833410129383 416.4281672190913 L 366.7948284236776 416.53585397575796 L 366.8039331381667 416.64358727665723 L 366.81065424594186 416.75135634854877 L 366.8149910748979 416.8591504146151 L 366.81694319135545 416.9669586955396 M 366.81706418141147 451.3052271101 L 366.8158717215078 451.41303765501664 L 366.81229446104174 451.5208374189686 L 366.80633275773636 451.6286156220694 L 366.79798720775705 451.7363614865884 L 366.78725864565183 451.8440642380291 L 366.774148144268 451.951713106206 L 366.75865701464477 452.05929732632205 L 366.7407868058821 452.16680614004486 L 366.7205393049861 452.2742287965827 L 366.69791653668995 452.3815545537593 L 366.6729207632516 452.4887726790885 L 366.6455544842276 452.59587245084714 L 366.615820436223 452.7028431591472 L 366.58372159261785 452.809674107007 L 366.54926116326976 452.9163546114209 L 366.5124425941929 453.0228740044272 L 366.4732695672136 453.12922163417545 L 366.43174599960184 453.2353868659913 L 366.3878760436798 453.34135908343995 L 366.3416640864065 453.44712768938814 L 366.2931147489392 453.5526821070632 L 366.2422328861711 453.65801178111155 L 366.1890235862462 453.7631061786534 L 366.13349217005003 453.8679547903366 L 366.07564419067796 453.9725471313874 L 366.0154854328798 454.07687274265885 L 365.9530219124811 454.1809211916767 L 365.88825987578196 454.2846820736828 L 365.821205798932 454.3881450126754 L 365.751866387283 454.49129966244686 L 365.68024857471835 454.59413570761814 L 365.60635952295974 454.6966428646704 L 365.53020662085066 454.7988108829734 L 365.45179748361784 454.90062954581043 L 365.3711399521098 455.0020886714 L 365.2882420920123 455.10317811391417 L 365.2031121930424 455.2038877644929 L 365.115758768119 455.3042075522551 L 365.0261905525118 455.4041274453055 L 364.9344165029678 455.50363745173814 L 364.84044579681535 455.6027276206353 L 364.7442878310468 455.70138804306265 L 364.64595222137865 455.79960885306014 L 364.54544880128987 455.8973802286286 L 364.4427876210387 455.99469239271207 L 364.3379789466577 456.0915356141751 L 364.23103325892686 456.1879002087763 L 364.1219612523259 456.2837765401365 L 364.01077383396455 456.3791550207025 L 363.897482122492 456.4740261127057 L 363.782097446985 456.568380329116 L 363.664631345815 456.66220823459025 L 363.5450955654941 456.75550044641625 L 363.42350205950083 456.8482476354505 L 363.2998629870844 456.94044052705135 L 363.17419071204904 457.0320699020065 L 363.04649780151755 457.12312659745487 L 362.91679702467457 457.2136015078027 L 362.78510135148963 457.30348558563435 L 362.65142395142044 457.39276984261704 L 362.51577819209547 457.4814453503994 L 362.37817763797767 457.56950324150455 L 362.23863604900777 457.6569347102168 L 362.0971673792284 457.743731013462 L 361.95378577538867 457.82988347168236 L 361.80850557552947 457.9153834697038 L 361.66134130754966 458.00022245759766 L 361.51230768775343 458.0843919515359 L 361.36141961937864 458.1678835346393 L 361.2086921911063 458.2506888578191 L 361.054140675552 458.33279964061205 L 360.8977805277385 458.41420767200816 L 360.73962738355027 458.49490481127225 L 360.5796970581699 458.5748829887576 L 360.4180055444968 458.65413420671314 L 360.2545690115474 458.73265054008306 L 360.08940380283894 458.8104241372995 L 359.92252643475456 458.8874472210675 L 359.7539535948921 458.96371208914286 L 359.583702140395 459.03921111510243 L 359.41178909626683 459.1139367491065 L 359.2382316536688 459.1878815186538 L 359.06304716820046 459.26103802932914 L 358.88625315816444 459.3333989655424 L 358.7078673028144 459.40495709126026 L 358.52790744058717 459.4757052507297 L 358.3463915673191 459.5456363691938 L 358.1633378344461 459.614743453599 L 357.9787645471891 459.6830195932944 L 357.7926901627229 459.75045796072294 L 357.60513328833093 459.8170518121041 L 357.4161126795443 459.8827944881083 L 357.2256472382664 459.94767941452255 L 357.03375601088266 460.0117001029084 L 356.8404581863558 460.07485015125036 L 356.6457730943073 460.1371232445962 L 356.4497202030841 460.19851315568843 L 356.2523191178119 460.2590137455872 L 356.0535895784348 460.31861896428387 L 355.8535514577411 460.37732285130625 L 355.65222475937617 460.4351195363146 L 355.44962961584207 460.4920032396885 L 355.24578628648436 460.547968273105 L 355.040715155466 460.60300904010757 L 354.8344367297293 460.6571200366652 L 354.626971636945 460.71029585172346 L 354.4183406234493 460.76253116774507 L 354.2085645521698 460.81382076124197 L 353.99766440053884 460.8641595032975 L 353.78566125839575 460.91354236007953 L 353.5725763258782 460.9619643933434 L 353.35843091130175 461.0094207609263 L 353.14324642902943 461.0559067172308 L 352.9270443973302 461.1014176137002 L 352.70984643622705 461.1459488992827 L 352.49167426533506 461.1894961208869 L 352.2725497016895 461.23205492382675 L 352.0524946575642 461.2736210522577 L 351.83153113828007 461.3141903496013 L 351.60968124000505 461.35375875896176 L 351.386967147544 461.39232232353106 L 351.1634111321206 461.429877186985 L 350.9390355491501 461.4664195938683 L 350.71386283600384 461.5019458899709 L 350.4879155097654 461.5364525226928 L 350.2612161649792 461.5699360413994 L 350.0337874713908 461.60239309776676 L 349.80565217168 461.63382044611626 L 349.5768330791867 461.66421494373935 L 349.3473530756294 461.6935735512115 L 349.1172351088173 461.7218933326965 L 348.88650219035526 461.74917145623976 L 348.65517739334285 461.77540519405164 L 348.4232838500671 461.80059192278026 L 348.19084474968895 461.82472912377375 L 347.9578833359248 461.84781438333204 L 347.72442290472196 461.8698453929485 L 347.4904868019289 461.89081994954046 L 347.256098420961 461.9107359556698 L 347.021281200461 461.92959141975246 L 346.7860586219553 461.9473844562578 L 346.55045420750577 461.96411328589693 L 346.31449151735745 461.97977623580084 L 346.07819414758274 461.99437173968767 L 345.8415857277217 462.00789833801906 L 345.6046899184192 462.0203546781466 L 345.36753040905865 462.0317395144465 L 345.1301309153934 462.0420517084447 L 344.8925151771751 462.05129022893044 L 344.6547069557794 462.0594541520593 L 344.4167300318303 462.0665426614458 L 344.1786082028219 462.07255504824485 L 343.9403652807387 462.0774907112229 L 343.7020250896744 462.0813491568176 L 343.46361146344935 462.0841299991878 L 343.22514824322764 462.0858329602514 L 342.98665927513247 462.08645786971385 L 342.748168407862 462.08600466508466 L 342.5096994903041 462.08447339168396 L 342.27127636915196 462.0818642026377 L 342.03292288651886 462.0781773588627 L 341.7946628775545 462.0734132290403 L 341.5565201680613 462.0675722895794 L 341.3185185721116 462.06065512456917 L 341.0806818896668 462.05266242572037 L 340.84303390419683 462.0435949922961 L 340.6055983803023 462.03345373103224 L 340.3683990613377 462.0222396560465 L 340.13145966703723 462.0099538887369 L 339.89480389114294 461.99659765767007 L 339.6584553990351 461.9821722984579 L 339.4224378253661 461.9666792536243 L 339.18677477169655 461.9501200724609 L 338.9514898041354 461.932496410872 L 338.71660645098336 461.913810031209 L 338.4821482003801 461.89406280209437 L 338.24813849795515 461.8732566982345 L 338.01460074448386 461.8513938002225 L 337.7815582935469 461.82847629432996 L 337.5490344491952 461.8045064722883 L 337.3170524636194 461.7794867310599 L 337.08563553482475 461.7534195725978 L 336.85480680431124 461.7263076035963 L 336.6245893547597 461.6981535352296 L 336.39500620772304 461.6689601828812 L 336.16608032132484 461.6387304658619 L 335.9378345879628 461.6074674071183 L 335.7102918320202 461.5751741329301 L 335.4834748075829 461.5418538725979 L 335.25740619616437 461.50750995811995 L 335.03210860443744 461.4721458238591 L 334.8076045619734 461.43576500619923 L 334.5839165189895 461.39837114319187 L 334.36106684410356 461.3599679741921 L 334.1390778220975 461.3205593394849 L 333.91797165168833 461.2801491799008 L 333.697770443309 461.2387415364221 L 333.4784962168968 461.1963405497787 L 333.2601708996916 461.1529504600339 L 333.04281632404326 461.1085756061605 L 332.82645422522813 461.06322042560697 L 332.6111062392759 461.0168894538535 L 332.3967939008056 460.96958732395865 L 332.18353864087254 460.921318766096 L 331.971361784825 460.8720886070812 L 331.7602845501717 460.82190176988905 L 331.55032804446034 460.77076327316144 L 331.34151326316646 460.71867823070545 L 331.13386108759414 460.6656518509819 L 330.92739228278793 460.6116894365846 L 330.7221274954563 460.55679638371 L 330.5180872519068 460.50097818161765 L 330.3152919559939 460.4442404120813 L 330.1137618870781 460.38658874883055 L 329.91351719799843 460.32802895698364 L 329.7145779130568 460.2685668924711 L 329.51696392601605 460.2082085014497 L 329.3206949981102 460.14695981970834 L 329.12579075606834 460.08482697206404 L 328.93227069015245 460.0218161717499 L 328.7401541522077 459.95793371979335 L 328.54946035372785 459.89318600438645 L 328.36020836393385 459.8275795002467 L 328.172417107867 459.7611207679699 L 327.9861053644963 459.6938164533738 L 327.8012917648409 459.6256732868339 L 327.6179947901068 459.55669808261 L 327.4362327698387 459.48689773816506 L 327.25602388008707 459.41627923347534 L 327.0773861415908 459.3448496303325 L 326.90033741797487 459.27261607163723 L 326.7248954139641 459.1995857806853 L 326.55107767361267 459.12576606044496 L 326.37890157854974 459.0511642928266 L 326.20838434624136 458.975787937945 L 326.0395430282687 458.8996445333726 L 325.87239450862285 458.82274169338666 L 325.70695550201646 458.7450871082069 L 325.54324255221235 458.6666885432272 L 325.381272030369 458.5875538382387 L 325.2210601334037 458.507690906646 L 325.06262288237264 458.4271077346757 L 324.9059761208688 458.3458123805778 L 324.7511355134379 458.26381297382 L 324.5981165440116 458.1811177142746 L 324.4469345143593 458.0977348713987 L 324.2976045425581 458.01367278340706 L 324.15014156148055 457.92893985643843 L 324.004560317302 457.8435445637149 L 323.8608753680255 457.7574954446946 L 323.7191010820263 457.67080110421773 L 323.57925163661486 457.5834702116461 L 323.4413410166191 457.4955114999961 L 323.30538301298617 457.40693376506573 L 323.17139122140304 457.3177458645545 L 323.0393790409373 457.22795671717836 L 322.90935967269695 457.1375753017771 L 322.7813461185105 457.0466106564169 L 322.6553511796266 456.9550718774865 L 322.53138745543424 456.8629681187876 L 322.4094673422025 456.77030859061927 L 322.2896030318411 456.6771025588571 L 322.1718065106812 456.5833593440266 L 322.05608955827677 456.4890883203711 L 321.94246374622657 456.3942989149145 L 321.83094043701715 456.29900060651823 L 321.7215307828865 456.2032029249338 L 321.6142457247088 456.10691544984957 L 321.50909599090056 456.01014780993273 L 321.4060920963475 455.91290968186667 L 321.30524434135316 455.8152107893832 L 321.2065628106091 455.71706090229003 L 321.11005737218613 455.6184698354942 L 321.0157376765477 455.5194474480201 L 320.9236131555847 455.42000364202414 L 320.8336930216725 455.32014836180394 L 320.7459862667496 455.21989159280434 L 320.6605016614183 455.11924336061867 L 320.57724775406797 455.01821372998626 L 320.49623287002 454.916812803786 L 320.41746511069516 454.81505072202606 L 320.34095235280387 454.71293766082977 L 320.2667022475581 454.6104838314181 L 320.1947222199065 454.5076994790887 L 320.1250194677919 454.40459488219113 L 320.0576009614314 454.30118035109916 L 319.99247344261937 454.1974662271797 L 319.9296434240535 454.0934628817587 L 319.8691171886833 453.98918071508405 L 319.8109007890818 453.88463015528555 L 319.7550000468405 453.77982165733204 L 319.7014205519871 453.67476570198596 L 319.6501676624263 453.56947279475526 L 319.60124650340447 453.463953464843 L 319.5546619669966 453.35821826409415 L 319.51041871161766 453.2522777659408 L 319.4685211615563 453.1461425643443 L 319.4289735065325 453.03982327273656 L 319.3917797012789 452.933330522958 L 319.356943465145 452.8266749641949 L 319.3244682817254 452.71986726191426 L 319.29435739851135 452.61291809679733 L 319.2666138265661 452.50583816367146 L 319.2412403402237 452.39863817044073 L 319.21823947681173 452.29132883701516 L 319.1976135363972 452.1839208942386 L 319.17936458155714 452.0764250828159 L 319.1634944371717 451.9688521522386 L 319.1500046902422 451.86121285971007 L 319.138896689732 451.75351796906995 L 319.1301715464319 451.64577824971747 L 319.123830132849 451.5380044755348 L 319.1198730831194 451.43020742380963 L 319.11830079294464 451.32239787415716" stroke-miterlimit="10" stroke-width="2.7769845610000004" stroke-dasharray=""/></g><g><g/><text fill="black" stroke="none" font-family="monospace" font-size="11pt" font-style="normal" font-weight="normal" text-decoration="normal" x="310.7271278126302" y="399.734990292" text-anchor="start" dominant-baseline="alphabetic" xml:space="preserve">Database</text></g></g><g><path fill="white" stroke="black" paint-order="fill stroke markers" d=" M 73.50841485 170.665177862 L 89.84361814999998 170.665177862 L 89.84361814999998 368.321137792 L 73.50841485 368.321137792 L 73.50841485 170.665177862" stroke-miterlimit="10" stroke-width="1.3612669416666667" stroke-dasharray=""/><path fill="white" stroke="black" paint-order="fill stroke markers" d=" M 334.80006571341147 258.875275682 L 351.13526901341146 258.875275682 L 351.13526901341146 302.980324592 L 334.80006571341147 302.980324592 L 334.80006571341147 258.875275682" stroke-miterlimit="10" stroke-width="1.3612669416666667" stroke-dasharray=""/><g><text fill="black" stroke="none" font-family="monospace" font-size="11pt" font-style="normal" font-weight="normal" text-decoration="normal" x="135.75056049860024" y="252.84381600199998" text-anchor="start" dominant-baseline="alphabetic" xml:space="preserve">clearTempAnalysis()</text></g><g><path fill="none" stroke="black" paint-order="fill stroke markers" d=" M 89.84361814999998 258.875275682 L 321.3507483297448 258.875275682" stroke-miterlimit="10" stroke-width="1.3612669416666667" stroke-dasharray=""/><g transform="translate(334.80006571341147,258.875275682) translate(-334.80006571341147,-258.875275682)"><path fill="black" stroke="none" paint-order="stroke fill markers" d=" M 321.1873962967448 252.06894097366666 L 334.80006571341147 258.875275682 L 321.1873962967448 265.68161039033333 Z"/></g></g><g><text fill="black" stroke="none" font-family="monospace" font-size="11pt" font-style="normal" font-weight="normal" text-decoration="normal" x="184.1113698247721" y="296.948864912" text-anchor="start" dominant-baseline="alphabetic" xml:space="preserve">Success</text></g><g><path fill="none" stroke="black" paint-order="fill stroke markers" d=" M 334.80006571341147 302.980324592 L 103.29293553366665 302.980324592" stroke-miterlimit="10" stroke-width="1.3612669416666667" stroke-dasharray="6.53408132"/><g transform="translate(89.84361814999998,302.980324592) translate(-89.84361814999998,-302.980324592)"><path fill="black" stroke="none" paint-order="stroke fill markers" d=" M 103.45628756666665 296.17398988366665 L 89.84361814999998 302.980324592 L 103.45628756666665 309.7866593003333 Z"/></g></g><g><g/><path fill="none" stroke="black" paint-order="fill stroke markers" d=" M 16.33520329999999 195.167982812 L 400.1408789134115 195.167982812 L 400.1408789134115 327.483129542 L 16.33520329999999 327.483129542 L 16.33520329999999 195.167982812 Z" stroke-miterlimit="10" stroke-width="2.3336004714285714" stroke-dasharray=""/><path fill="white" stroke="black" paint-order="fill stroke markers" d=" M 16.33520329999999 195.167982812 L 16.33520329999999 214.770226772 L 74.80242386484375 214.770226772 L 84.60354584484375 204.969104792 L 84.60354584484375 195.167982812 L 16.33520329999999 195.167982812" stroke-miterlimit="10" stroke-width="2.3336004714285714" stroke-dasharray=""/><text fill="black" stroke="none" font-family="monospace" font-size="8.8pt" font-style="normal" font-weight="bold" text-decoration="normal" x="32.67040659999999" y="208.236145452" text-anchor="start" dominant-baseline="alphabetic" xml:space="preserve">loop</text><text fill="black" stroke="none" font-family="monospace" font-size="8.8pt" font-style="normal" font-weight="bold" text-decoration="normal" x="100.93874914484375" y="208.236145452" text-anchor="start" dominant-baseline="alphabetic" xml:space="preserve">[for every n days]</text></g></g><g/><g/></g></svg>