<svg version="1.1" xmlns="http://www.w3.org/2000/svg" xmlns:xlink="http://www.w3.org/1999/xlink" width="420" height="454"><desc>%23%20-----%20font%20-----%0Afontfamily%20monospace%0A%0A%23%20-----%20setup%20components%20-----%0Atitle%20CLEAR%20OLD%20ANALYSIS%0Aparticipantgroup%20%23e4fcd9%20Backend%20API%0Acontrol%20%23red%3A0.7%20Report%20Service%0Aend%0A%0Adatabase%20Database%20%23pink%0A%0A%23%20-----%20to%20show%20bottom%20icons%20-----%0Abottomparticipants%0A%0A%23%20-----%20Activations%20-----%0A%0Aactivate%20Report%20Service%0A%0A%23%20-----%20START%20OF%20SEQUENCE%20-----%0Aloop%20for%20every%20n%20days%0AReport%20Service-%3EDatabase%3A%20clearOldAnalysis()%0Aactivate%20Database%0AReport%20Service%3C--Database%3A%20Success%0Adeactivate%20Database%0Aend%0A%23%20-----%20END%20OF%20SEQUENCE%20-----%0A%0A</desc><defs/><g><g/><g/><g/><g><rect fill="white" stroke="none" x="0" y="0" width="420" height="454"/></g><g><text fill="black" stroke="none" font-family="monospace" font-size="16.5pt" font-style="normal" font-weight="normal" text-decoration="normal" x="91.08532901562495" y="22.6179738" text-anchor="start" dominant-baseline="alphabetic" xml:space="preserve">CLEAR OLD ANALYSIS</text></g><g><g><path fill="#e4fcd9" stroke="black" paint-order="fill stroke markers" d=" M 7.5393246000000005 46.517632782 L 146.1512684777344 46.517632782 L 146.1512684777344 446.931162288 L 7.5393246000000005 446.931162288 L 7.5393246000000005 46.517632782" stroke-miterlimit="10" stroke-width="1.2565541" stroke-dasharray=""/></g><g><text fill="black" stroke="none" font-family="monospace" font-size="11pt" font-style="normal" font-weight="normal" text-decoration="normal" x="28.31435934404297" y="67.627741662" text-anchor="start" dominant-baseline="alphabetic" xml:space="preserve">Backend API</text></g></g><g><path fill="none" stroke="black" paint-order="fill stroke markers" d=" M 76.84529653886719 154.405367808 L 76.84529653886719 362.490726768" stroke-miterlimit="10" stroke-width="1.2565541" stroke-dasharray="11.598960923076923,5.0262164"/><path fill="none" stroke="black" paint-order="fill stroke markers" d=" M 345.1895214062499 154.405367808 L 345.1895214062499 362.490726768" stroke-miterlimit="10" stroke-width="1.2565541" stroke-dasharray="11.598960923076923,5.0262164"/></g><g><g><path fill="white" stroke="red" paint-order="fill stroke markers" d=" M 99.23709060086719 111.12964460399998 A 22.391794062000002 22.391794062000002 0 1 1 99.2370794049711 111.10725281366993 M 73.82956669886718 88.73785054199998 L 82.87675621886719 81.19852594199997 M 73.82956669886718 88.73785054199998 L 82.87675621886719 96.27717514199998" stroke-miterlimit="10" stroke-width="1.7943592548" stroke-dasharray=""/></g><g><g/><text fill="black" stroke="none" font-family="monospace" font-size="11pt" font-style="normal" font-weight="normal" text-decoration="normal" x="15.078649200000001" y="149.88177304799999" text-anchor="start" dominant-baseline="alphabetic" xml:space="preserve">Report Service</text></g><g><path fill="pink" stroke="black" paint-order="fill stroke markers" d=" M 323.17469357424994 124.85121537599998 L 323.17469357424994 93.18605205599998 L 367.2043492382499 93.18605205599998 L 367.2043492382499 124.85121537599998" stroke-miterlimit="10" stroke-width="2.5633703640000003" stroke-dasharray=""/><path fill="pink" stroke="black" paint-order="fill stroke markers" d=" M 367.2043492382499 92.08531066439998 L 367.2032485060311 92.18482809047687 L 367.1999464194471 92.28433556489406 L 367.1944433087037 92.38382313698708 L 367.1867397241074 92.48328085808159 L 367.17683643601026 92.58269878248836 L 367.1647344347329 92.68206696849784 L 367.1504349304653 92.78137547937418 L 367.13393935314593 92.88061438434909 L 367.11524935231887 92.97977375961474 L 367.09436679696853 93.07884368931626 L 367.0712937753331 93.17781426654322 L 367.0460325946956 93.2766755943204 L 367.01858578115286 93.37541778659738 L 366.9889560793635 93.47403096923723 L 366.9571464522729 93.57250528100386 L 366.9231600808174 93.67083087454814 L 366.88700036360575 93.76899791739268 L 366.8486709165795 93.86699659291499 L 366.80817557265146 93.96481710132917 L 366.7655183813223 94.06244966066592 L 366.7207036082755 94.15988450775066 L 366.67373573495115 94.25711189917986 L 366.62461945809736 94.3541221122954 L 366.5733596893009 94.45090544615684 L 366.5199615544959 94.54745222251141 L 366.4644303934515 94.64375278676197 L 366.4067717592373 94.7397975089323 L 366.34699141766885 94.83557678463025 L 366.2850953467304 94.93108103600805 L 366.2210897359775 95.02630071272016 L 366.15498098591786 95.12122629287826 L 366.0867757073714 95.21584828400343 L 366.01648072080917 95.31015722397541 L 365.94410305567123 95.4041436819788 L 365.86964994966377 95.49779825944611 L 365.79312884803534 95.59111159099766 L 365.71454740283235 95.68407434537804 L 365.6339134721338 95.77667722638927 L 365.55123511926564 95.86891097382043 L 365.4665206119942 95.96076636437364 L 365.37977842169965 96.05223421258638 L 365.2910172225287 96.14330537175007 L 365.20024589052736 96.23397073482468 L 365.10747350275307 96.32422123534946 L 365.0127093363674 96.41404784834954 L 364.91596286770795 96.5034415912385 L 364.81724377134105 96.59239352471654 L 364.716561919094 96.68089475366445 L 364.6139273790682 96.76893642803306 L 364.50935041463197 96.85650974372831 L 364.40284148339475 96.94360594349163 L 364.29441123616084 97.0302163177756 L 364.1840705158647 97.11633220561497 L 364.07183035648626 97.20194499549272 L 363.95770198194805 97.28704612620122 L 363.84169680499235 97.3716270876983 L 363.7238264260402 97.4556794219583 L 363.60410263203124 97.53919472381783 L 363.4825373952452 97.62216464181631 L 363.3591428721043 97.70458087903107 L 363.2339314019582 97.7864351939071 L 363.1069155058495 97.86771940108108 L 362.9781078852619 97.94842537220005 L 362.84752142085017 98.02854503673416 L 362.71516917115196 98.10807038278371 L 362.5810643712819 98.18699345788038 L 362.4452204316082 98.26530636978241 L 362.30765093641173 98.34300128726389 L 362.1683696425273 98.4200704408978 L 362.02739047796825 98.49650612383302 L 361.8847275405335 98.57230069256492 L 361.74039509639795 98.64744656769983 L 361.5944075786857 98.72193623471284 L 361.446779586027 98.79576224469932 L 361.2975258810979 98.86891721511978 L 361.14666138914464 98.94139383053816 L 360.9942011964907 99.01318484335332 L 360.8401605490282 99.0842830745238 L 360.6845548506936 99.1546814142857 L 360.527399661927 99.22437282286376 L 360.36871069811644 99.29335033117515 L 360.2085038280259 99.36160704152655 L 360.046795072209 99.4291361283038 L 359.8836006014065 99.49593083865449 L 359.7189367349295 99.56198449316327 L 359.5528199390275 99.62729048651968 L 359.38526682524156 99.69184228817886 L 359.2162941487435 99.75563344301442 L 359.04591880666004 99.81865757196402 L 358.8741578363836 99.88090837266732 L 358.7010284138679 99.94237962009609 L 358.526547851911 100.00306516717683 L 358.35073359842374 100.06295894540538 L 358.17360323468483 100.12205496545387 L 357.9951744735832 100.18034731776952 L 357.81546515784606 100.23783017316566 L 357.6344932582554 100.29449778340467 L 357.45227687185036 100.35034448177275 L 357.26883422011764 100.4053646836466 L 357.0841836471696 100.45955288705187 L 356.8983436179097 100.5129036732134 L 356.7113327161859 100.56541170709701 L 356.5231696429326 100.61707173794309 L 356.3338732143003 100.66787859979158 L 356.1434623597741 100.71782721199865 L 355.95195612028084 100.7669125797447 L 355.7593736462848 100.81512979453386 L 355.565734195873 100.86247403468484 L 355.37105713282904 100.90894056581305 L 355.175361924697 100.95452474130414 L 354.97866814083454 100.99922200277852 L 354.7809954504563 101.0430278805473 L 354.5823636206665 101.0859379940592 L 354.3827925144826 101.12794805233862 L 354.1823020888489 101.16905385441477 L 353.9809123926409 101.20925128974167 L 353.7786435646604 101.2485363386093 L 353.57551583162166 101.28690507254551 L 353.37154950612864 101.32435365470886 L 353.166764984644 101.36087834027236 L 352.9611827454492 101.39647547679789 L 352.7548233465968 101.43114150460147 L 352.54770742385483 101.46487295710918 L 352.33985568864284 101.49766646120389 L 352.13128892596126 101.52951873756254 L 351.92202799231245 101.56042660098402 L 351.71209381361547 101.59038696070773 L 351.5015073831132 101.6193968207227 L 351.2902897592732 101.64745328006707 L 351.07846206368185 101.6745535331183 L 350.8660454789322 101.70069486987367 L 350.65306124650573 101.72587467622128 L 350.43953066464815 101.7500904342015 L 350.2254750862397 101.77333972225867 L 350.0109159166599 101.79562021548341 L 349.79587461164687 101.81692968584493 L 349.5803726751519 101.83726600241395 L 349.3644316571891 101.85662713157578 L 349.14807315168025 101.87501113723363 L 348.93131879429563 101.89241618100226 L 348.7141902602904 101.90884052239178 L 348.49670926233694 101.92428251898176 L 348.2788975483539 101.93874062658539 L 348.0607768993311 101.95221339940396 L 347.8423691271517 101.96469949017143 L 347.6236960724109 101.97619765028911 L 347.40477960223194 101.98670672995058 L 347.18564160807944 101.99622567825664 L 346.9663040035702 102.00475354332038 L 346.74678872228185 102.0122894723624 L 346.5271177155596 102.01883271179608 L 346.30731295032115 102.02438260730293 L 346.08739640685974 102.02893860389801 L 345.8673900766465 102.03250024598549 L 345.64731596013104 102.0350671774041 L 345.42719606454176 102.03663914146284 L 345.20705240168473 102.03721598096662 L 344.98690698574273 102.03679763823197 L 344.76678183107396 102.03538415509283 L 344.5466989500104 102.0329756728963 L 344.3266803506568 102.02957243248864 L 344.1067480346897 102.025174774191 L 343.8869239951575 102.01978313776559 L 343.66723021428083 102.01339806237154 L 343.44768866125486 102.00602018651107 L 343.22832129005184 101.99765024796561 L 343.0091500372261 101.98828908372205 L 342.7901968197203 101.97793762988903 L 342.5714835326737 101.96659692160327 L 342.35303204723283 101.95426809292618 L 342.1348642083641 101.94095237673034 L 341.9170018326696 101.92665110457627 L 341.6994667062054 101.91136570657928 L 341.4822805823028 101.89509771126642 L 341.26546517939323 101.87784874542366 L 341.0490421788363 101.85962053393322 L 340.8330332227518 101.84041489960107 L 340.6174599118552 101.82023376297461 L 340.40234380329804 101.79907914215072 L 340.1877064085118 101.77695315257382 L 339.9735691910572 101.75385800682446 L 339.75995356447754 101.72979601439793 L 339.5468808901574 101.70476958147347 L 339.33437247518674 101.67878121067348 L 339.12244957022983 101.65183350081338 L 338.91113336740074 101.62392914664174 L 338.7004449981435 101.59507093857069 L 338.4904055311195 101.56526176239699 L 338.2810359701005 101.53450459901343 L 338.072357251868 101.5028025241107 L 337.86439024412005 101.4701587078699 L 337.657155743384 101.43657641464542 L 337.4506744729373 101.40205900263861 L 337.24496708073497 101.36660992356191 L 337.04005413734467 101.33023272229369 L 336.83595613389014 101.29293103652375 L 336.6326934800015 101.25470859638959 L 336.43028650177484 101.21556922410338 L 336.2287554397393 101.17551683356972 L 336.0281204468331 101.13455542999428 L 335.8284015863884 101.0926891094833 L 335.6296188301248 101.04992205863394 L 335.4317920561522 101.00625855411563 L 335.23494104698324 100.96170296224246 L 335.0390854875547 100.91625973853645 L 334.8442449632594 100.86993342728215 L 334.6504389579874 100.82272866107205 L 334.45768685217763 100.77465016034344 L 334.2660079208801 100.72570273290633 L 334.07542133182824 100.67589127346267 L 333.88594614352206 100.6252207631169 L 333.6976013033226 100.57369626887782 L 333.5104056455568 100.52132294315193 L 333.32437788963455 100.46810602322815 L 333.13953663817637 100.41405083075412 L 332.95590037515336 100.35916277120405 L 332.7734874640388 100.30344733333816 L 332.59231614597184 100.24691008865379 L 332.41240453793324 100.18955669082831 L 332.2337706309339 100.13139287515372 L 332.05643228821566 100.07242445796308 L 331.8804072434651 100.01265733604899 L 331.7057130990398 99.95209748607385 L 331.53236732420885 99.89075096397217 L 331.3603872534052 99.82862390434504 L 331.18979008449253 99.76572251984665 L 331.02059287704566 99.70205310056305 L 330.8528125506443 99.6376220133831 L 330.68646588318126 99.57243570136181 L 330.5215695091847 99.50650068307608 L 330.3581399181546 99.43982355197278 L 330.19619345291386 99.37241097570947 L 330.0357463079741 99.30426969548759 L 329.876814527916 99.2354065253784 L 329.7194140057852 99.16582835164148 L 329.5635604815028 99.09554213203626 L 329.40926954029123 99.0245548951261 L 329.2565566111161 98.95287373957557 L 329.10543696514304 98.88050583344047 L 328.9559257142107 98.8074584134511 L 328.80803780931967 98.7337387842886 L 328.66178803913715 98.65935431785445 L 328.51719102851825 98.58431245253331 L 328.3742612370435 98.50862069244917 L 328.2330129575731 98.43228660671497 L 328.09346031481715 98.35531782867567 L 327.95561726392367 98.27772205514492 L 327.8194975890829 98.19950704563543 L 327.6851149021489 98.12068062158296 L 327.5524826412783 98.04125066556423 L 327.4216140695867 97.96122512050864 L 327.29252227382227 97.88061198890404 L 327.165220163057 97.79941933199638 L 327.0397204673958 97.71765526898369 L 326.9160357367037 97.63532797620417 L 326.7941783393507 97.55244568631845 L 326.674160460975 97.46901668748647 L 326.55599410326437 97.3850493225386 L 326.4396910827562 97.30055198814135 L 326.32526302965556 97.21553313395773 L 326.2127213866724 97.13000126180233 L 326.1020774078773 97.0439649247911 L 325.99334215757585 96.95743272648602 L 325.8865265092025 96.87041332003481 L 325.7816411442331 96.78291540730562 L 325.6786965511167 96.6949477380168 L 325.5777030242268 96.60651910886196 L 325.4786706628321 96.51763836263034 L 325.381609370086 96.42831438732249 L 325.286528852037 96.3385561152615 L 325.19343861665766 96.24837252219979 L 325.1023479728939 96.1577726264215 L 325.0132660297342 96.06676548784073 L 324.92620169529874 95.97536020709548 L 324.8411636759483 95.88356592463764 L 324.75816047541394 95.791391819819 L 324.67720039394663 95.69884710997319 L 324.598291527487 95.6059410494941 L 324.52144176685596 95.51268292891035 L 324.4466587969655 95.41908207395629 L 324.3739500960503 95.3251478446394 L 324.30332293491983 95.23088963430435 L 324.23478437623146 95.13631686869361 L 324.1683412737838 95.04143900500493 L 324.10400027183186 94.94626553094564 L 324.04176780442214 94.8508059637838 L 323.9816500947495 94.75506984939659 L 323.92365315453486 94.65906676131569 L 323.8677827834239 94.56280629976987 L 323.81404456840716 94.4662980907251 L 323.76244388326137 94.36955178492185 L 323.71298588801204 94.27257705691007 L 323.66567552841747 94.17538360408174 L 323.6205175354742 94.07798114570119 L 323.5775164249439 93.98037942193304 L 323.5366764969018 93.88258819286837 L 323.4980018353067 93.78461723754857 L 323.4614963075924 93.68647635298754 L 323.4271635642814 93.58817535319196 L 323.3950070386193 93.48972406817988 L 323.36502994623197 93.39113234299776 L 323.3372352848036 93.29241003673597 L 323.31162583377727 93.19356702154285 L 323.2882041540766 93.09461318163756 L 323.26697258785015 92.99555841232163 L 323.2479332582368 92.89641261898944 L 323.23108806915366 92.79718571613772 L 323.21643870510553 92.69788762637404 L 323.20398663101673 92.59852827942466 L 323.19373309208424 92.49911761114144 L 323.1856791136534 92.39966556250839 L 323.1798255011153 92.3001820786475 L 323.17617283982645 92.20067710782422 L 323.17472149504977 92.10116060045276 L 323.1754716119186 92.00164250810089 L 323.17842311542194 91.90213278249493 L 323.18357571041184 91.80264137452451 L 323.19092888163306 91.70317823324753 L 323.2004818937747 91.6037533048952 L 323.2122337915434 91.50437653187755 L 323.2261833997592 91.40505785178902 L 323.242329323473 91.3058071964149 L 323.2606699481057 91.20663449073798 L 323.2812034396103 91.1075496519462 L 323.3039277446547 91.00856258844087 L 323.3288405908273 90.90968319884584 L 323.3559394868643 90.81092137101768 L 323.3852217228987 90.71228698105689 L 323.4166843707311 90.61378989232024 L 323.4503242841232 90.51543995443453 L 323.48613809911154 90.4172470023116 L 323.5241222343445 90.31922085516483 L 323.5642728914402 90.22137131552724 L 323.6065860553664 90.12370816827126 L 323.651057494842 90.02624117963025 L 323.69768276276005 89.9289800962218 L 323.74645719663266 89.83193464407326 L 323.79737591905706 89.73511452764893 L 323.85043383820346 89.63852942887979 L 323.90562564832413 89.54218900619522 L 323.9629458302841 89.44610289355721 L 324.0223886521129 89.35028069949695 L 324.0839481695779 89.254732006154 L 324.14761822677866 89.15946636831808 L 324.21339245676245 89.06449331247356 L 324.2812642821612 88.96982233584689 L 324.3512269158489 88.87546290545684 L 324.4232733616204 88.78142445716783 L 324.49739641489117 88.6877163947463 L 324.57358866341775 88.59434808892044 L 324.6518424880387 88.50132887644298 L 324.73215006343685 88.40866805915769 L 324.81450335892146 88.31637490306906 L 324.8988941392317 88.2244586374158 L 324.98531396535986 88.13292845374785 L 325.07375419539534 88.04179350500735 L 325.1642059853888 87.95106290461318 L 325.2566602902366 87.8607457255498 L 325.3511078645854 87.77085099945987 L 325.44753926375637 87.68138771574104 L 325.54594484469004 87.59236482064716 L 325.6463147669102 87.50379121639354 L 325.7486389935084 87.41567576026681 L 325.85290729214717 87.32802726373913 L 325.9591092360836 87.24085449158713 L 326.0672342052117 87.15416616101538 L 326.17727138712473 87.0679709407847 L 326.2892097781962 86.98227745034528 L 326.40303818468027 86.89709425897475 L 326.51874522383116 86.81242988492126 L 326.6363193250413 86.72829279455166 L 326.7557487309987 86.64469140150489 L 326.8770214988621 86.56163406585057 L 327.00012550145595 86.47912909325305 L 327.1250484284825 86.39718473414085 L 327.2517777877531 86.3158091828816 L 327.3803009064375 86.23501057696258 L 327.5106049323309 86.15479699617707 L 327.64267683513935 86.07517646181631 L 327.77650340778257 85.99615693586738 L 327.91207126771485 85.91774632021702 L 328.0493668582631 85.83995245586146 L 328.1883764499828 85.76278312212231 L 328.3290861420305 85.68624603586863 L 328.47148186355435 85.61034885074527 L 328.6155493751008 85.5350991564075 L 328.76127427003877 85.46050447776202 L 328.9086419760002 85.38657227421456 L 329.0576377563373 85.31330993892385 L 329.2082467115962 85.24072479806237 L 329.36045378100687 85.16882411008373 L 329.51424374398925 85.0976150649968 L 329.6696012216751 85.02710478364675 L 329.82651067844625 84.95730031700296 L 329.9849564234877 84.88820864545391 L 330.144922612357 84.8198366781092 L 330.30639324856855 84.75219125210857 L 330.4693521851933 84.68527913193826 L 330.6337831264734 84.61910700875453 L 330.7996696294517 84.55368149971454 L 330.96699510561626 84.48900914731468 L 331.13574282255877 84.4250964187363 L 331.3058959056482 84.36194970519901 L 331.47743733971805 84.29957532132151 L 331.6503499707678 84.23797950449023 L 331.82461650767857 84.17716841423552 L 332.0002195239418 84.11714813161574 L 332.1771414594022 84.05792465860911 L 332.35536462201367 83.99950391751361 L 332.53487118960845 83.94189175035464 L 332.71564321167943 83.88509391830091 L 332.89766261117495 83.8291161010883 L 333.0809111863068 83.77396389645189 L 333.26537061237025 83.71964281956616 L 333.4510224435763 83.66615830249357 L 333.6378481148965 83.61351569364122 L 333.82582894391953 83.56172025722614 L 334.01494613271905 83.5107771727488 L 334.20518076973383 83.46069153447522 L 334.39651383165864 83.41146835092746 L 334.5889261853468 83.36311254438289 L 334.78239858972324 83.31562895038184 L 334.9769116977088 83.26902231724414 L 335.17244605815466 83.22329730559427 L 335.3689821177878 83.1784584878953 L 335.5665002231661 83.13451034799164 L 335.7649806226435 83.09145728066062 L 335.9644034683455 83.04930359117314 L 336.1647488181537 83.00805349486299 L 336.36599663770016 82.96771111670546 L 336.56812680237056 82.9282804909047 L 336.7711190993168 82.88976556049047 L 336.9749532294785 82.85217017692369 L 337.1796088096124 82.81549809971142 L 337.385065374331 82.77975299603078 L 337.5913023781492 82.74493844036239 L 337.7982991975383 82.71105791413277 L 338.006035132989 82.67811480536633 L 338.21448941108076 82.6461124083465 L 338.42364118655956 82.6150539232863 L 338.6334695444221 82.58494245600835 L 338.8439535020074 82.55578101763429 L 339.05507201109526 82.52757252428366 L 339.26680396001063 82.50031979678228 L 339.47912817573496 82.47402556038021 L 339.69202342602375 82.44869244447915 L 339.9054684215293 82.4243229823696 L 340.11944181793 82.40091961097747 L 340.33392221806446 82.37848467062037 L 340.5488881740714 82.35702040477365 L 340.7643181895344 82.33652895984602 L 340.9801907216314 82.31701238496488 L 341.1964841832891 82.29847263177147 L 341.41317694534155 82.28091155422565 L 341.6302473386932 82.26433090842053 L 341.84767365648554 82.2487323524069 L 342.06543415626794 82.23411744602734 L 342.283507062172 82.22048765076033 L 342.5018705670888 82.20784432957402 L 342.72050283484975 82.19618874678999 L 342.9393820024104 82.18552206795681 L 343.1584861820363 82.17584535973349 L 343.3777934634921 82.16715958978277 L 343.5972819162324 82.15946562667442 L 343.8169295915948 82.15276423979832 L 344.0367145249949 82.1470560992876 L 344.2566147381225 82.14234177595152 L 344.47660824113944 82.13862174121853 L 344.69667303487876 82.13589636708896 L 344.91678711304456 82.13416592609798 L 345.1369284644124 82.13343059128823 L 345.3570750750306 82.13369043619258 L 345.57720493042154 82.13494543482678 L 345.7972960177831 82.13719546169199 L 346.01732632819 82.14044029178739 L 346.2372738587946 82.1446796006327 L 346.457116615027 82.14991296430054 L 346.67683261279484 82.15613985945893 L 346.8963998806815 82.16335966342353 L 347.11579646214307 82.17157165421996 L 347.3350004177043 82.18077501065599 L 347.5539898271523 82.19096881240364 L 347.77274279172855 82.20215204009124 L 347.99123743631895 82.21432357540533 L 348.2094519116411 82.22748220120252 L 348.4273643964293 82.2416266016312 L 348.64495309961666 82.2567553622631 L 348.8621962625142 82.2728669702348 L 349.0790721609867 82.28995981439891 L 349.295559107625 82.30803218548525 L 349.51163545391483 82.32708227627177 L 349.72727959240166 82.34710818176526 L 349.94246995885135 82.3681078993919 L 350.1571850344065 82.39007932919738 L 350.3714033477386 82.41302027405706 L 350.5851034771947 82.43692843989555 L 350.79826405294006 82.4618014359162 L 351.0108637590947 82.48763677484013 L 351.2228813358651 82.51443187315499 L 351.43429558167037 82.54218405137327 L 351.64508535526204 82.57089053430026 L 351.8552295778385 82.60054845131161 L 352.0647072351524 82.63115483664033 L 352.2734973796128 82.6627066296734 L 352.4815791323792 82.69520067525778 L 352.6889316854496 82.728633724016 L 352.8955343037416 82.76300243267107 L 353.10136632716547 82.79830336438076 L 353.30640717269046 82.83453298908128 L 353.51063633640285 82.87168768384039 L 353.7140333955565 82.90976373321956 L 353.9165780106149 82.94875732964559 L 354.11824992728543 82.98866457379131 L 354.3190289785444 83.02948147496559 L 354.5188950866541 83.07120395151232 L 354.71782826517017 83.1138278312186 L 354.91580862094054 83.157348851732 L 355.1128163560947 83.2017626609867 L 355.3088317700233 83.24706481763882 L 355.5038352613482 83.29325079151043 L 355.6978073298828 83.34031596404265 L 355.89072857858196 83.38825562875743 L 356.0825797154815 83.43706499172825 L 356.2733415556276 83.48673917205949 L 356.4629950229953 83.53727320237451 L 356.6515211523959 83.58866202931239 L 356.83890109137343 83.64090051403326 L 357.0251161020903 83.6939834327322 L 357.2101475632005 83.74790547716154 L 357.39397697171216 83.8026612551618 L 357.5765859448377 83.85824529120079 L 357.7579562218318 83.91465202692123 L 357.93806966581803 83.97187582169657 L 358.1169082656021 84.029910953195 L 358.294454137473 84.08875161795174 L 358.47068952699146 84.14839193194935 L 358.64559681076554 84.20882593120614 L 358.81915849821246 84.27004757237252 L 358.99135723330824 84.33205073333541 L 359.16217579632274 84.39482921383036 L 359.33159710554213 84.45837673606168 L 359.4996042189766 84.52268694533007 L 359.66618033605477 84.58775341066818 L 359.8313087993039 84.65356962548375 L 359.9949730960151 84.7201290082101 L 360.15715685989517 84.78742490296443 L 360.31784387270284 84.85545058021337 L 360.4770180658708 84.92419923744586 L 360.63466352211236 84.99366399985347 L 360.79076447701317 85.06383792101785 L 360.94530532060793 85.13471398360535 L 361.09827059894104 85.2062851000688 L 361.24964501561215 85.27854411335618 L 361.39941343330565 85.35148379762637 L 361.5475608753047 85.42509685897174 L 361.69407252698846 85.49937593614749 L 361.83893373731394 85.5743136013078 L 361.98213002028075 85.64990236074861 L 362.1236470563799 85.72613465565696 L 362.26347069402584 85.80300286286689 L 362.40158695097125 85.88049929562175 L 362.5379820157055 85.9586162043428 L 362.6726422488358 86.03734577740431 L 362.80555418445107 86.11668014191457 L 362.9367045314685 86.19661136450323 L 363.0660801749626 86.27713145211465 L 363.19366817747704 86.35823235280716 L 363.3194557803177 86.43990595655828 L 363.4434304048292 86.5221440960757 L 363.5655796536523 86.604938547614 L 363.6858913119641 86.688281031797 L 363.8043533486989 86.77216321444577 L 363.9209539177517 86.85657670741192 L 364.0356813591629 86.9415130694165 L 364.1485242002839 87.0269638068941 L 364.2594711569245 87.11292037484218 L 364.3685111344817 87.19937417767557 L 364.47563322904847 87.28631657008602 L 364.5808267285047 87.37373885790676 L 364.68408111358804 87.46163229898185 L 364.7853860589461 87.54998810404044 L 364.8847314341687 87.63879743757563 L 364.9821073048011 87.72805141872809 L 365.0775039333375 87.81774112217408 L 365.17091178019433 87.907857579018 L 365.26232150466495 87.99839177768926 L 365.351723965853 88.08933466484343 L 365.43911022358685 88.1806771462676 L 365.5244715393136 88.27241008778972 L 365.60779937697276 88.3645243161921 L 365.68908540385 88.45701062012866 L 365.7683214914104 88.54985975104606 L 365.84549971611125 88.6430624241086 L 365.92061236019435 88.73660931912664 L 365.99365191245795 88.83049108148865 L 366.0646110690076 88.92469832309659 L 366.13348273398685 89.01922162330483 L 366.2002600202865 89.11405152986211 L 366.26493625023375 89.20917855985681 L 366.3275049562593 89.3045932006652 L 366.3879598815448 89.4002859109027 L 366.4462949806481 89.49624712137803 L 366.50250442010787 89.59246723605013 L 366.556582579027 89.68893663298769 L 366.6085240496347 89.78564566533142 L 366.65832363782715 89.88258466225868 L 366.70597636368706 89.97974392995056 L 366.75147746198155 90.07711375256125 L 366.7948223826387 90.17468439318962 L 366.8360067912026 90.27244609485294 L 366.87502656926665 90.37038908146249 L 366.91187781488554 90.46850355880125 L 366.94655684296555 90.56677971550323 L 366.97906018563265 90.66520772403466 L 367.00938459257975 90.7637777416767 L 367.03752703139133 90.86247991150977 L 367.063484687847 90.96130436339908 L 367.08725496620275 91.06024121498183 L 367.1088354894506 91.15928057265529 L 367.1282240995561 91.25841253256625 L 367.14541885767454 91.3576271816013 L 367.16041804434434 91.45691459837825 L 367.1732201596593 91.55626485423812 L 367.18382392341863 91.65566801423815 L 367.19222827525476 91.75511413814515 L 367.1984323747395 91.85459328142962 L 367.20243560146815 91.95409549626011 L 367.20423755512127 92.05361083249808 M 367.2043492382499 123.75047398439999 L 367.2032485060311 123.84999141047687 L 367.1999464194471 123.94949888489407 L 367.1944433087037 124.04898645698708 L 367.1867397241074 124.14844417808159 L 367.17683643601026 124.24786210248837 L 367.1647344347329 124.34723028849784 L 367.1504349304653 124.44653879937418 L 367.13393935314593 124.54577770434909 L 367.11524935231887 124.64493707961475 L 367.09436679696853 124.74400700931626 L 367.0712937753331 124.84297758654323 L 367.0460325946956 124.9418389143204 L 367.01858578115286 125.04058110659739 L 366.9889560793635 125.13919428923724 L 366.9571464522729 125.23766860100386 L 366.9231600808174 125.33599419454815 L 366.88700036360575 125.43416123739269 L 366.8486709165795 125.53215991291499 L 366.80817557265146 125.62998042132918 L 366.7655183813223 125.72761298066592 L 366.7207036082755 125.82504782775067 L 366.67373573495115 125.92227521917987 L 366.62461945809736 126.0192854322954 L 366.5733596893009 126.11606876615684 L 366.5199615544959 126.21261554251141 L 366.4644303934515 126.30891610676197 L 366.4067717592373 126.4049608289323 L 366.34699141766885 126.50074010463025 L 366.2850953467304 126.59624435600806 L 366.2210897359775 126.69146403272016 L 366.15498098591786 126.78638961287827 L 366.0867757073714 126.88101160400343 L 366.01648072080917 126.97532054397541 L 365.94410305567123 127.0693070019788 L 365.86964994966377 127.16296157944612 L 365.79312884803534 127.25627491099766 L 365.71454740283235 127.34923766537804 L 365.6339134721338 127.44184054638927 L 365.55123511926564 127.53407429382044 L 365.4665206119942 127.62592968437365 L 365.37977842169965 127.71739753258639 L 365.2910172225287 127.80846869175008 L 365.20024589052736 127.89913405482469 L 365.10747350275307 127.98938455534946 L 365.0127093363674 128.07921116834956 L 364.91596286770795 128.1686049112385 L 364.81724377134105 128.25755684471656 L 364.716561919094 128.34605807366444 L 364.6139273790682 128.43409974803308 L 364.50935041463197 128.52167306372831 L 364.40284148339475 128.60876926349164 L 364.29441123616084 128.6953796377756 L 364.1840705158647 128.781495525615 L 364.07183035648626 128.86710831549271 L 363.95770198194805 128.9522094462012 L 363.84169680499235 129.0367904076983 L 363.7238264260402 129.12084274195828 L 363.60410263203124 129.20435804381782 L 363.4825373952452 129.28732796181632 L 363.3591428721043 129.3697441990311 L 363.2339314019582 129.4515985139071 L 363.1069155058495 129.53288272108108 L 362.9781078852619 129.61358869220004 L 362.84752142085017 129.69370835673416 L 362.71516917115196 129.77323370278373 L 362.5810643712819 129.85215677788037 L 362.4452204316082 129.9304696897824 L 362.30765093641173 130.0081646072639 L 362.1683696425273 130.0852337608978 L 362.02739047796825 130.161669443833 L 361.8847275405335 130.23746401256494 L 361.74039509639795 130.31260988769984 L 361.5944075786857 130.38709955471285 L 361.446779586027 130.46092556469932 L 361.2975258810979 130.53408053511978 L 361.14666138914464 130.60655715053818 L 360.9942011964907 130.67834816335332 L 360.8401605490282 130.7494463945238 L 360.6845548506936 130.8198447342857 L 360.527399661927 130.88953614286376 L 360.36871069811644 130.95851365117517 L 360.2085038280259 131.02677036152656 L 360.046795072209 131.09429944830381 L 359.8836006014065 131.1610941586545 L 359.7189367349295 131.22714781316327 L 359.5528199390275 131.2924538065197 L 359.38526682524156 131.35700560817887 L 359.2162941487435 131.42079676301444 L 359.04591880666004 131.48382089196403 L 358.8741578363836 131.5460716926673 L 358.7010284138679 131.6075429400961 L 358.526547851911 131.66822848717683 L 358.35073359842374 131.7281222654054 L 358.17360323468483 131.7872182854539 L 357.9951744735832 131.8455106377695 L 357.81546515784606 131.90299349316567 L 357.6344932582554 131.95966110340467 L 357.45227687185036 132.01550780177274 L 357.26883422011764 132.07052800364661 L 357.0841836471696 132.12471620705188 L 356.8983436179097 132.1780669932134 L 356.7113327161859 132.23057502709702 L 356.5231696429326 132.2822350579431 L 356.3338732143003 132.33304191979158 L 356.1434623597741 132.38299053199864 L 355.95195612028084 132.43207589974472 L 355.7593736462848 132.48029311453388 L 355.565734195873 132.52763735468483 L 355.37105713282904 132.57410388581306 L 355.175361924697 132.61968806130415 L 354.97866814083454 132.66438532277851 L 354.7809954504563 132.7081912005473 L 354.5823636206665 132.7511013140592 L 354.3827925144826 132.79311137233864 L 354.1823020888489 132.8342171744148 L 353.9809123926409 132.87441460974168 L 353.7786435646604 132.91369965860932 L 353.57551583162166 132.9520683925455 L 353.37154950612864 132.98951697470886 L 353.166764984644 133.02604166027237 L 352.9611827454492 133.0616387967979 L 352.7548233465968 133.09630482460148 L 352.54770742385483 133.13003627710918 L 352.33985568864284 133.1628297812039 L 352.13128892596126 133.19468205756255 L 351.92202799231245 133.22558992098402 L 351.71209381361547 133.25555028070775 L 351.5015073831132 133.2845601407227 L 351.2902897592732 133.31261660006706 L 351.07846206368185 133.3397168531183 L 350.8660454789322 133.36585818987368 L 350.65306124650573 133.39103799622129 L 350.43953066464815 133.4152537542015 L 350.2254750862397 133.43850304225867 L 350.0109159166599 133.46078353548342 L 349.79587461164687 133.48209300584492 L 349.5803726751519 133.50242932241395 L 349.3644316571891 133.52179045157578 L 349.14807315168025 133.54017445723363 L 348.93131879429563 133.55757950100227 L 348.7141902602904 133.5740038423918 L 348.49670926233694 133.58944583898176 L 348.2788975483539 133.60390394658538 L 348.0607768993311 133.61737671940395 L 347.8423691271517 133.62986281017143 L 347.6236960724109 133.6413609702891 L 347.40477960223194 133.6518700499506 L 347.18564160807944 133.66138899825665 L 346.9663040035702 133.6699168633204 L 346.74678872228185 133.6774527923624 L 346.5271177155596 133.68399603179608 L 346.30731295032115 133.68954592730293 L 346.08739640685974 133.69410192389802 L 345.8673900766465 133.6976635659855 L 345.64731596013104 133.7002304974041 L 345.42719606454176 133.70180246146285 L 345.20705240168473 133.70237930096664 L 344.98690698574273 133.70196095823198 L 344.76678183107396 133.70054747509283 L 344.5466989500104 133.6981389928963 L 344.3266803506568 133.69473575248864 L 344.1067480346897 133.690338094191 L 343.8869239951575 133.6849464577656 L 343.66723021428083 133.67856138237153 L 343.44768866125486 133.67118350651106 L 343.22832129005184 133.6628135679656 L 343.0091500372261 133.65345240372207 L 342.7901968197203 133.64310094988903 L 342.5714835326737 133.63176024160327 L 342.35303204723283 133.6194314129262 L 342.1348642083641 133.60611569673034 L 341.9170018326696 133.59181442457628 L 341.6994667062054 133.57652902657927 L 341.4822805823028 133.5602610312664 L 341.26546517939323 133.54301206542365 L 341.0490421788363 133.52478385393323 L 340.8330332227518 133.50557821960106 L 340.6174599118552 133.48539708297463 L 340.40234380329804 133.4642424621507 L 340.1877064085118 133.44211647257382 L 339.9735691910572 133.41902132682446 L 339.75995356447754 133.39495933439795 L 339.5468808901574 133.36993290147348 L 339.33437247518674 133.34394453067347 L 339.12244957022983 133.3169968208134 L 338.91113336740074 133.28909246664173 L 338.7004449981435 133.26023425857068 L 338.4904055311195 133.230425082397 L 338.2810359701005 133.19966791901342 L 338.072357251868 133.1679658441107 L 337.86439024412005 133.1353220278699 L 337.657155743384 133.10173973464543 L 337.4506744729373 133.06722232263863 L 337.24496708073497 133.03177324356193 L 337.04005413734467 132.9953960422937 L 336.83595613389014 132.95809435652376 L 336.6326934800015 132.9198719163896 L 336.43028650177484 132.88073254410338 L 336.2287554397393 132.8406801535697 L 336.0281204468331 132.7997187499943 L 335.8284015863884 132.7578524294833 L 335.6296188301248 132.71508537863394 L 335.4317920561522 132.67142187411562 L 335.23494104698324 132.62686628224245 L 335.0390854875547 132.58142305853647 L 334.8442449632594 132.53509674728215 L 334.6504389579874 132.48789198107207 L 334.45768685217763 132.43981348034345 L 334.2660079208801 132.39086605290635 L 334.07542133182824 132.34105459346267 L 333.88594614352206 132.2903840831169 L 333.6976013033226 132.23885958887783 L 333.5104056455568 132.18648626315192 L 333.32437788963455 132.13326934322816 L 333.13953663817637 132.07921415075413 L 332.95590037515336 132.02432609120405 L 332.7734874640388 131.96861065333817 L 332.59231614597184 131.9120734086538 L 332.41240453793324 131.85472001082832 L 332.2337706309339 131.79655619515373 L 332.05643228821566 131.73758777796309 L 331.8804072434651 131.677820656049 L 331.7057130990398 131.61726080607386 L 331.53236732420885 131.55591428397216 L 331.3603872534052 131.49378722434506 L 331.18979008449253 131.43088583984667 L 331.02059287704566 131.36721642056307 L 330.8528125506443 131.3027853333831 L 330.68646588318126 131.2375990213618 L 330.5215695091847 131.17166400307607 L 330.3581399181546 131.10498687197278 L 330.19619345291386 131.03757429570948 L 330.0357463079741 130.9694330154876 L 329.876814527916 130.90056984537839 L 329.7194140057852 130.83099167164147 L 329.5635604815028 130.76070545203626 L 329.40926954029123 130.6897182151261 L 329.2565566111161 130.61803705957558 L 329.10543696514304 130.54566915344049 L 328.9559257142107 130.4726217334511 L 328.80803780931967 130.3989021042886 L 328.66178803913715 130.32451763785446 L 328.51719102851825 130.24947577253332 L 328.3742612370435 130.17378401244918 L 328.2330129575731 130.09744992671497 L 328.09346031481715 130.02048114867569 L 327.95561726392367 129.94288537514493 L 327.8194975890829 129.86467036563545 L 327.6851149021489 129.78584394158295 L 327.5524826412783 129.70641398556424 L 327.4216140695867 129.62638844050866 L 327.29252227382227 129.54577530890404 L 327.165220163057 129.46458265199638 L 327.0397204673958 129.3828185889837 L 326.9160357367037 129.30049129620417 L 326.7941783393507 129.21760900631847 L 326.674160460975 129.1341800074865 L 326.55599410326437 129.0502126425386 L 326.4396910827562 128.96571530814134 L 326.32526302965556 128.88069645395774 L 326.2127213866724 128.79516458180234 L 326.1020774078773 128.70912824479112 L 325.99334215757585 128.62259604648602 L 325.8865265092025 128.53557664003483 L 325.7816411442331 128.4480787273056 L 325.6786965511167 128.3601110580168 L 325.5777030242268 128.27168242886196 L 325.4786706628321 128.18280168263036 L 325.381609370086 128.0934777073225 L 325.286528852037 128.0037194352615 L 325.19343861665766 127.91353584219979 L 325.1023479728939 127.82293594642151 L 325.0132660297342 127.73192880784073 L 324.92620169529874 127.64052352709548 L 324.8411636759483 127.54872924463764 L 324.75816047541394 127.456555139819 L 324.67720039394663 127.36401042997319 L 324.598291527487 127.27110436949411 L 324.52144176685596 127.17784624891036 L 324.4466587969655 127.0842453939563 L 324.3739500960503 126.99031116463941 L 324.30332293491983 126.89605295430435 L 324.23478437623146 126.80148018869362 L 324.1683412737838 126.70660232500494 L 324.10400027183186 126.61142885094564 L 324.04176780442214 126.5159692837838 L 323.9816500947495 126.4202331693966 L 323.92365315453486 126.32423008131569 L 323.8677827834239 126.22796961976988 L 323.81404456840716 126.13146141072511 L 323.76244388326137 126.03471510492186 L 323.71298588801204 125.93774037691007 L 323.66567552841747 125.84054692408175 L 323.6205175354742 125.74314446570119 L 323.5775164249439 125.64554274193304 L 323.5366764969018 125.54775151286837 L 323.4980018353067 125.44978055754858 L 323.4614963075924 125.35163967298755 L 323.4271635642814 125.25333867319196 L 323.3950070386193 125.15488738817989 L 323.36502994623197 125.05629566299777 L 323.3372352848036 124.95757335673598 L 323.31162583377727 124.85873034154285 L 323.2882041540766 124.75977650163756 L 323.26697258785015 124.66072173232163 L 323.2479332582368 124.56157593898945 L 323.23108806915366 124.46234903613772 L 323.21643870510553 124.36305094637405 L 323.20398663101673 124.26369159942466 L 323.19373309208424 124.16428093114145 L 323.1856791136534 124.0648288825084 L 323.1798255011153 123.9653453986475 L 323.17617283982645 123.86584042782422 L 323.17472149504977 123.76632392045276" stroke-miterlimit="10" stroke-width="2.5633703640000003" stroke-dasharray=""/></g><g><g/><text fill="black" stroke="none" font-family="monospace" font-size="11pt" font-style="normal" font-weight="normal" text-decoration="normal" x="309.8942943554687" y="149.88177304799999" text-anchor="start" dominant-baseline="alphabetic" xml:space="preserve">Database</text></g><g><path fill="white" stroke="red" paint-order="fill stroke markers" d=" M 99.23709060086719 413.30577457199996 A 22.391794062000002 22.391794062000002 0 1 1 99.2370794049711 413.2833827816699 M 73.82956669886718 390.91398051 L 82.87675621886719 383.37465591 M 73.82956669886718 390.91398051 L 82.87675621886719 398.45330511" stroke-miterlimit="10" stroke-width="1.7943592548" stroke-dasharray=""/></g><g><g/><text fill="black" stroke="none" font-family="monospace" font-size="11pt" font-style="normal" font-weight="normal" text-decoration="normal" x="15.078649200000001" y="377.56937596800003" text-anchor="start" dominant-baseline="alphabetic" xml:space="preserve">Report Service</text></g><g><path fill="pink" stroke="black" paint-order="fill stroke markers" d=" M 323.17469357424994 426.273412884 L 323.17469357424994 394.608249564 L 367.2043492382499 394.608249564 L 367.2043492382499 426.273412884" stroke-miterlimit="10" stroke-width="2.5633703640000003" stroke-dasharray=""/><path fill="pink" stroke="black" paint-order="fill stroke markers" d=" M 367.2043492382499 393.5075081724 L 367.2032485060311 393.60702559847687 L 367.1999464194471 393.70653307289405 L 367.1944433087037 393.8060206449871 L 367.1867397241074 393.9054783660816 L 367.17683643601026 394.0048962904884 L 367.1647344347329 394.1042644764978 L 367.1504349304653 394.2035729873742 L 367.13393935314593 394.3028118923491 L 367.11524935231887 394.4019712676147 L 367.09436679696853 394.5010411973163 L 367.0712937753331 394.60001177454325 L 367.0460325946956 394.6988731023204 L 367.01858578115286 394.7976152945974 L 366.9889560793635 394.89622847723723 L 366.9571464522729 394.99470278900384 L 366.9231600808174 395.09302838254814 L 366.88700036360575 395.19119542539266 L 366.8486709165795 395.289194100915 L 366.80817557265146 395.3870146093292 L 366.7655183813223 395.4846471686659 L 366.7207036082755 395.58208201575064 L 366.67373573495115 395.67930940717986 L 366.62461945809736 395.7763196202954 L 366.5733596893009 395.8731029541568 L 366.5199615544959 395.96964973051143 L 366.4644303934515 396.06595029476193 L 366.4067717592373 396.1619950169323 L 366.34699141766885 396.25777429263024 L 366.2850953467304 396.35327854400805 L 366.2210897359775 396.4484982207202 L 366.15498098591786 396.54342380087826 L 366.0867757073714 396.6380457920034 L 366.01648072080917 396.7323547319754 L 365.94410305567123 396.8263411899788 L 365.86964994966377 396.9199957674461 L 365.79312884803534 397.01330909899764 L 365.71454740283235 397.106271853378 L 365.6339134721338 397.1988747343893 L 365.55123511926564 397.2911084818204 L 365.4665206119942 397.38296387237364 L 365.37977842169965 397.4744317205864 L 365.2910172225287 397.56550287975006 L 365.20024589052736 397.65616824282466 L 365.10747350275307 397.74641874334947 L 365.0127093363674 397.83624535634954 L 364.91596286770795 397.9256390992385 L 364.81724377134105 398.01459103271657 L 364.716561919094 398.1030922616644 L 364.6139273790682 398.19113393603305 L 364.50935041463197 398.2787072517283 L 364.40284148339475 398.3658034514916 L 364.29441123616084 398.4524138257756 L 364.1840705158647 398.538529713615 L 364.07183035648626 398.62414250349275 L 363.95770198194805 398.7092436342012 L 363.84169680499235 398.7938245956983 L 363.7238264260402 398.8778769299583 L 363.60410263203124 398.9613922318178 L 363.4825373952452 399.0443621498163 L 363.3591428721043 399.1267783870311 L 363.2339314019582 399.2086327019071 L 363.1069155058495 399.28991690908106 L 362.9781078852619 399.3706228802 L 362.84752142085017 399.45074254473417 L 362.71516917115196 399.5302678907837 L 362.5810643712819 399.6091909658804 L 362.4452204316082 399.6875038777824 L 362.30765093641173 399.76519879526387 L 362.1683696425273 399.8422679488978 L 362.02739047796825 399.918703631833 L 361.8847275405335 399.9944982005649 L 361.74039509639795 400.06964407569984 L 361.5944075786857 400.1441337427128 L 361.446779586027 400.2179597526993 L 361.2975258810979 400.2911147231198 L 361.14666138914464 400.3635913385382 L 360.9942011964907 400.4353823513533 L 360.8401605490282 400.5064805825238 L 360.6845548506936 400.5768789222857 L 360.527399661927 400.64657033086377 L 360.36871069811644 400.71554783917514 L 360.2085038280259 400.78380454952656 L 360.046795072209 400.8513336363038 L 359.8836006014065 400.9181283466545 L 359.7189367349295 400.9841820011633 L 359.5528199390275 401.04948799451967 L 359.38526682524156 401.1140397961789 L 359.2162941487435 401.1778309510144 L 359.04591880666004 401.24085507996404 L 358.8741578363836 401.3031058806673 L 358.7010284138679 401.3645771280961 L 358.526547851911 401.42526267517684 L 358.35073359842374 401.4851564534054 L 358.17360323468483 401.54425247345387 L 357.9951744735832 401.6025448257695 L 357.81546515784606 401.6600276811657 L 357.6344932582554 401.7166952914047 L 357.45227687185036 401.7725419897728 L 357.26883422011764 401.8275621916466 L 357.0841836471696 401.8817503950519 L 356.8983436179097 401.9351011812134 L 356.7113327161859 401.987609215097 L 356.5231696429326 402.0392692459431 L 356.3338732143003 402.09007610779156 L 356.1434623597741 402.1400247199987 L 355.95195612028084 402.1891100877447 L 355.7593736462848 402.23732730253386 L 355.565734195873 402.2846715426848 L 355.37105713282904 402.33113807381307 L 355.175361924697 402.3767222493041 L 354.97866814083454 402.4214195107785 L 354.7809954504563 402.4652253885473 L 354.5823636206665 402.5081355020592 L 354.3827925144826 402.55014556033865 L 354.1823020888489 402.59125136241477 L 353.9809123926409 402.63144879774165 L 353.7786435646604 402.6707338466093 L 353.57551583162166 402.7091025805455 L 353.37154950612864 402.74655116270884 L 353.166764984644 402.78307584827235 L 352.9611827454492 402.8186729847979 L 352.7548233465968 402.85333901260145 L 352.54770742385483 402.88707046510916 L 352.33985568864284 402.9198639692039 L 352.13128892596126 402.9517162455625 L 351.92202799231245 402.982624108984 L 351.71209381361547 403.01258446870776 L 351.5015073831132 403.0415943287227 L 351.2902897592732 403.06965078806707 L 351.07846206368185 403.0967510411183 L 350.8660454789322 403.12289237787365 L 350.65306124650573 403.1480721842213 L 350.43953066464815 403.1722879422015 L 350.2254750862397 403.19553723025865 L 350.0109159166599 403.2178177234834 L 349.79587461164687 403.2391271938449 L 349.5803726751519 403.2594635104139 L 349.3644316571891 403.27882463957576 L 349.14807315168025 403.29720864523364 L 348.93131879429563 403.3146136890023 L 348.7141902602904 403.33103803039177 L 348.49670926233694 403.34648002698174 L 348.2788975483539 403.36093813458535 L 348.0607768993311 403.37441090740396 L 347.8423691271517 403.38689699817144 L 347.6236960724109 403.3983951582891 L 347.40477960223194 403.4089042379506 L 347.18564160807944 403.41842318625663 L 346.9663040035702 403.4269510513204 L 346.74678872228185 403.4344869803624 L 346.5271177155596 403.44103021979606 L 346.30731295032115 403.44658011530294 L 346.08739640685974 403.451136111898 L 345.8673900766465 403.4546977539855 L 345.64731596013104 403.4572646854041 L 345.42719606454176 403.45883664946285 L 345.20705240168473 403.4594134889666 L 344.98690698574273 403.458995146232 L 344.76678183107396 403.4575816630928 L 344.5466989500104 403.4551731808963 L 344.3266803506568 403.45176994048865 L 344.1067480346897 403.447372282191 L 343.8869239951575 403.44198064576557 L 343.66723021428083 403.4355955703715 L 343.44768866125486 403.42821769451103 L 343.22832129005184 403.41984775596563 L 343.0091500372261 403.4104865917221 L 342.7901968197203 403.40013513788904 L 342.5714835326737 403.38879442960325 L 342.35303204723283 403.37646560092617 L 342.1348642083641 403.3631498847303 L 341.9170018326696 403.34884861257626 L 341.6994667062054 403.33356321457927 L 341.4822805823028 403.3172952192664 L 341.26546517939323 403.30004625342366 L 341.0490421788363 403.2818180419332 L 340.8330332227518 403.26261240760107 L 340.6174599118552 403.24243127097463 L 340.40234380329804 403.2212766501507 L 340.1877064085118 403.1991506605738 L 339.9735691910572 403.17605551482444 L 339.75995356447754 403.15199352239796 L 339.5468808901574 403.12696708947345 L 339.33437247518674 403.10097871867345 L 339.12244957022983 403.0740310088134 L 338.91113336740074 403.04612665464174 L 338.7004449981435 403.01726844657065 L 338.4904055311195 402.987459270397 L 338.2810359701005 402.9567021070134 L 338.072357251868 402.9250000321107 L 337.86439024412005 402.8923562158699 L 337.657155743384 402.8587739226454 L 337.4506744729373 402.82425651063863 L 337.24496708073497 402.7888074315619 L 337.04005413734467 402.75243023029367 L 336.83595613389014 402.71512854452374 L 336.6326934800015 402.6769061043896 L 336.43028650177484 402.6377667321034 L 336.2287554397393 402.5977143415697 L 336.0281204468331 402.5567529379943 L 335.8284015863884 402.5148866174833 L 335.6296188301248 402.4721195666339 L 335.4317920561522 402.42845606211563 L 335.23494104698324 402.38390047024245 L 335.0390854875547 402.33845724653645 L 334.8442449632594 402.29213093528216 L 334.6504389579874 402.2449261690721 L 334.45768685217763 402.1968476683434 L 334.2660079208801 402.1479002409063 L 334.07542133182824 402.09808878146265 L 333.88594614352206 402.0474182711169 L 333.6976013033226 401.99589377687784 L 333.5104056455568 401.9435204511519 L 333.32437788963455 401.89030353122814 L 333.13953663817637 401.8362483387541 L 332.95590037515336 401.781360279204 L 332.7734874640388 401.7256448413382 L 332.59231614597184 401.6691075966538 L 332.41240453793324 401.6117541988283 L 332.2337706309339 401.55359038315373 L 332.05643228821566 401.49462196596306 L 331.8804072434651 401.43485484404897 L 331.7057130990398 401.37429499407386 L 331.53236732420885 401.31294847197216 L 331.3603872534052 401.25082141234503 L 331.18979008449253 401.18792002784664 L 331.02059287704566 401.12425060856305 L 330.8528125506443 401.0598195213831 L 330.68646588318126 400.9946332093618 L 330.5215695091847 400.9286981910761 L 330.3581399181546 400.8620210599728 L 330.19619345291386 400.79460848370945 L 330.0357463079741 400.7264672034876 L 329.876814527916 400.6576040333784 L 329.7194140057852 400.58802585964145 L 329.5635604815028 400.51773964003627 L 329.40926954029123 400.4467524031261 L 329.2565566111161 400.3750712475756 L 329.10543696514304 400.30270334144046 L 328.9559257142107 400.2296559214511 L 328.80803780931967 400.15593629228863 L 328.66178803913715 400.08155182585443 L 328.51719102851825 400.0065099605333 L 328.3742612370435 399.93081820044915 L 328.2330129575731 399.854484114715 L 328.09346031481715 399.77751533667566 L 327.95561726392367 399.69991956314493 L 327.8194975890829 399.6217045536354 L 327.6851149021489 399.54287812958296 L 327.5524826412783 399.46344817356425 L 327.4216140695867 399.38342262850864 L 327.29252227382227 399.30280949690405 L 327.165220163057 399.2216168399964 L 327.0397204673958 399.1398527769837 L 326.9160357367037 399.0575254842042 L 326.7941783393507 398.97464319431845 L 326.674160460975 398.8912141954865 L 326.55599410326437 398.8072468305386 L 326.4396910827562 398.7227494961413 L 326.32526302965556 398.6377306419577 L 326.2127213866724 398.5521987698023 L 326.1020774078773 398.4661624327911 L 325.99334215757585 398.379630234486 L 325.8865265092025 398.2926108280348 L 325.7816411442331 398.2051129153056 L 325.6786965511167 398.1171452460168 L 325.5777030242268 398.02871661686197 L 325.4786706628321 397.93983587063036 L 325.381609370086 397.8505118953225 L 325.286528852037 397.7607536232615 L 325.19343861665766 397.67057003019977 L 325.1023479728939 397.5799701344215 L 325.0132660297342 397.4889629958407 L 324.92620169529874 397.39755771509545 L 324.8411636759483 397.30576343263766 L 324.75816047541394 397.21358932781897 L 324.67720039394663 397.1210446179732 L 324.598291527487 397.0281385574941 L 324.52144176685596 396.93488043691036 L 324.4466587969655 396.8412795819563 L 324.3739500960503 396.7473453526394 L 324.30332293491983 396.65308714230434 L 324.23478437623146 396.5585143766936 L 324.1683412737838 396.46363651300493 L 324.10400027183186 396.3684630389456 L 324.04176780442214 396.2730034717838 L 323.9816500947495 396.1772673573966 L 323.92365315453486 396.0812642693157 L 323.8677827834239 395.9850038077699 L 323.81404456840716 395.8884955987251 L 323.76244388326137 395.79174929292185 L 323.71298588801204 395.69477456491006 L 323.66567552841747 395.59758111208174 L 323.6205175354742 395.5001786537012 L 323.5775164249439 395.40257692993305 L 323.5366764969018 395.30478570086836 L 323.4980018353067 395.20681474554857 L 323.4614963075924 395.10867386098755 L 323.4271635642814 395.01037286119197 L 323.3950070386193 394.91192157617985 L 323.36502994623197 394.8133298509978 L 323.3372352848036 394.71460754473594 L 323.31162583377727 394.61576452954284 L 323.2882041540766 394.51681068963757 L 323.26697258785015 394.4177559203216 L 323.2479332582368 394.3186101269894 L 323.23108806915366 394.21938322413774 L 323.21643870510553 394.12008513437405 L 323.20398663101673 394.0207257874246 L 323.19373309208424 393.9213151191414 L 323.1856791136534 393.8218630705084 L 323.1798255011153 393.7223795866475 L 323.17617283982645 393.62287461582423 L 323.17472149504977 393.5233581084527 L 323.1754716119186 393.4238400161009 L 323.17842311542194 393.3243302904949 L 323.18357571041184 393.2248388825245 L 323.19092888163306 393.1253757412475 L 323.2004818937747 393.0259508128952 L 323.2122337915434 392.92657403987755 L 323.2261833997592 392.82725535978904 L 323.242329323473 392.7280047044149 L 323.2606699481057 392.62883199873795 L 323.2812034396103 392.5297471599462 L 323.3039277446547 392.43076009644085 L 323.3288405908273 392.3318807068458 L 323.3559394868643 392.2331188790177 L 323.3852217228987 392.1344844890569 L 323.4166843707311 392.0359874003202 L 323.4503242841232 391.9376374624345 L 323.48613809911154 391.8394445103116 L 323.5241222343445 391.7414183631648 L 323.5642728914402 391.64356882352723 L 323.6065860553664 391.5459056762713 L 323.651057494842 391.44843868763024 L 323.69768276276005 391.3511776042218 L 323.74645719663266 391.2541321520732 L 323.79737591905706 391.15731203564894 L 323.85043383820346 391.0607269368798 L 323.90562564832413 390.9643865141952 L 323.9629458302841 390.86830040155724 L 324.0223886521129 390.77247820749693 L 324.0839481695779 390.676929514154 L 324.14761822677866 390.5816638763181 L 324.21339245676245 390.48669082047354 L 324.2812642821612 390.39201984384687 L 324.3512269158489 390.2976604134568 L 324.4232733616204 390.2036219651678 L 324.49739641489117 390.1099139027463 L 324.57358866341775 390.0165455969204 L 324.6518424880387 389.923526384443 L 324.73215006343685 389.8308655671577 L 324.81450335892146 389.7385724110691 L 324.8988941392317 389.64665614541576 L 324.98531396535986 389.5551259617479 L 325.07375419539534 389.46399101300733 L 325.1642059853888 389.3732604126132 L 325.2566602902366 389.2829432335498 L 325.3511078645854 389.1930485074599 L 325.44753926375637 389.10358522374105 L 325.54594484469004 389.0145623286472 L 325.6463147669102 388.92598872439356 L 325.7486389935084 388.8378732682668 L 325.85290729214717 388.7502247717391 L 325.9591092360836 388.66305199958714 L 326.0672342052117 388.5763636690154 L 326.17727138712473 388.4901684487847 L 326.2892097781962 388.4044749583453 L 326.40303818468027 388.31929176697474 L 326.51874522383116 388.23462739292125 L 326.6363193250413 388.15049030255165 L 326.7557487309987 388.0668889095049 L 326.8770214988621 387.9838315738506 L 327.00012550145595 387.90132660125306 L 327.1250484284825 387.8193822421409 L 327.2517777877531 387.7380066908816 L 327.3803009064375 387.6572080849626 L 327.5106049323309 387.57699450417704 L 327.64267683513935 387.4973739698163 L 327.77650340778257 387.4183544438674 L 327.91207126771485 387.33994382821703 L 328.0493668582631 387.2621499638615 L 328.1883764499828 387.1849806301223 L 328.3290861420305 387.10844354386865 L 328.47148186355435 387.03254635874526 L 328.6155493751008 386.95729666440747 L 328.76127427003877 386.882701985762 L 328.9086419760002 386.80876978221454 L 329.0576377563373 386.73550744692386 L 329.2082467115962 386.6629223060624 L 329.36045378100687 386.59102161808374 L 329.51424374398925 386.5198125729968 L 329.6696012216751 386.44930229164675 L 329.82651067844625 386.37949782500294 L 329.9849564234877 386.3104061534539 L 330.144922612357 386.2420341861092 L 330.30639324856855 386.17438876010857 L 330.4693521851933 386.1074766399383 L 330.6337831264734 386.0413045167545 L 330.7996696294517 385.9758790077145 L 330.96699510561626 385.9112066553147 L 331.13574282255877 385.8472939267363 L 331.3058959056482 385.784147213199 L 331.47743733971805 385.7217728293215 L 331.6503499707678 385.66017701249024 L 331.82461650767857 385.5993659222355 L 332.0002195239418 385.53934563961576 L 332.1771414594022 385.48012216660914 L 332.35536462201367 385.4217014255136 L 332.53487118960845 385.3640892583546 L 332.71564321167943 385.30729142630094 L 332.89766261117495 385.2513136090883 L 333.0809111863068 385.1961614044519 L 333.26537061237025 385.1418403275662 L 333.4510224435763 385.08835581049357 L 333.6378481148965 385.0357132016412 L 333.82582894391953 384.9839177652261 L 334.01494613271905 384.9329746807488 L 334.20518076973383 384.8828890424752 L 334.39651383165864 384.8336658589275 L 334.5889261853468 384.7853100523829 L 334.78239858972324 384.73782645838185 L 334.9769116977088 384.69121982524416 L 335.17244605815466 384.64549481359427 L 335.3689821177878 384.6006559958953 L 335.5665002231661 384.55670785599165 L 335.7649806226435 384.51365478866063 L 335.9644034683455 384.4715010991731 L 336.1647488181537 384.430251002863 L 336.36599663770016 384.38990862470547 L 336.56812680237056 384.3504779989047 L 336.7711190993168 384.31196306849046 L 336.9749532294785 384.2743676849237 L 337.1796088096124 384.23769560771143 L 337.385065374331 384.2019505040308 L 337.5913023781492 384.1671359483624 L 337.7982991975383 384.1332554221328 L 338.006035132989 384.1003123133663 L 338.21448941108076 384.0683099163465 L 338.42364118655956 384.0372514312863 L 338.6334695444221 384.00713996400833 L 338.8439535020074 383.9779785256343 L 339.05507201109526 383.94977003228365 L 339.26680396001063 383.9225173047823 L 339.47912817573496 383.8962230683802 L 339.69202342602375 383.87088995247916 L 339.9054684215293 383.8465204903696 L 340.11944181793 383.82311711897745 L 340.33392221806446 383.8006821786204 L 340.5488881740714 383.7792179127737 L 340.7643181895344 383.75872646784603 L 340.9801907216314 383.7392098929649 L 341.1964841832891 383.72067013977147 L 341.41317694534155 383.7031090622256 L 341.6302473386932 383.6865284164205 L 341.84767365648554 383.6709298604069 L 342.06543415626794 383.6563149540273 L 342.283507062172 383.64268515876034 L 342.5018705670888 383.630041837574 L 342.72050283484975 383.61838625479 L 342.9393820024104 383.6077195759568 L 343.1584861820363 383.5980428677335 L 343.3777934634921 383.58935709778274 L 343.5972819162324 383.5816631346744 L 343.8169295915948 383.57496174779834 L 344.0367145249949 383.5692536072876 L 344.2566147381225 383.56453928395155 L 344.47660824113944 383.5608192492185 L 344.69667303487876 383.55809387508896 L 344.91678711304456 383.556363434098 L 345.1369284644124 383.55562809928824 L 345.3570750750306 383.5558879441926 L 345.57720493042154 383.5571429428268 L 345.7972960177831 383.559392969692 L 346.01732632819 383.5626377997874 L 346.2372738587946 383.5668771086327 L 346.457116615027 383.57211047230055 L 346.67683261279484 383.5783373674589 L 346.8963998806815 383.58555717142355 L 347.11579646214307 383.59376916222 L 347.3350004177043 383.602972518656 L 347.5539898271523 383.61316632040365 L 347.77274279172855 383.62434954809123 L 347.99123743631895 383.63652108340534 L 348.2094519116411 383.64967970920253 L 348.4273643964293 383.6638241096312 L 348.64495309961666 383.6789528702631 L 348.8621962625142 383.6950644782348 L 349.0790721609867 383.7121573223989 L 349.295559107625 383.7302296934852 L 349.51163545391483 383.7492797842718 L 349.72727959240166 383.76930568976525 L 349.94246995885135 383.7903054073919 L 350.1571850344065 383.8122768371974 L 350.3714033477386 383.83521778205704 L 350.5851034771947 383.85912594789556 L 350.79826405294006 383.8839989439162 L 351.0108637590947 383.9098342828401 L 351.2228813358651 383.936629381155 L 351.43429558167037 383.96438155937324 L 351.64508535526204 383.99308804230026 L 351.8552295778385 384.02274595931164 L 352.0647072351524 384.0533523446403 L 352.2734973796128 384.0849041376734 L 352.4815791323792 384.11739818325776 L 352.6889316854496 384.150831232016 L 352.8955343037416 384.18519994067105 L 353.10136632716547 384.22050087238074 L 353.30640717269046 384.25673049708126 L 353.51063633640285 384.2938851918404 L 353.7140333955565 384.3319612412196 L 353.9165780106149 384.37095483764557 L 354.11824992728543 384.4108620817913 L 354.3190289785444 384.4516789829656 L 354.5188950866541 384.4934014595123 L 354.71782826517017 384.5360253392186 L 354.91580862094054 384.579546359732 L 355.1128163560947 384.6239601689867 L 355.3088317700233 384.66926232563884 L 355.5038352613482 384.71544829951046 L 355.6978073298828 384.76251347204266 L 355.89072857858196 384.8104531367574 L 356.0825797154815 384.85926249972823 L 356.2733415556276 384.90893668005947 L 356.4629950229953 384.9594707103745 L 356.6515211523959 385.0108595373124 L 356.83890109137343 385.0630980220333 L 357.0251161020903 385.1161809407322 L 357.2101475632005 385.1701029851615 L 357.39397697171216 385.22485876316176 L 357.5765859448377 385.2804427992008 L 357.7579562218318 385.3368495349212 L 357.93806966581803 385.39407332969654 L 358.1169082656021 385.452108461195 L 358.294454137473 385.51094912595175 L 358.47068952699146 385.57058943994934 L 358.64559681076554 385.6310234392061 L 358.81915849821246 385.6922450803725 L 358.99135723330824 385.7542482413354 L 359.16217579632274 385.81702672183036 L 359.33159710554213 385.8805742440617 L 359.4996042189766 385.9448844533301 L 359.66618033605477 386.0099509186682 L 359.8313087993039 386.07576713348374 L 359.9949730960151 386.1423265162101 L 360.15715685989517 386.2096224109644 L 360.31784387270284 386.27764808821337 L 360.4770180658708 386.3463967454459 L 360.63466352211236 386.4158615078535 L 360.79076447701317 386.4860354290178 L 360.94530532060793 386.5569114916054 L 361.09827059894104 386.6284826080688 L 361.24964501561215 386.7007416213562 L 361.39941343330565 386.7736813056264 L 361.5475608753047 386.8472943669717 L 361.69407252698846 386.9215734441475 L 361.83893373731394 386.9965111093078 L 361.98213002028075 387.0720998687486 L 362.1236470563799 387.14833216365696 L 362.26347069402584 387.2252003708669 L 362.40158695097125 387.30269680362176 L 362.5379820157055 387.3808137123428 L 362.6726422488358 387.4595432854043 L 362.80555418445107 387.5388776499146 L 362.9367045314685 387.6188088725032 L 363.0660801749626 387.69932896011466 L 363.19366817747704 387.78042986080715 L 363.3194557803177 387.8621034645583 L 363.4434304048292 387.9443416040757 L 363.5655796536523 388.027136055614 L 363.6858913119641 388.110478539797 L 363.8043533486989 388.19436072244577 L 363.9209539177517 388.2787742154119 L 364.0356813591629 388.3637105774165 L 364.1485242002839 388.44916131489407 L 364.2594711569245 388.53511788284214 L 364.3685111344817 388.6215716856756 L 364.47563322904847 388.708514078086 L 364.5808267285047 388.79593636590675 L 364.68408111358804 388.88382980698185 L 364.7853860589461 388.97218561204045 L 364.8847314341687 389.0609949455756 L 364.9821073048011 389.15024892672807 L 365.0775039333375 389.2399386301741 L 365.17091178019433 389.330055087018 L 365.26232150466495 389.42058928568923 L 365.351723965853 389.51153217284343 L 365.43911022358685 389.60287465426757 L 365.5244715393136 389.6946075957897 L 365.60779937697276 389.7867218241921 L 365.68908540385 389.87920812812865 L 365.7683214914104 389.97205725904604 L 365.84549971611125 390.0652599321086 L 365.92061236019435 390.1588068271266 L 365.99365191245795 390.2526885894886 L 366.0646110690076 390.34689583109656 L 366.13348273398685 390.4414191313048 L 366.2002600202865 390.5362490378621 L 366.26493625023375 390.6313760678568 L 366.3275049562593 390.7267907086652 L 366.3879598815448 390.82248341890266 L 366.4462949806481 390.91844462937803 L 366.50250442010787 391.0146647440501 L 366.556582579027 391.1111341409877 L 366.6085240496347 391.2078431733314 L 366.65832363782715 391.3047821702587 L 366.70597636368706 391.40194143795054 L 366.75147746198155 391.4993112605612 L 366.7948223826387 391.59688190118965 L 366.8360067912026 391.6946436028529 L 366.87502656926665 391.7925865894625 L 366.91187781488554 391.8907010668012 L 366.94655684296555 391.98897722350324 L 366.97906018563265 392.08740523203466 L 367.00938459257975 392.1859752496767 L 367.03752703139133 392.28467741950976 L 367.063484687847 392.38350187139906 L 367.08725496620275 392.48243872298184 L 367.1088354894506 392.5814780806553 L 367.1282240995561 392.68061004056625 L 367.14541885767454 392.7798246896013 L 367.16041804434434 392.8791121063782 L 367.1732201596593 392.97846236223813 L 367.18382392341863 393.07786552223814 L 367.19222827525476 393.17731164614514 L 367.1984323747395 393.2767907894296 L 367.20243560146815 393.3762930042601 L 367.20423755512127 393.4758083404981 M 367.2043492382499 425.17267149239996 L 367.2032485060311 425.27218891847684 L 367.1999464194471 425.371696392894 L 367.1944433087037 425.47118396498706 L 367.1867397241074 425.57064168608156 L 367.17683643601026 425.67005961048835 L 367.1647344347329 425.7694277964978 L 367.1504349304653 425.86873630737415 L 367.13393935314593 425.9679752123491 L 367.11524935231887 426.0671345876147 L 367.09436679696853 426.16620451731626 L 367.0712937753331 426.2651750945432 L 367.0460325946956 426.3640364223204 L 367.01858578115286 426.46277861459737 L 366.9889560793635 426.5613917972372 L 366.9571464522729 426.6598661090038 L 366.9231600808174 426.7581917025481 L 366.88700036360575 426.85635874539264 L 366.8486709165795 426.95435742091496 L 366.80817557265146 427.05217792932916 L 366.7655183813223 427.1498104886659 L 366.7207036082755 427.2472453357506 L 366.67373573495115 427.34447272717983 L 366.62461945809736 427.4414829402954 L 366.5733596893009 427.5382662741568 L 366.5199615544959 427.6348130505114 L 366.4644303934515 427.7311136147619 L 366.4067717592373 427.82715833693226 L 366.34699141766885 427.9229376126302 L 366.2850953467304 428.018441864008 L 366.2210897359775 428.11366154072016 L 366.15498098591786 428.20858712087824 L 366.0867757073714 428.3032091120034 L 366.01648072080917 428.3975180519754 L 365.94410305567123 428.49150450997877 L 365.86964994966377 428.5851590874461 L 365.79312884803534 428.6784724189976 L 365.71454740283235 428.771435173378 L 365.6339134721338 428.86403805438925 L 365.55123511926564 428.9562718018204 L 365.4665206119942 429.0481271923736 L 365.37977842169965 429.13959504058636 L 365.2910172225287 429.23066619975003 L 365.20024589052736 429.32133156282464 L 365.10747350275307 429.41158206334944 L 365.0127093363674 429.5014086763495 L 364.91596286770795 429.59080241923846 L 364.81724377134105 429.67975435271654 L 364.716561919094 429.7682555816644 L 364.6139273790682 429.85629725603303 L 364.50935041463197 429.94387057172827 L 364.40284148339475 430.0309667714916 L 364.29441123616084 430.11757714577556 L 364.1840705158647 430.20369303361497 L 364.07183035648626 430.28930582349267 L 363.95770198194805 430.37440695420116 L 363.84169680499235 430.4589879156983 L 363.7238264260402 430.54304024995827 L 363.60410263203124 430.6265555518178 L 363.4825373952452 430.7095254698163 L 363.3591428721043 430.79194170703107 L 363.2339314019582 430.8737960219071 L 363.1069155058495 430.95508022908103 L 362.9781078852619 431.0357862002 L 362.84752142085017 431.11590586473415 L 362.71516917115196 431.1954312107837 L 362.5810643712819 431.27435428588035 L 362.4452204316082 431.35266719778235 L 362.30765093641173 431.43036211526385 L 362.1683696425273 431.5074312688978 L 362.02739047796825 431.583866951833 L 361.8847275405335 431.6596615205649 L 361.74039509639795 431.7348073956998 L 361.5944075786857 431.8092970627128 L 361.446779586027 431.8831230726993 L 361.2975258810979 431.95627804311977 L 361.14666138914464 432.02875465853816 L 360.9942011964907 432.1005456713533 L 360.8401605490282 432.1716439025238 L 360.6845548506936 432.24204224228566 L 360.527399661927 432.31173365086374 L 360.36871069811644 432.3807111591751 L 360.2085038280259 432.44896786952654 L 360.046795072209 432.5164969563038 L 359.8836006014065 432.5832916666545 L 359.7189367349295 432.64934532116325 L 359.5528199390275 432.71465131451964 L 359.38526682524156 432.77920311617885 L 359.2162941487435 432.8429942710144 L 359.04591880666004 432.906018399964 L 358.8741578363836 432.9682692006673 L 358.7010284138679 433.02974044809605 L 358.526547851911 433.0904259951768 L 358.35073359842374 433.1503197734054 L 358.17360323468483 433.20941579345384 L 357.9951744735832 433.26770814576946 L 357.81546515784606 433.32519100116565 L 357.6344932582554 433.38185861140465 L 357.45227687185036 433.4377053097727 L 357.26883422011764 433.4927255116466 L 357.0841836471696 433.54691371505186 L 356.8983436179097 433.60026450121336 L 356.7113327161859 433.652772535097 L 356.5231696429326 433.7044325659431 L 356.3338732143003 433.75523942779154 L 356.1434623597741 433.8051880399986 L 355.95195612028084 433.8542734077447 L 355.7593736462848 433.90249062253383 L 355.565734195873 433.94983486268484 L 355.37105713282904 433.99630139381304 L 355.175361924697 434.0418855693041 L 354.97866814083454 434.08658283077847 L 354.7809954504563 434.1303887085473 L 354.5823636206665 434.17329882205917 L 354.3827925144826 434.2153088803386 L 354.1823020888489 434.25641468241474 L 353.9809123926409 434.29661211774163 L 353.7786435646604 434.3358971666093 L 353.57551583162166 434.3742659005455 L 353.37154950612864 434.4117144827088 L 353.166764984644 434.4482391682723 L 352.9611827454492 434.4838363047979 L 352.7548233465968 434.51850233260143 L 352.54770742385483 434.55223378510914 L 352.33985568864284 434.5850272892039 L 352.13128892596126 434.6168795655625 L 351.92202799231245 434.647787428984 L 351.71209381361547 434.67774778870773 L 351.5015073831132 434.70675764872266 L 351.2902897592732 434.73481410806704 L 351.07846206368185 434.7619143611183 L 350.8660454789322 434.78805569787363 L 350.65306124650573 434.81323550422127 L 350.43953066464815 434.83745126220145 L 350.2254750862397 434.8607005502586 L 350.0109159166599 434.88298104348337 L 349.79587461164687 434.9042905138449 L 349.5803726751519 434.9246268304139 L 349.3644316571891 434.94398795957574 L 349.14807315168025 434.9623719652336 L 348.93131879429563 434.97977700900225 L 348.7141902602904 434.99620135039174 L 348.49670926233694 435.0116433469817 L 348.2788975483539 435.02610145458533 L 348.0607768993311 435.03957422740393 L 347.8423691271517 435.0520603181714 L 347.6236960724109 435.0635584782891 L 347.40477960223194 435.07406755795057 L 347.18564160807944 435.0835865062566 L 346.9663040035702 435.09211437132035 L 346.74678872228185 435.0996503003624 L 346.5271177155596 435.10619353979604 L 346.30731295032115 435.1117434353029 L 346.08739640685974 435.11629943189797 L 345.8673900766465 435.1198610739855 L 345.64731596013104 435.12242800540406 L 345.42719606454176 435.12399996946283 L 345.20705240168473 435.1245768089666 L 344.98690698574273 435.12415846623196 L 344.76678183107396 435.1227449830928 L 344.5466989500104 435.12033650089626 L 344.3266803506568 435.1169332604886 L 344.1067480346897 435.112535602191 L 343.8869239951575 435.10714396576554 L 343.66723021428083 435.1007588903715 L 343.44768866125486 435.093381014511 L 343.22832129005184 435.08501107596555 L 343.0091500372261 435.07564991172205 L 342.7901968197203 435.065298457889 L 342.5714835326737 435.0539577496032 L 342.35303204723283 435.04162892092614 L 342.1348642083641 435.0283132047303 L 341.9170018326696 435.01401193257624 L 341.6994667062054 434.99872653457925 L 341.4822805823028 434.98245853926636 L 341.26546517939323 434.96520957342364 L 341.0490421788363 434.9469813619332 L 340.8330332227518 434.92777572760104 L 340.6174599118552 434.9075945909746 L 340.40234380329804 434.88643997015066 L 340.1877064085118 434.8643139805738 L 339.9735691910572 434.8412188348244 L 339.75995356447754 434.81715684239794 L 339.5468808901574 434.79213040947343 L 339.33437247518674 434.7661420386734 L 339.12244957022983 434.73919432881337 L 338.91113336740074 434.7112899746417 L 338.7004449981435 434.68243176657063 L 338.4904055311195 434.65262259039696 L 338.2810359701005 434.6218654270134 L 338.072357251868 434.59016335211066 L 337.86439024412005 434.55751953586986 L 337.657155743384 434.5239372426454 L 337.4506744729373 434.4894198306386 L 337.24496708073497 434.4539707515619 L 337.04005413734467 434.41759355029365 L 336.83595613389014 434.3802918645237 L 336.6326934800015 434.3420694243896 L 336.43028650177484 434.30293005210336 L 336.2287554397393 434.2628776615697 L 336.0281204468331 434.2219162579943 L 335.8284015863884 434.18004993748326 L 335.6296188301248 434.1372828866339 L 335.4317920561522 434.0936193821156 L 335.23494104698324 434.0490637902424 L 335.0390854875547 434.0036205665364 L 334.8442449632594 433.95729425528214 L 334.6504389579874 433.91008948907205 L 334.45768685217763 433.8620109883434 L 334.2660079208801 433.8130635609063 L 334.07542133182824 433.7632521014626 L 333.88594614352206 433.7125815911169 L 333.6976013033226 433.6610570968778 L 333.5104056455568 433.6086837711519 L 333.32437788963455 433.5554668512281 L 333.13953663817637 433.5014116587541 L 332.95590037515336 433.446523599204 L 332.7734874640388 433.39080816133816 L 332.59231614597184 433.3342709166538 L 332.41240453793324 433.27691751882827 L 332.2337706309339 433.2187537031537 L 332.05643228821566 433.15978528596304 L 331.8804072434651 433.10001816404895 L 331.7057130990398 433.03945831407384 L 331.53236732420885 432.97811179197214 L 331.3603872534052 432.915984732345 L 331.18979008449253 432.8530833478466 L 331.02059287704566 432.789413928563 L 330.8528125506443 432.72498284138305 L 330.68646588318126 432.65979652936176 L 330.5215695091847 432.59386151107606 L 330.3581399181546 432.52718437997277 L 330.19619345291386 432.45977180370943 L 330.0357463079741 432.39163052348755 L 329.876814527916 432.32276735337837 L 329.7194140057852 432.2531891796414 L 329.5635604815028 432.18290296003624 L 329.40926954029123 432.11191572312606 L 329.2565566111161 432.04023456757557 L 329.10543696514304 431.96786666144044 L 328.9559257142107 431.89481924145105 L 328.80803780931967 431.82109961228855 L 328.66178803913715 431.7467151458544 L 328.51719102851825 431.6716732805333 L 328.3742612370435 431.59598152044913 L 328.2330129575731 431.51964743471495 L 328.09346031481715 431.44267865667564 L 327.95561726392367 431.3650828831449 L 327.8194975890829 431.2868678736354 L 327.6851149021489 431.20804144958294 L 327.5524826412783 431.1286114935642 L 327.4216140695867 431.0485859485086 L 327.29252227382227 430.967972816904 L 327.165220163057 430.88678015999636 L 327.0397204673958 430.80501609698365 L 326.9160357367037 430.72268880420415 L 326.7941783393507 430.6398065143184 L 326.674160460975 430.5563775154865 L 326.55599410326437 430.47241015053856 L 326.4396910827562 430.3879128161413 L 326.32526302965556 430.3028939619577 L 326.2127213866724 430.2173620898023 L 326.1020774078773 430.1313257527911 L 325.99334215757585 430.044793554486 L 325.8865265092025 429.9577741480348 L 325.7816411442331 429.8702762353056 L 325.6786965511167 429.78230856601675 L 325.5777030242268 429.69387993686195 L 325.4786706628321 429.60499919063034 L 325.381609370086 429.51567521532246 L 325.286528852037 429.4259169432615 L 325.19343861665766 429.33573335019975 L 325.1023479728939 429.2451334544215 L 325.0132660297342 429.1541263158407 L 324.92620169529874 429.0627210350954 L 324.8411636759483 428.97092675263764 L 324.75816047541394 428.87875264781894 L 324.67720039394663 428.7862079379732 L 324.598291527487 428.6933018774941 L 324.52144176685596 428.60004375691034 L 324.4466587969655 428.50644290195623 L 324.3739500960503 428.4125086726394 L 324.30332293491983 428.3182504623043 L 324.23478437623146 428.2236776966936 L 324.1683412737838 428.1287998330049 L 324.10400027183186 428.0336263589456 L 324.04176780442214 427.9381667917838 L 323.9816500947495 427.8424306773966 L 323.92365315453486 427.74642758931566 L 323.8677827834239 427.65016712776986 L 323.81404456840716 427.5536589187251 L 323.76244388326137 427.4569126129218 L 323.71298588801204 427.35993788491004 L 323.66567552841747 427.2627444320817 L 323.6205175354742 427.1653419737012 L 323.5775164249439 427.067740249933 L 323.5366764969018 426.96994902086834 L 323.4980018353067 426.87197806554855 L 323.4614963075924 426.7738371809875 L 323.4271635642814 426.67553618119194 L 323.3950070386193 426.5770848961798 L 323.36502994623197 426.47849317099775 L 323.3372352848036 426.3797708647359 L 323.31162583377727 426.2809278495428 L 323.2882041540766 426.18197400963754 L 323.26697258785015 426.0829192403216 L 323.2479332582368 425.9837734469894 L 323.23108806915366 425.8845465441377 L 323.21643870510553 425.785248454374 L 323.20398663101673 425.6858891074246 L 323.19373309208424 425.5864784391414 L 323.1856791136534 425.4870263905084 L 323.1798255011153 425.38754290664747 L 323.17617283982645 425.2880379358242 L 323.17472149504977 425.1885214284527" stroke-miterlimit="10" stroke-width="2.5633703640000003" stroke-dasharray=""/></g><g><g/><text fill="black" stroke="none" font-family="monospace" font-size="11pt" font-style="normal" font-weight="normal" text-decoration="normal" x="309.8942943554687" y="377.56937596800003" text-anchor="start" dominant-baseline="alphabetic" xml:space="preserve">Database</text></g></g><g><path fill="white" stroke="black" paint-order="fill stroke markers" d=" M 69.30597193886719 161.94469240799998 L 84.38462113886719 161.94469240799998 L 84.38462113886719 347.412077568 L 69.30597193886719 347.412077568 L 69.30597193886719 161.94469240799998" stroke-miterlimit="10" stroke-width="1.2565541" stroke-dasharray=""/><path fill="white" stroke="black" paint-order="fill stroke markers" d=" M 337.65019680624994 244.87726300799997 L 352.7288460062499 244.87726300799997 L 352.7288460062499 287.09748076799997 L 337.65019680624994 287.09748076799997 L 337.65019680624994 244.87726300799997" stroke-miterlimit="10" stroke-width="1.2565541" stroke-dasharray=""/><g><text fill="black" stroke="none" font-family="monospace" font-size="11pt" font-style="normal" font-weight="normal" text-decoration="normal" x="131.60314810830073" y="238.84580332799996" text-anchor="start" dominant-baseline="alphabetic" xml:space="preserve">clearOldAnalysis()</text></g><g><path fill="none" stroke="black" paint-order="fill stroke markers" d=" M 84.38462113886719 244.87726300799997 L 325.23544229824995 244.87726300799997" stroke-miterlimit="10" stroke-width="1.2565541" stroke-dasharray=""/><g transform="translate(337.65019680624994,244.87726300799997) translate(-337.65019680624994,-244.87726300799997)"><path fill="black" stroke="none" paint-order="stroke fill markers" d=" M 325.08465580624994 238.59449250799997 L 337.65019680624994 244.87726300799997 L 325.08465580624994 251.16003350799997 Z"/></g></g><g><text fill="black" stroke="none" font-family="monospace" font-size="11pt" font-style="normal" font-weight="normal" text-decoration="normal" x="180.13408530312495" y="281.06602108799996" text-anchor="start" dominant-baseline="alphabetic" xml:space="preserve">Success</text></g><g><path fill="none" stroke="black" paint-order="fill stroke markers" d=" M 337.65019680624994 287.09748076799997 L 96.79937564686719 287.09748076799997" stroke-miterlimit="10" stroke-width="1.2565541" stroke-dasharray="6.03145968"/><g transform="translate(84.38462113886719,287.09748076799997) translate(-84.38462113886719,-287.09748076799997)"><path fill="black" stroke="none" paint-order="stroke fill markers" d=" M 96.95016213886719 280.81471026799994 L 84.38462113886719 287.09748076799997 L 96.95016213886719 293.380251268 Z"/></g></g><g><g/><path fill="none" stroke="black" paint-order="fill stroke markers" d=" M 16.530699738867185 184.56266620799997 L 397.96479360624994 184.56266620799997 L 397.96479360624994 309.715454568 L 16.530699738867185 309.715454568 L 16.530699738867185 184.56266620799997 Z" stroke-miterlimit="10" stroke-width="2.154092742857143" stroke-dasharray=""/><path fill="white" stroke="black" paint-order="fill stroke markers" d=" M 16.530699738867185 184.56266620799997 L 16.530699738867185 202.65704524799997 L 74.90912850996094 202.65704524799997 L 83.95631802996094 193.60985572799996 L 83.95631802996094 184.56266620799997 L 16.530699738867185 184.56266620799997" stroke-miterlimit="10" stroke-width="2.154092742857143" stroke-dasharray=""/><text fill="black" stroke="none" font-family="monospace" font-size="8.8pt" font-style="normal" font-weight="bold" text-decoration="normal" x="31.609348938867186" y="196.62558556799996" text-anchor="start" dominant-baseline="alphabetic" xml:space="preserve">loop</text><text fill="black" stroke="none" font-family="monospace" font-size="8.8pt" font-style="normal" font-weight="bold" text-decoration="normal" x="99.03496722996094" y="196.62558556799996" text-anchor="start" dominant-baseline="alphabetic" xml:space="preserve">[for every n days]</text></g></g><g/><g/></g></svg>