<svg version="1.1" xmlns="http://www.w3.org/2000/svg" xmlns:xlink="http://www.w3.org/1999/xlink" width="416" height="483"><desc>%23%20-----%20font%20-----%0Afontfamily%20monospace%0A%0A%23%20-----%20setup%20components%20-----%0Atitle%20CLEAR%20OLD%20ANALYSIS%0Aparticipantgroup%20%23e4fcd9%20Backend%20API%0Acontrol%20%23red%3A0.7%20Report%20Service%0Aend%0A%0Adatabase%20Database%20%23pink%0A%0A%23%20-----%20to%20show%20bottom%20icons%20-----%0Abottomparticipants%0A%0A%23%20-----%20Activations%20-----%0Aactivate%20Database%0Aactivate%20Report%20Service%0A%0A%23%20-----%20START%20OF%20SEQUENCE%20-----%0Aloop%20for%20every%20n%20days%0AReport%20Service-%3EDatabase%3A%20clearOldAnalysis()%0AReport%20Service%3C--Database%3A%20success%0Aend%0A%23%20-----%20END%20OF%20SEQUENCE%20-----%0A%0A</desc><defs/><g><g/><g/><g/><g><rect fill="white" stroke="none" x="0" y="0" width="416" height="483"/></g><g><text fill="black" stroke="none" font-family="monospace" font-size="16.5pt" font-style="normal" font-weight="normal" text-decoration="normal" x="99.43044636285805" y="22.617973800000005" text-anchor="start" dominant-baseline="alphabetic" xml:space="preserve">CLEAR OLD ANALYSIS</text></g><g><g><path fill="#e4fcd9" stroke="black" paint-order="fill stroke markers" d=" M 17.0874706361328 48.50927103050001 L 146.26456236386719 48.50927103050001 L 146.26456236386719 474.876925472 L 17.0874706361328 474.876925472 L 17.0874706361328 48.50927103050001" stroke-miterlimit="10" stroke-width="1.3612669416666667" stroke-dasharray=""/></g><g><text fill="black" stroke="none" font-family="monospace" font-size="11pt" font-style="normal" font-weight="normal" text-decoration="normal" x="37.34527461767577" y="70.24765696050001" text-anchor="start" dominant-baseline="alphabetic" xml:space="preserve">Backend API</text></g></g><g><path fill="none" stroke="black" paint-order="fill stroke markers" d=" M 81.67601649999999 162.497576212 L 81.67601649999999 384.656341092" stroke-miterlimit="10" stroke-width="1.3612669416666667" stroke-dasharray="12.565541,5.445067766666667"/><path fill="none" stroke="black" paint-order="fill stroke markers" d=" M 334.9075324757161 162.497576212 L 334.9075324757161 384.656341092" stroke-miterlimit="10" stroke-width="1.3612669416666667" stroke-dasharray="12.565541,5.445067766666667"/></g><g><g><path fill="white" stroke="red" paint-order="fill stroke markers" d=" M 105.9337934005 116.872096841 A 24.2577769005 24.2577769005 0 1 1 105.93378127161255 116.84783906814245 M 78.40897583999998 92.6143199405 L 88.21009781999999 84.4467182905 M 78.40897583999998 92.6143199405 L 88.21009781999999 100.78192159049999" stroke-miterlimit="10" stroke-width="1.9438891927000002" stroke-dasharray=""/></g><g><g/><text fill="black" stroke="none" font-family="monospace" font-size="11pt" font-style="normal" font-weight="normal" text-decoration="normal" x="25.2550722861328" y="157.597015222" text-anchor="start" dominant-baseline="alphabetic" xml:space="preserve">Report Service</text></g><g><path fill="pink" stroke="black" paint-order="fill stroke markers" d=" M 311.0581356577161 131.737131844 L 311.0581356577161 97.43320491400002 L 358.7569292937161 97.43320491400002 L 358.7569292937161 131.737131844" stroke-miterlimit="10" stroke-width="2.7769845610000004" stroke-dasharray=""/><path fill="pink" stroke="black" paint-order="fill stroke markers" d=" M 358.7569292937161 96.24073507310001 L 358.7557368338124 96.34854561801663 L 358.7521595733464 96.4563453819686 L 358.746197870041 96.56412358506937 L 358.7378523200617 96.67186944958841 L 358.72712375795646 96.7795722010291 L 358.7140132565726 96.88722106920602 L 358.6985221269494 96.99480528932206 L 358.68065191818675 97.10231410304486 L 358.66040441729075 97.20973675958267 L 358.6377816489946 97.31706251675931 L 358.61278587555626 97.42428064208853 L 358.58541959653223 97.53138041384713 L 358.5556855485276 97.6383511221472 L 358.5235867049225 97.74518207000703 L 358.4891262755744 97.85186257442088 L 358.45230770649755 97.95838196742719 L 358.41313467951824 98.06472959717544 L 358.3716111119065 98.17089482899127 L 358.3277411559844 98.27686704643997 L 358.28152919871116 98.38263565238812 L 358.23297986124385 98.48819007006324 L 358.18209799847574 98.59351974411153 L 358.1288886985508 98.69861414165338 L 358.07335728235466 98.8034627533366 L 358.0155093029826 98.9080550943874 L 357.95535054518444 99.01238070565881 L 357.89288702478575 99.11642915467668 L 357.8281249880866 99.2201900366828 L 357.76107091123663 99.32365297567542 L 357.6917314995876 99.42680762544687 L 357.62011368702304 99.52964367061814 L 357.54622463526437 99.63215082767042 L 357.4700717331553 99.73431884597339 L 357.39166259592247 99.8361375088104 L 357.3110050644144 99.9375966344 L 357.2281072043169 100.03868607691416 L 357.142977305347 100.1393957274929 L 357.05562388042364 100.23971551525507 L 356.96605566481645 100.3396354083055 L 356.8742816152724 100.43914541473814 L 356.78031090912 100.53823558363528 L 356.6841529433515 100.63689600606261 L 356.5858173336833 100.73511681606011 L 356.4853139135945 100.83288819162861 L 356.3826527333433 100.93020035571203 L 356.27784405896233 101.02704357717508 L 356.1708983712315 101.12340817177629 L 356.0618263646305 101.2192845031365 L 355.9506389462692 101.3146629837025 L 355.83734723479665 101.40953407570571 L 355.72196255928964 101.50388829211596 L 355.6044964581196 101.59771619759026 L 355.4849606777987 101.69100840941624 L 355.36336717180546 101.78375559845048 L 355.239728099389 101.87594849005134 L 355.11405582435367 101.96757786500652 L 354.9863629138222 102.05863456045485 L 354.8566621369792 102.14910947080267 L 354.7249664637943 102.23899354863435 L 354.59128906372507 102.32827780561702 L 354.4556433044001 102.41695331339938 L 354.3180427502823 102.50501120450453 L 354.1785011613124 102.59244267321675 L 354.037032491533 102.67923897646203 L 353.8936508876933 102.76539143468239 L 353.74837068783404 102.85089143270376 L 353.6012064198543 102.93573042059764 L 353.45217280005807 103.0198999145359 L 353.30128473168327 103.10339149763931 L 353.14855730341094 103.18619682081912 L 352.9940057878566 103.26830760361203 L 352.8376456400431 103.34971563500818 L 352.6794924958549 103.43041277427227 L 352.51956217047456 103.51039095175761 L 352.3578706568014 103.58964216971313 L 352.19443412385203 103.66815850308305 L 352.0292689151436 103.74593210029946 L 351.86239154705925 103.82295518406747 L 351.6938187071967 103.89922005214288 L 351.52356725269965 103.97471907810242 L 351.35165420857146 104.04944471210644 L 351.1780967659734 104.12338948165379 L 351.0029122805051 104.19654599232915 L 350.82611827046907 104.26890692854239 L 350.647732415119 104.34046505426022 L 350.4677725528918 104.4112132137297 L 350.2862566796237 104.4811443321938 L 350.10320294675074 104.55025141659898 L 349.9186296594937 104.6185275562944 L 349.73255527502755 104.68596592372296 L 349.54499840063556 104.75255977510412 L 349.35597779184894 104.81830245110825 L 349.165512350571 104.88318737752253 L 348.9736211231873 104.94720806590838 L 348.78032329866045 105.01035811425034 L 348.5856382066119 105.07263120759616 L 348.38958531538873 105.13402111868842 L 348.19218423011654 105.19452170858717 L 347.99345469073944 105.25412692728385 L 347.79341657004574 105.31283081430622 L 347.5920898716808 105.37062749931455 L 347.3894947281467 105.42751120268846 L 347.185651398789 105.48347623610503 L 346.9805802677706 105.53851700310757 L 346.77430184203394 105.59262799966524 L 346.5668367492496 105.64580381472345 L 346.3582057357539 105.69803913074504 L 346.1484296644744 105.74932872424193 L 345.93752951284347 105.7996674662975 L 345.7255263707004 105.84905032307951 L 345.5124414381828 105.89747235634343 L 345.2982960236063 105.94492872392627 L 345.08311154133406 105.99141468023082 L 344.8669095096348 106.03692557670021 L 344.6497115485317 106.08145686228269 L 344.43153937763964 106.12500408388684 L 344.21241481399414 106.16756288682677 L 343.9923597698688 106.20912901525766 L 343.7713962505847 106.2496983126013 L 343.5495463523097 106.28926672196175 L 343.32683225984863 106.32783028653108 L 343.1032762444252 106.36538514998495 L 342.87890066145474 106.4019275568683 L 342.6537279483085 106.43745385297092 L 342.42778062207003 106.47196048569278 L 342.20108127728383 106.50544400439938 L 341.9736525836954 106.53790106076674 L 341.7455172839846 106.56932840911628 L 341.5166981914913 106.59972290673934 L 341.28721818793406 106.62908151421152 L 341.0571002211219 106.6574012956965 L 340.8263673026599 106.68467941923974 L 340.5950425056475 106.71091315705164 L 340.3631489623717 106.73609988578026 L 340.1307098619936 106.76023708677371 L 339.89774844822944 106.78332234633203 L 339.6642880170266 106.80535335594848 L 339.43035191423354 106.82632791254046 L 339.1959635332656 106.8462439186698 L 338.9611463127656 106.86509938275248 L 338.72592373425994 106.88289241925779 L 338.4903193198104 106.89962124889692 L 338.2543566296621 106.91528419880086 L 338.01805925988737 106.92987970268764 L 337.7814508400263 106.94340630101907 L 337.5445550307238 106.95586264114657 L 337.3073955213633 106.96724747744649 L 337.06999602769804 106.97755967144472 L 336.8323802894797 106.98679819193043 L 336.594572068084 106.9949621150593 L 336.35659514413493 107.00205062444579 L 336.11847331512655 107.00806301124487 L 335.88023039304335 107.01299867422289 L 335.64189020197904 107.01685711981764 L 335.403476575754 107.0196379621878 L 335.16501335553227 107.02134092325144 L 334.9265243874371 107.02196583271387 L 334.68803352016664 107.02151262808466 L 334.44956460260875 107.01998135468392 L 334.2111414814566 107.0173721656377 L 333.9727879988235 107.01368532186271 L 333.73452798985915 107.00892119204028 L 333.4963852803659 107.00308025257941 L 333.25838368441623 106.99616308756919 L 333.0205470019714 106.98817038872035 L 332.78289901650146 106.9791029552961 L 332.5454634926069 106.96896169403226 L 332.3082641736423 106.95774761904647 L 332.07132477934186 106.94546185173691 L 331.8346690034476 106.93210562067006 L 331.59832051133975 106.91768026145789 L 331.36230293767073 106.90218721662433 L 331.1266398840012 106.88562803546091 L 330.89135491644004 106.86800437387197 L 330.656471563288 106.84931799420899 L 330.4220133126847 106.82957076509436 L 330.1880036102598 106.80876466123452 L 329.9544658567885 106.78690176322253 L 329.7214234058515 106.76398425732997 L 329.4888995614998 106.74001443528833 L 329.25691757592404 106.71499469405985 L 329.0255006471294 106.6889275355978 L 328.79467191661587 106.66181556659627 L 328.5644544670643 106.63366149822963 L 328.3348713200277 106.6044681458812 L 328.1059454336295 106.57423842886192 L 327.87769970026744 106.54297537011827 L 327.6501569443248 106.5106820959301 L 327.42333991988755 106.4773618355979 L 327.197271308469 106.44301792111996 L 326.97197371674207 106.40765378685909 L 326.747469674278 106.37127296919923 L 326.5237816312941 106.33387910619186 L 326.3009319564082 106.29547593719211 L 326.0789429344021 106.25606730248487 L 325.85783676399296 106.21565714290077 L 325.63763555561366 106.17424949942209 L 325.4183613292014 106.13184851277869 L 325.20003601199625 106.08845842303388 L 324.9826814363479 106.0440835691605 L 324.76631933753276 105.99872838860693 L 324.55097135158053 105.95239741685346 L 324.33665901311025 105.90509528695863 L 324.1234037531772 105.85682672909601 L 323.9112268971296 105.80759657008119 L 323.70014966247635 105.75740973288903 L 323.490193156765 105.70627123616141 L 323.2813783754711 105.65418619370543 L 323.0737261998988 105.6011598139819 L 322.86725739509257 105.54719739958459 L 322.6619926077609 105.49230434671 L 322.45795236421145 105.43648614461767 L 322.25515706829856 105.37974837508128 L 322.05362699938274 105.32209671183053 L 321.85338231030306 105.26353691998366 L 321.65444302536145 105.20407485547109 L 321.45682903832073 105.14371646444971 L 321.2605601104148 105.0824677827083 L 321.06565586837297 105.02033493506404 L 320.8721358024571 104.95732413474988 L 320.68001926451234 104.89344168279337 L 320.4893254660325 104.82869396738644 L 320.3000734762385 104.76308746324669 L 320.1122822201716 104.69662873096988 L 319.92597047680096 104.62932441637382 L 319.74115687714556 104.56118124983391 L 319.55785990241145 104.49220604561 L 319.3760978821433 104.42240570116505 L 319.1958889923917 104.35178719647531 L 319.01725125389544 104.28035759333244 L 318.8402025302795 104.20812403463721 L 318.6647605262687 104.13509374368529 L 318.4909427859173 104.06127402344492 L 318.3187666908544 103.98667225582662 L 318.148249458546 103.91129590094496 L 317.97940814057336 103.83515249637263 L 317.8122596209275 103.75824965638664 L 317.6468206143211 103.6805950712069 L 317.483107664517 103.6021965062272 L 317.32113714267365 103.52306180123873 L 317.1609252457083 103.44319886964601 L 317.00248799467727 103.3626156976757 L 316.8458412331734 103.28132034357779 L 316.6910006257425 103.19932093681997 L 316.5379816563162 103.11662567727458 L 316.38679962666396 103.03324283439866 L 316.2374696548627 102.94918074640702 L 316.0900066737852 102.86444781943841 L 315.9444254296066 102.7790525267149 L 315.80074048033015 102.6930034076946 L 315.65896619433096 102.60630906721774 L 315.5191167489195 102.51897817464607 L 315.38120612892374 102.4310194629961 L 315.2452481252908 102.3424417280657 L 315.1112563337077 102.25325382755454 L 314.97924415324195 102.16346468017835 L 314.8492247850016 102.07308326477704 L 314.72121123081513 101.98211861941685 L 314.59521629193125 101.89057984048648 L 314.4712525677389 101.79847608178757 L 314.34933245450713 101.70581655361923 L 314.22946814414576 101.61261052185705 L 314.11167162298585 101.51886730702655 L 313.9959546705814 101.42459628337107 L 313.8823288585312 101.32980687791445 L 313.7708055493218 101.23450856951823 L 313.6613958951911 101.13871088793383 L 313.55411083701347 101.04242341284956 L 313.4489611032052 100.94565577293272 L 313.34595720865207 100.84841764486666 L 313.2451094536578 100.75071875238314 L 313.14642792291374 100.65256886529 L 313.04992248449076 100.55397779849415 L 312.95560278885233 100.45495541102012 L 312.8634782678893 100.35551160502415 L 312.77355813397713 100.25565632480394 L 312.6858513790542 100.15539955580432 L 312.60036677372295 100.05475132361865 L 312.5171128663726 99.95372169298625 L 312.4360979823246 99.85232076678601 L 312.35733022299985 99.75055868502605 L 312.2808174651085 99.64844562382973 L 312.20656735986273 99.5459917944181 L 312.13458733221114 99.4432074420887 L 312.06488458009653 99.34010284519113 L 311.997466073736 99.23668831409914 L 311.932338554924 99.13297419017968 L 311.8695085363581 99.02897084475869 L 311.8089823009879 98.92468867808407 L 311.75076590138644 98.82013811828556 L 311.69486515914514 98.71532962033203 L 311.64128566429173 98.61027366498594 L 311.59003277473096 98.50498075775526 L 311.5411116157091 98.39946142784298 L 311.4945270793013 98.29372622709415 L 311.4502838239223 98.18778572894077 L 311.4083862738609 98.08165052734432 L 311.3688386188371 97.97533123573653 L 311.3316448135835 97.868838485958 L 311.2968085774496 97.7621829271949 L 311.26433339403 97.65537522491428 L 311.234222510816 97.54842605979732 L 311.2064789388707 97.44134612667145 L 311.18110545252836 97.33414613344073 L 311.15810458911636 97.22683680001514 L 311.13747864870186 97.1194288572386 L 311.11922969386177 97.0119330458159 L 311.10335954947635 96.90436011523857 L 311.08986980254684 96.79672082271007 L 311.07876180203664 96.68902593206992 L 311.0700366587365 96.58128621271746 L 311.0636952451536 96.47351243853481 L 311.05973819542396 96.36571538680961 L 311.05816590524927 96.25790583715718 L 311.05897853185724 96.15009457044266 L 311.0621759939858 96.04229236770287 L 311.0677579718915 95.93451000906825 L 311.0757239073812 95.82675827268484 L 311.0860730038679 95.7190479336365 L 311.0988042264507 95.61138976286738 L 311.1139163020178 95.50379452610481 L 311.13140771937435 95.39627298278283 L 311.1512767293932 95.28883588496618 L 311.17352134518984 95.18149397627508 L 311.19813934232127 95.07425799081098 L 311.2251282590083 94.96713865208302 L 311.2544853963817 94.86014667193587 L 311.28620781875225 94.75329274947832 L 311.32029235390405 94.64658757001362 L 311.35673559341217 94.54004180397077 L 311.3955338929828 94.43366610583759 L 311.43668337281855 94.32747111309526 L 311.48017991800555 94.22146744515454 L 311.52601917892565 94.1156657022939 L 311.57419657169083 94.01007646459945 L 311.6247072786021 93.90471029090699 L 311.67754624863073 93.79957771774606 L 311.73270819792384 93.69468925828637 L 311.79018761033245 93.59005540128646 L 311.84997873796317 93.48568661004485 L 311.91207560175314 93.38159332135368 L 311.9764719920677 93.27778594445506 L 312.04316146932143 93.1742748600002 L 312.1121373646222 93.07107041901128 L 312.18339278043806 92.96818294184638 L 312.25692059128664 92.86562271716748 L 312.33271344444825 92.7634000009116 L 312.4107637607007 92.66152501526518 L 312.49106373507743 92.56000794764186 L 312.5736053376479 92.45885894966383 L 312.6583803143206 92.35808813614659 L 312.74538018766856 92.25770558408753 L 312.8345962577769 92.15772133165818 L 312.92601960311305 92.05814537720047 L 313.0196410814185 91.95898767822688 L 313.1154513306236 91.86025815042466 L 313.2134407697832 91.76196666666432 L 313.313599600035 91.66412305601233 L 313.4159178055795 91.56673710274822 L 313.52038515468143 91.46981854538616 L 313.6269912006929 91.37337707570111 L 313.7357252830981 91.2774223377597 L 313.8465765285795 91.18196392695573 L 313.9595338521048 91.08701138905076 L 314.07458595803587 90.99257421921942 L 314.191721341258 90.89866186110004 L 314.3109282883305 90.80528370585013 L 314.4321948786579 90.71244909120742 L 314.5555089856823 90.620167300556 L 314.68085827809574 90.52844756199806 L 314.8082302210735 90.437299047431 L 314.93761207752726 90.34673087163033 L 315.0689909093793 90.25675209133814 L 315.202353578856 90.1673717043575 L 315.3376867498014 90.07859864865262 L 315.4749768890112 89.99044180145509 L 315.614210267586 89.90290997837616 L 315.75537296230385 89.81601193252519 L 315.89845085701296 89.72975635363437 L 316.0434296440431 89.64415186718969 L 316.1902948256364 89.55920703356847 L 316.3390317153971 89.47493034718329 L 316.48962543976006 89.39133023563254 L 316.6420609394784 89.30841505885772 L 316.79632297112926 89.22619310830741 L 316.9523961086379 89.14467260610814 L 317.11026474482065 89.06386170424221 L 317.26991309294556 88.98376848373246 L 317.4313251883108 88.9044009538342 L 317.5944848898412 88.82576705123427 L 317.7593758817028 88.7478746392574 L 317.92598167493367 88.67073150707989 L 318.0942856090934 88.59434536895068 L 318.2642708539288 88.5187238634199 L 318.435920411057 88.4438745525751 L 318.60921711566544 88.369804921285 L 318.78414363822793 88.29652237645098 L 318.9606824862381 88.22403424626648 L 319.1388160059582 88.1523477794841 L 319.31852638418474 88.08147014469078 L 319.4997956500296 88.01140842959094 L 319.68260567671734 87.94216964029769 L 319.86693818339756 87.87376070063229 L 320.0527747369732 87.80618845143167 L 320.2400967539438 87.73945964986444 L 320.4288855022638 87.67358096875519 L 320.6191221032156 87.60855899591708 L 320.81078753329774 87.54440023349323 L 321.0038626261268 87.48111109730644 L 321.1983280743545 87.41869791621755 L 321.394164431598 87.35716693149269 L 321.5913521143849 87.29652429617903 L 321.78987140411107 87.23677607448957 L 321.9897024490131 87.17792824119671 L 322.19082526615296 87.11998668103473 L 322.3932197434165 87.06295718811135 L 322.5968656415248 87.00684546532835 L 322.80174259605764 86.95165712381124 L 323.0078301194903 86.89739768234818 L 323.2151076032422 86.84407256683812 L 323.4235543197377 86.79168710974815 L 323.63314942447886 86.74024654958035 L 323.84387195812985 86.68975603034785 L 324.0557008486129 86.64022060106049 L 324.2686149132155 86.59164521521994 L 324.4825928607086 86.5440347303243 L 324.6976132934758 86.49739390738237 L 324.913654709653 86.4517274104376 L 325.1306955052786 86.40703980610161 L 325.3487139764539 86.3633355630976 L 325.5676883215134 86.32061905181345 L 325.78759664320523 86.27889454386471 L 326.00841695088036 86.23816621166738 L 326.2301271626921 86.19843812802074 L 326.452705107804 86.15971426570005 L 326.67612852860697 86.12199849705928 L 326.9003750829452 86.08529459364387 L 327.1254223463501 86.04960622581356 L 327.35124781428283 86.0149369623754 L 327.57782890438483 85.98129027022685 L 327.8051429587359 85.94866951400907 L 328.03316724612006 85.91707795577051 L 328.26187896429855 85.88651875464066 L 328.49125524229015 85.85699496651418 L 328.7212731426582 85.82850954374526 L 328.95190966380443 85.80106533485245 L 329.1831417422688 85.77466508423377 L 329.41494625503617 85.7493114318923 L 329.6473000218485 85.7250069131721 L 329.88017980752267 85.70175395850482 L 330.11356232427426 85.67955489316655 L 330.347424234046 85.65841193704532 L 330.5817421508419 85.63832720441913 L 330.8164926430654 85.61930270374448 L 331.05165223586295 85.60134033745561 L 331.28719741347135 85.58444190177417 L 331.52310462156896 85.56860908652965 L 331.7593502696317 85.55384347499039 L 331.9959107332915 85.5401465437052 L 332.23276235669925 85.52751966235584 L 332.46988145488996 85.51596409361991 L 332.70724431615133 85.50548099304464 L 332.94482720439515 85.49607140893136 L 333.1826063615305 85.48773628223064 L 333.4205580098398 85.48047644644821 L 333.65865835435653 85.4742926275616 L 333.8968835852447 85.46918544394751 L 334.13520988017973 85.4651554063201 L 334.37361340673067 85.46220291767973 L 334.6120703247436 85.46032827327284 L 334.85055678872544 85.45953166056228 L 335.08904895022846 85.45981315920866 L 335.32752296023534 85.46117274106237 L 335.5659549715437 85.46361027016634 L 335.8043211411512 85.4671255027697 L 336.04259763263946 85.47171808735212 L 336.2807606185579 85.47738756465895 L 336.51878628280645 85.4841333677472 L 336.75665082301697 85.49195482204219 L 336.9943304529337 85.500851145405 L 337.23180140479167 85.51082144821069 L 337.46903993169366 85.52186473343731 L 337.70602230998463 85.53397989676554 L 337.94272484162417 85.54716572668913 L 338.17912385655654 85.5614209046361 L 338.41519571507706 85.5767440051005 L 338.65091681019675 85.59313349578507 L 338.8862635700024 85.6105877377544 L 339.1212124600143 85.62910498559884 L 339.3557399855391 85.64868338760904 L 339.58982269401974 85.66932098596111 L 339.82343717738047 85.6910157169124 L 340.0565600743676 85.71376541100791 L 340.28916807288573 85.73756779329719 L 340.5212379123288 85.76242048356184 L 340.7527463859063 85.78832099655354 L 340.98367034296376 85.81526674224258 L 341.2139866912979 85.84325502607685 L 341.4436723994659 85.87228304925127 L 341.67270449908824 85.90234790898774 L 341.90106008714594 85.93344659882531 L 342.12871632827034 85.96557600892095 L 342.35565045702714 85.99873292636039 L 342.5818397801926 86.03291403547954 L 342.80726167902276 86.06811591819596 L 343.0318936115157 86.10433505435071 L 343.2557131146654 86.14156782206037 L 343.47869780670794 86.17981049807918 L 343.70082538936003 86.21905925817143 L 343.92207365004845 86.25931017749379 L 344.14242046413153 86.30055923098789 L 344.36184379711153 86.34280229378275 L 344.5803217068379 86.3860351416073 L 344.7978323457018 86.43025345121276 L 345.0143539628206 86.47545280080504 L 345.229864906213 86.52162867048685 L 345.4443436249643 86.56877644270969 L 345.6577686713813 86.61689140273562 L 345.8701187031372 86.66596873910875 L 346.08137248540584 86.71600354413634 L 346.29150889298506 86.76699081437957 L 346.5005069124091 86.81892545115392 L 346.70834564405027 86.87180226103897 L 346.9150043042086 86.9256159563978 L 347.1204622271903 86.98036115590575 L 347.3246988673742 87.03603238508846 L 347.5276938012666 87.0926240768694 L 347.72942672954315 87.15013057212657 L 347.9298774790792 87.20854612025836 L 348.1290260049669 87.26786487975863 L 348.32685239251947 87.32808091880088 L 348.5233368592631 87.38918821583137 L 348.7184597569149 87.45118066017132 L 348.9122015733476 87.51405205262795 L 349.1045429345411 87.57779610611442 L 349.29546460651943 87.6424064462785 L 349.4849474972747 87.70787661214001 L 349.6729726586755 87.77420005673692 L 349.8595212883626 87.84137014778005 L 350.0445747316283 87.90938016831626 L 350.22811448328264 87.97822331740018 L 350.4101221895033 88.04789271077426 L 350.5905796496714 88.11838138155724 L 350.76946881819117 88.18968228094076 L 350.94677180629503 88.2617882788943 L 351.12247088383174 88.33469216487818 L 351.29654848104013 88.40838664856452 L 351.46898719030537 88.48286436056638 L 351.63976976790036 88.55811785317462 L 351.8088791357096 88.6341396011027 L 351.9762983829373 88.71092200223917 L 352.1420107677981 88.7884573784079 L 352.30599971919185 88.8667379761359 L 352.46824883835984 88.9457559674286 L 352.6287419005254 89.02550345055275 L 352.7874628565162 89.10597245082647 L 352.9443958343688 89.1871549214168 L 353.09952514091617 89.26904274414436 L 353.2528352633569 89.35162773029508 L 353.4043108708067 89.43490162143917 L 353.55393681583087 89.51885609025692 L 353.70169813595965 89.60348274137141 L 353.8475800551841 89.68877311218804 L 353.99156798543396 89.77471867374081 L 354.1336475280362 89.8613108315452 L 354.27380447515486 89.94854092645757 L 354.4120248112121 90.03640023554112 L 354.5482947142895 90.12487997293817 L 354.6826005575103 90.2139712907487 L 354.81492891040205 90.3036652799152 L 354.9452665402398 90.39395297111345 L 355.07360041336915 90.48482533564962 L 355.1999176965097 90.57627328636293 L 355.3242057580385 90.66828767853457 L 355.44645216925284 90.76085931080198 L 355.56664470561356 90.85397892607905 L 355.68477134796717 90.94763721248188 L 355.8008202837479 91.04182480425987 L 355.9147799081588 91.13653228273235 L 356.0266388253324 91.23175017723037 L 356.1363858494703 91.32746896604384 L 356.2440100059614 91.42367907737363 L 356.3495005324799 91.5203708902888 L 356.4528468800609 91.61753473568862 L 356.5540387141559 91.71516089726953 L 356.6530659156657 91.81323961249673 L 356.7499185819528 91.91176107358042 L 356.8445870278311 92.01071542845659 L 356.9370617865351 92.11009278177222 L 357.02733361066583 92.20988319587481 L 357.11539347311617 92.31007669180607 L 357.2012325679733 92.41066325029993 L 357.2848423113992 92.51163281278436 L 357.36621434248923 92.61297528238724 L 357.4453405241081 92.71468052494606 L 357.52221294370355 92.81673837002134 L 357.59682391409774 92.9191386119136 L 357.66916597425575 93.02187101068398 L 357.7392318900319 93.12492529317824 L 357.8070146548929 93.22829115405399 L 357.8725074906189 93.33195825681128 L 357.9357038479808 93.43591623482622 L 357.99659740739554 93.54015469238766 L 358.05518207955794 93.64466320573669 L 358.1114520060496 93.74943132410907 L 358.16540155992476 93.85444857078026 L 358.217025346273 93.95970444411313 L 358.26631820275867 94.06518841860805 L 358.31327520013724 94.17088994595545 L 358.35789164274814 94.27679845609072 L 358.40016306898417 94.38290335825107 L 358.440085251738 94.48919404203473 L 358.47765419882467 94.59565987846186 L 358.51286615338074 94.70229022103757 L 358.54571759424005 94.80907440681646 L 358.57620523628594 94.91600175746893 L 358.6043260307796 95.02306158034904 L 358.630077165665 95.13024316956367 L 358.65345606585015 95.23753580704327 L 358.67446039346447 95.34492876361347 L 358.69308804809276 95.4524113000681 L 358.709337166985 95.55997266824312 L 358.72320612524294 95.66760211209133 L 358.7346935359822 95.77528886875801 L 358.74379825047134 95.88302216965727 L 358.7505193582465 95.99079124154878 L 358.7548561872025 96.09858530761515 L 358.7568083036601 96.20639358853963 M 358.7569292937161 130.5446620031 L 358.7557368338124 130.65247254801662 L 358.7521595733464 130.7602723119686 L 358.746197870041 130.86805051506934 L 358.7378523200617 130.97579637958842 L 358.72712375795646 131.08349913102907 L 358.7140132565726 131.191147999206 L 358.6985221269494 131.29873221932203 L 358.68065191818675 131.40624103304486 L 358.66040441729075 131.51366368958264 L 358.6377816489946 131.6209894467593 L 358.61278587555626 131.7282075720885 L 358.58541959653223 131.83530734384712 L 358.5556855485276 131.94227805214717 L 358.5235867049225 132.049109000007 L 358.4891262755744 132.15578950442085 L 358.45230770649755 132.26230889742718 L 358.41313467951824 132.36865652717543 L 358.3716111119065 132.47482175899125 L 358.3277411559844 132.58079397643996 L 358.28152919871116 132.6865625823881 L 358.23297986124385 132.79211700006323 L 358.18209799847574 132.89744667411154 L 358.1288886985508 133.00254107165338 L 358.07335728235466 133.10738968333658 L 358.0155093029826 133.2119820243874 L 357.95535054518444 133.3163076356588 L 357.89288702478575 133.42035608467668 L 357.8281249880866 133.52411696668278 L 357.76107091123663 133.62757990567542 L 357.6917314995876 133.73073455544687 L 357.62011368702304 133.83357060061815 L 357.54622463526437 133.9360777576704 L 357.4700717331553 134.0382457759734 L 357.39166259592247 134.14006443881038 L 357.3110050644144 134.24152356439998 L 357.2281072043169 134.34261300691415 L 357.142977305347 134.44332265749287 L 357.05562388042364 134.54364244525505 L 356.96605566481645 134.6435623383055 L 356.8742816152724 134.74307234473812 L 356.78031090912 134.8421625136353 L 356.6841529433515 134.9408229360626 L 356.5858173336833 135.0390437460601 L 356.4853139135945 135.1368151216286 L 356.3826527333433 135.23412728571202 L 356.27784405896233 135.33097050717507 L 356.1708983712315 135.42733510177626 L 356.0618263646305 135.5232114331365 L 355.9506389462692 135.6185899137025 L 355.83734723479665 135.71346100570568 L 355.72196255928964 135.80781522211595 L 355.6044964581196 135.90164312759026 L 355.4849606777987 135.99493533941623 L 355.36336717180546 136.08768252845047 L 355.239728099389 136.17987542005133 L 355.11405582435367 136.2715047950065 L 354.9863629138222 136.36256149045482 L 354.8566621369792 136.45303640080266 L 354.7249664637943 136.54292047863436 L 354.59128906372507 136.63220473561702 L 354.4556433044001 136.72088024339936 L 354.3180427502823 136.8089381345045 L 354.1785011613124 136.89636960321673 L 354.037032491533 136.98316590646203 L 353.8936508876933 137.06931836468237 L 353.74837068783404 137.15481836270376 L 353.6012064198543 137.23965735059764 L 353.45217280005807 137.3238268445359 L 353.30128473168327 137.4073184276393 L 353.14855730341094 137.49012375081912 L 352.9940057878566 137.57223453361203 L 352.8376456400431 137.65364256500817 L 352.6794924958549 137.73433970427226 L 352.51956217047456 137.8143178817576 L 352.3578706568014 137.89356909971312 L 352.19443412385203 137.97208543308304 L 352.0292689151436 138.04985903029944 L 351.86239154705925 138.12688211406746 L 351.6938187071967 138.20314698214287 L 351.52356725269965 138.2786460081024 L 351.35165420857146 138.35337164210642 L 351.1780967659734 138.42731641165378 L 351.0029122805051 138.50047292232912 L 350.82611827046907 138.5728338585424 L 350.647732415119 138.6443919842602 L 350.4677725528918 138.71514014372968 L 350.2862566796237 138.78507126219378 L 350.10320294675074 138.85417834659899 L 349.9186296594937 138.92245448629438 L 349.73255527502755 138.98989285372295 L 349.54499840063556 139.0564867051041 L 349.35597779184894 139.12222938110824 L 349.165512350571 139.18711430752253 L 348.9736211231873 139.2511349959084 L 348.78032329866045 139.3142850442503 L 348.5856382066119 139.37655813759613 L 348.38958531538873 139.4379480486884 L 348.19218423011654 139.49844863858718 L 347.99345469073944 139.55805385728382 L 347.79341657004574 139.61675774430623 L 347.5920898716808 139.67455442931453 L 347.3894947281467 139.73143813268845 L 347.185651398789 139.78740316610504 L 346.9805802677706 139.84244393310757 L 346.77430184203394 139.89655492966523 L 346.5668367492496 139.94973074472344 L 346.3582057357539 140.00196606074505 L 346.1484296644744 140.05325565424192 L 345.93752951284347 140.1035943962975 L 345.7255263707004 140.1529772530795 L 345.5124414381828 140.20139928634342 L 345.2982960236063 140.24885565392626 L 345.08311154133406 140.29534161023082 L 344.8669095096348 140.3408525067002 L 344.6497115485317 140.38538379228268 L 344.43153937763964 140.42893101388682 L 344.21241481399414 140.47148981682676 L 343.9923597698688 140.51305594525763 L 343.7713962505847 140.55362524260127 L 343.5495463523097 140.59319365196174 L 343.32683225984863 140.63175721653107 L 343.1032762444252 140.66931207998493 L 342.87890066145474 140.7058544868683 L 342.6537279483085 140.7413807829709 L 342.42778062207003 140.77588741569278 L 342.20108127728383 140.80937093439937 L 341.9736525836954 140.84182799076672 L 341.7455172839846 140.87325533911627 L 341.5166981914913 140.90364983673933 L 341.28721818793406 140.9330084442115 L 341.0571002211219 140.9613282256965 L 340.8263673026599 140.98860634923975 L 340.5950425056475 141.01484008705162 L 340.3631489623717 141.04002681578024 L 340.1307098619936 141.0641640167737 L 339.89774844822944 141.08724927633202 L 339.6642880170266 141.10928028594847 L 339.43035191423354 141.13025484254044 L 339.1959635332656 141.15017084866977 L 338.9611463127656 141.16902631275246 L 338.72592373425994 141.18681934925777 L 338.4903193198104 141.2035481788969 L 338.2543566296621 141.21921112880085 L 338.01805925988737 141.23380663268765 L 337.7814508400263 141.24733323101907 L 337.5445550307238 141.25978957114654 L 337.3073955213633 141.2711744074465 L 337.06999602769804 141.28148660144473 L 336.8323802894797 141.29072512193042 L 336.594572068084 141.2988890450593 L 336.35659514413493 141.30597755444578 L 336.11847331512655 141.31198994124486 L 335.88023039304335 141.31692560422286 L 335.64189020197904 141.32078404981763 L 335.403476575754 141.3235648921878 L 335.16501335553227 141.32526785325143 L 334.9265243874371 141.32589276271386 L 334.68803352016664 141.32543955808467 L 334.44956460260875 141.3239082846839 L 334.2111414814566 141.32129909563767 L 333.9727879988235 141.3176122518627 L 333.73452798985915 141.31284812204026 L 333.4963852803659 141.3070071825794 L 333.25838368441623 141.30009001756918 L 333.0205470019714 141.29209731872032 L 332.78289901650146 141.2830298852961 L 332.5454634926069 141.27288862403225 L 332.3082641736423 141.26167454904646 L 332.07132477934186 141.2493887817369 L 331.8346690034476 141.23603255067005 L 331.59832051133975 141.22160719145788 L 331.36230293767073 141.20611414662432 L 331.1266398840012 141.1895549654609 L 330.89135491644004 141.17193130387196 L 330.656471563288 141.153244924209 L 330.4220133126847 141.13349769509435 L 330.1880036102598 141.1126915912345 L 329.9544658567885 141.0908286932225 L 329.7214234058515 141.06791118732997 L 329.4888995614998 141.04394136528833 L 329.25691757592404 141.01892162405983 L 329.0255006471294 140.9928544655978 L 328.79467191661587 140.96574249659628 L 328.5644544670643 140.93758842822962 L 328.3348713200277 140.90839507588117 L 328.1059454336295 140.8781653588619 L 327.87769970026744 140.84690230011824 L 327.6501569443248 140.81460902593008 L 327.42333991988755 140.7812887655979 L 327.197271308469 140.74694485111993 L 326.97197371674207 140.71158071685906 L 326.747469674278 140.6751998991992 L 326.5237816312941 140.63780603619185 L 326.3009319564082 140.59940286719208 L 326.0789429344021 140.55999423248485 L 325.85783676399296 140.51958407290076 L 325.63763555561366 140.4781764294221 L 325.4183613292014 140.4357754427787 L 325.20003601199625 140.3923853530339 L 324.9826814363479 140.3480104991605 L 324.76631933753276 140.30265531860692 L 324.55097135158053 140.25632434685343 L 324.33665901311025 140.2090222169586 L 324.1234037531772 140.160753659096 L 323.9112268971296 140.11152350008118 L 323.70014966247635 140.061336662889 L 323.490193156765 140.01019816616142 L 323.2813783754711 139.9581131237054 L 323.0737261998988 139.90508674398188 L 322.86725739509257 139.85112432958456 L 322.6619926077609 139.79623127671 L 322.45795236421145 139.74041307461766 L 322.25515706829856 139.68367530508127 L 322.05362699938274 139.6260236418305 L 321.85338231030306 139.56746384998365 L 321.65444302536145 139.50800178547107 L 321.45682903832073 139.4476433944497 L 321.2605601104148 139.3863947127083 L 321.06565586837297 139.32426186506402 L 320.8721358024571 139.26125106474987 L 320.68001926451234 139.19736861279335 L 320.4893254660325 139.13262089738643 L 320.3000734762385 139.0670143932467 L 320.1122822201716 139.00055566096987 L 319.92597047680096 138.93325134637382 L 319.74115687714556 138.8651081798339 L 319.55785990241145 138.79613297561 L 319.3760978821433 138.72633263116504 L 319.1958889923917 138.65571412647532 L 319.01725125389544 138.58428452333243 L 318.8402025302795 138.5120509646372 L 318.6647605262687 138.4390206736853 L 318.4909427859173 138.3652009534449 L 318.3187666908544 138.2905991858266 L 318.148249458546 138.21522283094495 L 317.97940814057336 138.13907942637263 L 317.8122596209275 138.06217658638664 L 317.6468206143211 137.9845220012069 L 317.483107664517 137.90612343622718 L 317.32113714267365 137.8269887312387 L 317.1609252457083 137.747125799646 L 317.00248799467727 137.66654262767568 L 316.8458412331734 137.58524727357778 L 316.6910006257425 137.50324786681995 L 316.5379816563162 137.42055260727457 L 316.38679962666396 137.33716976439865 L 316.2374696548627 137.253107676407 L 316.0900066737852 137.16837474943839 L 315.9444254296066 137.0829794567149 L 315.80074048033015 136.9969303376946 L 315.65896619433096 136.9102359972177 L 315.5191167489195 136.82290510464605 L 315.38120612892374 136.73494639299608 L 315.2452481252908 136.64636865806568 L 315.1112563337077 136.55718075755453 L 314.97924415324195 136.46739161017834 L 314.8492247850016 136.37701019477703 L 314.72121123081513 136.28604554941683 L 314.59521629193125 136.19450677048647 L 314.4712525677389 136.10240301178757 L 314.34933245450713 136.00974348361922 L 314.22946814414576 135.91653745185704 L 314.11167162298585 135.82279423702653 L 313.9959546705814 135.72852321337106 L 313.8823288585312 135.63373380791444 L 313.7708055493218 135.53843549951822 L 313.6613958951911 135.44263781793381 L 313.55411083701347 135.34635034284955 L 313.4489611032052 135.2495827029327 L 313.34595720865207 135.15234457486665 L 313.2451094536578 135.05464568238312 L 313.14642792291374 134.95649579528998 L 313.04992248449076 134.85790472849413 L 312.95560278885233 134.75888234102013 L 312.8634782678893 134.65943853502412 L 312.77355813397713 134.55958325480393 L 312.6858513790542 134.4593264858043 L 312.60036677372295 134.35867825361862 L 312.5171128663726 134.25764862298624 L 312.4360979823246 134.156247696786 L 312.35733022299985 134.05448561502604 L 312.2808174651085 133.95237255382972 L 312.20656735986273 133.8499187244181 L 312.13458733221114 133.7471343720887 L 312.06488458009653 133.64402977519111 L 311.997466073736 133.54061524409914 L 311.932338554924 133.43690112017967 L 311.8695085363581 133.3328977747587 L 311.8089823009879 133.22861560808406 L 311.75076590138644 133.12406504828556 L 311.69486515914514 133.01925655033202 L 311.64128566429173 132.9142005949859 L 311.59003277473096 132.80890768775524 L 311.5411116157091 132.70338835784298 L 311.4945270793013 132.59765315709416 L 311.4502838239223 132.49171265894074 L 311.4083862738609 132.3855774573443 L 311.3688386188371 132.27925816573654 L 311.3316448135835 132.17276541595797 L 311.2968085774496 132.0661098571949 L 311.26433339403 131.95930215491427 L 311.234222510816 131.8523529897973 L 311.2064789388707 131.74527305667144 L 311.18110545252836 131.63807306344071 L 311.15810458911636 131.5307637300151 L 311.13747864870186 131.4233557872386 L 311.11922969386177 131.31585997581587 L 311.10335954947635 131.20828704523856 L 311.08986980254684 131.10064775271007 L 311.07876180203664 130.9929528620699 L 311.0700366587365 130.88521314271745 L 311.0636952451536 130.7774393685348 L 311.05973819542396 130.6696423168096 L 311.05816590524927 130.56183276715717" stroke-miterlimit="10" stroke-width="2.7769845610000004" stroke-dasharray=""/></g><g><g/><text fill="black" stroke="none" font-family="monospace" font-size="11pt" font-style="normal" font-weight="normal" text-decoration="normal" x="302.66699292493485" y="157.597015222" text-anchor="start" dominant-baseline="alphabetic" xml:space="preserve">Database</text></g><g><path fill="white" stroke="red" paint-order="fill stroke markers" d=" M 105.9337934005 438.44942211299997 A 24.2577769005 24.2577769005 0 1 1 105.93378127161255 438.42516434014243 M 78.40897583999998 414.19164521249996 L 88.21009781999999 406.02404356249997 M 78.40897583999998 414.19164521249996 L 88.21009781999999 422.35924686249996" stroke-miterlimit="10" stroke-width="1.9438891927000002" stroke-dasharray=""/></g><g><g/><text fill="black" stroke="none" font-family="monospace" font-size="11pt" font-style="normal" font-weight="normal" text-decoration="normal" x="25.2550722861328" y="399.734990292" text-anchor="start" dominant-baseline="alphabetic" xml:space="preserve">Report Service</text></g><g><path fill="pink" stroke="black" paint-order="fill stroke markers" d=" M 311.0581356577161 452.497696951 L 311.0581356577161 418.193770021 L 358.7569292937161 418.193770021 L 358.7569292937161 452.497696951" stroke-miterlimit="10" stroke-width="2.7769845610000004" stroke-dasharray=""/><path fill="pink" stroke="black" paint-order="fill stroke markers" d=" M 358.7569292937161 417.0013001801 L 358.7557368338124 417.1091107250166 L 358.7521595733464 417.21691048896855 L 358.746197870041 417.32468869206934 L 358.7378523200617 417.43243455658836 L 358.72712375795646 417.54013730802905 L 358.7140132565726 417.64778617620595 L 358.6985221269494 417.755370396322 L 358.68065191818675 417.8628792100448 L 358.66040441729075 417.97030186658264 L 358.6377816489946 418.07762762375927 L 358.61278587555626 418.1848457490885 L 358.58541959653223 418.2919455208471 L 358.5556855485276 418.3989162291472 L 358.5235867049225 418.505747177007 L 358.4891262755744 418.61242768142085 L 358.45230770649755 418.71894707442715 L 358.41313467951824 418.8252947041754 L 358.3716111119065 418.93145993599126 L 358.3277411559844 419.0374321534399 L 358.28152919871116 419.1432007593881 L 358.23297986124385 419.2487551770632 L 358.18209799847574 419.3540848511115 L 358.1288886985508 419.45917924865336 L 358.07335728235466 419.5640278603366 L 358.0155093029826 419.66862020138734 L 357.95535054518444 419.7729458126588 L 357.89288702478575 419.87699426167666 L 357.8281249880866 419.98075514368276 L 357.76107091123663 420.08421808267536 L 357.6917314995876 420.1873727324468 L 357.62011368702304 420.2902087776181 L 357.54622463526437 420.3927159346704 L 357.4700717331553 420.49488395297334 L 357.39166259592247 420.5967026158104 L 357.3110050644144 420.69816174139993 L 357.2281072043169 420.7992511839141 L 357.142977305347 420.89996083449284 L 357.05562388042364 421.00028062225505 L 356.96605566481645 421.10020051530546 L 356.8742816152724 421.1997105217381 L 356.78031090912 421.29880069063523 L 356.6841529433515 421.3974611130626 L 356.5858173336833 421.4956819230601 L 356.4853139135945 421.59345329862856 L 356.3826527333433 421.690765462712 L 356.27784405896233 421.78760868417504 L 356.1708983712315 421.88397327877624 L 356.0618263646305 421.97984961013645 L 355.9506389462692 422.07522809070247 L 355.83734723479665 422.17009918270566 L 355.72196255928964 422.26445339911595 L 355.6044964581196 422.3582813045902 L 355.4849606777987 422.4515735164162 L 355.36336717180546 422.54432070545045 L 355.239728099389 422.6365135970513 L 355.11405582435367 422.7281429720065 L 354.9863629138222 422.8191996674548 L 354.8566621369792 422.90967457780266 L 354.7249664637943 422.9995586556343 L 354.59128906372507 423.088842912617 L 354.4556433044001 423.17751842039934 L 354.3180427502823 423.2655763115045 L 354.1785011613124 423.3530077802167 L 354.037032491533 423.439804083462 L 353.8936508876933 423.5259565416823 L 353.74837068783404 423.61145653970374 L 353.6012064198543 423.6962955275976 L 353.45217280005807 423.78046502153586 L 353.30128473168327 423.86395660463927 L 353.14855730341094 423.94676192781907 L 352.9940057878566 424.028872710612 L 352.8376456400431 424.1102807420081 L 352.6794924958549 424.1909778812722 L 352.51956217047456 424.2709560587576 L 352.3578706568014 424.3502072767131 L 352.19443412385203 424.428723610083 L 352.0292689151436 424.50649720729945 L 351.86239154705925 424.58352029106743 L 351.6938187071967 424.6597851591428 L 351.52356725269965 424.7352841851024 L 351.35165420857146 424.8100098191064 L 351.1780967659734 424.88395458865375 L 351.0029122805051 424.9571110993291 L 350.82611827046907 425.02947203554237 L 350.647732415119 425.1010301612602 L 350.4677725528918 425.17177832072963 L 350.2862566796237 425.24170943919376 L 350.10320294675074 425.31081652359893 L 349.9186296594937 425.3790926632944 L 349.73255527502755 425.4465310307229 L 349.54499840063556 425.5131248821041 L 349.35597779184894 425.57886755810824 L 349.165512350571 425.6437524845225 L 348.9736211231873 425.70777317290833 L 348.78032329866045 425.7709232212503 L 348.5856382066119 425.83319631459614 L 348.38958531538873 425.8945862256884 L 348.19218423011654 425.95508681558715 L 347.99345469073944 426.0146920342838 L 347.79341657004574 426.0733959213062 L 347.5920898716808 426.1311926063145 L 347.3894947281467 426.1880763096884 L 347.185651398789 426.244041343105 L 346.9805802677706 426.2990821101075 L 346.77430184203394 426.3531931066652 L 346.5668367492496 426.4063689217234 L 346.3582057357539 426.458604237745 L 346.1484296644744 426.5098938312419 L 345.93752951284347 426.56023257329747 L 345.7255263707004 426.6096154300795 L 345.5124414381828 426.65803746334336 L 345.2982960236063 426.70549383092623 L 345.08311154133406 426.75197978723077 L 344.8669095096348 426.7974906837002 L 344.6497115485317 426.84202196928265 L 344.43153937763964 426.8855691908868 L 344.21241481399414 426.9281279938267 L 343.9923597698688 426.96969412225764 L 343.7713962505847 427.01026341960124 L 343.5495463523097 427.0498318289617 L 343.32683225984863 427.088395393531 L 343.1032762444252 427.12595025698494 L 342.87890066145474 427.16249266386825 L 342.6537279483085 427.1980189599709 L 342.42778062207003 427.23252559269275 L 342.20108127728383 427.26600911139934 L 341.9736525836954 427.2984661677667 L 341.7455172839846 427.3298935161163 L 341.5166981914913 427.3602880137393 L 341.28721818793406 427.38964662121145 L 341.0571002211219 427.41796640269644 L 340.8263673026599 427.4452445262397 L 340.5950425056475 427.4714782640516 L 340.3631489623717 427.4966649927802 L 340.1307098619936 427.5208021937737 L 339.89774844822944 427.543887453332 L 339.6642880170266 427.56591846294845 L 339.43035191423354 427.5868930195404 L 339.1959635332656 427.60680902566975 L 338.9611463127656 427.6256644897524 L 338.72592373425994 427.64345752625775 L 338.4903193198104 427.6601863558969 L 338.2543566296621 427.6758493058008 L 338.01805925988737 427.6904448096876 L 337.7814508400263 427.703971408019 L 337.5445550307238 427.71642774814654 L 337.3073955213633 427.72781258444644 L 337.06999602769804 427.73812477844467 L 336.8323802894797 427.7473632989304 L 336.594572068084 427.75552722205924 L 336.35659514413493 427.76261573144575 L 336.11847331512655 427.7686281182448 L 335.88023039304335 427.77356378122283 L 335.64189020197904 427.7774222268176 L 335.403476575754 427.7802030691878 L 335.16501335553227 427.7819060302514 L 334.9265243874371 427.7825309397138 L 334.68803352016664 427.7820777350846 L 334.44956460260875 427.7805464616839 L 334.2111414814566 427.77793727263764 L 333.9727879988235 427.7742504288627 L 333.73452798985915 427.76948629904024 L 333.4963852803659 427.76364535957936 L 333.25838368441623 427.7567281945692 L 333.0205470019714 427.7487354957203 L 332.78289901650146 427.73966806229606 L 332.5454634926069 427.7295268010322 L 332.3082641736423 427.7183127260464 L 332.07132477934186 427.70602695873686 L 331.8346690034476 427.69267072767 L 331.59832051133975 427.67824536845785 L 331.36230293767073 427.66275232362426 L 331.1266398840012 427.64619314246085 L 330.89135491644004 427.62856948087193 L 330.656471563288 427.60988310120894 L 330.4220133126847 427.5901358720943 L 330.1880036102598 427.56932976823447 L 329.9544658567885 427.5474668702225 L 329.7214234058515 427.5245493643299 L 329.4888995614998 427.5005795422883 L 329.25691757592404 427.47555980105983 L 329.0255006471294 427.44949264259776 L 328.79467191661587 427.42238067359625 L 328.5644544670643 427.39422660522956 L 328.3348713200277 427.3650332528812 L 328.1059454336295 427.33480353586185 L 327.87769970026744 427.30354047711825 L 327.6501569443248 427.27124720293006 L 327.42333991988755 427.2379269425979 L 327.197271308469 427.2035830281199 L 326.97197371674207 427.16821889385903 L 326.747469674278 427.1318380761992 L 326.5237816312941 427.0944442131918 L 326.3009319564082 427.05604104419206 L 326.0789429344021 427.0166324094848 L 325.85783676399296 426.97622224990073 L 325.63763555561366 426.93481460642204 L 325.4183613292014 426.89241361977867 L 325.20003601199625 426.84902353003383 L 324.9826814363479 426.80464867616047 L 324.76631933753276 426.7592934956069 L 324.55097135158053 426.71296252385343 L 324.33665901311025 426.6656603939586 L 324.1234037531772 426.617391836096 L 323.9112268971296 426.56816167708115 L 323.70014966247635 426.517974839889 L 323.490193156765 426.4668363431614 L 323.2813783754711 426.4147513007054 L 323.0737261998988 426.3617249209818 L 322.86725739509257 426.30776250658454 L 322.6619926077609 426.25286945371 L 322.45795236421145 426.1970512516176 L 322.25515706829856 426.14031348208124 L 322.05362699938274 426.0826618188305 L 321.85338231030306 426.0241020269836 L 321.65444302536145 425.96463996247104 L 321.45682903832073 425.90428157144964 L 321.2605601104148 425.8430328897083 L 321.06565586837297 425.780900042064 L 320.8721358024571 425.71788924174984 L 320.68001926451234 425.65400678979336 L 320.4893254660325 425.5892590743864 L 320.3000734762385 425.52365257024667 L 320.1122822201716 425.45719383796984 L 319.92597047680096 425.38988952337377 L 319.74115687714556 425.32174635683384 L 319.55785990241145 425.25277115260997 L 319.3760978821433 425.182970808165 L 319.1958889923917 425.1123523034753 L 319.01725125389544 425.04092270033243 L 318.8402025302795 424.9686891416372 L 318.6647605262687 424.89565885068527 L 318.4909427859173 424.8218391304449 L 318.3187666908544 424.7472373628266 L 318.148249458546 424.6718610079449 L 317.97940814057336 424.5957176033726 L 317.8122596209275 424.5188147633866 L 317.6468206143211 424.44116017820687 L 317.483107664517 424.3627616132272 L 317.32113714267365 424.28362690823866 L 317.1609252457083 424.203763976646 L 317.00248799467727 424.12318080467566 L 316.8458412331734 424.04188545057775 L 316.6910006257425 423.95988604381995 L 316.5379816563162 423.87719078427455 L 316.38679962666396 423.79380794139865 L 316.2374696548627 423.709745853407 L 316.0900066737852 423.6250129264384 L 315.9444254296066 423.53961763371484 L 315.80074048033015 423.45356851469455 L 315.65896619433096 423.3668741742177 L 315.5191167489195 423.27954328164606 L 315.38120612892374 423.19158456999605 L 315.2452481252908 423.1030068350657 L 315.1112563337077 423.0138189345545 L 314.97924415324195 422.9240297871783 L 314.8492247850016 422.83364837177703 L 314.72121123081513 422.74268372641683 L 314.59521629193125 422.65114494748644 L 314.4712525677389 422.55904118878755 L 314.34933245450713 422.4663816606192 L 314.22946814414576 422.37317562885704 L 314.11167162298585 422.27943241402653 L 313.9959546705814 422.18516139037104 L 313.8823288585312 422.09037198491444 L 313.7708055493218 421.9950736765182 L 313.6613958951911 421.89927599493376 L 313.55411083701347 421.8029885198495 L 313.4489611032052 421.7062208799327 L 313.34595720865207 421.6089827518666 L 313.2451094536578 421.5112838593831 L 313.14642792291374 421.41313397229 L 313.04992248449076 421.31454290549414 L 312.95560278885233 421.21552051802007 L 312.8634782678893 421.1160767120241 L 312.77355813397713 421.0162214318039 L 312.6858513790542 420.9159646628043 L 312.60036677372295 420.8153164306186 L 312.5171128663726 420.7142867999862 L 312.4360979823246 420.61288587378596 L 312.35733022299985 420.511123792026 L 312.2808174651085 420.4090107308297 L 312.20656735986273 420.30655690141805 L 312.13458733221114 420.2037725490887 L 312.06488458009653 420.1006679521911 L 311.997466073736 419.9972534210991 L 311.932338554924 419.89353929717964 L 311.8695085363581 419.78953595175864 L 311.8089823009879 419.685253785084 L 311.75076590138644 419.5807032252855 L 311.69486515914514 419.475894727332 L 311.64128566429173 419.3708387719859 L 311.59003277473096 419.2655458647552 L 311.5411116157091 419.1600265348429 L 311.4945270793013 419.0542913340941 L 311.4502838239223 418.94835083594074 L 311.4083862738609 418.84221563434426 L 311.3688386188371 418.7358963427365 L 311.3316448135835 418.62940359295794 L 311.2968085774496 418.5227480341949 L 311.26433339403 418.4159403319142 L 311.234222510816 418.3089911667973 L 311.2064789388707 418.2019112336714 L 311.18110545252836 418.0947112404407 L 311.15810458911636 417.9874019070151 L 311.13747864870186 417.87999396423857 L 311.11922969386177 417.77249815281584 L 311.10335954947635 417.66492522223854 L 311.08986980254684 417.55728592971 L 311.07876180203664 417.4495910390699 L 311.0700366587365 417.3418513197174 L 311.0636952451536 417.2340775455348 L 311.05973819542396 417.1262804938096 L 311.05816590524927 417.0184709441571 L 311.05897853185724 416.9106596774426 L 311.0621759939858 416.8028574747028 L 311.0677579718915 416.6950751160682 L 311.0757239073812 416.5873233796848 L 311.0860730038679 416.4796130406365 L 311.0988042264507 416.37195486986735 L 311.1139163020178 416.2643596331048 L 311.13140771937435 416.1568380897828 L 311.1512767293932 416.04940099196614 L 311.17352134518984 415.94205908327507 L 311.19813934232127 415.83482309781095 L 311.2251282590083 415.727703759083 L 311.2544853963817 415.6207117789358 L 311.28620781875225 415.5138578564783 L 311.32029235390405 415.4071526770136 L 311.35673559341217 415.3006069109707 L 311.3955338929828 415.19423121283756 L 311.43668337281855 415.0880362200952 L 311.48017991800555 414.9820325521545 L 311.52601917892565 414.8762308092939 L 311.57419657169083 414.7706415715994 L 311.6247072786021 414.66527539790695 L 311.67754624863073 414.56014282474604 L 311.73270819792384 414.45525436528635 L 311.79018761033245 414.35062050828645 L 311.84997873796317 414.2462517170448 L 311.91207560175314 414.14215842835364 L 311.9764719920677 414.03835105145504 L 312.04316146932143 413.9348399670002 L 312.1121373646222 413.8316355260112 L 312.18339278043806 413.72874804884634 L 312.25692059128664 413.62618782416746 L 312.33271344444825 413.5239651079116 L 312.4107637607007 413.42209012226516 L 312.49106373507743 413.32057305464184 L 312.5736053376479 413.2194240566638 L 312.6583803143206 413.1186532431466 L 312.74538018766856 413.0182706910875 L 312.8345962577769 412.91828643865813 L 312.92601960311305 412.81871048420044 L 313.0196410814185 412.7195527852268 L 313.1154513306236 412.6208232574246 L 313.2134407697832 412.5225317736643 L 313.313599600035 412.42468816301226 L 313.4159178055795 412.32730220974815 L 313.52038515468143 412.23038365238614 L 313.6269912006929 412.1339421827011 L 313.7357252830981 412.03798744475966 L 313.8465765285795 411.9425290339557 L 313.9595338521048 411.8475764960507 L 314.07458595803587 411.7531393262194 L 314.191721341258 411.6592269681 L 314.3109282883305 411.5658488128501 L 314.4321948786579 411.47301419820735 L 314.5555089856823 411.38073240755597 L 314.68085827809574 411.289012668998 L 314.8082302210735 411.197864154431 L 314.93761207752726 411.1072959786303 L 315.0689909093793 411.0173171983381 L 315.202353578856 410.9279368113575 L 315.3376867498014 410.8391637556526 L 315.4749768890112 410.75100690845505 L 315.614210267586 410.6634750853761 L 315.75537296230385 410.57657703952515 L 315.89845085701296 410.49032146063433 L 316.0434296440431 410.4047169741896 L 316.1902948256364 410.31977214056843 L 316.3390317153971 410.23549545418325 L 316.48962543976006 410.1518953426325 L 316.6420609394784 410.0689801658577 L 316.79632297112926 409.98675821530736 L 316.9523961086379 409.90523771310814 L 317.11026474482065 409.8244268112422 L 317.26991309294556 409.7443335907324 L 317.4313251883108 409.66496606083416 L 317.5944848898412 409.58633215823426 L 317.7593758817028 409.50843974625735 L 317.92598167493367 409.4312966140799 L 318.0942856090934 409.35491047595065 L 318.2642708539288 409.2792889704199 L 318.435920411057 409.2044396595751 L 318.60921711566544 409.130370028285 L 318.78414363822793 409.05708748345097 L 318.9606824862381 408.98459935326645 L 319.1388160059582 408.91291288648404 L 319.31852638418474 408.84203525169073 L 319.4997956500296 408.7719735365909 L 319.68260567671734 408.70273474729765 L 319.86693818339756 408.63432580763225 L 320.0527747369732 408.5667535584316 L 320.2400967539438 408.50002475686443 L 320.4288855022638 408.43414607575517 L 320.6191221032156 408.36912410291706 L 320.81078753329774 408.3049653404932 L 321.0038626261268 408.2416762043064 L 321.1983280743545 408.1792630232175 L 321.394164431598 408.11773203849265 L 321.5913521143849 408.05708940317896 L 321.78987140411107 407.99734118148956 L 321.9897024490131 407.9384933481967 L 322.19082526615296 407.88055178803467 L 322.3932197434165 407.82352229511133 L 322.5968656415248 407.7674105723283 L 322.80174259605764 407.7122222308112 L 323.0078301194903 407.6579627893482 L 323.2151076032422 407.6046376738381 L 323.4235543197377 407.5522522167481 L 323.63314942447886 407.5008116565803 L 323.84387195812985 407.4503211373478 L 324.0557008486129 407.4007857080605 L 324.2686149132155 407.3522103222199 L 324.4825928607086 407.30459983732425 L 324.6976132934758 407.2579590143823 L 324.913654709653 407.21229251743756 L 325.1306955052786 407.16760491310157 L 325.3487139764539 407.12390067009756 L 325.5676883215134 407.0811841588134 L 325.78759664320523 407.03945965086467 L 326.00841695088036 406.99873131866735 L 326.2301271626921 406.9590032350207 L 326.452705107804 406.9202793727 L 326.67612852860697 406.88256360405927 L 326.9003750829452 406.8458597006438 L 327.1254223463501 406.8101713328135 L 327.35124781428283 406.77550206937536 L 327.57782890438483 406.7418553772268 L 327.8051429587359 406.70923462100905 L 328.03316724612006 406.67764306277047 L 328.26187896429855 406.6470838616406 L 328.49125524229015 406.61756007351414 L 328.7212731426582 406.5890746507452 L 328.95190966380443 406.5616304418524 L 329.1831417422688 406.5352301912337 L 329.41494625503617 406.50987653889223 L 329.6473000218485 406.48557202017207 L 329.88017980752267 406.4623190655048 L 330.11356232427426 406.44012000016653 L 330.347424234046 406.4189770440453 L 330.5817421508419 406.3988923114191 L 330.8164926430654 406.37986781074443 L 331.05165223586295 406.3619054444556 L 331.28719741347135 406.34500700877413 L 331.52310462156896 406.32917419352964 L 331.7593502696317 406.31440858199034 L 331.9959107332915 406.3007116507052 L 332.23276235669925 406.2880847693558 L 332.46988145488996 406.27652920061985 L 332.70724431615133 406.2660461000446 L 332.94482720439515 406.25663651593135 L 333.1826063615305 406.2483013892306 L 333.4205580098398 406.24104155344816 L 333.65865835435653 406.23485773456156 L 333.8968835852447 406.2297505509475 L 334.13520988017973 406.2257205133201 L 334.37361340673067 406.2227680246797 L 334.6120703247436 406.2208933802728 L 334.85055678872544 406.22009676756227 L 335.08904895022846 406.2203782662086 L 335.32752296023534 406.22173784806233 L 335.5659549715437 406.2241753771663 L 335.8043211411512 406.22769060976964 L 336.04259763263946 406.2322831943521 L 336.2807606185579 406.2379526716589 L 336.51878628280645 406.24469847474717 L 336.75665082301697 406.25251992904214 L 336.9943304529337 406.26141625240496 L 337.23180140479167 406.27138655521065 L 337.46903993169366 406.28242984043726 L 337.70602230998463 406.2945450037655 L 337.94272484162417 406.3077308336891 L 338.17912385655654 406.32198601163606 L 338.41519571507706 406.33730911210046 L 338.65091681019675 406.353698602785 L 338.8862635700024 406.37115284475436 L 339.1212124600143 406.3896700925988 L 339.3557399855391 406.409248494609 L 339.58982269401974 406.42988609296106 L 339.82343717738047 406.45158082391237 L 340.0565600743676 406.4743305180079 L 340.28916807288573 406.49813290029715 L 340.5212379123288 406.5229855905618 L 340.7527463859063 406.5488861035535 L 340.98367034296376 406.57583184924255 L 341.2139866912979 406.6038201330768 L 341.4436723994659 406.6328481562512 L 341.67270449908824 406.66291301598767 L 341.90106008714594 406.6940117058253 L 342.12871632827034 406.7261411159209 L 342.35565045702714 406.7592980333604 L 342.5818397801926 406.7934791424795 L 342.80726167902276 406.8286810251959 L 343.0318936115157 406.86490016135065 L 343.2557131146654 406.9021329290603 L 343.47869780670794 406.94037560507917 L 343.70082538936003 406.9796243651714 L 343.92207365004845 407.01987528449376 L 344.14242046413153 407.06112433798785 L 344.36184379711153 407.1033674007827 L 344.5803217068379 407.14660024860723 L 344.7978323457018 407.1908185582127 L 345.0143539628206 407.236017907805 L 345.229864906213 407.2821937774868 L 345.4443436249643 407.3293415497096 L 345.6577686713813 407.37745650973557 L 345.8701187031372 407.4265338461087 L 346.08137248540584 407.4765686511363 L 346.29150889298506 407.52755592137953 L 346.5005069124091 407.57949055815385 L 346.70834564405027 407.6323673680389 L 346.9150043042086 407.6861810633978 L 347.1204622271903 407.7409262629057 L 347.3246988673742 407.79659749208844 L 347.5276938012666 407.85318918386935 L 347.72942672954315 407.91069567912655 L 347.9298774790792 407.96911122725834 L 348.1290260049669 408.0284299867586 L 348.32685239251947 408.08864602580087 L 348.5233368592631 408.1497533228313 L 348.7184597569149 408.2117457671713 L 348.9122015733476 408.2746171596279 L 349.1045429345411 408.33836121311435 L 349.29546460651943 408.40297155327846 L 349.4849474972747 408.46844171913995 L 349.6729726586755 408.5347651637369 L 349.8595212883626 408.60193525478 L 350.0445747316283 408.6699452753162 L 350.22811448328264 408.7387884244001 L 350.4101221895033 408.80845781777424 L 350.5905796496714 408.8789464885572 L 350.76946881819117 408.95024738794075 L 350.94677180629503 409.0223533858943 L 351.12247088383174 409.09525727187815 L 351.29654848104013 409.1689517555645 L 351.46898719030537 409.24342946756633 L 351.63976976790036 409.3186829601746 L 351.8088791357096 409.39470470810267 L 351.9762983829373 409.47148710923915 L 352.1420107677981 409.5490224854079 L 352.30599971919185 409.62730308313587 L 352.46824883835984 409.70632107442856 L 352.6287419005254 409.7860685575527 L 352.7874628565162 409.86653755782646 L 352.9443958343688 409.94772002841677 L 353.09952514091617 410.0296078511443 L 353.2528352633569 410.112192837295 L 353.4043108708067 410.1954667284391 L 353.55393681583087 410.27942119725685 L 353.70169813595965 410.36404784837134 L 353.8475800551841 410.449338219188 L 353.99156798543396 410.53528378074077 L 354.1336475280362 410.62187593854514 L 354.27380447515486 410.70910603345754 L 354.4120248112121 410.79696534254106 L 354.5482947142895 410.8854450799381 L 354.6826005575103 410.9745363977487 L 354.81492891040205 411.06423038691514 L 354.9452665402398 411.1545180781134 L 355.07360041336915 411.2453904426496 L 355.1999176965097 411.3368383933629 L 355.3242057580385 411.42885278553456 L 355.44645216925284 411.52142441780194 L 355.56664470561356 411.614544033079 L 355.68477134796717 411.70820231948187 L 355.8008202837479 411.80238991125987 L 355.9147799081588 411.8970973897323 L 356.0266388253324 411.99231528423036 L 356.1363858494703 412.0880340730438 L 356.2440100059614 412.1842441843736 L 356.3495005324799 412.28093599728874 L 356.4528468800609 412.3780998426886 L 356.5540387141559 412.4757260042695 L 356.6530659156657 412.5738047194967 L 356.7499185819528 412.6723261805804 L 356.8445870278311 412.7712805354566 L 356.9370617865351 412.8706578887722 L 357.02733361066583 412.9704483028748 L 357.11539347311617 413.07064179880604 L 357.2012325679733 413.17122835729987 L 357.2848423113992 413.27219791978433 L 357.36621434248923 413.3735403893872 L 357.4453405241081 413.475245631946 L 357.52221294370355 413.5773034770213 L 357.59682391409774 413.6797037189136 L 357.66916597425575 413.782436117684 L 357.7392318900319 413.8854904001782 L 357.8070146548929 413.98885626105397 L 357.8725074906189 414.09252336381127 L 357.9357038479808 414.1964813418262 L 357.99659740739554 414.30071979938765 L 358.05518207955794 414.40522831273665 L 358.1114520060496 414.509996431109 L 358.16540155992476 414.6150136777802 L 358.217025346273 414.7202695511131 L 358.26631820275867 414.82575352560804 L 358.31327520013724 414.9314550529554 L 358.35789164274814 415.0373635630907 L 358.40016306898417 415.14346846525103 L 358.440085251738 415.2497591490347 L 358.47765419882467 415.35622498546184 L 358.51286615338074 415.46285532803756 L 358.54571759424005 415.5696395138164 L 358.57620523628594 415.6765668644689 L 358.6043260307796 415.783626687349 L 358.630077165665 415.89080827656363 L 358.65345606585015 415.9981009140432 L 358.67446039346447 416.10549387061343 L 358.69308804809276 416.2129764070681 L 358.709337166985 416.3205377752431 L 358.72320612524294 416.4281672190913 L 358.7346935359822 416.53585397575796 L 358.74379825047134 416.64358727665723 L 358.7505193582465 416.75135634854877 L 358.7548561872025 416.8591504146151 L 358.7568083036601 416.9669586955396 M 358.7569292937161 451.3052271101 L 358.7557368338124 451.41303765501664 L 358.7521595733464 451.5208374189686 L 358.746197870041 451.6286156220694 L 358.7378523200617 451.7363614865884 L 358.72712375795646 451.8440642380291 L 358.7140132565726 451.951713106206 L 358.6985221269494 452.05929732632205 L 358.68065191818675 452.16680614004486 L 358.66040441729075 452.2742287965827 L 358.6377816489946 452.3815545537593 L 358.61278587555626 452.4887726790885 L 358.58541959653223 452.59587245084714 L 358.5556855485276 452.7028431591472 L 358.5235867049225 452.809674107007 L 358.4891262755744 452.9163546114209 L 358.45230770649755 453.0228740044272 L 358.41313467951824 453.12922163417545 L 358.3716111119065 453.2353868659913 L 358.3277411559844 453.34135908343995 L 358.28152919871116 453.44712768938814 L 358.23297986124385 453.5526821070632 L 358.18209799847574 453.65801178111155 L 358.1288886985508 453.7631061786534 L 358.07335728235466 453.8679547903366 L 358.0155093029826 453.9725471313874 L 357.95535054518444 454.07687274265885 L 357.89288702478575 454.1809211916767 L 357.8281249880866 454.2846820736828 L 357.76107091123663 454.3881450126754 L 357.6917314995876 454.49129966244686 L 357.62011368702304 454.59413570761814 L 357.54622463526437 454.6966428646704 L 357.4700717331553 454.7988108829734 L 357.39166259592247 454.90062954581043 L 357.3110050644144 455.0020886714 L 357.2281072043169 455.10317811391417 L 357.142977305347 455.2038877644929 L 357.05562388042364 455.3042075522551 L 356.96605566481645 455.4041274453055 L 356.8742816152724 455.50363745173814 L 356.78031090912 455.6027276206353 L 356.6841529433515 455.70138804306265 L 356.5858173336833 455.79960885306014 L 356.4853139135945 455.8973802286286 L 356.3826527333433 455.99469239271207 L 356.27784405896233 456.0915356141751 L 356.1708983712315 456.1879002087763 L 356.0618263646305 456.2837765401365 L 355.9506389462692 456.3791550207025 L 355.83734723479665 456.4740261127057 L 355.72196255928964 456.568380329116 L 355.6044964581196 456.66220823459025 L 355.4849606777987 456.75550044641625 L 355.36336717180546 456.8482476354505 L 355.239728099389 456.94044052705135 L 355.11405582435367 457.0320699020065 L 354.9863629138222 457.12312659745487 L 354.8566621369792 457.2136015078027 L 354.7249664637943 457.30348558563435 L 354.59128906372507 457.39276984261704 L 354.4556433044001 457.4814453503994 L 354.3180427502823 457.56950324150455 L 354.1785011613124 457.6569347102168 L 354.037032491533 457.743731013462 L 353.8936508876933 457.82988347168236 L 353.74837068783404 457.9153834697038 L 353.6012064198543 458.00022245759766 L 353.45217280005807 458.0843919515359 L 353.30128473168327 458.1678835346393 L 353.14855730341094 458.2506888578191 L 352.9940057878566 458.33279964061205 L 352.8376456400431 458.41420767200816 L 352.6794924958549 458.49490481127225 L 352.51956217047456 458.5748829887576 L 352.3578706568014 458.65413420671314 L 352.19443412385203 458.73265054008306 L 352.0292689151436 458.8104241372995 L 351.86239154705925 458.8874472210675 L 351.6938187071967 458.96371208914286 L 351.52356725269965 459.03921111510243 L 351.35165420857146 459.1139367491065 L 351.1780967659734 459.1878815186538 L 351.0029122805051 459.26103802932914 L 350.82611827046907 459.3333989655424 L 350.647732415119 459.40495709126026 L 350.4677725528918 459.4757052507297 L 350.2862566796237 459.5456363691938 L 350.10320294675074 459.614743453599 L 349.9186296594937 459.6830195932944 L 349.73255527502755 459.75045796072294 L 349.54499840063556 459.8170518121041 L 349.35597779184894 459.8827944881083 L 349.165512350571 459.94767941452255 L 348.9736211231873 460.0117001029084 L 348.78032329866045 460.07485015125036 L 348.5856382066119 460.1371232445962 L 348.38958531538873 460.19851315568843 L 348.19218423011654 460.2590137455872 L 347.99345469073944 460.31861896428387 L 347.79341657004574 460.37732285130625 L 347.5920898716808 460.4351195363146 L 347.3894947281467 460.4920032396885 L 347.185651398789 460.547968273105 L 346.9805802677706 460.60300904010757 L 346.77430184203394 460.6571200366652 L 346.5668367492496 460.71029585172346 L 346.3582057357539 460.76253116774507 L 346.1484296644744 460.81382076124197 L 345.93752951284347 460.8641595032975 L 345.7255263707004 460.91354236007953 L 345.5124414381828 460.9619643933434 L 345.2982960236063 461.0094207609263 L 345.08311154133406 461.0559067172308 L 344.8669095096348 461.1014176137002 L 344.6497115485317 461.1459488992827 L 344.43153937763964 461.1894961208869 L 344.21241481399414 461.23205492382675 L 343.9923597698688 461.2736210522577 L 343.7713962505847 461.3141903496013 L 343.5495463523097 461.35375875896176 L 343.32683225984863 461.39232232353106 L 343.1032762444252 461.429877186985 L 342.87890066145474 461.4664195938683 L 342.6537279483085 461.5019458899709 L 342.42778062207003 461.5364525226928 L 342.20108127728383 461.5699360413994 L 341.9736525836954 461.60239309776676 L 341.7455172839846 461.63382044611626 L 341.5166981914913 461.66421494373935 L 341.28721818793406 461.6935735512115 L 341.0571002211219 461.7218933326965 L 340.8263673026599 461.74917145623976 L 340.5950425056475 461.77540519405164 L 340.3631489623717 461.80059192278026 L 340.1307098619936 461.82472912377375 L 339.89774844822944 461.84781438333204 L 339.6642880170266 461.8698453929485 L 339.43035191423354 461.89081994954046 L 339.1959635332656 461.9107359556698 L 338.9611463127656 461.92959141975246 L 338.72592373425994 461.9473844562578 L 338.4903193198104 461.96411328589693 L 338.2543566296621 461.97977623580084 L 338.01805925988737 461.99437173968767 L 337.7814508400263 462.00789833801906 L 337.5445550307238 462.0203546781466 L 337.3073955213633 462.0317395144465 L 337.06999602769804 462.0420517084447 L 336.8323802894797 462.05129022893044 L 336.594572068084 462.0594541520593 L 336.35659514413493 462.0665426614458 L 336.11847331512655 462.07255504824485 L 335.88023039304335 462.0774907112229 L 335.64189020197904 462.0813491568176 L 335.403476575754 462.0841299991878 L 335.16501335553227 462.0858329602514 L 334.9265243874371 462.08645786971385 L 334.68803352016664 462.08600466508466 L 334.44956460260875 462.08447339168396 L 334.2111414814566 462.0818642026377 L 333.9727879988235 462.0781773588627 L 333.73452798985915 462.0734132290403 L 333.4963852803659 462.0675722895794 L 333.25838368441623 462.06065512456917 L 333.0205470019714 462.05266242572037 L 332.78289901650146 462.0435949922961 L 332.5454634926069 462.03345373103224 L 332.3082641736423 462.0222396560465 L 332.07132477934186 462.0099538887369 L 331.8346690034476 461.99659765767007 L 331.59832051133975 461.9821722984579 L 331.36230293767073 461.9666792536243 L 331.1266398840012 461.9501200724609 L 330.89135491644004 461.932496410872 L 330.656471563288 461.913810031209 L 330.4220133126847 461.89406280209437 L 330.1880036102598 461.8732566982345 L 329.9544658567885 461.8513938002225 L 329.7214234058515 461.82847629432996 L 329.4888995614998 461.8045064722883 L 329.25691757592404 461.7794867310599 L 329.0255006471294 461.7534195725978 L 328.79467191661587 461.7263076035963 L 328.5644544670643 461.6981535352296 L 328.3348713200277 461.6689601828812 L 328.1059454336295 461.6387304658619 L 327.87769970026744 461.6074674071183 L 327.6501569443248 461.5751741329301 L 327.42333991988755 461.5418538725979 L 327.197271308469 461.50750995811995 L 326.97197371674207 461.4721458238591 L 326.747469674278 461.43576500619923 L 326.5237816312941 461.39837114319187 L 326.3009319564082 461.3599679741921 L 326.0789429344021 461.3205593394849 L 325.85783676399296 461.2801491799008 L 325.63763555561366 461.2387415364221 L 325.4183613292014 461.1963405497787 L 325.20003601199625 461.1529504600339 L 324.9826814363479 461.1085756061605 L 324.76631933753276 461.06322042560697 L 324.55097135158053 461.0168894538535 L 324.33665901311025 460.96958732395865 L 324.1234037531772 460.921318766096 L 323.9112268971296 460.8720886070812 L 323.70014966247635 460.82190176988905 L 323.490193156765 460.77076327316144 L 323.2813783754711 460.71867823070545 L 323.0737261998988 460.6656518509819 L 322.86725739509257 460.6116894365846 L 322.6619926077609 460.55679638371 L 322.45795236421145 460.50097818161765 L 322.25515706829856 460.4442404120813 L 322.05362699938274 460.38658874883055 L 321.85338231030306 460.32802895698364 L 321.65444302536145 460.2685668924711 L 321.45682903832073 460.2082085014497 L 321.2605601104148 460.14695981970834 L 321.06565586837297 460.08482697206404 L 320.8721358024571 460.0218161717499 L 320.68001926451234 459.95793371979335 L 320.4893254660325 459.89318600438645 L 320.3000734762385 459.8275795002467 L 320.1122822201716 459.7611207679699 L 319.92597047680096 459.6938164533738 L 319.74115687714556 459.6256732868339 L 319.55785990241145 459.55669808261 L 319.3760978821433 459.48689773816506 L 319.1958889923917 459.41627923347534 L 319.01725125389544 459.3448496303325 L 318.8402025302795 459.27261607163723 L 318.6647605262687 459.1995857806853 L 318.4909427859173 459.12576606044496 L 318.3187666908544 459.0511642928266 L 318.148249458546 458.975787937945 L 317.97940814057336 458.8996445333726 L 317.8122596209275 458.82274169338666 L 317.6468206143211 458.7450871082069 L 317.483107664517 458.6666885432272 L 317.32113714267365 458.5875538382387 L 317.1609252457083 458.507690906646 L 317.00248799467727 458.4271077346757 L 316.8458412331734 458.3458123805778 L 316.6910006257425 458.26381297382 L 316.5379816563162 458.1811177142746 L 316.38679962666396 458.0977348713987 L 316.2374696548627 458.01367278340706 L 316.0900066737852 457.92893985643843 L 315.9444254296066 457.8435445637149 L 315.80074048033015 457.7574954446946 L 315.65896619433096 457.67080110421773 L 315.5191167489195 457.5834702116461 L 315.38120612892374 457.4955114999961 L 315.2452481252908 457.40693376506573 L 315.1112563337077 457.3177458645545 L 314.97924415324195 457.22795671717836 L 314.8492247850016 457.1375753017771 L 314.72121123081513 457.0466106564169 L 314.59521629193125 456.9550718774865 L 314.4712525677389 456.8629681187876 L 314.34933245450713 456.77030859061927 L 314.22946814414576 456.6771025588571 L 314.11167162298585 456.5833593440266 L 313.9959546705814 456.4890883203711 L 313.8823288585312 456.3942989149145 L 313.7708055493218 456.29900060651823 L 313.6613958951911 456.2032029249338 L 313.55411083701347 456.10691544984957 L 313.4489611032052 456.01014780993273 L 313.34595720865207 455.91290968186667 L 313.2451094536578 455.8152107893832 L 313.14642792291374 455.71706090229003 L 313.04992248449076 455.6184698354942 L 312.95560278885233 455.5194474480201 L 312.8634782678893 455.42000364202414 L 312.77355813397713 455.32014836180394 L 312.6858513790542 455.21989159280434 L 312.60036677372295 455.11924336061867 L 312.5171128663726 455.01821372998626 L 312.4360979823246 454.916812803786 L 312.35733022299985 454.81505072202606 L 312.2808174651085 454.71293766082977 L 312.20656735986273 454.6104838314181 L 312.13458733221114 454.5076994790887 L 312.06488458009653 454.40459488219113 L 311.997466073736 454.30118035109916 L 311.932338554924 454.1974662271797 L 311.8695085363581 454.0934628817587 L 311.8089823009879 453.98918071508405 L 311.75076590138644 453.88463015528555 L 311.69486515914514 453.77982165733204 L 311.64128566429173 453.67476570198596 L 311.59003277473096 453.56947279475526 L 311.5411116157091 453.463953464843 L 311.4945270793013 453.35821826409415 L 311.4502838239223 453.2522777659408 L 311.4083862738609 453.1461425643443 L 311.3688386188371 453.03982327273656 L 311.3316448135835 452.933330522958 L 311.2968085774496 452.8266749641949 L 311.26433339403 452.71986726191426 L 311.234222510816 452.61291809679733 L 311.2064789388707 452.50583816367146 L 311.18110545252836 452.39863817044073 L 311.15810458911636 452.29132883701516 L 311.13747864870186 452.1839208942386 L 311.11922969386177 452.0764250828159 L 311.10335954947635 451.9688521522386 L 311.08986980254684 451.86121285971007 L 311.07876180203664 451.75351796906995 L 311.0700366587365 451.64577824971747 L 311.0636952451536 451.5380044755348 L 311.05973819542396 451.43020742380963 L 311.05816590524927 451.32239787415716" stroke-miterlimit="10" stroke-width="2.7769845610000004" stroke-dasharray=""/></g><g><g/><text fill="black" stroke="none" font-family="monospace" font-size="11pt" font-style="normal" font-weight="normal" text-decoration="normal" x="302.66699292493485" y="399.734990292" text-anchor="start" dominant-baseline="alphabetic" xml:space="preserve">Database</text></g></g><g><path fill="white" stroke="black" paint-order="fill stroke markers" d=" M 326.7399308257161 170.665177862 L 343.0751341257161 170.665177862 L 343.0751341257161 368.321137792 L 326.7399308257161 368.321137792 L 326.7399308257161 170.665177862" stroke-miterlimit="10" stroke-width="1.3612669416666667" stroke-dasharray=""/><path fill="white" stroke="black" paint-order="fill stroke markers" d=" M 73.50841485 170.665177862 L 89.84361814999998 170.665177862 L 89.84361814999998 368.321137792 L 73.50841485 368.321137792 L 73.50841485 170.665177862" stroke-miterlimit="10" stroke-width="1.3612669416666667" stroke-dasharray=""/><g><text fill="black" stroke="none" font-family="monospace" font-size="11pt" font-style="normal" font-weight="normal" text-decoration="normal" x="135.75056049860024" y="252.84381600199998" text-anchor="start" dominant-baseline="alphabetic" xml:space="preserve">clearOldAnalysis()</text></g><g><path fill="none" stroke="black" paint-order="fill stroke markers" d=" M 89.84361814999998 258.875275682 L 313.29061344204945 258.875275682" stroke-miterlimit="10" stroke-width="1.3612669416666667" stroke-dasharray=""/><g transform="translate(326.7399308257161,258.875275682) translate(-326.7399308257161,-258.875275682)"><path fill="black" stroke="none" paint-order="stroke fill markers" d=" M 313.1272614090494 252.06894097366666 L 326.7399308257161 258.875275682 L 313.1272614090494 265.68161039033333 Z"/></g></g><g><text fill="black" stroke="none" font-family="monospace" font-size="11pt" font-style="normal" font-weight="normal" text-decoration="normal" x="180.08130238092446" y="296.948864912" text-anchor="start" dominant-baseline="alphabetic" xml:space="preserve">success</text></g><g><path fill="none" stroke="black" paint-order="fill stroke markers" d=" M 326.7399308257161 302.980324592 L 103.29293553366665 302.980324592" stroke-miterlimit="10" stroke-width="1.3612669416666667" stroke-dasharray="6.53408132"/><g transform="translate(89.84361814999998,302.980324592) translate(-89.84361814999998,-302.980324592)"><path fill="black" stroke="none" paint-order="stroke fill markers" d=" M 103.45628756666665 296.17398988366665 L 89.84361814999998 302.980324592 L 103.45628756666665 309.7866593003333 Z"/></g></g><g><g/><path fill="none" stroke="black" paint-order="fill stroke markers" d=" M 16.33520329999999 195.167982812 L 392.0807440257161 195.167982812 L 392.0807440257161 327.483129542 L 16.33520329999999 327.483129542 L 16.33520329999999 195.167982812 Z" stroke-miterlimit="10" stroke-width="2.3336004714285714" stroke-dasharray=""/><path fill="white" stroke="black" paint-order="fill stroke markers" d=" M 16.33520329999999 195.167982812 L 16.33520329999999 214.770226772 L 74.80242386484375 214.770226772 L 84.60354584484375 204.969104792 L 84.60354584484375 195.167982812 L 16.33520329999999 195.167982812" stroke-miterlimit="10" stroke-width="2.3336004714285714" stroke-dasharray=""/><text fill="black" stroke="none" font-family="monospace" font-size="8.8pt" font-style="normal" font-weight="bold" text-decoration="normal" x="32.67040659999999" y="208.236145452" text-anchor="start" dominant-baseline="alphabetic" xml:space="preserve">loop</text><text fill="black" stroke="none" font-family="monospace" font-size="8.8pt" font-style="normal" font-weight="bold" text-decoration="normal" x="100.93874914484375" y="208.236145452" text-anchor="start" dominant-baseline="alphabetic" xml:space="preserve">[for every n days]</text></g></g><g/><g/></g></svg>