<svg version="1.1" xmlns="http://www.w3.org/2000/svg" xmlns:xlink="http://www.w3.org/1999/xlink" width="510" height="492"><desc>%23%20-----%20font%20-----%0Afontfamily%20monospace%0A%0A%23%20-----%20setup%20components%20-----%0Atitle%20CLEAR%20OLD%20ANALYSIS%0Aparticipantgroup%20%23e4fcd9%20Backend%20API%0Aboundary%20%23green%3A0.7%20Endpoint%0Aend%0A%0Adatabase%20Database%20%23pink%0A%0A%23%20-----%20to%20show%20bottom%20icons%20-----%0Abottomparticipants%0A%0A%23%20-----%20Activations%20-----%0Aactivate%20Database%0Aactivate%20Endpoint%0A%0A%23%20-----%20START%20OF%20SEQUENCE%20-----%0Aloop%20for%20every%20n%20days%0AEndpoint-%3EDatabase%3A%20clearTempAnalysis()%0ADatabase-%3EDatabase%3A%20Delete%20analysis%20records%0AEndpoint%3C--Database%3A%20None%0Aend%0A%23%20-----%20END%20OF%20SEQUENCE%20-----%0A%0A</desc><defs/><g><g/><g/><g/><g/><g><rect fill="white" stroke="none" x="0" y="0" width="510" height="492"/></g><g><text fill="black" stroke="none" font-family="monospace" font-size="15pt" font-style="normal" font-weight="normal" text-decoration="normal" x="156.3018117574219" y="18.8483115" text-anchor="start" dominant-baseline="alphabetic" xml:space="preserve">CLEAR OLD ANALYSIS</text></g><g><g><path fill="#e4fcd9" stroke="black" paint-order="fill stroke markers" d=" M 38.538369642187504 49.533362622 L 112.2481223578125 49.533362622 L 112.2481223578125 485.381717748 L 38.538369642187504 485.381717748 L 38.538369642187504 49.533362622" stroke-miterlimit="10" stroke-width="1.2565541" stroke-dasharray=""/></g><g><text fill="black" stroke="none" font-family="monospace" font-size="10pt" font-style="normal" font-weight="normal" text-decoration="normal" x="35.08436233300782" y="68.38167412199999" text-anchor="start" dominant-baseline="alphabetic" xml:space="preserve">Backend API</text></g></g><g><path fill="none" stroke="black" paint-order="fill stroke markers" d=" M 75.393246 144.101624188 L 75.393246 404.20832288800005" stroke-miterlimit="10" stroke-width="1.2565541" stroke-dasharray="11.598960923076923,5.0262164"/><path fill="none" stroke="black" paint-order="fill stroke markers" d=" M 291.7067244074219 144.101624188 L 291.7067244074219 404.20832288800005" stroke-miterlimit="10" stroke-width="1.2565541" stroke-dasharray="11.598960923076923,5.0262164"/></g><g><g><path fill="white" stroke="green" paint-order="fill stroke markers" d=" M 105.32436466200001 103.339009184 A 22.391794062000002 22.391794062000002 0 1 1 105.32435346610391 103.31661739366996 M 46.3593069654 80.0500354946 L 46.3593069654 126.62798287340001 M 45.462127338 103.339009184 L 60.540776538 103.339009184" stroke-miterlimit="10" stroke-width="1.7943592548" stroke-dasharray=""/></g><g><g/><text fill="black" stroke="none" font-family="monospace" font-size="10pt" font-style="normal" font-weight="normal" text-decoration="normal" x="46.077694242187505" y="139.578029428" text-anchor="start" dominant-baseline="alphabetic" xml:space="preserve">Endpoint</text></g><g><path fill="pink" stroke="black" paint-order="fill stroke markers" d=" M 269.69189657542194 117.06057995600001 L 269.69189657542194 85.39541663600001 L 313.7215522394219 85.39541663600001 L 313.7215522394219 117.06057995600001" stroke-miterlimit="10" stroke-width="2.5633703640000003" stroke-dasharray=""/><path fill="pink" stroke="black" paint-order="fill stroke markers" d=" M 313.7215522394219 84.29467524440001 L 313.7204515072031 84.3941926704769 L 313.7171494206191 84.49370014489409 L 313.7116463098757 84.5931877169871 L 313.7039427252794 84.69264543808161 L 313.69403943718225 84.79206336248839 L 313.6819374359049 84.89143154849786 L 313.6676379316373 84.9907400593742 L 313.6511423543179 85.08997896434911 L 313.63245235349086 85.18913833961477 L 313.6115697981405 85.28820826931629 L 313.5884967765051 85.38717884654325 L 313.5632355958676 85.48604017432042 L 313.53578878232486 85.58478236659741 L 313.5061590805355 85.68339554923726 L 313.4743494534449 85.78186986100388 L 313.4403630819894 85.88019545454817 L 313.40420336477774 85.97836249739271 L 313.3658739177515 86.07636117291501 L 313.32537857382346 86.1741816813292 L 313.2827213824943 86.27181424066595 L 313.2379066094475 86.36924908775069 L 313.19093873612314 86.46647647917989 L 313.14182245926935 86.56348669229543 L 313.0905626904729 86.66027002615687 L 313.0371645556679 86.75681680251144 L 312.9816333946235 86.85311736676199 L 312.9239747604093 86.94916208893233 L 312.86419441884084 87.04494136463028 L 312.80229834790237 87.14044561600808 L 312.7382927371495 87.23566529272018 L 312.67218398708985 87.33059087287829 L 312.60397870854337 87.42521286400346 L 312.53368372198116 87.51952180397544 L 312.4613060568432 87.61350826197882 L 312.38685295083576 87.70716283944614 L 312.31033184920733 87.80047617099768 L 312.23175040400434 87.89343892537806 L 312.1511164733058 87.9860418063893 L 312.06843812043763 88.07827555382046 L 311.9837236131662 88.17013094437367 L 311.89698142287165 88.26159879258641 L 311.8082202237007 88.3526699517501 L 311.71744889169935 88.44333531482471 L 311.62467650392506 88.53358581534948 L 311.5299123375394 88.62341242834957 L 311.43316586887994 88.71280617123853 L 311.33444677251305 88.80175810471657 L 311.23376492026597 88.89025933366447 L 311.13113038024017 88.97830100803309 L 311.02655341580396 89.06587432372834 L 310.92004448456674 89.15297052349166 L 310.81161423733283 89.23958089777562 L 310.70127351703667 89.325696785615 L 310.58903335765825 89.41130957549275 L 310.47490498312004 89.49641070620125 L 310.35889980616435 89.58099166769833 L 310.2410294272122 89.66504400195832 L 310.12130563320324 89.74855930381786 L 309.99974039641717 89.83152922181634 L 309.8763458732763 89.9139454590311 L 309.7511344031302 89.99579977390712 L 309.6241185070215 90.0770839810811 L 309.4953108864339 90.15778995220008 L 309.36472442202216 90.23790961673419 L 309.23237217232395 90.31743496278374 L 309.0982673724539 90.3963580378804 L 308.9624234327802 90.47467094978244 L 308.8248539375837 90.55236586726392 L 308.6855726436993 90.62943502089783 L 308.54459347914025 90.70587070383304 L 308.4019305417055 90.78166527256495 L 308.25759809756994 90.85681114769986 L 308.1116105798577 90.93130081471287 L 307.963982587199 91.00512682469935 L 307.8147288822699 91.0782817951198 L 307.66386439031663 91.15075841053819 L 307.51140419766267 91.22254942335334 L 307.3573635502002 91.29364765452382 L 307.2017578518656 91.36404599428573 L 307.044602663099 91.43373740286378 L 306.88591369928844 91.50271491117518 L 306.7257068291979 91.57097162152658 L 306.563998073381 91.63850070830382 L 306.4008036025785 91.70529541865452 L 306.2361397361015 91.7713490731633 L 306.07002294019946 91.83665506651971 L 305.90246982641355 91.90120686817889 L 305.7334971499155 91.96499802301445 L 305.56312180783203 92.02802215196405 L 305.39136083755557 92.09027295266735 L 305.2182314150399 92.15174420009612 L 305.043750853083 92.21242974717686 L 304.86793659959574 92.27232352540541 L 304.6908062358568 92.3314195454539 L 304.51237747475517 92.38971189776954 L 304.33266815901806 92.44719475316569 L 304.1516962594274 92.50386236340469 L 303.96947987302235 92.55970906177278 L 303.78603722128963 92.61472926364662 L 303.6013866483416 92.6689174670519 L 303.4155466190817 92.72226825321343 L 303.2285357173579 92.77477628709704 L 303.0403726441046 92.82643631794312 L 302.8510762154723 92.8772431797916 L 302.6606653609461 92.92719179199868 L 302.46915912145283 92.97627715974473 L 302.2765766474568 93.02449437453389 L 302.082937197045 93.07183861468486 L 301.88826013400103 93.11830514581308 L 301.69256492586896 93.16388932130417 L 301.49587114200654 93.20858658277855 L 301.2981984516283 93.25239246054733 L 301.0995666218385 93.29530257405922 L 300.8999955156546 93.33731263233865 L 300.6995050900209 93.3784184344148 L 300.4981153938129 93.4186158697417 L 300.2958465658324 93.45790091860933 L 300.09271883279365 93.49626965254554 L 299.88875250730064 93.53371823470889 L 299.68396798581597 93.57024292027239 L 299.4783857466212 93.60584005679792 L 299.2720263477688 93.6405060846015 L 299.0649104250268 93.6742375371092 L 298.85705868981483 93.70703104120392 L 298.64849192713325 93.73888331756257 L 298.43923099348444 93.76979118098404 L 298.22929681478746 93.79975154070776 L 298.0187103842852 93.82876140072273 L 297.8074927604452 93.8568178600671 L 297.59566506485385 93.88391811311833 L 297.3832484801042 93.9100594498737 L 297.1702642476777 93.93523925622131 L 296.95673366582014 93.95945501420152 L 296.7426780874117 93.9827043022587 L 296.5281189178319 94.00498479548344 L 296.31307761281886 94.02629426584495 L 296.0975756763239 94.04663058241398 L 295.88163465836107 94.0659917115758 L 295.66527615285224 94.08437571723366 L 295.4485217954676 94.10178076100229 L 295.2313932614624 94.11820510239181 L 295.0139122635089 94.13364709898178 L 294.7961005495259 94.14810520658541 L 294.57797990050307 94.16157797940399 L 294.3595721283237 94.17406407017145 L 294.1408990735829 94.18556223028914 L 293.92198260340393 94.19607130995061 L 293.70284460925143 94.20559025825666 L 293.4835070047422 94.2141181233204 L 293.26399172345384 94.22165405236242 L 293.0443207167316 94.2281972917961 L 292.82451595149314 94.23374718730295 L 292.60459940803173 94.23830318389804 L 292.38459307781847 94.24186482598552 L 292.16451896130303 94.24443175740413 L 291.94439906571375 94.24600372146287 L 291.7242554028567 94.24658056096665 L 291.5041099869147 94.246162218232 L 291.28398483224595 94.24474873509286 L 291.0639019511824 94.24234025289633 L 290.84388335182877 94.23893701248866 L 290.6239510358617 94.23453935419103 L 290.40412699632947 94.22914771776561 L 290.1844332154528 94.22276264237156 L 289.96489166242685 94.2153847665111 L 289.74552429122383 94.20701482796564 L 289.5263530383981 94.19765366372208 L 289.3073998208923 94.18730220988905 L 289.0886865338457 94.1759615016033 L 288.8702350484048 94.16363267292621 L 288.6520672095361 94.15031695673036 L 288.4342048338416 94.1360156845763 L 288.2166697073774 94.1207302865793 L 287.9994835834748 94.10446229126644 L 287.7826681805652 94.08721332542369 L 287.5662451800083 94.06898511393325 L 287.3502362239238 94.0497794796011 L 287.13466291302717 94.02959834297464 L 286.91954680447003 94.00844372215074 L 286.7049094096838 93.98631773257385 L 286.4907721922292 93.96322258682449 L 286.27715656564953 93.93916059439796 L 286.0640838913294 93.9141341614735 L 285.85157547635873 93.8881457906735 L 285.6396525714018 93.86119808081341 L 285.42833636857273 93.83329372664177 L 285.2176479993155 93.80443551857071 L 285.0076085322915 93.77462634239701 L 284.7982389712725 93.74386917901346 L 284.58956025304 93.71216710411073 L 284.38159324529204 93.67952328786993 L 284.174358744556 93.64594099464544 L 283.9678774741093 93.61142358263864 L 283.76217008190696 93.57597450356194 L 283.55725713851666 93.53959730229371 L 283.3531591350621 93.50229561652378 L 283.14989648117347 93.46407317638962 L 282.94748950294684 93.4249338041034 L 282.7459584409113 93.38488141356974 L 282.5453234480051 93.3439200099943 L 282.3456045875604 93.30205368948333 L 282.1468218312968 93.25928663863397 L 281.94899505732417 93.21562313411566 L 281.75214404815523 93.17106754224248 L 281.5562884887267 93.12562431853648 L 281.3614479644314 93.07929800728218 L 281.16764195915937 93.03209324107208 L 280.9748898533496 92.98401474034347 L 280.7832109220521 92.93506731290636 L 280.59262433300023 92.8852558534627 L 280.40314914469405 92.83458534311693 L 280.2148043044946 92.78306084887785 L 280.02760864672877 92.73068752315196 L 279.84158089080654 92.67747060322817 L 279.65673963934836 92.62341541075415 L 279.47310337632535 92.56852735120408 L 279.2906904652108 92.51281191333818 L 279.1095191471438 92.45627466865382 L 278.92960753910523 92.39892127082834 L 278.7509736321059 92.34075745515375 L 278.57363528938765 92.28178903796311 L 278.39761024463706 92.22202191604902 L 278.2229161002118 92.16146206607388 L 278.04957032538084 92.1001155439722 L 277.87759025457717 92.03798848434506 L 277.7069930856645 91.97508709984668 L 277.53779587821765 91.91141768056308 L 277.37001555181627 91.84698659338312 L 277.20366888435325 91.78180028136184 L 277.0387725103567 91.71586526307611 L 276.8753429193266 91.6491881319728 L 276.71339645408585 91.5817755557095 L 276.5529493091461 91.51363427548762 L 276.394017529088 91.44477110537842 L 276.2366170069572 91.37519293164151 L 276.0807634826748 91.30490671203628 L 275.9264725414632 91.23391947512613 L 275.7737596122881 91.1622383195756 L 275.62263996631503 91.0898704134405 L 275.4731287153827 91.01682299345113 L 275.32524081049166 90.94310336428863 L 275.17899104030914 90.86871889785448 L 275.03439402969025 90.79367703253334 L 274.8914642382155 90.7179852724492 L 274.7502159587451 90.641651186715 L 274.61066331598914 90.5646824086757 L 274.47282026509566 90.48708663514495 L 274.3367005902549 90.40887162563546 L 274.2023179033209 90.33004520158299 L 274.0696856424503 90.25061524556426 L 273.9388170707587 90.17058970050867 L 273.80972527499426 90.08997656890406 L 273.68242316422896 90.0087839119964 L 273.5569234685678 89.92701984898372 L 273.4332387378757 89.8446925562042 L 273.3113813405227 89.76181026631848 L 273.19136346214697 89.6783812674865 L 273.07319710443636 89.59441390253863 L 272.9568940839282 89.50991656814138 L 272.84246603082755 89.42489771395776 L 272.7299243878444 89.33936584180236 L 272.6192804090493 89.25332950479113 L 272.51054515874785 89.16679730648605 L 272.4037295103745 89.07977790003484 L 272.2988441454051 88.99227998730565 L 272.19589955228867 88.90431231801682 L 272.0949060253988 88.81588368886199 L 271.9958736640041 88.72700294263036 L 271.898812371258 88.63767896732251 L 271.803731853209 88.54792069526152 L 271.71064161782965 88.45773710219981 L 271.6195509740659 88.36713720642153 L 271.5304690309062 88.27613006784075 L 271.44340469647074 88.1847247870955 L 271.3583666771203 88.09293050463766 L 271.27536347658594 88.00075639981902 L 271.1944033951186 87.90821168997321 L 271.115494528659 87.81530562949413 L 271.03864476802795 87.72204750891038 L 270.9638617981375 87.62844665395632 L 270.8911530972223 87.53451242463943 L 270.8205259360918 87.44025421430437 L 270.75198737740345 87.34568144869364 L 270.6855442749558 87.25080358500496 L 270.62120327300386 87.15563011094567 L 270.55897080559413 87.06017054378383 L 270.4988530959215 86.96443442939662 L 270.44085615570685 86.86843134131571 L 270.38498578459587 86.7721708797699 L 270.33124756957915 86.67566267072513 L 270.27964688443336 86.57891636492188 L 270.23018888918403 86.4819416369101 L 270.18287852958946 86.38474818408177 L 270.1377205366462 86.28734572570121 L 270.0947194261159 86.18974400193306 L 270.0538794980738 86.0919527728684 L 270.0152048364787 85.9939818175486 L 269.9786993087644 85.89584093298757 L 269.9443665654534 85.79753993319198 L 269.9122100397913 85.69908864817991 L 269.88223294740396 85.60049692299779 L 269.8544382859756 85.501774616736 L 269.82882883494926 85.40293160154287 L 269.8054071552486 85.30397776163758 L 269.78417558902214 85.20492299232166 L 269.7651362594088 85.10577719898947 L 269.74829107032565 85.00655029613775 L 269.7336417062775 84.90725220637407 L 269.7211896321887 84.80789285942468 L 269.71093609325624 84.70848219114147 L 269.7028821148254 84.60903014250842 L 269.6970285022873 84.50954665864752 L 269.69337584099844 84.41004168782425 L 269.69192449622176 84.31052518045279 L 269.6926746130906 84.21100708810091 L 269.6956261165939 84.11149736249496 L 269.70077871158384 84.01200595452454 L 269.70813188280505 83.91254281324755 L 269.7176848949467 83.81311788489523 L 269.7294367927154 83.71374111187758 L 269.7433864009312 83.61442243178905 L 269.75953232464497 83.51517177641493 L 269.7778729492777 83.41599907073801 L 269.7984064407823 83.31691423194623 L 269.8211307458267 83.2179271684409 L 269.8460435919993 83.11904777884587 L 269.8731424880363 83.02028595101771 L 269.90242472407067 82.92165156105692 L 269.9338873719031 82.82315447232027 L 269.9675272852952 82.72480453443455 L 270.00334110028354 82.62661158231163 L 270.04132523551647 82.52858543516486 L 270.0814758926122 82.43073589552726 L 270.1237890565384 82.33307274827129 L 270.168260496014 82.23560575963027 L 270.21488576393205 82.13834467622183 L 270.26366019780465 82.04129922407328 L 270.31457892022905 81.94447910764896 L 270.36763683937545 81.84789400887982 L 270.4228286494961 81.75155358619524 L 270.4801488314561 81.65546747355724 L 270.5395916532849 81.55964527949698 L 270.6011511707499 81.46409658615403 L 270.66482122795065 81.3688309483181 L 270.73059545793444 81.27385789247359 L 270.7984672833332 81.17918691584691 L 270.8684299170209 81.08482748545687 L 270.94047636279237 80.99078903716786 L 271.01459941606316 80.89708097474633 L 271.09079166458974 80.80371266892047 L 271.1690454892107 80.71069345644301 L 271.24935306460884 80.61803263915772 L 271.33170636009345 80.52573948306909 L 271.4160971404037 80.43382321741582 L 271.50251696653186 80.34229303374788 L 271.59095719656733 80.25115808500738 L 271.68140898656077 80.16042748461321 L 271.7738632914086 80.07011030554983 L 271.8683108657574 79.9802155794599 L 271.96474226492836 79.89075229574107 L 272.06314784586203 79.80172940064719 L 272.1635177680822 79.71315579639356 L 272.2658419946804 79.62504034026684 L 272.37011029331916 79.53739184373916 L 272.47631223725557 79.45021907158716 L 272.5844372063837 79.36353074101541 L 272.6944743882967 79.27733552078473 L 272.8064127793682 79.1916420303453 L 272.92024118585226 79.10645883897477 L 273.03594822500315 79.02179446492129 L 273.1535223262133 78.93765737455169 L 273.27295173217067 78.85405598150491 L 273.3942245000341 78.7709986458506 L 273.51732850262795 78.68849367325308 L 273.6422514296545 78.60654931414088 L 273.7689807889251 78.52517376288162 L 273.8975039076095 78.44437515696261 L 274.0278079335029 78.3641615761771 L 274.15987983631135 78.28454104181634 L 274.29370640895456 78.2055215158674 L 274.42927426888684 78.12711090021705 L 274.5665698594351 78.04931703586149 L 274.7055794511548 77.97214770212234 L 274.8462891432025 77.89561061586866 L 274.98868486472634 77.8197134307453 L 275.1327523762728 77.74446373640752 L 275.27847727121076 77.66986905776204 L 275.4258449771722 77.59593685421459 L 275.57484075750926 77.52267451892388 L 275.7254497127682 77.4500893780624 L 275.87765678217886 77.37818869008376 L 276.03144674516125 77.30697964499683 L 276.1868042228471 77.23646936364678 L 276.34371367961825 77.16666489700299 L 276.5021594246597 77.09757322545394 L 276.662125613529 77.02920125810923 L 276.82359624974055 76.9615558321086 L 276.9865551863653 76.89464371193829 L 277.1509861276454 76.82847158875455 L 277.3168726306237 76.76304607971457 L 277.48419810678826 76.6983737273147 L 277.65294582373076 76.63446099873633 L 277.8230989068202 76.57131428519904 L 277.99464034089004 76.50893990132154 L 278.1675529719398 76.44734408449025 L 278.34181950885056 76.38653299423555 L 278.5174225251138 76.32651271161576 L 278.6943444605742 76.26728923860914 L 278.87256762318566 76.20886849751363 L 279.05207419078044 76.15125633035467 L 279.2328462128514 76.09445849830094 L 279.41486561234694 76.03848068108833 L 279.5981141874788 75.98332847645192 L 279.78257361354224 75.92900739956619 L 279.96822544474827 75.8755228824936 L 280.1550511160685 75.82288027364125 L 280.3430319450915 75.77108483722617 L 280.53214913389104 75.72014175274883 L 280.7223837709058 75.67005611447524 L 280.91371683283063 75.62083293092749 L 281.1061291865188 75.57247712438291 L 281.29960159089524 75.52499353038186 L 281.49411469888076 75.47838689724416 L 281.68964905932665 75.4326618855943 L 281.8861851189598 75.38782306789533 L 282.0837032243381 75.34387492799166 L 282.2821836238155 75.30082186066065 L 282.4816064695175 75.25866817117317 L 282.6819518193257 75.21741807486302 L 282.88319963887216 75.17707569670549 L 283.08532980354255 75.13764507090472 L 283.2883221004888 75.0991301404905 L 283.4921562306505 75.06153475692372 L 283.69681181078437 75.02486267971145 L 283.902268375503 74.98911757603081 L 284.1085053793212 74.95430302036242 L 284.3155021987103 74.9204224941328 L 284.523238134161 74.88747938536636 L 284.73169241225276 74.85547698834652 L 284.94084418773156 74.82441850328632 L 285.1506725455941 74.79430703600838 L 285.3611565031794 74.76514559763432 L 285.57227501226726 74.73693710428368 L 285.7840069611826 74.7096843767823 L 285.99633117690695 74.68339014038024 L 286.20922642719574 74.65805702447918 L 286.4226714227013 74.63368756236963 L 286.636644819102 74.6102841909775 L 286.85112521923645 74.5878492506204 L 287.0660911752434 74.56638498477368 L 287.28152119070637 74.54589353984605 L 287.4973937228034 74.52637696496491 L 287.7136871844611 74.5078372117715 L 287.93037994651354 74.49027613422568 L 288.1474503398652 74.47369548842056 L 288.36487665765753 74.45809693240693 L 288.58263715743993 74.44348202602737 L 288.800710063344 74.42985223076036 L 289.0190735682608 74.41720890957404 L 289.23770583602175 74.40555332679001 L 289.4565850035824 74.39488664795684 L 289.6756891832083 74.38520993973351 L 289.8949964646641 74.3765241697828 L 290.1144849174044 74.36883020667445 L 290.3341325927668 74.36212881979834 L 290.5539175261669 74.35642067928762 L 290.7738177392945 74.35170635595155 L 290.99381124231144 74.34798632121856 L 291.21387603605075 74.34526094708899 L 291.43399011421656 74.343530506098 L 291.6541314655844 74.34279517128826 L 291.8742780762026 74.34305501619261 L 292.09440793159354 74.3443100148268 L 292.3144990189551 74.34656004169202 L 292.534529329362 74.34980487178741 L 292.7544768599666 74.35404418063273 L 292.974319616199 74.35927754430057 L 293.19403561396683 74.36550443945896 L 293.4136028818535 74.37272424342356 L 293.63299946331506 74.38093623421999 L 293.8522034188763 74.39013959065602 L 294.0711928283243 74.40033339240367 L 294.28994579290054 74.41151662009126 L 294.50844043749095 74.42368815540536 L 294.7266549128131 74.43684678120255 L 294.9445673976013 74.45099118163122 L 295.16215610078865 74.46611994226313 L 295.3793992636862 74.48223155023483 L 295.5962751621587 74.49932439439894 L 295.812762108797 74.51739676548527 L 296.0288384550868 74.5364468562718 L 296.24448259357365 74.55647276176529 L 296.45967296002334 74.57747247939193 L 296.6743880355785 74.5994439091974 L 296.88860634891057 74.62238485405709 L 297.1023064783667 74.64629301989558 L 297.31546705411205 74.67116601591623 L 297.5280667602667 74.69700135484015 L 297.7400843370371 74.72379645315502 L 297.95149858284236 74.7515486313733 L 298.16228835643403 74.78025511430029 L 298.3724325790105 74.80991303131164 L 298.5819102363244 74.84051941664036 L 298.7907003807848 74.87207120967342 L 298.9987821335512 74.90456525525781 L 299.20613468662157 74.93799830401603 L 299.4127373049136 74.9723670126711 L 299.61856932833746 75.00766794438078 L 299.82361017386245 75.04389756908131 L 300.02783933757485 75.08105226384042 L 300.2312363967285 75.11912831321959 L 300.4337810117869 75.15812190964562 L 300.6354529284574 75.19802915379134 L 300.8362319797164 75.23884605496562 L 301.0360980878261 75.28056853151234 L 301.23503126634216 75.32319241121863 L 301.43301162211253 75.36671343173202 L 301.6300193572667 75.41112724098673 L 301.8260347711953 75.45642939763884 L 302.02103826252016 75.50261537151046 L 302.21501033105477 75.54968054404267 L 302.40793157975395 75.59762020875746 L 302.59978271665346 75.64642957172828 L 302.7905445567996 75.69610375205951 L 302.9801980241673 75.74663778237453 L 303.1687241535679 75.79802660931242 L 303.3561040925454 75.85026509403329 L 303.5423191032623 75.90334801273222 L 303.7273505643725 75.95727005716157 L 303.91117997288416 76.01202583516182 L 304.0937889460097 76.06760987120082 L 304.2751592230038 76.12401660692126 L 304.45527266699 76.1812404016966 L 304.6341112667741 76.23927553319503 L 304.811657138645 76.29811619795177 L 304.98789252816346 76.35775651194938 L 305.16279981193753 76.41819051120616 L 305.33636149938445 76.47941215237255 L 305.5085602344802 76.54141531333543 L 305.67937879749473 76.60419379383039 L 305.8488001067141 76.66774131606171 L 306.01680722014856 76.73205152533009 L 306.18338333722676 76.79711799066821 L 306.3485118004759 76.86293420548378 L 306.5121760971871 76.92949358821012 L 306.67435986106716 76.99678948296446 L 306.83504687387483 77.0648151602134 L 306.9942210670428 77.13356381744589 L 307.15186652328435 77.2030285798535 L 307.30796747818516 77.27320250101788 L 307.4625083217799 77.34407856360538 L 307.61547360011303 77.41564968006882 L 307.76684801678414 77.4879086933562 L 307.91661643447765 77.5608483776264 L 308.0647638764767 77.63446143897177 L 308.21127552816046 77.70874051614751 L 308.35613673848593 77.78367818130782 L 308.49933302145274 77.85926694074864 L 308.6408500575519 77.93549923565699 L 308.78067369519783 78.01236744286692 L 308.91878995214324 78.08986387562177 L 309.0551850168775 78.16798078434283 L 309.1898452500078 78.24671035740434 L 309.32275718562306 78.3260447219146 L 309.45390753264047 78.40597594450325 L 309.5832831761346 78.48649603211467 L 309.71087117864903 78.56759693280719 L 309.8366587814897 78.6492705365583 L 309.9606334060012 78.73150867607573 L 310.0827826548243 78.81430312761402 L 310.2030943131361 78.89764561179703 L 310.3215563498709 78.9815277944458 L 310.4381569189237 79.06594128741195 L 310.5528843603349 79.15087764941653 L 310.66572720145587 79.23632838689413 L 310.7766741580965 79.3222849548422 L 310.8857141356537 79.4087387576756 L 310.99283623022046 79.49568115008604 L 311.0980297296767 79.58310343790679 L 311.20128411476 79.67099687898188 L 311.30258906011807 79.75935268404046 L 311.4019344353407 79.84816201757566 L 311.4993103059731 79.93741599872811 L 311.5947069345095 80.02710570217411 L 311.6881147813663 80.11722215901803 L 311.77952450583695 80.20775635768929 L 311.868926967025 80.29869924484346 L 311.95631322475884 80.39004172626763 L 312.0416745404856 80.48177466778975 L 312.12500237814476 80.57388889619213 L 312.206288405022 80.66637520012868 L 312.2855244925824 80.75922433104608 L 312.36270271728324 80.85242700410863 L 312.43781536136635 80.94597389912667 L 312.51085491362994 81.03985566148867 L 312.5818140701796 81.13406290309662 L 312.65068573515885 81.22858620330486 L 312.7174630214585 81.32341610986214 L 312.78213925140574 81.41854313985684 L 312.8447079574313 81.51395778066522 L 312.9051628827168 81.60965049090272 L 312.96349798182007 81.70561170137806 L 313.01970742127986 81.80183181605015 L 313.073785580199 81.89830121298772 L 313.1257270508067 81.99501024533144 L 313.17552663899914 82.0919492422587 L 313.22317936485905 82.18910850995059 L 313.26868046315354 82.28647833256127 L 313.3120253838107 82.38404897318965 L 313.35320979237457 82.48181067485297 L 313.39222957043864 82.57975366146252 L 313.42908081605754 82.67786813880127 L 313.46375984413754 82.77614429550326 L 313.49626318680464 82.87457230403469 L 313.52658759375174 82.97314232167673 L 313.5547300325633 83.0718444915098 L 313.580687689019 83.17066894339911 L 313.60445796737474 83.26960579498186 L 313.6260384906226 83.36864515265532 L 313.6454271007281 83.46777711256628 L 313.66262185884653 83.56699176160133 L 313.67762104551633 83.66627917837828 L 313.6904231608313 83.76562943423815 L 313.7010269245906 83.86503259423817 L 313.70943127642676 83.96447871814517 L 313.7156353759115 84.06395786142964 L 313.71963860264015 84.16346007626014 L 313.72144055629326 84.26297541249811 M 313.7215522394219 115.95983856440002 L 313.7204515072031 116.0593559904769 L 313.7171494206191 116.1588634648941 L 313.7116463098757 116.25835103698711 L 313.7039427252794 116.35780875808162 L 313.69403943718225 116.4572266824884 L 313.6819374359049 116.55659486849787 L 313.6676379316373 116.65590337937421 L 313.6511423543179 116.75514228434912 L 313.63245235349086 116.85430165961478 L 313.6115697981405 116.95337158931629 L 313.5884967765051 117.05234216654326 L 313.5632355958676 117.15120349432043 L 313.53578878232486 117.24994568659741 L 313.5061590805355 117.34855886923727 L 313.4743494534449 117.44703318100389 L 313.4403630819894 117.54535877454818 L 313.40420336477774 117.64352581739271 L 313.3658739177515 117.74152449291502 L 313.32537857382346 117.8393450013292 L 313.2827213824943 117.93697756066595 L 313.2379066094475 118.0344124077507 L 313.19093873612314 118.1316397991799 L 313.14182245926935 118.22865001229543 L 313.0905626904729 118.32543334615687 L 313.0371645556679 118.42198012251144 L 312.9816333946235 118.518280686762 L 312.9239747604093 118.61432540893233 L 312.86419441884084 118.71010468463028 L 312.80229834790237 118.80560893600808 L 312.7382927371495 118.90082861272019 L 312.67218398708985 118.9957541928783 L 312.60397870854337 119.09037618400346 L 312.53368372198116 119.18468512397544 L 312.4613060568432 119.27867158197883 L 312.38685295083576 119.37232615944615 L 312.31033184920733 119.46563949099769 L 312.23175040400434 119.55860224537807 L 312.1511164733058 119.6512051263893 L 312.06843812043763 119.74343887382047 L 311.9837236131662 119.83529426437367 L 311.89698142287165 119.92676211258642 L 311.8082202237007 120.0178332717501 L 311.71744889169935 120.10849863482471 L 311.62467650392506 120.19874913534949 L 311.5299123375394 120.28857574834957 L 311.43316586887994 120.37796949123853 L 311.33444677251305 120.46692142471657 L 311.23376492026597 120.55542265366448 L 311.13113038024017 120.64346432803309 L 311.02655341580396 120.73103764372834 L 310.92004448456674 120.81813384349167 L 310.81161423733283 120.90474421777563 L 310.70127351703667 120.990860105615 L 310.58903335765825 121.07647289549276 L 310.47490498312004 121.16157402620125 L 310.35889980616435 121.24615498769833 L 310.2410294272122 121.33020732195833 L 310.12130563320324 121.41372262381786 L 309.99974039641717 121.49669254181634 L 309.8763458732763 121.5791087790311 L 309.7511344031302 121.66096309390713 L 309.6241185070215 121.74224730108111 L 309.4953108864339 121.82295327220008 L 309.36472442202216 121.90307293673419 L 309.23237217232395 121.98259828278374 L 309.0982673724539 122.06152135788041 L 308.9624234327802 122.13983426978244 L 308.8248539375837 122.21752918726392 L 308.6855726436993 122.29459834089783 L 308.54459347914025 122.37103402383305 L 308.4019305417055 122.44682859256496 L 308.25759809756994 122.52197446769986 L 308.1116105798577 122.59646413471287 L 307.963982587199 122.67029014469935 L 307.8147288822699 122.74344511511981 L 307.66386439031663 122.8159217305382 L 307.51140419766267 122.88771274335335 L 307.3573635502002 122.95881097452383 L 307.2017578518656 123.02920931428574 L 307.044602663099 123.09890072286379 L 306.88591369928844 123.16787823117518 L 306.7257068291979 123.23613494152659 L 306.563998073381 123.30366402830383 L 306.4008036025785 123.37045873865452 L 306.2361397361015 123.4365123931633 L 306.07002294019946 123.50181838651972 L 305.90246982641355 123.5663701881789 L 305.7334971499155 123.63016134301445 L 305.56312180783203 123.69318547196406 L 305.39136083755557 123.75543627266735 L 305.2182314150399 123.81690752009612 L 305.043750853083 123.87759306717686 L 304.86793659959574 123.93748684540542 L 304.6908062358568 123.9965828654539 L 304.51237747475517 124.05487521776955 L 304.33266815901806 124.1123580731657 L 304.1516962594274 124.1690256834047 L 303.96947987302235 124.22487238177278 L 303.78603722128963 124.27989258364663 L 303.6013866483416 124.3340807870519 L 303.4155466190817 124.38743157321343 L 303.2285357173579 124.43993960709705 L 303.0403726441046 124.49159963794312 L 302.8510762154723 124.54240649979161 L 302.6606653609461 124.59235511199869 L 302.46915912145283 124.64144047974473 L 302.2765766474568 124.68965769453389 L 302.082937197045 124.73700193468487 L 301.88826013400103 124.78346846581309 L 301.69256492586896 124.82905264130417 L 301.49587114200654 124.87374990277856 L 301.2981984516283 124.91755578054733 L 301.0995666218385 124.96046589405923 L 300.8999955156546 125.00247595233866 L 300.6995050900209 125.0435817544148 L 300.4981153938129 125.0837791897417 L 300.2958465658324 125.12306423860933 L 300.09271883279365 125.16143297254554 L 299.88875250730064 125.19888155470889 L 299.68396798581597 125.2354062402724 L 299.4783857466212 125.27100337679792 L 299.2720263477688 125.3056694046015 L 299.0649104250268 125.33940085710921 L 298.85705868981483 125.37219436120392 L 298.64849192713325 125.40404663756257 L 298.43923099348444 125.43495450098405 L 298.22929681478746 125.46491486070776 L 298.0187103842852 125.49392472072273 L 297.8074927604452 125.5219811800671 L 297.59566506485385 125.54908143311833 L 297.3832484801042 125.5752227698737 L 297.1702642476777 125.60040257622131 L 296.95673366582014 125.62461833420153 L 296.7426780874117 125.6478676222587 L 296.5281189178319 125.67014811548344 L 296.31307761281886 125.69145758584496 L 296.0975756763239 125.71179390241399 L 295.88163465836107 125.73115503157581 L 295.66527615285224 125.74953903723366 L 295.4485217954676 125.7669440810023 L 295.2313932614624 125.78336842239182 L 295.0139122635089 125.79881041898179 L 294.7961005495259 125.81326852658542 L 294.57797990050307 125.82674129940399 L 294.3595721283237 125.83922739017146 L 294.1408990735829 125.85072555028914 L 293.92198260340393 125.86123462995062 L 293.70284460925143 125.87075357825667 L 293.4835070047422 125.87928144332041 L 293.26399172345384 125.88681737236243 L 293.0443207167316 125.89336061179611 L 292.82451595149314 125.89891050730296 L 292.60459940803173 125.90346650389804 L 292.38459307781847 125.90702814598552 L 292.16451896130303 125.90959507740413 L 291.94439906571375 125.91116704146287 L 291.7242554028567 125.91174388096665 L 291.5041099869147 125.911325538232 L 291.28398483224595 125.90991205509286 L 291.0639019511824 125.90750357289633 L 290.84388335182877 125.90410033248867 L 290.6239510358617 125.89970267419103 L 290.40412699632947 125.89431103776562 L 290.1844332154528 125.88792596237157 L 289.96489166242685 125.8805480865111 L 289.74552429122383 125.87217814796564 L 289.5263530383981 125.86281698372208 L 289.3073998208923 125.85246552988906 L 289.0886865338457 125.8411248216033 L 288.8702350484048 125.82879599292622 L 288.6520672095361 125.81548027673037 L 288.4342048338416 125.8011790045763 L 288.2166697073774 125.78589360657931 L 287.9994835834748 125.76962561126645 L 287.7826681805652 125.7523766454237 L 287.5662451800083 125.73414843393326 L 287.3502362239238 125.7149427996011 L 287.13466291302717 125.69476166297464 L 286.91954680447003 125.67360704215075 L 286.7049094096838 125.65148105257386 L 286.4907721922292 125.62838590682449 L 286.27715656564953 125.60432391439797 L 286.0640838913294 125.5792974814735 L 285.85157547635873 125.55330911067351 L 285.6396525714018 125.52636140081341 L 285.42833636857273 125.49845704664178 L 285.2176479993155 125.46959883857072 L 285.0076085322915 125.43978966239702 L 284.7982389712725 125.40903249901346 L 284.58956025304 125.37733042411074 L 284.38159324529204 125.34468660786993 L 284.174358744556 125.31110431464545 L 283.9678774741093 125.27658690263864 L 283.76217008190696 125.24113782356194 L 283.55725713851666 125.20476062229372 L 283.3531591350621 125.16745893652379 L 283.14989648117347 125.12923649638962 L 282.94748950294684 125.09009712410341 L 282.7459584409113 125.05004473356975 L 282.5453234480051 125.00908332999431 L 282.3456045875604 124.96721700948333 L 282.1468218312968 124.92444995863397 L 281.94899505732417 124.88078645411566 L 281.75214404815523 124.83623086224249 L 281.5562884887267 124.79078763853649 L 281.3614479644314 124.74446132728218 L 281.16764195915937 124.69725656107208 L 280.9748898533496 124.64917806034347 L 280.7832109220521 124.60023063290636 L 280.59262433300023 124.5504191734627 L 280.40314914469405 124.49974866311693 L 280.2148043044946 124.44822416887786 L 280.02760864672877 124.39585084315196 L 279.84158089080654 124.34263392322818 L 279.65673963934836 124.28857873075415 L 279.47310337632535 124.23369067120409 L 279.2906904652108 124.17797523333819 L 279.1095191471438 124.12143798865382 L 278.92960753910523 124.06408459082834 L 278.7509736321059 124.00592077515375 L 278.57363528938765 123.94695235796311 L 278.39761024463706 123.88718523604902 L 278.2229161002118 123.82662538607389 L 278.04957032538084 123.7652788639722 L 277.87759025457717 123.70315180434507 L 277.7069930856645 123.64025041984668 L 277.53779587821765 123.57658100056308 L 277.37001555181627 123.51214991338313 L 277.20366888435325 123.44696360136184 L 277.0387725103567 123.38102858307612 L 276.8753429193266 123.31435145197281 L 276.71339645408585 123.2469388757095 L 276.5529493091461 123.17879759548762 L 276.394017529088 123.10993442537843 L 276.2366170069572 123.04035625164151 L 276.0807634826748 122.97007003203629 L 275.9264725414632 122.89908279512613 L 275.7737596122881 122.8274016395756 L 275.62263996631503 122.7550337334405 L 275.4731287153827 122.68198631345113 L 275.32524081049166 122.60826668428864 L 275.17899104030914 122.53388221785448 L 275.03439402969025 122.45884035253334 L 274.8914642382155 122.3831485924492 L 274.7502159587451 122.306814506715 L 274.61066331598914 122.2298457286757 L 274.47282026509566 122.15224995514495 L 274.3367005902549 122.07403494563546 L 274.2023179033209 121.995208521583 L 274.0696856424503 121.91577856556427 L 273.9388170707587 121.83575302050868 L 273.80972527499426 121.75513988890407 L 273.68242316422896 121.67394723199641 L 273.5569234685678 121.59218316898372 L 273.4332387378757 121.5098558762042 L 273.3113813405227 121.42697358631848 L 273.19136346214697 121.3435445874865 L 273.07319710443636 121.25957722253864 L 272.9568940839282 121.17507988814138 L 272.84246603082755 121.09006103395777 L 272.7299243878444 121.00452916180237 L 272.6192804090493 120.91849282479113 L 272.51054515874785 120.83196062648605 L 272.4037295103745 120.74494122003485 L 272.2988441454051 120.65744330730566 L 272.19589955228867 120.56947563801683 L 272.0949060253988 120.48104700886199 L 271.9958736640041 120.39216626263037 L 271.898812371258 120.30284228732252 L 271.803731853209 120.21308401526153 L 271.71064161782965 120.12290042219982 L 271.6195509740659 120.03230052642154 L 271.5304690309062 119.94129338784076 L 271.44340469647074 119.84988810709551 L 271.3583666771203 119.75809382463767 L 271.27536347658594 119.66591971981903 L 271.1944033951186 119.57337500997322 L 271.115494528659 119.48046894949414 L 271.03864476802795 119.38721082891038 L 270.9638617981375 119.29360997395632 L 270.8911530972223 119.19967574463944 L 270.8205259360918 119.10541753430438 L 270.75198737740345 119.01084476869364 L 270.6855442749558 118.91596690500496 L 270.62120327300386 118.82079343094567 L 270.55897080559413 118.72533386378383 L 270.4988530959215 118.62959774939662 L 270.44085615570685 118.53359466131572 L 270.38498578459587 118.43733419976991 L 270.33124756957915 118.34082599072514 L 270.27964688443336 118.24407968492189 L 270.23018888918403 118.1471049569101 L 270.18287852958946 118.04991150408178 L 270.1377205366462 117.95250904570122 L 270.0947194261159 117.85490732193307 L 270.0538794980738 117.7571160928684 L 270.0152048364787 117.6591451375486 L 269.9786993087644 117.56100425298757 L 269.9443665654534 117.46270325319199 L 269.9122100397913 117.36425196817991 L 269.88223294740396 117.2656602429978 L 269.8544382859756 117.166937936736 L 269.82882883494926 117.06809492154288 L 269.8054071552486 116.96914108163759 L 269.78417558902214 116.87008631232166 L 269.7651362594088 116.77094051898948 L 269.74829107032565 116.67171361613775 L 269.7336417062775 116.57241552637407 L 269.7211896321887 116.47305617942469 L 269.71093609325624 116.37364551114148 L 269.7028821148254 116.27419346250842 L 269.6970285022873 116.17470997864753 L 269.69337584099844 116.07520500782425 L 269.69192449622176 115.97568850045279" stroke-miterlimit="10" stroke-width="2.5633703640000003" stroke-dasharray=""/></g><g><g/><text fill="black" stroke="none" font-family="monospace" font-size="10pt" font-style="normal" font-weight="normal" text-decoration="normal" x="262.3911726496094" y="139.578029428" text-anchor="start" dominant-baseline="alphabetic" xml:space="preserve">Database</text></g><g><path fill="white" stroke="green" paint-order="fill stroke markers" d=" M 105.32436466200001 446.252623074 A 22.391794062000002 22.391794062000002 0 1 1 105.32435346610391 446.2302312836699 M 46.3593069654 422.96364938459993 L 46.3593069654 469.54159676340004 M 45.462127338 446.252623074 L 60.540776538 446.252623074" stroke-miterlimit="10" stroke-width="1.7943592548" stroke-dasharray=""/></g><g><g/><text fill="black" stroke="none" font-family="monospace" font-size="10pt" font-style="normal" font-weight="normal" text-decoration="normal" x="46.077694242187505" y="416.77386388800005" text-anchor="start" dominant-baseline="alphabetic" xml:space="preserve">Endpoint</text></g><g><path fill="pink" stroke="black" paint-order="fill stroke markers" d=" M 269.69189657542194 465.477900804 L 269.69189657542194 433.812737484 L 313.7215522394219 433.812737484 L 313.7215522394219 465.477900804" stroke-miterlimit="10" stroke-width="2.5633703640000003" stroke-dasharray=""/><path fill="pink" stroke="black" paint-order="fill stroke markers" d=" M 313.7215522394219 432.7119960924 L 313.7204515072031 432.8115135184769 L 313.7171494206191 432.91102099289407 L 313.7116463098757 433.0105085649871 L 313.7039427252794 433.1099662860816 L 313.69403943718225 433.2093842104884 L 313.6819374359049 433.3087523964978 L 313.6676379316373 433.4080609073742 L 313.6511423543179 433.5072998123491 L 313.63245235349086 433.60645918761475 L 313.6115697981405 433.7055291173163 L 313.5884967765051 433.80449969454327 L 313.5632355958676 433.90336102232044 L 313.53578878232486 434.0021032145974 L 313.5061590805355 434.10071639723725 L 313.4743494534449 434.19919070900386 L 313.4403630819894 434.29751630254816 L 313.40420336477774 434.3956833453927 L 313.3658739177515 434.493682020915 L 313.32537857382346 434.5915025293292 L 313.2827213824943 434.6891350886659 L 313.2379066094475 434.78656993575066 L 313.19093873612314 434.8837973271799 L 313.14182245926935 434.9808075402954 L 313.0905626904729 435.07759087415684 L 313.0371645556679 435.17413765051145 L 312.9816333946235 435.27043821476195 L 312.9239747604093 435.3664829369323 L 312.86419441884084 435.46226221263026 L 312.80229834790237 435.55776646400807 L 312.7382927371495 435.6529861407202 L 312.67218398708985 435.7479117208783 L 312.60397870854337 435.84253371200344 L 312.53368372198116 435.93684265197544 L 312.4613060568432 436.0308291099788 L 312.38685295083576 436.1244836874461 L 312.31033184920733 436.21779701899766 L 312.23175040400434 436.31075977337804 L 312.1511164733058 436.4033626543893 L 312.06843812043763 436.4955964018204 L 311.9837236131662 436.58745179237366 L 311.89698142287165 436.6789196405864 L 311.8082202237007 436.7699907997501 L 311.71744889169935 436.8606561628247 L 311.62467650392506 436.9509066633495 L 311.5299123375394 437.04073327634956 L 311.43316586887994 437.1301270192385 L 311.33444677251305 437.2190789527166 L 311.23376492026597 437.30758018166443 L 311.13113038024017 437.3956218560331 L 311.02655341580396 437.4831951717283 L 310.92004448456674 437.57029137149163 L 310.81161423733283 437.6569017457756 L 310.70127351703667 437.743017633615 L 310.58903335765825 437.82863042349277 L 310.47490498312004 437.9137315542012 L 310.35889980616435 437.99831251569833 L 310.2410294272122 438.0823648499583 L 310.12130563320324 438.1658801518178 L 309.99974039641717 438.24885006981634 L 309.8763458732763 438.3312663070311 L 309.7511344031302 438.4131206219071 L 309.6241185070215 438.4944048290811 L 309.4953108864339 438.57511080020004 L 309.36472442202216 438.6552304647342 L 309.23237217232395 438.7347558107837 L 309.0982673724539 438.8136788858804 L 308.9624234327802 438.8919917977824 L 308.8248539375837 438.9696867152639 L 308.6855726436993 439.04675586889783 L 308.54459347914025 439.12319155183303 L 308.4019305417055 439.19898612056494 L 308.25759809756994 439.27413199569986 L 308.1116105798577 439.34862166271284 L 307.963982587199 439.4224476726993 L 307.8147288822699 439.4956026431198 L 307.66386439031663 439.5680792585382 L 307.51140419766267 439.63987027135335 L 307.3573635502002 439.7109685025238 L 307.2017578518656 439.7813668422857 L 307.044602663099 439.8510582508638 L 306.88591369928844 439.92003575917516 L 306.7257068291979 439.9882924695266 L 306.563998073381 440.05582155630384 L 306.4008036025785 440.1226162666545 L 306.2361397361015 440.1886699211633 L 306.07002294019946 440.2539759145197 L 305.90246982641355 440.3185277161789 L 305.7334971499155 440.38231887101443 L 305.56312180783203 440.44534299996405 L 305.39136083755557 440.50759380066734 L 305.2182314150399 440.5690650480961 L 305.043750853083 440.62975059517686 L 304.86793659959574 440.68964437340543 L 304.6908062358568 440.7487403934539 L 304.51237747475517 440.8070327457695 L 304.33266815901806 440.8645156011657 L 304.1516962594274 440.9211832114047 L 303.96947987302235 440.9770299097728 L 303.78603722128963 441.03205011164664 L 303.6013866483416 441.0862383150519 L 303.4155466190817 441.1395891012134 L 303.2285357173579 441.192097135097 L 303.0403726441046 441.2437571659431 L 302.8510762154723 441.2945640277916 L 302.6606653609461 441.3445126399987 L 302.46915912145283 441.39359800774474 L 302.2765766474568 441.4418152225339 L 302.082937197045 441.4891594626848 L 301.88826013400103 441.5356259938131 L 301.69256492586896 441.58121016930414 L 301.49587114200654 441.6259074307785 L 301.2981984516283 441.66971330854733 L 301.0995666218385 441.7126234220592 L 300.8999955156546 441.75463348033867 L 300.6995050900209 441.7957392824148 L 300.4981153938129 441.8359367177417 L 300.2958465658324 441.87522176660934 L 300.09271883279365 441.9135905005455 L 299.88875250730064 441.95103908270886 L 299.68396798581597 441.98756376827237 L 299.4783857466212 442.0231609047979 L 299.2720263477688 442.0578269326015 L 299.0649104250268 442.0915583851092 L 298.85705868981483 442.1243518892039 L 298.64849192713325 442.15620416556254 L 298.43923099348444 442.187112028984 L 298.22929681478746 442.2170723887078 L 298.0187103842852 442.2460822487227 L 297.8074927604452 442.2741387080671 L 297.59566506485385 442.3012389611183 L 297.3832484801042 442.3273802978737 L 297.1702642476777 442.3525601042213 L 296.95673366582014 442.3767758622015 L 296.7426780874117 442.40002515025867 L 296.5281189178319 442.4223056434834 L 296.31307761281886 442.44361511384494 L 296.0975756763239 442.46395143041394 L 295.88163465836107 442.4833125595758 L 295.66527615285224 442.50169656523366 L 295.4485217954676 442.5191016090023 L 295.2313932614624 442.5355259503918 L 295.0139122635089 442.55096794698176 L 294.7961005495259 442.5654260545854 L 294.57797990050307 442.578898827404 L 294.3595721283237 442.59138491817146 L 294.1408990735829 442.6028830782891 L 293.92198260340393 442.6133921579506 L 293.70284460925143 442.62291110625665 L 293.4835070047422 442.6314389713204 L 293.26399172345384 442.6389749003624 L 293.0443207167316 442.6455181397961 L 292.82451595149314 442.65106803530296 L 292.60459940803173 442.655624031898 L 292.38459307781847 442.6591856739855 L 292.16451896130303 442.6617526054041 L 291.94439906571375 442.6633245694629 L 291.7242554028567 442.66390140896664 L 291.5041099869147 442.663483066232 L 291.28398483224595 442.66206958309283 L 291.0639019511824 442.6596611008963 L 290.84388335182877 442.65625786048867 L 290.6239510358617 442.651860202191 L 290.40412699632947 442.6464685657656 L 290.1844332154528 442.6400834903715 L 289.96489166242685 442.63270561451105 L 289.74552429122383 442.62433567596565 L 289.5263530383981 442.6149745117221 L 289.3073998208923 442.60462305788906 L 289.0886865338457 442.59328234960327 L 288.8702350484048 442.5809535209262 L 288.6520672095361 442.56763780473034 L 288.4342048338416 442.5533365325763 L 288.2166697073774 442.5380511345793 L 287.9994835834748 442.5217831392664 L 287.7826681805652 442.5045341734237 L 287.5662451800083 442.4863059619332 L 287.3502362239238 442.4671003276011 L 287.13466291302717 442.44691919097465 L 286.91954680447003 442.4257645701507 L 286.7049094096838 442.40363858057384 L 286.4907721922292 442.38054343482446 L 286.27715656564953 442.356481442398 L 286.0640838913294 442.3314550094735 L 285.85157547635873 442.30546663867347 L 285.6396525714018 442.2785189288134 L 285.42833636857273 442.25061457464176 L 285.2176479993155 442.2217563665707 L 285.0076085322915 442.191947190397 L 284.7982389712725 442.16119002701345 L 284.58956025304 442.1294879521107 L 284.38159324529204 442.0968441358699 L 284.174358744556 442.06326184264543 L 283.9678774741093 442.02874443063865 L 283.76217008190696 441.9932953515619 L 283.55725713851666 441.9569181502937 L 283.3531591350621 441.91961646452376 L 283.14989648117347 441.88139402438964 L 282.94748950294684 441.8422546521034 L 282.7459584409113 441.80220226156973 L 282.5453234480051 441.7612408579943 L 282.3456045875604 441.7193745374833 L 282.1468218312968 441.67660748663394 L 281.94899505732417 441.63294398211565 L 281.75214404815523 441.58838839024247 L 281.5562884887267 441.54294516653647 L 281.3614479644314 441.4966188552822 L 281.16764195915937 441.4494140890721 L 280.9748898533496 441.40133558834344 L 280.7832109220521 441.35238816090634 L 280.59262433300023 441.30257670146267 L 280.40314914469405 441.2519061911169 L 280.2148043044946 441.20038169687786 L 280.02760864672877 441.14800837115195 L 279.84158089080654 441.09479145122816 L 279.65673963934836 441.0407362587541 L 279.47310337632535 440.98584819920404 L 279.2906904652108 440.9301327613382 L 279.1095191471438 440.87359551665384 L 278.92960753910523 440.8162421188283 L 278.7509736321059 440.75807830315375 L 278.57363528938765 440.6991098859631 L 278.39761024463706 440.639342764049 L 278.2229161002118 440.5787829140739 L 278.04957032538084 440.5174363919722 L 277.87759025457717 440.45530933234505 L 277.7069930856645 440.39240794784666 L 277.53779587821765 440.32873852856306 L 277.37001555181627 440.2643074413831 L 277.20366888435325 440.1991211293618 L 277.0387725103567 440.1331861110761 L 276.8753429193266 440.0665089799728 L 276.71339645408585 439.9990964037095 L 276.5529493091461 439.9309551234876 L 276.394017529088 439.8620919533784 L 276.2366170069572 439.79251377964147 L 276.0807634826748 439.7222275600363 L 275.9264725414632 439.6512403231261 L 275.7737596122881 439.5795591675756 L 275.62263996631503 439.5071912614405 L 275.4731287153827 439.43414384145115 L 275.32524081049166 439.36042421228865 L 275.17899104030914 439.28603974585445 L 275.03439402969025 439.21099788053334 L 274.8914642382155 439.1353061204492 L 274.7502159587451 439.058972034715 L 274.61066331598914 438.9820032566757 L 274.47282026509566 438.90440748314495 L 274.3367005902549 438.82619247363544 L 274.2023179033209 438.747366049583 L 274.0696856424503 438.66793609356426 L 273.9388170707587 438.58791054850866 L 273.80972527499426 438.50729741690407 L 273.68242316422896 438.4261047599964 L 273.5569234685678 438.3443406969837 L 273.4332387378757 438.2620134042042 L 273.3113813405227 438.17913111431847 L 273.19136346214697 438.0957021154865 L 273.07319710443636 438.0117347505386 L 272.9568940839282 437.92723741614134 L 272.84246603082755 437.84221856195774 L 272.7299243878444 437.75668668980234 L 272.6192804090493 437.67065035279114 L 272.51054515874785 437.584118154486 L 272.4037295103745 437.49709874803483 L 272.2988441454051 437.40960083530564 L 272.19589955228867 437.3216331660168 L 272.0949060253988 437.233204536862 L 271.9958736640041 437.1443237906304 L 271.898812371258 437.0549998153225 L 271.803731853209 436.9652415432615 L 271.71064161782965 436.8750579501998 L 271.6195509740659 436.7844580544215 L 271.5304690309062 436.69345091584074 L 271.44340469647074 436.60204563509546 L 271.3583666771203 436.5102513526377 L 271.27536347658594 436.418077247819 L 271.1944033951186 436.32553253797323 L 271.115494528659 436.23262647749414 L 271.03864476802795 436.1393683569104 L 270.9638617981375 436.04576750195633 L 270.8911530972223 435.9518332726394 L 270.8205259360918 435.85757506230436 L 270.75198737740345 435.7630022966936 L 270.6855442749558 435.66812443300495 L 270.62120327300386 435.5729509589456 L 270.55897080559413 435.4774913917838 L 270.4988530959215 435.3817552773966 L 270.44085615570685 435.2857521893157 L 270.38498578459587 435.1894917277699 L 270.33124756957915 435.09298351872513 L 270.27964688443336 434.99623721292187 L 270.23018888918403 434.8992624849101 L 270.18287852958946 434.80206903208176 L 270.1377205366462 434.7046665737012 L 270.0947194261159 434.60706484993307 L 270.0538794980738 434.5092736208684 L 270.0152048364787 434.4113026655486 L 269.9786993087644 434.31316178098757 L 269.9443665654534 434.214860781192 L 269.9122100397913 434.11640949617987 L 269.88223294740396 434.0178177709978 L 269.8544382859756 433.91909546473596 L 269.82882883494926 433.82025244954286 L 269.8054071552486 433.7212986096376 L 269.78417558902214 433.62224384032163 L 269.7651362594088 433.52309804698945 L 269.74829107032565 433.42387114413776 L 269.7336417062775 433.32457305437407 L 269.7211896321887 433.22521370742464 L 269.71093609325624 433.12580303914143 L 269.7028821148254 433.02635099050843 L 269.6970285022873 432.9268675066475 L 269.69337584099844 432.82736253582425 L 269.69192449622176 432.72784602845275 L 269.6926746130906 432.6283279361009 L 269.6956261165939 432.52881821049493 L 269.70077871158384 432.42932680252454 L 269.70813188280505 432.32986366124754 L 269.7176848949467 432.2304387328952 L 269.7294367927154 432.13106195987757 L 269.7433864009312 432.03174327978905 L 269.75953232464497 431.9324926244149 L 269.7778729492777 431.83331991873797 L 269.7984064407823 431.73423507994625 L 269.8211307458267 431.63524801644087 L 269.8460435919993 431.53636862684584 L 269.8731424880363 431.4376067990177 L 269.90242472407067 431.3389724090569 L 269.9338873719031 431.24047532032023 L 269.9675272852952 431.14212538243453 L 270.00334110028354 431.0439324303116 L 270.04132523551647 430.94590628316485 L 270.0814758926122 430.84805674352725 L 270.1237890565384 430.7503935962713 L 270.168260496014 430.65292660763026 L 270.21488576393205 430.5556655242218 L 270.26366019780465 430.45862007207324 L 270.31457892022905 430.36179995564896 L 270.36763683937545 430.2652148568798 L 270.4228286494961 430.16887443419523 L 270.4801488314561 430.07278832155725 L 270.5395916532849 429.97696612749695 L 270.6011511707499 429.881417434154 L 270.66482122795065 429.7861517963181 L 270.73059545793444 429.69117874047356 L 270.7984672833332 429.5965077638469 L 270.8684299170209 429.50214833345683 L 270.94047636279237 429.40810988516785 L 271.01459941606316 429.31440182274633 L 271.09079166458974 429.22103351692044 L 271.1690454892107 429.128014304443 L 271.24935306460884 429.0353534871577 L 271.33170636009345 428.9430603310691 L 271.4160971404037 428.8511440654158 L 271.50251696653186 428.7596138817479 L 271.59095719656733 428.66847893300735 L 271.68140898656077 428.5777483326132 L 271.7738632914086 428.48743115354984 L 271.8683108657574 428.3975364274599 L 271.96474226492836 428.30807314374107 L 272.06314784586203 428.2190502486472 L 272.1635177680822 428.1304766443936 L 272.2658419946804 428.0423611882668 L 272.37011029331916 427.95471269173913 L 272.47631223725557 427.86753991958716 L 272.5844372063837 427.7808515890154 L 272.6944743882967 427.6946563687847 L 272.8064127793682 427.6089628783453 L 272.92024118585226 427.52377968697476 L 273.03594822500315 427.4391153129213 L 273.1535223262133 427.35497822255167 L 273.27295173217067 427.2713768295049 L 273.3942245000341 427.1883194938506 L 273.51732850262795 427.1058145212531 L 273.6422514296545 427.0238701621409 L 273.7689807889251 426.9424946108816 L 273.8975039076095 426.8616960049626 L 274.0278079335029 426.78148242417706 L 274.15987983631135 426.7018618898163 L 274.29370640895456 426.6228423638674 L 274.42927426888684 426.54443174821705 L 274.5665698594351 426.4666378838615 L 274.7055794511548 426.38946855012233 L 274.8462891432025 426.31293146386867 L 274.98868486472634 426.2370342787453 L 275.1327523762728 426.1617845844075 L 275.27847727121076 426.08718990576205 L 275.4258449771722 426.01325770221456 L 275.57484075750926 425.9399953669239 L 275.7254497127682 425.8674102260624 L 275.87765678217886 425.79550953808376 L 276.03144674516125 425.7243004929968 L 276.1868042228471 425.65379021164676 L 276.34371367961825 425.58398574500296 L 276.5021594246597 425.51489407345395 L 276.662125613529 425.4465221061092 L 276.82359624974055 425.3788766801086 L 276.9865551863653 425.3119645599383 L 277.1509861276454 425.2457924367545 L 277.3168726306237 425.18036692771454 L 277.48419810678826 425.1156945753147 L 277.65294582373076 425.05178184673633 L 277.8230989068202 424.988635133199 L 277.99464034089004 424.9262607493215 L 278.1675529719398 424.86466493249026 L 278.34181950885056 424.8038538422355 L 278.5174225251138 424.7438335596158 L 278.6943444605742 424.68461008660915 L 278.87256762318566 424.62618934551364 L 279.05207419078044 424.56857717835464 L 279.2328462128514 424.51177934630095 L 279.41486561234694 424.4558015290883 L 279.5981141874788 424.40064932445193 L 279.78257361354224 424.3463282475662 L 279.96822544474827 424.2928437304936 L 280.1550511160685 424.24020112164123 L 280.3430319450915 424.18840568522614 L 280.53214913389104 424.13746260074885 L 280.7223837709058 424.0873769624752 L 280.91371683283063 424.0381537789275 L 281.1061291865188 423.9897979723829 L 281.29960159089524 423.94231437838187 L 281.49411469888076 423.8957077452442 L 281.68964905932665 423.8499827335943 L 281.8861851189598 423.8051439158953 L 282.0837032243381 423.76119577599167 L 282.2821836238155 423.71814270866065 L 282.4816064695175 423.67598901917313 L 282.6819518193257 423.634738922863 L 282.88319963887216 423.5943965447055 L 283.08532980354255 423.5549659189047 L 283.2883221004888 423.5164509884905 L 283.4921562306505 423.4788556049237 L 283.69681181078437 423.44218352771145 L 283.902268375503 423.4064384240308 L 284.1085053793212 423.3716238683624 L 284.3155021987103 423.3377433421328 L 284.523238134161 423.30480023336634 L 284.73169241225276 423.2727978363465 L 284.94084418773156 423.2417393512863 L 285.1506725455941 423.21162788400835 L 285.3611565031794 423.1824664456343 L 285.57227501226726 423.1542579522837 L 285.7840069611826 423.1270052247823 L 285.99633117690695 423.10071098838023 L 286.20922642719574 423.0753778724792 L 286.4226714227013 423.0510084103696 L 286.636644819102 423.02760503897747 L 286.85112521923645 423.0051700986204 L 287.0660911752434 422.9837058327737 L 287.28152119070637 422.96321438784605 L 287.4973937228034 422.9436978129649 L 287.7136871844611 422.9251580597715 L 287.93037994651354 422.90759698222564 L 288.1474503398652 422.89101633642053 L 288.36487665765753 422.8754177804069 L 288.58263715743993 422.86080287402734 L 288.800710063344 422.84717307876036 L 289.0190735682608 422.83452975757405 L 289.23770583602175 422.82287417479 L 289.4565850035824 422.81220749595684 L 289.6756891832083 422.80253078773353 L 289.8949964646641 422.79384501778276 L 290.1144849174044 422.7861510546744 L 290.3341325927668 422.77944966779836 L 290.5539175261669 422.7737415272876 L 290.7738177392945 422.76902720395157 L 290.99381124231144 422.76530716921854 L 291.21387603605075 422.762581795089 L 291.43399011421656 422.760851354098 L 291.6541314655844 422.76011601928826 L 291.8742780762026 422.7603758641926 L 292.09440793159354 422.7616308628268 L 292.3144990189551 422.763880889692 L 292.534529329362 422.76712571978743 L 292.7544768599666 422.7713650286327 L 292.974319616199 422.77659839230057 L 293.19403561396683 422.78282528745893 L 293.4136028818535 422.79004509142356 L 293.63299946331506 422.79825708222 L 293.8522034188763 422.807460438656 L 294.0711928283243 422.81765424040367 L 294.28994579290054 422.82883746809125 L 294.50844043749095 422.84100900340536 L 294.7266549128131 422.85416762920255 L 294.9445673976013 422.8683120296312 L 295.16215610078865 422.88344079026314 L 295.3793992636862 422.89955239823485 L 295.5962751621587 422.91664524239894 L 295.812762108797 422.93471761348525 L 296.0288384550868 422.9537677042718 L 296.24448259357365 422.97379360976527 L 296.45967296002334 422.9947933273919 L 296.6743880355785 423.0167647571974 L 296.88860634891057 423.03970570205706 L 297.1023064783667 423.0636138678956 L 297.31546705411205 423.0884868639162 L 297.5280667602667 423.1143222028401 L 297.7400843370371 423.141117301155 L 297.95149858284236 423.16886947937326 L 298.16228835643403 423.1975759623003 L 298.3724325790105 423.22723387931165 L 298.5819102363244 423.2578402646403 L 298.7907003807848 423.2893920576734 L 298.9987821335512 423.3218861032578 L 299.20613468662157 423.355319152016 L 299.4127373049136 423.3896878606711 L 299.61856932833746 423.42498879238076 L 299.82361017386245 423.4612184170813 L 300.02783933757485 423.4983731118404 L 300.2312363967285 423.5364491612196 L 300.4337810117869 423.5754427576456 L 300.6354529284574 423.61535000179134 L 300.8362319797164 423.6561669029656 L 301.0360980878261 423.69788937951233 L 301.23503126634216 423.74051325921863 L 301.43301162211253 423.784034279732 L 301.6300193572667 423.8284480889867 L 301.8260347711953 423.87375024563886 L 302.02103826252016 423.9199362195105 L 302.21501033105477 423.9670013920427 L 302.40793157975395 424.01494105675744 L 302.59978271665346 424.06375041972825 L 302.7905445567996 424.1134246000595 L 302.9801980241673 424.1639586303745 L 303.1687241535679 424.2153474573124 L 303.3561040925454 424.2675859420333 L 303.5423191032623 424.3206688607322 L 303.7273505643725 424.37459090516154 L 303.91117997288416 424.4293466831618 L 304.0937889460097 424.4849307192008 L 304.2751592230038 424.54133745492123 L 304.45527266699 424.59856124969656 L 304.6341112667741 424.656596381195 L 304.811657138645 424.7154370459518 L 304.98789252816346 424.77507735994936 L 305.16279981193753 424.8355113592061 L 305.33636149938445 424.89673300037254 L 305.5085602344802 424.9587361613354 L 305.67937879749473 425.0215146418304 L 305.8488001067141 425.0850621640617 L 306.01680722014856 425.1493723733301 L 306.18338333722676 425.21443883866823 L 306.3485118004759 425.28025505348376 L 306.5121760971871 425.34681443621014 L 306.67435986106716 425.41411033096443 L 306.83504687387483 425.4821360082134 L 306.9942210670428 425.5508846654459 L 307.15186652328435 425.6203494278535 L 307.30796747818516 425.69052334901784 L 307.4625083217799 425.7613994116054 L 307.61547360011303 425.8329705280688 L 307.76684801678414 425.9052295413562 L 307.91661643447765 425.9781692256264 L 308.0647638764767 426.05178228697173 L 308.21127552816046 426.1260613641475 L 308.35613673848593 426.2009990293078 L 308.49933302145274 426.2765877887486 L 308.6408500575519 426.352820083657 L 308.78067369519783 426.4296882908669 L 308.91878995214324 426.5071847236218 L 309.0551850168775 426.5853016323428 L 309.1898452500078 426.66403120540434 L 309.32275718562306 426.7433655699146 L 309.45390753264047 426.82329679250324 L 309.5832831761346 426.9038168801147 L 309.71087117864903 426.98491778080717 L 309.8366587814897 427.0665913845583 L 309.9606334060012 427.1488295240757 L 310.0827826548243 427.231623975614 L 310.2030943131361 427.314966459797 L 310.3215563498709 427.3988486424458 L 310.4381569189237 427.4832621354119 L 310.5528843603349 427.5681984974165 L 310.66572720145587 427.6536492348941 L 310.7766741580965 427.73960580284216 L 310.8857141356537 427.8260596056756 L 310.99283623022046 427.91300199808603 L 311.0980297296767 428.0004242859068 L 311.20128411476 428.08831772698187 L 311.30258906011807 428.17667353204047 L 311.4019344353407 428.2654828655756 L 311.4993103059731 428.3547368467281 L 311.5947069345095 428.4444265501741 L 311.6881147813663 428.53454300701804 L 311.77952450583695 428.62507720568925 L 311.868926967025 428.71602009284345 L 311.95631322475884 428.8073625742676 L 312.0416745404856 428.8990955157897 L 312.12500237814476 428.99120974419213 L 312.206288405022 429.0836960481287 L 312.2855244925824 429.17654517904606 L 312.36270271728324 429.2697478521086 L 312.43781536136635 429.36329474712664 L 312.51085491362994 429.45717650948865 L 312.5818140701796 429.5513837510966 L 312.65068573515885 429.64590705130485 L 312.7174630214585 429.7407369578621 L 312.78213925140574 429.83586398785684 L 312.8447079574313 429.9312786286652 L 312.9051628827168 430.0269713389027 L 312.96349798182007 430.12293254937805 L 313.01970742127986 430.2191526640501 L 313.073785580199 430.3156220609877 L 313.1257270508067 430.41233109333143 L 313.17552663899914 430.5092700902587 L 313.22317936485905 430.60642935795056 L 313.26868046315354 430.70379918056125 L 313.3120253838107 430.80136982118967 L 313.35320979237457 430.89913152285294 L 313.39222957043864 430.9970745094625 L 313.42908081605754 431.09518898680125 L 313.46375984413754 431.19346514350326 L 313.49626318680464 431.2918931520347 L 313.52658759375174 431.3904631696767 L 313.5547300325633 431.4891653395098 L 313.580687689019 431.5879897913991 L 313.60445796737474 431.68692664298186 L 313.6260384906226 431.7859660006553 L 313.6454271007281 431.88509796056627 L 313.66262185884653 431.9843126096013 L 313.67762104551633 432.08360002637824 L 313.6904231608313 432.18295028223815 L 313.7010269245906 432.28235344223816 L 313.70943127642676 432.38179956614516 L 313.7156353759115 432.4812787094296 L 313.71963860264015 432.5807809242601 L 313.72144055629326 432.6802962604981 M 313.7215522394219 464.3771594124 L 313.7204515072031 464.47667683847686 L 313.7171494206191 464.57618431289404 L 313.7116463098757 464.6756718849871 L 313.7039427252794 464.7751296060816 L 313.69403943718225 464.87454753048837 L 313.6819374359049 464.9739157164978 L 313.6676379316373 465.07322422737417 L 313.6511423543179 465.1724631323491 L 313.63245235349086 465.2716225076147 L 313.6115697981405 465.3706924373163 L 313.5884967765051 465.46966301454324 L 313.5632355958676 465.5685243423204 L 313.53578878232486 465.6672665345974 L 313.5061590805355 465.7658797172372 L 313.4743494534449 465.86435402900383 L 313.4403630819894 465.96267962254814 L 313.40420336477774 466.06084666539266 L 313.3658739177515 466.158845340915 L 313.32537857382346 466.2566658493292 L 313.2827213824943 466.3542984086659 L 313.2379066094475 466.45173325575064 L 313.19093873612314 466.54896064717985 L 313.14182245926935 466.6459708602954 L 313.0905626904729 466.7427541941568 L 313.0371645556679 466.83930097051143 L 312.9816333946235 466.93560153476193 L 312.9239747604093 467.0316462569323 L 312.86419441884084 467.12742553263024 L 312.80229834790237 467.22292978400804 L 312.7382927371495 467.3181494607202 L 312.67218398708985 467.41307504087825 L 312.60397870854337 467.5076970320034 L 312.53368372198116 467.6020059719754 L 312.4613060568432 467.6959924299788 L 312.38685295083576 467.7896470074461 L 312.31033184920733 467.88296033899763 L 312.23175040400434 467.975923093378 L 312.1511164733058 468.0685259743893 L 312.06843812043763 468.1607597218204 L 311.9837236131662 468.25261511237363 L 311.89698142287165 468.3440829605864 L 311.8082202237007 468.43515411975005 L 311.71744889169935 468.52581948282466 L 311.62467650392506 468.61606998334946 L 311.5299123375394 468.70589659634953 L 311.43316586887994 468.7952903392385 L 311.33444677251305 468.88424227271656 L 311.23376492026597 468.9727435016644 L 311.13113038024017 469.06078517603305 L 311.02655341580396 469.1483584917283 L 310.92004448456674 469.2354546914916 L 310.81161423733283 469.3220650657756 L 310.70127351703667 469.408180953615 L 310.58903335765825 469.4937937434927 L 310.47490498312004 469.5788948742012 L 310.35889980616435 469.6634758356983 L 310.2410294272122 469.7475281699583 L 310.12130563320324 469.8310434718178 L 309.99974039641717 469.9140133898163 L 309.8763458732763 469.9964296270311 L 309.7511344031302 470.0782839419071 L 309.6241185070215 470.15956814908105 L 309.4953108864339 470.2402741202 L 309.36472442202216 470.32039378473416 L 309.23237217232395 470.3999191307837 L 309.0982673724539 470.47884220588037 L 308.9624234327802 470.5571551177824 L 308.8248539375837 470.63485003526387 L 308.6855726436993 470.7119191888978 L 308.54459347914025 470.788354871833 L 308.4019305417055 470.8641494405649 L 308.25759809756994 470.93929531569984 L 308.1116105798577 471.0137849827128 L 307.963982587199 471.0876109926993 L 307.8147288822699 471.1607659631198 L 307.66386439031663 471.2332425785382 L 307.51140419766267 471.3050335913533 L 307.3573635502002 471.3761318225238 L 307.2017578518656 471.4465301622857 L 307.044602663099 471.51622157086376 L 306.88591369928844 471.58519907917514 L 306.7257068291979 471.65345578952656 L 306.563998073381 471.7209848763038 L 306.4008036025785 471.7877795866545 L 306.2361397361015 471.8538332411633 L 306.07002294019946 471.91913923451966 L 305.90246982641355 471.98369103617887 L 305.7334971499155 472.0474821910144 L 305.56312180783203 472.11050631996403 L 305.39136083755557 472.1727571206673 L 305.2182314150399 472.23422836809607 L 305.043750853083 472.29491391517683 L 304.86793659959574 472.3548076934054 L 304.6908062358568 472.41390371345386 L 304.51237747475517 472.4721960657695 L 304.33266815901806 472.52967892116567 L 304.1516962594274 472.5863465314047 L 303.96947987302235 472.6421932297727 L 303.78603722128963 472.6972134316466 L 303.6013866483416 472.7514016350519 L 303.4155466190817 472.8047524212134 L 303.2285357173579 472.857260455097 L 303.0403726441046 472.9089204859431 L 302.8510762154723 472.95972734779156 L 302.6606653609461 473.0096759599986 L 302.46915912145283 473.0587613277447 L 302.2765766474568 473.10697854253385 L 302.082937197045 473.15432278268486 L 301.88826013400103 473.20078931381306 L 301.69256492586896 473.2463734893041 L 301.49587114200654 473.2910707507785 L 301.2981984516283 473.3348766285473 L 301.0995666218385 473.3777867420592 L 300.8999955156546 473.41979680033864 L 300.6995050900209 473.46090260241476 L 300.4981153938129 473.50110003774165 L 300.2958465658324 473.5403850866093 L 300.09271883279365 473.5787538205455 L 299.88875250730064 473.61620240270884 L 299.68396798581597 473.65272708827234 L 299.4783857466212 473.6883242247979 L 299.2720263477688 473.72299025260145 L 299.0649104250268 473.75672170510916 L 298.85705868981483 473.7895152092039 L 298.64849192713325 473.8213674855625 L 298.43923099348444 473.852275348984 L 298.22929681478746 473.88223570870775 L 298.0187103842852 473.9112455687227 L 297.8074927604452 473.93930202806706 L 297.59566506485385 473.9664022811183 L 297.3832484801042 473.99254361787365 L 297.1702642476777 474.0177234242213 L 296.95673366582014 474.0419391822015 L 296.7426780874117 474.06518847025865 L 296.5281189178319 474.0874689634834 L 296.31307761281886 474.1087784338449 L 296.0975756763239 474.1291147504139 L 295.88163465836107 474.14847587957576 L 295.66527615285224 474.16685988523363 L 295.4485217954676 474.18426492900227 L 295.2313932614624 474.20068927039176 L 295.0139122635089 474.21613126698173 L 294.7961005495259 474.23058937458535 L 294.57797990050307 474.24406214740395 L 294.3595721283237 474.25654823817143 L 294.1408990735829 474.26804639828913 L 293.92198260340393 474.2785554779506 L 293.70284460925143 474.2880744262566 L 293.4835070047422 474.29660229132037 L 293.26399172345384 474.3041382203624 L 293.0443207167316 474.31068145979606 L 292.82451595149314 474.31623135530293 L 292.60459940803173 474.320787351898 L 292.38459307781847 474.3243489939855 L 292.16451896130303 474.3269159254041 L 291.94439906571375 474.32848788946285 L 291.7242554028567 474.3290647289666 L 291.5041099869147 474.328646386232 L 291.28398483224595 474.3272329030928 L 291.0639019511824 474.3248244208963 L 290.84388335182877 474.32142118048864 L 290.6239510358617 474.317023522191 L 290.40412699632947 474.31163188576556 L 290.1844332154528 474.3052468103715 L 289.96489166242685 474.29786893451103 L 289.74552429122383 474.2894989959656 L 289.5263530383981 474.2801378317221 L 289.3073998208923 474.26978637788903 L 289.0886865338457 474.25844566960325 L 288.8702350484048 474.24611684092616 L 288.6520672095361 474.2328011247303 L 288.4342048338416 474.21849985257626 L 288.2166697073774 474.20321445457927 L 287.9994835834748 474.1869464592664 L 287.7826681805652 474.16969749342366 L 287.5662451800083 474.1514692819332 L 287.3502362239238 474.13226364760106 L 287.13466291302717 474.11208251097463 L 286.91954680447003 474.0909278901507 L 286.7049094096838 474.0688019005738 L 286.4907721922292 474.04570675482444 L 286.27715656564953 474.02164476239795 L 286.0640838913294 473.99661832947345 L 285.85157547635873 473.97062995867344 L 285.6396525714018 473.9436822488134 L 285.42833636857273 473.91577789464174 L 285.2176479993155 473.88691968657065 L 285.0076085322915 473.857110510397 L 284.7982389712725 473.8263533470134 L 284.58956025304 473.7946512721107 L 284.38159324529204 473.7620074558699 L 284.174358744556 473.7284251626454 L 283.9678774741093 473.69390775063863 L 283.76217008190696 473.6584586715619 L 283.55725713851666 473.62208147029367 L 283.3531591350621 473.58477978452373 L 283.14989648117347 473.5465573443896 L 282.94748950294684 473.5074179721034 L 282.7459584409113 473.4673655815697 L 282.5453234480051 473.4264041779943 L 282.3456045875604 473.3845378574833 L 282.1468218312968 473.3417708066339 L 281.94899505732417 473.2981073021156 L 281.75214404815523 473.25355171024245 L 281.5562884887267 473.20810848653645 L 281.3614479644314 473.16178217528216 L 281.16764195915937 473.11457740907207 L 280.9748898533496 473.0664989083434 L 280.7832109220521 473.0175514809063 L 280.59262433300023 472.96774002146265 L 280.40314914469405 472.9170695111169 L 280.2148043044946 472.86554501687783 L 280.02760864672877 472.8131716911519 L 279.84158089080654 472.75995477122814 L 279.65673963934836 472.7058995787541 L 279.47310337632535 472.651011519204 L 279.2906904652108 472.5952960813382 L 279.1095191471438 472.5387588366538 L 278.92960753910523 472.4814054388283 L 278.7509736321059 472.42324162315373 L 278.57363528938765 472.36427320596306 L 278.39761024463706 472.30450608404897 L 278.2229161002118 472.24394623407386 L 278.04957032538084 472.18259971197216 L 277.87759025457717 472.12047265234503 L 277.7069930856645 472.05757126784664 L 277.53779587821765 471.99390184856304 L 277.37001555181627 471.9294707613831 L 277.20366888435325 471.8642844493618 L 277.0387725103567 471.7983494310761 L 276.8753429193266 471.7316722999728 L 276.71339645408585 471.66425972370945 L 276.5529493091461 471.59611844348757 L 276.394017529088 471.5272552733784 L 276.2366170069572 471.45767709964144 L 276.0807634826748 471.38739088003626 L 275.9264725414632 471.3164036431261 L 275.7737596122881 471.2447224875756 L 275.62263996631503 471.17235458144046 L 275.4731287153827 471.09930716145107 L 275.32524081049166 471.02558753228857 L 275.17899104030914 470.95120306585443 L 275.03439402969025 470.8761612005333 L 274.8914642382155 470.80046944044915 L 274.7502159587451 470.724135354715 L 274.61066331598914 470.64716657667566 L 274.47282026509566 470.5695708031449 L 274.3367005902549 470.4913557936354 L 274.2023179033209 470.41252936958296 L 274.0696856424503 470.33309941356424 L 273.9388170707587 470.25307386850864 L 273.80972527499426 470.17246073690404 L 273.68242316422896 470.0912680799964 L 273.5569234685678 470.00950401698367 L 273.4332387378757 469.9271767242042 L 273.3113813405227 469.84429443431844 L 273.19136346214697 469.7608654354865 L 273.07319710443636 469.6768980705386 L 272.9568940839282 469.5924007361413 L 272.84246603082755 469.5073818819577 L 272.7299243878444 469.4218500098023 L 272.6192804090493 469.3358136727911 L 272.51054515874785 469.249281474486 L 272.4037295103745 469.1622620680348 L 272.2988441454051 469.0747641553056 L 272.19589955228867 468.9867964860168 L 272.0949060253988 468.89836785686197 L 271.9958736640041 468.80948711063036 L 271.898812371258 468.7201631353225 L 271.803731853209 468.6304048632615 L 271.71064161782965 468.54022127019977 L 271.6195509740659 468.4496213744215 L 271.5304690309062 468.3586142358407 L 271.44340469647074 468.26720895509544 L 271.3583666771203 468.17541467263766 L 271.27536347658594 468.08324056781896 L 271.1944033951186 467.9906958579732 L 271.115494528659 467.8977897974941 L 271.03864476802795 467.80453167691036 L 270.9638617981375 467.71093082195625 L 270.8911530972223 467.6169965926394 L 270.8205259360918 467.52273838230434 L 270.75198737740345 467.4281656166936 L 270.6855442749558 467.3332877530049 L 270.62120327300386 467.2381142789456 L 270.55897080559413 467.1426547117838 L 270.4988530959215 467.0469185973966 L 270.44085615570685 466.9509155093157 L 270.38498578459587 466.8546550477699 L 270.33124756957915 466.7581468387251 L 270.27964688443336 466.66140053292185 L 270.23018888918403 466.56442580491006 L 270.18287852958946 466.46723235208174 L 270.1377205366462 466.3698298937012 L 270.0947194261159 466.27222816993304 L 270.0538794980738 466.17443694086836 L 270.0152048364787 466.07646598554857 L 269.9786993087644 465.97832510098755 L 269.9443665654534 465.88002410119196 L 269.9122100397913 465.78157281617985 L 269.88223294740396 465.68298109099777 L 269.8544382859756 465.58425878473594 L 269.82882883494926 465.48541576954284 L 269.8054071552486 465.38646192963756 L 269.78417558902214 465.2874071603216 L 269.7651362594088 465.1882613669894 L 269.74829107032565 465.08903446413774 L 269.7336417062775 464.98973637437405 L 269.7211896321887 464.8903770274246 L 269.71093609325624 464.7909663591414 L 269.7028821148254 464.6915143105084 L 269.6970285022873 464.5920308266475 L 269.69337584099844 464.4925258558242 L 269.69192449622176 464.3930093484527" stroke-miterlimit="10" stroke-width="2.5633703640000003" stroke-dasharray=""/></g><g><g/><text fill="black" stroke="none" font-family="monospace" font-size="10pt" font-style="normal" font-weight="normal" text-decoration="normal" x="262.3911726496094" y="416.77386388800005" text-anchor="start" dominant-baseline="alphabetic" xml:space="preserve">Database</text></g></g><g><path fill="white" stroke="black" paint-order="fill stroke markers" d=" M 284.16739980742193 151.640948788 L 299.2460490074219 151.640948788 L 299.2460490074219 389.129673688 L 284.16739980742193 389.129673688 L 284.16739980742193 151.640948788" stroke-miterlimit="10" stroke-width="1.2565541" stroke-dasharray=""/><path fill="white" stroke="black" paint-order="fill stroke markers" d=" M 67.8539214 151.640948788 L 82.9325706 151.640948788 L 82.9325706 389.129673688 L 67.8539214 389.129673688 L 67.8539214 151.640948788" stroke-miterlimit="10" stroke-width="1.2565541" stroke-dasharray=""/><g><text fill="black" stroke="none" font-family="monospace" font-size="10pt" font-style="normal" font-weight="normal" text-decoration="normal" x="113.92554977890626" y="226.28026232800002" text-anchor="start" dominant-baseline="alphabetic" xml:space="preserve">clearTempAnalysis()</text></g><g><path fill="none" stroke="black" paint-order="fill stroke markers" d=" M 82.9325706 231.306478728 L 271.75264529942194 231.306478728" stroke-miterlimit="10" stroke-width="1.2565541" stroke-dasharray=""/><g transform="translate(284.16739980742193,231.306478728) translate(-284.16739980742193,-231.306478728)"><path fill="black" stroke="none" paint-order="stroke fill markers" d=" M 271.60185880742193 225.023708228 L 284.16739980742193 231.306478728 L 271.60185880742193 237.589249228 Z"/></g></g><g><text fill="black" stroke="none" font-family="monospace" font-size="10pt" font-style="normal" font-weight="normal" text-decoration="normal" x="319.3509146074219" y="265.23343942800005" text-anchor="start" dominant-baseline="alphabetic" xml:space="preserve">Delete analysis records</text></g><g><path fill="none" stroke="black" paint-order="fill stroke markers" d=" M 299.2460490074219 270.259655828 L 359.5606458074219 270.259655828 L 359.5606458074219 289.861899788 L 311.6608035154219 289.861899788" stroke-miterlimit="10" stroke-width="1.2565541" stroke-dasharray=""/><g transform="translate(299.2460490074219,289.861899788) translate(-299.2460490074219,-289.861899788)"><path fill="black" stroke="none" paint-order="stroke fill markers" d=" M 311.8115900074219 283.579129288 L 299.2460490074219 289.861899788 L 311.8115900074219 296.14467028800004 Z"/></g></g><g><text fill="black" stroke="none" font-family="monospace" font-size="10pt" font-style="normal" font-weight="normal" text-decoration="normal" x="168.8922093248047" y="323.788860488" text-anchor="start" dominant-baseline="alphabetic" xml:space="preserve">None</text></g><g><path fill="none" stroke="black" paint-order="fill stroke markers" d=" M 284.16739980742193 328.815076888 L 95.347325108 328.815076888" stroke-miterlimit="10" stroke-width="1.2565541" stroke-dasharray="6.03145968"/><g transform="translate(82.9325706,328.815076888) translate(-82.9325706,-328.815076888)"><path fill="black" stroke="none" paint-order="stroke fill markers" d=" M 95.4981116 322.532306388 L 82.9325706 328.815076888 L 95.4981116 335.09784738800005 Z"/></g></g><g><g/><path fill="none" stroke="black" paint-order="fill stroke markers" d=" M 15.078649200000001 174.258922588 L 495.4546618148437 174.258922588 L 495.4546618148437 351.43305068800004 L 15.078649200000001 351.43305068800004 L 15.078649200000001 174.258922588 Z" stroke-miterlimit="10" stroke-width="2.154092742857143" stroke-dasharray=""/><path fill="white" stroke="black" paint-order="fill stroke markers" d=" M 15.078649200000001 174.258922588 L 15.078649200000001 192.353301628 L 68.67961215078125 192.353301628 L 77.72680167078126 183.30611210799998 L 77.72680167078126 174.258922588 L 15.078649200000001 174.258922588" stroke-miterlimit="10" stroke-width="2.154092742857143" stroke-dasharray=""/><text fill="black" stroke="none" font-family="monospace" font-size="8pt" font-style="normal" font-weight="bold" text-decoration="normal" x="30.157298400000002" y="186.32184194799999" text-anchor="start" dominant-baseline="alphabetic" xml:space="preserve">loop</text><text fill="black" stroke="none" font-family="monospace" font-size="8pt" font-style="normal" font-weight="bold" text-decoration="normal" x="92.80545087078126" y="186.32184194799999" text-anchor="start" dominant-baseline="alphabetic" xml:space="preserve">[for every n days]</text></g></g><g/><g/></g></svg>