<svg version="1.1" xmlns="http://www.w3.org/2000/svg" xmlns:xlink="http://www.w3.org/1999/xlink" width="804" height="326"><desc>%23%20-----%20font%20-----%0Afontfamily%20monospace%0A%0A%23%20-----%20setup%20components%20-----%0Atitle%20TEMPLATE%20SEQ%20DIAG%20(EMPTY)%0Aactor%20%23blue%3A0.5%20User%0A%0Aactor%20%23blue%3A0.5%20Operator%0Aparticipant%20%23orange%20Frontend%0Aparticipantgroup%20%23e4fcd9%20Backend%20API%0Aboundary%20%23green%3A0.7%20Endpoint%0Acontrol%20%23red%3A0.7%20Auth%20Service%0Acontrol%20%23red%3A0.7%20Scraper%0Aend%0A%0Adatabase%20Database%20%23pink%0Aentity%20%23lightblue%3A2%20ML%20Service%0Aentity%20%23gray%20TwitterAPI%0A%0A%23%20-----%20to%20show%20bottom%20icons%20-----%0Abottomparticipants%0A%0A%23%20-----%20Activations%20-----%0Aactivate%20Frontend%0Aactivate%20Database%0Aactivate%20Endpoint%0Aactivate%20Auth%20Service%0Aactivate%20Scraper%0Aactivate%20ML%20Service%0Aactivate%20TwitterAPI%0A%0A%23%20-----%20START%20OF%20SEQUENCE%20-----%0A%0A%23%20-----%20END%20OF%20SEQUENCE%20-----%0A%0A</desc><defs/><g><g/><g><rect fill="white" stroke="none" x="0" y="0" width="804" height="326"/></g><g><text fill="black" stroke="none" font-family="monospace" font-size="16.5pt" font-style="normal" font-weight="normal" text-decoration="normal" x="250.88834835579297" y="22.617973800000005" text-anchor="start" dominant-baseline="alphabetic" xml:space="preserve">TEMPLATE SEQ DIAG (EMPTY)</text></g><g><g><path fill="#e4fcd9" stroke="black" paint-order="fill stroke markers" d=" M 253.82330046490625 48.50927103050001 L 520.4525523326797 48.50927103050001 L 520.4525523326797 318.05897379199996 L 253.82330046490625 318.05897379199996 L 253.82330046490625 48.50927103050001" stroke-miterlimit="10" stroke-width="1.3612669416666667" stroke-dasharray=""/></g><g><text fill="black" stroke="none" font-family="monospace" font-size="11pt" font-style="normal" font-weight="normal" text-decoration="normal" x="342.80718451646874" y="70.24765696050001" text-anchor="start" dominant-baseline="alphabetic" xml:space="preserve">Backend API</text></g></g><g><path fill="none" stroke="black" paint-order="fill stroke markers" d=" M 24.287871425390627 162.497576212 L 24.287871425390627 227.83838941199997" stroke-miterlimit="10" stroke-width="1.3612669416666667" stroke-dasharray="12.565541,5.445067766666667"/><path fill="none" stroke="black" paint-order="fill stroke markers" d=" M 88.98388405156251 162.497576212 L 88.98388405156251 227.83838941199997" stroke-miterlimit="10" stroke-width="1.3612669416666667" stroke-dasharray="12.565541,5.445067766666667"/><path fill="none" stroke="black" paint-order="fill stroke markers" d=" M 187.52386203362502 162.497576212 L 187.52386203362502 227.83838941199997" stroke-miterlimit="10" stroke-width="1.3612669416666667" stroke-dasharray="12.565541,5.445067766666667"/><path fill="none" stroke="black" paint-order="fill stroke markers" d=" M 294.2314416656875 162.497576212 L 294.2314416656875 227.83838941199997" stroke-miterlimit="10" stroke-width="1.3612669416666667" stroke-dasharray="12.565541,5.445067766666667"/><path fill="none" stroke="black" paint-order="fill stroke markers" d=" M 391.1679938426406 162.497576212 L 391.1679938426406 227.83838941199997" stroke-miterlimit="10" stroke-width="1.3612669416666667" stroke-dasharray="12.565541,5.445067766666667"/><path fill="none" stroke="black" paint-order="fill stroke markers" d=" M 484.07447857574607 162.497576212 L 484.07447857574607 227.83838941199997" stroke-miterlimit="10" stroke-width="1.3612669416666667" stroke-dasharray="12.565541,5.445067766666667"/><path fill="none" stroke="black" paint-order="fill stroke markers" d=" M 569.4581622326797 162.497576212 L 569.4581622326797 227.83838941199997" stroke-miterlimit="10" stroke-width="1.3612669416666667" stroke-dasharray="12.565541,5.445067766666667"/><path fill="none" stroke="black" paint-order="fill stroke markers" d=" M 658.7644465711562 162.497576212 L 658.7644465711562 227.83838941199997" stroke-miterlimit="10" stroke-width="1.3612669416666667" stroke-dasharray="12.565541,5.445067766666667"/><path fill="none" stroke="black" paint-order="fill stroke markers" d=" M 755.7009987481093 162.497576212 L 755.7009987481093 227.83838941199997" stroke-miterlimit="10" stroke-width="1.3612669416666667" stroke-dasharray="12.565541,5.445067766666667"/></g><g><g><path fill="white" stroke="blue" paint-order="fill stroke markers" d=" M 33.598937306390624 94.65622035300002 A 9.311065881 9.311065881 0 1 1 33.598932650858075 94.64690928867086 M 24.287871425390627 103.96728623400001 L 24.287871425390627 123.89623426000001 M 12.526525049390628 111.15477568600002 L 36.049217801390625 111.15477568600002 M 24.287871425390627 123.89623426000001 L 12.526525049390628 142.518366022 M 24.287871425390627 123.89623426000001 L 36.049217801390625 142.518366022" stroke-miterlimit="10" stroke-width="1.3884922805000002" stroke-dasharray=""/></g><g><g/><text fill="black" stroke="none" font-family="monospace" font-size="11pt" font-style="normal" font-weight="normal" text-decoration="normal" x="8.167601650000002" y="157.597015222" text-anchor="start" dominant-baseline="alphabetic" xml:space="preserve">User</text></g><g><path fill="white" stroke="blue" paint-order="fill stroke markers" d=" M 98.29494993256252 94.65622035300002 A 9.311065881 9.311065881 0 1 1 98.29494527702995 94.64690928867086 M 88.98388405156251 103.96728623400001 L 88.98388405156251 123.89623426000001 M 77.2225376755625 111.15477568600002 L 100.74523042756252 111.15477568600002 M 88.98388405156251 123.89623426000001 L 77.2225376755625 142.518366022 M 88.98388405156251 123.89623426000001 L 100.74523042756252 142.518366022" stroke-miterlimit="10" stroke-width="1.3884922805000002" stroke-dasharray=""/></g><g><g/><text fill="black" stroke="none" font-family="monospace" font-size="11pt" font-style="normal" font-weight="normal" text-decoration="normal" x="56.74334450078126" y="157.597015222" text-anchor="start" dominant-baseline="alphabetic" xml:space="preserve">Operator</text></g><path fill="none" stroke="none"/><g><path fill="white" stroke="orange" paint-order="fill stroke markers" d=" M 137.55962690234378 119.64908140200002 L 237.4880971649063 119.64908140200002 L 237.4880971649063 162.497576212 L 137.55962690234378 162.497576212 L 137.55962690234378 119.64908140200002 Z" stroke-miterlimit="10" stroke-width="2.613632528" stroke-dasharray=""/></g><g><g/><text fill="black" stroke="none" font-family="monospace" font-size="11pt" font-style="normal" font-weight="normal" text-decoration="normal" x="155.28332248284377" y="146.16237291200002" text-anchor="start" dominant-baseline="alphabetic" xml:space="preserve">Frontend</text></g><g><path fill="white" stroke="green" paint-order="fill stroke markers" d=" M 326.6568202161875 116.872096841 A 24.2577769005 24.2577769005 0 1 1 326.6568080873001 116.84783906814245 M 262.7780077115375 91.64237534415 L 262.7780077115375 142.10181833785 M 261.8060631151875 116.872096841 L 278.1412664151875 116.872096841" stroke-miterlimit="10" stroke-width="1.9438891927000002" stroke-dasharray=""/></g><g><g/><text fill="black" stroke="none" font-family="monospace" font-size="11pt" font-style="normal" font-weight="normal" text-decoration="normal" x="261.99090211490625" y="157.597015222" text-anchor="start" dominant-baseline="alphabetic" xml:space="preserve">Endpoint</text></g><g><path fill="white" stroke="red" paint-order="fill stroke markers" d=" M 415.4257707431406 116.872096841 A 24.2577769005 24.2577769005 0 1 1 415.4257586142532 116.84783906814245 M 387.9009531826406 92.6143199405 L 397.7020751626406 84.4467182905 M 387.9009531826406 92.6143199405 L 397.7020751626406 100.78192159049999" stroke-miterlimit="10" stroke-width="1.9438891927000002" stroke-dasharray=""/></g><g><g/><text fill="black" stroke="none" font-family="monospace" font-size="11pt" font-style="normal" font-weight="normal" text-decoration="normal" x="342.80718451646874" y="157.597015222" text-anchor="start" dominant-baseline="alphabetic" xml:space="preserve">Auth Service</text></g><g><path fill="white" stroke="red" paint-order="fill stroke markers" d=" M 508.3322554762461 116.872096841 A 24.2577769005 24.2577769005 0 1 1 508.33224334735866 116.84783906814245 M 480.80743791574605 92.6143199405 L 490.60855989574605 84.4467182905 M 480.80743791574605 92.6143199405 L 490.60855989574605 100.78192159049999" stroke-miterlimit="10" stroke-width="1.9438891927000002" stroke-dasharray=""/></g><g><g/><text fill="black" stroke="none" font-family="monospace" font-size="11pt" font-style="normal" font-weight="normal" text-decoration="normal" x="455.8640064688125" y="157.597015222" text-anchor="start" dominant-baseline="alphabetic" xml:space="preserve">Scraper</text></g><g><path fill="pink" stroke="black" paint-order="fill stroke markers" d=" M 545.6087654146797 131.737131844 L 545.6087654146797 97.43320491400002 L 593.3075590506796 97.43320491400002 L 593.3075590506796 131.737131844" stroke-miterlimit="10" stroke-width="2.7769845610000004" stroke-dasharray=""/><path fill="pink" stroke="black" paint-order="fill stroke markers" d=" M 593.3075590506796 96.24073507310001 L 593.306366590776 96.34854561801663 L 593.3027893303099 96.4563453819686 L 593.2968276270046 96.56412358506937 L 593.2884820770253 96.67186944958841 L 593.27775351492 96.7795722010291 L 593.2646430135362 96.88722106920602 L 593.249151883913 96.99480528932206 L 593.2312816751504 97.10231410304486 L 593.2110341742543 97.20973675958267 L 593.1884114059582 97.31706251675931 L 593.1634156325198 97.42428064208853 L 593.1360493534958 97.53138041384713 L 593.1063153054912 97.6383511221472 L 593.0742164618861 97.74518207000703 L 593.039756032538 97.85186257442088 L 593.0029374634612 97.95838196742719 L 592.9637644364818 98.06472959717544 L 592.9222408688701 98.17089482899127 L 592.8783709129481 98.27686704643997 L 592.8321589556747 98.38263565238812 L 592.7836096182074 98.48819007006324 L 592.7327277554393 98.59351974411153 L 592.6795184555144 98.69861414165338 L 592.6239870393182 98.8034627533366 L 592.5661390599462 98.9080550943874 L 592.505980302148 99.01238070565881 L 592.4435167817494 99.11642915467668 L 592.3787547450502 99.2201900366828 L 592.3117006682002 99.32365297567542 L 592.2423612565512 99.42680762544687 L 592.1707434439866 99.52964367061814 L 592.0968543922279 99.63215082767042 L 592.0207014901189 99.73431884597339 L 591.942292352886 99.8361375088104 L 591.861634821378 99.9375966344 L 591.7787369612805 100.03868607691416 L 591.6936070623107 100.1393957274929 L 591.6062536373872 100.23971551525507 L 591.51668542178 100.3396354083055 L 591.424911372236 100.43914541473814 L 591.3309406660835 100.53823558363528 L 591.234782700315 100.63689600606261 L 591.1364470906469 100.73511681606011 L 591.035943670558 100.83288819162861 L 590.933282490307 100.93020035571203 L 590.8284738159259 101.02704357717508 L 590.721528128195 101.12340817177629 L 590.612456121594 101.2192845031365 L 590.5012687032328 101.3146629837025 L 590.3879769917602 101.40953407570571 L 590.2725923162533 101.50388829211596 L 590.1551262150832 101.59771619759026 L 590.0355904347623 101.69100840941624 L 589.913996928769 101.78375559845048 L 589.7903578563527 101.87594849005134 L 589.6646855813173 101.96757786500652 L 589.5369926707858 102.05863456045485 L 589.4072918939428 102.14910947080267 L 589.2755962207578 102.23899354863435 L 589.1419188206886 102.32827780561702 L 589.0062730613637 102.41695331339938 L 588.8686725072458 102.50501120450453 L 588.7291309182759 102.59244267321675 L 588.5876622484966 102.67923897646203 L 588.4442806446568 102.76539143468239 L 588.2990004447977 102.85089143270376 L 588.1518361768178 102.93573042059764 L 588.0028025570217 103.0198999145359 L 587.8519144886468 103.10339149763931 L 587.6991870603745 103.18619682081912 L 587.5446355448203 103.26830760361203 L 587.3882753970067 103.34971563500818 L 587.2301222528184 103.43041277427227 L 587.0701919274381 103.51039095175761 L 586.908500413765 103.58964216971313 L 586.7450638808157 103.66815850308305 L 586.5798986721071 103.74593210029946 L 586.4130213040228 103.82295518406747 L 586.2444484641603 103.89922005214288 L 586.0741970096632 103.97471907810242 L 585.902283965535 104.04944471210644 L 585.728726522937 104.12338948165379 L 585.5535420374687 104.19654599232915 L 585.3767480274327 104.26890692854239 L 585.1983621720826 104.34046505426022 L 585.0184023098553 104.4112132137297 L 584.8368864365873 104.4811443321938 L 584.6538327037143 104.55025141659898 L 584.4692594164574 104.6185275562944 L 584.2831850319911 104.68596592372296 L 584.0956281575992 104.75255977510412 L 583.9066075488125 104.81830245110825 L 583.7161421075347 104.88318737752253 L 583.5242508801508 104.94720806590838 L 583.330953055624 105.01035811425034 L 583.1362679635755 105.07263120759616 L 582.9402150723523 105.13402111868842 L 582.7428139870801 105.19452170858717 L 582.5440844477031 105.25412692728385 L 582.3440463270093 105.31283081430622 L 582.1427196286444 105.37062749931455 L 581.9401244851103 105.42751120268846 L 581.7362811557525 105.48347623610503 L 581.5312100247343 105.53851700310757 L 581.3249315989975 105.59262799966524 L 581.1174665062132 105.64580381472345 L 580.9088354927175 105.69803913074504 L 580.699059421438 105.74932872424193 L 580.488159269807 105.7996674662975 L 580.276156127664 105.84905032307951 L 580.0630711951463 105.89747235634343 L 579.84892578057 105.94492872392627 L 579.6337412982977 105.99141468023082 L 579.4175392665984 106.03692557670021 L 579.2003413054953 106.08145686228269 L 578.9821691346033 106.12500408388684 L 578.7630445709577 106.16756288682677 L 578.5429895268323 106.20912901525766 L 578.3220260075483 106.2496983126013 L 578.1001761092733 106.28926672196175 L 577.8774620168123 106.32783028653108 L 577.6539060013888 106.36538514998495 L 577.4295304184184 106.4019275568683 L 577.2043577052721 106.43745385297092 L 576.9784103790337 106.47196048569278 L 576.7517110342475 106.50544400439938 L 576.524282340659 106.53790106076674 L 576.2961470409482 106.56932840911628 L 576.0673279484549 106.59972290673934 L 575.8378479448976 106.62908151421152 L 575.6077299780856 106.6574012956965 L 575.3769970596235 106.68467941923974 L 575.1456722626111 106.71091315705164 L 574.9137787193353 106.73609988578026 L 574.6813396189572 106.76023708677371 L 574.4483782051931 106.78332234633203 L 574.2149177739901 106.80535335594848 L 573.9809816711971 106.82632791254046 L 573.7465932902292 106.8462439186698 L 573.5117760697292 106.86509938275248 L 573.2765534912236 106.88289241925779 L 573.0409490767739 106.89962124889692 L 572.8049863866256 106.91528419880086 L 572.568689016851 106.92987970268764 L 572.33208059699 106.94340630101907 L 572.0951847876873 106.95586264114657 L 571.8580252783269 106.96724747744649 L 571.6206257846617 106.97755967144472 L 571.3830100464432 106.98679819193043 L 571.1452018250476 106.9949621150593 L 570.9072249010985 107.00205062444579 L 570.6691030720901 107.00806301124487 L 570.430860150007 107.01299867422289 L 570.1925199589426 107.01685711981764 L 569.9541063327176 107.0196379621878 L 569.7156431124959 107.02134092325144 L 569.4771541444007 107.02196583271387 L 569.2386632771302 107.02151262808466 L 569.0001943595723 107.01998135468392 L 568.7617712384201 107.0173721656377 L 568.5234177557871 107.01368532186271 L 568.2851577468227 107.00892119204028 L 568.0470150373295 107.00308025257941 L 567.8090134413799 106.99616308756919 L 567.571176758935 106.98817038872035 L 567.3335287734651 106.9791029552961 L 567.0960932495706 106.96896169403226 L 566.8588939306059 106.95774761904647 L 566.6219545363055 106.94546185173691 L 566.3852987604112 106.93210562067006 L 566.1489502683033 106.91768026145789 L 565.9129326946343 106.90218721662433 L 565.6772696409647 106.88562803546091 L 565.4419846734036 106.86800437387197 L 565.2071013202516 106.84931799420899 L 564.9726430696483 106.82957076509436 L 564.7386333672234 106.80876466123452 L 564.505095613752 106.78690176322253 L 564.2720531628152 106.76398425732997 L 564.0395293184635 106.74001443528833 L 563.8075473328876 106.71499469405985 L 563.576130404093 106.6889275355978 L 563.3453016735795 106.66181556659627 L 563.1150842240279 106.63366149822963 L 562.8855010769913 106.6044681458812 L 562.656575190593 106.57423842886192 L 562.428329457231 106.54297537011827 L 562.2007867012884 106.5106820959301 L 561.9739696768511 106.4773618355979 L 561.7479010654326 106.44301792111996 L 561.5226034737057 106.40765378685909 L 561.2980994312416 106.37127296919923 L 561.0744113882577 106.33387910619186 L 560.8515617133718 106.29547593719211 L 560.6295726913656 106.25606730248487 L 560.4084665209566 106.21565714290077 L 560.1882653125772 106.17424949942209 L 559.968991086165 106.13184851277869 L 559.7506657689598 106.08845842303388 L 559.5333111933114 106.0440835691605 L 559.3169490944964 105.99872838860693 L 559.1016011085441 105.95239741685346 L 558.8872887700738 105.90509528695863 L 558.6740335101407 105.85682672909601 L 558.4618566540933 105.80759657008119 L 558.2507794194399 105.75740973288903 L 558.0408229137286 105.70627123616141 L 557.8320081324347 105.65418619370543 L 557.6243559568624 105.6011598139819 L 557.4178871520562 105.54719739958459 L 557.2126223647246 105.49230434671 L 557.0085821211751 105.43648614461767 L 556.8057868252621 105.37974837508128 L 556.6042567563463 105.32209671183053 L 556.4040120672666 105.26353691998366 L 556.205072782325 105.20407485547109 L 556.0074587952843 105.14371646444971 L 555.8111898673784 105.0824677827083 L 555.6162856253366 105.02033493506404 L 555.4227655594207 104.95732413474988 L 555.2306490214759 104.89344168279337 L 555.0399552229961 104.82869396738644 L 554.8507032332021 104.76308746324669 L 554.6629119771352 104.69662873096988 L 554.4766002337645 104.62932441637382 L 554.2917866341091 104.56118124983391 L 554.1084896593751 104.49220604561 L 553.926727639107 104.42240570116505 L 553.7465187493553 104.35178719647531 L 553.5678810108591 104.28035759333244 L 553.3908322872431 104.20812403463721 L 553.2153902832323 104.13509374368529 L 553.0415725428809 104.06127402344492 L 552.869396447818 103.98667225582662 L 552.6988792155096 103.91129590094496 L 552.530037897537 103.83515249637263 L 552.3628893778911 103.75824965638664 L 552.1974503712847 103.6805950712069 L 552.0337374214805 103.6021965062272 L 551.8717668996372 103.52306180123873 L 551.711555002672 103.44319886964601 L 551.5531177516408 103.3626156976757 L 551.396470990137 103.28132034357779 L 551.2416303827061 103.19932093681997 L 551.0886114132798 103.11662567727458 L 550.9374293836275 103.03324283439866 L 550.7880994118262 102.94918074640702 L 550.6406364307487 102.86444781943841 L 550.4950551865702 102.7790525267149 L 550.3513702372937 102.6930034076946 L 550.2095959512945 102.60630906721774 L 550.0697465058831 102.51897817464607 L 549.9318358858874 102.4310194629961 L 549.7958778822543 102.3424417280657 L 549.6618860906713 102.25325382755454 L 549.5298739102055 102.16346468017835 L 549.3998545419652 102.07308326477704 L 549.2718409877787 101.98211861941685 L 549.1458460488948 101.89057984048648 L 549.0218823247025 101.79847608178757 L 548.8999622114708 101.70581655361923 L 548.7800979011093 101.61261052185705 L 548.6623013799494 101.51886730702655 L 548.546584427545 101.42459628337107 L 548.4329586154947 101.32980687791445 L 548.3214353062854 101.23450856951823 L 548.2120256521547 101.13871088793383 L 548.104740593977 101.04242341284956 L 547.9995908601687 100.94565577293272 L 547.8965869656157 100.84841764486666 L 547.7957392106214 100.75071875238314 L 547.6970576798773 100.65256886529 L 547.6005522414544 100.55397779849415 L 547.5062325458159 100.45495541102012 L 547.4141080248529 100.35551160502415 L 547.3241878909407 100.25565632480394 L 547.2364811360178 100.15539955580432 L 547.1509965306865 100.05475132361865 L 547.0677426233362 99.95372169298625 L 546.9867277392882 99.85232076678601 L 546.9079599799634 99.75055868502605 L 546.8314472220721 99.64844562382973 L 546.7571971168263 99.5459917944181 L 546.6852170891748 99.4432074420887 L 546.6155143370601 99.34010284519113 L 546.5480958306996 99.23668831409914 L 546.4829683118876 99.13297419017968 L 546.4201382933217 99.02897084475869 L 546.3596120579515 98.92468867808407 L 546.30139565835 98.82013811828556 L 546.2454949161088 98.71532962033203 L 546.1919154212553 98.61027366498594 L 546.1406625316945 98.50498075775526 L 546.0917413726727 98.39946142784298 L 546.0451568362648 98.29372622709415 L 546.0009135808859 98.18778572894077 L 545.9590160308245 98.08165052734432 L 545.9194683758008 97.97533123573653 L 545.8822745705471 97.868838485958 L 545.8474383344133 97.7621829271949 L 545.8149631509935 97.65537522491428 L 545.7848522677796 97.54842605979732 L 545.7571086958343 97.44134612667145 L 545.731735209492 97.33414613344073 L 545.70873434608 97.22683680001514 L 545.6881084056655 97.1194288572386 L 545.6698594508254 97.0119330458159 L 545.6539893064399 96.90436011523857 L 545.6404995595104 96.79672082271007 L 545.6293915590002 96.68902593206992 L 545.6206664157002 96.58128621271746 L 545.6143250021172 96.47351243853481 L 545.6103679523876 96.36571538680961 L 545.6087956622129 96.25790583715718 L 545.6096082888208 96.15009457044266 L 545.6128057509494 96.04229236770287 L 545.618387728855 95.93451000906825 L 545.6263536643447 95.82675827268484 L 545.6367027608314 95.7190479336365 L 545.6494339834143 95.61138976286738 L 545.6645460589814 95.50379452610481 L 545.682037476338 95.39627298278283 L 545.7019064863568 95.28883588496618 L 545.7241511021534 95.18149397627508 L 545.7487690992849 95.07425799081098 L 545.7757580159719 94.96713865208302 L 545.8051151533452 94.86014667193587 L 545.8368375757158 94.75329274947832 L 545.8709221108677 94.64658757001362 L 545.9073653503757 94.54004180397077 L 545.9461636499465 94.43366610583759 L 545.9873131297821 94.32747111309526 L 546.0308096749692 94.22146744515454 L 546.0766489358892 94.1156657022939 L 546.1248263286544 94.01007646459945 L 546.1753370355657 93.90471029090699 L 546.2281760055943 93.79957771774606 L 546.2833379548874 93.69468925828637 L 546.340817367296 93.59005540128646 L 546.4006084949268 93.48568661004485 L 546.4627053587167 93.38159332135368 L 546.5271017490312 93.27778594445506 L 546.593791226285 93.1742748600002 L 546.6627671215858 93.07107041901128 L 546.7340225374016 92.96818294184638 L 546.8075503482503 92.86562271716748 L 546.8833432014119 92.7634000009116 L 546.9613935176643 92.66152501526518 L 547.0416934920411 92.56000794764186 L 547.1242350946114 92.45885894966383 L 547.2090100712842 92.35808813614659 L 547.2960099446321 92.25770558408753 L 547.3852260147405 92.15772133165818 L 547.4766493600766 92.05814537720047 L 547.5702708383822 91.95898767822688 L 547.6660810875871 91.86025815042466 L 547.7640705267468 91.76196666666432 L 547.8642293569986 91.66412305601233 L 547.9665475625432 91.56673710274822 L 548.071014911645 91.46981854538616 L 548.1776209576565 91.37337707570111 L 548.2863550400617 91.2774223377597 L 548.397206285543 91.18196392695573 L 548.5101636090684 91.08701138905076 L 548.6252157149995 90.99257421921942 L 548.7423510982217 90.89866186110004 L 548.861558045294 90.80528370585013 L 548.9828246356215 90.71244909120742 L 549.106138742646 90.620167300556 L 549.2314880350593 90.52844756199806 L 549.358859978037 90.437299047431 L 549.4882418344909 90.34673087163033 L 549.6196206663429 90.25675209133814 L 549.7529833358195 90.1673717043575 L 549.8883165067649 90.07859864865262 L 550.0256066459748 89.99044180145509 L 550.1648400245496 89.90290997837616 L 550.3060027192674 89.81601193252519 L 550.4490806139765 89.72975635363437 L 550.5940594010067 89.64415186718969 L 550.7409245826 89.55920703356847 L 550.8896614723607 89.47493034718329 L 551.0402551967236 89.39133023563254 L 551.192690696442 89.30841505885772 L 551.3469527280928 89.22619310830741 L 551.5030258656014 89.14467260610814 L 551.6608945017842 89.06386170424221 L 551.8205428499092 88.98376848373246 L 551.9819549452743 88.9044009538342 L 552.1451146468048 88.82576705123427 L 552.3100056386663 88.7478746392574 L 552.4766114318973 88.67073150707989 L 552.644915366057 88.59434536895068 L 552.8149006108923 88.5187238634199 L 552.9865501680206 88.4438745525751 L 553.159846872629 88.369804921285 L 553.3347733951915 88.29652237645098 L 553.5113122432017 88.22403424626648 L 553.6894457629218 88.1523477794841 L 553.8691561411483 88.08147014469078 L 554.0504254069932 88.01140842959094 L 554.2332354336809 87.94216964029769 L 554.4175679403611 87.87376070063229 L 554.6034044939369 87.80618845143167 L 554.7907265109075 87.73945964986444 L 554.9795152592274 87.67358096875519 L 555.1697518601792 87.60855899591708 L 555.3614172902613 87.54440023349323 L 555.5544923830904 87.48111109730644 L 555.7489578313181 87.41869791621755 L 555.9447941885617 87.35716693149269 L 556.1419818713484 87.29652429617903 L 556.3405011610747 87.23677607448957 L 556.5403322059767 87.17792824119671 L 556.7414550231165 87.11998668103473 L 556.9438495003801 87.06295718811135 L 557.1474953984884 87.00684546532835 L 557.3523723530212 86.95165712381124 L 557.5584598764539 86.89739768234818 L 557.7657373602058 86.84407256683812 L 557.9741840767012 86.79168710974815 L 558.1837791814424 86.74024654958035 L 558.3945017150934 86.68975603034785 L 558.6063306055764 86.64022060106049 L 558.819244670179 86.59164521521994 L 559.0332226176722 86.5440347303243 L 559.2482430504394 86.49739390738237 L 559.4642844666166 86.4517274104376 L 559.6813252622421 86.40703980610161 L 559.8993437334175 86.3633355630976 L 560.118318078477 86.32061905181345 L 560.3382264001689 86.27889454386471 L 560.559046707844 86.23816621166738 L 560.7807569196557 86.19843812802074 L 561.0033348647676 86.15971426570005 L 561.2267582855706 86.12199849705928 L 561.4510048399087 86.08529459364387 L 561.6760521033136 86.04960622581356 L 561.9018775712464 86.0149369623754 L 562.1284586613484 85.98129027022685 L 562.3557727156996 85.94866951400907 L 562.5837970030836 85.91707795577051 L 562.8125087212621 85.88651875464066 L 563.0418849992537 85.85699496651418 L 563.2719028996219 85.82850954374526 L 563.502539420768 85.80106533485245 L 563.7337714992324 85.77466508423377 L 563.9655760119997 85.7493114318923 L 564.1979297788121 85.7250069131721 L 564.4308095644863 85.70175395850482 L 564.6641920812378 85.67955489316655 L 564.8980539910096 85.65841193704532 L 565.1323719078055 85.63832720441913 L 565.367122400029 85.61930270374448 L 565.6022819928265 85.60134033745561 L 565.8378271704349 85.58444190177417 L 566.0737343785325 85.56860908652965 L 566.3099800265953 85.55384347499039 L 566.5465404902551 85.5401465437052 L 566.7833921136629 85.52751966235584 L 567.0205112118535 85.51596409361991 L 567.257874073115 85.50548099304464 L 567.4954569613587 85.49607140893136 L 567.733236118494 85.48773628223064 L 567.9711877668034 85.48047644644821 L 568.2092881113201 85.4742926275616 L 568.4475133422083 85.46918544394751 L 568.6858396371433 85.4651554063201 L 568.9242431636943 85.46220291767973 L 569.1627000817072 85.46032827327284 L 569.401186545689 85.45953166056228 L 569.639678707192 85.45981315920866 L 569.8781527171989 85.46117274106237 L 570.1165847285073 85.46361027016634 L 570.3549508981148 85.4671255027697 L 570.593227389603 85.47171808735212 L 570.8313903755216 85.47738756465895 L 571.0694160397701 85.4841333677472 L 571.3072805799806 85.49195482204219 L 571.5449602098972 85.500851145405 L 571.7824311617553 85.51082144821069 L 572.0196696886572 85.52186473343731 L 572.2566520669482 85.53397989676554 L 572.4933545985878 85.54716572668913 L 572.7297536135201 85.5614209046361 L 572.9658254720407 85.5767440051005 L 573.2015465671603 85.59313349578507 L 573.436893326966 85.6105877377544 L 573.6718422169779 85.62910498559884 L 573.9063697425026 85.64868338760904 L 574.1404524509834 85.66932098596111 L 574.3740669343441 85.6910157169124 L 574.6071898313312 85.71376541100791 L 574.8397978298493 85.73756779329719 L 575.0718676692924 85.76242048356184 L 575.3033761428699 85.78832099655354 L 575.5343000999273 85.81526674224258 L 575.7646164482616 85.84325502607685 L 575.9943021564295 85.87228304925127 L 576.2233342560519 85.90234790898774 L 576.4516898441095 85.93344659882531 L 576.679346085234 85.96557600892095 L 576.9062802139907 85.99873292636039 L 577.1324695371561 86.03291403547954 L 577.3578914359864 86.06811591819596 L 577.5825233684793 86.10433505435071 L 577.806342871629 86.14156782206037 L 578.0293275636716 86.17981049807918 L 578.2514551463236 86.21905925817143 L 578.4727034070121 86.25931017749379 L 578.6930502210952 86.30055923098789 L 578.9124735540751 86.34280229378275 L 579.1309514638015 86.3860351416073 L 579.3484621026654 86.43025345121276 L 579.5649837197842 86.47545280080504 L 579.7804946631766 86.52162867048685 L 579.9949733819278 86.56877644270969 L 580.2083984283448 86.61689140273562 L 580.4207484601008 86.66596873910875 L 580.6320022423695 86.71600354413634 L 580.8421386499487 86.76699081437957 L 581.0511366693727 86.81892545115392 L 581.2589754010139 86.87180226103897 L 581.4656340611722 86.9256159563978 L 581.6710919841539 86.98036115590575 L 581.8753286243378 87.03603238508846 L 582.0783235582302 87.0926240768694 L 582.2800564865067 87.15013057212657 L 582.4805072360429 87.20854612025836 L 582.6796557619305 87.26786487975863 L 582.8774821494831 87.32808091880088 L 583.0739666162267 87.38918821583137 L 583.2690895138785 87.45118066017132 L 583.4628313303112 87.51405205262795 L 583.6551726915046 87.57779610611442 L 583.8460943634831 87.6424064462785 L 584.0355772542382 87.70787661214001 L 584.2236024156391 87.77420005673692 L 584.4101510453262 87.84137014778005 L 584.5952044885919 87.90938016831626 L 584.7787442402462 87.97822331740018 L 584.9607519464669 88.04789271077426 L 585.141209406635 88.11838138155724 L 585.3200985751548 88.18968228094076 L 585.4974015632586 88.2617882788943 L 585.6731006407954 88.33469216487818 L 585.8471782380037 88.40838664856452 L 586.019616947269 88.48286436056638 L 586.190399524864 88.55811785317462 L 586.3595088926733 88.6341396011027 L 586.5269281399009 88.71092200223917 L 586.6926405247617 88.7884573784079 L 586.8566294761554 88.8667379761359 L 587.0188785953234 88.9457559674286 L 587.179371657489 89.02550345055275 L 587.3380926134798 89.10597245082647 L 587.4950255913324 89.1871549214168 L 587.6501548978797 89.26904274414436 L 587.8034650203206 89.35162773029508 L 587.9549406277703 89.43490162143917 L 588.1045665727944 89.51885609025692 L 588.2523278929232 89.60348274137141 L 588.3982098121477 89.68877311218804 L 588.5421977423975 89.77471867374081 L 588.6842772849998 89.8613108315452 L 588.8244342321185 89.94854092645757 L 588.9626545681757 90.03640023554112 L 589.0989244712531 90.12487997293817 L 589.2332303144739 90.2139712907487 L 589.3655586673657 90.3036652799152 L 589.4958962972033 90.39395297111345 L 589.6242301703327 90.48482533564962 L 589.7505474534734 90.57627328636293 L 589.874835515002 90.66828767853457 L 589.9970819262164 90.76085931080198 L 590.1172744625771 90.85397892607905 L 590.2354011049308 90.94763721248188 L 590.3514500407115 91.04182480425987 L 590.4654096651224 91.13653228273235 L 590.577268582296 91.23175017723037 L 590.6870156064339 91.32746896604384 L 590.794639762925 91.42367907737363 L 590.9001302894435 91.5203708902888 L 591.0034766370245 91.61753473568862 L 591.1046684711195 91.71516089726953 L 591.2036956726294 91.81323961249673 L 591.3005483389163 91.91176107358042 L 591.3952167847947 92.01071542845659 L 591.4876915434986 92.11009278177222 L 591.5779633676294 92.20988319587481 L 591.6660232300798 92.31007669180607 L 591.7518623249368 92.41066325029993 L 591.8354720683628 92.51163281278436 L 591.9168440994528 92.61297528238724 L 591.9959702810717 92.71468052494606 L 592.0728427006671 92.81673837002134 L 592.1474536710613 92.9191386119136 L 592.2197957312194 93.02187101068398 L 592.2898616469955 93.12492529317824 L 592.3576444118565 93.22829115405399 L 592.4231372475825 93.33195825681128 L 592.4863336049443 93.43591623482622 L 592.5472271643591 93.54015469238766 L 592.6058118365215 93.64466320573669 L 592.6620817630131 93.74943132410907 L 592.7160313168883 93.85444857078026 L 592.7676551032366 93.95970444411313 L 592.8169479597223 94.06518841860805 L 592.8639049571009 94.17088994595545 L 592.9085213997117 94.27679845609072 L 592.9507928259478 94.38290335825107 L 592.9907150087016 94.48919404203473 L 593.0282839557883 94.59565987846186 L 593.0634959103443 94.70229022103757 L 593.0963473512036 94.80907440681646 L 593.1268349932495 94.91600175746893 L 593.1549557877432 95.02306158034904 L 593.1807069226286 95.13024316956367 L 593.2040858228138 95.23753580704327 L 593.2250901504281 95.34492876361347 L 593.2437178050563 95.4524113000681 L 593.2599669239486 95.55997266824312 L 593.2738358822065 95.66760211209133 L 593.2853232929458 95.77528886875801 L 593.2944280074349 95.88302216965727 L 593.3011491152101 95.99079124154878 L 593.3054859441661 96.09858530761515 L 593.3074380606237 96.20639358853963 M 593.3075590506796 130.5446620031 L 593.306366590776 130.65247254801662 L 593.3027893303099 130.7602723119686 L 593.2968276270046 130.86805051506934 L 593.2884820770253 130.97579637958842 L 593.27775351492 131.08349913102907 L 593.2646430135362 131.191147999206 L 593.249151883913 131.29873221932203 L 593.2312816751504 131.40624103304486 L 593.2110341742543 131.51366368958264 L 593.1884114059582 131.6209894467593 L 593.1634156325198 131.7282075720885 L 593.1360493534958 131.83530734384712 L 593.1063153054912 131.94227805214717 L 593.0742164618861 132.049109000007 L 593.039756032538 132.15578950442085 L 593.0029374634612 132.26230889742718 L 592.9637644364818 132.36865652717543 L 592.9222408688701 132.47482175899125 L 592.8783709129481 132.58079397643996 L 592.8321589556747 132.6865625823881 L 592.7836096182074 132.79211700006323 L 592.7327277554393 132.89744667411154 L 592.6795184555144 133.00254107165338 L 592.6239870393182 133.10738968333658 L 592.5661390599462 133.2119820243874 L 592.505980302148 133.3163076356588 L 592.4435167817494 133.42035608467668 L 592.3787547450502 133.52411696668278 L 592.3117006682002 133.62757990567542 L 592.2423612565512 133.73073455544687 L 592.1707434439866 133.83357060061815 L 592.0968543922279 133.9360777576704 L 592.0207014901189 134.0382457759734 L 591.942292352886 134.14006443881038 L 591.861634821378 134.24152356439998 L 591.7787369612805 134.34261300691415 L 591.6936070623107 134.44332265749287 L 591.6062536373872 134.54364244525505 L 591.51668542178 134.6435623383055 L 591.424911372236 134.74307234473812 L 591.3309406660835 134.8421625136353 L 591.234782700315 134.9408229360626 L 591.1364470906469 135.0390437460601 L 591.035943670558 135.1368151216286 L 590.933282490307 135.23412728571202 L 590.8284738159259 135.33097050717507 L 590.721528128195 135.42733510177626 L 590.612456121594 135.5232114331365 L 590.5012687032328 135.6185899137025 L 590.3879769917602 135.71346100570568 L 590.2725923162533 135.80781522211595 L 590.1551262150832 135.90164312759026 L 590.0355904347623 135.99493533941623 L 589.913996928769 136.08768252845047 L 589.7903578563527 136.17987542005133 L 589.6646855813173 136.2715047950065 L 589.5369926707858 136.36256149045482 L 589.4072918939428 136.45303640080266 L 589.2755962207578 136.54292047863436 L 589.1419188206886 136.63220473561702 L 589.0062730613637 136.72088024339936 L 588.8686725072458 136.8089381345045 L 588.7291309182759 136.89636960321673 L 588.5876622484966 136.98316590646203 L 588.4442806446568 137.06931836468237 L 588.2990004447977 137.15481836270376 L 588.1518361768178 137.23965735059764 L 588.0028025570217 137.3238268445359 L 587.8519144886468 137.4073184276393 L 587.6991870603745 137.49012375081912 L 587.5446355448203 137.57223453361203 L 587.3882753970067 137.65364256500817 L 587.2301222528184 137.73433970427226 L 587.0701919274381 137.8143178817576 L 586.908500413765 137.89356909971312 L 586.7450638808157 137.97208543308304 L 586.5798986721071 138.04985903029944 L 586.4130213040228 138.12688211406746 L 586.2444484641603 138.20314698214287 L 586.0741970096632 138.2786460081024 L 585.902283965535 138.35337164210642 L 585.728726522937 138.42731641165378 L 585.5535420374687 138.50047292232912 L 585.3767480274327 138.5728338585424 L 585.1983621720826 138.6443919842602 L 585.0184023098553 138.71514014372968 L 584.8368864365873 138.78507126219378 L 584.6538327037143 138.85417834659899 L 584.4692594164574 138.92245448629438 L 584.2831850319911 138.98989285372295 L 584.0956281575992 139.0564867051041 L 583.9066075488125 139.12222938110824 L 583.7161421075347 139.18711430752253 L 583.5242508801508 139.2511349959084 L 583.330953055624 139.3142850442503 L 583.1362679635755 139.37655813759613 L 582.9402150723523 139.4379480486884 L 582.7428139870801 139.49844863858718 L 582.5440844477031 139.55805385728382 L 582.3440463270093 139.61675774430623 L 582.1427196286444 139.67455442931453 L 581.9401244851103 139.73143813268845 L 581.7362811557525 139.78740316610504 L 581.5312100247343 139.84244393310757 L 581.3249315989975 139.89655492966523 L 581.1174665062132 139.94973074472344 L 580.9088354927175 140.00196606074505 L 580.699059421438 140.05325565424192 L 580.488159269807 140.1035943962975 L 580.276156127664 140.1529772530795 L 580.0630711951463 140.20139928634342 L 579.84892578057 140.24885565392626 L 579.6337412982977 140.29534161023082 L 579.4175392665984 140.3408525067002 L 579.2003413054953 140.38538379228268 L 578.9821691346033 140.42893101388682 L 578.7630445709577 140.47148981682676 L 578.5429895268323 140.51305594525763 L 578.3220260075483 140.55362524260127 L 578.1001761092733 140.59319365196174 L 577.8774620168123 140.63175721653107 L 577.6539060013888 140.66931207998493 L 577.4295304184184 140.7058544868683 L 577.2043577052721 140.7413807829709 L 576.9784103790337 140.77588741569278 L 576.7517110342475 140.80937093439937 L 576.524282340659 140.84182799076672 L 576.2961470409482 140.87325533911627 L 576.0673279484549 140.90364983673933 L 575.8378479448976 140.9330084442115 L 575.6077299780856 140.9613282256965 L 575.3769970596235 140.98860634923975 L 575.1456722626111 141.01484008705162 L 574.9137787193353 141.04002681578024 L 574.6813396189572 141.0641640167737 L 574.4483782051931 141.08724927633202 L 574.2149177739901 141.10928028594847 L 573.9809816711971 141.13025484254044 L 573.7465932902292 141.15017084866977 L 573.5117760697292 141.16902631275246 L 573.2765534912236 141.18681934925777 L 573.0409490767739 141.2035481788969 L 572.8049863866256 141.21921112880085 L 572.568689016851 141.23380663268765 L 572.33208059699 141.24733323101907 L 572.0951847876873 141.25978957114654 L 571.8580252783269 141.2711744074465 L 571.6206257846617 141.28148660144473 L 571.3830100464432 141.29072512193042 L 571.1452018250476 141.2988890450593 L 570.9072249010985 141.30597755444578 L 570.6691030720901 141.31198994124486 L 570.430860150007 141.31692560422286 L 570.1925199589426 141.32078404981763 L 569.9541063327176 141.3235648921878 L 569.7156431124959 141.32526785325143 L 569.4771541444007 141.32589276271386 L 569.2386632771302 141.32543955808467 L 569.0001943595723 141.3239082846839 L 568.7617712384201 141.32129909563767 L 568.5234177557871 141.3176122518627 L 568.2851577468227 141.31284812204026 L 568.0470150373295 141.3070071825794 L 567.8090134413799 141.30009001756918 L 567.571176758935 141.29209731872032 L 567.3335287734651 141.2830298852961 L 567.0960932495706 141.27288862403225 L 566.8588939306059 141.26167454904646 L 566.6219545363055 141.2493887817369 L 566.3852987604112 141.23603255067005 L 566.1489502683033 141.22160719145788 L 565.9129326946343 141.20611414662432 L 565.6772696409647 141.1895549654609 L 565.4419846734036 141.17193130387196 L 565.2071013202516 141.153244924209 L 564.9726430696483 141.13349769509435 L 564.7386333672234 141.1126915912345 L 564.505095613752 141.0908286932225 L 564.2720531628152 141.06791118732997 L 564.0395293184635 141.04394136528833 L 563.8075473328876 141.01892162405983 L 563.576130404093 140.9928544655978 L 563.3453016735795 140.96574249659628 L 563.1150842240279 140.93758842822962 L 562.8855010769913 140.90839507588117 L 562.656575190593 140.8781653588619 L 562.428329457231 140.84690230011824 L 562.2007867012884 140.81460902593008 L 561.9739696768511 140.7812887655979 L 561.7479010654326 140.74694485111993 L 561.5226034737057 140.71158071685906 L 561.2980994312416 140.6751998991992 L 561.0744113882577 140.63780603619185 L 560.8515617133718 140.59940286719208 L 560.6295726913656 140.55999423248485 L 560.4084665209566 140.51958407290076 L 560.1882653125772 140.4781764294221 L 559.968991086165 140.4357754427787 L 559.7506657689598 140.3923853530339 L 559.5333111933114 140.3480104991605 L 559.3169490944964 140.30265531860692 L 559.1016011085441 140.25632434685343 L 558.8872887700738 140.2090222169586 L 558.6740335101407 140.160753659096 L 558.4618566540933 140.11152350008118 L 558.2507794194399 140.061336662889 L 558.0408229137286 140.01019816616142 L 557.8320081324347 139.9581131237054 L 557.6243559568624 139.90508674398188 L 557.4178871520562 139.85112432958456 L 557.2126223647246 139.79623127671 L 557.0085821211751 139.74041307461766 L 556.8057868252621 139.68367530508127 L 556.6042567563463 139.6260236418305 L 556.4040120672666 139.56746384998365 L 556.205072782325 139.50800178547107 L 556.0074587952843 139.4476433944497 L 555.8111898673784 139.3863947127083 L 555.6162856253366 139.32426186506402 L 555.4227655594207 139.26125106474987 L 555.2306490214759 139.19736861279335 L 555.0399552229961 139.13262089738643 L 554.8507032332021 139.0670143932467 L 554.6629119771352 139.00055566096987 L 554.4766002337645 138.93325134637382 L 554.2917866341091 138.8651081798339 L 554.1084896593751 138.79613297561 L 553.926727639107 138.72633263116504 L 553.7465187493553 138.65571412647532 L 553.5678810108591 138.58428452333243 L 553.3908322872431 138.5120509646372 L 553.2153902832323 138.4390206736853 L 553.0415725428809 138.3652009534449 L 552.869396447818 138.2905991858266 L 552.6988792155096 138.21522283094495 L 552.530037897537 138.13907942637263 L 552.3628893778911 138.06217658638664 L 552.1974503712847 137.9845220012069 L 552.0337374214805 137.90612343622718 L 551.8717668996372 137.8269887312387 L 551.711555002672 137.747125799646 L 551.5531177516408 137.66654262767568 L 551.396470990137 137.58524727357778 L 551.2416303827061 137.50324786681995 L 551.0886114132798 137.42055260727457 L 550.9374293836275 137.33716976439865 L 550.7880994118262 137.253107676407 L 550.6406364307487 137.16837474943839 L 550.4950551865702 137.0829794567149 L 550.3513702372937 136.9969303376946 L 550.2095959512945 136.9102359972177 L 550.0697465058831 136.82290510464605 L 549.9318358858874 136.73494639299608 L 549.7958778822543 136.64636865806568 L 549.6618860906713 136.55718075755453 L 549.5298739102055 136.46739161017834 L 549.3998545419652 136.37701019477703 L 549.2718409877787 136.28604554941683 L 549.1458460488948 136.19450677048647 L 549.0218823247025 136.10240301178757 L 548.8999622114708 136.00974348361922 L 548.7800979011093 135.91653745185704 L 548.6623013799494 135.82279423702653 L 548.546584427545 135.72852321337106 L 548.4329586154947 135.63373380791444 L 548.3214353062854 135.53843549951822 L 548.2120256521547 135.44263781793381 L 548.104740593977 135.34635034284955 L 547.9995908601687 135.2495827029327 L 547.8965869656157 135.15234457486665 L 547.7957392106214 135.05464568238312 L 547.6970576798773 134.95649579528998 L 547.6005522414544 134.85790472849413 L 547.5062325458159 134.75888234102013 L 547.4141080248529 134.65943853502412 L 547.3241878909407 134.55958325480393 L 547.2364811360178 134.4593264858043 L 547.1509965306865 134.35867825361862 L 547.0677426233362 134.25764862298624 L 546.9867277392882 134.156247696786 L 546.9079599799634 134.05448561502604 L 546.8314472220721 133.95237255382972 L 546.7571971168263 133.8499187244181 L 546.6852170891748 133.7471343720887 L 546.6155143370601 133.64402977519111 L 546.5480958306996 133.54061524409914 L 546.4829683118876 133.43690112017967 L 546.4201382933217 133.3328977747587 L 546.3596120579515 133.22861560808406 L 546.30139565835 133.12406504828556 L 546.2454949161088 133.01925655033202 L 546.1919154212553 132.9142005949859 L 546.1406625316945 132.80890768775524 L 546.0917413726727 132.70338835784298 L 546.0451568362648 132.59765315709416 L 546.0009135808859 132.49171265894074 L 545.9590160308245 132.3855774573443 L 545.9194683758008 132.27925816573654 L 545.8822745705471 132.17276541595797 L 545.8474383344133 132.0661098571949 L 545.8149631509935 131.95930215491427 L 545.7848522677796 131.8523529897973 L 545.7571086958343 131.74527305667144 L 545.731735209492 131.63807306344071 L 545.70873434608 131.5307637300151 L 545.6881084056655 131.4233557872386 L 545.6698594508254 131.31585997581587 L 545.6539893064399 131.20828704523856 L 545.6404995595104 131.10064775271007 L 545.6293915590002 130.9929528620699 L 545.6206664157002 130.88521314271745 L 545.6143250021172 130.7774393685348 L 545.6103679523876 130.6696423168096 L 545.6087956622129 130.56183276715717" stroke-miterlimit="10" stroke-width="2.7769845610000004" stroke-dasharray=""/></g><g><g/><text fill="black" stroke="none" font-family="monospace" font-size="11pt" font-style="normal" font-weight="normal" text-decoration="normal" x="537.2176226818984" y="157.597015222" text-anchor="start" dominant-baseline="alphabetic" xml:space="preserve">Database</text></g><g><path fill="white" stroke="lightblue" paint-order="fill stroke markers" d=" M 683.0222234716562 112.4289215434 A 24.2577769005 24.2577769005 0 1 1 683.0222113427687 112.40466377054244 M 631.7296851096563 141.1298737415 L 685.7992080326561 141.1298737415" stroke-miterlimit="10" stroke-width="5.553969122000001" stroke-dasharray=""/></g><g><g/><text fill="black" stroke="none" font-family="monospace" font-size="11pt" font-style="normal" font-weight="normal" text-decoration="normal" x="618.4637721326797" y="157.597015222" text-anchor="start" dominant-baseline="alphabetic" xml:space="preserve">ML Service</text></g><g><path fill="white" stroke="gray" paint-order="fill stroke markers" d=" M 779.9587756486093 114.6505091922 A 24.2577769005 24.2577769005 0 1 1 779.9587635197219 114.62625141934245 M 730.0547295671093 141.1298737415 L 781.3472679291093 141.1298737415" stroke-miterlimit="10" stroke-width="2.7769845610000004" stroke-dasharray=""/></g><g><g/><text fill="black" stroke="none" font-family="monospace" font-size="11pt" font-style="normal" font-weight="normal" text-decoration="normal" x="715.4003243096328" y="157.597015222" text-anchor="start" dominant-baseline="alphabetic" xml:space="preserve">TwitterAPI</text></g><g><path fill="white" stroke="blue" paint-order="fill stroke markers" d=" M 33.598937306390624 258.5171577635 A 9.311065881 9.311065881 0 1 1 33.598932650858075 258.50784669917084 M 24.287871425390627 267.8282236445 L 24.287871425390627 287.7571716705 M 12.526525049390628 275.01571309649995 L 36.049217801390625 275.01571309649995 M 24.287871425390627 287.7571716705 L 12.526525049390628 306.37930343249997 M 24.287871425390627 287.7571716705 L 36.049217801390625 306.37930343249997" stroke-miterlimit="10" stroke-width="1.3884922805000002" stroke-dasharray=""/></g><g><g/><text fill="black" stroke="none" font-family="monospace" font-size="11pt" font-style="normal" font-weight="normal" text-decoration="normal" x="8.167601650000002" y="242.91703861199997" text-anchor="start" dominant-baseline="alphabetic" xml:space="preserve">User</text></g><g><path fill="white" stroke="blue" paint-order="fill stroke markers" d=" M 98.29494993256252 258.5171577635 A 9.311065881 9.311065881 0 1 1 98.29494527702995 258.50784669917084 M 88.98388405156251 267.8282236445 L 88.98388405156251 287.7571716705 M 77.2225376755625 275.01571309649995 L 100.74523042756252 275.01571309649995 M 88.98388405156251 287.7571716705 L 77.2225376755625 306.37930343249997 M 88.98388405156251 287.7571716705 L 100.74523042756252 306.37930343249997" stroke-miterlimit="10" stroke-width="1.3884922805000002" stroke-dasharray=""/></g><g><g/><text fill="black" stroke="none" font-family="monospace" font-size="11pt" font-style="normal" font-weight="normal" text-decoration="normal" x="56.74334450078126" y="242.91703861199997" text-anchor="start" dominant-baseline="alphabetic" xml:space="preserve">Operator</text></g><path fill="none" stroke="none"/><g><path fill="white" stroke="orange" paint-order="fill stroke markers" d=" M 137.55962690234378 227.83838941199997 L 237.4880971649063 227.83838941199997 L 237.4880971649063 270.68688422199995 L 137.55962690234378 270.68688422199995 L 137.55962690234378 227.83838941199997 Z" stroke-miterlimit="10" stroke-width="2.613632528" stroke-dasharray=""/></g><g><g/><text fill="black" stroke="none" font-family="monospace" font-size="11pt" font-style="normal" font-weight="normal" text-decoration="normal" x="155.28332248284377" y="254.35168092199999" text-anchor="start" dominant-baseline="alphabetic" xml:space="preserve">Frontend</text></g><g><path fill="white" stroke="green" paint-order="fill stroke markers" d=" M 326.6568202161875 274.8523610634999 A 24.2577769005 24.2577769005 0 1 1 326.6568080873001 274.8281032906424 M 262.7780077115375 249.62263956664992 L 262.7780077115375 300.08208256034993 M 261.8060631151875 274.8523610634999 L 278.1412664151875 274.8523610634999" stroke-miterlimit="10" stroke-width="1.9438891927000002" stroke-dasharray=""/></g><g><g/><text fill="black" stroke="none" font-family="monospace" font-size="11pt" font-style="normal" font-weight="normal" text-decoration="normal" x="261.99090211490625" y="242.91703861199997" text-anchor="start" dominant-baseline="alphabetic" xml:space="preserve">Endpoint</text></g><g><path fill="white" stroke="red" paint-order="fill stroke markers" d=" M 415.4257707431406 281.63147043299995 A 24.2577769005 24.2577769005 0 1 1 415.4257586142532 281.6072126601424 M 387.9009531826406 257.37369353249994 L 397.7020751626406 249.20609188249995 M 387.9009531826406 257.37369353249994 L 397.7020751626406 265.54129518249994" stroke-miterlimit="10" stroke-width="1.9438891927000002" stroke-dasharray=""/></g><g><g/><text fill="black" stroke="none" font-family="monospace" font-size="11pt" font-style="normal" font-weight="normal" text-decoration="normal" x="342.80718451646874" y="242.91703861199997" text-anchor="start" dominant-baseline="alphabetic" xml:space="preserve">Auth Service</text></g><g><path fill="white" stroke="red" paint-order="fill stroke markers" d=" M 508.3322554762461 281.63147043299995 A 24.2577769005 24.2577769005 0 1 1 508.33224334735866 281.6072126601424 M 480.80743791574605 257.37369353249994 L 490.60855989574605 249.20609188249995 M 480.80743791574605 257.37369353249994 L 490.60855989574605 265.54129518249994" stroke-miterlimit="10" stroke-width="1.9438891927000002" stroke-dasharray=""/></g><g><g/><text fill="black" stroke="none" font-family="monospace" font-size="11pt" font-style="normal" font-weight="normal" text-decoration="normal" x="455.8640064688125" y="242.91703861199997" text-anchor="start" dominant-baseline="alphabetic" xml:space="preserve">Scraper</text></g><g><path fill="pink" stroke="black" paint-order="fill stroke markers" d=" M 545.6087654146797 295.679745271 L 545.6087654146797 261.37581834099996 L 593.3075590506796 261.37581834099996 L 593.3075590506796 295.679745271" stroke-miterlimit="10" stroke-width="2.7769845610000004" stroke-dasharray=""/><path fill="pink" stroke="black" paint-order="fill stroke markers" d=" M 593.3075590506796 260.18334850009995 L 593.306366590776 260.29115904501657 L 593.3027893303099 260.39895880896853 L 593.2968276270046 260.5067370120693 L 593.2884820770253 260.61448287658834 L 593.27775351492 260.722185628029 L 593.2646430135362 260.82983449620593 L 593.249151883913 260.937418716322 L 593.2312816751504 261.0449275300448 L 593.2110341742543 261.1523501865826 L 593.1884114059582 261.25967594375925 L 593.1634156325198 261.36689406908846 L 593.1360493534958 261.4739938408471 L 593.1063153054912 261.58096454914715 L 593.0742164618861 261.68779549700696 L 593.039756032538 261.79447600142083 L 593.0029374634612 261.9009953944271 L 592.9637644364818 262.0073430241754 L 592.9222408688701 262.11350825599123 L 592.8783709129481 262.2194804734399 L 592.8321589556747 262.3252490793881 L 592.7836096182074 262.43080349706315 L 592.7327277554393 262.5361331711115 L 592.6795184555144 262.64122756865333 L 592.6239870393182 262.74607618033656 L 592.5661390599462 262.8506685213873 L 592.505980302148 262.9549941326588 L 592.4435167817494 263.05904258167664 L 592.3787547450502 263.16280346368274 L 592.3117006682002 263.26626640267534 L 592.2423612565512 263.3694210524468 L 592.1707434439866 263.47225709761807 L 592.0968543922279 263.57476425467036 L 592.0207014901189 263.6769322729733 L 591.942292352886 263.77875093581036 L 591.861634821378 263.8802100613999 L 591.7787369612805 263.9812995039141 L 591.6936070623107 264.0820091544928 L 591.6062536373872 264.182328942255 L 591.51668542178 264.28224883530544 L 591.424911372236 264.3817588417381 L 591.3309406660835 264.4808490106352 L 591.234782700315 264.5795094330626 L 591.1364470906469 264.67773024306007 L 591.035943670558 264.77550161862854 L 590.933282490307 264.872813782712 L 590.8284738159259 264.969657004175 L 590.721528128195 265.0660215987762 L 590.612456121594 265.16189793013643 L 590.5012687032328 265.25727641070245 L 590.3879769917602 265.35214750270563 L 590.2725923162533 265.44650171911593 L 590.1551262150832 265.5403296245902 L 590.0355904347623 265.6336218364162 L 589.913996928769 265.7263690254504 L 589.7903578563527 265.8185619170513 L 589.6646855813173 265.91019129200646 L 589.5369926707858 266.0012479874548 L 589.4072918939428 266.09172289780264 L 589.2755962207578 266.1816069756343 L 589.1419188206886 266.270891232617 L 589.0062730613637 266.3595667403993 L 588.8686725072458 266.4476246315045 L 588.7291309182759 266.5350561002167 L 588.5876622484966 266.62185240346196 L 588.4442806446568 266.7080048616823 L 588.2990004447977 266.7935048597037 L 588.1518361768178 266.8783438475976 L 588.0028025570217 266.96251334153584 L 587.8519144886468 267.04600492463925 L 587.6991870603745 267.12881024781905 L 587.5446355448203 267.210921030612 L 587.3882753970067 267.2923290620081 L 587.2301222528184 267.3730262012722 L 587.0701919274381 267.45300437875756 L 586.908500413765 267.53225559671307 L 586.7450638808157 267.610771930083 L 586.5798986721071 267.6885455272994 L 586.4130213040228 267.7655686110674 L 586.2444484641603 267.8418334791428 L 586.0741970096632 267.91733250510237 L 585.902283965535 267.9920581391064 L 585.728726522937 268.06600290865373 L 585.5535420374687 268.1391594193291 L 585.3767480274327 268.21152035554235 L 585.1983621720826 268.2830784812602 L 585.0184023098553 268.3538266407296 L 584.8368864365873 268.42375775919373 L 584.6538327037143 268.4928648435989 L 584.4692594164574 268.5611409832943 L 584.2831850319911 268.6285793507229 L 584.0956281575992 268.69517320210406 L 583.9066075488125 268.7609158781082 L 583.7161421075347 268.8258008045225 L 583.5242508801508 268.8898214929083 L 583.330953055624 268.9529715412503 L 583.1362679635755 269.0152446345961 L 582.9402150723523 269.07663454568836 L 582.7428139870801 269.13713513558713 L 582.5440844477031 269.1967403542838 L 582.3440463270093 269.2554442413062 L 582.1427196286444 269.3132409263145 L 581.9401244851103 269.3701246296884 L 581.7362811557525 269.42608966310496 L 581.5312100247343 269.4811304301075 L 581.3249315989975 269.53524142666515 L 581.1174665062132 269.5884172417234 L 580.9088354927175 269.640652557745 L 580.699059421438 269.6919421512419 L 580.488159269807 269.74228089329745 L 580.276156127664 269.79166375007946 L 580.0630711951463 269.84008578334334 L 579.84892578057 269.8875421509262 L 579.6337412982977 269.93402810723074 L 579.4175392665984 269.97953900370015 L 579.2003413054953 270.02407028928263 L 578.9821691346033 270.0676175108868 L 578.7630445709577 270.1101763138267 L 578.5429895268323 270.1517424422576 L 578.3220260075483 270.1923117396012 L 578.1001761092733 270.2318801489617 L 577.8774620168123 270.270443713531 L 577.6539060013888 270.3079985769849 L 577.4295304184184 270.3445409838682 L 577.2043577052721 270.38006727997083 L 576.9784103790337 270.41457391269273 L 576.7517110342475 270.4480574313993 L 576.524282340659 270.4805144877667 L 576.2961470409482 270.5119418361162 L 576.0673279484549 270.5423363337393 L 575.8378479448976 270.57169494121143 L 575.6077299780856 270.6000147226964 L 575.3769970596235 270.6272928462397 L 575.1456722626111 270.6535265840516 L 574.9137787193353 270.6787133127802 L 574.6813396189572 270.7028505137737 L 574.4483782051931 270.72593577333197 L 574.2149177739901 270.7479667829484 L 573.9809816711971 270.7689413395404 L 573.7465932902292 270.7888573456697 L 573.5117760697292 270.8077128097524 L 573.2765534912236 270.8255058462577 L 573.0409490767739 270.84223467589686 L 572.8049863866256 270.8578976258008 L 572.568689016851 270.8724931296876 L 572.33208059699 270.886019728019 L 572.0951847876873 270.8984760681465 L 571.8580252783269 270.9098609044464 L 571.6206257846617 270.92017309844465 L 571.3830100464432 270.9294116189304 L 571.1452018250476 270.9375755420592 L 570.9072249010985 270.9446640514457 L 570.6691030720901 270.9506764382448 L 570.430860150007 270.9556121012228 L 570.1925199589426 270.95947054681756 L 569.9541063327176 270.9622513891877 L 569.7156431124959 270.96395435025136 L 569.4771541444007 270.9645792597138 L 569.2386632771302 270.9641260550846 L 569.0001943595723 270.9625947816839 L 568.7617712384201 270.9599855926376 L 568.5234177557871 270.95629874886265 L 568.2851577468227 270.9515346190402 L 568.0470150373295 270.94569367957934 L 567.8090134413799 270.9387765145691 L 567.571176758935 270.9307838157203 L 567.3335287734651 270.92171638229604 L 567.0960932495706 270.9115751210322 L 566.8588939306059 270.90036104604644 L 566.6219545363055 270.88807527873684 L 566.3852987604112 270.87471904767 L 566.1489502683033 270.86029368845783 L 565.9129326946343 270.84480064362424 L 565.6772696409647 270.8282414624608 L 565.4419846734036 270.8106178008719 L 565.2071013202516 270.7919314212089 L 564.9726430696483 270.7721841920943 L 564.7386333672234 270.75137808823445 L 564.505095613752 270.72951519022246 L 564.2720531628152 270.7065976843299 L 564.0395293184635 270.68262786228826 L 563.8075473328876 270.6576081210598 L 563.576130404093 270.63154096259774 L 563.3453016735795 270.60442899359623 L 563.1150842240279 270.57627492522954 L 562.8855010769913 270.54708157288115 L 562.656575190593 270.51685185586183 L 562.428329457231 270.4855887971182 L 562.2007867012884 270.45329552293003 L 561.9739696768511 270.41997526259786 L 561.7479010654326 270.3856313481199 L 561.5226034737057 270.350267213859 L 561.2980994312416 270.31388639619917 L 561.0744113882577 270.2764925331918 L 560.8515617133718 270.23808936419204 L 560.6295726913656 270.1986807294848 L 560.4084665209566 270.1582705699007 L 560.1882653125772 270.116862926422 L 559.968991086165 270.07446193977864 L 559.7506657689598 270.0310718500338 L 559.5333111933114 269.98669699616045 L 559.3169490944964 269.9413418156069 L 559.1016011085441 269.8950108438534 L 558.8872887700738 269.8477087139586 L 558.6740335101407 269.79944015609595 L 558.4618566540933 269.75020999708113 L 558.2507794194399 269.700023159889 L 558.0408229137286 269.64888466316137 L 557.8320081324347 269.5967996207054 L 557.6243559568624 269.5437732409818 L 557.4178871520562 269.4898108265845 L 557.2126223647246 269.4349177737099 L 557.0085821211751 269.3790995716176 L 556.8057868252621 269.3223618020812 L 556.6042567563463 269.2647101388305 L 556.4040120672666 269.2061503469836 L 556.205072782325 269.146688282471 L 556.0074587952843 269.0863298914496 L 555.8111898673784 269.0250812097083 L 555.6162856253366 268.96294836206397 L 555.4227655594207 268.8999375617498 L 555.2306490214759 268.8360551097933 L 555.0399552229961 268.7713073943864 L 554.8507032332021 268.70570089024665 L 554.6629119771352 268.6392421579698 L 554.4766002337645 268.57193784337375 L 554.2917866341091 268.5037946768338 L 554.1084896593751 268.43481947260995 L 553.926727639107 268.365019128165 L 553.7465187493553 268.29440062347527 L 553.5678810108591 268.2229710203324 L 553.3908322872431 268.15073746163716 L 553.2153902832323 268.07770717068524 L 553.0415725428809 268.0038874504449 L 552.869396447818 267.92928568282656 L 552.6988792155096 267.8539093279449 L 552.530037897537 267.77776592337256 L 552.3628893778911 267.7008630833866 L 552.1974503712847 267.62320849820685 L 552.0337374214805 267.54480993322716 L 551.8717668996372 267.46567522823864 L 551.711555002672 267.38581229664595 L 551.5531177516408 267.30522912467563 L 551.396470990137 267.22393377057773 L 551.2416303827061 267.1419343638199 L 551.0886114132798 267.0592391042745 L 550.9374293836275 266.97585626139863 L 550.7880994118262 266.891794173407 L 550.6406364307487 266.80706124643837 L 550.4950551865702 266.7216659537148 L 550.3513702372937 266.63561683469453 L 550.2095959512945 266.54892249421766 L 550.0697465058831 266.46159160164603 L 549.9318358858874 266.37363288999603 L 549.7958778822543 266.28505515506566 L 549.6618860906713 266.19586725455446 L 549.5298739102055 266.1060781071783 L 549.3998545419652 266.015696691777 L 549.2718409877787 265.9247320464168 L 549.1458460488948 265.8331932674864 L 549.0218823247025 265.7410895087875 L 548.8999622114708 265.6484299806192 L 548.7800979011093 265.555223948857 L 548.6623013799494 265.4614807340265 L 548.546584427545 265.367209710371 L 548.4329586154947 265.2724203049144 L 548.3214353062854 265.17712199651817 L 548.2120256521547 265.08132431493374 L 548.104740593977 264.9850368398495 L 547.9995908601687 264.88826919993267 L 547.8965869656157 264.7910310718666 L 547.7957392106214 264.6933321793831 L 547.6970576798773 264.59518229228996 L 547.6005522414544 264.4965912254941 L 547.5062325458159 264.39756883802005 L 547.4141080248529 264.2981250320241 L 547.3241878909407 264.1982697518039 L 547.2364811360178 264.0980129828043 L 547.1509965306865 263.9973647506186 L 547.0677426233362 263.8963351199862 L 546.9867277392882 263.79493419378593 L 546.9079599799634 263.693172112026 L 546.8314472220721 263.5910590508297 L 546.7571971168263 263.488605221418 L 546.6852170891748 263.38582086908866 L 546.6155143370601 263.28271627219107 L 546.5480958306996 263.1793017410991 L 546.4829683118876 263.0755876171796 L 546.4201382933217 262.9715842717586 L 546.3596120579515 262.867302105084 L 546.30139565835 262.7627515452855 L 546.2454949161088 262.65794304733197 L 546.1919154212553 262.5528870919859 L 546.1406625316945 262.4475941847552 L 546.0917413726727 262.3420748548429 L 546.0451568362648 262.2363396540941 L 546.0009135808859 262.1303991559407 L 545.9590160308245 262.02426395434424 L 545.9194683758008 261.9179446627365 L 545.8822745705471 261.8114519129579 L 545.8474383344133 261.70479635419485 L 545.8149631509935 261.5979886519142 L 545.7848522677796 261.49103948679726 L 545.7571086958343 261.3839595536714 L 545.731735209492 261.27675956044067 L 545.70873434608 261.1694502270151 L 545.6881084056655 261.06204228423854 L 545.6698594508254 260.9545464728158 L 545.6539893064399 260.8469735422385 L 545.6404995595104 260.73933424971 L 545.6293915590002 260.6316393590699 L 545.6206664157002 260.5238996397174 L 545.6143250021172 260.41612586553475 L 545.6103679523876 260.30832881380957 L 545.6087956622129 260.2005192641571 L 545.6096082888208 260.0927079974426 L 545.6128057509494 259.9849057947028 L 545.618387728855 259.8771234360682 L 545.6263536643447 259.76937169968477 L 545.6367027608314 259.66166136063646 L 545.6494339834143 259.55400318986733 L 545.6645460589814 259.44640795310477 L 545.682037476338 259.3388864097828 L 545.7019064863568 259.2314493119661 L 545.7241511021534 259.12410740327505 L 545.7487690992849 259.01687141781093 L 545.7757580159719 258.909752079083 L 545.8051151533452 258.8027600989358 L 545.8368375757158 258.6959061764783 L 545.8709221108677 258.58920099701356 L 545.9073653503757 258.4826552309707 L 545.9461636499465 258.37627953283754 L 545.9873131297821 258.2700845400952 L 546.0308096749692 258.1640808721545 L 546.0766489358892 258.05827912929385 L 546.1248263286544 257.9526898915994 L 546.1753370355657 257.84732371790693 L 546.2281760055943 257.742191144746 L 546.2833379548874 257.63730268528633 L 546.340817367296 257.53266882828643 L 546.4006084949268 257.4283000370448 L 546.4627053587167 257.3242067483536 L 546.5271017490312 257.220399371455 L 546.593791226285 257.11688828700017 L 546.6627671215858 257.0136838460112 L 546.7340225374016 256.9107963688463 L 546.8075503482503 256.80823614416744 L 546.8833432014119 256.70601342791156 L 546.9613935176643 256.60413844226514 L 547.0416934920411 256.5026213746418 L 547.1242350946114 256.4014723766638 L 547.2090100712842 256.30070156314656 L 547.2960099446321 256.20031901108746 L 547.3852260147405 256.1003347586581 L 547.4766493600766 256.0007588042004 L 547.5702708383822 255.9016011052268 L 547.6660810875871 255.80287157742458 L 547.7640705267468 255.70458009366425 L 547.8642293569986 255.60673648301227 L 547.9665475625432 255.50935052974816 L 548.071014911645 255.4124319723861 L 548.1776209576565 255.31599050270106 L 548.2863550400617 255.22003576475964 L 548.397206285543 255.1245773539557 L 548.5101636090684 255.0296248160507 L 548.6252157149995 254.93518764621936 L 548.7423510982217 254.84127528809998 L 548.861558045294 254.74789713285006 L 548.9828246356215 254.65506251820736 L 549.106138742646 254.56278072755595 L 549.2314880350593 254.471060988998 L 549.358859978037 254.37991247443094 L 549.4882418344909 254.28934429863025 L 549.6196206663429 254.19936551833808 L 549.7529833358195 254.10998513135746 L 549.8883165067649 254.02121207565256 L 550.0256066459748 253.93305522845503 L 550.1648400245496 253.8455234053761 L 550.3060027192674 253.75862535952513 L 550.4490806139765 253.6723697806343 L 550.5940594010067 253.58676529418963 L 550.7409245826 253.5018204605684 L 550.8896614723607 253.41754377418323 L 551.0402551967236 253.33394366263246 L 551.192690696442 253.25102848585766 L 551.3469527280928 253.16880653530734 L 551.5030258656014 253.0872860331081 L 551.6608945017842 253.00647513124215 L 551.8205428499092 252.9263819107324 L 551.9819549452743 252.84701438083414 L 552.1451146468048 252.7683804782342 L 552.3100056386663 252.69048806625736 L 552.4766114318973 252.61334493407983 L 552.644915366057 252.53695879595062 L 552.8149006108923 252.46133729041983 L 552.9865501680206 252.38648797957504 L 553.159846872629 252.31241834828495 L 553.3347733951915 252.23913580345092 L 553.5113122432017 252.16664767326643 L 553.6894457629218 252.09496120648404 L 553.8691561411483 252.0240835716907 L 554.0504254069932 251.95402185659088 L 554.2332354336809 251.88478306729763 L 554.4175679403611 251.81637412763223 L 554.6034044939369 251.7488018784316 L 554.7907265109075 251.68207307686438 L 554.9795152592274 251.61619439575512 L 555.1697518601792 251.55117242291703 L 555.3614172902613 251.48701366049318 L 555.5544923830904 251.42372452430638 L 555.7489578313181 251.3613113432175 L 555.9447941885617 251.29978035849263 L 556.1419818713484 251.23913772317897 L 556.3405011610747 251.1793895014895 L 556.5403322059767 251.12054166819667 L 556.7414550231165 251.06260010803467 L 556.9438495003801 251.00557061511128 L 557.1474953984884 250.9494588923283 L 557.3523723530212 250.89427055081117 L 557.5584598764539 250.84001110934813 L 557.7657373602058 250.78668599383806 L 557.9741840767012 250.7343005367481 L 558.1837791814424 250.6828599765803 L 558.3945017150934 250.63236945734778 L 558.6063306055764 250.58283402806043 L 558.819244670179 250.5342586422199 L 559.0332226176722 250.48664815732425 L 559.2482430504394 250.44000733438233 L 559.4642844666166 250.39434083743754 L 559.6813252622421 250.34965323310155 L 559.8993437334175 250.30594899009753 L 560.118318078477 250.2632324788134 L 560.3382264001689 250.22150797086465 L 560.559046707844 250.1807796386673 L 560.7807569196557 250.14105155502068 L 561.0033348647676 250.1023276927 L 561.2267582855706 250.06461192405922 L 561.4510048399087 250.02790802064382 L 561.6760521033136 249.9922196528135 L 561.9018775712464 249.95755038937534 L 562.1284586613484 249.9239036972268 L 562.3557727156996 249.891282941009 L 562.5837970030836 249.85969138277045 L 562.8125087212621 249.8291321816406 L 563.0418849992537 249.79960839351412 L 563.2719028996219 249.77112297074518 L 563.502539420768 249.74367876185238 L 563.7337714992324 249.7172785112337 L 563.9655760119997 249.69192485889224 L 564.1979297788121 249.66762034017205 L 564.4308095644863 249.64436738550475 L 564.6641920812378 249.6221683201665 L 564.8980539910096 249.60102536404526 L 565.1323719078055 249.58094063141905 L 565.367122400029 249.56191613074444 L 565.6022819928265 249.54395376445555 L 565.8378271704349 249.5270553287741 L 566.0737343785325 249.5112225135296 L 566.3099800265953 249.4964569019903 L 566.5465404902551 249.48275997070516 L 566.7833921136629 249.47013308935578 L 567.0205112118535 249.45857752061985 L 567.257874073115 249.44809442004458 L 567.4954569613587 249.4386848359313 L 567.733236118494 249.4303497092306 L 567.9711877668034 249.42308987344816 L 568.2092881113201 249.41690605456154 L 568.4475133422083 249.41179887094745 L 568.6858396371433 249.40776883332003 L 568.9242431636943 249.4048163446797 L 569.1627000817072 249.40294170027278 L 569.401186545689 249.40214508756222 L 569.639678707192 249.4024265862086 L 569.8781527171989 249.4037861680623 L 570.1165847285073 249.4062236971663 L 570.3549508981148 249.40973892976965 L 570.593227389603 249.41433151435206 L 570.8313903755216 249.4200009916589 L 571.0694160397701 249.42674679474715 L 571.3072805799806 249.43456824904212 L 571.5449602098972 249.44346457240493 L 571.7824311617553 249.45343487521063 L 572.0196696886572 249.46447816043727 L 572.2566520669482 249.47659332376548 L 572.4933545985878 249.48977915368908 L 572.7297536135201 249.50403433163603 L 572.9658254720407 249.51935743210043 L 573.2015465671603 249.53574692278502 L 573.436893326966 249.55320116475434 L 573.6718422169779 249.57171841259878 L 573.9063697425026 249.591296814609 L 574.1404524509834 249.61193441296106 L 574.3740669343441 249.63362914391234 L 574.6071898313312 249.65637883800787 L 574.8397978298493 249.68018122029713 L 575.0718676692924 249.70503391056178 L 575.3033761428699 249.7309344235535 L 575.5343000999273 249.75788016924253 L 575.7646164482616 249.78586845307677 L 575.9943021564295 249.81489647625122 L 576.2233342560519 249.84496133598768 L 576.4516898441095 249.87606002582527 L 576.679346085234 249.9081894359209 L 576.9062802139907 249.94134635336033 L 577.1324695371561 249.97552746247948 L 577.3578914359864 250.0107293451959 L 577.5825233684793 250.04694848135065 L 577.806342871629 250.0841812490603 L 578.0293275636716 250.12242392507912 L 578.2514551463236 250.16167268517137 L 578.4727034070121 250.20192360449374 L 578.6930502210952 250.24317265798783 L 578.9124735540751 250.28541572078268 L 579.1309514638015 250.32864856860724 L 579.3484621026654 250.3728668782127 L 579.5649837197842 250.41806622780499 L 579.7804946631766 250.4642420974868 L 579.9949733819278 250.51138986970963 L 580.2083984283448 250.55950482973557 L 580.4207484601008 250.6085821661087 L 580.6320022423695 250.65861697113627 L 580.8421386499487 250.7096042413795 L 581.0511366693727 250.76153887815386 L 581.2589754010139 250.8144156880389 L 581.4656340611722 250.86822938339776 L 581.6710919841539 250.92297458290568 L 581.8753286243378 250.9786458120884 L 582.0783235582302 251.03523750386935 L 582.2800564865067 251.09274399912653 L 582.4805072360429 251.15115954725832 L 582.6796557619305 251.21047830675857 L 582.8774821494831 251.27069434580082 L 583.0739666162267 251.3318016428313 L 583.2690895138785 251.39379408717124 L 583.4628313303112 251.4566654796279 L 583.6551726915046 251.52040953311436 L 583.8460943634831 251.58501987327844 L 584.0355772542382 251.65049003913995 L 584.2236024156391 251.71681348373687 L 584.4101510453262 251.78398357478 L 584.5952044885919 251.8519935953162 L 584.7787442402462 251.92083674440013 L 584.9607519464669 251.99050613777422 L 585.141209406635 252.06099480855718 L 585.3200985751548 252.1322957079407 L 585.4974015632586 252.20440170589424 L 585.6731006407954 252.2773055918781 L 585.8471782380037 252.35100007556446 L 586.019616947269 252.4254777875663 L 586.190399524864 252.50073128017456 L 586.3595088926733 252.57675302810264 L 586.5269281399009 252.6535354292391 L 586.6926405247617 252.73107080540785 L 586.8566294761554 252.80935140313582 L 587.0188785953234 252.88836939442854 L 587.179371657489 252.9681168775527 L 587.3380926134798 253.0485858778264 L 587.4950255913324 253.12976834841675 L 587.6501548978797 253.21165617114428 L 587.8034650203206 253.294241157295 L 587.9549406277703 253.3775150484391 L 588.1045665727944 253.46146951725686 L 588.2523278929232 253.54609616837135 L 588.3982098121477 253.631386539188 L 588.5421977423975 253.71733210074075 L 588.6842772849998 253.80392425854512 L 588.8244342321185 253.8911543534575 L 588.9626545681757 253.97901366254106 L 589.0989244712531 254.06749339993812 L 589.2332303144739 254.15658471774864 L 589.3655586673657 254.24627870691512 L 589.4958962972033 254.3365663981134 L 589.6242301703327 254.42743876264956 L 589.7505474534734 254.5188867133629 L 589.874835515002 254.6109011055345 L 589.9970819262164 254.70347273780192 L 590.1172744625771 254.796592353079 L 590.2354011049308 254.89025063948182 L 590.3514500407115 254.98443823125982 L 590.4654096651224 255.0791457097323 L 590.577268582296 255.1743636042303 L 590.6870156064339 255.27008239304377 L 590.794639762925 255.36629250437358 L 590.9001302894435 255.46298431728874 L 591.0034766370245 255.56014816268856 L 591.1046684711195 255.65777432426947 L 591.2036956726294 255.75585303949666 L 591.3005483389163 255.85437450058035 L 591.3952167847947 255.95332885545653 L 591.4876915434986 256.0527062087722 L 591.5779633676294 256.15249662287476 L 591.6660232300798 256.252690118806 L 591.7518623249368 256.35327667729985 L 591.8354720683628 256.4542462397843 L 591.9168440994528 256.55558870938717 L 591.9959702810717 256.657293951946 L 592.0728427006671 256.7593517970213 L 592.1474536710613 256.86175203891355 L 592.2197957312194 256.96448443768395 L 592.2898616469955 257.06753872017816 L 592.3576444118565 257.17090458105395 L 592.4231372475825 257.27457168381125 L 592.4863336049443 257.3785296618262 L 592.5472271643591 257.48276811938763 L 592.6058118365215 257.58727663273663 L 592.6620817630131 257.692044751109 L 592.7160313168883 257.7970619977802 L 592.7676551032366 257.9023178711131 L 592.8169479597223 258.007801845608 L 592.8639049571009 258.1135033729554 L 592.9085213997117 258.2194118830907 L 592.9507928259478 258.325516785251 L 592.9907150087016 258.43180746903465 L 593.0282839557883 258.5382733054618 L 593.0634959103443 258.64490364803754 L 593.0963473512036 258.7516878338164 L 593.1268349932495 258.8586151844689 L 593.1549557877432 258.965675007349 L 593.1807069226286 259.0728565965636 L 593.2040858228138 259.1801492340432 L 593.2250901504281 259.2875421906134 L 593.2437178050563 259.39502472706806 L 593.2599669239486 259.5025860952431 L 593.2738358822065 259.61021553909126 L 593.2853232929458 259.71790229575794 L 593.2944280074349 259.8256355966572 L 593.3011491152101 259.93340466854875 L 593.3054859441661 260.0411987346151 L 593.3074380606237 260.14900701553955 M 593.3075590506796 294.4872754301 L 593.306366590776 294.5950859750166 L 593.3027893303099 294.7028857389686 L 593.2968276270046 294.81066394206937 L 593.2884820770253 294.9184098065884 L 593.27775351492 295.02611255802907 L 593.2646430135362 295.133761426206 L 593.249151883913 295.24134564632203 L 593.2312816751504 295.34885446004483 L 593.2110341742543 295.45627711658267 L 593.1884114059582 295.5636028737593 L 593.1634156325198 295.6708209990885 L 593.1360493534958 295.7779207708471 L 593.1063153054912 295.8848914791472 L 593.0742164618861 295.991722427007 L 593.039756032538 296.0984029314209 L 593.0029374634612 296.2049223244272 L 592.9637644364818 296.31126995417543 L 592.9222408688701 296.4174351859913 L 592.8783709129481 296.52340740343993 L 592.8321589556747 296.6291760093881 L 592.7836096182074 296.7347304270632 L 592.7327277554393 296.84006010111153 L 592.6795184555144 296.9451544986534 L 592.6239870393182 297.0500031103366 L 592.5661390599462 297.15459545138737 L 592.505980302148 297.2589210626588 L 592.4435167817494 297.3629695116767 L 592.3787547450502 297.4667303936828 L 592.3117006682002 297.5701933326754 L 592.2423612565512 297.67334798244684 L 592.1707434439866 297.7761840276181 L 592.0968543922279 297.8786911846704 L 592.0207014901189 297.98085920297336 L 591.942292352886 298.0826778658104 L 591.861634821378 298.18413699139995 L 591.7787369612805 298.28522643391415 L 591.6936070623107 298.38593608449287 L 591.6062536373872 298.4862558722551 L 591.51668542178 298.5861757653055 L 591.424911372236 298.6856857717381 L 591.3309406660835 298.78477594063526 L 591.234782700315 298.88343636306263 L 591.1364470906469 298.9816571730601 L 591.035943670558 299.0794285486286 L 590.933282490307 299.17674071271205 L 590.8284738159259 299.27358393417506 L 590.721528128195 299.36994852877626 L 590.612456121594 299.4658248601365 L 590.5012687032328 299.5612033407025 L 590.3879769917602 299.6560744327057 L 590.2725923162533 299.750428649116 L 590.1551262150832 299.84425655459023 L 590.0355904347623 299.9375487664162 L 589.913996928769 300.03029595545047 L 589.7903578563527 300.12248884705133 L 589.6646855813173 300.2141182220065 L 589.5369926707858 300.30517491745485 L 589.4072918939428 300.3956498278027 L 589.2755962207578 300.4855339056343 L 589.1419188206886 300.574818162617 L 589.0062730613637 300.66349367039936 L 588.8686725072458 300.7515515615045 L 588.7291309182759 300.83898303021675 L 588.5876622484966 300.925779333462 L 588.4442806446568 301.01193179168234 L 588.2990004447977 301.09743178970376 L 588.1518361768178 301.18227077759764 L 588.0028025570217 301.2664402715359 L 587.8519144886468 301.3499318546393 L 587.6991870603745 301.4327371778191 L 587.5446355448203 301.51484796061203 L 587.3882753970067 301.59625599200814 L 587.2301222528184 301.6769531312722 L 587.0701919274381 301.7569313087576 L 586.908500413765 301.8361825267131 L 586.7450638808157 301.91469886008304 L 586.5798986721071 301.99247245729947 L 586.4130213040228 302.06949554106745 L 586.2444484641603 302.14576040914284 L 586.0741970096632 302.2212594351024 L 585.902283965535 302.29598506910645 L 585.728726522937 302.3699298386538 L 585.5535420374687 302.4430863493291 L 585.3767480274327 302.5154472855424 L 585.1983621720826 302.58700541126024 L 585.0184023098553 302.65775357072965 L 584.8368864365873 302.7276846891938 L 584.6538327037143 302.79679177359895 L 584.4692594164574 302.8650679132944 L 584.2831850319911 302.9325062807229 L 584.0956281575992 302.9991001321041 L 583.9066075488125 303.06484280810827 L 583.7161421075347 303.12972773452253 L 583.5242508801508 303.19374842290836 L 583.330953055624 303.25689847125034 L 583.1362679635755 303.31917156459616 L 582.9402150723523 303.3805614756884 L 582.7428139870801 303.4410620655872 L 582.5440844477031 303.50066728428385 L 582.3440463270093 303.5593711713062 L 582.1427196286444 303.61716785631455 L 581.9401244851103 303.67405155968845 L 581.7362811557525 303.730016593105 L 581.5312100247343 303.78505736010754 L 581.3249315989975 303.8391683566652 L 581.1174665062132 303.89234417172344 L 580.9088354927175 303.94457948774505 L 580.699059421438 303.99586908124195 L 580.488159269807 304.0462078232975 L 580.276156127664 304.0955906800795 L 580.0630711951463 304.1440127133434 L 579.84892578057 304.19146908092625 L 579.6337412982977 304.2379550372308 L 579.4175392665984 304.2834659337002 L 579.2003413054953 304.3279972192827 L 578.9821691346033 304.37154444088685 L 578.7630445709577 304.41410324382673 L 578.5429895268323 304.45566937225766 L 578.3220260075483 304.49623866960127 L 578.1001761092733 304.53580707896174 L 577.8774620168123 304.57437064353104 L 577.6539060013888 304.61192550698496 L 577.4295304184184 304.6484679138683 L 577.2043577052721 304.68399420997093 L 576.9784103790337 304.7185008426928 L 576.7517110342475 304.75198436139937 L 576.524282340659 304.78444141776674 L 576.2961470409482 304.8158687661163 L 576.0673279484549 304.84626326373933 L 575.8378479448976 304.8756218712115 L 575.6077299780856 304.90394165269646 L 575.3769970596235 304.93121977623974 L 575.1456722626111 304.9574535140516 L 574.9137787193353 304.98264024278023 L 574.6813396189572 305.00677744377373 L 574.4483782051931 305.029862703332 L 574.2149177739901 305.05189371294847 L 573.9809816711971 305.07286826954044 L 573.7465932902292 305.09278427566977 L 573.5117760697292 305.11163973975243 L 573.2765534912236 305.1294327762578 L 573.0409490767739 305.1461616058969 L 572.8049863866256 305.1618245558008 L 572.568689016851 305.17642005968764 L 572.33208059699 305.18994665801904 L 572.0951847876873 305.20240299814657 L 571.8580252783269 305.21378783444646 L 571.6206257846617 305.2241000284447 L 571.3830100464432 305.2333385489304 L 571.1452018250476 305.24150247205927 L 570.9072249010985 305.2485909814458 L 570.6691030720901 305.25460336824483 L 570.430860150007 305.25953903122286 L 570.1925199589426 305.2633974768176 L 569.9541063327176 305.2661783191878 L 569.7156431124959 305.2678812802514 L 569.4771541444007 305.26850618971383 L 569.2386632771302 305.26805298508464 L 569.0001943595723 305.26652171168394 L 568.7617712384201 305.26391252263767 L 568.5234177557871 305.2602256788627 L 568.2851577468227 305.25546154904026 L 568.0470150373295 305.2496206095794 L 567.8090134413799 305.2427034445692 L 567.571176758935 305.23471074572035 L 567.3335287734651 305.2256433122961 L 567.0960932495706 305.2155020510322 L 566.8588939306059 305.20428797604643 L 566.6219545363055 305.1920022087369 L 566.3852987604112 305.17864597767004 L 566.1489502683033 305.1642206184579 L 565.9129326946343 305.1487275736243 L 565.6772696409647 305.13216839246087 L 565.4419846734036 305.11454473087196 L 565.2071013202516 305.09585835120896 L 564.9726430696483 305.07611112209435 L 564.7386333672234 305.0553050182345 L 564.505095613752 305.0334421202225 L 564.2720531628152 305.01052461432994 L 564.0395293184635 304.9865547922883 L 563.8075473328876 304.96153505105985 L 563.576130404093 304.9354678925978 L 563.3453016735795 304.9083559235963 L 563.1150842240279 304.8802018552296 L 562.8855010769913 304.8510085028812 L 562.656575190593 304.8207787858619 L 562.428329457231 304.78951572711827 L 562.2007867012884 304.7572224529301 L 561.9739696768511 304.7239021925979 L 561.7479010654326 304.68955827811993 L 561.5226034737057 304.65419414385906 L 561.2980994312416 304.6178133261992 L 561.0744113882577 304.58041946319184 L 560.8515617133718 304.5420162941921 L 560.6295726913656 304.50260765948485 L 560.4084665209566 304.46219749990075 L 560.1882653125772 304.42078985642206 L 559.968991086165 304.3783888697787 L 559.7506657689598 304.33499878003386 L 559.5333111933114 304.2906239261605 L 559.3169490944964 304.24526874560695 L 559.1016011085441 304.19893777385346 L 558.8872887700738 304.1516356439586 L 558.6740335101407 304.103367086096 L 558.4618566540933 304.0541369270812 L 558.2507794194399 304.00395008988903 L 558.0408229137286 303.9528115931614 L 557.8320081324347 303.90072655070543 L 557.6243559568624 303.84770017098185 L 557.4178871520562 303.79373775658456 L 557.2126223647246 303.73884470371 L 557.0085821211751 303.68302650161763 L 556.8057868252621 303.62628873208126 L 556.6042567563463 303.5686370688305 L 556.4040120672666 303.5100772769836 L 556.205072782325 303.45061521247106 L 556.0074587952843 303.39025682144967 L 555.8111898673784 303.3290081397083 L 555.6162856253366 303.266875292064 L 555.4227655594207 303.20386449174987 L 555.2306490214759 303.1399820397934 L 555.0399552229961 303.07523432438643 L 554.8507032332021 303.0096278202467 L 554.6629119771352 302.94316908796986 L 554.4766002337645 302.8758647733738 L 554.2917866341091 302.80772160683387 L 554.1084896593751 302.73874640261 L 553.926727639107 302.66894605816503 L 553.7465187493553 302.5983275534753 L 553.5678810108591 302.52689795033245 L 553.3908322872431 302.4546643916372 L 553.2153902832323 302.3816341006853 L 553.0415725428809 302.30781438044494 L 552.869396447818 302.2332126128266 L 552.6988792155096 302.15783625794495 L 552.530037897537 302.0816928533726 L 552.3628893778911 302.00479001338664 L 552.1974503712847 301.9271354282069 L 552.0337374214805 301.8487368632272 L 551.8717668996372 301.7696021582387 L 551.711555002672 301.689739226646 L 551.5531177516408 301.6091560546757 L 551.396470990137 301.5278607005778 L 551.2416303827061 301.44586129382 L 551.0886114132798 301.36316603427457 L 550.9374293836275 301.2797831913987 L 550.7880994118262 301.19572110340704 L 550.6406364307487 301.1109881764384 L 550.4950551865702 301.02559288371486 L 550.3513702372937 300.9395437646946 L 550.2095959512945 300.8528494242177 L 550.0697465058831 300.7655185316461 L 549.9318358858874 300.6775598199961 L 549.7958778822543 300.5889820850657 L 549.6618860906713 300.4997941845545 L 549.5298739102055 300.41000503717834 L 549.3998545419652 300.31962362177705 L 549.2718409877787 300.22865897641685 L 549.1458460488948 300.13712019748647 L 549.0218823247025 300.04501643878757 L 548.8999622114708 299.95235691061924 L 548.7800979011093 299.85915087885706 L 548.6623013799494 299.76540766402655 L 548.546584427545 299.67113664037106 L 548.4329586154947 299.57634723491446 L 548.3214353062854 299.4810489265182 L 548.2120256521547 299.3852512449338 L 548.104740593977 299.28896376984954 L 547.9995908601687 299.1921961299327 L 547.8965869656157 299.09495800186664 L 547.7957392106214 298.99725910938315 L 547.6970576798773 298.89910922229 L 547.6005522414544 298.80051815549416 L 547.5062325458159 298.7014957680201 L 547.4141080248529 298.6020519620241 L 547.3241878909407 298.5021966818039 L 547.2364811360178 298.4019399128043 L 547.1509965306865 298.30129168061865 L 547.0677426233362 298.20026204998624 L 546.9867277392882 298.098861123786 L 546.9079599799634 297.99709904202604 L 546.8314472220721 297.89498598082974 L 546.7571971168263 297.7925321514181 L 546.6852170891748 297.6897477990887 L 546.6155143370601 297.5866432021911 L 546.5480958306996 297.48322867109914 L 546.4829683118876 297.37951454717967 L 546.4201382933217 297.27551120175866 L 546.3596120579515 297.171229035084 L 546.30139565835 297.0666784752855 L 546.2454949161088 296.961869977332 L 546.1919154212553 296.85681402198594 L 546.1406625316945 296.75152111475523 L 546.0917413726727 296.64600178484295 L 546.0451568362648 296.5402665840941 L 546.0009135808859 296.43432608594077 L 545.9590160308245 296.3281908843443 L 545.9194683758008 296.22187159273653 L 545.8822745705471 296.11537884295797 L 545.8474383344133 296.0087232841949 L 545.8149631509935 295.90191558191424 L 545.7848522677796 295.7949664167973 L 545.7571086958343 295.68788648367143 L 545.731735209492 295.5806864904407 L 545.70873434608 295.47337715701514 L 545.6881084056655 295.3659692142386 L 545.6698594508254 295.25847340281587 L 545.6539893064399 295.15090047223856 L 545.6404995595104 295.04326117971004 L 545.6293915590002 294.9355662890699 L 545.6206664157002 294.82782656971744 L 545.6143250021172 294.7200527955348 L 545.6103679523876 294.6122557438096 L 545.6087956622129 294.50444619415714" stroke-miterlimit="10" stroke-width="2.7769845610000004" stroke-dasharray=""/></g><g><g/><text fill="black" stroke="none" font-family="monospace" font-size="11pt" font-style="normal" font-weight="normal" text-decoration="normal" x="537.2176226818984" y="242.91703861199997" text-anchor="start" dominant-baseline="alphabetic" xml:space="preserve">Database</text></g><g><path fill="white" stroke="lightblue" paint-order="fill stroke markers" d=" M 683.0222234716562 271.79767804639994 A 24.2577769005 24.2577769005 0 1 1 683.0222113427687 271.7734202735424 M 631.7296851096563 300.49863024449996 L 685.7992080326561 300.49863024449996" stroke-miterlimit="10" stroke-width="5.553969122000001" stroke-dasharray=""/></g><g><g/><text fill="black" stroke="none" font-family="monospace" font-size="11pt" font-style="normal" font-weight="normal" text-decoration="normal" x="618.4637721326797" y="242.91703861199997" text-anchor="start" dominant-baseline="alphabetic" xml:space="preserve">ML Service</text></g><g><path fill="white" stroke="gray" paint-order="fill stroke markers" d=" M 779.9587756486093 274.0192656952 A 24.2577769005 24.2577769005 0 1 1 779.9587635197219 273.99500792234244 M 730.0547295671093 300.49863024449996 L 781.3472679291093 300.49863024449996" stroke-miterlimit="10" stroke-width="2.7769845610000004" stroke-dasharray=""/></g><g><g/><text fill="black" stroke="none" font-family="monospace" font-size="11pt" font-style="normal" font-weight="normal" text-decoration="normal" x="715.4003243096328" y="242.91703861199997" text-anchor="start" dominant-baseline="alphabetic" xml:space="preserve">TwitterAPI</text></g></g><g><path fill="white" stroke="black" paint-order="fill stroke markers" d=" M 179.35626038362503 170.665177862 L 195.69146368362502 170.665177862 L 195.69146368362502 211.503186112 L 179.35626038362503 211.503186112 L 179.35626038362503 170.665177862" stroke-miterlimit="10" stroke-width="1.3612669416666667" stroke-dasharray=""/><path fill="white" stroke="black" paint-order="fill stroke markers" d=" M 561.2905605826796 170.665177862 L 577.6257638826797 170.665177862 L 577.6257638826797 211.503186112 L 561.2905605826796 211.503186112 L 561.2905605826796 170.665177862" stroke-miterlimit="10" stroke-width="1.3612669416666667" stroke-dasharray=""/><path fill="white" stroke="black" paint-order="fill stroke markers" d=" M 286.0638400156875 170.665177862 L 302.3990433156875 170.665177862 L 302.3990433156875 211.503186112 L 286.0638400156875 211.503186112 L 286.0638400156875 170.665177862" stroke-miterlimit="10" stroke-width="1.3612669416666667" stroke-dasharray=""/><path fill="white" stroke="black" paint-order="fill stroke markers" d=" M 383.0003921926406 170.665177862 L 399.3355954926406 170.665177862 L 399.3355954926406 211.503186112 L 383.0003921926406 211.503186112 L 383.0003921926406 170.665177862" stroke-miterlimit="10" stroke-width="1.3612669416666667" stroke-dasharray=""/><path fill="white" stroke="black" paint-order="fill stroke markers" d=" M 475.9068769257461 170.665177862 L 492.24208022574607 170.665177862 L 492.24208022574607 211.503186112 L 475.9068769257461 211.503186112 L 475.9068769257461 170.665177862" stroke-miterlimit="10" stroke-width="1.3612669416666667" stroke-dasharray=""/><path fill="white" stroke="black" paint-order="fill stroke markers" d=" M 650.5968449211562 170.665177862 L 666.9320482211563 170.665177862 L 666.9320482211563 211.503186112 L 650.5968449211562 211.503186112 L 650.5968449211562 170.665177862" stroke-miterlimit="10" stroke-width="1.3612669416666667" stroke-dasharray=""/><path fill="white" stroke="black" paint-order="fill stroke markers" d=" M 747.5333970981093 170.665177862 L 763.8686003981094 170.665177862 L 763.8686003981094 211.503186112 L 747.5333970981093 211.503186112 L 747.5333970981093 170.665177862" stroke-miterlimit="10" stroke-width="1.3612669416666667" stroke-dasharray=""/></g><g/><g/><g/><g/><g/><g/><g/><g/><g/></g></svg>