<svg version="1.1" xmlns="http://www.w3.org/2000/svg" xmlns:xlink="http://www.w3.org/1999/xlink" width="952" height="768"><desc>%23%20-----%20font%20-----%0Afontfamily%20monospace%0A%0A%23%20-----%20setup%20components%20-----%0Atitle%20User%20get%20Twitter%20account%20details%20and%20tweets%0Aactor%20%23blue%3A0.5%20User%0A%0Aparticipant%20%23orange%20Frontend%0Aparticipantgroup%20%23e4fcd9%20Backend%20API%0Aboundary%20%23green%3A0.7%20Endpoint%0Acontrol%20%23red%3A0.7%20Scraper%0Aend%0A%0Adatabase%20Database%20%23pink%0Aentity%20%23gray%20TwitterAPI%0A%0A%23%20-----%20to%20show%20bottom%20icons%20-----%0Abottomparticipants%0A%0A%23%20-----%20START%20OF%20SEQUENCE%20-----%0AUser-%3EFrontend%3A%20Input%20Twitter%5Cnaccount%20URL%0Aactivate%20Frontend%0AFrontend-%3EEndpoint%3A%20Request%20check%20result%0Aactivate%20Endpoint%0AEndpoint-%3EDatabase%3A%20Get%20check%20result%0Aactivate%20Database%0AEndpoint%3C--Database%3A%20Check%20result%0Adeactivate%20Database%0AEndpoint-%3EScraper%3A%20Get%20recent%20tweets%0Aactivate%20Scraper%0AScraper-%3ETwitterAPI%3A%20getUsersTweets%5Cn(userId%2Climit)%0AEndpoint%3C--Scraper%3A%20Recent%20tweets%0Adeactivate%20Scraper%0AEndpoint--%3EFrontend%3A%20Profile%20detail%5Cnand%20result%0Adeactivate%20Endpoint%0AFrontend--%3EUser%3A%20Show%20result%0Adeactivate%20Frontend%0A%23%20-----%20END%20OF%20SEQUENCE%20-----%0A</desc><defs/><g><g/><g/><g/><g/><g/><g/><g/><g/><g/><g/><g/><g/><g/><g><rect fill="white" stroke="none" x="0" y="0" width="952" height="768"/></g><g><text fill="black" stroke="none" font-family="monospace" font-size="16.5pt" font-style="normal" font-weight="normal" text-decoration="normal" x="192.56322048045587" y="22.617973800000005" text-anchor="start" dominant-baseline="alphabetic" xml:space="preserve">User get Twitter account details and tweets</text></g><g><g><path fill="#e4fcd9" stroke="black" paint-order="fill stroke markers" d=" M 421.0123834045152 48.50927103050001 L 712.8433382413642 48.50927103050001 L 712.8433382413642 760.2403615820001 L 421.0123834045152 760.2403615820001 L 421.0123834045152 48.50927103050001" stroke-miterlimit="10" stroke-width="1.3612669416666667" stroke-dasharray=""/></g><g><text fill="black" stroke="none" font-family="monospace" font-size="11pt" font-style="normal" font-weight="normal" text-decoration="normal" x="518.5278592970608" y="70.24765696050001" text-anchor="start" dominant-baseline="alphabetic" xml:space="preserve">Backend API</text></g></g><g><path fill="none" stroke="black" paint-order="fill stroke markers" d=" M 25.76760203146973 162.497576212 L 25.76760203146973 670.0197772020001" stroke-miterlimit="10" stroke-width="1.3612669416666667" stroke-dasharray="12.565541,5.445067766666667"/><path fill="none" stroke="black" paint-order="fill stroke markers" d=" M 191.89574734068194 162.497576212 L 191.89574734068194 670.0197772020001" stroke-miterlimit="10" stroke-width="1.3612669416666667" stroke-dasharray="12.565541,5.445067766666667"/><path fill="none" stroke="black" paint-order="fill stroke markers" d=" M 464.37998581745467 162.497576212 L 464.37998581745467 670.0197772020001" stroke-miterlimit="10" stroke-width="1.3612669416666667" stroke-dasharray="12.565541,5.445067766666667"/><path fill="none" stroke="black" paint-order="fill stroke markers" d=" M 673.8757373543036 162.497576212 L 673.8757373543036 670.0197772020001" stroke-miterlimit="10" stroke-width="1.3612669416666667" stroke-dasharray="12.565541,5.445067766666667"/><path fill="none" stroke="black" paint-order="fill stroke markers" d=" M 805.0236108339097 162.497576212 L 805.0236108339097 670.0197772020001" stroke-miterlimit="10" stroke-width="1.3612669416666667" stroke-dasharray="12.565541,5.445067766666667"/><path fill="none" stroke="black" paint-order="fill stroke markers" d=" M 900.5588148968492 162.497576212 L 900.5588148968492 670.0197772020001" stroke-miterlimit="10" stroke-width="1.3612669416666667" stroke-dasharray="12.565541,5.445067766666667"/></g><g><g><path fill="white" stroke="blue" paint-order="fill stroke markers" d=" M 35.078667912469726 94.65622035300002 A 9.311065881 9.311065881 0 1 1 35.078663256937176 94.64690928867086 M 25.76760203146973 103.96728623400001 L 25.76760203146973 123.89623426000001 M 14.00625565546973 111.15477568600002 L 37.52894840746973 111.15477568600002 M 25.76760203146973 123.89623426000001 L 14.00625565546973 142.518366022 M 25.76760203146973 123.89623426000001 L 37.52894840746973 142.518366022" stroke-miterlimit="10" stroke-width="1.3884922805000002" stroke-dasharray=""/></g><g><g/><text fill="black" stroke="none" font-family="monospace" font-size="11pt" font-style="normal" font-weight="normal" text-decoration="normal" x="8.167601650000002" y="157.597015222" text-anchor="start" dominant-baseline="alphabetic" xml:space="preserve">User</text></g><path fill="none" stroke="none"/><g><path fill="white" stroke="orange" paint-order="fill stroke markers" d=" M 138.9720509972425 119.64908140200002 L 244.8194436841214 119.64908140200002 L 244.8194436841214 162.497576212 L 138.9720509972425 162.497576212 L 138.9720509972425 119.64908140200002 Z" stroke-miterlimit="10" stroke-width="2.613632528" stroke-dasharray=""/></g><g><g/><text fill="black" stroke="none" font-family="monospace" font-size="11pt" font-style="normal" font-weight="normal" text-decoration="normal" x="156.69574657774248" y="146.16237291200002" text-anchor="start" dominant-baseline="alphabetic" xml:space="preserve">Frontend</text></g><g><path fill="white" stroke="green" paint-order="fill stroke markers" d=" M 496.80536436795467 116.872096841 A 24.2577769005 24.2577769005 0 1 1 496.80535223906725 116.84783906814245 M 432.92655186330467 91.64237534415 L 432.92655186330467 142.10181833785 M 431.95460726695467 116.872096841 L 448.28981056695466 116.872096841" stroke-miterlimit="10" stroke-width="1.9438891927000002" stroke-dasharray=""/></g><g><g/><text fill="black" stroke="none" font-family="monospace" font-size="11pt" font-style="normal" font-weight="normal" text-decoration="normal" x="429.1799850545152" y="157.597015222" text-anchor="start" dominant-baseline="alphabetic" xml:space="preserve">Endpoint</text></g><g><path fill="white" stroke="red" paint-order="fill stroke markers" d=" M 698.1335142548036 116.872096841 A 24.2577769005 24.2577769005 0 1 1 698.1335021259162 116.84783906814245 M 670.6086966943036 92.6143199405 L 680.4098186743036 84.4467182905 M 670.6086966943036 92.6143199405 L 680.4098186743036 100.78192159049999" stroke-miterlimit="10" stroke-width="1.9438891927000002" stroke-dasharray=""/></g><g><g/><text fill="black" stroke="none" font-family="monospace" font-size="11pt" font-style="normal" font-weight="normal" text-decoration="normal" x="643.0757381172431" y="157.597015222" text-anchor="start" dominant-baseline="alphabetic" xml:space="preserve">Scraper</text></g><g><path fill="pink" stroke="black" paint-order="fill stroke markers" d=" M 781.1742140159098 131.737131844 L 781.1742140159098 97.43320491400002 L 828.8730076519097 97.43320491400002 L 828.8730076519097 131.737131844" stroke-miterlimit="10" stroke-width="2.7769845610000004" stroke-dasharray=""/><path fill="pink" stroke="black" paint-order="fill stroke markers" d=" M 828.8730076519097 96.24073507310001 L 828.871815192006 96.34854561801663 L 828.86823793154 96.4563453819686 L 828.8622762282347 96.56412358506937 L 828.8539306782553 96.67186944958841 L 828.8432021161501 96.7795722010291 L 828.8300916147663 96.88722106920602 L 828.814600485143 96.99480528932206 L 828.7967302763805 97.10231410304486 L 828.7764827754844 97.20973675958267 L 828.7538600071882 97.31706251675931 L 828.7288642337498 97.42428064208853 L 828.7014979547258 97.53138041384713 L 828.6717639067213 97.6383511221472 L 828.6396650631161 97.74518207000703 L 828.605204633768 97.85186257442088 L 828.5683860646913 97.95838196742719 L 828.5292130377119 98.06472959717544 L 828.4876894701001 98.17089482899127 L 828.4438195141781 98.27686704643997 L 828.3976075569047 98.38263565238812 L 828.3490582194374 98.48819007006324 L 828.2981763566694 98.59351974411153 L 828.2449670567445 98.69861414165338 L 828.1894356405483 98.8034627533366 L 828.1315876611762 98.9080550943874 L 828.0714289033781 99.01238070565881 L 828.0089653829795 99.11642915467668 L 827.9442033462802 99.2201900366828 L 827.8771492694302 99.32365297567542 L 827.8078098577813 99.42680762544687 L 827.7361920452166 99.52964367061814 L 827.662302993458 99.63215082767042 L 827.5861500913489 99.73431884597339 L 827.5077409541161 99.8361375088104 L 827.427083422608 99.9375966344 L 827.3441855625106 100.03868607691416 L 827.2590556635407 100.1393957274929 L 827.1717022386173 100.23971551525507 L 827.0821340230101 100.3396354083055 L 826.9903599734661 100.43914541473814 L 826.8963892673137 100.53823558363528 L 826.8002313015451 100.63689600606261 L 826.701895691877 100.73511681606011 L 826.6013922717882 100.83288819162861 L 826.498731091537 100.93020035571203 L 826.393922417156 101.02704357717508 L 826.2869767294251 101.12340817177629 L 826.1779047228241 101.2192845031365 L 826.0667173044628 101.3146629837025 L 825.9534255929902 101.40953407570571 L 825.8380409174833 101.50388829211596 L 825.7205748163133 101.59771619759026 L 825.6010390359924 101.69100840941624 L 825.4794455299991 101.78375559845048 L 825.3558064575827 101.87594849005134 L 825.2301341825473 101.96757786500652 L 825.1024412720159 102.05863456045485 L 824.9727404951728 102.14910947080267 L 824.8410448219879 102.23899354863435 L 824.7073674219187 102.32827780561702 L 824.5717216625937 102.41695331339938 L 824.4341211084759 102.50501120450453 L 824.294579519506 102.59244267321675 L 824.1531108497267 102.67923897646203 L 824.0097292458869 102.76539143468239 L 823.8644490460277 102.85089143270376 L 823.7172847780479 102.93573042059764 L 823.5682511582518 103.0198999145359 L 823.4173630898769 103.10339149763931 L 823.2646356616045 103.18619682081912 L 823.1100841460502 103.26830760361203 L 822.9537239982368 103.34971563500818 L 822.7955708540485 103.43041277427227 L 822.6356405286682 103.51039095175761 L 822.473949014995 103.58964216971313 L 822.3105124820457 103.66815850308305 L 822.1453472733372 103.74593210029946 L 821.9784699052528 103.82295518406747 L 821.8098970653904 103.89922005214288 L 821.6396456108932 103.97471907810242 L 821.4677325667651 104.04944471210644 L 821.294175124167 104.12338948165379 L 821.1189906386987 104.19654599232915 L 820.9421966286627 104.26890692854239 L 820.7638107733127 104.34046505426022 L 820.5838509110854 104.4112132137297 L 820.4023350378174 104.4811443321938 L 820.2192813049444 104.55025141659898 L 820.0347080176874 104.6185275562944 L 819.8486336332212 104.68596592372296 L 819.6610767588293 104.75255977510412 L 819.4720561500426 104.81830245110825 L 819.2815907087647 104.88318737752253 L 819.0896994813809 104.94720806590838 L 818.8964016568541 105.01035811425034 L 818.7017165648056 105.07263120759616 L 818.5056636735824 105.13402111868842 L 818.3082625883102 105.19452170858717 L 818.1095330489331 105.25412692728385 L 817.9094949282394 105.31283081430622 L 817.7081682298744 105.37062749931455 L 817.5055730863404 105.42751120268846 L 817.3017297569826 105.48347623610503 L 817.0966586259643 105.53851700310757 L 816.8903802002276 105.59262799966524 L 816.6829151074433 105.64580381472345 L 816.4742840939475 105.69803913074504 L 816.2645080226681 105.74932872424193 L 816.0536078710371 105.7996674662975 L 815.841604728894 105.84905032307951 L 815.6285197963764 105.89747235634343 L 815.4143743818 105.94492872392627 L 815.1991898995277 105.99141468023082 L 814.9829878678285 106.03692557670021 L 814.7657899067253 106.08145686228269 L 814.5476177358333 106.12500408388684 L 814.3284931721878 106.16756288682677 L 814.1084381280624 106.20912901525766 L 813.8874746087783 106.2496983126013 L 813.6656247105034 106.28926672196175 L 813.4429106180423 106.32783028653108 L 813.2193546026189 106.36538514998495 L 812.9949790196484 106.4019275568683 L 812.7698063065021 106.43745385297092 L 812.5438589802637 106.47196048569278 L 812.3171596354775 106.50544400439938 L 812.0897309418891 106.53790106076674 L 811.8615956421783 106.56932840911628 L 811.632776549685 106.59972290673934 L 811.4032965461276 106.62908151421152 L 811.1731785793156 106.6574012956965 L 810.9424456608535 106.68467941923974 L 810.7111208638412 106.71091315705164 L 810.4792273205653 106.73609988578026 L 810.2467882201872 106.76023708677371 L 810.0138268064231 106.78332234633203 L 809.7803663752202 106.80535335594848 L 809.5464302724272 106.82632791254046 L 809.3120418914592 106.8462439186698 L 809.0772246709593 106.86509938275248 L 808.8420020924536 106.88289241925779 L 808.606397678004 106.89962124889692 L 808.3704349878557 106.91528419880086 L 808.134137618081 106.92987970268764 L 807.89752919822 106.94340630101907 L 807.6606333889174 106.95586264114657 L 807.4234738795569 106.96724747744649 L 807.1860743858917 106.97755967144472 L 806.9484586476733 106.98679819193043 L 806.7106504262777 106.9949621150593 L 806.4726735023286 107.00205062444579 L 806.2345516733202 107.00806301124487 L 805.996308751237 107.01299867422289 L 805.7579685601727 107.01685711981764 L 805.5195549339477 107.0196379621878 L 805.2810917137259 107.02134092325144 L 805.0426027456308 107.02196583271387 L 804.8041118783602 107.02151262808466 L 804.5656429608024 107.01998135468392 L 804.3272198396502 107.0173721656377 L 804.0888663570172 107.01368532186271 L 803.8506063480528 107.00892119204028 L 803.6124636385596 107.00308025257941 L 803.3744620426099 106.99616308756919 L 803.1366253601651 106.98817038872035 L 802.8989773746952 106.9791029552961 L 802.6615418508006 106.96896169403226 L 802.4243425318359 106.95774761904647 L 802.1874031375355 106.94546185173691 L 801.9507473616412 106.93210562067006 L 801.7143988695334 106.91768026145789 L 801.4783812958643 106.90218721662433 L 801.2427182421948 106.88562803546091 L 801.0074332746336 106.86800437387197 L 800.7725499214816 106.84931799420899 L 800.5380916708783 106.82957076509436 L 800.3040819684535 106.80876466123452 L 800.0705442149821 106.78690176322253 L 799.8375017640452 106.76398425732997 L 799.6049779196935 106.74001443528833 L 799.3729959341176 106.71499469405985 L 799.141579005323 106.6889275355978 L 798.9107502748095 106.66181556659627 L 798.680532825258 106.63366149822963 L 798.4509496782214 106.6044681458812 L 798.2220237918231 106.57423842886192 L 797.9937780584611 106.54297537011827 L 797.7662353025185 106.5106820959301 L 797.5394182780811 106.4773618355979 L 797.3133496666627 106.44301792111996 L 797.0880520749357 106.40765378685909 L 796.8635480324716 106.37127296919923 L 796.6398599894877 106.33387910619186 L 796.4170103146018 106.29547593719211 L 796.1950212925957 106.25606730248487 L 795.9739151221867 106.21565714290077 L 795.7537139138072 106.17424949942209 L 795.5344396873951 106.13184851277869 L 795.3161143701899 106.08845842303388 L 795.0987597945415 106.0440835691605 L 794.8823976957265 105.99872838860693 L 794.6670497097741 105.95239741685346 L 794.4527373713039 105.90509528695863 L 794.2394821113708 105.85682672909601 L 794.0273052553233 105.80759657008119 L 793.81622802067 105.75740973288903 L 793.6062715149586 105.70627123616141 L 793.3974567336647 105.65418619370543 L 793.1898045580924 105.6011598139819 L 792.9833357532863 105.54719739958459 L 792.7780709659546 105.49230434671 L 792.5740307224052 105.43648614461767 L 792.3712354264921 105.37974837508128 L 792.1697053575764 105.32209671183051 L 791.9694606684967 105.26353691998366 L 791.7705213835551 105.20407485547109 L 791.5729073965143 105.14371646444971 L 791.3766384686085 105.0824677827083 L 791.1817342265666 105.02033493506404 L 790.9882141606507 104.95732413474988 L 790.7960976227059 104.89344168279337 L 790.6054038242262 104.82869396738644 L 790.4161518344322 104.76308746324669 L 790.2283605783653 104.69662873096988 L 790.0420488349946 104.62932441637382 L 789.8572352353392 104.56118124983391 L 789.6739382606052 104.49220604561 L 789.4921762403369 104.42240570116505 L 789.3119673505854 104.35178719647531 L 789.1333296120891 104.28035759333244 L 788.9562808884732 104.20812403463721 L 788.7808388844624 104.13509374368529 L 788.607021144111 104.06127402344492 L 788.434845049048 103.98667225582662 L 788.2643278167396 103.91129590094496 L 788.0954864987671 103.83515249637263 L 787.9283379791211 103.75824965638664 L 787.7628989725148 103.6805950712069 L 787.5991860227106 103.6021965062272 L 787.4372155008673 103.52306180123873 L 787.277003603902 103.44319886964601 L 787.1185663528709 103.3626156976757 L 786.9619195913671 103.28132034357779 L 786.8070789839362 103.19932093681997 L 786.6540600145099 103.11662567727458 L 786.5028779848576 103.03324283439866 L 786.3535480130563 102.94918074640702 L 786.2060850319788 102.86444781943841 L 786.0605037878003 102.7790525267149 L 785.9168188385238 102.6930034076946 L 785.7750445525246 102.60630906721774 L 785.6351951071132 102.51897817464607 L 785.4972844871174 102.4310194629961 L 785.3613264834844 102.34244172806571 L 785.2273346919013 102.25325382755454 L 785.0953225114356 102.16346468017835 L 784.9653031431952 102.07308326477704 L 784.8372895890087 101.98211861941685 L 784.7112946501248 101.89057984048648 L 784.5873309259325 101.79847608178757 L 784.4654108127008 101.70581655361923 L 784.3455465023394 101.61261052185705 L 784.2277499811795 101.51886730702655 L 784.112033028775 101.42459628337107 L 783.9984072167248 101.32980687791445 L 783.8868839075154 101.23450856951823 L 783.7774742533848 101.13871088793383 L 783.6701891952071 101.04242341284956 L 783.5650394613988 100.94565577293272 L 783.4620355668458 100.84841764486666 L 783.3611878118514 100.75071875238314 L 783.2625062811073 100.65256886529 L 783.1660008426844 100.55397779849415 L 783.071681147046 100.45495541102012 L 782.979556626083 100.35551160502415 L 782.8896364921708 100.25565632480394 L 782.8019297372479 100.15539955580432 L 782.7164451319165 100.05475132361865 L 782.6331912245663 99.95372169298625 L 782.5521763405183 99.85232076678601 L 782.4734085811934 99.75055868502605 L 782.3968958233022 99.64844562382973 L 782.3226457180564 99.5459917944181 L 782.2506656904048 99.4432074420887 L 782.1809629382901 99.34010284519113 L 782.1135444319297 99.23668831409914 L 782.0484169131176 99.13297419017968 L 781.9855868945517 99.02897084475869 L 781.9250606591816 98.92468867808407 L 781.86684425958 98.82013811828556 L 781.8109435173388 98.71532962033203 L 781.7573640224854 98.61027366498594 L 781.7061111329245 98.50498075775526 L 781.6571899739027 98.39946142784298 L 781.6106054374949 98.29372622709415 L 781.566362182116 98.18778572894077 L 781.5244646320546 98.08165052734432 L 781.4849169770308 97.97533123573653 L 781.4477231717772 97.868838485958 L 781.4128869356433 97.7621829271949 L 781.3804117522236 97.65537522491428 L 781.3503008690096 97.54842605979732 L 781.3225572970643 97.44134612667145 L 781.297183810722 97.33414613344073 L 781.27418294731 97.22683680001514 L 781.2535570068956 97.1194288572386 L 781.2353080520554 97.0119330458159 L 781.21943790767 96.90436011523857 L 781.2059481607405 96.79672082271007 L 781.1948401602302 96.68902593206992 L 781.1861150169302 96.58128621271746 L 781.1797736033473 96.47351243853481 L 781.1758165536177 96.36571538680961 L 781.1742442634429 96.25790583715718 L 781.1750568900509 96.15009457044266 L 781.1782543521795 96.04229236770287 L 781.1838363300851 95.93451000906825 L 781.1918022655748 95.82675827268484 L 781.2021513620615 95.7190479336365 L 781.2148825846443 95.61138976286738 L 781.2299946602114 95.50379452610481 L 781.247486077568 95.39627298278283 L 781.2673550875868 95.28883588496618 L 781.2895997033835 95.18149397627508 L 781.314217700515 95.07425799081098 L 781.3412066172019 94.96713865208302 L 781.3705637545753 94.86014667193587 L 781.4022861769458 94.75329274947832 L 781.4363707120978 94.64658757001362 L 781.4728139516058 94.54004180397077 L 781.5116122511765 94.43366610583759 L 781.5527617310122 94.32747111309526 L 781.5962582761993 94.22146744515454 L 781.6420975371193 94.1156657022939 L 781.6902749298845 94.01007646459945 L 781.7407856367957 93.90471029090699 L 781.7936246068243 93.79957771774606 L 781.8487865561175 93.69468925828637 L 781.9062659685261 93.59005540128646 L 781.9660570961569 93.48568661004485 L 782.0281539599467 93.38159332135368 L 782.0925503502613 93.27778594445506 L 782.1592398275151 93.1742748600002 L 782.2282157228159 93.07107041901128 L 782.2994711386317 92.96818294184638 L 782.3729989494803 92.86562271716748 L 782.448791802642 92.7634000009116 L 782.5268421188944 92.66152501526518 L 782.6071420932711 92.56000794764186 L 782.6896836958415 92.45885894966383 L 782.7744586725142 92.35808813614659 L 782.8614585458622 92.25770558408753 L 782.9506746159706 92.15772133165818 L 783.0420979613067 92.05814537720047 L 783.1357194396122 91.95898767822688 L 783.2315296888172 91.86025815042466 L 783.3295191279768 91.76196666666432 L 783.4296779582287 91.66412305601233 L 783.5319961637732 91.56673710274822 L 783.636463512875 91.46981854538616 L 783.7430695588865 91.37337707570111 L 783.8518036412918 91.2774223377597 L 783.9626548867731 91.18196392695573 L 784.0756122102985 91.08701138905076 L 784.1906643162296 90.99257421921942 L 784.3077996994517 90.89866186110004 L 784.4270066465241 90.80528370585013 L 784.5482732368515 90.71244909120742 L 784.6715873438759 90.620167300556 L 784.7969366362894 90.52844756199806 L 784.9243085792671 90.437299047431 L 785.0536904357209 90.34673087163033 L 785.185069267573 90.25675209133814 L 785.3184319370496 90.1673717043575 L 785.453765107995 90.07859864865262 L 785.5910552472048 89.99044180145509 L 785.7302886257796 89.90290997837616 L 785.8714513204975 89.81601193252519 L 786.0145292152066 89.72975635363437 L 786.1595080022367 89.64415186718969 L 786.30637318383 89.55920703356847 L 786.4551100735907 89.47493034718329 L 786.6057037979537 89.39133023563254 L 786.7581392976721 89.30841505885772 L 786.9124013293228 89.22619310830741 L 787.0684744668315 89.14467260610814 L 787.2263431030143 89.06386170424221 L 787.3859914511393 88.98376848373246 L 787.5474035465044 88.9044009538342 L 787.7105632480349 88.82576705123427 L 787.8754542398964 88.7478746392574 L 788.0420600331273 88.67073150707989 L 788.2103639672871 88.59434536895068 L 788.3803492121224 88.5187238634199 L 788.5519987692506 88.4438745525751 L 788.7252954738591 88.369804921285 L 788.9002219964216 88.29652237645098 L 789.0767608444318 88.22403424626648 L 789.2548943641518 88.1523477794841 L 789.4346047423784 88.08147014469078 L 789.6158740082233 88.01140842959094 L 789.7986840349109 87.94216964029769 L 789.9830165415912 87.87376070063229 L 790.1688530951669 87.80618845143167 L 790.3561751121375 87.73945964986444 L 790.5449638604574 87.67358096875519 L 790.7352004614092 87.60855899591708 L 790.9268658914914 87.54440023349323 L 791.1199409843205 87.48111109730644 L 791.3144064325481 87.41869791621755 L 791.5102427897917 87.35716693149269 L 791.7074304725785 87.29652429617903 L 791.9059497623048 87.23677607448957 L 792.1057808072068 87.17792824119671 L 792.3069036243465 87.11998668103473 L 792.5092981016102 87.06295718811135 L 792.7129439997185 87.00684546532835 L 792.9178209542513 86.95165712381124 L 793.1239084776839 86.89739768234818 L 793.3311859614358 86.84407256683812 L 793.5396326779313 86.79168710974815 L 793.7492277826725 86.74024654958035 L 793.9599503163234 86.68975603034785 L 794.1717792068065 86.64022060106049 L 794.3846932714091 86.59164521521994 L 794.5986712189023 86.5440347303243 L 794.8136916516695 86.49739390738237 L 795.0297330678467 86.4517274104376 L 795.2467738634722 86.40703980610161 L 795.4647923346475 86.3633355630976 L 795.6837666797071 86.32061905181345 L 795.9036750013988 86.27889454386471 L 796.1244953090741 86.23816621166738 L 796.3462055208857 86.19843812802074 L 796.5687834659976 86.15971426570005 L 796.7922068868006 86.12199849705928 L 797.0164534411388 86.08529459364387 L 797.2415007045437 86.04960622581356 L 797.4673261724764 86.0149369623754 L 797.6939072625785 85.98129027022685 L 797.9212213169296 85.94866951400907 L 798.1492456043137 85.91707795577051 L 798.3779573224922 85.88651875464066 L 798.6073336004838 85.85699496651418 L 798.8373515008519 85.82850954374526 L 799.0679880219981 85.80106533485245 L 799.2992201004624 85.77466508423377 L 799.5310246132298 85.7493114318923 L 799.7633783800421 85.7250069131721 L 799.9962581657163 85.70175395850482 L 800.2296406824679 85.67955489316655 L 800.4635025922397 85.65841193704532 L 800.6978205090355 85.63832720441913 L 800.932571001259 85.61930270374448 L 801.1677305940566 85.60134033745561 L 801.403275771665 85.58444190177417 L 801.6391829797626 85.56860908652965 L 801.8754286278254 85.55384347499039 L 802.1119890914852 85.5401465437052 L 802.348840714893 85.52751966235584 L 802.5859598130836 85.51596409361991 L 802.823322674345 85.50548099304464 L 803.0609055625888 85.49607140893136 L 803.2986847197241 85.48773628223064 L 803.5366363680334 85.48047644644821 L 803.7747367125502 85.4742926275616 L 804.0129619434383 85.46918544394751 L 804.2512882383734 85.4651554063201 L 804.4896917649244 85.46220291767973 L 804.7281486829372 85.46032827327284 L 804.9666351469191 85.45953166056228 L 805.2051273084221 85.45981315920866 L 805.4436013184289 85.46117274106237 L 805.6820333297374 85.46361027016634 L 805.9203994993449 85.4671255027697 L 806.1586759908331 85.47171808735212 L 806.3968389767516 85.47738756465895 L 806.6348646410001 85.4841333677472 L 806.8727291812106 85.49195482204219 L 807.1104088111273 85.500851145405 L 807.3478797629854 85.51082144821069 L 807.5851182898873 85.52186473343731 L 807.8221006681782 85.53397989676554 L 808.0588031998178 85.54716572668913 L 808.2952022147501 85.5614209046361 L 808.5312740732708 85.5767440051005 L 808.7669951683904 85.59313349578507 L 809.0023419281961 85.6105877377544 L 809.237290818208 85.62910498559884 L 809.4718183437327 85.64868338760904 L 809.7059010522134 85.66932098596111 L 809.9395155355742 85.6910157169124 L 810.1726384325613 85.71376541100791 L 810.4052464310794 85.73756779329719 L 810.6373162705224 85.76242048356184 L 810.8688247440999 85.78832099655354 L 811.0997487011574 85.81526674224258 L 811.3300650494916 85.84325502607685 L 811.5597507576596 85.87228304925127 L 811.788782857282 85.90234790898774 L 812.0171384453396 85.93344659882531 L 812.244794686464 85.96557600892095 L 812.4717288152208 85.99873292636039 L 812.6979181383862 86.03291403547954 L 812.9233400372165 86.06811591819596 L 813.1479719697094 86.10433505435071 L 813.3717914728591 86.14156782206037 L 813.5947761649016 86.17981049807918 L 813.8169037475536 86.21905925817143 L 814.0381520082422 86.25931017749379 L 814.2584988223252 86.30055923098789 L 814.4779221553051 86.34280229378275 L 814.6964000650315 86.3860351416073 L 814.9139107038955 86.43025345121276 L 815.1304323210143 86.47545280080504 L 815.3459432644066 86.52162867048685 L 815.5604219831579 86.56877644270969 L 815.7738470295749 86.61689140273562 L 815.9861970613308 86.66596873910875 L 816.1974508435995 86.71600354413634 L 816.4075872511787 86.76699081437957 L 816.6165852706027 86.81892545115392 L 816.824424002244 86.87180226103897 L 817.0310826624022 86.9256159563978 L 817.236540585384 86.98036115590575 L 817.4407772255679 87.03603238508846 L 817.6437721594602 87.0926240768694 L 817.8455050877368 87.15013057212657 L 818.0459558372729 87.20854612025836 L 818.2451043631605 87.26786487975863 L 818.4429307507131 87.32808091880088 L 818.6394152174568 87.38918821583137 L 818.8345381151086 87.45118066017132 L 819.0282799315413 87.51405205262795 L 819.2206212927347 87.57779610611442 L 819.4115429647131 87.6424064462785 L 819.6010258554683 87.70787661214001 L 819.7890510168692 87.77420005673692 L 819.9755996465562 87.84137014778005 L 820.160653089822 87.90938016831626 L 820.3441928414762 87.97822331740018 L 820.5262005476969 88.04789271077426 L 820.706658007865 88.11838138155724 L 820.8855471763849 88.18968228094076 L 821.0628501644886 88.2617882788943 L 821.2385492420254 88.33469216487818 L 821.4126268392338 88.40838664856452 L 821.5850655484991 88.48286436056638 L 821.7558481260941 88.55811785317462 L 821.9249574939033 88.6341396011027 L 822.0923767411309 88.71092200223917 L 822.2580891259918 88.7884573784079 L 822.4220780773854 88.8667379761359 L 822.5843271965534 88.9457559674286 L 822.7448202587191 89.02550345055275 L 822.9035412147099 89.10597245082647 L 823.0604741925624 89.1871549214168 L 823.2156034991098 89.26904274414436 L 823.3689136215506 89.35162773029508 L 823.5203892290003 89.43490162143917 L 823.6700151740245 89.51885609025692 L 823.8177764941532 89.60348274137141 L 823.9636584133777 89.68877311218804 L 824.1076463436276 89.77471867374081 L 824.2497258862298 89.8613108315452 L 824.3898828333486 89.94854092645757 L 824.5281031694058 90.03640023554112 L 824.6643730724832 90.12487997293817 L 824.7986789157039 90.2139712907487 L 824.9310072685957 90.3036652799152 L 825.0613448984334 90.39395297111345 L 825.1896787715627 90.48482533564962 L 825.3159960547034 90.57627328636293 L 825.4402841162321 90.66828767853457 L 825.5625305274465 90.76085931080198 L 825.6827230638072 90.85397892607905 L 825.8008497061609 90.94763721248188 L 825.9168986419415 91.04182480425987 L 826.0308582663524 91.13653228273235 L 826.1427171835261 91.23175017723037 L 826.2524642076639 91.32746896604384 L 826.3600883641551 91.42367907737363 L 826.4655788906736 91.5203708902888 L 826.5689252382546 91.61753473568862 L 826.6701170723495 91.71516089726953 L 826.7691442738594 91.81323961249673 L 826.8659969401464 91.91176107358042 L 826.9606653860247 92.01071542845659 L 827.0531401447287 92.11009278177222 L 827.1434119688595 92.20988319587481 L 827.2314718313098 92.31007669180607 L 827.3173109261669 92.41066325029993 L 827.4009206695929 92.51163281278436 L 827.4822927006828 92.61297528238724 L 827.5614188823017 92.71468052494606 L 827.6382913018972 92.81673837002134 L 827.7129022722913 92.9191386119136 L 827.7852443324493 93.02187101068398 L 827.8553102482256 93.12492529317824 L 827.9230930130866 93.22829115405399 L 827.9885858488126 93.33195825681128 L 828.0517822061745 93.43591623482622 L 828.1126757655892 93.54015469238766 L 828.1712604377516 93.64466320573669 L 828.2275303642432 93.74943132410907 L 828.2814799181184 93.85444857078026 L 828.3331037044667 93.95970444411313 L 828.3823965609523 94.06518841860805 L 828.429353558331 94.17088994595545 L 828.4739700009418 94.27679845609072 L 828.5162414271779 94.38290335825107 L 828.5561636099317 94.48919404203473 L 828.5937325570184 94.59565987846186 L 828.6289445115743 94.70229022103757 L 828.6617959524337 94.80907440681646 L 828.6922835944796 94.91600175746893 L 828.7204043889733 95.02306158034904 L 828.7461555238586 95.13024316956367 L 828.7695344240439 95.23753580704327 L 828.7905387516581 95.34492876361347 L 828.8091664062864 95.4524113000681 L 828.8254155251786 95.55997266824312 L 828.8392844834366 95.66760211209133 L 828.8507718941759 95.77528886875801 L 828.859876608665 95.88302216965727 L 828.8665977164402 95.99079124154878 L 828.8709345453962 96.09858530761515 L 828.8728866618537 96.20639358853963 M 828.8730076519097 130.5446620031 L 828.871815192006 130.65247254801662 L 828.86823793154 130.7602723119686 L 828.8622762282347 130.86805051506934 L 828.8539306782553 130.97579637958842 L 828.8432021161501 131.08349913102907 L 828.8300916147663 131.191147999206 L 828.814600485143 131.29873221932203 L 828.7967302763805 131.40624103304486 L 828.7764827754844 131.51366368958264 L 828.7538600071882 131.6209894467593 L 828.7288642337498 131.7282075720885 L 828.7014979547258 131.83530734384712 L 828.6717639067213 131.94227805214717 L 828.6396650631161 132.049109000007 L 828.605204633768 132.15578950442085 L 828.5683860646913 132.26230889742718 L 828.5292130377119 132.36865652717543 L 828.4876894701001 132.47482175899125 L 828.4438195141781 132.58079397643996 L 828.3976075569047 132.6865625823881 L 828.3490582194374 132.79211700006323 L 828.2981763566694 132.89744667411154 L 828.2449670567445 133.00254107165338 L 828.1894356405483 133.10738968333658 L 828.1315876611762 133.2119820243874 L 828.0714289033781 133.3163076356588 L 828.0089653829795 133.42035608467668 L 827.9442033462802 133.52411696668278 L 827.8771492694302 133.62757990567542 L 827.8078098577813 133.73073455544687 L 827.7361920452166 133.83357060061815 L 827.662302993458 133.9360777576704 L 827.5861500913489 134.0382457759734 L 827.5077409541161 134.14006443881038 L 827.427083422608 134.24152356439998 L 827.3441855625106 134.34261300691415 L 827.2590556635407 134.44332265749287 L 827.1717022386173 134.54364244525505 L 827.0821340230101 134.6435623383055 L 826.9903599734661 134.74307234473812 L 826.8963892673137 134.8421625136353 L 826.8002313015451 134.9408229360626 L 826.701895691877 135.0390437460601 L 826.6013922717882 135.1368151216286 L 826.498731091537 135.23412728571202 L 826.393922417156 135.33097050717507 L 826.2869767294251 135.42733510177626 L 826.1779047228241 135.5232114331365 L 826.0667173044628 135.6185899137025 L 825.9534255929902 135.71346100570568 L 825.8380409174833 135.80781522211595 L 825.7205748163133 135.90164312759026 L 825.6010390359924 135.99493533941623 L 825.4794455299991 136.08768252845047 L 825.3558064575827 136.17987542005133 L 825.2301341825473 136.2715047950065 L 825.1024412720159 136.36256149045482 L 824.9727404951728 136.45303640080266 L 824.8410448219879 136.54292047863436 L 824.7073674219187 136.63220473561702 L 824.5717216625937 136.72088024339936 L 824.4341211084759 136.8089381345045 L 824.294579519506 136.89636960321673 L 824.1531108497267 136.98316590646203 L 824.0097292458869 137.06931836468237 L 823.8644490460277 137.15481836270376 L 823.7172847780479 137.23965735059764 L 823.5682511582518 137.3238268445359 L 823.4173630898769 137.4073184276393 L 823.2646356616045 137.49012375081912 L 823.1100841460502 137.57223453361203 L 822.9537239982368 137.65364256500817 L 822.7955708540485 137.73433970427226 L 822.6356405286682 137.8143178817576 L 822.473949014995 137.89356909971312 L 822.3105124820457 137.97208543308304 L 822.1453472733372 138.04985903029944 L 821.9784699052528 138.12688211406746 L 821.8098970653904 138.20314698214287 L 821.6396456108932 138.2786460081024 L 821.4677325667651 138.35337164210642 L 821.294175124167 138.42731641165378 L 821.1189906386987 138.50047292232912 L 820.9421966286627 138.5728338585424 L 820.7638107733127 138.6443919842602 L 820.5838509110854 138.71514014372968 L 820.4023350378174 138.78507126219378 L 820.2192813049444 138.85417834659899 L 820.0347080176874 138.92245448629438 L 819.8486336332212 138.98989285372295 L 819.6610767588293 139.0564867051041 L 819.4720561500426 139.12222938110824 L 819.2815907087647 139.18711430752253 L 819.0896994813809 139.2511349959084 L 818.8964016568541 139.3142850442503 L 818.7017165648056 139.37655813759613 L 818.5056636735824 139.4379480486884 L 818.3082625883102 139.49844863858718 L 818.1095330489331 139.55805385728382 L 817.9094949282394 139.61675774430623 L 817.7081682298744 139.67455442931453 L 817.5055730863404 139.73143813268845 L 817.3017297569826 139.78740316610504 L 817.0966586259643 139.84244393310757 L 816.8903802002276 139.89655492966523 L 816.6829151074433 139.94973074472344 L 816.4742840939475 140.00196606074505 L 816.2645080226681 140.05325565424192 L 816.0536078710371 140.1035943962975 L 815.841604728894 140.1529772530795 L 815.6285197963764 140.20139928634342 L 815.4143743818 140.24885565392626 L 815.1991898995277 140.29534161023082 L 814.9829878678285 140.3408525067002 L 814.7657899067253 140.38538379228268 L 814.5476177358333 140.42893101388682 L 814.3284931721878 140.47148981682676 L 814.1084381280624 140.51305594525763 L 813.8874746087783 140.55362524260127 L 813.6656247105034 140.59319365196174 L 813.4429106180423 140.63175721653107 L 813.2193546026189 140.66931207998493 L 812.9949790196484 140.7058544868683 L 812.7698063065021 140.7413807829709 L 812.5438589802637 140.77588741569278 L 812.3171596354775 140.80937093439937 L 812.0897309418891 140.84182799076672 L 811.8615956421783 140.87325533911627 L 811.632776549685 140.90364983673933 L 811.4032965461276 140.9330084442115 L 811.1731785793156 140.9613282256965 L 810.9424456608535 140.98860634923975 L 810.7111208638412 141.01484008705162 L 810.4792273205653 141.04002681578024 L 810.2467882201872 141.0641640167737 L 810.0138268064231 141.08724927633202 L 809.7803663752202 141.10928028594847 L 809.5464302724272 141.13025484254044 L 809.3120418914592 141.15017084866977 L 809.0772246709593 141.16902631275246 L 808.8420020924536 141.18681934925777 L 808.606397678004 141.2035481788969 L 808.3704349878557 141.21921112880085 L 808.134137618081 141.23380663268765 L 807.89752919822 141.24733323101907 L 807.6606333889174 141.25978957114654 L 807.4234738795569 141.2711744074465 L 807.1860743858917 141.28148660144473 L 806.9484586476733 141.29072512193042 L 806.7106504262777 141.2988890450593 L 806.4726735023286 141.30597755444578 L 806.2345516733202 141.31198994124486 L 805.996308751237 141.31692560422286 L 805.7579685601727 141.32078404981763 L 805.5195549339477 141.3235648921878 L 805.2810917137259 141.32526785325143 L 805.0426027456308 141.32589276271386 L 804.8041118783602 141.32543955808467 L 804.5656429608024 141.3239082846839 L 804.3272198396502 141.32129909563767 L 804.0888663570172 141.3176122518627 L 803.8506063480528 141.31284812204026 L 803.6124636385596 141.3070071825794 L 803.3744620426099 141.30009001756918 L 803.1366253601651 141.29209731872032 L 802.8989773746952 141.2830298852961 L 802.6615418508006 141.27288862403225 L 802.4243425318359 141.26167454904646 L 802.1874031375355 141.2493887817369 L 801.9507473616412 141.23603255067005 L 801.7143988695334 141.22160719145788 L 801.4783812958643 141.20611414662432 L 801.2427182421948 141.1895549654609 L 801.0074332746336 141.17193130387196 L 800.7725499214816 141.153244924209 L 800.5380916708783 141.13349769509435 L 800.3040819684535 141.1126915912345 L 800.0705442149821 141.0908286932225 L 799.8375017640452 141.06791118732997 L 799.6049779196935 141.04394136528833 L 799.3729959341176 141.01892162405983 L 799.141579005323 140.9928544655978 L 798.9107502748095 140.96574249659628 L 798.680532825258 140.93758842822962 L 798.4509496782214 140.90839507588117 L 798.2220237918231 140.8781653588619 L 797.9937780584611 140.84690230011824 L 797.7662353025185 140.81460902593008 L 797.5394182780811 140.7812887655979 L 797.3133496666627 140.74694485111993 L 797.0880520749357 140.71158071685906 L 796.8635480324716 140.6751998991992 L 796.6398599894877 140.63780603619185 L 796.4170103146018 140.59940286719208 L 796.1950212925957 140.55999423248485 L 795.9739151221867 140.51958407290076 L 795.7537139138072 140.4781764294221 L 795.5344396873951 140.4357754427787 L 795.3161143701899 140.3923853530339 L 795.0987597945415 140.3480104991605 L 794.8823976957265 140.30265531860692 L 794.6670497097741 140.25632434685343 L 794.4527373713039 140.2090222169586 L 794.2394821113708 140.160753659096 L 794.0273052553233 140.11152350008118 L 793.81622802067 140.061336662889 L 793.6062715149586 140.01019816616142 L 793.3974567336647 139.9581131237054 L 793.1898045580924 139.90508674398188 L 792.9833357532863 139.85112432958456 L 792.7780709659546 139.79623127671 L 792.5740307224052 139.74041307461766 L 792.3712354264921 139.68367530508127 L 792.1697053575764 139.6260236418305 L 791.9694606684967 139.56746384998365 L 791.7705213835551 139.50800178547107 L 791.5729073965143 139.4476433944497 L 791.3766384686085 139.3863947127083 L 791.1817342265666 139.32426186506405 L 790.9882141606507 139.26125106474987 L 790.7960976227059 139.19736861279335 L 790.6054038242262 139.13262089738643 L 790.4161518344322 139.0670143932467 L 790.2283605783653 139.00055566096987 L 790.0420488349946 138.93325134637382 L 789.8572352353392 138.8651081798339 L 789.6739382606052 138.79613297561 L 789.4921762403369 138.72633263116504 L 789.3119673505854 138.65571412647532 L 789.1333296120891 138.58428452333243 L 788.9562808884732 138.5120509646372 L 788.7808388844624 138.4390206736853 L 788.607021144111 138.3652009534449 L 788.434845049048 138.2905991858266 L 788.2643278167396 138.21522283094495 L 788.0954864987671 138.13907942637263 L 787.9283379791211 138.06217658638664 L 787.7628989725148 137.9845220012069 L 787.5991860227106 137.90612343622718 L 787.4372155008673 137.8269887312387 L 787.277003603902 137.747125799646 L 787.1185663528709 137.66654262767568 L 786.9619195913671 137.58524727357778 L 786.8070789839362 137.50324786681995 L 786.6540600145099 137.42055260727457 L 786.5028779848576 137.33716976439865 L 786.3535480130563 137.253107676407 L 786.2060850319788 137.16837474943839 L 786.0605037878003 137.0829794567149 L 785.9168188385238 136.9969303376946 L 785.7750445525246 136.9102359972177 L 785.6351951071132 136.82290510464605 L 785.4972844871174 136.73494639299608 L 785.3613264834844 136.64636865806568 L 785.2273346919013 136.55718075755453 L 785.0953225114356 136.46739161017834 L 784.9653031431952 136.37701019477703 L 784.8372895890087 136.28604554941683 L 784.7112946501248 136.19450677048647 L 784.5873309259325 136.10240301178757 L 784.4654108127008 136.00974348361922 L 784.3455465023394 135.91653745185704 L 784.2277499811795 135.82279423702653 L 784.112033028775 135.72852321337106 L 783.9984072167248 135.63373380791444 L 783.8868839075154 135.53843549951822 L 783.7774742533848 135.44263781793381 L 783.6701891952071 135.34635034284955 L 783.5650394613988 135.2495827029327 L 783.4620355668458 135.15234457486665 L 783.3611878118514 135.05464568238312 L 783.2625062811073 134.95649579528998 L 783.1660008426844 134.85790472849413 L 783.071681147046 134.75888234102013 L 782.979556626083 134.65943853502412 L 782.8896364921708 134.55958325480393 L 782.8019297372479 134.4593264858043 L 782.7164451319165 134.35867825361862 L 782.6331912245663 134.25764862298624 L 782.5521763405183 134.156247696786 L 782.4734085811934 134.05448561502604 L 782.3968958233022 133.95237255382972 L 782.3226457180564 133.8499187244181 L 782.2506656904048 133.7471343720887 L 782.1809629382901 133.64402977519111 L 782.1135444319297 133.54061524409914 L 782.0484169131176 133.43690112017967 L 781.9855868945517 133.3328977747587 L 781.9250606591816 133.22861560808406 L 781.86684425958 133.12406504828556 L 781.8109435173388 133.01925655033202 L 781.7573640224854 132.9142005949859 L 781.7061111329245 132.80890768775524 L 781.6571899739027 132.70338835784298 L 781.6106054374949 132.59765315709416 L 781.566362182116 132.49171265894074 L 781.5244646320546 132.3855774573443 L 781.4849169770308 132.27925816573654 L 781.4477231717772 132.17276541595797 L 781.4128869356433 132.0661098571949 L 781.3804117522236 131.95930215491427 L 781.3503008690096 131.8523529897973 L 781.3225572970643 131.74527305667144 L 781.297183810722 131.63807306344071 L 781.27418294731 131.5307637300151 L 781.2535570068956 131.4233557872386 L 781.2353080520554 131.31585997581587 L 781.21943790767 131.20828704523856 L 781.2059481607405 131.10064775271007 L 781.1948401602302 130.9929528620699 L 781.1861150169302 130.88521314271745 L 781.1797736033473 130.7774393685348 L 781.1758165536177 130.6696423168096 L 781.1742442634429 130.56183276715717" stroke-miterlimit="10" stroke-width="2.7769845610000004" stroke-dasharray=""/></g><g><g/><text fill="black" stroke="none" font-family="monospace" font-size="11pt" font-style="normal" font-weight="normal" text-decoration="normal" x="769.8236100709703" y="157.597015222" text-anchor="start" dominant-baseline="alphabetic" xml:space="preserve">Database</text></g><g><path fill="white" stroke="gray" paint-order="fill stroke markers" d=" M 924.8165917973491 114.6505091922 A 24.2577769005 24.2577769005 0 1 1 924.8165796684617 114.62625141934245 M 874.9125457158492 141.1298737415 L 926.2050840778492 141.1298737415" stroke-miterlimit="10" stroke-width="2.7769845610000004" stroke-dasharray=""/></g><g><g/><text fill="black" stroke="none" font-family="monospace" font-size="11pt" font-style="normal" font-weight="normal" text-decoration="normal" x="856.5588148968492" y="157.597015222" text-anchor="start" dominant-baseline="alphabetic" xml:space="preserve">TwitterAPI</text></g><g><path fill="white" stroke="blue" paint-order="fill stroke markers" d=" M 35.078667912469726 700.6985455535001 A 9.311065881 9.311065881 0 1 1 35.078663256937176 700.689234489171 M 25.76760203146973 710.0096114345001 L 25.76760203146973 729.9385594605001 M 14.00625565546973 717.1971008865002 L 37.52894840746973 717.1971008865002 M 25.76760203146973 729.9385594605001 L 14.00625565546973 748.5606912225002 M 25.76760203146973 729.9385594605001 L 37.52894840746973 748.5606912225002" stroke-miterlimit="10" stroke-width="1.3884922805000002" stroke-dasharray=""/></g><g><g/><text fill="black" stroke="none" font-family="monospace" font-size="11pt" font-style="normal" font-weight="normal" text-decoration="normal" x="8.167601650000002" y="685.0984264020001" text-anchor="start" dominant-baseline="alphabetic" xml:space="preserve">User</text></g><path fill="none" stroke="none"/><g><path fill="white" stroke="orange" paint-order="fill stroke markers" d=" M 138.9720509972425 670.0197772020001 L 244.8194436841214 670.0197772020001 L 244.8194436841214 712.8682720120001 L 138.9720509972425 712.8682720120001 L 138.9720509972425 670.0197772020001 Z" stroke-miterlimit="10" stroke-width="2.613632528" stroke-dasharray=""/></g><g><g/><text fill="black" stroke="none" font-family="monospace" font-size="11pt" font-style="normal" font-weight="normal" text-decoration="normal" x="156.69574657774248" y="696.533068712" text-anchor="start" dominant-baseline="alphabetic" xml:space="preserve">Frontend</text></g><g><path fill="white" stroke="green" paint-order="fill stroke markers" d=" M 496.80536436795467 717.0337488535001 A 24.2577769005 24.2577769005 0 1 1 496.80535223906725 717.0094910806425 M 432.92655186330467 691.8040273566502 L 432.92655186330467 742.2634703503501 M 431.95460726695467 717.0337488535001 L 448.28981056695466 717.0337488535001" stroke-miterlimit="10" stroke-width="1.9438891927000002" stroke-dasharray=""/></g><g><g/><text fill="black" stroke="none" font-family="monospace" font-size="11pt" font-style="normal" font-weight="normal" text-decoration="normal" x="429.1799850545152" y="685.0984264020001" text-anchor="start" dominant-baseline="alphabetic" xml:space="preserve">Endpoint</text></g><g><path fill="white" stroke="red" paint-order="fill stroke markers" d=" M 698.1335142548036 723.8128582230001 A 24.2577769005 24.2577769005 0 1 1 698.1335021259162 723.7886004501426 M 670.6086966943036 699.5550813225002 L 680.4098186743036 691.3874796725001 M 670.6086966943036 699.5550813225002 L 680.4098186743036 707.7226829725003" stroke-miterlimit="10" stroke-width="1.9438891927000002" stroke-dasharray=""/></g><g><g/><text fill="black" stroke="none" font-family="monospace" font-size="11pt" font-style="normal" font-weight="normal" text-decoration="normal" x="643.0757381172431" y="685.0984264020001" text-anchor="start" dominant-baseline="alphabetic" xml:space="preserve">Scraper</text></g><g><path fill="pink" stroke="black" paint-order="fill stroke markers" d=" M 781.1742140159098 737.861133061 L 781.1742140159098 703.5572061309999 L 828.8730076519097 703.5572061309999 L 828.8730076519097 737.861133061" stroke-miterlimit="10" stroke-width="2.7769845610000004" stroke-dasharray=""/><path fill="pink" stroke="black" paint-order="fill stroke markers" d=" M 828.8730076519097 702.3647362900999 L 828.871815192006 702.4725468350166 L 828.86823793154 702.5803465989685 L 828.8622762282347 702.6881248020693 L 828.8539306782553 702.7958706665884 L 828.8432021161501 702.903573418029 L 828.8300916147663 703.0112222862059 L 828.814600485143 703.118806506322 L 828.7967302763805 703.2263153200448 L 828.7764827754844 703.3337379765826 L 828.7538600071882 703.4410637337593 L 828.7288642337498 703.5482818590884 L 828.7014979547258 703.655381630847 L 828.6717639067213 703.7623523391471 L 828.6396650631161 703.869183287007 L 828.605204633768 703.9758637914208 L 828.5683860646913 704.082383184427 L 828.5292130377119 704.1887308141753 L 828.4876894701001 704.2948960459912 L 828.4438195141781 704.4008682634399 L 828.3976075569047 704.506636869388 L 828.3490582194374 704.6121912870632 L 828.2981763566694 704.7175209611114 L 828.2449670567445 704.8226153586533 L 828.1894356405483 704.9274639703365 L 828.1315876611762 705.0320563113874 L 828.0714289033781 705.1363819226588 L 828.0089653829795 705.2404303716766 L 827.9442033462802 705.3441912536827 L 827.8771492694302 705.4476541926754 L 827.8078098577813 705.5508088424468 L 827.7361920452166 705.653644887618 L 827.662302993458 705.7561520446703 L 827.5861500913489 705.8583200629733 L 827.5077409541161 705.9601387258103 L 827.427083422608 706.0615978513999 L 827.3441855625106 706.162687293914 L 827.2590556635407 706.2633969444928 L 827.1717022386173 706.3637167322549 L 827.0821340230101 706.4636366253054 L 826.9903599734661 706.563146631738 L 826.8963892673137 706.6622368006352 L 826.8002313015451 706.7608972230626 L 826.701895691877 706.85911803306 L 826.6013922717882 706.9568894086285 L 826.498731091537 707.0542015727119 L 826.393922417156 707.1510447941749 L 826.2869767294251 707.2474093887762 L 826.1779047228241 707.3432857201365 L 826.0667173044628 707.4386642007024 L 825.9534255929902 707.5335352927057 L 825.8380409174833 707.6278895091159 L 825.7205748163133 707.7217174145902 L 825.6010390359924 707.8150096264162 L 825.4794455299991 707.9077568154504 L 825.3558064575827 707.9999497070513 L 825.2301341825473 708.0915790820064 L 825.1024412720159 708.1826357774547 L 824.9727404951728 708.2731106878026 L 824.8410448219879 708.3629947656343 L 824.7073674219187 708.452279022617 L 824.5717216625937 708.5409545303993 L 824.4341211084759 708.6290124215044 L 824.294579519506 708.7164438902166 L 824.1531108497267 708.803240193462 L 824.0097292458869 708.8893926516823 L 823.8644490460277 708.9748926497036 L 823.7172847780479 709.0597316375976 L 823.5682511582518 709.1439011315358 L 823.4173630898769 709.2273927146392 L 823.2646356616045 709.3101980378191 L 823.1100841460502 709.3923088206119 L 822.9537239982368 709.4737168520081 L 822.7955708540485 709.5544139912722 L 822.6356405286682 709.6343921687576 L 822.473949014995 709.713643386713 L 822.3105124820457 709.792159720083 L 822.1453472733372 709.8699333172993 L 821.9784699052528 709.9469564010674 L 821.8098970653904 710.0232212691428 L 821.6396456108932 710.0987202951023 L 821.4677325667651 710.1734459291064 L 821.294175124167 710.2473906986537 L 821.1189906386987 710.3205472093291 L 820.9421966286627 710.3929081455423 L 820.7638107733127 710.4644662712601 L 820.5838509110854 710.5352144307296 L 820.4023350378174 710.6051455491937 L 820.2192813049444 710.6742526335989 L 820.0347080176874 710.7425287732943 L 819.8486336332212 710.8099671407228 L 819.6610767588293 710.876560992104 L 819.4720561500426 710.9423036681081 L 819.2815907087647 711.0071885945224 L 819.0896994813809 711.0712092829083 L 818.8964016568541 711.1343593312503 L 818.7017165648056 711.196632424596 L 818.5056636735824 711.2580223356883 L 818.3082625883102 711.3185229255871 L 818.1095330489331 711.3781281442838 L 817.9094949282394 711.4368320313062 L 817.7081682298744 711.4946287163144 L 817.5055730863404 711.5515124196884 L 817.3017297569826 711.6074774531049 L 817.0966586259643 711.6625182201075 L 816.8903802002276 711.7166292166652 L 816.6829151074433 711.7698050317234 L 816.4742840939475 711.822040347745 L 816.2645080226681 711.8733299412419 L 816.0536078710371 711.9236686832975 L 815.841604728894 711.9730515400794 L 815.6285197963764 712.0214735733433 L 815.4143743818 712.0689299409262 L 815.1991898995277 712.1154158972307 L 814.9829878678285 712.1609267937001 L 814.7657899067253 712.2054580792826 L 814.5476177358333 712.2490053008868 L 814.3284931721878 712.2915641038267 L 814.1084381280624 712.3331302322575 L 813.8874746087783 712.3736995296013 L 813.6656247105034 712.4132679389617 L 813.4429106180423 712.451831503531 L 813.2193546026189 712.4893863669848 L 812.9949790196484 712.5259287738683 L 812.7698063065021 712.5614550699709 L 812.5438589802637 712.5959617026926 L 812.3171596354775 712.6294452213992 L 812.0897309418891 712.6619022777667 L 811.8615956421783 712.6933296261162 L 811.632776549685 712.7237241237393 L 811.4032965461276 712.7530827312114 L 811.1731785793156 712.7814025126964 L 810.9424456608535 712.8086806362396 L 810.7111208638412 712.8349143740516 L 810.4792273205653 712.8601011027802 L 810.2467882201872 712.8842383037736 L 810.0138268064231 712.9073235633319 L 809.7803663752202 712.9293545729483 L 809.5464302724272 712.9503291295404 L 809.3120418914592 712.9702451356698 L 809.0772246709593 712.9891005997524 L 808.8420020924536 713.0068936362577 L 808.606397678004 713.0236224658969 L 808.3704349878557 713.0392854158008 L 808.134137618081 713.0538809196876 L 807.89752919822 713.067407518019 L 807.6606333889174 713.0798638581465 L 807.4234738795569 713.0912486944464 L 807.1860743858917 713.1015608884446 L 806.9484586476733 713.1107994089303 L 806.7106504262777 713.1189633320593 L 806.4726735023286 713.1260518414457 L 806.2345516733202 713.1320642282448 L 805.996308751237 713.1369998912228 L 805.7579685601727 713.1408583368176 L 805.5195549339477 713.1436391791877 L 805.2810917137259 713.1453421402514 L 805.0426027456308 713.1459670497138 L 804.8041118783602 713.1455138450846 L 804.5656429608024 713.1439825716839 L 804.3272198396502 713.1413733826377 L 804.0888663570172 713.1376865388627 L 803.8506063480528 713.1329224090402 L 803.6124636385596 713.1270814695794 L 803.3744620426099 713.1201643045691 L 803.1366253601651 713.1121716057203 L 802.8989773746952 713.1031041722961 L 802.6615418508006 713.0929629110321 L 802.4243425318359 713.0817488360464 L 802.1874031375355 713.0694630687368 L 801.9507473616412 713.05610683767 L 801.7143988695334 713.0416814784578 L 801.4783812958643 713.0261884336243 L 801.2427182421948 713.0096292524609 L 801.0074332746336 712.9920055908719 L 800.7725499214816 712.973319211209 L 800.5380916708783 712.9535719820942 L 800.3040819684535 712.9327658782345 L 800.0705442149821 712.9109029802224 L 799.8375017640452 712.8879854743299 L 799.6049779196935 712.8640156522882 L 799.3729959341176 712.8389959110598 L 799.141579005323 712.8129287525977 L 798.9107502748095 712.7858167835961 L 798.680532825258 712.7576627152296 L 798.4509496782214 712.7284693628811 L 798.2220237918231 712.6982396458618 L 797.9937780584611 712.6669765871181 L 797.7662353025185 712.6346833129301 L 797.5394182780811 712.6013630525978 L 797.3133496666627 712.5670191381199 L 797.0880520749357 712.531655003859 L 796.8635480324716 712.4952741861991 L 796.6398599894877 712.4578803231918 L 796.4170103146018 712.419477154192 L 796.1950212925957 712.3800685194848 L 795.9739151221867 712.3396583599007 L 795.7537139138072 712.298250716422 L 795.5344396873951 712.2558497297786 L 795.3161143701899 712.2124596400338 L 795.0987597945415 712.1680847861604 L 794.8823976957265 712.1227296056069 L 794.6670497097741 712.0763986338534 L 794.4527373713039 712.0290965039585 L 794.2394821113708 711.9808279460959 L 794.0273052553233 711.9315977870812 L 793.81622802067 711.881410949889 L 793.6062715149586 711.8302724531613 L 793.3974567336647 711.7781874107053 L 793.1898045580924 711.7251610309818 L 792.9833357532863 711.6711986165845 L 792.7780709659546 711.61630556371 L 792.5740307224052 711.5604873616176 L 792.3712354264921 711.5037495920812 L 792.1697053575764 711.4460979288305 L 791.9694606684967 711.3875381369836 L 791.7705213835551 711.328076072471 L 791.5729073965143 711.2677176814497 L 791.3766384686085 711.2064689997082 L 791.1817342265666 711.1443361520639 L 790.9882141606507 711.0813253517498 L 790.7960976227059 711.0174428997933 L 790.6054038242262 710.9526951843864 L 790.4161518344322 710.8870886802466 L 790.2283605783653 710.8206299479698 L 790.0420488349946 710.7533256333737 L 789.8572352353392 710.6851824668338 L 789.6739382606052 710.6162072626099 L 789.4921762403369 710.546406918165 L 789.3119673505854 710.4757884134752 L 789.1333296120891 710.4043588103324 L 788.9562808884732 710.3321252516371 L 788.7808388844624 710.2590949606852 L 788.607021144111 710.1852752404449 L 788.434845049048 710.1106734728265 L 788.2643278167396 710.0352971179449 L 788.0954864987671 709.9591537133725 L 787.9283379791211 709.8822508733865 L 787.7628989725148 709.8045962882068 L 787.5991860227106 709.7261977232271 L 787.4372155008673 709.6470630182387 L 787.277003603902 709.5672000866459 L 787.1185663528709 709.4866169146756 L 786.9619195913671 709.4053215605777 L 786.8070789839362 709.3233221538198 L 786.6540600145099 709.2406268942744 L 786.5028779848576 709.1572440513986 L 786.3535480130563 709.0731819634069 L 786.2060850319788 708.9884490364383 L 786.0605037878003 708.9030537437148 L 785.9168188385238 708.8170046246945 L 785.7750445525246 708.7303102842177 L 785.6351951071132 708.642979391646 L 785.4972844871174 708.555020679996 L 785.3613264834844 708.4664429450656 L 785.2273346919013 708.3772550445544 L 785.0953225114356 708.2874658971783 L 784.9653031431952 708.197084481777 L 784.8372895890087 708.1061198364167 L 784.7112946501248 708.0145810574865 L 784.5873309259325 707.9224772987875 L 784.4654108127008 707.8298177706191 L 784.3455465023394 707.7366117388569 L 784.2277499811795 707.6428685240264 L 784.112033028775 707.548597500371 L 783.9984072167248 707.4538080949144 L 783.8868839075154 707.3585097865181 L 783.7774742533848 707.2627121049337 L 783.6701891952071 707.1664246298495 L 783.5650394613988 707.0696569899327 L 783.4620355668458 706.9724188618666 L 783.3611878118514 706.874719969383 L 783.2625062811073 706.7765700822899 L 783.1660008426844 706.6779790154941 L 783.071681147046 706.57895662802 L 782.979556626083 706.479512822024 L 782.8896364921708 706.3796575418039 L 782.8019297372479 706.2794007728043 L 782.7164451319165 706.1787525406186 L 782.6331912245663 706.0777229099862 L 782.5521763405183 705.976321983786 L 782.4734085811934 705.8745599020259 L 782.3968958233022 705.7724468408296 L 782.3226457180564 705.669993011418 L 782.2506656904048 705.5672086590886 L 782.1809629382901 705.464104062191 L 782.1135444319297 705.3606895310991 L 782.0484169131176 705.2569754071795 L 781.9855868945517 705.1529720617586 L 781.9250606591816 705.048689895084 L 781.86684425958 704.9441393352855 L 781.8109435173388 704.839330837332 L 781.7573640224854 704.7342748819858 L 781.7061111329245 704.6289819747552 L 781.6571899739027 704.5234626448429 L 781.6106054374949 704.4177274440941 L 781.566362182116 704.3117869459406 L 781.5244646320546 704.2056517443442 L 781.4849169770308 704.0993324527365 L 781.4477231717772 703.9928397029579 L 781.4128869356433 703.8861841441948 L 781.3804117522236 703.7793764419142 L 781.3503008690096 703.6724272767973 L 781.3225572970643 703.5653473436714 L 781.297183810722 703.4581473504406 L 781.27418294731 703.350838017015 L 781.2535570068956 703.2434300742385 L 781.2353080520554 703.1359342628158 L 781.21943790767 703.0283613322385 L 781.2059481607405 702.92072203971 L 781.1948401602302 702.8130271490699 L 781.1861150169302 702.7052874297174 L 781.1797736033473 702.5975136555347 L 781.1758165536177 702.4897166038095 L 781.1742442634429 702.3819070541571 L 781.1750568900509 702.2740957874425 L 781.1782543521795 702.1662935847028 L 781.1838363300851 702.0585112260682 L 781.1918022655748 701.9507594896847 L 781.2021513620615 701.8430491506364 L 781.2148825846443 701.7353909798672 L 781.2299946602114 701.6277957431047 L 781.247486077568 701.5202741997828 L 781.2673550875868 701.412837101966 L 781.2895997033835 701.305495193275 L 781.314217700515 701.1982592078109 L 781.3412066172019 701.0911398690829 L 781.3705637545753 700.9841478889358 L 781.4022861769458 700.8772939664782 L 781.4363707120978 700.7705887870135 L 781.4728139516058 700.6640430209707 L 781.5116122511765 700.5576673228375 L 781.5527617310122 700.4514723300952 L 781.5962582761993 700.3454686621544 L 781.6420975371193 700.2396669192938 L 781.6902749298845 700.1340776815994 L 781.7407856367957 700.0287115079069 L 781.7936246068243 699.9235789347459 L 781.8487865561175 699.8186904752863 L 781.9062659685261 699.7140566182863 L 781.9660570961569 699.6096878270448 L 782.0281539599467 699.5055945383535 L 782.0925503502613 699.401787161455 L 782.1592398275151 699.2982760770001 L 782.2282157228159 699.1950716360112 L 782.2994711386317 699.0921841588463 L 782.3729989494803 698.9896239341674 L 782.448791802642 698.8874012179115 L 782.5268421188944 698.785526232265 L 782.6071420932711 698.6840091646418 L 782.6896836958415 698.5828601666637 L 782.7744586725142 698.4820893531465 L 782.8614585458622 698.3817068010875 L 782.9506746159706 698.2817225486581 L 783.0420979613067 698.1821465942004 L 783.1357194396122 698.0829888952268 L 783.2315296888172 697.9842593674246 L 783.3295191279768 697.8859678836642 L 783.4296779582287 697.7881242730123 L 783.5319961637732 697.6907383197481 L 783.636463512875 697.593819762386 L 783.7430695588865 697.497378292701 L 783.8518036412918 697.4014235547596 L 783.9626548867731 697.3059651439556 L 784.0756122102985 697.2110126060506 L 784.1906643162296 697.1165754362194 L 784.3077996994517 697.0226630781 L 784.4270066465241 696.92928492285 L 784.5482732368515 696.8364503082073 L 784.6715873438759 696.744168517556 L 784.7969366362894 696.652448778998 L 784.9243085792671 696.5613002644309 L 785.0536904357209 696.4707320886303 L 785.185069267573 696.3807533083381 L 785.3184319370496 696.2913729213574 L 785.453765107995 696.2025998656526 L 785.5910552472048 696.114443018455 L 785.7302886257796 696.0269111953761 L 785.8714513204975 695.9400131495252 L 786.0145292152066 695.8537575706342 L 786.1595080022367 695.7681530841896 L 786.30637318383 695.6832082505684 L 786.4551100735907 695.5989315641832 L 786.6057037979537 695.5153314526325 L 786.7581392976721 695.4324162758576 L 786.9124013293228 695.3501943253074 L 787.0684744668315 695.2686738231081 L 787.2263431030143 695.1878629212422 L 787.3859914511393 695.1077697007324 L 787.5474035465044 695.0284021708342 L 787.7105632480349 694.9497682682342 L 787.8754542398964 694.8718758562574 L 788.0420600331273 694.7947327240798 L 788.2103639672871 694.7183465859506 L 788.3803492121224 694.6427250804198 L 788.5519987692506 694.567875769575 L 788.7252954738591 694.4938061382849 L 788.9002219964216 694.4205235934509 L 789.0767608444318 694.3480354632663 L 789.2548943641518 694.276348996484 L 789.4346047423784 694.2054713616907 L 789.6158740082233 694.1354096465908 L 789.7986840349109 694.0661708572976 L 789.9830165415912 693.9977619176321 L 790.1688530951669 693.9301896684316 L 790.3561751121375 693.8634608668643 L 790.5449638604574 693.7975821857551 L 790.7352004614092 693.732560212917 L 790.9268658914914 693.6684014504932 L 791.1199409843205 693.6051123143063 L 791.3144064325481 693.5426991332174 L 791.5102427897917 693.4811681484925 L 791.7074304725785 693.420525513179 L 791.9059497623048 693.3607772914895 L 792.1057808072068 693.3019294581966 L 792.3069036243465 693.2439878980347 L 792.5092981016102 693.1869584051112 L 792.7129439997185 693.1308466823283 L 792.9178209542513 693.0756583408112 L 793.1239084776839 693.0213988993481 L 793.3311859614358 692.968073783838 L 793.5396326779313 692.9156883267481 L 793.7492277826725 692.8642477665803 L 793.9599503163234 692.8137572473478 L 794.1717792068065 692.7642218180604 L 794.3846932714091 692.7156464322198 L 794.5986712189023 692.6680359473243 L 794.8136916516695 692.6213951243823 L 795.0297330678467 692.5757286274376 L 795.2467738634722 692.5310410231016 L 795.4647923346475 692.4873367800975 L 795.6837666797071 692.4446202688134 L 795.9036750013988 692.4028957608646 L 796.1244953090741 692.3621674286672 L 796.3462055208857 692.3224393450206 L 796.5687834659976 692.2837154827 L 796.7922068868006 692.2459997140592 L 797.0164534411388 692.2092958106438 L 797.2415007045437 692.1736074428135 L 797.4673261724764 692.1389381793754 L 797.6939072625785 692.1052914872267 L 797.9212213169296 692.072670731009 L 798.1492456043137 692.0410791727704 L 798.3779573224922 692.0105199716405 L 798.6073336004838 691.9809961835141 L 798.8373515008519 691.9525107607452 L 799.0679880219981 691.9250665518524 L 799.2992201004624 691.8986663012337 L 799.5310246132298 691.8733126488922 L 799.7633783800421 691.849008130172 L 799.9962581657163 691.8257551755047 L 800.2296406824679 691.8035561101665 L 800.4635025922397 691.7824131540452 L 800.6978205090355 691.762328421419 L 800.932571001259 691.7433039207444 L 801.1677305940566 691.7253415544556 L 801.403275771665 691.7084431187741 L 801.6391829797626 691.6926103035296 L 801.8754286278254 691.6778446919903 L 802.1119890914852 691.6641477607051 L 802.348840714893 691.6515208793558 L 802.5859598130836 691.6399653106198 L 802.823322674345 691.6294822100446 L 803.0609055625888 691.6200726259312 L 803.2986847197241 691.6117374992306 L 803.5366363680334 691.6044776634482 L 803.7747367125502 691.5982938445615 L 804.0129619434383 691.5931866609475 L 804.2512882383734 691.58915662332 L 804.4896917649244 691.5862041346796 L 804.7281486829372 691.5843294902728 L 804.9666351469191 691.5835328775622 L 805.2051273084221 691.5838143762086 L 805.4436013184289 691.5851739580623 L 805.6820333297374 691.5876114871662 L 805.9203994993449 691.5911267197696 L 806.1586759908331 691.5957193043521 L 806.3968389767516 691.6013887816589 L 806.6348646410001 691.6081345847472 L 806.8727291812106 691.6159560390421 L 807.1104088111273 691.6248523624049 L 807.3478797629854 691.6348226652105 L 807.5851182898873 691.6458659504373 L 807.8221006681782 691.6579811137655 L 808.0588031998178 691.6711669436891 L 808.2952022147501 691.685422121636 L 808.5312740732708 691.7007452221004 L 808.7669951683904 691.717134712785 L 809.0023419281961 691.7345889547544 L 809.237290818208 691.7531062025988 L 809.4718183437327 691.7726846046089 L 809.7059010522134 691.793322202961 L 809.9395155355742 691.8150169339124 L 810.1726384325613 691.8377666280078 L 810.4052464310794 691.8615690102971 L 810.6373162705224 691.8864217005618 L 810.8688247440999 691.9123222135535 L 811.0997487011574 691.9392679592424 L 811.3300650494916 691.9672562430768 L 811.5597507576596 691.9962842662512 L 811.788782857282 692.0263491259876 L 812.0171384453396 692.0574478158252 L 812.244794686464 692.0895772259208 L 812.4717288152208 692.1227341433603 L 812.6979181383862 692.1569152524795 L 812.9233400372165 692.1921171351959 L 813.1479719697094 692.2283362713506 L 813.3717914728591 692.2655690390603 L 813.5947761649016 692.3038117150791 L 813.8169037475536 692.3430604751713 L 814.0381520082422 692.3833113944937 L 814.2584988223252 692.4245604479878 L 814.4779221553051 692.4668035107827 L 814.6964000650315 692.5100363586072 L 814.9139107038955 692.5542546682127 L 815.1304323210143 692.599454017805 L 815.3459432644066 692.6456298874867 L 815.5604219831579 692.6927776597096 L 815.7738470295749 692.7408926197355 L 815.9861970613308 692.7899699561086 L 816.1974508435995 692.8400047611362 L 816.4075872511787 692.8909920313795 L 816.6165852706027 692.9429266681539 L 816.824424002244 692.9958034780389 L 817.0310826624022 693.0496171733977 L 817.236540585384 693.1043623729057 L 817.4407772255679 693.1600336020883 L 817.6437721594602 693.2166252938694 L 817.8455050877368 693.2741317891265 L 818.0459558372729 693.3325473372582 L 818.2451043631605 693.3918660967586 L 818.4429307507131 693.4520821358008 L 818.6394152174568 693.5131894328313 L 818.8345381151086 693.5751818771712 L 819.0282799315413 693.6380532696279 L 819.2206212927347 693.7017973231143 L 819.4115429647131 693.7664076632784 L 819.6010258554683 693.8318778291399 L 819.7890510168692 693.8982012737368 L 819.9755996465562 693.9653713647799 L 820.160653089822 694.0333813853161 L 820.3441928414762 694.1022245344001 L 820.5262005476969 694.1718939277741 L 820.706658007865 694.2423825985571 L 820.8855471763849 694.3136834979407 L 821.0628501644886 694.3857894958942 L 821.2385492420254 694.4586933818781 L 821.4126268392338 694.5323878655645 L 821.5850655484991 694.6068655775663 L 821.7558481260941 694.6821190701745 L 821.9249574939033 694.7581408181026 L 822.0923767411309 694.834923219239 L 822.2580891259918 694.9124585954078 L 822.4220780773854 694.9907391931358 L 822.5843271965534 695.0697571844286 L 822.7448202587191 695.1495046675526 L 822.9035412147099 695.2299736678264 L 823.0604741925624 695.3111561384168 L 823.2156034991098 695.3930439611443 L 823.3689136215506 695.475628947295 L 823.5203892290003 695.558902838439 L 823.6700151740245 695.6428573072568 L 823.8177764941532 695.7274839583713 L 823.9636584133777 695.812774329188 L 824.1076463436276 695.8987198907407 L 824.2497258862298 695.9853120485451 L 824.3898828333486 696.0725421434574 L 824.5281031694058 696.160401452541 L 824.6643730724832 696.2488811899381 L 824.7986789157039 696.3379725077486 L 824.9310072685957 696.4276664969151 L 825.0613448984334 696.5179541881133 L 825.1896787715627 696.6088265526495 L 825.3159960547034 696.7002745033628 L 825.4402841162321 696.7922888955345 L 825.5625305274465 696.8848605278018 L 825.6827230638072 696.977980143079 L 825.8008497061609 697.0716384294818 L 825.9168986419415 697.1658260212598 L 826.0308582663524 697.2605334997322 L 826.1427171835261 697.3557513942303 L 826.2524642076639 697.4514701830437 L 826.3600883641551 697.5476802943735 L 826.4655788906736 697.6443721072887 L 826.5689252382546 697.7415359526885 L 826.6701170723495 697.8391621142695 L 826.7691442738594 697.9372408294967 L 826.8659969401464 698.0357622905804 L 826.9606653860247 698.1347166454565 L 827.0531401447287 698.2340939987721 L 827.1434119688595 698.3338844128747 L 827.2314718313098 698.434077908806 L 827.3173109261669 698.5346644672999 L 827.4009206695929 698.6356340297842 L 827.4822927006828 698.7369764993872 L 827.5614188823017 698.838681741946 L 827.6382913018972 698.9407395870212 L 827.7129022722913 699.0431398289135 L 827.7852443324493 699.1458722276839 L 827.8553102482256 699.2489265101782 L 827.9230930130866 699.3522923710539 L 827.9885858488126 699.4559594738112 L 828.0517822061745 699.5599174518261 L 828.1126757655892 699.6641559093875 L 828.1712604377516 699.7686644227366 L 828.2275303642432 699.873432541109 L 828.2814799181184 699.9784497877802 L 828.3331037044667 700.0837056611131 L 828.3823965609523 700.1891896356079 L 828.429353558331 700.2948911629554 L 828.4739700009418 700.4007996730907 L 828.5162414271779 700.5069045752509 L 828.5561636099317 700.6131952590347 L 828.5937325570184 700.7196610954618 L 828.6289445115743 700.8262914380375 L 828.6617959524337 700.9330756238164 L 828.6922835944796 701.0400029744688 L 828.7204043889733 701.1470627973489 L 828.7461555238586 701.2542443865636 L 828.7695344240439 701.3615370240432 L 828.7905387516581 701.4689299806133 L 828.8091664062864 701.576412517068 L 828.8254155251786 701.6839738852431 L 828.8392844834366 701.7916033290912 L 828.8507718941759 701.8992900857579 L 828.859876608665 702.0070233866572 L 828.8665977164402 702.1147924585487 L 828.8709345453962 702.222586524615 L 828.8728866618537 702.3303948055395 M 828.8730076519097 736.6686632201 L 828.871815192006 736.7764737650167 L 828.86823793154 736.8842735289686 L 828.8622762282347 736.9920517320694 L 828.8539306782553 737.0997975965885 L 828.8432021161501 737.2075003480292 L 828.8300916147663 737.315149216206 L 828.814600485143 737.4227334363221 L 828.7967302763805 737.5302422500449 L 828.7764827754844 737.6376649065827 L 828.7538600071882 737.7449906637594 L 828.7288642337498 737.8522087890885 L 828.7014979547258 737.9593085608471 L 828.6717639067213 738.0662792691472 L 828.6396650631161 738.1731102170071 L 828.605204633768 738.2797907214209 L 828.5683860646913 738.3863101144273 L 828.5292130377119 738.4926577441754 L 828.4876894701001 738.5988229759913 L 828.4438195141781 738.70479519344 L 828.3976075569047 738.8105637993881 L 828.3490582194374 738.9161182170633 L 828.2981763566694 739.0214478911115 L 828.2449670567445 739.1265422886534 L 828.1894356405483 739.2313909003366 L 828.1315876611762 739.3359832413875 L 828.0714289033781 739.4403088526589 L 828.0089653829795 739.5443573016767 L 827.9442033462802 739.6481181836828 L 827.8771492694302 739.7515811226755 L 827.8078098577813 739.8547357724469 L 827.7361920452166 739.9575718176181 L 827.662302993458 740.0600789746704 L 827.5861500913489 740.1622469929735 L 827.5077409541161 740.2640656558104 L 827.427083422608 740.3655247814 L 827.3441855625106 740.4666142239141 L 827.2590556635407 740.5673238744929 L 827.1717022386173 740.667643662255 L 827.0821340230101 740.7675635553055 L 826.9903599734661 740.8670735617382 L 826.8963892673137 740.9661637306353 L 826.8002313015451 741.0648241530627 L 826.701895691877 741.1630449630601 L 826.6013922717882 741.2608163386286 L 826.498731091537 741.358128502712 L 826.393922417156 741.454971724175 L 826.2869767294251 741.5513363187763 L 826.1779047228241 741.6472126501366 L 826.0667173044628 741.7425911307025 L 825.9534255929902 741.8374622227058 L 825.8380409174833 741.931816439116 L 825.7205748163133 742.0256443445903 L 825.6010390359924 742.1189365564163 L 825.4794455299991 742.2116837454505 L 825.3558064575827 742.3038766370514 L 825.2301341825473 742.3955060120065 L 825.1024412720159 742.4865627074548 L 824.9727404951728 742.5770376178027 L 824.8410448219879 742.6669216956344 L 824.7073674219187 742.756205952617 L 824.5717216625937 742.8448814603994 L 824.4341211084759 742.9329393515045 L 824.294579519506 743.0203708202167 L 824.1531108497267 743.1071671234621 L 824.0097292458869 743.1933195816824 L 823.8644490460277 743.2788195797037 L 823.7172847780479 743.3636585675977 L 823.5682511582518 743.4478280615359 L 823.4173630898769 743.5313196446393 L 823.2646356616045 743.6141249678192 L 823.1100841460502 743.696235750612 L 822.9537239982368 743.7776437820082 L 822.7955708540485 743.8583409212723 L 822.6356405286682 743.9383190987577 L 822.473949014995 744.0175703167131 L 822.3105124820457 744.0960866500831 L 822.1453472733372 744.1738602472994 L 821.9784699052528 744.2508833310675 L 821.8098970653904 744.3271481991429 L 821.6396456108932 744.4026472251024 L 821.4677325667651 744.4773728591065 L 821.294175124167 744.5513176286538 L 821.1189906386987 744.6244741393292 L 820.9421966286627 744.6968350755424 L 820.7638107733127 744.7683932012602 L 820.5838509110854 744.8391413607297 L 820.4023350378174 744.9090724791938 L 820.2192813049444 744.978179563599 L 820.0347080176874 745.0464557032944 L 819.8486336332212 745.113894070723 L 819.6610767588293 745.1804879221041 L 819.4720561500426 745.2462305981082 L 819.2815907087647 745.3111155245225 L 819.0896994813809 745.3751362129084 L 818.8964016568541 745.4382862612504 L 818.7017165648056 745.5005593545961 L 818.5056636735824 745.5619492656884 L 818.3082625883102 745.6224498555872 L 818.1095330489331 745.6820550742839 L 817.9094949282394 745.7407589613063 L 817.7081682298744 745.7985556463145 L 817.5055730863404 745.8554393496885 L 817.3017297569826 745.911404383105 L 817.0966586259643 745.9664451501076 L 816.8903802002276 746.0205561466653 L 816.6829151074433 746.0737319617235 L 816.4742840939475 746.1259672777451 L 816.2645080226681 746.177256871242 L 816.0536078710371 746.2275956132976 L 815.841604728894 746.2769784700795 L 815.6285197963764 746.3254005033434 L 815.4143743818 746.3728568709263 L 815.1991898995277 746.4193428272308 L 814.9829878678285 746.4648537237002 L 814.7657899067253 746.5093850092827 L 814.5476177358333 746.5529322308869 L 814.3284931721878 746.5954910338268 L 814.1084381280624 746.6370571622576 L 813.8874746087783 746.6776264596014 L 813.6656247105034 746.7171948689618 L 813.4429106180423 746.7557584335311 L 813.2193546026189 746.7933132969849 L 812.9949790196484 746.8298557038684 L 812.7698063065021 746.865381999971 L 812.5438589802637 746.8998886326928 L 812.3171596354775 746.9333721513995 L 812.0897309418891 746.9658292077668 L 811.8615956421783 746.9972565561163 L 811.632776549685 747.0276510537394 L 811.4032965461276 747.0570096612115 L 811.1731785793156 747.0853294426965 L 810.9424456608535 747.1126075662397 L 810.7111208638412 747.1388413040517 L 810.4792273205653 747.1640280327803 L 810.2467882201872 747.1881652337737 L 810.0138268064231 747.211250493332 L 809.7803663752202 747.2332815029484 L 809.5464302724272 747.2542560595405 L 809.3120418914592 747.2741720656699 L 809.0772246709593 747.2930275297525 L 808.8420020924536 747.3108205662578 L 808.606397678004 747.327549395897 L 808.3704349878557 747.3432123458009 L 808.134137618081 747.3578078496877 L 807.89752919822 747.3713344480191 L 807.6606333889174 747.3837907881466 L 807.4234738795569 747.3951756244466 L 807.1860743858917 747.4054878184447 L 806.9484586476733 747.4147263389304 L 806.7106504262777 747.4228902620594 L 806.4726735023286 747.4299787714458 L 806.2345516733202 747.4359911582449 L 805.996308751237 747.4409268212229 L 805.7579685601727 747.4447852668177 L 805.5195549339477 747.4475661091878 L 805.2810917137259 747.4492690702515 L 805.0426027456308 747.4498939797139 L 804.8041118783602 747.4494407750847 L 804.5656429608024 747.447909501684 L 804.3272198396502 747.4453003126378 L 804.0888663570172 747.4416134688627 L 803.8506063480528 747.4368493390404 L 803.6124636385596 747.4310083995795 L 803.3744620426099 747.4240912345692 L 803.1366253601651 747.4160985357204 L 802.8989773746952 747.4070311022962 L 802.6615418508006 747.3968898410322 L 802.4243425318359 747.3856757660465 L 802.1874031375355 747.3733899987369 L 801.9507473616412 747.3600337676701 L 801.7143988695334 747.3456084084579 L 801.4783812958643 747.3301153636244 L 801.2427182421948 747.313556182461 L 801.0074332746336 747.295932520872 L 800.7725499214816 747.277246141209 L 800.5380916708783 747.2574989120943 L 800.3040819684535 747.2366928082346 L 800.0705442149821 747.2148299102225 L 799.8375017640452 747.19191240433 L 799.6049779196935 747.1679425822883 L 799.3729959341176 747.1429228410599 L 799.141579005323 747.1168556825978 L 798.9107502748095 747.0897437135962 L 798.680532825258 747.0615896452297 L 798.4509496782214 747.0323962928812 L 798.2220237918231 747.0021665758619 L 797.9937780584611 746.9709035171182 L 797.7662353025185 746.9386102429302 L 797.5394182780811 746.9052899825979 L 797.3133496666627 746.87094606812 L 797.0880520749357 746.8355819338591 L 796.8635480324716 746.7992011161992 L 796.6398599894877 746.7618072531919 L 796.4170103146018 746.7234040841921 L 796.1950212925957 746.6839954494849 L 795.9739151221867 746.6435852899008 L 795.7537139138072 746.6021776464221 L 795.5344396873951 746.5597766597787 L 795.3161143701899 746.5163865700339 L 795.0987597945415 746.4720117161605 L 794.8823976957265 746.426656535607 L 794.6670497097741 746.3803255638535 L 794.4527373713039 746.3330234339586 L 794.2394821113708 746.284754876096 L 794.0273052553233 746.2355247170813 L 793.81622802067 746.1853378798891 L 793.6062715149586 746.1341993831614 L 793.3974567336647 746.0821143407054 L 793.1898045580924 746.0290879609819 L 792.9833357532863 745.9751255465846 L 792.7780709659546 745.92023249371 L 792.5740307224052 745.8644142916177 L 792.3712354264921 745.8076765220814 L 792.1697053575764 745.7500248588306 L 791.9694606684967 745.6914650669837 L 791.7705213835551 745.6320030024712 L 791.5729073965143 745.5716446114498 L 791.3766384686085 745.5103959297084 L 791.1817342265666 745.448263082064 L 790.9882141606507 745.3852522817499 L 790.7960976227059 745.3213698297934 L 790.6054038242262 745.2566221143865 L 790.4161518344322 745.1910156102467 L 790.2283605783653 745.1245568779699 L 790.0420488349946 745.0572525633738 L 789.8572352353392 744.9891093968339 L 789.6739382606052 744.92013419261 L 789.4921762403369 744.8503338481651 L 789.3119673505854 744.7797153434753 L 789.1333296120891 744.7082857403325 L 788.9562808884732 744.6360521816372 L 788.7808388844624 744.5630218906853 L 788.607021144111 744.489202170445 L 788.434845049048 744.4146004028266 L 788.2643278167396 744.339224047945 L 788.0954864987671 744.2630806433726 L 787.9283379791211 744.1861778033866 L 787.7628989725148 744.1085232182069 L 787.5991860227106 744.0301246532272 L 787.4372155008673 743.9509899482388 L 787.277003603902 743.871127016646 L 787.1185663528709 743.7905438446757 L 786.9619195913671 743.7092484905778 L 786.8070789839362 743.62724908382 L 786.6540600145099 743.5445538242745 L 786.5028779848576 743.4611709813987 L 786.3535480130563 743.377108893407 L 786.2060850319788 743.2923759664384 L 786.0605037878003 743.206980673715 L 785.9168188385238 743.1209315546946 L 785.7750445525246 743.0342372142178 L 785.6351951071132 742.9469063216461 L 785.4972844871174 742.8589476099961 L 785.3613264834844 742.7703698750657 L 785.2273346919013 742.6811819745545 L 785.0953225114356 742.5913928271784 L 784.9653031431952 742.5010114117771 L 784.8372895890087 742.4100467664168 L 784.7112946501248 742.3185079874866 L 784.5873309259325 742.2264042287876 L 784.4654108127008 742.1337447006192 L 784.3455465023394 742.040538668857 L 784.2277499811795 741.9467954540265 L 784.112033028775 741.8525244303711 L 783.9984072167248 741.7577350249145 L 783.8868839075154 741.6624367165182 L 783.7774742533848 741.5666390349338 L 783.6701891952071 741.4703515598496 L 783.5650394613988 741.3735839199328 L 783.4620355668458 741.2763457918667 L 783.3611878118514 741.1786468993831 L 783.2625062811073 741.08049701229 L 783.1660008426844 740.9819059454942 L 783.071681147046 740.8828835580201 L 782.979556626083 740.7834397520242 L 782.8896364921708 740.683584471804 L 782.8019297372479 740.5833277028044 L 782.7164451319165 740.4826794706187 L 782.6331912245663 740.3816498399863 L 782.5521763405183 740.2802489137861 L 782.4734085811934 740.178486832026 L 782.3968958233022 740.0763737708297 L 782.3226457180564 739.9739199414181 L 782.2506656904048 739.8711355890887 L 782.1809629382901 739.7680309921911 L 782.1135444319297 739.6646164610992 L 782.0484169131176 739.5609023371796 L 781.9855868945517 739.4568989917587 L 781.9250606591816 739.352616825084 L 781.86684425958 739.2480662652856 L 781.8109435173388 739.1432577673321 L 781.7573640224854 739.0382018119859 L 781.7061111329245 738.9329089047553 L 781.6571899739027 738.827389574843 L 781.6106054374949 738.7216543740942 L 781.566362182116 738.6157138759407 L 781.5244646320546 738.5095786743443 L 781.4849169770308 738.4032593827366 L 781.4477231717772 738.296766632958 L 781.4128869356433 738.1901110741949 L 781.3804117522236 738.0833033719143 L 781.3503008690096 737.9763542067974 L 781.3225572970643 737.8692742736715 L 781.297183810722 737.7620742804407 L 781.27418294731 737.6547649470151 L 781.2535570068956 737.5473570042386 L 781.2353080520554 737.4398611928159 L 781.21943790767 737.3322882622386 L 781.2059481607405 737.2246489697101 L 781.1948401602302 737.11695407907 L 781.1861150169302 737.0092143597175 L 781.1797736033473 736.9014405855348 L 781.1758165536177 736.7936435338096 L 781.1742442634429 736.6858339841572" stroke-miterlimit="10" stroke-width="2.7769845610000004" stroke-dasharray=""/></g><g><g/><text fill="black" stroke="none" font-family="monospace" font-size="11pt" font-style="normal" font-weight="normal" text-decoration="normal" x="769.8236100709703" y="685.0984264020001" text-anchor="start" dominant-baseline="alphabetic" xml:space="preserve">Database</text></g><g><path fill="white" stroke="gray" paint-order="fill stroke markers" d=" M 924.8165917973491 716.2006534852001 A 24.2577769005 24.2577769005 0 1 1 924.8165796684617 716.1763957123425 M 874.9125457158492 742.6800180345 L 926.2050840778492 742.6800180345" stroke-miterlimit="10" stroke-width="2.7769845610000004" stroke-dasharray=""/></g><g><g/><text fill="black" stroke="none" font-family="monospace" font-size="11pt" font-style="normal" font-weight="normal" text-decoration="normal" x="856.5588148968492" y="685.0984264020001" text-anchor="start" dominant-baseline="alphabetic" xml:space="preserve">TwitterAPI</text></g></g><g><path fill="white" stroke="black" paint-order="fill stroke markers" d=" M 183.72814569068194 229.848875972 L 200.06334899068193 229.848875972 L 200.06334899068193 612.8465656520001 L 183.72814569068194 612.8465656520001 L 183.72814569068194 229.848875972" stroke-miterlimit="10" stroke-width="1.3612669416666667" stroke-dasharray=""/><path fill="white" stroke="black" paint-order="fill stroke markers" d=" M 456.2123841674547 273.953924882 L 472.54758746745466 273.953924882 L 472.54758746745466 568.741516742 L 456.2123841674547 568.741516742 L 456.2123841674547 273.953924882" stroke-miterlimit="10" stroke-width="1.3612669416666667" stroke-dasharray=""/><path fill="white" stroke="black" paint-order="fill stroke markers" d=" M 796.8560091839097 318.058973792 L 813.1912124839098 318.058973792 L 813.1912124839098 362.164022702 L 796.8560091839097 362.164022702 L 796.8560091839097 318.058973792" stroke-miterlimit="10" stroke-width="1.3612669416666667" stroke-dasharray=""/><path fill="white" stroke="black" paint-order="fill stroke markers" d=" M 665.7081357043036 406.269071612 L 682.0433390043037 406.269071612 L 682.0433390043037 509.557818632 L 665.7081357043036 509.557818632 L 665.7081357043036 406.269071612" stroke-miterlimit="10" stroke-width="1.3612669416666667" stroke-dasharray=""/><g><text fill="black" stroke="none" font-family="monospace" font-size="11pt" font-style="normal" font-weight="normal" text-decoration="normal" x="47.54787309813639" y="208.738767092" text-anchor="start" dominant-baseline="alphabetic" xml:space="preserve">Input Twitter</text><text fill="black" stroke="none" font-family="monospace" font-size="11pt" font-style="normal" font-weight="normal" text-decoration="normal" x="47.54787309813639" y="223.817416292" text-anchor="start" dominant-baseline="alphabetic" xml:space="preserve">account URL</text></g><g><path fill="none" stroke="black" paint-order="fill stroke markers" d=" M 25.76760203146973 229.848875972 L 170.27882830701526 229.848875972" stroke-miterlimit="10" stroke-width="1.3612669416666667" stroke-dasharray=""/><g transform="translate(183.72814569068194,229.848875972) translate(-183.72814569068194,-229.848875972)"><path fill="black" stroke="none" paint-order="stroke fill markers" d=" M 170.11547627401526 223.04254126366666 L 183.72814569068194 229.848875972 L 170.11547627401526 236.65521068033334 Z"/></g></g><g><text fill="black" stroke="none" font-family="monospace" font-size="11pt" font-style="normal" font-weight="normal" text-decoration="normal" x="240.13786657906826" y="267.922465202" text-anchor="start" dominant-baseline="alphabetic" xml:space="preserve">Request check result</text></g><g><path fill="none" stroke="black" paint-order="fill stroke markers" d=" M 200.06334899068193 273.953924882 L 442.763066783788 273.953924882" stroke-miterlimit="10" stroke-width="1.3612669416666667" stroke-dasharray=""/><g transform="translate(456.2123841674547,273.953924882) translate(-456.2123841674547,-273.953924882)"><path fill="black" stroke="none" paint-order="stroke fill markers" d=" M 442.599714750788 267.1475901736667 L 456.2123841674547 273.953924882 L 442.599714750788 280.76025959033336 Z"/></g></g><g><text fill="black" stroke="none" font-family="monospace" font-size="11pt" font-style="normal" font-weight="normal" text-decoration="normal" x="564.3017967998032" y="312.02751411200006" text-anchor="start" dominant-baseline="alphabetic" xml:space="preserve">Get check result</text></g><g><path fill="none" stroke="black" paint-order="fill stroke markers" d=" M 472.54758746745466 318.058973792 L 783.406691800243 318.058973792" stroke-miterlimit="10" stroke-width="1.3612669416666667" stroke-dasharray=""/><g transform="translate(796.8560091839097,318.058973792) translate(-796.8560091839097,-318.058973792)"><path fill="black" stroke="none" paint-order="stroke fill markers" d=" M 783.243339767243 311.2526390836667 L 796.8560091839097 318.058973792 L 783.243339767243 324.86530850033336 Z"/></g></g><g><text fill="black" stroke="none" font-family="monospace" font-size="11pt" font-style="normal" font-weight="normal" text-decoration="normal" x="581.9017990886216" y="356.132563022" text-anchor="start" dominant-baseline="alphabetic" xml:space="preserve">Check result</text></g><g><path fill="none" stroke="black" paint-order="fill stroke markers" d=" M 796.8560091839097 362.164022702 L 485.9969048511213 362.164022702" stroke-miterlimit="10" stroke-width="1.3612669416666667" stroke-dasharray="6.53408132"/><g transform="translate(472.54758746745466,362.164022702) translate(-472.54758746745466,-362.164022702)"><path fill="black" stroke="none" paint-order="stroke fill markers" d=" M 486.16025688412134 355.3576879936667 L 472.54758746745466 362.164022702 L 486.16025688412134 368.97035741033335 Z"/></g></g><g><text fill="black" stroke="none" font-family="monospace" font-size="11pt" font-style="normal" font-weight="normal" text-decoration="normal" x="494.32785853412133" y="400.23761193200005" text-anchor="start" dominant-baseline="alphabetic" xml:space="preserve">Get recent tweets</text></g><g><path fill="none" stroke="black" paint-order="fill stroke markers" d=" M 472.54758746745466 406.269071612 L 652.2588183206369 406.269071612" stroke-miterlimit="10" stroke-width="1.3612669416666667" stroke-dasharray=""/><g transform="translate(665.7081357043036,406.269071612) translate(-665.7081357043036,-406.269071612)"><path fill="black" stroke="none" paint-order="stroke fill markers" d=" M 652.0954662876369 399.46273690366667 L 665.7081357043036 406.269071612 L 652.0954662876369 413.07540632033334 Z"/></g></g><g><text fill="black" stroke="none" font-family="monospace" font-size="11pt" font-style="normal" font-weight="normal" text-decoration="normal" x="729.7010784764553" y="444.3426608420001" text-anchor="start" dominant-baseline="alphabetic" xml:space="preserve">getUsersTweets</text><text fill="black" stroke="none" font-family="monospace" font-size="11pt" font-style="normal" font-weight="normal" text-decoration="normal" x="729.7010784764553" y="459.4213100420001" text-anchor="start" dominant-baseline="alphabetic" xml:space="preserve">(userId,limit)</text></g><g><path fill="none" stroke="black" paint-order="fill stroke markers" d=" M 682.0433390043037 465.452769722 L 887.1094975131825 465.452769722" stroke-miterlimit="10" stroke-width="1.3612669416666667" stroke-dasharray=""/><g transform="translate(900.5588148968492,465.452769722) translate(-900.5588148968492,-465.452769722)"><path fill="black" stroke="none" paint-order="stroke fill markers" d=" M 886.9461454801825 458.6464350136667 L 900.5588148968492 465.452769722 L 886.9461454801825 472.25910443033337 Z"/></g></g><g><text fill="black" stroke="none" font-family="monospace" font-size="11pt" font-style="normal" font-weight="normal" text-decoration="normal" x="511.9278608229397" y="503.526358952" text-anchor="start" dominant-baseline="alphabetic" xml:space="preserve">Recent tweets</text></g><g><path fill="none" stroke="black" paint-order="fill stroke markers" d=" M 665.7081357043036 509.557818632 L 485.9969048511213 509.557818632" stroke-miterlimit="10" stroke-width="1.3612669416666667" stroke-dasharray="6.53408132"/><g transform="translate(472.54758746745466,509.557818632) translate(-472.54758746745466,-509.557818632)"><path fill="black" stroke="none" paint-order="stroke fill markers" d=" M 486.16025688412134 502.7514839236667 L 472.54758746745466 509.557818632 L 486.16025688412134 516.3641533403334 Z"/></g></g><g><text fill="black" stroke="none" font-family="monospace" font-size="11pt" font-style="normal" font-weight="normal" text-decoration="normal" x="266.53786810494717" y="547.6314078620001" text-anchor="start" dominant-baseline="alphabetic" xml:space="preserve">Profile detail</text><text fill="black" stroke="none" font-family="monospace" font-size="11pt" font-style="normal" font-weight="normal" text-decoration="normal" x="266.53786810494717" y="562.710057062" text-anchor="start" dominant-baseline="alphabetic" xml:space="preserve">and result</text></g><g><path fill="none" stroke="black" paint-order="fill stroke markers" d=" M 456.2123841674547 568.741516742 L 213.5126663743486 568.741516742" stroke-miterlimit="10" stroke-width="1.3612669416666667" stroke-dasharray="6.53408132"/><g transform="translate(200.06334899068193,568.741516742) translate(-200.06334899068193,-568.741516742)"><path fill="black" stroke="none" paint-order="stroke fill markers" d=" M 213.6760184073486 561.9351820336667 L 200.06334899068193 568.741516742 L 213.6760184073486 575.5478514503334 Z"/></g></g><g><text fill="black" stroke="none" font-family="monospace" font-size="11pt" font-style="normal" font-weight="normal" text-decoration="normal" x="56.34787233519694" y="606.8151059720001" text-anchor="start" dominant-baseline="alphabetic" xml:space="preserve">Show result</text></g><g><path fill="none" stroke="black" paint-order="fill stroke markers" d=" M 183.72814569068194 612.8465656520001 L 39.216919415136395 612.8465656520001" stroke-miterlimit="10" stroke-width="1.3612669416666667" stroke-dasharray="6.53408132"/><g transform="translate(25.76760203146973,612.8465656520001) translate(-25.76760203146973,-612.8465656520001)"><path fill="black" stroke="none" paint-order="stroke fill markers" d=" M 39.3802714481364 606.0402309436668 L 25.76760203146973 612.8465656520001 L 39.3802714481364 619.6529003603334 Z"/></g></g></g><g/><g/><g/><g/><g/><g/></g></svg>