<svg version="1.1" xmlns="http://www.w3.org/2000/svg" xmlns:xlink="http://www.w3.org/1999/xlink" width="971" height="753"><desc>%23%20-----%20font%20-----%0Afontfamily%20monospace%0A%0A%23%20-----%20setup%20components%20-----%0Atitle%20User%20get%20Twitter%20account%20details%20and%20tweets%0Aactor%20%23blue%3A0.5%20User%0A%0Aparticipant%20%23orange%20Frontend%0Aparticipantgroup%20%23e4fcd9%20Backend%20API%0Aboundary%20%23green%3A0.7%20Endpoint%0Acontrol%20%23red%3A0.7%20Scraper%0Aend%0A%0Adatabase%20Database%20%23pink%0Aentity%20%23gray%20TwitterAPI%0A%0A%23%20-----%20to%20show%20bottom%20icons%20-----%0Abottomparticipants%0A%0A%23%20-----%20START%20OF%20SEQUENCE%20-----%0AUser-%3EFrontend%3A%20Input%20Twitter%5Cnaccount%20URL%0Aactivate%20Frontend%0AFrontend-%3EEndpoint%3A%20Request%20check%20result%0Aactivate%20Endpoint%0AEndpoint-%3EDatabase%3A%20Get%20check%20result%0Aactivate%20Database%0AEndpoint%3C--Database%3A%20Return%20result%0Adeactivate%20Database%0AEndpoint-%3EScraper%3A%20Get%20recent%20tweets%0Aactivate%20Scraper%0AScraper-%3ETwitterAPI%3A%20Get%20recent%20tweets%0AEndpoint%3C--Scraper%3A%20Return%20tweets%0Adeactivate%20Scraper%0AEndpoint--%3EFrontend%3A%20Return%20profile%20detail%5Cnand%20result%0Adeactivate%20Endpoint%0AFrontend--%3EUser%3A%20Show%20result%0Adeactivate%20Frontend%0A%23%20-----%20END%20OF%20SEQUENCE%20-----</desc><defs/><g><g/><g/><g/><g/><g/><g/><g/><g/><g/><g/><g/><g/><g><rect fill="white" stroke="none" x="0" y="0" width="971" height="753"/></g><g><text fill="black" stroke="none" font-family="monospace" font-size="16.5pt" font-style="normal" font-weight="normal" text-decoration="normal" x="201.88575855995617" y="22.617973800000005" text-anchor="start" dominant-baseline="alphabetic" xml:space="preserve">User get Twitter account details and tweets</text></g><g><g><path fill="#e4fcd9" stroke="black" paint-order="fill stroke markers" d=" M 429.81238645627303 48.50927103050001 L 721.643341293122 48.50927103050001 L 721.643341293122 745.161712382 L 429.81238645627303 745.161712382 L 429.81238645627303 48.50927103050001" stroke-miterlimit="10" stroke-width="1.3612669416666667" stroke-dasharray=""/></g><g><text fill="black" stroke="none" font-family="monospace" font-size="11pt" font-style="normal" font-weight="normal" text-decoration="normal" x="527.3278623488186" y="70.24765696050001" text-anchor="start" dominant-baseline="alphabetic" xml:space="preserve">Backend API</text></g></g><g><path fill="none" stroke="black" paint-order="fill stroke markers" d=" M 25.76760203146973 162.497576212 L 25.76760203146973 654.941128002" stroke-miterlimit="10" stroke-width="1.3612669416666667" stroke-dasharray="12.565541,5.445067766666667"/><path fill="none" stroke="black" paint-order="fill stroke markers" d=" M 191.89574734068194 162.497576212 L 191.89574734068194 654.941128002" stroke-miterlimit="10" stroke-width="1.3612669416666667" stroke-dasharray="12.565541,5.445067766666667"/><path fill="none" stroke="black" paint-order="fill stroke markers" d=" M 473.1799888692125 162.497576212 L 473.1799888692125 654.941128002" stroke-miterlimit="10" stroke-width="1.3612669416666667" stroke-dasharray="12.565541,5.445067766666667"/><path fill="none" stroke="black" paint-order="fill stroke markers" d=" M 682.6757404060614 162.497576212 L 682.6757404060614 654.941128002" stroke-miterlimit="10" stroke-width="1.3612669416666667" stroke-dasharray="12.565541,5.445067766666667"/><path fill="none" stroke="black" paint-order="fill stroke markers" d=" M 814.4560152874253 162.497576212 L 814.4560152874253 654.941128002" stroke-miterlimit="10" stroke-width="1.3612669416666667" stroke-dasharray="12.565541,5.445067766666667"/><path fill="none" stroke="black" paint-order="fill stroke markers" d=" M 919.2038910558498 162.497576212 L 919.2038910558498 654.941128002" stroke-miterlimit="10" stroke-width="1.3612669416666667" stroke-dasharray="12.565541,5.445067766666667"/></g><g><g><path fill="white" stroke="blue" paint-order="fill stroke markers" d=" M 35.078667912469726 94.65622035300002 A 9.311065881 9.311065881 0 1 1 35.078663256937176 94.64690928867086 M 25.76760203146973 103.96728623400001 L 25.76760203146973 123.89623426000001 M 14.00625565546973 111.15477568600002 L 37.52894840746973 111.15477568600002 M 25.76760203146973 123.89623426000001 L 14.00625565546973 142.518366022 M 25.76760203146973 123.89623426000001 L 37.52894840746973 142.518366022" stroke-miterlimit="10" stroke-width="1.3884922805000002" stroke-dasharray=""/></g><g><g/><text fill="black" stroke="none" font-family="monospace" font-size="11pt" font-style="normal" font-weight="normal" text-decoration="normal" x="8.167601650000002" y="157.597015222" text-anchor="start" dominant-baseline="alphabetic" xml:space="preserve">User</text></g><path fill="none" stroke="none"/><g><path fill="white" stroke="orange" paint-order="fill stroke markers" d=" M 138.9720509972425 119.64908140200002 L 244.8194436841214 119.64908140200002 L 244.8194436841214 162.497576212 L 138.9720509972425 162.497576212 L 138.9720509972425 119.64908140200002 Z" stroke-miterlimit="10" stroke-width="2.613632528" stroke-dasharray=""/></g><g><g/><text fill="black" stroke="none" font-family="monospace" font-size="11pt" font-style="normal" font-weight="normal" text-decoration="normal" x="156.69574657774248" y="146.16237291200002" text-anchor="start" dominant-baseline="alphabetic" xml:space="preserve">Frontend</text></g><g><path fill="white" stroke="green" paint-order="fill stroke markers" d=" M 505.6053674197125 116.872096841 A 24.2577769005 24.2577769005 0 1 1 505.60535529082506 116.84783906814245 M 441.7265549150625 91.64237534415 L 441.7265549150625 142.10181833785 M 440.7546103187125 116.872096841 L 457.08981361871247 116.872096841" stroke-miterlimit="10" stroke-width="1.9438891927000002" stroke-dasharray=""/></g><g><g/><text fill="black" stroke="none" font-family="monospace" font-size="11pt" font-style="normal" font-weight="normal" text-decoration="normal" x="437.979988106273" y="157.597015222" text-anchor="start" dominant-baseline="alphabetic" xml:space="preserve">Endpoint</text></g><g><path fill="white" stroke="red" paint-order="fill stroke markers" d=" M 706.9335173065614 116.872096841 A 24.2577769005 24.2577769005 0 1 1 706.933505177674 116.84783906814245 M 679.4086997460614 92.6143199405 L 689.2098217260614 84.4467182905 M 679.4086997460614 92.6143199405 L 689.2098217260614 100.78192159049999" stroke-miterlimit="10" stroke-width="1.9438891927000002" stroke-dasharray=""/></g><g><g/><text fill="black" stroke="none" font-family="monospace" font-size="11pt" font-style="normal" font-weight="normal" text-decoration="normal" x="651.8757411690009" y="157.597015222" text-anchor="start" dominant-baseline="alphabetic" xml:space="preserve">Scraper</text></g><g><path fill="pink" stroke="black" paint-order="fill stroke markers" d=" M 790.6066184694254 131.737131844 L 790.6066184694254 97.43320491400002 L 838.3054121054253 97.43320491400002 L 838.3054121054253 131.737131844" stroke-miterlimit="10" stroke-width="2.7769845610000004" stroke-dasharray=""/><path fill="pink" stroke="black" paint-order="fill stroke markers" d=" M 838.3054121054253 96.24073507310001 L 838.3042196455216 96.34854561801663 L 838.3006423850555 96.4563453819686 L 838.2946806817503 96.56412358506937 L 838.2863351317709 96.67186944958841 L 838.2756065696657 96.7795722010291 L 838.2624960682818 96.88722106920602 L 838.2470049386586 96.99480528932206 L 838.229134729896 97.10231410304486 L 838.208887229 97.20973675958267 L 838.1862644607038 97.31706251675931 L 838.1612686872654 97.42428064208853 L 838.1339024082414 97.53138041384713 L 838.1041683602368 97.6383511221472 L 838.0720695166317 97.74518207000703 L 838.0376090872836 97.85186257442088 L 838.0007905182068 97.95838196742719 L 837.9616174912275 98.06472959717544 L 837.9200939236157 98.17089482899127 L 837.8762239676937 98.27686704643997 L 837.8300120104203 98.38263565238812 L 837.781462672953 98.48819007006324 L 837.730580810185 98.59351974411153 L 837.6773715102601 98.69861414165338 L 837.6218400940638 98.8034627533366 L 837.5639921146918 98.9080550943874 L 837.5038333568937 99.01238070565881 L 837.441369836495 99.11642915467668 L 837.3766077997958 99.2201900366828 L 837.3095537229458 99.32365297567542 L 837.2402143112969 99.42680762544687 L 837.1685964987322 99.52964367061814 L 837.0947074469735 99.63215082767042 L 837.0185545448645 99.73431884597339 L 836.9401454076317 99.8361375088104 L 836.8594878761236 99.9375966344 L 836.7765900160261 100.03868607691416 L 836.6914601170563 100.1393957274929 L 836.6041066921329 100.23971551525507 L 836.5145384765257 100.3396354083055 L 836.4227644269816 100.43914541473814 L 836.3287937208293 100.53823558363528 L 836.2326357550606 100.63689600606261 L 836.1343001453926 100.73511681606011 L 836.0337967253038 100.83288819162861 L 835.9311355450526 100.93020035571203 L 835.8263268706716 101.02704357717508 L 835.7193811829407 101.12340817177629 L 835.6103091763397 101.2192845031365 L 835.4991217579784 101.3146629837025 L 835.3858300465058 101.40953407570571 L 835.2704453709989 101.50388829211596 L 835.1529792698288 101.59771619759026 L 835.0334434895079 101.69100840941624 L 834.9118499835147 101.78375559845048 L 834.7882109110983 101.87594849005134 L 834.6625386360629 101.96757786500652 L 834.5348457255315 102.05863456045485 L 834.4051449486884 102.14910947080267 L 834.2734492755035 102.23899354863435 L 834.1397718754342 102.32827780561702 L 834.0041261161093 102.41695331339938 L 833.8665255619915 102.50501120450453 L 833.7269839730216 102.59244267321675 L 833.5855153032422 102.67923897646203 L 833.4421336994025 102.76539143468239 L 833.2968534995433 102.85089143270376 L 833.1496892315635 102.93573042059764 L 833.0006556117673 103.0198999145359 L 832.8497675433924 103.10339149763931 L 832.6970401151201 103.18619682081912 L 832.5424885995658 103.26830760361203 L 832.3861284517524 103.34971563500818 L 832.2279753075641 103.43041277427227 L 832.0680449821838 103.51039095175761 L 831.9063534685106 103.58964216971313 L 831.7429169355613 103.66815850308305 L 831.5777517268527 103.74593210029946 L 831.4108743587684 103.82295518406747 L 831.242301518906 103.89922005214288 L 831.0720500644088 103.97471907810242 L 830.9001370202807 104.04944471210644 L 830.7265795776826 104.12338948165379 L 830.5513950922143 104.19654599232915 L 830.3746010821783 104.26890692854239 L 830.1962152268283 104.34046505426022 L 830.016255364601 104.4112132137297 L 829.8347394913329 104.4811443321938 L 829.65168575846 104.55025141659898 L 829.467112471203 104.6185275562944 L 829.2810380867368 104.68596592372296 L 829.0934812123448 104.75255977510412 L 828.9044606035582 104.81830245110825 L 828.7139951622803 104.88318737752253 L 828.5221039348964 104.94720806590838 L 828.3288061103697 105.01035811425034 L 828.1341210183211 105.07263120759616 L 827.938068127098 105.13402111868842 L 827.7406670418258 105.19452170858717 L 827.5419375024487 105.25412692728385 L 827.341899381755 105.31283081430622 L 827.14057268339 105.37062749931455 L 826.937977539856 105.42751120268846 L 826.7341342104982 105.48347623610503 L 826.5290630794799 105.53851700310757 L 826.3227846537432 105.59262799966524 L 826.1153195609588 105.64580381472345 L 825.9066885474631 105.69803913074504 L 825.6969124761837 105.74932872424193 L 825.4860123245527 105.7996674662975 L 825.2740091824096 105.84905032307951 L 825.060924249892 105.89747235634343 L 824.8467788353156 105.94492872392627 L 824.6315943530433 105.99141468023082 L 824.415392321344 106.03692557670021 L 824.1981943602409 106.08145686228269 L 823.9800221893489 106.12500408388684 L 823.7608976257034 106.16756288682677 L 823.540842581578 106.20912901525766 L 823.3198790622939 106.2496983126013 L 823.098029164019 106.28926672196175 L 822.8753150715579 106.32783028653108 L 822.6517590561344 106.36538514998495 L 822.427383473164 106.4019275568683 L 822.2022107600177 106.43745385297092 L 821.9762634337793 106.47196048569278 L 821.7495640889931 106.50544400439938 L 821.5221353954047 106.53790106076674 L 821.2940000956938 106.56932840911628 L 821.0651810032006 106.59972290673934 L 820.8357009996432 106.62908151421152 L 820.6055830328312 106.6574012956965 L 820.3748501143691 106.68467941923974 L 820.1435253173568 106.71091315705164 L 819.9116317740809 106.73609988578026 L 819.6791926737028 106.76023708677371 L 819.4462312599387 106.78332234633203 L 819.2127708287358 106.80535335594848 L 818.9788347259428 106.82632791254046 L 818.7444463449748 106.8462439186698 L 818.5096291244748 106.86509938275248 L 818.2744065459692 106.88289241925779 L 818.0388021315196 106.89962124889692 L 817.8028394413712 106.91528419880086 L 817.5665420715966 106.92987970268764 L 817.3299336517356 106.94340630101907 L 817.093037842433 106.95586264114657 L 816.8558783330725 106.96724747744649 L 816.6184788394073 106.97755967144472 L 816.3808631011889 106.98679819193043 L 816.1430548797932 106.9949621150593 L 815.9050779558441 107.00205062444579 L 815.6669561268358 107.00806301124487 L 815.4287132047526 107.01299867422289 L 815.1903730136883 107.01685711981764 L 814.9519593874633 107.0196379621878 L 814.7134961672415 107.02134092325144 L 814.4750071991464 107.02196583271387 L 814.2365163318758 107.02151262808466 L 813.998047414318 107.01998135468392 L 813.7596242931658 107.0173721656377 L 813.5212708105328 107.01368532186271 L 813.2830108015684 107.00892119204028 L 813.0448680920751 107.00308025257941 L 812.8068664961255 106.99616308756919 L 812.5690298136807 106.98817038872035 L 812.3313818282107 106.9791029552961 L 812.0939463043162 106.96896169403226 L 811.8567469853515 106.95774761904647 L 811.6198075910511 106.94546185173691 L 811.3831518151568 106.93210562067006 L 811.146803323049 106.91768026145789 L 810.9107857493799 106.90218721662433 L 810.6751226957103 106.88562803546091 L 810.4398377281492 106.86800437387197 L 810.2049543749972 106.84931799420899 L 809.9704961243939 106.82957076509436 L 809.7364864219691 106.80876466123452 L 809.5029486684977 106.78690176322253 L 809.2699062175608 106.76398425732997 L 809.0373823732091 106.74001443528833 L 808.8054003876332 106.71499469405985 L 808.5739834588386 106.6889275355978 L 808.3431547283251 106.66181556659627 L 808.1129372787735 106.63366149822963 L 807.883354131737 106.6044681458812 L 807.6544282453386 106.57423842886192 L 807.4261825119767 106.54297537011827 L 807.198639756034 106.5106820959301 L 806.9718227315967 106.4773618355979 L 806.7457541201783 106.44301792111996 L 806.5204565284513 106.40765378685909 L 806.2959524859872 106.37127296919923 L 806.0722644430033 106.33387910619186 L 805.8494147681174 106.29547593719211 L 805.6274257461113 106.25606730248487 L 805.4063195757022 106.21565714290077 L 805.1861183673228 106.17424949942209 L 804.9668441409107 106.13184851277869 L 804.7485188237055 106.08845842303388 L 804.531164248057 106.0440835691605 L 804.314802149242 105.99872838860693 L 804.0994541632897 105.95239741685346 L 803.8851418248195 105.90509528695863 L 803.6718865648863 105.85682672909601 L 803.4597097088389 105.80759657008119 L 803.2486324741856 105.75740973288903 L 803.0386759684742 105.70627123616141 L 802.8298611871803 105.65418619370543 L 802.622209011608 105.6011598139819 L 802.4157402068018 105.54719739958459 L 802.2104754194702 105.49230434671 L 802.0064351759207 105.43648614461767 L 801.8036398800077 105.37974837508128 L 801.602109811092 105.32209671183051 L 801.4018651220123 105.26353691998366 L 801.2029258370707 105.20407485547109 L 801.0053118500299 105.14371646444971 L 800.809042922124 105.0824677827083 L 800.6141386800822 105.02033493506404 L 800.4206186141663 104.95732413474988 L 800.2285020762215 104.89344168279337 L 800.0378082777418 104.82869396738644 L 799.8485562879478 104.76308746324669 L 799.6607650318808 104.69662873096988 L 799.4744532885102 104.62932441637382 L 799.2896396888548 104.56118124983391 L 799.1063427141207 104.49220604561 L 798.9245806938525 104.42240570116505 L 798.744371804101 104.35178719647531 L 798.5657340656047 104.28035759333244 L 798.3886853419888 104.20812403463721 L 798.2132433379779 104.13509374368529 L 798.0394255976265 104.06127402344492 L 797.8672495025636 103.98667225582662 L 797.6967322702552 103.91129590094496 L 797.5278909522826 103.83515249637263 L 797.3607424326367 103.75824965638664 L 797.1953034260304 103.6805950712069 L 797.0315904762261 103.6021965062272 L 796.8696199543829 103.52306180123873 L 796.7094080574176 103.44319886964601 L 796.5509708063864 103.3626156976757 L 796.3943240448826 103.28132034357779 L 796.2394834374518 103.19932093681997 L 796.0864644680255 103.11662567727458 L 795.9352824383732 103.03324283439866 L 795.7859524665719 102.94918074640702 L 795.6384894854943 102.86444781943841 L 795.4929082413158 102.7790525267149 L 795.3492232920394 102.6930034076946 L 795.2074490060402 102.60630906721774 L 795.0675995606288 102.51897817464607 L 794.929688940633 102.4310194629961 L 794.793730937 102.34244172806571 L 794.6597391454169 102.25325382755454 L 794.5277269649512 102.16346468017835 L 794.3977075967108 102.07308326477704 L 794.2696940425243 101.98211861941685 L 794.1436991036404 101.89057984048648 L 794.0197353794481 101.79847608178757 L 793.8978152662164 101.70581655361923 L 793.777950955855 101.61261052185705 L 793.6601544346951 101.51886730702655 L 793.5444374822906 101.42459628337107 L 793.4308116702404 101.32980687791445 L 793.319288361031 101.23450856951823 L 793.2098787069003 101.13871088793383 L 793.1025936487226 101.04242341284956 L 792.9974439149144 100.94565577293272 L 792.8944400203613 100.84841764486666 L 792.793592265367 100.75071875238314 L 792.6949107346229 100.65256886529 L 792.5984052962 100.55397779849415 L 792.5040856005616 100.45495541102012 L 792.4119610795985 100.35551160502415 L 792.3220409456864 100.25565632480394 L 792.2343341907634 100.15539955580432 L 792.1488495854321 100.05475132361865 L 792.0655956780819 99.95372169298625 L 791.9845807940338 99.85232076678601 L 791.905813034709 99.75055868502605 L 791.8293002768178 99.64844562382973 L 791.755050171572 99.5459917944181 L 791.6830701439204 99.4432074420887 L 791.6133673918057 99.34010284519113 L 791.5459488854452 99.23668831409914 L 791.4808213666332 99.13297419017968 L 791.4179913480673 99.02897084475869 L 791.3574651126971 98.92468867808407 L 791.2992487130956 98.82013811828556 L 791.2433479708544 98.71532962033203 L 791.189768476001 98.61027366498594 L 791.1385155864401 98.50498075775526 L 791.0895944274183 98.39946142784298 L 791.0430098910105 98.29372622709415 L 790.9987666356316 98.18778572894077 L 790.9568690855701 98.08165052734432 L 790.9173214305464 97.97533123573653 L 790.8801276252927 97.868838485958 L 790.8452913891589 97.7621829271949 L 790.8128162057392 97.65537522491428 L 790.7827053225252 97.54842605979732 L 790.7549617505799 97.44134612667145 L 790.7295882642376 97.33414613344073 L 790.7065874008256 97.22683680001514 L 790.6859614604111 97.1194288572386 L 790.667712505571 97.0119330458159 L 790.6518423611856 96.90436011523857 L 790.6383526142561 96.79672082271007 L 790.6272446137458 96.68902593206992 L 790.6185194704458 96.58128621271746 L 790.6121780568628 96.47351243853481 L 790.6082210071332 96.36571538680961 L 790.6066487169585 96.25790583715718 L 790.6074613435665 96.15009457044266 L 790.610658805695 96.04229236770287 L 790.6162407836007 95.93451000906825 L 790.6242067190904 95.82675827268484 L 790.6345558155771 95.7190479336365 L 790.6472870381599 95.61138976286738 L 790.662399113727 95.50379452610481 L 790.6798905310836 95.39627298278283 L 790.6997595411024 95.28883588496618 L 790.7220041568991 95.18149397627508 L 790.7466221540305 95.07425799081098 L 790.7736110707175 94.96713865208302 L 790.8029682080909 94.86014667193587 L 790.8346906304614 94.75329274947832 L 790.8687751656133 94.64658757001362 L 790.9052184051213 94.54004180397077 L 790.9440167046921 94.43366610583759 L 790.9851661845278 94.32747111309526 L 791.0286627297148 94.22146744515454 L 791.0745019906349 94.1156657022939 L 791.1226793834 94.01007646459945 L 791.1731900903113 93.90471029090699 L 791.2260290603399 93.79957771774606 L 791.2811910096331 93.69468925828637 L 791.3386704220417 93.59005540128646 L 791.3984615496724 93.48568661004485 L 791.4605584134623 93.38159332135368 L 791.5249548037768 93.27778594445506 L 791.5916442810307 93.1742748600002 L 791.6606201763315 93.07107041901128 L 791.7318755921473 92.96818294184638 L 791.8054034029959 92.86562271716748 L 791.8811962561575 92.7634000009116 L 791.9592465724099 92.66152501526518 L 792.0395465467867 92.56000794764186 L 792.1220881493571 92.45885894966383 L 792.2068631260298 92.35808813614659 L 792.2938629993778 92.25770558408753 L 792.3830790694861 92.15772133165818 L 792.4745024148223 92.05814537720047 L 792.5681238931278 91.95898767822688 L 792.6639341423328 91.86025815042466 L 792.7619235814924 91.76196666666432 L 792.8620824117443 91.66412305601233 L 792.9644006172888 91.56673710274822 L 793.0688679663906 91.46981854538616 L 793.1754740124021 91.37337707570111 L 793.2842080948074 91.2774223377597 L 793.3950593402886 91.18196392695573 L 793.508016663814 91.08701138905076 L 793.6230687697451 90.99257421921942 L 793.7402041529673 90.89866186110004 L 793.8594111000397 90.80528370585013 L 793.9806776903671 90.71244909120742 L 794.1039917973915 90.620167300556 L 794.229341089805 90.52844756199806 L 794.3567130327826 90.437299047431 L 794.4860948892365 90.34673087163033 L 794.6174737210886 90.25675209133814 L 794.7508363905652 90.1673717043575 L 794.8861695615105 90.07859864865262 L 795.0234597007204 89.99044180145509 L 795.1626930792952 89.90290997837616 L 795.3038557740131 89.81601193252519 L 795.4469336687222 89.72975635363437 L 795.5919124557523 89.64415186718969 L 795.7387776373456 89.55920703356847 L 795.8875145271063 89.47493034718329 L 796.0381082514692 89.39133023563254 L 796.1905437511876 89.30841505885772 L 796.3448057828384 89.22619310830741 L 796.5008789203471 89.14467260610814 L 796.6587475565299 89.06386170424221 L 796.8183959046548 88.98376848373246 L 796.97980800002 88.9044009538342 L 797.1429677015504 88.82576705123427 L 797.307858693412 88.7478746392574 L 797.4744644866429 88.67073150707989 L 797.6427684208027 88.59434536895068 L 797.812753665638 88.5187238634199 L 797.9844032227662 88.4438745525751 L 798.1576999273747 88.369804921285 L 798.3326264499372 88.29652237645098 L 798.5091652979473 88.22403424626648 L 798.6872988176674 88.1523477794841 L 798.867009195894 88.08147014469078 L 799.0482784617388 88.01140842959094 L 799.2310884884265 87.94216964029769 L 799.4154209951067 87.87376070063229 L 799.6012575486825 87.80618845143167 L 799.7885795656531 87.73945964986444 L 799.977368313973 87.67358096875519 L 800.1676049149248 87.60855899591708 L 800.359270345007 87.54440023349323 L 800.552345437836 87.48111109730644 L 800.7468108860637 87.41869791621755 L 800.9426472433073 87.35716693149269 L 801.1398349260941 87.29652429617903 L 801.3383542158203 87.23677607448957 L 801.5381852607223 87.17792824119671 L 801.7393080778621 87.11998668103473 L 801.9417025551257 87.06295718811135 L 802.1453484532341 87.00684546532835 L 802.3502254077669 86.95165712381124 L 802.5563129311995 86.89739768234818 L 802.7635904149514 86.84407256683812 L 802.9720371314469 86.79168710974815 L 803.1816322361881 86.74024654958035 L 803.392354769839 86.68975603034785 L 803.6041836603221 86.64022060106049 L 803.8170977249247 86.59164521521994 L 804.0310756724178 86.5440347303243 L 804.2460961051851 86.49739390738237 L 804.4621375213623 86.4517274104376 L 804.6791783169878 86.40703980610161 L 804.8971967881631 86.3633355630976 L 805.1161711332227 86.32061905181345 L 805.3360794549144 86.27889454386471 L 805.5568997625896 86.23816621166738 L 805.7786099744013 86.19843812802074 L 806.0011879195132 86.15971426570005 L 806.2246113403162 86.12199849705928 L 806.4488578946543 86.08529459364387 L 806.6739051580593 86.04960622581356 L 806.899730625992 86.0149369623754 L 807.126311716094 85.98129027022685 L 807.3536257704452 85.94866951400907 L 807.5816500578293 85.91707795577051 L 807.8103617760078 85.88651875464066 L 808.0397380539994 85.85699496651418 L 808.2697559543675 85.82850954374526 L 808.5003924755136 85.80106533485245 L 808.731624553978 85.77466508423377 L 808.9634290667453 85.7493114318923 L 809.1957828335577 85.7250069131721 L 809.4286626192319 85.70175395850482 L 809.6620451359835 85.67955489316655 L 809.8959070457553 85.65841193704532 L 810.1302249625511 85.63832720441913 L 810.3649754547746 85.61930270374448 L 810.6001350475722 85.60134033745561 L 810.8356802251806 85.58444190177417 L 811.0715874332782 85.56860908652965 L 811.307833081341 85.55384347499039 L 811.5443935450007 85.5401465437052 L 811.7812451684085 85.52751966235584 L 812.0183642665992 85.51596409361991 L 812.2557271278606 85.50548099304464 L 812.4933100161044 85.49607140893136 L 812.7310891732396 85.48773628223064 L 812.969040821549 85.48047644644821 L 813.2071411660658 85.4742926275616 L 813.4453663969539 85.46918544394751 L 813.683692691889 85.4651554063201 L 813.92209621844 85.46220291767973 L 814.1605531364528 85.46032827327284 L 814.3990396004347 85.45953166056228 L 814.6375317619377 85.45981315920866 L 814.8760057719445 85.46117274106237 L 815.1144377832529 85.46361027016634 L 815.3528039528604 85.4671255027697 L 815.5910804443487 85.47171808735212 L 815.8292434302672 85.47738756465895 L 816.0672690945157 85.4841333677472 L 816.3051336347262 85.49195482204219 L 816.5428132646429 85.500851145405 L 816.780284216501 85.51082144821069 L 817.0175227434029 85.52186473343731 L 817.2545051216938 85.53397989676554 L 817.4912076533334 85.54716572668913 L 817.7276066682657 85.5614209046361 L 817.9636785267863 85.5767440051005 L 818.199399621906 85.59313349578507 L 818.4347463817116 85.6105877377544 L 818.6696952717235 85.62910498559884 L 818.9042227972483 85.64868338760904 L 819.138305505729 85.66932098596111 L 819.3719199890897 85.6910157169124 L 819.6050428860768 85.71376541100791 L 819.837650884595 85.73756779329719 L 820.069720724038 85.76242048356184 L 820.3012291976155 85.78832099655354 L 820.532153154673 85.81526674224258 L 820.7624695030072 85.84325502607685 L 820.9921552111751 85.87228304925127 L 821.2211873107975 85.90234790898774 L 821.4495428988552 85.93344659882531 L 821.6771991399796 85.96557600892095 L 821.9041332687364 85.99873292636039 L 822.1303225919017 86.03291403547954 L 822.355744490732 86.06811591819596 L 822.580376423225 86.10433505435071 L 822.8041959263746 86.14156782206037 L 823.0271806184172 86.17981049807918 L 823.2493082010692 86.21905925817143 L 823.4705564617577 86.25931017749379 L 823.6909032758408 86.30055923098789 L 823.9103266088207 86.34280229378275 L 824.1288045185471 86.3860351416073 L 824.346315157411 86.43025345121276 L 824.5628367745298 86.47545280080504 L 824.7783477179222 86.52162867048685 L 824.9928264366735 86.56877644270969 L 825.2062514830905 86.61689140273562 L 825.4186015148464 86.66596873910875 L 825.6298552971151 86.71600354413634 L 825.8399917046943 86.76699081437957 L 826.0489897241183 86.81892545115392 L 826.2568284557595 86.87180226103897 L 826.4634871159178 86.9256159563978 L 826.6689450388996 86.98036115590575 L 826.8731816790835 87.03603238508846 L 827.0761766129758 87.0926240768694 L 827.2779095412524 87.15013057212657 L 827.4783602907885 87.20854612025836 L 827.6775088166761 87.26786487975863 L 827.8753352042287 87.32808091880088 L 828.0718196709723 87.38918821583137 L 828.2669425686241 87.45118066017132 L 828.4606843850569 87.51405205262795 L 828.6530257462503 87.57779610611442 L 828.8439474182287 87.6424064462785 L 829.0334303089838 87.70787661214001 L 829.2214554703847 87.77420005673692 L 829.4080041000718 87.84137014778005 L 829.5930575433375 87.90938016831626 L 829.7765972949918 87.97822331740018 L 829.9586050012125 88.04789271077426 L 830.1390624613806 88.11838138155724 L 830.3179516299004 88.18968228094076 L 830.4952546180042 88.2617882788943 L 830.670953695541 88.33469216487818 L 830.8450312927494 88.40838664856452 L 831.0174700020146 88.48286436056638 L 831.1882525796096 88.55811785317462 L 831.3573619474189 88.6341396011027 L 831.5247811946465 88.71092200223917 L 831.6904935795073 88.7884573784079 L 831.854482530901 88.8667379761359 L 832.016731650069 88.9457559674286 L 832.1772247122346 89.02550345055275 L 832.3359456682255 89.10597245082647 L 832.492878646078 89.1871549214168 L 832.6480079526253 89.26904274414436 L 832.8013180750662 89.35162773029508 L 832.9527936825159 89.43490162143917 L 833.10241962754 89.51885609025692 L 833.2501809476688 89.60348274137141 L 833.3960628668933 89.68877311218804 L 833.5400507971432 89.77471867374081 L 833.6821303397454 89.8613108315452 L 833.8222872868641 89.94854092645757 L 833.9605076229213 90.03640023554112 L 834.0967775259987 90.12487997293817 L 834.2310833692195 90.2139712907487 L 834.3634117221113 90.3036652799152 L 834.493749351949 90.39395297111345 L 834.6220832250783 90.48482533564962 L 834.748400508219 90.57627328636293 L 834.8726885697477 90.66828767853457 L 834.9949349809621 90.76085931080198 L 835.1151275173228 90.85397892607905 L 835.2332541596764 90.94763721248188 L 835.3493030954571 91.04182480425987 L 835.463262719868 91.13653228273235 L 835.5751216370417 91.23175017723037 L 835.6848686611795 91.32746896604384 L 835.7924928176707 91.42367907737363 L 835.8979833441891 91.5203708902888 L 836.0013296917701 91.61753473568862 L 836.1025215258651 91.71516089726953 L 836.201548727375 91.81323961249673 L 836.298401393662 91.91176107358042 L 836.3930698395403 92.01071542845659 L 836.4855445982442 92.11009278177222 L 836.575816422375 92.20988319587481 L 836.6638762848254 92.31007669180607 L 836.7497153796825 92.41066325029993 L 836.8333251231085 92.51163281278436 L 836.9146971541984 92.61297528238724 L 836.9938233358173 92.71468052494606 L 837.0706957554128 92.81673837002134 L 837.1453067258069 92.9191386119136 L 837.2176487859649 93.02187101068398 L 837.2877147017412 93.12492529317824 L 837.3554974666022 93.22829115405399 L 837.4209903023282 93.33195825681128 L 837.4841866596901 93.43591623482622 L 837.5450802191048 93.54015469238766 L 837.6036648912672 93.64466320573669 L 837.6599348177588 93.74943132410907 L 837.713884371634 93.85444857078026 L 837.7655081579823 93.95970444411313 L 837.8148010144679 94.06518841860805 L 837.8617580118465 94.17088994595545 L 837.9063744544574 94.27679845609072 L 837.9486458806934 94.38290335825107 L 837.9885680634472 94.48919404203473 L 838.026137010534 94.59565987846186 L 838.0613489650899 94.70229022103757 L 838.0942004059493 94.80907440681646 L 838.1246880479952 94.91600175746893 L 838.1528088424889 95.02306158034904 L 838.1785599773742 95.13024316956367 L 838.2019388775594 95.23753580704327 L 838.2229432051737 95.34492876361347 L 838.241570859802 95.4524113000681 L 838.2578199786942 95.55997266824312 L 838.2716889369522 95.66760211209133 L 838.2831763476914 95.77528886875801 L 838.2922810621806 95.88302216965727 L 838.2990021699558 95.99079124154878 L 838.3033389989117 96.09858530761515 L 838.3052911153693 96.20639358853963 M 838.3054121054253 130.5446620031 L 838.3042196455216 130.65247254801662 L 838.3006423850555 130.7602723119686 L 838.2946806817503 130.86805051506934 L 838.2863351317709 130.97579637958842 L 838.2756065696657 131.08349913102907 L 838.2624960682818 131.191147999206 L 838.2470049386586 131.29873221932203 L 838.229134729896 131.40624103304486 L 838.208887229 131.51366368958264 L 838.1862644607038 131.6209894467593 L 838.1612686872654 131.7282075720885 L 838.1339024082414 131.83530734384712 L 838.1041683602368 131.94227805214717 L 838.0720695166317 132.049109000007 L 838.0376090872836 132.15578950442085 L 838.0007905182068 132.26230889742718 L 837.9616174912275 132.36865652717543 L 837.9200939236157 132.47482175899125 L 837.8762239676937 132.58079397643996 L 837.8300120104203 132.6865625823881 L 837.781462672953 132.79211700006323 L 837.730580810185 132.89744667411154 L 837.6773715102601 133.00254107165338 L 837.6218400940638 133.10738968333658 L 837.5639921146918 133.2119820243874 L 837.5038333568937 133.3163076356588 L 837.441369836495 133.42035608467668 L 837.3766077997958 133.52411696668278 L 837.3095537229458 133.62757990567542 L 837.2402143112969 133.73073455544687 L 837.1685964987322 133.83357060061815 L 837.0947074469735 133.9360777576704 L 837.0185545448645 134.0382457759734 L 836.9401454076317 134.14006443881038 L 836.8594878761236 134.24152356439998 L 836.7765900160261 134.34261300691415 L 836.6914601170563 134.44332265749287 L 836.6041066921329 134.54364244525505 L 836.5145384765257 134.6435623383055 L 836.4227644269816 134.74307234473812 L 836.3287937208293 134.8421625136353 L 836.2326357550606 134.9408229360626 L 836.1343001453926 135.0390437460601 L 836.0337967253038 135.1368151216286 L 835.9311355450526 135.23412728571202 L 835.8263268706716 135.33097050717507 L 835.7193811829407 135.42733510177626 L 835.6103091763397 135.5232114331365 L 835.4991217579784 135.6185899137025 L 835.3858300465058 135.71346100570568 L 835.2704453709989 135.80781522211595 L 835.1529792698288 135.90164312759026 L 835.0334434895079 135.99493533941623 L 834.9118499835147 136.08768252845047 L 834.7882109110983 136.17987542005133 L 834.6625386360629 136.2715047950065 L 834.5348457255315 136.36256149045482 L 834.4051449486884 136.45303640080266 L 834.2734492755035 136.54292047863436 L 834.1397718754342 136.63220473561702 L 834.0041261161093 136.72088024339936 L 833.8665255619915 136.8089381345045 L 833.7269839730216 136.89636960321673 L 833.5855153032422 136.98316590646203 L 833.4421336994025 137.06931836468237 L 833.2968534995433 137.15481836270376 L 833.1496892315635 137.23965735059764 L 833.0006556117673 137.3238268445359 L 832.8497675433924 137.4073184276393 L 832.6970401151201 137.49012375081912 L 832.5424885995658 137.57223453361203 L 832.3861284517524 137.65364256500817 L 832.2279753075641 137.73433970427226 L 832.0680449821838 137.8143178817576 L 831.9063534685106 137.89356909971312 L 831.7429169355613 137.97208543308304 L 831.5777517268527 138.04985903029944 L 831.4108743587684 138.12688211406746 L 831.242301518906 138.20314698214287 L 831.0720500644088 138.2786460081024 L 830.9001370202807 138.35337164210642 L 830.7265795776826 138.42731641165378 L 830.5513950922143 138.50047292232912 L 830.3746010821783 138.5728338585424 L 830.1962152268283 138.6443919842602 L 830.016255364601 138.71514014372968 L 829.8347394913329 138.78507126219378 L 829.65168575846 138.85417834659899 L 829.467112471203 138.92245448629438 L 829.2810380867368 138.98989285372295 L 829.0934812123448 139.0564867051041 L 828.9044606035582 139.12222938110824 L 828.7139951622803 139.18711430752253 L 828.5221039348964 139.2511349959084 L 828.3288061103697 139.3142850442503 L 828.1341210183211 139.37655813759613 L 827.938068127098 139.4379480486884 L 827.7406670418258 139.49844863858718 L 827.5419375024487 139.55805385728382 L 827.341899381755 139.61675774430623 L 827.14057268339 139.67455442931453 L 826.937977539856 139.73143813268845 L 826.7341342104982 139.78740316610504 L 826.5290630794799 139.84244393310757 L 826.3227846537432 139.89655492966523 L 826.1153195609588 139.94973074472344 L 825.9066885474631 140.00196606074505 L 825.6969124761837 140.05325565424192 L 825.4860123245527 140.1035943962975 L 825.2740091824096 140.1529772530795 L 825.060924249892 140.20139928634342 L 824.8467788353156 140.24885565392626 L 824.6315943530433 140.29534161023082 L 824.415392321344 140.3408525067002 L 824.1981943602409 140.38538379228268 L 823.9800221893489 140.42893101388682 L 823.7608976257034 140.47148981682676 L 823.540842581578 140.51305594525763 L 823.3198790622939 140.55362524260127 L 823.098029164019 140.59319365196174 L 822.8753150715579 140.63175721653107 L 822.6517590561344 140.66931207998493 L 822.427383473164 140.7058544868683 L 822.2022107600177 140.7413807829709 L 821.9762634337793 140.77588741569278 L 821.7495640889931 140.80937093439937 L 821.5221353954047 140.84182799076672 L 821.2940000956938 140.87325533911627 L 821.0651810032006 140.90364983673933 L 820.8357009996432 140.9330084442115 L 820.6055830328312 140.9613282256965 L 820.3748501143691 140.98860634923975 L 820.1435253173568 141.01484008705162 L 819.9116317740809 141.04002681578024 L 819.6791926737028 141.0641640167737 L 819.4462312599387 141.08724927633202 L 819.2127708287358 141.10928028594847 L 818.9788347259428 141.13025484254044 L 818.7444463449748 141.15017084866977 L 818.5096291244748 141.16902631275246 L 818.2744065459692 141.18681934925777 L 818.0388021315196 141.2035481788969 L 817.8028394413712 141.21921112880085 L 817.5665420715966 141.23380663268765 L 817.3299336517356 141.24733323101907 L 817.093037842433 141.25978957114654 L 816.8558783330725 141.2711744074465 L 816.6184788394073 141.28148660144473 L 816.3808631011889 141.29072512193042 L 816.1430548797932 141.2988890450593 L 815.9050779558441 141.30597755444578 L 815.6669561268358 141.31198994124486 L 815.4287132047526 141.31692560422286 L 815.1903730136883 141.32078404981763 L 814.9519593874633 141.3235648921878 L 814.7134961672415 141.32526785325143 L 814.4750071991464 141.32589276271386 L 814.2365163318758 141.32543955808467 L 813.998047414318 141.3239082846839 L 813.7596242931658 141.32129909563767 L 813.5212708105328 141.3176122518627 L 813.2830108015684 141.31284812204026 L 813.0448680920751 141.3070071825794 L 812.8068664961255 141.30009001756918 L 812.5690298136807 141.29209731872032 L 812.3313818282107 141.2830298852961 L 812.0939463043162 141.27288862403225 L 811.8567469853515 141.26167454904646 L 811.6198075910511 141.2493887817369 L 811.3831518151568 141.23603255067005 L 811.146803323049 141.22160719145788 L 810.9107857493799 141.20611414662432 L 810.6751226957103 141.1895549654609 L 810.4398377281492 141.17193130387196 L 810.2049543749972 141.153244924209 L 809.9704961243939 141.13349769509435 L 809.7364864219691 141.1126915912345 L 809.5029486684977 141.0908286932225 L 809.2699062175608 141.06791118732997 L 809.0373823732091 141.04394136528833 L 808.8054003876332 141.01892162405983 L 808.5739834588386 140.9928544655978 L 808.3431547283251 140.96574249659628 L 808.1129372787735 140.93758842822962 L 807.883354131737 140.90839507588117 L 807.6544282453386 140.8781653588619 L 807.4261825119767 140.84690230011824 L 807.198639756034 140.81460902593008 L 806.9718227315967 140.7812887655979 L 806.7457541201783 140.74694485111993 L 806.5204565284513 140.71158071685906 L 806.2959524859872 140.6751998991992 L 806.0722644430033 140.63780603619185 L 805.8494147681174 140.59940286719208 L 805.6274257461113 140.55999423248485 L 805.4063195757022 140.51958407290076 L 805.1861183673228 140.4781764294221 L 804.9668441409107 140.4357754427787 L 804.7485188237055 140.3923853530339 L 804.531164248057 140.3480104991605 L 804.314802149242 140.30265531860692 L 804.0994541632897 140.25632434685343 L 803.8851418248195 140.2090222169586 L 803.6718865648863 140.160753659096 L 803.4597097088389 140.11152350008118 L 803.2486324741856 140.061336662889 L 803.0386759684742 140.01019816616142 L 802.8298611871803 139.9581131237054 L 802.622209011608 139.90508674398188 L 802.4157402068018 139.85112432958456 L 802.2104754194702 139.79623127671 L 802.0064351759207 139.74041307461766 L 801.8036398800077 139.68367530508127 L 801.602109811092 139.6260236418305 L 801.4018651220123 139.56746384998365 L 801.2029258370707 139.50800178547107 L 801.0053118500299 139.4476433944497 L 800.809042922124 139.3863947127083 L 800.6141386800822 139.32426186506405 L 800.4206186141663 139.26125106474987 L 800.2285020762215 139.19736861279335 L 800.0378082777418 139.13262089738643 L 799.8485562879478 139.0670143932467 L 799.6607650318808 139.00055566096987 L 799.4744532885102 138.93325134637382 L 799.2896396888548 138.8651081798339 L 799.1063427141207 138.79613297561 L 798.9245806938525 138.72633263116504 L 798.744371804101 138.65571412647532 L 798.5657340656047 138.58428452333243 L 798.3886853419888 138.5120509646372 L 798.2132433379779 138.4390206736853 L 798.0394255976265 138.3652009534449 L 797.8672495025636 138.2905991858266 L 797.6967322702552 138.21522283094495 L 797.5278909522826 138.13907942637263 L 797.3607424326367 138.06217658638664 L 797.1953034260304 137.9845220012069 L 797.0315904762261 137.90612343622718 L 796.8696199543829 137.8269887312387 L 796.7094080574176 137.747125799646 L 796.5509708063864 137.66654262767568 L 796.3943240448826 137.58524727357778 L 796.2394834374518 137.50324786681995 L 796.0864644680255 137.42055260727457 L 795.9352824383732 137.33716976439865 L 795.7859524665719 137.253107676407 L 795.6384894854943 137.16837474943839 L 795.4929082413158 137.0829794567149 L 795.3492232920394 136.9969303376946 L 795.2074490060402 136.9102359972177 L 795.0675995606288 136.82290510464605 L 794.929688940633 136.73494639299608 L 794.793730937 136.64636865806568 L 794.6597391454169 136.55718075755453 L 794.5277269649512 136.46739161017834 L 794.3977075967108 136.37701019477703 L 794.2696940425243 136.28604554941683 L 794.1436991036404 136.19450677048647 L 794.0197353794481 136.10240301178757 L 793.8978152662164 136.00974348361922 L 793.777950955855 135.91653745185704 L 793.6601544346951 135.82279423702653 L 793.5444374822906 135.72852321337106 L 793.4308116702404 135.63373380791444 L 793.319288361031 135.53843549951822 L 793.2098787069003 135.44263781793381 L 793.1025936487226 135.34635034284955 L 792.9974439149144 135.2495827029327 L 792.8944400203613 135.15234457486665 L 792.793592265367 135.05464568238312 L 792.6949107346229 134.95649579528998 L 792.5984052962 134.85790472849413 L 792.5040856005616 134.75888234102013 L 792.4119610795985 134.65943853502412 L 792.3220409456864 134.55958325480393 L 792.2343341907634 134.4593264858043 L 792.1488495854321 134.35867825361862 L 792.0655956780819 134.25764862298624 L 791.9845807940338 134.156247696786 L 791.905813034709 134.05448561502604 L 791.8293002768178 133.95237255382972 L 791.755050171572 133.8499187244181 L 791.6830701439204 133.7471343720887 L 791.6133673918057 133.64402977519111 L 791.5459488854452 133.54061524409914 L 791.4808213666332 133.43690112017967 L 791.4179913480673 133.3328977747587 L 791.3574651126971 133.22861560808406 L 791.2992487130956 133.12406504828556 L 791.2433479708544 133.01925655033202 L 791.189768476001 132.9142005949859 L 791.1385155864401 132.80890768775524 L 791.0895944274183 132.70338835784298 L 791.0430098910105 132.59765315709416 L 790.9987666356316 132.49171265894074 L 790.9568690855701 132.3855774573443 L 790.9173214305464 132.27925816573654 L 790.8801276252927 132.17276541595797 L 790.8452913891589 132.0661098571949 L 790.8128162057392 131.95930215491427 L 790.7827053225252 131.8523529897973 L 790.7549617505799 131.74527305667144 L 790.7295882642376 131.63807306344071 L 790.7065874008256 131.5307637300151 L 790.6859614604111 131.4233557872386 L 790.667712505571 131.31585997581587 L 790.6518423611856 131.20828704523856 L 790.6383526142561 131.10064775271007 L 790.6272446137458 130.9929528620699 L 790.6185194704458 130.88521314271745 L 790.6121780568628 130.7774393685348 L 790.6082210071332 130.6696423168096 L 790.6066487169585 130.56183276715717" stroke-miterlimit="10" stroke-width="2.7769845610000004" stroke-dasharray=""/></g><g><g/><text fill="black" stroke="none" font-family="monospace" font-size="11pt" font-style="normal" font-weight="normal" text-decoration="normal" x="779.2560145244859" y="157.597015222" text-anchor="start" dominant-baseline="alphabetic" xml:space="preserve">Database</text></g><g><path fill="white" stroke="gray" paint-order="fill stroke markers" d=" M 943.4616679563497 114.6505091922 A 24.2577769005 24.2577769005 0 1 1 943.4616558274623 114.62625141934245 M 893.5576218748498 141.1298737415 L 944.8501602368498 141.1298737415" stroke-miterlimit="10" stroke-width="2.7769845610000004" stroke-dasharray=""/></g><g><g/><text fill="black" stroke="none" font-family="monospace" font-size="11pt" font-style="normal" font-weight="normal" text-decoration="normal" x="875.2038910558498" y="157.597015222" text-anchor="start" dominant-baseline="alphabetic" xml:space="preserve">TwitterAPI</text></g><g><path fill="white" stroke="blue" paint-order="fill stroke markers" d=" M 35.078667912469726 685.6198963535 A 9.311065881 9.311065881 0 1 1 35.078663256937176 685.6105852891709 M 25.76760203146973 694.9309622345 L 25.76760203146973 714.8599102605001 M 14.00625565546973 702.1184516865001 L 37.52894840746973 702.1184516865001 M 25.76760203146973 714.8599102605001 L 14.00625565546973 733.4820420225001 M 25.76760203146973 714.8599102605001 L 37.52894840746973 733.4820420225001" stroke-miterlimit="10" stroke-width="1.3884922805000002" stroke-dasharray=""/></g><g><g/><text fill="black" stroke="none" font-family="monospace" font-size="11pt" font-style="normal" font-weight="normal" text-decoration="normal" x="8.167601650000002" y="670.019777202" text-anchor="start" dominant-baseline="alphabetic" xml:space="preserve">User</text></g><path fill="none" stroke="none"/><g><path fill="white" stroke="orange" paint-order="fill stroke markers" d=" M 138.9720509972425 654.941128002 L 244.8194436841214 654.941128002 L 244.8194436841214 697.7896228120001 L 138.9720509972425 697.7896228120001 L 138.9720509972425 654.941128002 Z" stroke-miterlimit="10" stroke-width="2.613632528" stroke-dasharray=""/></g><g><g/><text fill="black" stroke="none" font-family="monospace" font-size="11pt" font-style="normal" font-weight="normal" text-decoration="normal" x="156.69574657774248" y="681.454419512" text-anchor="start" dominant-baseline="alphabetic" xml:space="preserve">Frontend</text></g><g><path fill="white" stroke="green" paint-order="fill stroke markers" d=" M 505.6053674197125 701.9550996535 A 24.2577769005 24.2577769005 0 1 1 505.60535529082506 701.9308418806424 M 441.7265549150625 676.7253781566501 L 441.7265549150625 727.18482115035 M 440.7546103187125 701.9550996535 L 457.08981361871247 701.9550996535" stroke-miterlimit="10" stroke-width="1.9438891927000002" stroke-dasharray=""/></g><g><g/><text fill="black" stroke="none" font-family="monospace" font-size="11pt" font-style="normal" font-weight="normal" text-decoration="normal" x="437.979988106273" y="670.019777202" text-anchor="start" dominant-baseline="alphabetic" xml:space="preserve">Endpoint</text></g><g><path fill="white" stroke="red" paint-order="fill stroke markers" d=" M 706.9335173065614 708.7342090230001 A 24.2577769005 24.2577769005 0 1 1 706.933505177674 708.7099512501425 M 679.4086997460614 684.4764321225001 L 689.2098217260614 676.3088304725001 M 679.4086997460614 684.4764321225001 L 689.2098217260614 692.6440337725002" stroke-miterlimit="10" stroke-width="1.9438891927000002" stroke-dasharray=""/></g><g><g/><text fill="black" stroke="none" font-family="monospace" font-size="11pt" font-style="normal" font-weight="normal" text-decoration="normal" x="651.8757411690009" y="670.019777202" text-anchor="start" dominant-baseline="alphabetic" xml:space="preserve">Scraper</text></g><g><path fill="pink" stroke="black" paint-order="fill stroke markers" d=" M 790.6066184694254 722.7824838610001 L 790.6066184694254 688.478556931 L 838.3054121054253 688.478556931 L 838.3054121054253 722.7824838610001" stroke-miterlimit="10" stroke-width="2.7769845610000004" stroke-dasharray=""/><path fill="pink" stroke="black" paint-order="fill stroke markers" d=" M 838.3054121054253 687.2860870901 L 838.3042196455216 687.3938976350166 L 838.3006423850555 687.5016973989685 L 838.2946806817503 687.6094756020693 L 838.2863351317709 687.7172214665884 L 838.2756065696657 687.8249242180291 L 838.2624960682818 687.9325730862059 L 838.2470049386586 688.040157306322 L 838.229134729896 688.1476661200448 L 838.208887229 688.2550887765826 L 838.1862644607038 688.3624145337593 L 838.1612686872654 688.4696326590885 L 838.1339024082414 688.5767324308471 L 838.1041683602368 688.6837031391472 L 838.0720695166317 688.790534087007 L 838.0376090872836 688.8972145914208 L 838.0007905182068 689.0037339844271 L 837.9616174912275 689.1100816141753 L 837.9200939236157 689.2162468459912 L 837.8762239676937 689.3222190634399 L 837.8300120104203 689.427987669388 L 837.781462672953 689.5335420870632 L 837.730580810185 689.6388717611114 L 837.6773715102601 689.7439661586533 L 837.6218400940638 689.8488147703365 L 837.5639921146918 689.9534071113874 L 837.5038333568937 690.0577327226588 L 837.441369836495 690.1617811716766 L 837.3766077997958 690.2655420536827 L 837.3095537229458 690.3690049926754 L 837.2402143112969 690.4721596424469 L 837.1685964987322 690.5749956876181 L 837.0947074469735 690.6775028446704 L 837.0185545448645 690.7796708629734 L 836.9401454076317 690.8814895258104 L 836.8594878761236 690.9829486514 L 836.7765900160261 691.084038093914 L 836.6914601170563 691.1847477444928 L 836.6041066921329 691.285067532255 L 836.5145384765257 691.3849874253054 L 836.4227644269816 691.4844974317381 L 836.3287937208293 691.5835876006353 L 836.2326357550606 691.6822480230626 L 836.1343001453926 691.78046883306 L 836.0337967253038 691.8782402086285 L 835.9311355450526 691.975552372712 L 835.8263268706716 692.072395594175 L 835.7193811829407 692.1687601887762 L 835.6103091763397 692.2646365201365 L 835.4991217579784 692.3600150007024 L 835.3858300465058 692.4548860927057 L 835.2704453709989 692.5492403091159 L 835.1529792698288 692.6430682145902 L 835.0334434895079 692.7363604264162 L 834.9118499835147 692.8291076154504 L 834.7882109110983 692.9213005070513 L 834.6625386360629 693.0129298820065 L 834.5348457255315 693.1039865774547 L 834.4051449486884 693.1944614878026 L 834.2734492755035 693.2843455656343 L 834.1397718754342 693.373629822617 L 834.0041261161093 693.4623053303993 L 833.8665255619915 693.5503632215044 L 833.7269839730216 693.6377946902167 L 833.5855153032422 693.724590993462 L 833.4421336994025 693.8107434516824 L 833.2968534995433 693.8962434497037 L 833.1496892315635 693.9810824375976 L 833.0006556117673 694.0652519315358 L 832.8497675433924 694.1487435146392 L 832.6970401151201 694.2315488378191 L 832.5424885995658 694.3136596206119 L 832.3861284517524 694.3950676520082 L 832.2279753075641 694.4757647912722 L 832.0680449821838 694.5557429687576 L 831.9063534685106 694.634994186713 L 831.7429169355613 694.713510520083 L 831.5777517268527 694.7912841172994 L 831.4108743587684 694.8683072010674 L 831.242301518906 694.9445720691429 L 831.0720500644088 695.0200710951024 L 830.9001370202807 695.0947967291064 L 830.7265795776826 695.1687414986537 L 830.5513950922143 695.2418980093291 L 830.3746010821783 695.3142589455423 L 830.1962152268283 695.3858170712601 L 830.016255364601 695.4565652307297 L 829.8347394913329 695.5264963491937 L 829.65168575846 695.595603433599 L 829.467112471203 695.6638795732944 L 829.2810380867368 695.7313179407229 L 829.0934812123448 695.7979117921041 L 828.9044606035582 695.8636544681082 L 828.7139951622803 695.9285393945224 L 828.5221039348964 695.9925600829083 L 828.3288061103697 696.0557101312503 L 828.1341210183211 696.1179832245961 L 827.938068127098 696.1793731356884 L 827.7406670418258 696.2398737255871 L 827.5419375024487 696.2994789442838 L 827.341899381755 696.3581828313062 L 827.14057268339 696.4159795163145 L 826.937977539856 696.4728632196884 L 826.7341342104982 696.528828253105 L 826.5290630794799 696.5838690201075 L 826.3227846537432 696.6379800166652 L 826.1153195609588 696.6911558317234 L 825.9066885474631 696.743391147745 L 825.6969124761837 696.7946807412419 L 825.4860123245527 696.8450194832975 L 825.2740091824096 696.8944023400794 L 825.060924249892 696.9428243733433 L 824.8467788353156 696.9902807409262 L 824.6315943530433 697.0367666972307 L 824.415392321344 697.0822775937002 L 824.1981943602409 697.1268088792826 L 823.9800221893489 697.1703561008868 L 823.7608976257034 697.2129149038267 L 823.540842581578 697.2544810322576 L 823.3198790622939 697.2950503296013 L 823.098029164019 697.3346187389617 L 822.8753150715579 697.373182303531 L 822.6517590561344 697.4107371669849 L 822.427383473164 697.4472795738683 L 822.2022107600177 697.4828058699709 L 821.9762634337793 697.5173125026927 L 821.7495640889931 697.5507960213993 L 821.5221353954047 697.5832530777667 L 821.2940000956938 697.6146804261163 L 821.0651810032006 697.6450749237393 L 820.8357009996432 697.6744335312114 L 820.6055830328312 697.7027533126965 L 820.3748501143691 697.7300314362396 L 820.1435253173568 697.7562651740516 L 819.9116317740809 697.7814519027802 L 819.6791926737028 697.8055891037736 L 819.4462312599387 697.828674363332 L 819.2127708287358 697.8507053729484 L 818.9788347259428 697.8716799295404 L 818.7444463449748 697.8915959356698 L 818.5096291244748 697.9104513997524 L 818.2744065459692 697.9282444362577 L 818.0388021315196 697.9449732658969 L 817.8028394413712 697.9606362158008 L 817.5665420715966 697.9752317196876 L 817.3299336517356 697.988758318019 L 817.093037842433 698.0012146581465 L 816.8558783330725 698.0125994944465 L 816.6184788394073 698.0229116884447 L 816.3808631011889 698.0321502089304 L 816.1430548797932 698.0403141320593 L 815.9050779558441 698.0474026414457 L 815.6669561268358 698.0534150282448 L 815.4287132047526 698.0583506912228 L 815.1903730136883 698.0622091368176 L 814.9519593874633 698.0649899791878 L 814.7134961672415 698.0666929402514 L 814.4750071991464 698.0673178497138 L 814.2365163318758 698.0668646450846 L 813.998047414318 698.0653333716839 L 813.7596242931658 698.0627241826377 L 813.5212708105328 698.0590373388627 L 813.2830108015684 698.0542732090403 L 813.0448680920751 698.0484322695794 L 812.8068664961255 698.0415151045692 L 812.5690298136807 698.0335224057203 L 812.3313818282107 698.0244549722961 L 812.0939463043162 698.0143137110322 L 811.8567469853515 698.0030996360464 L 811.6198075910511 697.9908138687368 L 811.3831518151568 697.97745763767 L 811.146803323049 697.9630322784578 L 810.9107857493799 697.9475392336243 L 810.6751226957103 697.9309800524609 L 810.4398377281492 697.913356390872 L 810.2049543749972 697.894670011209 L 809.9704961243939 697.8749227820942 L 809.7364864219691 697.8541166782345 L 809.5029486684977 697.8322537802225 L 809.2699062175608 697.8093362743299 L 809.0373823732091 697.7853664522883 L 808.8054003876332 697.7603467110598 L 808.5739834588386 697.7342795525977 L 808.3431547283251 697.7071675835962 L 808.1129372787735 697.6790135152296 L 807.883354131737 697.6498201628812 L 807.6544282453386 697.6195904458618 L 807.4261825119767 697.5883273871182 L 807.198639756034 697.5560341129301 L 806.9718227315967 697.5227138525978 L 806.7457541201783 697.48836993812 L 806.5204565284513 697.453005803859 L 806.2959524859872 697.4166249861992 L 806.0722644430033 697.3792311231919 L 805.8494147681174 697.340827954192 L 805.6274257461113 697.3014193194848 L 805.4063195757022 697.2610091599007 L 805.1861183673228 697.219601516422 L 804.9668441409107 697.1772005297786 L 804.7485188237055 697.1338104400338 L 804.531164248057 697.0894355861604 L 804.314802149242 697.0440804056069 L 804.0994541632897 696.9977494338534 L 803.8851418248195 696.9504473039585 L 803.6718865648863 696.902178746096 L 803.4597097088389 696.8529485870812 L 803.2486324741856 696.802761749889 L 803.0386759684742 696.7516232531614 L 802.8298611871803 696.6995382107053 L 802.622209011608 696.6465118309818 L 802.4157402068018 696.5925494165846 L 802.2104754194702 696.53765636371 L 802.0064351759207 696.4818381616176 L 801.8036398800077 696.4251003920813 L 801.602109811092 696.3674487288305 L 801.4018651220123 696.3088889369836 L 801.2029258370707 696.2494268724711 L 801.0053118500299 696.1890684814497 L 800.809042922124 696.1278197997083 L 800.6141386800822 696.065686952064 L 800.4206186141663 696.0026761517498 L 800.2285020762215 695.9387936997933 L 800.0378082777418 695.8740459843864 L 799.8485562879478 695.8084394802466 L 799.6607650318808 695.7419807479698 L 799.4744532885102 695.6746764333737 L 799.2896396888548 695.6065332668338 L 799.1063427141207 695.53755806261 L 798.9245806938525 695.467757718165 L 798.744371804101 695.3971392134753 L 798.5657340656047 695.3257096103324 L 798.3886853419888 695.2534760516371 L 798.2132433379779 695.1804457606852 L 798.0394255976265 695.1066260404449 L 797.8672495025636 695.0320242728266 L 797.6967322702552 694.9566479179449 L 797.5278909522826 694.8805045133726 L 797.3607424326367 694.8036016733865 L 797.1953034260304 694.7259470882068 L 797.0315904762261 694.6475485232271 L 796.8696199543829 694.5684138182387 L 796.7094080574176 694.488550886646 L 796.5509708063864 694.4079677146756 L 796.3943240448826 694.3266723605777 L 796.2394834374518 694.2446729538199 L 796.0864644680255 694.1619776942745 L 795.9352824383732 694.0785948513986 L 795.7859524665719 693.9945327634069 L 795.6384894854943 693.9097998364383 L 795.4929082413158 693.8244045437149 L 795.3492232920394 693.7383554246945 L 795.2074490060402 693.6516610842177 L 795.0675995606288 693.564330191646 L 794.929688940633 693.476371479996 L 794.793730937 693.3877937450657 L 794.6597391454169 693.2986058445545 L 794.5277269649512 693.2088166971783 L 794.3977075967108 693.118435281777 L 794.2696940425243 693.0274706364168 L 794.1436991036404 692.9359318574865 L 794.0197353794481 692.8438280987875 L 793.8978152662164 692.7511685706191 L 793.777950955855 692.657962538857 L 793.6601544346951 692.5642193240265 L 793.5444374822906 692.469948300371 L 793.4308116702404 692.3751588949144 L 793.319288361031 692.2798605865181 L 793.2098787069003 692.1840629049337 L 793.1025936487226 692.0877754298496 L 792.9974439149144 691.9910077899327 L 792.8944400203613 691.8937696618666 L 792.793592265367 691.796070769383 L 792.6949107346229 691.69792088229 L 792.5984052962 691.5993298154941 L 792.5040856005616 691.50030742802 L 792.4119610795985 691.4008636220241 L 792.3220409456864 691.3010083418039 L 792.2343341907634 691.2007515728043 L 792.1488495854321 691.1001033406186 L 792.0655956780819 690.9990737099862 L 791.9845807940338 690.897672783786 L 791.905813034709 690.7959107020259 L 791.8293002768178 690.6937976408296 L 791.755050171572 690.591343811418 L 791.6830701439204 690.4885594590886 L 791.6133673918057 690.3854548621911 L 791.5459488854452 690.2820403310991 L 791.4808213666332 690.1783262071796 L 791.4179913480673 690.0743228617587 L 791.3574651126971 689.970040695084 L 791.2992487130956 689.8654901352855 L 791.2433479708544 689.760681637332 L 791.189768476001 689.6556256819858 L 791.1385155864401 689.5503327747552 L 791.0895944274183 689.4448134448429 L 791.0430098910105 689.3390782440941 L 790.9987666356316 689.2331377459407 L 790.9568690855701 689.1270025443442 L 790.9173214305464 689.0206832527365 L 790.8801276252927 688.9141905029579 L 790.8452913891589 688.8075349441948 L 790.8128162057392 688.7007272419143 L 790.7827053225252 688.5937780767973 L 790.7549617505799 688.4866981436714 L 790.7295882642376 688.3794981504407 L 790.7065874008256 688.272188817015 L 790.6859614604111 688.1647808742385 L 790.667712505571 688.0572850628158 L 790.6518423611856 687.9497121322386 L 790.6383526142561 687.84207283971 L 790.6272446137458 687.7343779490699 L 790.6185194704458 687.6266382297174 L 790.6121780568628 687.5188644555348 L 790.6082210071332 687.4110674038095 L 790.6066487169585 687.3032578541571 L 790.6074613435665 687.1954465874426 L 790.610658805695 687.0876443847028 L 790.6162407836007 686.9798620260682 L 790.6242067190904 686.8721102896848 L 790.6345558155771 686.7643999506364 L 790.6472870381599 686.6567417798673 L 790.662399113727 686.5491465431047 L 790.6798905310836 686.4416249997828 L 790.6997595411024 686.3341879019661 L 790.7220041568991 686.226845993275 L 790.7466221540305 686.1196100078109 L 790.7736110707175 686.0124906690829 L 790.8029682080909 685.9054986889358 L 790.8346906304614 685.7986447664782 L 790.8687751656133 685.6919395870135 L 790.9052184051213 685.5853938209707 L 790.9440167046921 685.4790181228375 L 790.9851661845278 685.3728231300952 L 791.0286627297148 685.2668194621544 L 791.0745019906349 685.1610177192938 L 791.1226793834 685.0554284815994 L 791.1731900903113 684.9500623079069 L 791.2260290603399 684.844929734746 L 791.2811910096331 684.7400412752863 L 791.3386704220417 684.6354074182864 L 791.3984615496724 684.5310386270448 L 791.4605584134623 684.4269453383536 L 791.5249548037768 684.323137961455 L 791.5916442810307 684.2196268770001 L 791.6606201763315 684.1164224360112 L 791.7318755921473 684.0135349588463 L 791.8054034029959 683.9109747341674 L 791.8811962561575 683.8087520179115 L 791.9592465724099 683.7068770322651 L 792.0395465467867 683.6053599646418 L 792.1220881493571 683.5042109666638 L 792.2068631260298 683.4034401531466 L 792.2938629993778 683.3030576010875 L 792.3830790694861 683.2030733486581 L 792.4745024148223 683.1034973942004 L 792.5681238931278 683.0043396952268 L 792.6639341423328 682.9056101674246 L 792.7619235814924 682.8073186836642 L 792.8620824117443 682.7094750730123 L 792.9644006172888 682.6120891197481 L 793.0688679663906 682.5151705623861 L 793.1754740124021 682.418729092701 L 793.2842080948074 682.3227743547596 L 793.3950593402886 682.2273159439557 L 793.508016663814 682.1323634060507 L 793.6230687697451 682.0379262362194 L 793.7402041529673 681.9440138781 L 793.8594111000397 681.85063572285 L 793.9806776903671 681.7578011082073 L 794.1039917973915 681.665519317556 L 794.229341089805 681.573799578998 L 794.3567130327826 681.4826510644309 L 794.4860948892365 681.3920828886303 L 794.6174737210886 681.3021041083381 L 794.7508363905652 681.2127237213574 L 794.8861695615105 681.1239506656526 L 795.0234597007204 681.035793818455 L 795.1626930792952 680.9482619953761 L 795.3038557740131 680.8613639495252 L 795.4469336687222 680.7751083706343 L 795.5919124557523 680.6895038841897 L 795.7387776373456 680.6045590505685 L 795.8875145271063 680.5202823641832 L 796.0381082514692 680.4366822526325 L 796.1905437511876 680.3537670758576 L 796.3448057828384 680.2715451253074 L 796.5008789203471 680.1900246231081 L 796.6587475565299 680.1092137212422 L 796.8183959046548 680.0291205007325 L 796.97980800002 679.9497529708342 L 797.1429677015504 679.8711190682342 L 797.307858693412 679.7932266562574 L 797.4744644866429 679.7160835240799 L 797.6427684208027 679.6396973859506 L 797.812753665638 679.5640758804199 L 797.9844032227662 679.4892265695751 L 798.1576999273747 679.4151569382849 L 798.3326264499372 679.3418743934509 L 798.5091652979473 679.2693862632664 L 798.6872988176674 679.197699796484 L 798.867009195894 679.1268221616907 L 799.0482784617388 679.0567604465908 L 799.2310884884265 678.9875216572976 L 799.4154209951067 678.9191127176322 L 799.6012575486825 678.8515404684316 L 799.7885795656531 678.7848116668644 L 799.977368313973 678.7189329857551 L 800.1676049149248 678.653911012917 L 800.359270345007 678.5897522504932 L 800.552345437836 678.5264631143064 L 800.7468108860637 678.4640499332174 L 800.9426472433073 678.4025189484926 L 801.1398349260941 678.341876313179 L 801.3383542158203 678.2821280914895 L 801.5381852607223 678.2232802581966 L 801.7393080778621 678.1653386980347 L 801.9417025551257 678.1083092051113 L 802.1453484532341 678.0521974823283 L 802.3502254077669 677.9970091408112 L 802.5563129311995 677.9427496993482 L 802.7635904149514 677.889424583838 L 802.9720371314469 677.8370391267481 L 803.1816322361881 677.7855985665803 L 803.392354769839 677.7351080473478 L 803.6041836603221 677.6855726180604 L 803.8170977249247 677.6369972322199 L 804.0310756724178 677.5893867473243 L 804.2460961051851 677.5427459243823 L 804.4621375213623 677.4970794274376 L 804.6791783169878 677.4523918231016 L 804.8971967881631 677.4086875800975 L 805.1161711332227 677.3659710688135 L 805.3360794549144 677.3242465608646 L 805.5568997625896 677.2835182286673 L 805.7786099744013 677.2437901450206 L 806.0011879195132 677.2050662827 L 806.2246113403162 677.1673505140592 L 806.4488578946543 677.1306466106438 L 806.6739051580593 677.0949582428135 L 806.899730625992 677.0602889793754 L 807.126311716094 677.0266422872268 L 807.3536257704452 676.994021531009 L 807.5816500578293 676.9624299727705 L 807.8103617760078 676.9318707716405 L 808.0397380539994 676.9023469835141 L 808.2697559543675 676.8738615607452 L 808.5003924755136 676.8464173518524 L 808.731624553978 676.8200171012337 L 808.9634290667453 676.7946634488923 L 809.1957828335577 676.770358930172 L 809.4286626192319 676.7471059755047 L 809.6620451359835 676.7249069101665 L 809.8959070457553 676.7037639540453 L 810.1302249625511 676.6836792214191 L 810.3649754547746 676.6646547207445 L 810.6001350475722 676.6466923544556 L 810.8356802251806 676.6297939187741 L 811.0715874332782 676.6139611035296 L 811.307833081341 676.5991954919904 L 811.5443935450007 676.5854985607051 L 811.7812451684085 676.5728716793558 L 812.0183642665992 676.5613161106198 L 812.2557271278606 676.5508330100446 L 812.4933100161044 676.5414234259313 L 812.7310891732396 676.5330882992306 L 812.969040821549 676.5258284634482 L 813.2071411660658 676.5196446445615 L 813.4453663969539 676.5145374609475 L 813.683692691889 676.5105074233201 L 813.92209621844 676.5075549346797 L 814.1605531364528 676.5056802902728 L 814.3990396004347 676.5048836775622 L 814.6375317619377 676.5051651762086 L 814.8760057719445 676.5065247580624 L 815.1144377832529 676.5089622871662 L 815.3528039528604 676.5124775197696 L 815.5910804443487 676.5170701043521 L 815.8292434302672 676.5227395816589 L 816.0672690945157 676.5294853847472 L 816.3051336347262 676.5373068390421 L 816.5428132646429 676.5462031624049 L 816.780284216501 676.5561734652106 L 817.0175227434029 676.5672167504373 L 817.2545051216938 676.5793319137655 L 817.4912076533334 676.5925177436891 L 817.7276066682657 676.606772921636 L 817.9636785267863 676.6220960221004 L 818.199399621906 676.638485512785 L 818.4347463817116 676.6559397547544 L 818.6696952717235 676.6744570025988 L 818.9042227972483 676.6940354046089 L 819.138305505729 676.714673002961 L 819.3719199890897 676.7363677339124 L 819.6050428860768 676.7591174280078 L 819.837650884595 676.7829198102971 L 820.069720724038 676.8077725005618 L 820.3012291976155 676.8336730135535 L 820.532153154673 676.8606187592425 L 820.7624695030072 676.8886070430768 L 820.9921552111751 676.9176350662513 L 821.2211873107975 676.9476999259876 L 821.4495428988552 676.9787986158252 L 821.6771991399796 677.0109280259209 L 821.9041332687364 677.0440849433603 L 822.1303225919017 677.0782660524795 L 822.355744490732 677.1134679351959 L 822.580376423225 677.1496870713506 L 822.8041959263746 677.1869198390604 L 823.0271806184172 677.2251625150791 L 823.2493082010692 677.2644112751714 L 823.4705564617577 677.3046621944937 L 823.6909032758408 677.3459112479878 L 823.9103266088207 677.3881543107827 L 824.1288045185471 677.4313871586072 L 824.346315157411 677.4756054682127 L 824.5628367745298 677.520804817805 L 824.7783477179222 677.5669806874868 L 824.9928264366735 677.6141284597096 L 825.2062514830905 677.6622434197355 L 825.4186015148464 677.7113207561086 L 825.6298552971151 677.7613555611363 L 825.8399917046943 677.8123428313795 L 826.0489897241183 677.8642774681539 L 826.2568284557595 677.9171542780389 L 826.4634871159178 677.9709679733977 L 826.6689450388996 678.0257131729057 L 826.8731816790835 678.0813844020884 L 827.0761766129758 678.1379760938694 L 827.2779095412524 678.1954825891265 L 827.4783602907885 678.2538981372583 L 827.6775088166761 678.3132168967586 L 827.8753352042287 678.3734329358008 L 828.0718196709723 678.4345402328313 L 828.2669425686241 678.4965326771712 L 828.4606843850569 678.5594040696279 L 828.6530257462503 678.6231481231143 L 828.8439474182287 678.6877584632784 L 829.0334303089838 678.7532286291399 L 829.2214554703847 678.8195520737369 L 829.4080041000718 678.8867221647799 L 829.5930575433375 678.9547321853162 L 829.7765972949918 679.0235753344001 L 829.9586050012125 679.0932447277742 L 830.1390624613806 679.1637333985572 L 830.3179516299004 679.2350342979407 L 830.4952546180042 679.3071402958942 L 830.670953695541 679.3800441818781 L 830.8450312927494 679.4537386655645 L 831.0174700020146 679.5282163775663 L 831.1882525796096 679.6034698701745 L 831.3573619474189 679.6794916181026 L 831.5247811946465 679.7562740192391 L 831.6904935795073 679.8338093954078 L 831.854482530901 679.9120899931359 L 832.016731650069 679.9911079844286 L 832.1772247122346 680.0708554675526 L 832.3359456682255 680.1513244678264 L 832.492878646078 680.2325069384168 L 832.6480079526253 680.3143947611443 L 832.8013180750662 680.3969797472951 L 832.9527936825159 680.4802536384391 L 833.10241962754 680.5642081072568 L 833.2501809476688 680.6488347583713 L 833.3960628668933 680.734125129188 L 833.5400507971432 680.8200706907407 L 833.6821303397454 680.9066628485451 L 833.8222872868641 680.9938929434575 L 833.9605076229213 681.081752252541 L 834.0967775259987 681.1702319899381 L 834.2310833692195 681.2593233077487 L 834.3634117221113 681.3490172969151 L 834.493749351949 681.4393049881133 L 834.6220832250783 681.5301773526495 L 834.748400508219 681.6216253033629 L 834.8726885697477 681.7136396955345 L 834.9949349809621 681.8062113278019 L 835.1151275173228 681.899330943079 L 835.2332541596764 681.9929892294819 L 835.3493030954571 682.0871768212598 L 835.463262719868 682.1818842997322 L 835.5751216370417 682.2771021942303 L 835.6848686611795 682.3728209830438 L 835.7924928176707 682.4690310943736 L 835.8979833441891 682.5657229072888 L 836.0013296917701 682.6628867526886 L 836.1025215258651 682.7605129142695 L 836.201548727375 682.8585916294967 L 836.298401393662 682.9571130905804 L 836.3930698395403 683.0560674454565 L 836.4855445982442 683.1554447987721 L 836.575816422375 683.2552352128747 L 836.6638762848254 683.355428708806 L 836.7497153796825 683.4560152672999 L 836.8333251231085 683.5569848297843 L 836.9146971541984 683.6583272993872 L 836.9938233358173 683.760032541946 L 837.0706957554128 683.8620903870212 L 837.1453067258069 683.9644906289135 L 837.2176487859649 684.0672230276839 L 837.2877147017412 684.1702773101782 L 837.3554974666022 684.2736431710539 L 837.4209903023282 684.3773102738112 L 837.4841866596901 684.4812682518261 L 837.5450802191048 684.5855067093876 L 837.6036648912672 684.6900152227366 L 837.6599348177588 684.794783341109 L 837.713884371634 684.8998005877802 L 837.7655081579823 685.0050564611131 L 837.8148010144679 685.110540435608 L 837.8617580118465 685.2162419629555 L 837.9063744544574 685.3221504730907 L 837.9486458806934 685.428255375251 L 837.9885680634472 685.5345460590347 L 838.026137010534 685.6410118954618 L 838.0613489650899 685.7476422380375 L 838.0942004059493 685.8544264238164 L 838.1246880479952 685.9613537744689 L 838.1528088424889 686.0684135973489 L 838.1785599773742 686.1755951865637 L 838.2019388775594 686.2828878240432 L 838.2229432051737 686.3902807806134 L 838.241570859802 686.497763317068 L 838.2578199786942 686.6053246852431 L 838.2716889369522 686.7129541290913 L 838.2831763476914 686.8206408857579 L 838.2922810621806 686.9283741866573 L 838.2990021699558 687.0361432585487 L 838.3033389989117 687.1439373246151 L 838.3052911153693 687.2517456055396 M 838.3054121054253 721.5900140201 L 838.3042196455216 721.6978245650167 L 838.3006423850555 721.8056243289686 L 838.2946806817503 721.9134025320694 L 838.2863351317709 722.0211483965885 L 838.2756065696657 722.1288511480292 L 838.2624960682818 722.236500016206 L 838.2470049386586 722.3440842363221 L 838.229134729896 722.451593050045 L 838.208887229 722.5590157065827 L 838.1862644607038 722.6663414637594 L 838.1612686872654 722.7735595890886 L 838.1339024082414 722.8806593608472 L 838.1041683602368 722.9876300691473 L 838.0720695166317 723.0944610170071 L 838.0376090872836 723.2011415214209 L 838.0007905182068 723.3076609144273 L 837.9616174912275 723.4140085441754 L 837.9200939236157 723.5201737759913 L 837.8762239676937 723.62614599344 L 837.8300120104203 723.7319145993881 L 837.781462672953 723.8374690170633 L 837.730580810185 723.9427986911115 L 837.6773715102601 724.0478930886534 L 837.6218400940638 724.1527417003366 L 837.5639921146918 724.2573340413875 L 837.5038333568937 724.3616596526589 L 837.441369836495 724.4657081016767 L 837.3766077997958 724.5694689836828 L 837.3095537229458 724.6729319226755 L 837.2402143112969 724.776086572447 L 837.1685964987322 724.8789226176182 L 837.0947074469735 724.9814297746705 L 837.0185545448645 725.0835977929735 L 836.9401454076317 725.1854164558105 L 836.8594878761236 725.2868755814001 L 836.7765900160261 725.3879650239141 L 836.6914601170563 725.4886746744929 L 836.6041066921329 725.5889944622551 L 836.5145384765257 725.6889143553055 L 836.4227644269816 725.7884243617382 L 836.3287937208293 725.8875145306354 L 836.2326357550606 725.9861749530627 L 836.1343001453926 726.0843957630601 L 836.0337967253038 726.1821671386286 L 835.9311355450526 726.279479302712 L 835.8263268706716 726.3763225241751 L 835.7193811829407 726.4726871187763 L 835.6103091763397 726.5685634501366 L 835.4991217579784 726.6639419307025 L 835.3858300465058 726.7588130227058 L 835.2704453709989 726.853167239116 L 835.1529792698288 726.9469951445903 L 835.0334434895079 727.0402873564163 L 834.9118499835147 727.1330345454505 L 834.7882109110983 727.2252274370514 L 834.6625386360629 727.3168568120066 L 834.5348457255315 727.4079135074549 L 834.4051449486884 727.4983884178027 L 834.2734492755035 727.5882724956344 L 834.1397718754342 727.6775567526171 L 834.0041261161093 727.7662322603994 L 833.8665255619915 727.8542901515045 L 833.7269839730216 727.9417216202168 L 833.5855153032422 728.0285179234621 L 833.4421336994025 728.1146703816825 L 833.2968534995433 728.2001703797038 L 833.1496892315635 728.2850093675977 L 833.0006556117673 728.3691788615359 L 832.8497675433924 728.4526704446394 L 832.6970401151201 728.5354757678192 L 832.5424885995658 728.617586550612 L 832.3861284517524 728.6989945820083 L 832.2279753075641 728.7796917212723 L 832.0680449821838 728.8596698987577 L 831.9063534685106 728.9389211167131 L 831.7429169355613 729.0174374500831 L 831.5777517268527 729.0952110472995 L 831.4108743587684 729.1722341310675 L 831.242301518906 729.248498999143 L 831.0720500644088 729.3239980251025 L 830.9001370202807 729.3987236591065 L 830.7265795776826 729.4726684286538 L 830.5513950922143 729.5458249393292 L 830.3746010821783 729.6181858755424 L 830.1962152268283 729.6897440012602 L 830.016255364601 729.7604921607298 L 829.8347394913329 729.8304232791938 L 829.65168575846 729.8995303635991 L 829.467112471203 729.9678065032945 L 829.2810380867368 730.035244870723 L 829.0934812123448 730.1018387221042 L 828.9044606035582 730.1675813981083 L 828.7139951622803 730.2324663245225 L 828.5221039348964 730.2964870129084 L 828.3288061103697 730.3596370612504 L 828.1341210183211 730.4219101545962 L 827.938068127098 730.4833000656885 L 827.7406670418258 730.5438006555872 L 827.5419375024487 730.6034058742839 L 827.341899381755 730.6621097613063 L 827.14057268339 730.7199064463146 L 826.937977539856 730.7767901496885 L 826.7341342104982 730.8327551831051 L 826.5290630794799 730.8877959501076 L 826.3227846537432 730.9419069466653 L 826.1153195609588 730.9950827617236 L 825.9066885474631 731.0473180777451 L 825.6969124761837 731.098607671242 L 825.4860123245527 731.1489464132976 L 825.2740091824096 731.1983292700795 L 825.060924249892 731.2467513033434 L 824.8467788353156 731.2942076709263 L 824.6315943530433 731.3406936272308 L 824.415392321344 731.3862045237003 L 824.1981943602409 731.4307358092827 L 823.9800221893489 731.4742830308869 L 823.7608976257034 731.5168418338268 L 823.540842581578 731.5584079622577 L 823.3198790622939 731.5989772596014 L 823.098029164019 731.6385456689618 L 822.8753150715579 731.6771092335312 L 822.6517590561344 731.714664096985 L 822.427383473164 731.7512065038684 L 822.2022107600177 731.786732799971 L 821.9762634337793 731.8212394326928 L 821.7495640889931 731.8547229513995 L 821.5221353954047 731.8871800077668 L 821.2940000956938 731.9186073561164 L 821.0651810032006 731.9490018537394 L 820.8357009996432 731.9783604612115 L 820.6055830328312 732.0066802426966 L 820.3748501143691 732.0339583662397 L 820.1435253173568 732.0601921040517 L 819.9116317740809 732.0853788327803 L 819.6791926737028 732.1095160337737 L 819.4462312599387 732.1326012933321 L 819.2127708287358 732.1546323029485 L 818.9788347259428 732.1756068595405 L 818.7444463449748 732.1955228656699 L 818.5096291244748 732.2143783297525 L 818.2744065459692 732.2321713662578 L 818.0388021315196 732.248900195897 L 817.8028394413712 732.2645631458009 L 817.5665420715966 732.2791586496877 L 817.3299336517356 732.2926852480191 L 817.093037842433 732.3051415881466 L 816.8558783330725 732.3165264244466 L 816.6184788394073 732.3268386184448 L 816.3808631011889 732.3360771389305 L 816.1430548797932 732.3442410620594 L 815.9050779558441 732.3513295714458 L 815.6669561268358 732.3573419582449 L 815.4287132047526 732.3622776212229 L 815.1903730136883 732.3661360668177 L 814.9519593874633 732.3689169091879 L 814.7134961672415 732.3706198702515 L 814.4750071991464 732.371244779714 L 814.2365163318758 732.3707915750847 L 813.998047414318 732.369260301684 L 813.7596242931658 732.3666511126378 L 813.5212708105328 732.3629642688627 L 813.2830108015684 732.3582001390404 L 813.0448680920751 732.3523591995795 L 812.8068664961255 732.3454420345693 L 812.5690298136807 732.3374493357204 L 812.3313818282107 732.3283819022962 L 812.0939463043162 732.3182406410323 L 811.8567469853515 732.3070265660465 L 811.6198075910511 732.2947407987369 L 811.3831518151568 732.2813845676701 L 811.146803323049 732.2669592084579 L 810.9107857493799 732.2514661636244 L 810.6751226957103 732.234906982461 L 810.4398377281492 732.2172833208721 L 810.2049543749972 732.1985969412091 L 809.9704961243939 732.1788497120943 L 809.7364864219691 732.1580436082346 L 809.5029486684977 732.1361807102226 L 809.2699062175608 732.11326320433 L 809.0373823732091 732.0892933822884 L 808.8054003876332 732.0642736410599 L 808.5739834588386 732.0382064825978 L 808.3431547283251 732.0110945135963 L 808.1129372787735 731.9829404452297 L 807.883354131737 731.9537470928813 L 807.6544282453386 731.9235173758619 L 807.4261825119767 731.8922543171183 L 807.198639756034 731.8599610429302 L 806.9718227315967 731.8266407825979 L 806.7457541201783 731.79229686812 L 806.5204565284513 731.7569327338591 L 806.2959524859872 731.7205519161993 L 806.0722644430033 731.683158053192 L 805.8494147681174 731.6447548841921 L 805.6274257461113 731.6053462494849 L 805.4063195757022 731.5649360899008 L 805.1861183673228 731.5235284464221 L 804.9668441409107 731.4811274597787 L 804.7485188237055 731.4377373700339 L 804.531164248057 731.3933625161606 L 804.314802149242 731.348007335607 L 804.0994541632897 731.3016763638535 L 803.8851418248195 731.2543742339586 L 803.6718865648863 731.2061056760961 L 803.4597097088389 731.1568755170813 L 803.2486324741856 731.1066886798891 L 803.0386759684742 731.0555501831615 L 802.8298611871803 731.0034651407054 L 802.622209011608 730.9504387609819 L 802.4157402068018 730.8964763465847 L 802.2104754194702 730.8415832937101 L 802.0064351759207 730.7857650916177 L 801.8036398800077 730.7290273220814 L 801.602109811092 730.6713756588306 L 801.4018651220123 730.6128158669837 L 801.2029258370707 730.5533538024712 L 801.0053118500299 730.4929954114498 L 800.809042922124 730.4317467297084 L 800.6141386800822 730.3696138820641 L 800.4206186141663 730.3066030817499 L 800.2285020762215 730.2427206297934 L 800.0378082777418 730.1779729143865 L 799.8485562879478 730.1123664102468 L 799.6607650318808 730.0459076779699 L 799.4744532885102 729.9786033633738 L 799.2896396888548 729.9104601968339 L 799.1063427141207 729.84148499261 L 798.9245806938525 729.7716846481651 L 798.744371804101 729.7010661434754 L 798.5657340656047 729.6296365403325 L 798.3886853419888 729.5574029816372 L 798.2132433379779 729.4843726906853 L 798.0394255976265 729.410552970445 L 797.8672495025636 729.3359512028267 L 797.6967322702552 729.260574847945 L 797.5278909522826 729.1844314433727 L 797.3607424326367 729.1075286033866 L 797.1953034260304 729.0298740182069 L 797.0315904762261 728.9514754532272 L 796.8696199543829 728.8723407482388 L 796.7094080574176 728.792477816646 L 796.5509708063864 728.7118946446757 L 796.3943240448826 728.6305992905778 L 796.2394834374518 728.54859988382 L 796.0864644680255 728.4659046242746 L 795.9352824383732 728.3825217813987 L 795.7859524665719 728.298459693407 L 795.6384894854943 728.2137267664384 L 795.4929082413158 728.128331473715 L 795.3492232920394 728.0422823546946 L 795.2074490060402 727.9555880142178 L 795.0675995606288 727.8682571216461 L 794.929688940633 727.7802984099961 L 794.793730937 727.6917206750658 L 794.6597391454169 727.6025327745546 L 794.5277269649512 727.5127436271785 L 794.3977075967108 727.4223622117771 L 794.2696940425243 727.3313975664169 L 794.1436991036404 727.2398587874866 L 794.0197353794481 727.1477550287876 L 793.8978152662164 727.0550955006192 L 793.777950955855 726.9618894688571 L 793.6601544346951 726.8681462540266 L 793.5444374822906 726.7738752303711 L 793.4308116702404 726.6790858249145 L 793.319288361031 726.5837875165182 L 793.2098787069003 726.4879898349338 L 793.1025936487226 726.3917023598497 L 792.9974439149144 726.2949347199328 L 792.8944400203613 726.1976965918667 L 792.793592265367 726.0999976993832 L 792.6949107346229 726.0018478122901 L 792.5984052962 725.9032567454942 L 792.5040856005616 725.8042343580202 L 792.4119610795985 725.7047905520242 L 792.3220409456864 725.604935271804 L 792.2343341907634 725.5046785028044 L 792.1488495854321 725.4040302706187 L 792.0655956780819 725.3030006399863 L 791.9845807940338 725.2015997137861 L 791.905813034709 725.099837632026 L 791.8293002768178 724.9977245708297 L 791.755050171572 724.8952707414181 L 791.6830701439204 724.7924863890887 L 791.6133673918057 724.6893817921912 L 791.5459488854452 724.5859672610992 L 791.4808213666332 724.4822531371797 L 791.4179913480673 724.3782497917588 L 791.3574651126971 724.2739676250841 L 791.2992487130956 724.1694170652856 L 791.2433479708544 724.0646085673321 L 791.189768476001 723.9595526119859 L 791.1385155864401 723.8542597047553 L 791.0895944274183 723.748740374843 L 791.0430098910105 723.6430051740942 L 790.9987666356316 723.5370646759408 L 790.9568690855701 723.4309294743443 L 790.9173214305464 723.3246101827366 L 790.8801276252927 723.218117432958 L 790.8452913891589 723.1114618741949 L 790.8128162057392 723.0046541719144 L 790.7827053225252 722.8977050067974 L 790.7549617505799 722.7906250736715 L 790.7295882642376 722.6834250804408 L 790.7065874008256 722.5761157470151 L 790.6859614604111 722.4687078042386 L 790.667712505571 722.3612119928159 L 790.6518423611856 722.2536390622387 L 790.6383526142561 722.1459997697101 L 790.6272446137458 722.03830487907 L 790.6185194704458 721.9305651597175 L 790.6121780568628 721.8227913855349 L 790.6082210071332 721.7149943338096 L 790.6066487169585 721.6071847841572" stroke-miterlimit="10" stroke-width="2.7769845610000004" stroke-dasharray=""/></g><g><g/><text fill="black" stroke="none" font-family="monospace" font-size="11pt" font-style="normal" font-weight="normal" text-decoration="normal" x="779.2560145244859" y="670.019777202" text-anchor="start" dominant-baseline="alphabetic" xml:space="preserve">Database</text></g><g><path fill="white" stroke="gray" paint-order="fill stroke markers" d=" M 943.4616679563497 701.1220042852 A 24.2577769005 24.2577769005 0 1 1 943.4616558274623 701.0977465123424 M 893.5576218748498 727.6013688344999 L 944.8501602368498 727.6013688344999" stroke-miterlimit="10" stroke-width="2.7769845610000004" stroke-dasharray=""/></g><g><g/><text fill="black" stroke="none" font-family="monospace" font-size="11pt" font-style="normal" font-weight="normal" text-decoration="normal" x="875.2038910558498" y="670.019777202" text-anchor="start" dominant-baseline="alphabetic" xml:space="preserve">TwitterAPI</text></g></g><g><path fill="white" stroke="black" paint-order="fill stroke markers" d=" M 183.72814569068194 229.848875972 L 200.06334899068193 229.848875972 L 200.06334899068193 597.767916452 L 183.72814569068194 597.767916452 L 183.72814569068194 229.848875972" stroke-miterlimit="10" stroke-width="1.3612669416666667" stroke-dasharray=""/><path fill="white" stroke="black" paint-order="fill stroke markers" d=" M 465.0123872192125 273.953924882 L 481.3475905192125 273.953924882 L 481.3475905192125 553.662867542 L 465.0123872192125 553.662867542 L 465.0123872192125 273.953924882" stroke-miterlimit="10" stroke-width="1.3612669416666667" stroke-dasharray=""/><path fill="white" stroke="black" paint-order="fill stroke markers" d=" M 806.2884136374253 318.058973792 L 822.6236169374254 318.058973792 L 822.6236169374254 362.164022702 L 806.2884136374253 362.164022702 L 806.2884136374253 318.058973792" stroke-miterlimit="10" stroke-width="1.3612669416666667" stroke-dasharray=""/><path fill="white" stroke="black" paint-order="fill stroke markers" d=" M 674.5081387560614 406.269071612 L 690.8433420560615 406.269071612 L 690.8433420560615 494.479169432 L 674.5081387560614 494.479169432 L 674.5081387560614 406.269071612" stroke-miterlimit="10" stroke-width="1.3612669416666667" stroke-dasharray=""/><g><text fill="black" stroke="none" font-family="monospace" font-size="11pt" font-style="normal" font-weight="normal" text-decoration="normal" x="47.54787309813639" y="208.738767092" text-anchor="start" dominant-baseline="alphabetic" xml:space="preserve">Input Twitter</text><text fill="black" stroke="none" font-family="monospace" font-size="11pt" font-style="normal" font-weight="normal" text-decoration="normal" x="47.54787309813639" y="223.817416292" text-anchor="start" dominant-baseline="alphabetic" xml:space="preserve">account URL</text></g><g><path fill="none" stroke="black" paint-order="fill stroke markers" d=" M 25.76760203146973 229.848875972 L 170.27882830701526 229.848875972" stroke-miterlimit="10" stroke-width="1.3612669416666667" stroke-dasharray=""/><g transform="translate(183.72814569068194,229.848875972) translate(-183.72814569068194,-229.848875972)"><path fill="black" stroke="none" paint-order="stroke fill markers" d=" M 170.11547627401526 223.04254126366666 L 183.72814569068194 229.848875972 L 170.11547627401526 236.65521068033334 Z"/></g></g><g><text fill="black" stroke="none" font-family="monospace" font-size="11pt" font-style="normal" font-weight="normal" text-decoration="normal" x="244.53786810494717" y="267.922465202" text-anchor="start" dominant-baseline="alphabetic" xml:space="preserve">Request check result</text></g><g><path fill="none" stroke="black" paint-order="fill stroke markers" d=" M 200.06334899068193 273.953924882 L 451.56306983554583 273.953924882" stroke-miterlimit="10" stroke-width="1.3612669416666667" stroke-dasharray=""/><g transform="translate(465.0123872192125,273.953924882) translate(-465.0123872192125,-273.953924882)"><path fill="black" stroke="none" paint-order="stroke fill markers" d=" M 451.3997178025458 267.1475901736667 L 465.0123872192125 273.953924882 L 451.3997178025458 280.76025959033336 Z"/></g></g><g><text fill="black" stroke="none" font-family="monospace" font-size="11pt" font-style="normal" font-weight="normal" text-decoration="normal" x="573.4180005524399" y="312.02751411200006" text-anchor="start" dominant-baseline="alphabetic" xml:space="preserve">Get check result</text></g><g><path fill="none" stroke="black" paint-order="fill stroke markers" d=" M 481.3475905192125 318.058973792 L 792.8390962537586 318.058973792" stroke-miterlimit="10" stroke-width="1.3612669416666667" stroke-dasharray=""/><g transform="translate(806.2884136374253,318.058973792) translate(-806.2884136374253,-318.058973792)"><path fill="black" stroke="none" paint-order="stroke fill markers" d=" M 792.6757442207586 311.2526390836667 L 806.2884136374253 318.058973792 L 792.6757442207586 324.86530850033336 Z"/></g></g><g><text fill="black" stroke="none" font-family="monospace" font-size="11pt" font-style="normal" font-weight="normal" text-decoration="normal" x="586.6180013153794" y="356.132563022" text-anchor="start" dominant-baseline="alphabetic" xml:space="preserve">Return result</text></g><g><path fill="none" stroke="black" paint-order="fill stroke markers" d=" M 806.2884136374253 362.164022702 L 494.7969079028791 362.164022702" stroke-miterlimit="10" stroke-width="1.3612669416666667" stroke-dasharray="6.53408132"/><g transform="translate(481.3475905192125,362.164022702) translate(-481.3475905192125,-362.164022702)"><path fill="black" stroke="none" paint-order="stroke fill markers" d=" M 494.96025993587915 355.3576879936667 L 481.3475905192125 362.164022702 L 494.96025993587915 368.97035741033335 Z"/></g></g><g><text fill="black" stroke="none" font-family="monospace" font-size="11pt" font-style="normal" font-weight="normal" text-decoration="normal" x="503.12786158587915" y="400.23761193200005" text-anchor="start" dominant-baseline="alphabetic" xml:space="preserve">Get recent tweets</text></g><g><path fill="none" stroke="black" paint-order="fill stroke markers" d=" M 481.3475905192125 406.269071612 L 661.0588213723947 406.269071612" stroke-miterlimit="10" stroke-width="1.3612669416666667" stroke-dasharray=""/><g transform="translate(674.5081387560614,406.269071612) translate(-674.5081387560614,-406.269071612)"><path fill="black" stroke="none" paint-order="stroke fill markers" d=" M 660.8954693393947 399.46273690366667 L 674.5081387560614 406.269071612 L 660.8954693393947 413.07540632033334 Z"/></g></g><g><text fill="black" stroke="none" font-family="monospace" font-size="11pt" font-style="normal" font-weight="normal" text-decoration="normal" x="730.2236135041978" y="444.342660842" text-anchor="start" dominant-baseline="alphabetic" xml:space="preserve">Get recent tweets</text></g><g><path fill="none" stroke="black" paint-order="fill stroke markers" d=" M 690.8433420560615 450.374120522 L 905.7545736721831 450.374120522" stroke-miterlimit="10" stroke-width="1.3612669416666667" stroke-dasharray=""/><g transform="translate(919.2038910558498,450.374120522) translate(-919.2038910558498,-450.374120522)"><path fill="black" stroke="none" paint-order="stroke fill markers" d=" M 905.5912216391831 443.56778581366666 L 919.2038910558498 450.374120522 L 905.5912216391831 457.18045523033334 Z"/></g></g><g><text fill="black" stroke="none" font-family="monospace" font-size="11pt" font-style="normal" font-weight="normal" text-decoration="normal" x="520.7278638746975" y="488.44770975200004" text-anchor="start" dominant-baseline="alphabetic" xml:space="preserve">Return tweets</text></g><g><path fill="none" stroke="black" paint-order="fill stroke markers" d=" M 674.5081387560614 494.479169432 L 494.7969079028791 494.479169432" stroke-miterlimit="10" stroke-width="1.3612669416666667" stroke-dasharray="6.53408132"/><g transform="translate(481.3475905192125,494.479169432) translate(-481.3475905192125,-494.479169432)"><path fill="black" stroke="none" paint-order="stroke fill markers" d=" M 494.96025993587915 487.67283472366665 L 481.3475905192125 494.479169432 L 494.96025993587915 501.28550414033333 Z"/></g></g><g><text fill="black" stroke="none" font-family="monospace" font-size="11pt" font-style="normal" font-weight="normal" text-decoration="normal" x="240.13786657906826" y="532.552758662" text-anchor="start" dominant-baseline="alphabetic" xml:space="preserve">Return profile detail</text><text fill="black" stroke="none" font-family="monospace" font-size="11pt" font-style="normal" font-weight="normal" text-decoration="normal" x="240.13786657906826" y="547.631407862" text-anchor="start" dominant-baseline="alphabetic" xml:space="preserve">and result</text></g><g><path fill="none" stroke="black" paint-order="fill stroke markers" d=" M 465.0123872192125 553.662867542 L 213.5126663743486 553.662867542" stroke-miterlimit="10" stroke-width="1.3612669416666667" stroke-dasharray="6.53408132"/><g transform="translate(200.06334899068193,553.662867542) translate(-200.06334899068193,-553.662867542)"><path fill="black" stroke="none" paint-order="stroke fill markers" d=" M 213.6760184073486 546.8565328336666 L 200.06334899068193 553.662867542 L 213.6760184073486 560.4692022503333 Z"/></g></g><g><text fill="black" stroke="none" font-family="monospace" font-size="11pt" font-style="normal" font-weight="normal" text-decoration="normal" x="56.34787233519694" y="591.736456772" text-anchor="start" dominant-baseline="alphabetic" xml:space="preserve">Show result</text></g><g><path fill="none" stroke="black" paint-order="fill stroke markers" d=" M 183.72814569068194 597.767916452 L 39.216919415136395 597.767916452" stroke-miterlimit="10" stroke-width="1.3612669416666667" stroke-dasharray="6.53408132"/><g transform="translate(25.76760203146973,597.767916452) translate(-25.76760203146973,-597.767916452)"><path fill="black" stroke="none" paint-order="stroke fill markers" d=" M 39.3802714481364 590.9615817436667 L 25.76760203146973 597.767916452 L 39.3802714481364 604.5742511603333 Z"/></g></g></g><g/><g/><g/><g/><g/><g/></g></svg>