<svg version="1.1" xmlns="http://www.w3.org/2000/svg" xmlns:xlink="http://www.w3.org/1999/xlink" width="1126" height="955"><desc>%23%20-----%20font%20-----%0Afontfamily%20monospace%0A%0A%23%20-----%20setup%20components%20-----%0Atitle%20User%20check%20Twitter%20account%0Aactor%20%23blue%3A0.5%20User%0A%0Aparticipant%20%23orange%20Frontend%0Aparticipantgroup%20%23e4fcd9%20Backend%20API%0Aboundary%20%23green%3A0.7%20Endpoint%0Acontrol%20%23red%3A0.7%20Scraper%0Aend%0A%0Adatabase%20Database%20%23pink%0Aentity%20%23lightblue%3A2%20ML%20Service%0Aentity%20%23gray%20TwitterAPI%0A%0A%23%20-----%20to%20show%20bottom%20icons%20-----%0Abottomparticipants%0A%0A%23autoactivation%20on%0A%23%20-----%20START%20OF%20SEQUENCE%20-----%0AUser-%3EFrontend%3A%20Input%20Twitter%5Cnaccount%20URL%0Aactivate%20Frontend%0AFrontend-%3EEndpoint%3A%20Request%20check%20result%0Aactivate%20Endpoint%0AEndpoint-%3EDatabase%3A%20Get%20check%20result%0Aactivate%20Database%0A%0Aopt%20account%20not%20in%20database%0AEndpoint-%3EScraper%3A%20Fetch%20account%5Cninformation%0Aactivate%20Scraper%0AScraper-%3ETwitterAPI%3A%20Fetch%20account%5Cninformation%0AEndpoint%3C--Scraper%3A%20Account%20information%0Adeactivate%20Scraper%0AEndpoint-%3EML%20Service%3A%20Run%20model%20on%20account%0Aactivate%20ML%20Service%0AML%20Service--%3EEndpoint%3A%20Check%20result%0Adeactivate%20ML%20Service%0AEndpoint-%3EDatabase%3A%20Save%20check%20result%5Cnand%20account%20information%0Adeactivate%20Database%0Aend%0A%0AEndpoint--%3EFrontend%3A%20Check%20result%20and%5Cnaccount%20information%0Adeactivate%20Endpoint%0AFrontend--%3EUser%3A%20Show%20result%0Adeactivate%20Frontend%0A%23%20-----%20END%20OF%20SEQUENCE%20-----</desc><defs/><g><g/><g/><g/><g/><g/><g/><g/><g/><g/><g/><g/><g/><g/><g/><g/><g/><g/><g><rect fill="white" stroke="none" x="0" y="0" width="1126" height="955"/></g><g><text fill="black" stroke="none" font-family="monospace" font-size="16.5pt" font-style="normal" font-weight="normal" text-decoration="normal" x="391.8012035534539" y="22.617973800000005" text-anchor="start" dominant-baseline="alphabetic" xml:space="preserve">User check Twitter account</text></g><g><g><path fill="#e4fcd9" stroke="black" paint-order="fill stroke markers" d=" M 421.0123834045152 48.50927103050001 L 730.4433290860908 48.50927103050001 L 730.4433290860908 947.2156116620004 L 421.0123834045152 947.2156116620004 L 421.0123834045152 48.50927103050001" stroke-miterlimit="10" stroke-width="1.3612669416666667" stroke-dasharray=""/></g><g><text fill="black" stroke="none" font-family="monospace" font-size="11pt" font-style="normal" font-weight="normal" text-decoration="normal" x="527.3278547194241" y="70.24765696050001" text-anchor="start" dominant-baseline="alphabetic" xml:space="preserve">Backend API</text></g></g><g><path fill="none" stroke="black" paint-order="fill stroke markers" d=" M 25.76760203146973 162.497576212 L 25.76760203146973 856.9950272820004" stroke-miterlimit="10" stroke-width="1.3612669416666667" stroke-dasharray="12.565541,5.445067766666667"/><path fill="none" stroke="black" paint-order="fill stroke markers" d=" M 191.89574734068194 162.497576212 L 191.89574734068194 856.9950272820004" stroke-miterlimit="10" stroke-width="1.3612669416666667" stroke-dasharray="12.565541,5.445067766666667"/><path fill="none" stroke="black" paint-order="fill stroke markers" d=" M 464.37998581745467 162.497576212 L 464.37998581745467 856.9950272820004" stroke-miterlimit="10" stroke-width="1.3612669416666667" stroke-dasharray="12.565541,5.445067766666667"/><path fill="none" stroke="black" paint-order="fill stroke markers" d=" M 691.4757281990302 162.497576212 L 691.4757281990302 856.9950272820004" stroke-miterlimit="10" stroke-width="1.3612669416666667" stroke-dasharray="12.565541,5.445067766666667"/><path fill="none" stroke="black" paint-order="fill stroke markers" d=" M 853.4235971009996 162.497576212 L 853.4235971009996 856.9950272820004" stroke-miterlimit="10" stroke-width="1.3612669416666667" stroke-dasharray="12.565541,5.445067766666667"/><path fill="none" stroke="black" paint-order="fill stroke markers" d=" M 948.958801163939 162.497576212 L 948.958801163939 856.9950272820004" stroke-miterlimit="10" stroke-width="1.3612669416666667" stroke-dasharray="12.565541,5.445067766666667"/><path fill="none" stroke="black" paint-order="fill stroke markers" d=" M 1053.294004463939 162.497576212 L 1053.294004463939 856.9950272820004" stroke-miterlimit="10" stroke-width="1.3612669416666667" stroke-dasharray="12.565541,5.445067766666667"/></g><g><g><path fill="white" stroke="blue" paint-order="fill stroke markers" d=" M 35.078667912469726 94.65622035300002 A 9.311065881 9.311065881 0 1 1 35.078663256937176 94.64690928867086 M 25.76760203146973 103.96728623400001 L 25.76760203146973 123.89623426000001 M 14.00625565546973 111.15477568600002 L 37.52894840746973 111.15477568600002 M 25.76760203146973 123.89623426000001 L 14.00625565546973 142.518366022 M 25.76760203146973 123.89623426000001 L 37.52894840746973 142.518366022" stroke-miterlimit="10" stroke-width="1.3884922805000002" stroke-dasharray=""/></g><g><g/><text fill="black" stroke="none" font-family="monospace" font-size="11pt" font-style="normal" font-weight="normal" text-decoration="normal" x="8.167601650000002" y="157.597015222" text-anchor="start" dominant-baseline="alphabetic" xml:space="preserve">User</text></g><path fill="none" stroke="none"/><g><path fill="white" stroke="orange" paint-order="fill stroke markers" d=" M 138.9720509972425 119.64908140200002 L 244.8194436841214 119.64908140200002 L 244.8194436841214 162.497576212 L 138.9720509972425 162.497576212 L 138.9720509972425 119.64908140200002 Z" stroke-miterlimit="10" stroke-width="2.613632528" stroke-dasharray=""/></g><g><g/><text fill="black" stroke="none" font-family="monospace" font-size="11pt" font-style="normal" font-weight="normal" text-decoration="normal" x="156.69574657774248" y="146.16237291200002" text-anchor="start" dominant-baseline="alphabetic" xml:space="preserve">Frontend</text></g><g><path fill="white" stroke="green" paint-order="fill stroke markers" d=" M 496.80536436795467 116.872096841 A 24.2577769005 24.2577769005 0 1 1 496.80535223906725 116.84783906814245 M 432.92655186330467 91.64237534415 L 432.92655186330467 142.10181833785 M 431.95460726695467 116.872096841 L 448.28981056695466 116.872096841" stroke-miterlimit="10" stroke-width="1.9438891927000002" stroke-dasharray=""/></g><g><g/><text fill="black" stroke="none" font-family="monospace" font-size="11pt" font-style="normal" font-weight="normal" text-decoration="normal" x="429.1799850545152" y="157.597015222" text-anchor="start" dominant-baseline="alphabetic" xml:space="preserve">Endpoint</text></g><g><path fill="white" stroke="red" paint-order="fill stroke markers" d=" M 715.7335050995301 116.872096841 A 24.2577769005 24.2577769005 0 1 1 715.7334929706427 116.84783906814245 M 688.2086875390302 92.6143199405 L 698.0098095190301 84.4467182905 M 688.2086875390302 92.6143199405 L 698.0098095190301 100.78192159049999" stroke-miterlimit="10" stroke-width="1.9438891927000002" stroke-dasharray=""/></g><g><g/><text fill="black" stroke="none" font-family="monospace" font-size="11pt" font-style="normal" font-weight="normal" text-decoration="normal" x="660.6757289619696" y="157.597015222" text-anchor="start" dominant-baseline="alphabetic" xml:space="preserve">Scraper</text></g><g><path fill="pink" stroke="black" paint-order="fill stroke markers" d=" M 829.5742002829996 131.737131844 L 829.5742002829996 97.43320491400002 L 877.2729939189995 97.43320491400002 L 877.2729939189995 131.737131844" stroke-miterlimit="10" stroke-width="2.7769845610000004" stroke-dasharray=""/><path fill="pink" stroke="black" paint-order="fill stroke markers" d=" M 877.2729939189995 96.24073507310001 L 877.2718014590959 96.34854561801663 L 877.2682241986298 96.4563453819686 L 877.2622624953245 96.56412358506937 L 877.2539169453452 96.67186944958841 L 877.24318838324 96.7795722010291 L 877.2300778818561 96.88722106920602 L 877.2145867522329 96.99480528932206 L 877.1967165434703 97.10231410304486 L 877.1764690425742 97.20973675958267 L 877.1538462742781 97.31706251675931 L 877.1288505008397 97.42428064208853 L 877.1014842218157 97.53138041384713 L 877.0717501738111 97.6383511221472 L 877.039651330206 97.74518207000703 L 877.0051909008579 97.85186257442088 L 876.9683723317811 97.95838196742719 L 876.9291993048017 98.06472959717544 L 876.88767573719 98.17089482899127 L 876.843805781268 98.27686704643997 L 876.7975938239946 98.38263565238812 L 876.7490444865273 98.48819007006324 L 876.6981626237592 98.59351974411153 L 876.6449533238343 98.69861414165338 L 876.5894219076381 98.8034627533366 L 876.5315739282661 98.9080550943874 L 876.4714151704679 99.01238070565881 L 876.4089516500693 99.11642915467668 L 876.3441896133701 99.2201900366828 L 876.2771355365201 99.32365297567542 L 876.2077961248712 99.42680762544687 L 876.1361783123065 99.52964367061814 L 876.0622892605478 99.63215082767042 L 875.9861363584388 99.73431884597339 L 875.907727221206 99.8361375088104 L 875.8270696896979 99.9375966344 L 875.7441718296004 100.03868607691416 L 875.6590419306306 100.1393957274929 L 875.5716885057071 100.23971551525507 L 875.4821202900999 100.3396354083055 L 875.3903462405559 100.43914541473814 L 875.2963755344035 100.53823558363528 L 875.2002175686349 100.63689600606261 L 875.1018819589668 100.73511681606011 L 875.001378538878 100.83288819162861 L 874.8987173586269 100.93020035571203 L 874.7939086842458 101.02704357717508 L 874.6869629965149 101.12340817177629 L 874.577890989914 101.2192845031365 L 874.4667035715527 101.3146629837025 L 874.3534118600801 101.40953407570571 L 874.2380271845732 101.50388829211596 L 874.1205610834031 101.59771619759026 L 874.0010253030822 101.69100840941624 L 873.879431797089 101.78375559845048 L 873.7557927246726 101.87594849005134 L 873.6301204496372 101.96757786500652 L 873.5024275391057 102.05863456045485 L 873.3727267622627 102.14910947080267 L 873.2410310890778 102.23899354863435 L 873.1073536890085 102.32827780561702 L 872.9717079296836 102.41695331339938 L 872.8341073755657 102.50501120450453 L 872.6945657865958 102.59244267321675 L 872.5530971168165 102.67923897646203 L 872.4097155129767 102.76539143468239 L 872.2644353131176 102.85089143270376 L 872.1172710451377 102.93573042059764 L 871.9682374253416 103.0198999145359 L 871.8173493569667 103.10339149763931 L 871.6646219286944 103.18619682081912 L 871.51007041314 103.26830760361203 L 871.3537102653266 103.34971563500818 L 871.1955571211383 103.43041277427227 L 871.035626795758 103.51039095175761 L 870.8739352820849 103.58964216971313 L 870.7104987491356 103.66815850308305 L 870.545333540427 103.74593210029946 L 870.3784561723427 103.82295518406747 L 870.2098833324802 103.89922005214288 L 870.0396318779831 103.97471907810242 L 869.867718833855 104.04944471210644 L 869.6941613912569 104.12338948165379 L 869.5189769057886 104.19654599232915 L 869.3421828957526 104.26890692854239 L 869.1637970404025 104.34046505426022 L 868.9838371781752 104.4112132137297 L 868.8023213049072 104.4811443321938 L 868.6192675720342 104.55025141659898 L 868.4346942847773 104.6185275562944 L 868.248619900311 104.68596592372296 L 868.0610630259191 104.75255977510412 L 867.8720424171324 104.81830245110825 L 867.6815769758546 104.88318737752253 L 867.4896857484707 104.94720806590838 L 867.2963879239439 105.01035811425034 L 867.1017028318954 105.07263120759616 L 866.9056499406722 105.13402111868842 L 866.7082488554 105.19452170858717 L 866.509519316023 105.25412692728385 L 866.3094811953292 105.31283081430622 L 866.1081544969643 105.37062749931455 L 865.9055593534302 105.42751120268846 L 865.7017160240724 105.48347623610503 L 865.4966448930542 105.53851700310757 L 865.2903664673174 105.59262799966524 L 865.0829013745331 105.64580381472345 L 864.8742703610374 105.69803913074504 L 864.664494289758 105.74932872424193 L 864.453594138127 105.7996674662975 L 864.2415909959839 105.84905032307951 L 864.0285060634662 105.89747235634343 L 863.8143606488899 105.94492872392627 L 863.5991761666176 105.99141468023082 L 863.3829741349183 106.03692557670021 L 863.1657761738152 106.08145686228269 L 862.9476040029232 106.12500408388684 L 862.7284794392776 106.16756288682677 L 862.5084243951522 106.20912901525766 L 862.2874608758682 106.2496983126013 L 862.0656109775932 106.28926672196175 L 861.8428968851322 106.32783028653108 L 861.6193408697087 106.36538514998495 L 861.3949652867383 106.4019275568683 L 861.169792573592 106.43745385297092 L 860.9438452473536 106.47196048569278 L 860.7171459025674 106.50544400439938 L 860.489717208979 106.53790106076674 L 860.2615819092681 106.56932840911628 L 860.0327628167748 106.59972290673934 L 859.8032828132175 106.62908151421152 L 859.5731648464055 106.6574012956965 L 859.3424319279434 106.68467941923974 L 859.111107130931 106.71091315705164 L 858.8792135876552 106.73609988578026 L 858.6467744872771 106.76023708677371 L 858.413813073513 106.78332234633203 L 858.18035264231 106.80535335594848 L 857.946416539517 106.82632791254046 L 857.7120281585491 106.8462439186698 L 857.4772109380491 106.86509938275248 L 857.2419883595435 106.88289241925779 L 857.0063839450938 106.89962124889692 L 856.7704212549455 106.91528419880086 L 856.5341238851709 106.92987970268764 L 856.2975154653099 106.94340630101907 L 856.0606196560072 106.95586264114657 L 855.8234601466468 106.96724747744649 L 855.5860606529816 106.97755967144472 L 855.3484449147631 106.98679819193043 L 855.1106366933675 106.9949621150593 L 854.8726597694184 107.00205062444579 L 854.63453794041 107.00806301124487 L 854.3962950183269 107.01299867422289 L 854.1579548272625 107.01685711981764 L 853.9195412010375 107.0196379621878 L 853.6810779808158 107.02134092325144 L 853.4425890127206 107.02196583271387 L 853.2040981454501 107.02151262808466 L 852.9656292278922 107.01998135468392 L 852.72720610674 107.0173721656377 L 852.488852624107 107.01368532186271 L 852.2505926151426 107.00892119204028 L 852.0124499056494 107.00308025257941 L 851.7744483096998 106.99616308756919 L 851.536611627255 106.98817038872035 L 851.298963641785 106.9791029552961 L 851.0615281178905 106.96896169403226 L 850.8243287989258 106.95774761904647 L 850.5873894046254 106.94546185173691 L 850.3507336287311 106.93210562067006 L 850.1143851366232 106.91768026145789 L 849.8783675629542 106.90218721662433 L 849.6427045092846 106.88562803546091 L 849.4074195417235 106.86800437387197 L 849.1725361885715 106.84931799420899 L 848.9380779379682 106.82957076509436 L 848.7040682355433 106.80876466123452 L 848.4705304820719 106.78690176322253 L 848.2374880311351 106.76398425732997 L 848.0049641867834 106.74001443528833 L 847.7729822012075 106.71499469405985 L 847.5415652724129 106.6889275355978 L 847.3107365418994 106.66181556659627 L 847.0805190923478 106.63366149822963 L 846.8509359453112 106.6044681458812 L 846.6220100589129 106.57423842886192 L 846.3937643255509 106.54297537011827 L 846.1662215696083 106.5106820959301 L 845.939404545171 106.4773618355979 L 845.7133359337525 106.44301792111996 L 845.4880383420256 106.40765378685909 L 845.2635342995615 106.37127296919923 L 845.0398462565776 106.33387910619186 L 844.8169965816917 106.29547593719211 L 844.5950075596855 106.25606730248487 L 844.3739013892765 106.21565714290077 L 844.1537001808971 106.17424949942209 L 843.9344259544849 106.13184851277869 L 843.7161006372797 106.08845842303388 L 843.4987460616313 106.0440835691605 L 843.2823839628163 105.99872838860693 L 843.067035976864 105.95239741685346 L 842.8527236383937 105.90509528695863 L 842.6394683784606 105.85682672909601 L 842.4272915224132 105.80759657008119 L 842.2162142877598 105.75740973288903 L 842.0062577820485 105.70627123616141 L 841.7974430007546 105.65418619370543 L 841.5897908251823 105.6011598139819 L 841.3833220203761 105.54719739958459 L 841.1780572330445 105.49230434671 L 840.974016989495 105.43648614461767 L 840.771221693582 105.37974837508128 L 840.5696916246662 105.32209671183051 L 840.3694469355866 105.26353691998366 L 840.1705076506449 105.20407485547109 L 839.9728936636042 105.14371646444971 L 839.7766247356983 105.0824677827083 L 839.5817204936565 105.02033493506404 L 839.3882004277406 104.95732413474988 L 839.1960838897958 104.89344168279337 L 839.005390091316 104.82869396738644 L 838.816138101522 104.76308746324669 L 838.6283468454551 104.69662873096988 L 838.4420351020844 104.62932441637382 L 838.257221502429 104.56118124983391 L 838.073924527695 104.49220604561 L 837.8921625074267 104.42240570116505 L 837.7119536176752 104.35178719647531 L 837.533315879179 104.28035759333244 L 837.356267155563 104.20812403463721 L 837.1808251515522 104.13509374368529 L 837.0070074112008 104.06127402344492 L 836.8348313161379 103.98667225582662 L 836.6643140838295 103.91129590094496 L 836.4954727658569 103.83515249637263 L 836.328324246211 103.75824965638664 L 836.1628852396046 103.6805950712069 L 835.9991722898004 103.6021965062272 L 835.8372017679571 103.52306180123873 L 835.6769898709919 103.44319886964601 L 835.5185526199607 103.3626156976757 L 835.3619058584569 103.28132034357779 L 835.207065251026 103.19932093681997 L 835.0540462815998 103.11662567727458 L 834.9028642519474 103.03324283439866 L 834.7535342801461 102.94918074640702 L 834.6060712990686 102.86444781943841 L 834.4604900548901 102.7790525267149 L 834.3168051056136 102.6930034076946 L 834.1750308196144 102.60630906721774 L 834.035181374203 102.51897817464607 L 833.8972707542073 102.4310194629961 L 833.7613127505742 102.34244172806571 L 833.6273209589912 102.25325382755454 L 833.4953087785254 102.16346468017835 L 833.3652894102851 102.07308326477704 L 833.2372758560986 101.98211861941685 L 833.1112809172147 101.89057984048648 L 832.9873171930224 101.79847608178757 L 832.8653970797907 101.70581655361923 L 832.7455327694292 101.61261052185705 L 832.6277362482693 101.51886730702655 L 832.5120192958649 101.42459628337107 L 832.3983934838146 101.32980687791445 L 832.2868701746053 101.23450856951823 L 832.1774605204746 101.13871088793383 L 832.0701754622969 101.04242341284956 L 831.9650257284886 100.94565577293272 L 831.8620218339356 100.84841764486666 L 831.7611740789413 100.75071875238314 L 831.6624925481972 100.65256886529 L 831.5659871097743 100.55397779849415 L 831.4716674141358 100.45495541102012 L 831.3795428931728 100.35551160502415 L 831.2896227592606 100.25565632480394 L 831.2019160043377 100.15539955580432 L 831.1164313990064 100.05475132361865 L 831.0331774916561 99.95372169298625 L 830.9521626076081 99.85232076678601 L 830.8733948482833 99.75055868502605 L 830.796882090392 99.64844562382973 L 830.7226319851462 99.5459917944181 L 830.6506519574947 99.4432074420887 L 830.58094920538 99.34010284519113 L 830.5135306990195 99.23668831409914 L 830.4484031802075 99.13297419017968 L 830.3855731616416 99.02897084475869 L 830.3250469262714 98.92468867808407 L 830.2668305266699 98.82013811828556 L 830.2109297844287 98.71532962033203 L 830.1573502895752 98.61027366498594 L 830.1060974000144 98.50498075775526 L 830.0571762409926 98.39946142784298 L 830.0105917045847 98.29372622709415 L 829.9663484492058 98.18778572894077 L 829.9244508991444 98.08165052734432 L 829.8849032441207 97.97533123573653 L 829.847709438867 97.868838485958 L 829.8128732027332 97.7621829271949 L 829.7803980193135 97.65537522491428 L 829.7502871360995 97.54842605979732 L 829.7225435641542 97.44134612667145 L 829.6971700778118 97.33414613344073 L 829.6741692143999 97.22683680001514 L 829.6535432739854 97.1194288572386 L 829.6352943191453 97.0119330458159 L 829.6194241747598 96.90436011523857 L 829.6059344278303 96.79672082271007 L 829.5948264273201 96.68902593206992 L 829.5861012840201 96.58128621271746 L 829.5797598704371 96.47351243853481 L 829.5758028207075 96.36571538680961 L 829.5742305305328 96.25790583715718 L 829.5750431571407 96.15009457044266 L 829.5782406192693 96.04229236770287 L 829.583822597175 95.93451000906825 L 829.5917885326646 95.82675827268484 L 829.6021376291513 95.7190479336365 L 829.6148688517342 95.61138976286738 L 829.6299809273013 95.50379452610481 L 829.6474723446579 95.39627298278283 L 829.6673413546766 95.28883588496618 L 829.6895859704733 95.18149397627508 L 829.7142039676048 95.07425799081098 L 829.7411928842918 94.96713865208302 L 829.7705500216651 94.86014667193587 L 829.8022724440357 94.75329274947832 L 829.8363569791876 94.64658757001362 L 829.8728002186956 94.54004180397077 L 829.9115985182664 94.43366610583759 L 829.952747998102 94.32747111309526 L 829.9962445432891 94.22146744515454 L 830.0420838042091 94.1156657022939 L 830.0902611969743 94.01007646459945 L 830.1407719038856 93.90471029090699 L 830.1936108739142 93.79957771774606 L 830.2487728232073 93.69468925828637 L 830.306252235616 93.59005540128646 L 830.3660433632467 93.48568661004485 L 830.4281402270366 93.38159332135368 L 830.4925366173511 93.27778594445506 L 830.5592260946049 93.1742748600002 L 830.6282019899057 93.07107041901128 L 830.6994574057215 92.96818294184638 L 830.7729852165702 92.86562271716748 L 830.8487780697318 92.7634000009116 L 830.9268283859842 92.66152501526518 L 831.007128360361 92.56000794764186 L 831.0896699629313 92.45885894966383 L 831.1744449396041 92.35808813614659 L 831.261444812952 92.25770558408753 L 831.3506608830604 92.15772133165818 L 831.4420842283965 92.05814537720047 L 831.5357057067021 91.95898767822688 L 831.631515955907 91.86025815042466 L 831.7295053950667 91.76196666666432 L 831.8296642253185 91.66412305601233 L 831.9319824308631 91.56673710274822 L 832.0364497799649 91.46981854538616 L 832.1430558259764 91.37337707570111 L 832.2517899083816 91.2774223377597 L 832.3626411538629 91.18196392695573 L 832.4755984773883 91.08701138905076 L 832.5906505833194 90.99257421921942 L 832.7077859665416 90.89866186110004 L 832.8269929136139 90.80528370585013 L 832.9482595039414 90.71244909120742 L 833.0715736109657 90.620167300556 L 833.1969229033792 90.52844756199806 L 833.3242948463569 90.437299047431 L 833.4536767028108 90.34673087163033 L 833.5850555346628 90.25675209133814 L 833.7184182041394 90.1673717043575 L 833.8537513750848 90.07859864865262 L 833.9910415142947 89.99044180145509 L 834.1302748928695 89.90290997837616 L 834.2714375875873 89.81601193252519 L 834.4145154822965 89.72975635363437 L 834.5594942693266 89.64415186718969 L 834.7063594509199 89.55920703356847 L 834.8550963406806 89.47493034718329 L 835.0056900650435 89.39133023563254 L 835.1581255647619 89.30841505885772 L 835.3123875964127 89.22619310830741 L 835.4684607339213 89.14467260610814 L 835.6263293701041 89.06386170424221 L 835.7859777182291 88.98376848373246 L 835.9473898135942 88.9044009538342 L 836.1105495151247 88.82576705123427 L 836.2754405069862 88.7478746392574 L 836.4420463002172 88.67073150707989 L 836.6103502343769 88.59434536895068 L 836.7803354792122 88.5187238634199 L 836.9519850363405 88.4438745525751 L 837.1252817409489 88.369804921285 L 837.3002082635114 88.29652237645098 L 837.4767471115216 88.22403424626648 L 837.6548806312417 88.1523477794841 L 837.8345910094682 88.08147014469078 L 838.0158602753131 88.01140842959094 L 838.1986703020008 87.94216964029769 L 838.383002808681 87.87376070063229 L 838.5688393622568 87.80618845143167 L 838.7561613792274 87.73945964986444 L 838.9449501275473 87.67358096875519 L 839.1351867284991 87.60855899591708 L 839.3268521585812 87.54440023349323 L 839.5199272514103 87.48111109730644 L 839.714392699638 87.41869791621755 L 839.9102290568816 87.35716693149269 L 840.1074167396683 87.29652429617903 L 840.3059360293946 87.23677607448957 L 840.5057670742966 87.17792824119671 L 840.7068898914364 87.11998668103473 L 840.9092843687 87.06295718811135 L 841.1129302668083 87.00684546532835 L 841.3178072213411 86.95165712381124 L 841.5238947447738 86.89739768234818 L 841.7311722285257 86.84407256683812 L 841.9396189450212 86.79168710974815 L 842.1492140497623 86.74024654958035 L 842.3599365834133 86.68975603034785 L 842.5717654738963 86.64022060106049 L 842.784679538499 86.59164521521994 L 842.9986574859921 86.5440347303243 L 843.2136779187593 86.49739390738237 L 843.4297193349365 86.4517274104376 L 843.646760130562 86.40703980610161 L 843.8647786017374 86.3633355630976 L 844.083752946797 86.32061905181345 L 844.3036612684887 86.27889454386471 L 844.5244815761639 86.23816621166738 L 844.7461917879756 86.19843812802074 L 844.9687697330875 86.15971426570005 L 845.1921931538905 86.12199849705928 L 845.4164397082286 86.08529459364387 L 845.6414869716335 86.04960622581356 L 845.8673124395663 86.0149369623754 L 846.0938935296683 85.98129027022685 L 846.3212075840195 85.94866951400907 L 846.5492318714035 85.91707795577051 L 846.777943589582 85.88651875464066 L 847.0073198675736 85.85699496651418 L 847.2373377679418 85.82850954374526 L 847.4679742890879 85.80106533485245 L 847.6992063675523 85.77466508423377 L 847.9310108803196 85.7493114318923 L 848.163364647132 85.7250069131721 L 848.3962444328062 85.70175395850482 L 848.6296269495577 85.67955489316655 L 848.8634888593295 85.65841193704532 L 849.0978067761254 85.63832720441913 L 849.3325572683489 85.61930270374448 L 849.5677168611464 85.60134033745561 L 849.8032620387548 85.58444190177417 L 850.0391692468525 85.56860908652965 L 850.2754148949152 85.55384347499039 L 850.511975358575 85.5401465437052 L 850.7488269819828 85.52751966235584 L 850.9859460801734 85.51596409361991 L 851.2233089414349 85.50548099304464 L 851.4608918296786 85.49607140893136 L 851.6986709868139 85.48773628223064 L 851.9366226351233 85.48047644644821 L 852.17472297964 85.4742926275616 L 852.4129482105282 85.46918544394751 L 852.6512745054632 85.4651554063201 L 852.8896780320142 85.46220291767973 L 853.1281349500271 85.46032827327284 L 853.3666214140089 85.45953166056228 L 853.605113575512 85.45981315920866 L 853.8435875855188 85.46117274106237 L 854.0820195968272 85.46361027016634 L 854.3203857664347 85.4671255027697 L 854.558662257923 85.47171808735212 L 854.7968252438415 85.47738756465895 L 855.03485090809 85.4841333677472 L 855.2727154483005 85.49195482204219 L 855.5103950782171 85.500851145405 L 855.7478660300752 85.51082144821069 L 855.9851045569771 85.52186473343731 L 856.2220869352681 85.53397989676554 L 856.4587894669077 85.54716572668913 L 856.69518848184 85.5614209046361 L 856.9312603403606 85.5767440051005 L 857.1669814354802 85.59313349578507 L 857.4023281952859 85.6105877377544 L 857.6372770852978 85.62910498559884 L 857.8718046108226 85.64868338760904 L 858.1058873193033 85.66932098596111 L 858.339501802664 85.6910157169124 L 858.5726246996511 85.71376541100791 L 858.8052326981692 85.73756779329719 L 859.0373025376123 85.76242048356184 L 859.2688110111898 85.78832099655354 L 859.4997349682473 85.81526674224258 L 859.7300513165815 85.84325502607685 L 859.9597370247494 85.87228304925127 L 860.1887691243718 85.90234790898774 L 860.4171247124294 85.93344659882531 L 860.6447809535539 85.96557600892095 L 860.8717150823106 85.99873292636039 L 861.097904405476 86.03291403547954 L 861.3233263043063 86.06811591819596 L 861.5479582367992 86.10433505435071 L 861.7717777399489 86.14156782206037 L 861.9947624319915 86.17981049807918 L 862.2168900146435 86.21905925817143 L 862.438138275332 86.25931017749379 L 862.6584850894151 86.30055923098789 L 862.877908422395 86.34280229378275 L 863.0963863321214 86.3860351416073 L 863.3138969709853 86.43025345121276 L 863.5304185881041 86.47545280080504 L 863.7459295314965 86.52162867048685 L 863.9604082502477 86.56877644270969 L 864.1738332966647 86.61689140273562 L 864.3861833284207 86.66596873910875 L 864.5974371106894 86.71600354413634 L 864.8075735182686 86.76699081437957 L 865.0165715376926 86.81892545115392 L 865.2244102693338 86.87180226103897 L 865.4310689294921 86.9256159563978 L 865.6365268524738 86.98036115590575 L 865.8407634926577 87.03603238508846 L 866.0437584265501 87.0926240768694 L 866.2454913548266 87.15013057212657 L 866.4459421043628 87.20854612025836 L 866.6450906302504 87.26786487975863 L 866.842917017803 87.32808091880088 L 867.0394014845466 87.38918821583137 L 867.2345243821984 87.45118066017132 L 867.4282661986311 87.51405205262795 L 867.6206075598245 87.57779610611442 L 867.811529231803 87.6424064462785 L 868.0010121225581 87.70787661214001 L 868.189037283959 87.77420005673692 L 868.3755859136461 87.84137014778005 L 868.5606393569118 87.90938016831626 L 868.7441791085661 87.97822331740018 L 868.9261868147868 88.04789271077426 L 869.1066442749549 88.11838138155724 L 869.2855334434747 88.18968228094076 L 869.4628364315785 88.2617882788943 L 869.6385355091153 88.33469216487818 L 869.8126131063236 88.40838664856452 L 869.9850518155889 88.48286436056638 L 870.1558343931839 88.55811785317462 L 870.3249437609932 88.6341396011027 L 870.4923630082208 88.71092200223917 L 870.6580753930816 88.7884573784079 L 870.8220643444753 88.8667379761359 L 870.9843134636433 88.9457559674286 L 871.1448065258089 89.02550345055275 L 871.3035274817997 89.10597245082647 L 871.4604604596523 89.1871549214168 L 871.6155897661996 89.26904274414436 L 871.7688998886405 89.35162773029508 L 871.9203754960902 89.43490162143917 L 872.0700014411143 89.51885609025692 L 872.2177627612431 89.60348274137141 L 872.3636446804676 89.68877311218804 L 872.5076326107175 89.77471867374081 L 872.6497121533197 89.8613108315452 L 872.7898691004384 89.94854092645757 L 872.9280894364956 90.03640023554112 L 873.064359339573 90.12487997293817 L 873.1986651827938 90.2139712907487 L 873.3309935356856 90.3036652799152 L 873.4613311655232 90.39395297111345 L 873.5896650386526 90.48482533564962 L 873.7159823217933 90.57627328636293 L 873.8402703833219 90.66828767853457 L 873.9625167945363 90.76085931080198 L 874.082709330897 90.85397892607905 L 874.2008359732507 90.94763721248188 L 874.3168849090314 91.04182480425987 L 874.4308445334423 91.13653228273235 L 874.5427034506159 91.23175017723037 L 874.6524504747538 91.32746896604384 L 874.760074631245 91.42367907737363 L 874.8655651577634 91.5203708902888 L 874.9689115053444 91.61753473568862 L 875.0701033394394 91.71516089726953 L 875.1691305409493 91.81323961249673 L 875.2659832072362 91.91176107358042 L 875.3606516531146 92.01071542845659 L 875.4531264118185 92.11009278177222 L 875.5433982359493 92.20988319587481 L 875.6314580983997 92.31007669180607 L 875.7172971932567 92.41066325029993 L 875.8009069366827 92.51163281278436 L 875.8822789677727 92.61297528238724 L 875.9614051493916 92.71468052494606 L 876.038277568987 92.81673837002134 L 876.1128885393812 92.9191386119136 L 876.1852305995392 93.02187101068398 L 876.2552965153154 93.12492529317824 L 876.3230792801764 93.22829115405399 L 876.3885721159024 93.33195825681128 L 876.4517684732643 93.43591623482622 L 876.512662032679 93.54015469238766 L 876.5712467048414 93.64466320573669 L 876.627516631333 93.74943132410907 L 876.6814661852083 93.85444857078026 L 876.7330899715565 93.95970444411313 L 876.7823828280422 94.06518841860805 L 876.8293398254208 94.17088994595545 L 876.8739562680316 94.27679845609072 L 876.9162276942677 94.38290335825107 L 876.9561498770215 94.48919404203473 L 876.9937188241082 94.59565987846186 L 877.0289307786642 94.70229022103757 L 877.0617822195236 94.80907440681646 L 877.0922698615694 94.91600175746893 L 877.1203906560631 95.02306158034904 L 877.1461417909485 95.13024316956367 L 877.1695206911337 95.23753580704327 L 877.190525018748 95.34492876361347 L 877.2091526733763 95.4524113000681 L 877.2254017922685 95.55997266824312 L 877.2392707505264 95.66760211209133 L 877.2507581612657 95.77528886875801 L 877.2598628757548 95.88302216965727 L 877.26658398353 95.99079124154878 L 877.270920812486 96.09858530761515 L 877.2728729289436 96.20639358853963 M 877.2729939189995 130.5446620031 L 877.2718014590959 130.65247254801662 L 877.2682241986298 130.7602723119686 L 877.2622624953245 130.86805051506934 L 877.2539169453452 130.97579637958842 L 877.24318838324 131.08349913102907 L 877.2300778818561 131.191147999206 L 877.2145867522329 131.29873221932203 L 877.1967165434703 131.40624103304486 L 877.1764690425742 131.51366368958264 L 877.1538462742781 131.6209894467593 L 877.1288505008397 131.7282075720885 L 877.1014842218157 131.83530734384712 L 877.0717501738111 131.94227805214717 L 877.039651330206 132.049109000007 L 877.0051909008579 132.15578950442085 L 876.9683723317811 132.26230889742718 L 876.9291993048017 132.36865652717543 L 876.88767573719 132.47482175899125 L 876.843805781268 132.58079397643996 L 876.7975938239946 132.6865625823881 L 876.7490444865273 132.79211700006323 L 876.6981626237592 132.89744667411154 L 876.6449533238343 133.00254107165338 L 876.5894219076381 133.10738968333658 L 876.5315739282661 133.2119820243874 L 876.4714151704679 133.3163076356588 L 876.4089516500693 133.42035608467668 L 876.3441896133701 133.52411696668278 L 876.2771355365201 133.62757990567542 L 876.2077961248712 133.73073455544687 L 876.1361783123065 133.83357060061815 L 876.0622892605478 133.9360777576704 L 875.9861363584388 134.0382457759734 L 875.907727221206 134.14006443881038 L 875.8270696896979 134.24152356439998 L 875.7441718296004 134.34261300691415 L 875.6590419306306 134.44332265749287 L 875.5716885057071 134.54364244525505 L 875.4821202900999 134.6435623383055 L 875.3903462405559 134.74307234473812 L 875.2963755344035 134.8421625136353 L 875.2002175686349 134.9408229360626 L 875.1018819589668 135.0390437460601 L 875.001378538878 135.1368151216286 L 874.8987173586269 135.23412728571202 L 874.7939086842458 135.33097050717507 L 874.6869629965149 135.42733510177626 L 874.577890989914 135.5232114331365 L 874.4667035715527 135.6185899137025 L 874.3534118600801 135.71346100570568 L 874.2380271845732 135.80781522211595 L 874.1205610834031 135.90164312759026 L 874.0010253030822 135.99493533941623 L 873.879431797089 136.08768252845047 L 873.7557927246726 136.17987542005133 L 873.6301204496372 136.2715047950065 L 873.5024275391057 136.36256149045482 L 873.3727267622627 136.45303640080266 L 873.2410310890778 136.54292047863436 L 873.1073536890085 136.63220473561702 L 872.9717079296836 136.72088024339936 L 872.8341073755657 136.8089381345045 L 872.6945657865958 136.89636960321673 L 872.5530971168165 136.98316590646203 L 872.4097155129767 137.06931836468237 L 872.2644353131176 137.15481836270376 L 872.1172710451377 137.23965735059764 L 871.9682374253416 137.3238268445359 L 871.8173493569667 137.4073184276393 L 871.6646219286944 137.49012375081912 L 871.51007041314 137.57223453361203 L 871.3537102653266 137.65364256500817 L 871.1955571211383 137.73433970427226 L 871.035626795758 137.8143178817576 L 870.8739352820849 137.89356909971312 L 870.7104987491356 137.97208543308304 L 870.545333540427 138.04985903029944 L 870.3784561723427 138.12688211406746 L 870.2098833324802 138.20314698214287 L 870.0396318779831 138.2786460081024 L 869.867718833855 138.35337164210642 L 869.6941613912569 138.42731641165378 L 869.5189769057886 138.50047292232912 L 869.3421828957526 138.5728338585424 L 869.1637970404025 138.6443919842602 L 868.9838371781752 138.71514014372968 L 868.8023213049072 138.78507126219378 L 868.6192675720342 138.85417834659899 L 868.4346942847773 138.92245448629438 L 868.248619900311 138.98989285372295 L 868.0610630259191 139.0564867051041 L 867.8720424171324 139.12222938110824 L 867.6815769758546 139.18711430752253 L 867.4896857484707 139.2511349959084 L 867.2963879239439 139.3142850442503 L 867.1017028318954 139.37655813759613 L 866.9056499406722 139.4379480486884 L 866.7082488554 139.49844863858718 L 866.509519316023 139.55805385728382 L 866.3094811953292 139.61675774430623 L 866.1081544969643 139.67455442931453 L 865.9055593534302 139.73143813268845 L 865.7017160240724 139.78740316610504 L 865.4966448930542 139.84244393310757 L 865.2903664673174 139.89655492966523 L 865.0829013745331 139.94973074472344 L 864.8742703610374 140.00196606074505 L 864.664494289758 140.05325565424192 L 864.453594138127 140.1035943962975 L 864.2415909959839 140.1529772530795 L 864.0285060634662 140.20139928634342 L 863.8143606488899 140.24885565392626 L 863.5991761666176 140.29534161023082 L 863.3829741349183 140.3408525067002 L 863.1657761738152 140.38538379228268 L 862.9476040029232 140.42893101388682 L 862.7284794392776 140.47148981682676 L 862.5084243951522 140.51305594525763 L 862.2874608758682 140.55362524260127 L 862.0656109775932 140.59319365196174 L 861.8428968851322 140.63175721653107 L 861.6193408697087 140.66931207998493 L 861.3949652867383 140.7058544868683 L 861.169792573592 140.7413807829709 L 860.9438452473536 140.77588741569278 L 860.7171459025674 140.80937093439937 L 860.489717208979 140.84182799076672 L 860.2615819092681 140.87325533911627 L 860.0327628167748 140.90364983673933 L 859.8032828132175 140.9330084442115 L 859.5731648464055 140.9613282256965 L 859.3424319279434 140.98860634923975 L 859.111107130931 141.01484008705162 L 858.8792135876552 141.04002681578024 L 858.6467744872771 141.0641640167737 L 858.413813073513 141.08724927633202 L 858.18035264231 141.10928028594847 L 857.946416539517 141.13025484254044 L 857.7120281585491 141.15017084866977 L 857.4772109380491 141.16902631275246 L 857.2419883595435 141.18681934925777 L 857.0063839450938 141.2035481788969 L 856.7704212549455 141.21921112880085 L 856.5341238851709 141.23380663268765 L 856.2975154653099 141.24733323101907 L 856.0606196560072 141.25978957114654 L 855.8234601466468 141.2711744074465 L 855.5860606529816 141.28148660144473 L 855.3484449147631 141.29072512193042 L 855.1106366933675 141.2988890450593 L 854.8726597694184 141.30597755444578 L 854.63453794041 141.31198994124486 L 854.3962950183269 141.31692560422286 L 854.1579548272625 141.32078404981763 L 853.9195412010375 141.3235648921878 L 853.6810779808158 141.32526785325143 L 853.4425890127206 141.32589276271386 L 853.2040981454501 141.32543955808467 L 852.9656292278922 141.3239082846839 L 852.72720610674 141.32129909563767 L 852.488852624107 141.3176122518627 L 852.2505926151426 141.31284812204026 L 852.0124499056494 141.3070071825794 L 851.7744483096998 141.30009001756918 L 851.536611627255 141.29209731872032 L 851.298963641785 141.2830298852961 L 851.0615281178905 141.27288862403225 L 850.8243287989258 141.26167454904646 L 850.5873894046254 141.2493887817369 L 850.3507336287311 141.23603255067005 L 850.1143851366232 141.22160719145788 L 849.8783675629542 141.20611414662432 L 849.6427045092846 141.1895549654609 L 849.4074195417235 141.17193130387196 L 849.1725361885715 141.153244924209 L 848.9380779379682 141.13349769509435 L 848.7040682355433 141.1126915912345 L 848.4705304820719 141.0908286932225 L 848.2374880311351 141.06791118732997 L 848.0049641867834 141.04394136528833 L 847.7729822012075 141.01892162405983 L 847.5415652724129 140.9928544655978 L 847.3107365418994 140.96574249659628 L 847.0805190923478 140.93758842822962 L 846.8509359453112 140.90839507588117 L 846.6220100589129 140.8781653588619 L 846.3937643255509 140.84690230011824 L 846.1662215696083 140.81460902593008 L 845.939404545171 140.7812887655979 L 845.7133359337525 140.74694485111993 L 845.4880383420256 140.71158071685906 L 845.2635342995615 140.6751998991992 L 845.0398462565776 140.63780603619185 L 844.8169965816917 140.59940286719208 L 844.5950075596855 140.55999423248485 L 844.3739013892765 140.51958407290076 L 844.1537001808971 140.4781764294221 L 843.9344259544849 140.4357754427787 L 843.7161006372797 140.3923853530339 L 843.4987460616313 140.3480104991605 L 843.2823839628163 140.30265531860692 L 843.067035976864 140.25632434685343 L 842.8527236383937 140.2090222169586 L 842.6394683784606 140.160753659096 L 842.4272915224132 140.11152350008118 L 842.2162142877598 140.061336662889 L 842.0062577820485 140.01019816616142 L 841.7974430007546 139.9581131237054 L 841.5897908251823 139.90508674398188 L 841.3833220203761 139.85112432958456 L 841.1780572330445 139.79623127671 L 840.974016989495 139.74041307461766 L 840.771221693582 139.68367530508127 L 840.5696916246662 139.6260236418305 L 840.3694469355866 139.56746384998365 L 840.1705076506449 139.50800178547107 L 839.9728936636042 139.4476433944497 L 839.7766247356983 139.3863947127083 L 839.5817204936565 139.32426186506405 L 839.3882004277406 139.26125106474987 L 839.1960838897958 139.19736861279335 L 839.005390091316 139.13262089738643 L 838.816138101522 139.0670143932467 L 838.6283468454551 139.00055566096987 L 838.4420351020844 138.93325134637382 L 838.257221502429 138.8651081798339 L 838.073924527695 138.79613297561 L 837.8921625074267 138.72633263116504 L 837.7119536176752 138.65571412647532 L 837.533315879179 138.58428452333243 L 837.356267155563 138.5120509646372 L 837.1808251515522 138.4390206736853 L 837.0070074112008 138.3652009534449 L 836.8348313161379 138.2905991858266 L 836.6643140838295 138.21522283094495 L 836.4954727658569 138.13907942637263 L 836.328324246211 138.06217658638664 L 836.1628852396046 137.9845220012069 L 835.9991722898004 137.90612343622718 L 835.8372017679571 137.8269887312387 L 835.6769898709919 137.747125799646 L 835.5185526199607 137.66654262767568 L 835.3619058584569 137.58524727357778 L 835.207065251026 137.50324786681995 L 835.0540462815998 137.42055260727457 L 834.9028642519474 137.33716976439865 L 834.7535342801461 137.253107676407 L 834.6060712990686 137.16837474943839 L 834.4604900548901 137.0829794567149 L 834.3168051056136 136.9969303376946 L 834.1750308196144 136.9102359972177 L 834.035181374203 136.82290510464605 L 833.8972707542073 136.73494639299608 L 833.7613127505742 136.64636865806568 L 833.6273209589912 136.55718075755453 L 833.4953087785254 136.46739161017834 L 833.3652894102851 136.37701019477703 L 833.2372758560986 136.28604554941683 L 833.1112809172147 136.19450677048647 L 832.9873171930224 136.10240301178757 L 832.8653970797907 136.00974348361922 L 832.7455327694292 135.91653745185704 L 832.6277362482693 135.82279423702653 L 832.5120192958649 135.72852321337106 L 832.3983934838146 135.63373380791444 L 832.2868701746053 135.53843549951822 L 832.1774605204746 135.44263781793381 L 832.0701754622969 135.34635034284955 L 831.9650257284886 135.2495827029327 L 831.8620218339356 135.15234457486665 L 831.7611740789413 135.05464568238312 L 831.6624925481972 134.95649579528998 L 831.5659871097743 134.85790472849413 L 831.4716674141358 134.75888234102013 L 831.3795428931728 134.65943853502412 L 831.2896227592606 134.55958325480393 L 831.2019160043377 134.4593264858043 L 831.1164313990064 134.35867825361862 L 831.0331774916561 134.25764862298624 L 830.9521626076081 134.156247696786 L 830.8733948482833 134.05448561502604 L 830.796882090392 133.95237255382972 L 830.7226319851462 133.8499187244181 L 830.6506519574947 133.7471343720887 L 830.58094920538 133.64402977519111 L 830.5135306990195 133.54061524409914 L 830.4484031802075 133.43690112017967 L 830.3855731616416 133.3328977747587 L 830.3250469262714 133.22861560808406 L 830.2668305266699 133.12406504828556 L 830.2109297844287 133.01925655033202 L 830.1573502895752 132.9142005949859 L 830.1060974000144 132.80890768775524 L 830.0571762409926 132.70338835784298 L 830.0105917045847 132.59765315709416 L 829.9663484492058 132.49171265894074 L 829.9244508991444 132.3855774573443 L 829.8849032441207 132.27925816573654 L 829.847709438867 132.17276541595797 L 829.8128732027332 132.0661098571949 L 829.7803980193135 131.95930215491427 L 829.7502871360995 131.8523529897973 L 829.7225435641542 131.74527305667144 L 829.6971700778118 131.63807306344071 L 829.6741692143999 131.5307637300151 L 829.6535432739854 131.4233557872386 L 829.6352943191453 131.31585997581587 L 829.6194241747598 131.20828704523856 L 829.6059344278303 131.10064775271007 L 829.5948264273201 130.9929528620699 L 829.5861012840201 130.88521314271745 L 829.5797598704371 130.7774393685348 L 829.5758028207075 130.6696423168096 L 829.5742305305328 130.56183276715717" stroke-miterlimit="10" stroke-width="2.7769845610000004" stroke-dasharray=""/></g><g><g/><text fill="black" stroke="none" font-family="monospace" font-size="11pt" font-style="normal" font-weight="normal" text-decoration="normal" x="818.2235963380601" y="157.597015222" text-anchor="start" dominant-baseline="alphabetic" xml:space="preserve">Database</text></g><g><path fill="white" stroke="lightblue" paint-order="fill stroke markers" d=" M 973.216578064439 112.4289215434 A 24.2577769005 24.2577769005 0 1 1 973.2165659355516 112.40466377054244 M 921.9240397024391 141.1298737415 L 975.9935626254389 141.1298737415" stroke-miterlimit="10" stroke-width="5.553969122000001" stroke-dasharray=""/></g><g><g/><text fill="black" stroke="none" font-family="monospace" font-size="11pt" font-style="normal" font-weight="normal" text-decoration="normal" x="904.958801163939" y="157.597015222" text-anchor="start" dominant-baseline="alphabetic" xml:space="preserve">ML Service</text></g><g><path fill="white" stroke="gray" paint-order="fill stroke markers" d=" M 1077.551781364439 114.6505091922 A 24.2577769005 24.2577769005 0 1 1 1077.5517692355515 114.62625141934245 M 1027.647735282939 141.1298737415 L 1078.940273644939 141.1298737415" stroke-miterlimit="10" stroke-width="2.7769845610000004" stroke-dasharray=""/></g><g><g/><text fill="black" stroke="none" font-family="monospace" font-size="11pt" font-style="normal" font-weight="normal" text-decoration="normal" x="1009.294004463939" y="157.597015222" text-anchor="start" dominant-baseline="alphabetic" xml:space="preserve">TwitterAPI</text></g><g><path fill="white" stroke="blue" paint-order="fill stroke markers" d=" M 35.078667912469726 887.6737956335004 A 9.311065881 9.311065881 0 1 1 35.078663256937176 887.6644845691712 M 25.76760203146973 896.9848615145004 L 25.76760203146973 916.9138095405003 M 14.00625565546973 904.1723509665004 L 37.52894840746973 904.1723509665004 M 25.76760203146973 916.9138095405003 L 14.00625565546973 935.5359413025004 M 25.76760203146973 916.9138095405003 L 37.52894840746973 935.5359413025004" stroke-miterlimit="10" stroke-width="1.3884922805000002" stroke-dasharray=""/></g><g><g/><text fill="black" stroke="none" font-family="monospace" font-size="11pt" font-style="normal" font-weight="normal" text-decoration="normal" x="8.167601650000002" y="872.0736764820003" text-anchor="start" dominant-baseline="alphabetic" xml:space="preserve">User</text></g><path fill="none" stroke="none"/><g><path fill="white" stroke="orange" paint-order="fill stroke markers" d=" M 138.9720509972425 856.9950272820004 L 244.8194436841214 856.9950272820004 L 244.8194436841214 899.8435220920004 L 138.9720509972425 899.8435220920004 L 138.9720509972425 856.9950272820004 Z" stroke-miterlimit="10" stroke-width="2.613632528" stroke-dasharray=""/></g><g><g/><text fill="black" stroke="none" font-family="monospace" font-size="11pt" font-style="normal" font-weight="normal" text-decoration="normal" x="156.69574657774248" y="883.5083187920003" text-anchor="start" dominant-baseline="alphabetic" xml:space="preserve">Frontend</text></g><g><path fill="white" stroke="green" paint-order="fill stroke markers" d=" M 496.80536436795467 904.0089989335004 A 24.2577769005 24.2577769005 0 1 1 496.80535223906725 903.9847411606428 M 432.92655186330467 878.7792774366504 L 432.92655186330467 929.2387204303503 M 431.95460726695467 904.0089989335004 L 448.28981056695466 904.0089989335004" stroke-miterlimit="10" stroke-width="1.9438891927000002" stroke-dasharray=""/></g><g><g/><text fill="black" stroke="none" font-family="monospace" font-size="11pt" font-style="normal" font-weight="normal" text-decoration="normal" x="429.1799850545152" y="872.0736764820003" text-anchor="start" dominant-baseline="alphabetic" xml:space="preserve">Endpoint</text></g><g><path fill="white" stroke="red" paint-order="fill stroke markers" d=" M 715.7335050995301 910.7881083030004 A 24.2577769005 24.2577769005 0 1 1 715.7334929706427 910.7638505301428 M 688.2086875390302 886.5303314025005 L 698.0098095190301 878.3627297525004 M 688.2086875390302 886.5303314025005 L 698.0098095190301 894.6979330525005" stroke-miterlimit="10" stroke-width="1.9438891927000002" stroke-dasharray=""/></g><g><g/><text fill="black" stroke="none" font-family="monospace" font-size="11pt" font-style="normal" font-weight="normal" text-decoration="normal" x="660.6757289619696" y="872.0736764820003" text-anchor="start" dominant-baseline="alphabetic" xml:space="preserve">Scraper</text></g><g><path fill="pink" stroke="black" paint-order="fill stroke markers" d=" M 829.5742002829996 924.8363831410003 L 829.5742002829996 890.5324562110002 L 877.2729939189995 890.5324562110002 L 877.2729939189995 924.8363831410003" stroke-miterlimit="10" stroke-width="2.7769845610000004" stroke-dasharray=""/><path fill="pink" stroke="black" paint-order="fill stroke markers" d=" M 877.2729939189995 889.3399863701002 L 877.2718014590959 889.4477969150169 L 877.2682241986298 889.5555966789688 L 877.2622624953245 889.6633748820695 L 877.2539169453452 889.7711207465886 L 877.24318838324 889.8788234980293 L 877.2300778818561 889.9864723662062 L 877.2145867522329 890.0940565863223 L 877.1967165434703 890.2015654000451 L 877.1764690425742 890.3089880565828 L 877.1538462742781 890.4163138137595 L 877.1288505008397 890.5235319390887 L 877.1014842218157 890.6306317108473 L 877.0717501738111 890.7376024191474 L 877.039651330206 890.8444333670072 L 877.0051909008579 890.9511138714211 L 876.9683723317811 891.0576332644273 L 876.9291993048017 891.1639808941756 L 876.88767573719 891.2701461259915 L 876.843805781268 891.3761183434401 L 876.7975938239946 891.4818869493882 L 876.7490444865273 891.5874413670634 L 876.6981626237592 891.6927710411117 L 876.6449533238343 891.7978654386535 L 876.5894219076381 891.9027140503367 L 876.5315739282661 892.0073063913876 L 876.4714151704679 892.111632002659 L 876.4089516500693 892.2156804516768 L 876.3441896133701 892.3194413336829 L 876.2771355365201 892.4229042726756 L 876.2077961248712 892.5260589224471 L 876.1361783123065 892.6288949676183 L 876.0622892605478 892.7314021246706 L 875.9861363584388 892.8335701429736 L 875.907727221206 892.9353888058106 L 875.8270696896979 893.0368479314002 L 875.7441718296004 893.1379373739143 L 875.6590419306306 893.238647024493 L 875.5716885057071 893.3389668122552 L 875.4821202900999 893.4388867053057 L 875.3903462405559 893.5383967117383 L 875.2963755344035 893.6374868806355 L 875.2002175686349 893.7361473030628 L 875.1018819589668 893.8343681130602 L 875.001378538878 893.9321394886288 L 874.8987173586269 894.0294516527122 L 874.7939086842458 894.1262948741752 L 874.6869629965149 894.2226594687764 L 874.577890989914 894.3185358001367 L 874.4667035715527 894.4139142807027 L 874.3534118600801 894.5087853727059 L 874.2380271845732 894.6031395891162 L 874.1205610834031 894.6969674945905 L 874.0010253030822 894.7902597064165 L 873.879431797089 894.8830068954506 L 873.7557927246726 894.9751997870516 L 873.6301204496372 895.0668291620067 L 873.5024275391057 895.157885857455 L 873.3727267622627 895.2483607678029 L 873.2410310890778 895.3382448456346 L 873.1073536890085 895.4275291026172 L 872.9717079296836 895.5162046103995 L 872.8341073755657 895.6042625015046 L 872.6945657865958 895.6916939702169 L 872.5530971168165 895.7784902734622 L 872.4097155129767 895.8646427316826 L 872.2644353131176 895.9501427297039 L 872.1172710451377 896.0349817175978 L 871.9682374253416 896.1191512115361 L 871.8173493569667 896.2026427946395 L 871.6646219286944 896.2854481178193 L 871.51007041314 896.3675589006122 L 871.3537102653266 896.4489669320084 L 871.1955571211383 896.5296640712725 L 871.035626795758 896.6096422487578 L 870.8739352820849 896.6888934667132 L 870.7104987491356 896.7674098000832 L 870.545333540427 896.8451833972996 L 870.3784561723427 896.9222064810676 L 870.2098833324802 896.9984713491431 L 870.0396318779831 897.0739703751026 L 869.867718833855 897.1486960091066 L 869.6941613912569 897.222640778654 L 869.5189769057886 897.2957972893294 L 869.3421828957526 897.3681582255425 L 869.1637970404025 897.4397163512604 L 868.9838371781752 897.5104645107299 L 868.8023213049072 897.580395629194 L 868.6192675720342 897.6495027135992 L 868.4346942847773 897.7177788532946 L 868.248619900311 897.7852172207231 L 868.0610630259191 897.8518110721043 L 867.8720424171324 897.9175537481084 L 867.6815769758546 897.9824386745227 L 867.4896857484707 898.0464593629085 L 867.2963879239439 898.1096094112505 L 867.1017028318954 898.1718825045963 L 866.9056499406722 898.2332724156886 L 866.7082488554 898.2937730055874 L 866.509519316023 898.353378224284 L 866.3094811953292 898.4120821113064 L 866.1081544969643 898.4698787963147 L 865.9055593534302 898.5267624996886 L 865.7017160240724 898.5827275331052 L 865.4966448930542 898.6377683001077 L 865.2903664673174 898.6918792966654 L 865.0829013745331 898.7450551117237 L 864.8742703610374 898.7972904277452 L 864.664494289758 898.8485800212421 L 864.453594138127 898.8989187632977 L 864.2415909959839 898.9483016200796 L 864.0285060634662 898.9967236533436 L 863.8143606488899 899.0441800209264 L 863.5991761666176 899.090665977231 L 863.3829741349183 899.1361768737004 L 863.1657761738152 899.1807081592829 L 862.9476040029232 899.224255380887 L 862.7284794392776 899.2668141838269 L 862.5084243951522 899.3083803122578 L 862.2874608758682 899.3489496096015 L 862.0656109775932 899.3885180189619 L 861.8428968851322 899.4270815835313 L 861.6193408697087 899.4646364469851 L 861.3949652867383 899.5011788538685 L 861.169792573592 899.5367051499711 L 860.9438452473536 899.5712117826929 L 860.7171459025674 899.6046953013995 L 860.489717208979 899.6371523577669 L 860.2615819092681 899.6685797061165 L 860.0327628167748 899.6989742037396 L 859.8032828132175 899.7283328112117 L 859.5731648464055 899.7566525926967 L 859.3424319279434 899.7839307162399 L 859.111107130931 899.8101644540518 L 858.8792135876552 899.8353511827804 L 858.6467744872771 899.8594883837739 L 858.413813073513 899.8825736433322 L 858.18035264231 899.9046046529486 L 857.946416539517 899.9255792095406 L 857.7120281585491 899.94549521567 L 857.4772109380491 899.9643506797527 L 857.2419883595435 899.982143716258 L 857.0063839450938 899.9988725458971 L 856.7704212549455 900.014535495801 L 856.5341238851709 900.0291309996878 L 856.2975154653099 900.0426575980192 L 856.0606196560072 900.0551139381467 L 855.8234601466468 900.0664987744467 L 855.5860606529816 900.0768109684449 L 855.3484449147631 900.0860494889306 L 855.1106366933675 900.0942134120595 L 854.8726597694184 900.101301921446 L 854.63453794041 900.107314308245 L 854.3962950183269 900.112249971223 L 854.1579548272625 900.1161084168178 L 853.9195412010375 900.118889259188 L 853.6810779808158 900.1205922202516 L 853.4425890127206 900.1212171297141 L 853.2040981454501 900.1207639250848 L 852.9656292278922 900.1192326516841 L 852.72720610674 900.1166234626379 L 852.488852624107 900.1129366188629 L 852.2505926151426 900.1081724890405 L 852.0124499056494 900.1023315495796 L 851.7744483096998 900.0954143845694 L 851.536611627255 900.0874216857205 L 851.298963641785 900.0783542522963 L 851.0615281178905 900.0682129910324 L 850.8243287989258 900.0569989160466 L 850.5873894046254 900.0447131487371 L 850.3507336287311 900.0313569176702 L 850.1143851366232 900.016931558458 L 849.8783675629542 900.0014385136245 L 849.6427045092846 899.9848793324611 L 849.4074195417235 899.9672556708722 L 849.1725361885715 899.9485692912092 L 848.9380779379682 899.9288220620945 L 848.7040682355433 899.9080159582347 L 848.4705304820719 899.8861530602227 L 848.2374880311351 899.8632355543301 L 848.0049641867834 899.8392657322885 L 847.7729822012075 899.81424599106 L 847.5415652724129 899.788178832598 L 847.3107365418994 899.7610668635964 L 847.0805190923478 899.7329127952298 L 846.8509359453112 899.7037194428814 L 846.6220100589129 899.673489725862 L 846.3937643255509 899.6422266671184 L 846.1662215696083 899.6099333929303 L 845.939404545171 899.576613132598 L 845.7133359337525 899.5422692181202 L 845.4880383420256 899.5069050838592 L 845.2635342995615 899.4705242661994 L 845.0398462565776 899.4331304031921 L 844.8169965816917 899.3947272341923 L 844.5950075596855 899.355318599485 L 844.3739013892765 899.3149084399009 L 844.1537001808971 899.2735007964222 L 843.9344259544849 899.2310998097788 L 843.7161006372797 899.187709720034 L 843.4987460616313 899.1433348661607 L 843.2823839628163 899.0979796856071 L 843.067035976864 899.0516487138536 L 842.8527236383937 899.0043465839587 L 842.6394683784606 898.9560780260962 L 842.4272915224132 898.9068478670814 L 842.2162142877598 898.8566610298892 L 842.0062577820485 898.8055225331616 L 841.7974430007546 898.7534374907056 L 841.5897908251823 898.700411110982 L 841.3833220203761 898.6464486965848 L 841.1780572330445 898.5915556437102 L 840.974016989495 898.5357374416178 L 840.771221693582 898.4789996720815 L 840.5696916246662 898.4213480088307 L 840.3694469355866 898.3627882169839 L 840.1705076506449 898.3033261524713 L 839.9728936636042 898.2429677614499 L 839.7766247356983 898.1817190797085 L 839.5817204936565 898.1195862320642 L 839.3882004277406 898.05657543175 L 839.1960838897958 897.9926929797936 L 839.005390091316 897.9279452643866 L 838.816138101522 897.8623387602469 L 838.6283468454551 897.79588002797 L 838.4420351020844 897.728575713374 L 838.257221502429 897.660432546834 L 838.073924527695 897.5914573426102 L 837.8921625074267 897.5216569981652 L 837.7119536176752 897.4510384934755 L 837.533315879179 897.3796088903326 L 837.356267155563 897.3073753316373 L 837.1808251515522 897.2343450406854 L 837.0070074112008 897.1605253204451 L 836.8348313161379 897.0859235528268 L 836.6643140838295 897.0105471979451 L 836.4954727658569 896.9344037933728 L 836.328324246211 896.8575009533868 L 836.1628852396046 896.779846368207 L 835.9991722898004 896.7014478032273 L 835.8372017679571 896.6223130982389 L 835.6769898709919 896.5424501666462 L 835.5185526199607 896.4618669946758 L 835.3619058584569 896.380571640578 L 835.207065251026 896.2985722338201 L 835.0540462815998 896.2158769742747 L 834.9028642519474 896.1324941313989 L 834.7535342801461 896.0484320434072 L 834.6060712990686 895.9636991164385 L 834.4604900548901 895.8783038237151 L 834.3168051056136 895.7922547046948 L 834.1750308196144 895.705560364218 L 834.035181374203 895.6182294716463 L 833.8972707542073 895.5302707599963 L 833.7613127505742 895.4416930250659 L 833.6273209589912 895.3525051245547 L 833.4953087785254 895.2627159771786 L 833.3652894102851 895.1723345617772 L 833.2372758560986 895.081369916417 L 833.1112809172147 894.9898311374867 L 832.9873171930224 894.8977273787877 L 832.8653970797907 894.8050678506194 L 832.7455327694292 894.7118618188572 L 832.6277362482693 894.6181186040267 L 832.5120192958649 894.5238475803712 L 832.3983934838146 894.4290581749146 L 832.2868701746053 894.3337598665183 L 832.1774605204746 894.237962184934 L 832.0701754622969 894.1416747098498 L 831.9650257284886 894.044907069933 L 831.8620218339356 893.9476689418668 L 831.7611740789413 893.8499700493833 L 831.6624925481972 893.7518201622902 L 831.5659871097743 893.6532290954943 L 831.4716674141358 893.5542067080203 L 831.3795428931728 893.4547629020243 L 831.2896227592606 893.3549076218042 L 831.2019160043377 893.2546508528045 L 831.1164313990064 893.1540026206188 L 831.0331774916561 893.0529729899864 L 830.9521626076081 892.9515720637862 L 830.8733948482833 892.8498099820262 L 830.796882090392 892.7476969208299 L 830.7226319851462 892.6452430914183 L 830.6506519574947 892.5424587390888 L 830.58094920538 892.4393541421913 L 830.5135306990195 892.3359396110993 L 830.4484031802075 892.2322254871798 L 830.3855731616416 892.1282221417589 L 830.3250469262714 892.0239399750842 L 830.2668305266699 891.9193894152858 L 830.2109297844287 891.8145809173323 L 830.1573502895752 891.7095249619861 L 830.1060974000144 891.6042320547555 L 830.0571762409926 891.4987127248431 L 830.0105917045847 891.3929775240944 L 829.9663484492058 891.2870370259409 L 829.9244508991444 891.1809018243445 L 829.8849032441207 891.0745825327367 L 829.847709438867 890.9680897829581 L 829.8128732027332 890.861434224195 L 829.7803980193135 890.7546265219145 L 829.7502871360995 890.6476773567975 L 829.7225435641542 890.5405974236717 L 829.6971700778118 890.4333974304409 L 829.6741692143999 890.3260880970153 L 829.6535432739854 890.2186801542388 L 829.6352943191453 890.111184342816 L 829.6194241747598 890.0036114122388 L 829.6059344278303 889.8959721197102 L 829.5948264273201 889.7882772290701 L 829.5861012840201 889.6805375097176 L 829.5797598704371 889.572763735535 L 829.5758028207075 889.4649666838097 L 829.5742305305328 889.3571571341573 L 829.5750431571407 889.2493458674428 L 829.5782406192693 889.141543664703 L 829.583822597175 889.0337613060684 L 829.5917885326646 888.926009569685 L 829.6021376291513 888.8182992306366 L 829.6148688517342 888.7106410598675 L 829.6299809273013 888.6030458231049 L 829.6474723446579 888.495524279783 L 829.6673413546766 888.3880871819663 L 829.6895859704733 888.2807452732752 L 829.7142039676048 888.1735092878112 L 829.7411928842918 888.0663899490831 L 829.7705500216651 887.9593979689361 L 829.8022724440357 887.8525440464784 L 829.8363569791876 887.7458388670137 L 829.8728002186956 887.6392931009709 L 829.9115985182664 887.5329174028377 L 829.952747998102 887.4267224100954 L 829.9962445432891 887.3207187421547 L 830.0420838042091 887.214916999294 L 830.0902611969743 887.1093277615996 L 830.1407719038856 887.0039615879072 L 830.1936108739142 886.8988290147462 L 830.2487728232073 886.7939405552866 L 830.306252235616 886.6893066982866 L 830.3660433632467 886.5849379070451 L 830.4281402270366 886.4808446183538 L 830.4925366173511 886.3770372414552 L 830.5592260946049 886.2735261570003 L 830.6282019899057 886.1703217160115 L 830.6994574057215 886.0674342388465 L 830.7729852165702 885.9648740141677 L 830.8487780697318 885.8626512979117 L 830.9268283859842 885.7607763122653 L 831.007128360361 885.659259244642 L 831.0896699629313 885.558110246664 L 831.1744449396041 885.4573394331468 L 831.261444812952 885.3569568810877 L 831.3506608830604 885.2569726286583 L 831.4420842283965 885.1573966742006 L 831.5357057067021 885.058238975227 L 831.631515955907 884.9595094474248 L 831.7295053950667 884.8612179636644 L 831.8296642253185 884.7633743530125 L 831.9319824308631 884.6659883997484 L 832.0364497799649 884.5690698423863 L 832.1430558259764 884.4726283727013 L 832.2517899083816 884.3766736347599 L 832.3626411538629 884.2812152239559 L 832.4755984773883 884.1862626860509 L 832.5906505833194 884.0918255162196 L 832.7077859665416 883.9979131581002 L 832.8269929136139 883.9045350028503 L 832.9482595039414 883.8117003882076 L 833.0715736109657 883.7194185975562 L 833.1969229033792 883.6276988589982 L 833.3242948463569 883.5365503444311 L 833.4536767028108 883.4459821686305 L 833.5850555346628 883.3560033883383 L 833.7184182041394 883.2666230013576 L 833.8537513750848 883.1778499456528 L 833.9910415142947 883.0896930984552 L 834.1302748928695 883.0021612753764 L 834.2714375875873 882.9152632295254 L 834.4145154822965 882.8290076506345 L 834.5594942693266 882.7434031641899 L 834.7063594509199 882.6584583305687 L 834.8550963406806 882.5741816441835 L 835.0056900650435 882.4905815326327 L 835.1581255647619 882.4076663558578 L 835.3123875964127 882.3254444053076 L 835.4684607339213 882.2439239031083 L 835.6263293701041 882.1631130012424 L 835.7859777182291 882.0830197807327 L 835.9473898135942 882.0036522508344 L 836.1105495151247 881.9250183482344 L 836.2754405069862 881.8471259362576 L 836.4420463002172 881.7699828040801 L 836.6103502343769 881.6935966659508 L 836.7803354792122 881.6179751604201 L 836.9519850363405 881.5431258495753 L 837.1252817409489 881.4690562182851 L 837.3002082635114 881.3957736734511 L 837.4767471115216 881.3232855432666 L 837.6548806312417 881.2515990764842 L 837.8345910094682 881.1807214416909 L 838.0158602753131 881.110659726591 L 838.1986703020008 881.0414209372979 L 838.383002808681 880.9730119976324 L 838.5688393622568 880.9054397484318 L 838.7561613792274 880.8387109468646 L 838.9449501275473 880.7728322657554 L 839.1351867284991 880.7078102929172 L 839.3268521585812 880.6436515304935 L 839.5199272514103 880.5803623943066 L 839.714392699638 880.5179492132177 L 839.9102290568816 880.4564182284928 L 840.1074167396683 880.3957755931792 L 840.3059360293946 880.3360273714898 L 840.5057670742966 880.2771795381968 L 840.7068898914364 880.2192379780349 L 840.9092843687 880.1622084851115 L 841.1129302668083 880.1060967623285 L 841.3178072213411 880.0509084208114 L 841.5238947447738 879.9966489793484 L 841.7311722285257 879.9433238638383 L 841.9396189450212 879.8909384067483 L 842.1492140497623 879.8394978465806 L 842.3599365834133 879.789007327348 L 842.5717654738963 879.7394718980606 L 842.784679538499 879.6908965122201 L 842.9986574859921 879.6432860273245 L 843.2136779187593 879.5966452043825 L 843.4297193349365 879.5509787074378 L 843.646760130562 879.5062911031018 L 843.8647786017374 879.4625868600978 L 844.083752946797 879.4198703488137 L 844.3036612684887 879.3781458408648 L 844.5244815761639 879.3374175086675 L 844.7461917879756 879.2976894250208 L 844.9687697330875 879.2589655627003 L 845.1921931538905 879.2212497940594 L 845.4164397082286 879.184545890644 L 845.6414869716335 879.1488575228137 L 845.8673124395663 879.1141882593756 L 846.0938935296683 879.080541567227 L 846.3212075840195 879.0479208110092 L 846.5492318714035 879.0163292527707 L 846.777943589582 878.9857700516408 L 847.0073198675736 878.9562462635143 L 847.2373377679418 878.9277608407455 L 847.4679742890879 878.9003166318527 L 847.6992063675523 878.8739163812339 L 847.9310108803196 878.8485627288925 L 848.163364647132 878.8242582101723 L 848.3962444328062 878.801005255505 L 848.6296269495577 878.7788061901667 L 848.8634888593295 878.7576632340455 L 849.0978067761254 878.7375785014193 L 849.3325572683489 878.7185540007447 L 849.5677168611464 878.7005916344558 L 849.8032620387548 878.6836931987743 L 850.0391692468525 878.6678603835298 L 850.2754148949152 878.6530947719906 L 850.511975358575 878.6393978407053 L 850.7488269819828 878.626770959356 L 850.9859460801734 878.61521539062 L 851.2233089414349 878.6047322900448 L 851.4608918296786 878.5953227059315 L 851.6986709868139 878.5869875792308 L 851.9366226351233 878.5797277434484 L 852.17472297964 878.5735439245617 L 852.4129482105282 878.5684367409477 L 852.6512745054632 878.5644067033203 L 852.8896780320142 878.5614542146799 L 853.1281349500271 878.5595795702731 L 853.3666214140089 878.5587829575625 L 853.605113575512 878.5590644562088 L 853.8435875855188 878.5604240380626 L 854.0820195968272 878.5628615671665 L 854.3203857664347 878.5663767997698 L 854.558662257923 878.5709693843523 L 854.7968252438415 878.5766388616591 L 855.03485090809 878.5833846647474 L 855.2727154483005 878.5912061190423 L 855.5103950782171 878.6001024424052 L 855.7478660300752 878.6100727452108 L 855.9851045569771 878.6211160304375 L 856.2220869352681 878.6332311937657 L 856.4587894669077 878.6464170236893 L 856.69518848184 878.6606722016362 L 856.9312603403606 878.6759953021007 L 857.1669814354802 878.6923847927852 L 857.4023281952859 878.7098390347546 L 857.6372770852978 878.7283562825991 L 857.8718046108226 878.7479346846092 L 858.1058873193033 878.7685722829613 L 858.339501802664 878.7902670139126 L 858.5726246996511 878.813016708008 L 858.8052326981692 878.8368190902974 L 859.0373025376123 878.861671780562 L 859.2688110111898 878.8875722935537 L 859.4997349682473 878.9145180392427 L 859.7300513165815 878.942506323077 L 859.9597370247494 878.9715343462515 L 860.1887691243718 879.0015992059879 L 860.4171247124294 879.0326978958254 L 860.6447809535539 879.0648273059211 L 860.8717150823106 879.0979842233605 L 861.097904405476 879.1321653324798 L 861.3233263043063 879.1673672151961 L 861.5479582367992 879.2035863513509 L 861.7717777399489 879.2408191190606 L 861.9947624319915 879.2790617950793 L 862.2168900146435 879.3183105551716 L 862.438138275332 879.358561474494 L 862.6584850894151 879.399810527988 L 862.877908422395 879.442053590783 L 863.0963863321214 879.4852864386074 L 863.3138969709853 879.529504748213 L 863.5304185881041 879.5747040978052 L 863.7459295314965 879.620879967487 L 863.9604082502477 879.6680277397098 L 864.1738332966647 879.7161426997358 L 864.3861833284207 879.7652200361089 L 864.5974371106894 879.8152548411365 L 864.8075735182686 879.8662421113797 L 865.0165715376926 879.9181767481541 L 865.2244102693338 879.9710535580391 L 865.4310689294921 880.0248672533979 L 865.6365268524738 880.079612452906 L 865.8407634926577 880.1352836820886 L 866.0437584265501 880.1918753738696 L 866.2454913548266 880.2493818691268 L 866.4459421043628 880.3077974172585 L 866.6450906302504 880.3671161767588 L 866.842917017803 880.427332215801 L 867.0394014845466 880.4884395128315 L 867.2345243821984 880.5504319571714 L 867.4282661986311 880.6133033496282 L 867.6206075598245 880.6770474031146 L 867.811529231803 880.7416577432787 L 868.0010121225581 880.8071279091401 L 868.189037283959 880.8734513537371 L 868.3755859136461 880.9406214447802 L 868.5606393569118 881.0086314653164 L 868.7441791085661 881.0774746144003 L 868.9261868147868 881.1471440077744 L 869.1066442749549 881.2176326785574 L 869.2855334434747 881.288933577941 L 869.4628364315785 881.3610395758944 L 869.6385355091153 881.4339434618784 L 869.8126131063236 881.5076379455647 L 869.9850518155889 881.5821156575665 L 870.1558343931839 881.6573691501748 L 870.3249437609932 881.7333908981028 L 870.4923630082208 881.8101732992393 L 870.6580753930816 881.887708675408 L 870.8220643444753 881.9659892731361 L 870.9843134636433 882.0450072644288 L 871.1448065258089 882.1247547475529 L 871.3035274817997 882.2052237478266 L 871.4604604596523 882.286406218417 L 871.6155897661996 882.3682940411445 L 871.7688998886405 882.4508790272953 L 871.9203754960902 882.5341529184393 L 872.0700014411143 882.618107387257 L 872.2177627612431 882.7027340383715 L 872.3636446804676 882.7880244091882 L 872.5076326107175 882.873969970741 L 872.6497121533197 882.9605621285453 L 872.7898691004384 883.0477922234577 L 872.9280894364956 883.1356515325413 L 873.064359339573 883.2241312699383 L 873.1986651827938 883.3132225877489 L 873.3309935356856 883.4029165769153 L 873.4613311655232 883.4932042681136 L 873.5896650386526 883.5840766326497 L 873.7159823217933 883.6755245833631 L 873.8402703833219 883.7675389755348 L 873.9625167945363 883.8601106078021 L 874.082709330897 883.9532302230792 L 874.2008359732507 884.0468885094821 L 874.3168849090314 884.1410761012601 L 874.4308445334423 884.2357835797325 L 874.5427034506159 884.3310014742306 L 874.6524504747538 884.426720263044 L 874.760074631245 884.5229303743738 L 874.8655651577634 884.619622187289 L 874.9689115053444 884.7167860326888 L 875.0701033394394 884.8144121942697 L 875.1691305409493 884.9124909094969 L 875.2659832072362 885.0110123705806 L 875.3606516531146 885.1099667254567 L 875.4531264118185 885.2093440787723 L 875.5433982359493 885.3091344928749 L 875.6314580983997 885.4093279888062 L 875.7172971932567 885.5099145473001 L 875.8009069366827 885.6108841097845 L 875.8822789677727 885.7122265793874 L 875.9614051493916 885.8139318219462 L 876.038277568987 885.9159896670214 L 876.1128885393812 886.0183899089137 L 876.1852305995392 886.1211223076841 L 876.2552965153154 886.2241765901784 L 876.3230792801764 886.3275424510541 L 876.3885721159024 886.4312095538114 L 876.4517684732643 886.5351675318263 L 876.512662032679 886.6394059893878 L 876.5712467048414 886.7439145027369 L 876.627516631333 886.8486826211092 L 876.6814661852083 886.9536998677804 L 876.7330899715565 887.0589557411133 L 876.7823828280422 887.1644397156082 L 876.8293398254208 887.2701412429557 L 876.8739562680316 887.3760497530909 L 876.9162276942677 887.4821546552512 L 876.9561498770215 887.5884453390349 L 876.9937188241082 887.694911175462 L 877.0289307786642 887.8015415180378 L 877.0617822195236 887.9083257038167 L 877.0922698615694 888.0152530544691 L 877.1203906560631 888.1223128773491 L 877.1461417909485 888.2294944665639 L 877.1695206911337 888.3367871040434 L 877.190525018748 888.4441800606136 L 877.2091526733763 888.5516625970682 L 877.2254017922685 888.6592239652433 L 877.2392707505264 888.7668534090915 L 877.2507581612657 888.8745401657582 L 877.2598628757548 888.9822734666575 L 877.26658398353 889.0900425385489 L 877.270920812486 889.1978366046153 L 877.2728729289436 889.3056448855398 M 877.2729939189995 923.6439133001003 L 877.2718014590959 923.751723845017 L 877.2682241986298 923.8595236089689 L 877.2622624953245 923.9673018120696 L 877.2539169453452 924.0750476765887 L 877.24318838324 924.1827504280294 L 877.2300778818561 924.2903992962063 L 877.2145867522329 924.3979835163224 L 877.1967165434703 924.5054923300452 L 877.1764690425742 924.612914986583 L 877.1538462742781 924.7202407437596 L 877.1288505008397 924.8274588690888 L 877.1014842218157 924.9345586408474 L 877.0717501738111 925.0415293491475 L 877.039651330206 925.1483602970073 L 877.0051909008579 925.2550408014212 L 876.9683723317811 925.3615601944275 L 876.9291993048017 925.4679078241757 L 876.88767573719 925.5740730559916 L 876.843805781268 925.6800452734402 L 876.7975938239946 925.7858138793883 L 876.7490444865273 925.8913682970635 L 876.6981626237592 925.9966979711118 L 876.6449533238343 926.1017923686536 L 876.5894219076381 926.2066409803368 L 876.5315739282661 926.3112333213877 L 876.4714151704679 926.4155589326591 L 876.4089516500693 926.5196073816769 L 876.3441896133701 926.623368263683 L 876.2771355365201 926.7268312026757 L 876.2077961248712 926.8299858524472 L 876.1361783123065 926.9328218976184 L 876.0622892605478 927.0353290546707 L 875.9861363584388 927.1374970729737 L 875.907727221206 927.2393157358107 L 875.8270696896979 927.3407748614003 L 875.7441718296004 927.4418643039144 L 875.6590419306306 927.5425739544932 L 875.5716885057071 927.6428937422553 L 875.4821202900999 927.7428136353058 L 875.3903462405559 927.8423236417384 L 875.2963755344035 927.9414138106356 L 875.2002175686349 928.0400742330629 L 875.1018819589668 928.1382950430603 L 875.001378538878 928.2360664186289 L 874.8987173586269 928.3333785827123 L 874.7939086842458 928.4302218041753 L 874.6869629965149 928.5265863987765 L 874.577890989914 928.6224627301368 L 874.4667035715527 928.7178412107028 L 874.3534118600801 928.812712302706 L 874.2380271845732 928.9070665191163 L 874.1205610834031 929.0008944245906 L 874.0010253030822 929.0941866364166 L 873.879431797089 929.1869338254508 L 873.7557927246726 929.2791267170517 L 873.6301204496372 929.3707560920068 L 873.5024275391057 929.4618127874551 L 873.3727267622627 929.552287697803 L 873.2410310890778 929.6421717756347 L 873.1073536890085 929.7314560326173 L 872.9717079296836 929.8201315403996 L 872.8341073755657 929.9081894315048 L 872.6945657865958 929.995620900217 L 872.5530971168165 930.0824172034623 L 872.4097155129767 930.1685696616827 L 872.2644353131176 930.254069659704 L 872.1172710451377 930.3389086475979 L 871.9682374253416 930.4230781415362 L 871.8173493569667 930.5065697246396 L 871.6646219286944 930.5893750478194 L 871.51007041314 930.6714858306123 L 871.3537102653266 930.7528938620085 L 871.1955571211383 930.8335910012726 L 871.035626795758 930.9135691787579 L 870.8739352820849 930.9928203967133 L 870.7104987491356 931.0713367300833 L 870.545333540427 931.1491103272997 L 870.3784561723427 931.2261334110677 L 870.2098833324802 931.3023982791432 L 870.0396318779831 931.3778973051027 L 869.867718833855 931.4526229391067 L 869.6941613912569 931.526567708654 L 869.5189769057886 931.5997242193295 L 869.3421828957526 931.6720851555426 L 869.1637970404025 931.7436432812605 L 868.9838371781752 931.81439144073 L 868.8023213049072 931.8843225591941 L 868.6192675720342 931.9534296435993 L 868.4346942847773 932.0217057832947 L 868.248619900311 932.0891441507232 L 868.0610630259191 932.1557380021044 L 867.8720424171324 932.2214806781085 L 867.6815769758546 932.2863656045228 L 867.4896857484707 932.3503862929086 L 867.2963879239439 932.4135363412506 L 867.1017028318954 932.4758094345964 L 866.9056499406722 932.5371993456887 L 866.7082488554 932.5976999355875 L 866.509519316023 932.6573051542841 L 866.3094811953292 932.7160090413065 L 866.1081544969643 932.7738057263148 L 865.9055593534302 932.8306894296887 L 865.7017160240724 932.8866544631053 L 865.4966448930542 932.9416952301078 L 865.2903664673174 932.9958062266655 L 865.0829013745331 933.0489820417238 L 864.8742703610374 933.1012173577453 L 864.664494289758 933.1525069512422 L 864.453594138127 933.2028456932978 L 864.2415909959839 933.2522285500797 L 864.0285060634662 933.3006505833437 L 863.8143606488899 933.3481069509265 L 863.5991761666176 933.3945929072311 L 863.3829741349183 933.4401038037005 L 863.1657761738152 933.484635089283 L 862.9476040029232 933.5281823108871 L 862.7284794392776 933.570741113827 L 862.5084243951522 933.6123072422579 L 862.2874608758682 933.6528765396016 L 862.0656109775932 933.692444948962 L 861.8428968851322 933.7310085135314 L 861.6193408697087 933.7685633769852 L 861.3949652867383 933.8051057838686 L 861.169792573592 933.8406320799712 L 860.9438452473536 933.875138712693 L 860.7171459025674 933.9086222313997 L 860.489717208979 933.941079287767 L 860.2615819092681 933.9725066361166 L 860.0327628167748 934.0029011337397 L 859.8032828132175 934.0322597412118 L 859.5731648464055 934.0605795226968 L 859.3424319279434 934.08785764624 L 859.111107130931 934.1140913840519 L 858.8792135876552 934.1392781127805 L 858.6467744872771 934.163415313774 L 858.413813073513 934.1865005733323 L 858.18035264231 934.2085315829487 L 857.946416539517 934.2295061395407 L 857.7120281585491 934.2494221456701 L 857.4772109380491 934.2682776097528 L 857.2419883595435 934.286070646258 L 857.0063839450938 934.3027994758972 L 856.7704212549455 934.3184624258012 L 856.5341238851709 934.3330579296879 L 856.2975154653099 934.3465845280193 L 856.0606196560072 934.3590408681468 L 855.8234601466468 934.3704257044468 L 855.5860606529816 934.380737898445 L 855.3484449147631 934.3899764189307 L 855.1106366933675 934.3981403420596 L 854.8726597694184 934.405228851446 L 854.63453794041 934.4112412382451 L 854.3962950183269 934.4161769012231 L 854.1579548272625 934.4200353468179 L 853.9195412010375 934.4228161891881 L 853.6810779808158 934.4245191502517 L 853.4425890127206 934.4251440597142 L 853.2040981454501 934.4246908550849 L 852.9656292278922 934.4231595816842 L 852.72720610674 934.420550392638 L 852.488852624107 934.4168635488629 L 852.2505926151426 934.4120994190406 L 852.0124499056494 934.4062584795797 L 851.7744483096998 934.3993413145695 L 851.536611627255 934.3913486157206 L 851.298963641785 934.3822811822964 L 851.0615281178905 934.3721399210325 L 850.8243287989258 934.3609258460467 L 850.5873894046254 934.3486400787372 L 850.3507336287311 934.3352838476703 L 850.1143851366232 934.3208584884582 L 849.8783675629542 934.3053654436246 L 849.6427045092846 934.2888062624612 L 849.4074195417235 934.2711826008723 L 849.1725361885715 934.2524962212093 L 848.9380779379682 934.2327489920946 L 848.7040682355433 934.2119428882348 L 848.4705304820719 934.1900799902228 L 848.2374880311351 934.1671624843302 L 848.0049641867834 934.1431926622886 L 847.7729822012075 934.1181729210601 L 847.5415652724129 934.0921057625981 L 847.3107365418994 934.0649937935965 L 847.0805190923478 934.0368397252299 L 846.8509359453112 934.0076463728815 L 846.6220100589129 933.9774166558622 L 846.3937643255509 933.9461535971185 L 846.1662215696083 933.9138603229304 L 845.939404545171 933.8805400625981 L 845.7133359337525 933.8461961481203 L 845.4880383420256 933.8108320138593 L 845.2635342995615 933.7744511961995 L 845.0398462565776 933.7370573331922 L 844.8169965816917 933.6986541641924 L 844.5950075596855 933.6592455294851 L 844.3739013892765 933.618835369901 L 844.1537001808971 933.5774277264223 L 843.9344259544849 933.5350267397789 L 843.7161006372797 933.4916366500341 L 843.4987460616313 933.4472617961608 L 843.2823839628163 933.4019066156072 L 843.067035976864 933.3555756438537 L 842.8527236383937 933.3082735139589 L 842.6394683784606 933.2600049560963 L 842.4272915224132 933.2107747970815 L 842.2162142877598 933.1605879598893 L 842.0062577820485 933.1094494631617 L 841.7974430007546 933.0573644207057 L 841.5897908251823 933.0043380409821 L 841.3833220203761 932.9503756265849 L 841.1780572330445 932.8954825737103 L 840.974016989495 932.8396643716179 L 840.771221693582 932.7829266020816 L 840.5696916246662 932.7252749388308 L 840.3694469355866 932.666715146984 L 840.1705076506449 932.6072530824714 L 839.9728936636042 932.54689469145 L 839.7766247356983 932.4856460097086 L 839.5817204936565 932.4235131620643 L 839.3882004277406 932.3605023617502 L 839.1960838897958 932.2966199097937 L 839.005390091316 932.2318721943867 L 838.816138101522 932.166265690247 L 838.6283468454551 932.0998069579701 L 838.4420351020844 932.0325026433741 L 838.257221502429 931.9643594768341 L 838.073924527695 931.8953842726103 L 837.8921625074267 931.8255839281653 L 837.7119536176752 931.7549654234756 L 837.533315879179 931.6835358203327 L 837.356267155563 931.6113022616374 L 837.1808251515522 931.5382719706855 L 837.0070074112008 931.4644522504452 L 836.8348313161379 931.3898504828269 L 836.6643140838295 931.3144741279452 L 836.4954727658569 931.2383307233729 L 836.328324246211 931.1614278833869 L 836.1628852396046 931.0837732982071 L 835.9991722898004 931.0053747332274 L 835.8372017679571 930.926240028239 L 835.6769898709919 930.8463770966463 L 835.5185526199607 930.7657939246759 L 835.3619058584569 930.6844985705781 L 835.207065251026 930.6024991638202 L 835.0540462815998 930.5198039042748 L 834.9028642519474 930.436421061399 L 834.7535342801461 930.3523589734073 L 834.6060712990686 930.2676260464386 L 834.4604900548901 930.1822307537152 L 834.3168051056136 930.0961816346949 L 834.1750308196144 930.009487294218 L 834.035181374203 929.9221564016464 L 833.8972707542073 929.8341976899964 L 833.7613127505742 929.745619955066 L 833.6273209589912 929.6564320545548 L 833.4953087785254 929.5666429071787 L 833.3652894102851 929.4762614917773 L 833.2372758560986 929.3852968464171 L 833.1112809172147 929.2937580674868 L 832.9873171930224 929.2016543087879 L 832.8653970797907 929.1089947806195 L 832.7455327694292 929.0157887488573 L 832.6277362482693 928.9220455340268 L 832.5120192958649 928.8277745103713 L 832.3983934838146 928.7329851049147 L 832.2868701746053 928.6376867965184 L 832.1774605204746 928.5418891149341 L 832.0701754622969 928.4456016398499 L 831.9650257284886 928.348833999933 L 831.8620218339356 928.2515958718669 L 831.7611740789413 928.1538969793834 L 831.6624925481972 928.0557470922903 L 831.5659871097743 927.9571560254944 L 831.4716674141358 927.8581336380204 L 831.3795428931728 927.7586898320244 L 831.2896227592606 927.6588345518043 L 831.2019160043377 927.5585777828046 L 831.1164313990064 927.4579295506189 L 831.0331774916561 927.3568999199865 L 830.9521626076081 927.2554989937863 L 830.8733948482833 927.1537369120263 L 830.796882090392 927.05162385083 L 830.7226319851462 926.9491700214184 L 830.6506519574947 926.8463856690889 L 830.58094920538 926.7432810721914 L 830.5135306990195 926.6398665410994 L 830.4484031802075 926.5361524171799 L 830.3855731616416 926.432149071759 L 830.3250469262714 926.3278669050843 L 830.2668305266699 926.2233163452859 L 830.2109297844287 926.1185078473324 L 830.1573502895752 926.0134518919862 L 830.1060974000144 925.9081589847556 L 830.0571762409926 925.8026396548432 L 830.0105917045847 925.6969044540945 L 829.9663484492058 925.590963955941 L 829.9244508991444 925.4848287543446 L 829.8849032441207 925.3785094627368 L 829.847709438867 925.2720167129582 L 829.8128732027332 925.1653611541951 L 829.7803980193135 925.0585534519146 L 829.7502871360995 924.9516042867976 L 829.7225435641542 924.8445243536718 L 829.6971700778118 924.737324360441 L 829.6741692143999 924.6300150270154 L 829.6535432739854 924.5226070842389 L 829.6352943191453 924.4151112728161 L 829.6194241747598 924.3075383422389 L 829.6059344278303 924.1998990497103 L 829.5948264273201 924.0922041590702 L 829.5861012840201 923.9844644397177 L 829.5797598704371 923.8766906655351 L 829.5758028207075 923.7688936138098 L 829.5742305305328 923.6610840641574" stroke-miterlimit="10" stroke-width="2.7769845610000004" stroke-dasharray=""/></g><g><g/><text fill="black" stroke="none" font-family="monospace" font-size="11pt" font-style="normal" font-weight="normal" text-decoration="normal" x="818.2235963380601" y="872.0736764820003" text-anchor="start" dominant-baseline="alphabetic" xml:space="preserve">Database</text></g><g><path fill="white" stroke="lightblue" paint-order="fill stroke markers" d=" M 973.216578064439 900.9543159164003 A 24.2577769005 24.2577769005 0 1 1 973.2165659355516 900.9300581435427 M 921.9240397024391 929.6552681145002 L 975.9935626254389 929.6552681145002" stroke-miterlimit="10" stroke-width="5.553969122000001" stroke-dasharray=""/></g><g><g/><text fill="black" stroke="none" font-family="monospace" font-size="11pt" font-style="normal" font-weight="normal" text-decoration="normal" x="904.958801163939" y="872.0736764820003" text-anchor="start" dominant-baseline="alphabetic" xml:space="preserve">ML Service</text></g><g><path fill="white" stroke="gray" paint-order="fill stroke markers" d=" M 1077.551781364439 903.1759035652003 A 24.2577769005 24.2577769005 0 1 1 1077.5517692355515 903.1516457923427 M 1027.647735282939 929.6552681145002 L 1078.940273644939 929.6552681145002" stroke-miterlimit="10" stroke-width="2.7769845610000004" stroke-dasharray=""/></g><g><g/><text fill="black" stroke="none" font-family="monospace" font-size="11pt" font-style="normal" font-weight="normal" text-decoration="normal" x="1009.294004463939" y="872.0736764820003" text-anchor="start" dominant-baseline="alphabetic" xml:space="preserve">TwitterAPI</text></g></g><g><path fill="white" stroke="black" paint-order="fill stroke markers" d=" M 183.72814569068194 229.848875972 L 200.06334899068193 229.848875972 L 200.06334899068193 799.8218157320003 L 183.72814569068194 799.8218157320003 L 183.72814569068194 229.848875972" stroke-miterlimit="10" stroke-width="1.3612669416666667" stroke-dasharray=""/><path fill="white" stroke="black" paint-order="fill stroke markers" d=" M 456.2123841674547 273.953924882 L 472.54758746745466 273.953924882 L 472.54758746745466 755.7167668220003 L 456.2123841674547 755.7167668220003 L 456.2123841674547 273.953924882" stroke-miterlimit="10" stroke-width="1.3612669416666667" stroke-dasharray=""/><path fill="white" stroke="black" paint-order="fill stroke markers" d=" M 845.2559954509995 318.058973792 L 861.5911987509996 318.058973792 L 861.5911987509996 672.0302637620002 L 845.2559954509995 672.0302637620002 L 845.2559954509995 318.058973792" stroke-miterlimit="10" stroke-width="1.3612669416666667" stroke-dasharray=""/><path fill="white" stroke="black" paint-order="fill stroke markers" d=" M 683.3081265490301 421.34772081200003 L 699.6433298490302 421.34772081200003 L 699.6433298490302 524.6364678320001 L 683.3081265490301 524.6364678320001 L 683.3081265490301 421.34772081200003" stroke-miterlimit="10" stroke-width="1.3612669416666667" stroke-dasharray=""/><path fill="white" stroke="black" paint-order="fill stroke markers" d=" M 940.791199513939 568.7415167420002 L 957.1264028139391 568.7415167420002 L 957.1264028139391 612.8465656520002 L 940.791199513939 612.8465656520002 L 940.791199513939 568.7415167420002" stroke-miterlimit="10" stroke-width="1.3612669416666667" stroke-dasharray=""/><g><text fill="black" stroke="none" font-family="monospace" font-size="11pt" font-style="normal" font-weight="normal" text-decoration="normal" x="47.54787309813639" y="208.738767092" text-anchor="start" dominant-baseline="alphabetic" xml:space="preserve">Input Twitter</text><text fill="black" stroke="none" font-family="monospace" font-size="11pt" font-style="normal" font-weight="normal" text-decoration="normal" x="47.54787309813639" y="223.817416292" text-anchor="start" dominant-baseline="alphabetic" xml:space="preserve">account URL</text></g><g><path fill="none" stroke="black" paint-order="fill stroke markers" d=" M 25.76760203146973 229.848875972 L 170.27882830701526 229.848875972" stroke-miterlimit="10" stroke-width="1.3612669416666667" stroke-dasharray=""/><g transform="translate(183.72814569068194,229.848875972) translate(-183.72814569068194,-229.848875972)"><path fill="black" stroke="none" paint-order="stroke fill markers" d=" M 170.11547627401526 223.04254126366666 L 183.72814569068194 229.848875972 L 170.11547627401526 236.65521068033334 Z"/></g></g><g><text fill="black" stroke="none" font-family="monospace" font-size="11pt" font-style="normal" font-weight="normal" text-decoration="normal" x="240.13786657906826" y="267.922465202" text-anchor="start" dominant-baseline="alphabetic" xml:space="preserve">Request check result</text></g><g><path fill="none" stroke="black" paint-order="fill stroke markers" d=" M 200.06334899068193 273.953924882 L 442.763066783788 273.953924882" stroke-miterlimit="10" stroke-width="1.3612669416666667" stroke-dasharray=""/><g transform="translate(456.2123841674547,273.953924882) translate(-456.2123841674547,-273.953924882)"><path fill="black" stroke="none" paint-order="stroke fill markers" d=" M 442.599714750788 267.1475901736667 L 456.2123841674547 273.953924882 L 442.599714750788 280.76025959033336 Z"/></g></g><g><text fill="black" stroke="none" font-family="monospace" font-size="11pt" font-style="normal" font-weight="normal" text-decoration="normal" x="588.5017899333482" y="312.02751411200006" text-anchor="start" dominant-baseline="alphabetic" xml:space="preserve">Get check result</text></g><g><path fill="none" stroke="black" paint-order="fill stroke markers" d=" M 472.54758746745466 318.058973792 L 831.8066780673329 318.058973792" stroke-miterlimit="10" stroke-width="1.3612669416666667" stroke-dasharray=""/><g transform="translate(845.2559954509995,318.058973792) translate(-845.2559954509995,-318.058973792)"><path fill="black" stroke="none" paint-order="stroke fill markers" d=" M 831.6433260343329 311.2526390836667 L 845.2559954509995 318.058973792 L 831.6433260343329 324.86530850033336 Z"/></g></g><g><text fill="black" stroke="none" font-family="monospace" font-size="11pt" font-style="normal" font-weight="normal" text-decoration="normal" x="520.727856245303" y="400.23761193200005" text-anchor="start" dominant-baseline="alphabetic" xml:space="preserve">Fetch account</text><text fill="black" stroke="none" font-family="monospace" font-size="11pt" font-style="normal" font-weight="normal" text-decoration="normal" x="520.727856245303" y="415.316261132" text-anchor="start" dominant-baseline="alphabetic" xml:space="preserve">information</text></g><g><path fill="none" stroke="black" paint-order="fill stroke markers" d=" M 472.54758746745466 421.34772081200003 L 669.8588091653635 421.34772081200003" stroke-miterlimit="10" stroke-width="1.3612669416666667" stroke-dasharray=""/><g transform="translate(683.3081265490301,421.34772081200003) translate(-683.3081265490301,-421.34772081200003)"><path fill="black" stroke="none" paint-order="stroke fill markers" d=" M 669.6954571323635 414.5413861036667 L 683.3081265490301 421.34772081200003 L 669.6954571323635 428.1540555203334 Z"/></g></g><g><text fill="black" stroke="none" font-family="monospace" font-size="11pt" font-style="normal" font-weight="normal" text-decoration="normal" x="819.2686663935451" y="459.4213100420001" text-anchor="start" dominant-baseline="alphabetic" xml:space="preserve">Fetch account</text><text fill="black" stroke="none" font-family="monospace" font-size="11pt" font-style="normal" font-weight="normal" text-decoration="normal" x="819.2686663935451" y="474.49995924200005" text-anchor="start" dominant-baseline="alphabetic" xml:space="preserve">information</text></g><g><path fill="none" stroke="black" paint-order="fill stroke markers" d=" M 699.6433298490302 480.53141892200006 L 1039.8446870802723 480.53141892200006" stroke-miterlimit="10" stroke-width="1.3612669416666667" stroke-dasharray=""/><g transform="translate(1053.294004463939,480.53141892200006) translate(-1053.294004463939,-480.53141892200006)"><path fill="black" stroke="none" paint-order="stroke fill markers" d=" M 1039.6813350472723 473.7250842136667 L 1053.294004463939 480.53141892200006 L 1039.6813350472723 487.3377536303334 Z"/></g></g><g><text fill="black" stroke="none" font-family="monospace" font-size="11pt" font-style="normal" font-weight="normal" text-decoration="normal" x="494.32785853412133" y="518.6050081520001" text-anchor="start" dominant-baseline="alphabetic" xml:space="preserve">Account information</text></g><g><path fill="none" stroke="black" paint-order="fill stroke markers" d=" M 683.3081265490301 524.6364678320001 L 485.9969048511213 524.6364678320001" stroke-miterlimit="10" stroke-width="1.3612669416666667" stroke-dasharray="6.53408132"/><g transform="translate(472.54758746745466,524.6364678320001) translate(-472.54758746745466,-524.6364678320001)"><path fill="black" stroke="none" paint-order="stroke fill markers" d=" M 486.16025688412134 517.8301331236668 L 472.54758746745466 524.6364678320001 L 486.16025688412134 531.4428025403334 Z"/></g></g><g><text fill="black" stroke="none" font-family="monospace" font-size="11pt" font-style="normal" font-weight="normal" text-decoration="normal" x="618.6693934906968" y="562.7100570620001" text-anchor="start" dominant-baseline="alphabetic" xml:space="preserve">Run model on account</text></g><g><path fill="none" stroke="black" paint-order="fill stroke markers" d=" M 472.54758746745466 568.7415167420002 L 927.3418821302723 568.7415167420002" stroke-miterlimit="10" stroke-width="1.3612669416666667" stroke-dasharray=""/><g transform="translate(940.791199513939,568.7415167420002) translate(-940.791199513939,-568.7415167420002)"><path fill="black" stroke="none" paint-order="stroke fill markers" d=" M 927.1785300972723 561.9351820336668 L 940.791199513939 568.7415167420002 L 927.1785300972723 575.5478514503335 Z"/></g></g><g><text fill="black" stroke="none" font-family="monospace" font-size="11pt" font-style="normal" font-weight="normal" text-decoration="normal" x="653.8693942536363" y="606.8151059720002" text-anchor="start" dominant-baseline="alphabetic" xml:space="preserve">Check result</text></g><g><path fill="none" stroke="black" paint-order="fill stroke markers" d=" M 940.791199513939 612.8465656520002 L 485.9969048511213 612.8465656520002" stroke-miterlimit="10" stroke-width="1.3612669416666667" stroke-dasharray="6.53408132"/><g transform="translate(472.54758746745466,612.8465656520002) translate(-472.54758746745466,-612.8465656520002)"><path fill="black" stroke="none" paint-order="stroke fill markers" d=" M 486.16025688412134 606.0402309436669 L 472.54758746745466 612.8465656520002 L 486.16025688412134 619.6529003603335 Z"/></g></g><g><text fill="black" stroke="none" font-family="monospace" font-size="11pt" font-style="normal" font-weight="normal" text-decoration="normal" x="557.7017945109849" y="650.9201548820002" text-anchor="start" dominant-baseline="alphabetic" xml:space="preserve">Save check result</text><text fill="black" stroke="none" font-family="monospace" font-size="11pt" font-style="normal" font-weight="normal" text-decoration="normal" x="557.7017945109849" y="665.9988040820002" text-anchor="start" dominant-baseline="alphabetic" xml:space="preserve">and account information</text></g><g><path fill="none" stroke="black" paint-order="fill stroke markers" d=" M 472.54758746745466 672.0302637620002 L 831.8066780673329 672.0302637620002" stroke-miterlimit="10" stroke-width="1.3612669416666667" stroke-dasharray=""/><g transform="translate(845.2559954509995,672.0302637620002) translate(-845.2559954509995,-672.0302637620002)"><path fill="black" stroke="none" paint-order="stroke fill markers" d=" M 831.6433260343329 665.2239290536669 L 845.2559954509995 672.0302637620002 L 831.6433260343329 678.8365984703336 Z"/></g></g><g><text fill="black" stroke="none" font-family="monospace" font-size="11pt" font-style="normal" font-weight="normal" text-decoration="normal" x="244.53786810494717" y="734.6066579420003" text-anchor="start" dominant-baseline="alphabetic" xml:space="preserve">Check result and</text><text fill="black" stroke="none" font-family="monospace" font-size="11pt" font-style="normal" font-weight="normal" text-decoration="normal" x="244.53786810494717" y="749.6853071420003" text-anchor="start" dominant-baseline="alphabetic" xml:space="preserve">account information</text></g><g><path fill="none" stroke="black" paint-order="fill stroke markers" d=" M 456.2123841674547 755.7167668220003 L 213.5126663743486 755.7167668220003" stroke-miterlimit="10" stroke-width="1.3612669416666667" stroke-dasharray="6.53408132"/><g transform="translate(200.06334899068193,755.7167668220003) translate(-200.06334899068193,-755.7167668220003)"><path fill="black" stroke="none" paint-order="stroke fill markers" d=" M 213.6760184073486 748.910432113667 L 200.06334899068193 755.7167668220003 L 213.6760184073486 762.5231015303336 Z"/></g></g><g><text fill="black" stroke="none" font-family="monospace" font-size="11pt" font-style="normal" font-weight="normal" text-decoration="normal" x="56.34787233519694" y="793.7903560520003" text-anchor="start" dominant-baseline="alphabetic" xml:space="preserve">Show result</text></g><g><path fill="none" stroke="black" paint-order="fill stroke markers" d=" M 183.72814569068194 799.8218157320003 L 39.216919415136395 799.8218157320003" stroke-miterlimit="10" stroke-width="1.3612669416666667" stroke-dasharray="6.53408132"/><g transform="translate(25.76760203146973,799.8218157320003) translate(-25.76760203146973,-799.8218157320003)"><path fill="black" stroke="none" paint-order="stroke fill markers" d=" M 39.3802714481364 793.015481023667 L 25.76760203146973 799.8218157320003 L 39.3802714481364 806.6281504403337 Z"/></g></g><g><g/><path fill="none" stroke="black" paint-order="fill stroke markers" d=" M 399.03917261745465 342.561778742 L 1110.467216013939 342.561778742 L 1110.467216013939 696.5330687120003 L 399.03917261745465 696.5330687120003 L 399.03917261745465 342.561778742 Z" stroke-miterlimit="10" stroke-width="2.3336004714285714" stroke-dasharray=""/><path fill="white" stroke="black" paint-order="fill stroke markers" d=" M 399.03917261745465 342.561778742 L 399.03917261745465 362.164022702 L 452.8595788359849 362.164022702 L 462.6607008159849 352.362900722 L 462.6607008159849 342.561778742 L 399.03917261745465 342.561778742" stroke-miterlimit="10" stroke-width="2.3336004714285714" stroke-dasharray=""/><text fill="black" stroke="none" font-family="monospace" font-size="8.8pt" font-style="normal" font-weight="bold" text-decoration="normal" x="415.37437591745464" y="355.629941382" text-anchor="start" dominant-baseline="alphabetic" xml:space="preserve">opt</text><text fill="black" stroke="none" font-family="monospace" font-size="8.8pt" font-style="normal" font-weight="bold" text-decoration="normal" x="478.9959041159849" y="355.629941382" text-anchor="start" dominant-baseline="alphabetic" xml:space="preserve">[account not in database]</text></g></g><g/><g/><g/><g/><g/><g/><g/></g></svg>