<svg version="1.1" xmlns="http://www.w3.org/2000/svg" xmlns:xlink="http://www.w3.org/1999/xlink" width="1126" height="940"><desc>%23%20-----%20font%20-----%0Afontfamily%20monospace%0A%0A%23%20-----%20setup%20components%20-----%0Atitle%20User%20check%20Twitter%20account%0Aactor%20%23blue%3A0.5%20User%0A%0Aparticipant%20%23orange%20Frontend%0Aparticipantgroup%20%23e4fcd9%20Backend%20API%0Aboundary%20%23green%3A0.7%20Endpoint%0Acontrol%20%23red%3A0.7%20Scraper%0Aend%0A%0Adatabase%20Database%20%23pink%0Aentity%20%23lightblue%3A2%20ML%20Service%0Aentity%20%23gray%20TwitterAPI%0A%0A%23%20-----%20to%20show%20bottom%20icons%20-----%0Abottomparticipants%0A%0A%23autoactivation%20on%0A%23%20-----%20START%20OF%20SEQUENCE%20-----%0AUser-%3EFrontend%3A%20Input%20Twitter%5Cnaccount%20URL%0Aactivate%20Frontend%0AFrontend-%3EEndpoint%3A%20Request%20check%20result%0Aactivate%20Endpoint%0AEndpoint-%3EDatabase%3A%20Get%20check%20result%0Aactivate%20Database%0A%0Aopt%20account%20not%20in%20database%0AEndpoint-%3EScraper%3A%20Fetch%20account%5Cninformation%0Aactivate%20Scraper%0AScraper-%3ETwitterAPI%3A%20getUser(username)%0AEndpoint%3C--Scraper%3A%20Account%20information%0Adeactivate%20Scraper%0AEndpoint-%3EML%20Service%3A%20Run%20model%20on%20account%0Aactivate%20ML%20Service%0AML%20Service--%3EEndpoint%3A%20Check%20result%0Adeactivate%20ML%20Service%0AEndpoint-%3EDatabase%3A%20Save%20check%20result%5Cnand%20account%20information%0Adeactivate%20Database%0Aend%0A%0AEndpoint--%3EFrontend%3A%20Check%20result%20and%5Cnaccount%20information%0Adeactivate%20Endpoint%0AFrontend--%3EUser%3A%20Show%20result%0Adeactivate%20Frontend%0A%23%20-----%20END%20OF%20SEQUENCE%20-----</desc><defs/><g><g/><g/><g/><g/><g/><g/><g/><g/><g/><g/><g/><g/><g/><g/><g/><g/><g><rect fill="white" stroke="none" x="0" y="0" width="1126" height="940"/></g><g><text fill="black" stroke="none" font-family="monospace" font-size="16.5pt" font-style="normal" font-weight="normal" text-decoration="normal" x="391.8012035534539" y="22.617973800000005" text-anchor="start" dominant-baseline="alphabetic" xml:space="preserve">User check Twitter account</text></g><g><g><path fill="#e4fcd9" stroke="black" paint-order="fill stroke markers" d=" M 421.0123834045152 48.50927103050001 L 730.4433290860908 48.50927103050001 L 730.4433290860908 932.1369624620003 L 421.0123834045152 932.1369624620003 L 421.0123834045152 48.50927103050001" stroke-miterlimit="10" stroke-width="1.3612669416666667" stroke-dasharray=""/></g><g><text fill="black" stroke="none" font-family="monospace" font-size="11pt" font-style="normal" font-weight="normal" text-decoration="normal" x="527.3278547194241" y="70.24765696050001" text-anchor="start" dominant-baseline="alphabetic" xml:space="preserve">Backend API</text></g></g><g><path fill="none" stroke="black" paint-order="fill stroke markers" d=" M 25.76760203146973 162.497576212 L 25.76760203146973 841.9163780820003" stroke-miterlimit="10" stroke-width="1.3612669416666667" stroke-dasharray="12.565541,5.445067766666667"/><path fill="none" stroke="black" paint-order="fill stroke markers" d=" M 191.89574734068194 162.497576212 L 191.89574734068194 841.9163780820003" stroke-miterlimit="10" stroke-width="1.3612669416666667" stroke-dasharray="12.565541,5.445067766666667"/><path fill="none" stroke="black" paint-order="fill stroke markers" d=" M 464.37998581745467 162.497576212 L 464.37998581745467 841.9163780820003" stroke-miterlimit="10" stroke-width="1.3612669416666667" stroke-dasharray="12.565541,5.445067766666667"/><path fill="none" stroke="black" paint-order="fill stroke markers" d=" M 691.4757281990302 162.497576212 L 691.4757281990302 841.9163780820003" stroke-miterlimit="10" stroke-width="1.3612669416666667" stroke-dasharray="12.565541,5.445067766666667"/><path fill="none" stroke="black" paint-order="fill stroke markers" d=" M 853.4235971009996 162.497576212 L 853.4235971009996 841.9163780820003" stroke-miterlimit="10" stroke-width="1.3612669416666667" stroke-dasharray="12.565541,5.445067766666667"/><path fill="none" stroke="black" paint-order="fill stroke markers" d=" M 948.958801163939 162.497576212 L 948.958801163939 841.9163780820003" stroke-miterlimit="10" stroke-width="1.3612669416666667" stroke-dasharray="12.565541,5.445067766666667"/><path fill="none" stroke="black" paint-order="fill stroke markers" d=" M 1053.294004463939 162.497576212 L 1053.294004463939 841.9163780820003" stroke-miterlimit="10" stroke-width="1.3612669416666667" stroke-dasharray="12.565541,5.445067766666667"/></g><g><g><path fill="white" stroke="blue" paint-order="fill stroke markers" d=" M 35.078667912469726 94.65622035300002 A 9.311065881 9.311065881 0 1 1 35.078663256937176 94.64690928867086 M 25.76760203146973 103.96728623400001 L 25.76760203146973 123.89623426000001 M 14.00625565546973 111.15477568600002 L 37.52894840746973 111.15477568600002 M 25.76760203146973 123.89623426000001 L 14.00625565546973 142.518366022 M 25.76760203146973 123.89623426000001 L 37.52894840746973 142.518366022" stroke-miterlimit="10" stroke-width="1.3884922805000002" stroke-dasharray=""/></g><g><g/><text fill="black" stroke="none" font-family="monospace" font-size="11pt" font-style="normal" font-weight="normal" text-decoration="normal" x="8.167601650000002" y="157.597015222" text-anchor="start" dominant-baseline="alphabetic" xml:space="preserve">User</text></g><path fill="none" stroke="none"/><g><path fill="white" stroke="orange" paint-order="fill stroke markers" d=" M 138.9720509972425 119.64908140200002 L 244.8194436841214 119.64908140200002 L 244.8194436841214 162.497576212 L 138.9720509972425 162.497576212 L 138.9720509972425 119.64908140200002 Z" stroke-miterlimit="10" stroke-width="2.613632528" stroke-dasharray=""/></g><g><g/><text fill="black" stroke="none" font-family="monospace" font-size="11pt" font-style="normal" font-weight="normal" text-decoration="normal" x="156.69574657774248" y="146.16237291200002" text-anchor="start" dominant-baseline="alphabetic" xml:space="preserve">Frontend</text></g><g><path fill="white" stroke="green" paint-order="fill stroke markers" d=" M 496.80536436795467 116.872096841 A 24.2577769005 24.2577769005 0 1 1 496.80535223906725 116.84783906814245 M 432.92655186330467 91.64237534415 L 432.92655186330467 142.10181833785 M 431.95460726695467 116.872096841 L 448.28981056695466 116.872096841" stroke-miterlimit="10" stroke-width="1.9438891927000002" stroke-dasharray=""/></g><g><g/><text fill="black" stroke="none" font-family="monospace" font-size="11pt" font-style="normal" font-weight="normal" text-decoration="normal" x="429.1799850545152" y="157.597015222" text-anchor="start" dominant-baseline="alphabetic" xml:space="preserve">Endpoint</text></g><g><path fill="white" stroke="red" paint-order="fill stroke markers" d=" M 715.7335050995301 116.872096841 A 24.2577769005 24.2577769005 0 1 1 715.7334929706427 116.84783906814245 M 688.2086875390302 92.6143199405 L 698.0098095190301 84.4467182905 M 688.2086875390302 92.6143199405 L 698.0098095190301 100.78192159049999" stroke-miterlimit="10" stroke-width="1.9438891927000002" stroke-dasharray=""/></g><g><g/><text fill="black" stroke="none" font-family="monospace" font-size="11pt" font-style="normal" font-weight="normal" text-decoration="normal" x="660.6757289619696" y="157.597015222" text-anchor="start" dominant-baseline="alphabetic" xml:space="preserve">Scraper</text></g><g><path fill="pink" stroke="black" paint-order="fill stroke markers" d=" M 829.5742002829996 131.737131844 L 829.5742002829996 97.43320491400002 L 877.2729939189995 97.43320491400002 L 877.2729939189995 131.737131844" stroke-miterlimit="10" stroke-width="2.7769845610000004" stroke-dasharray=""/><path fill="pink" stroke="black" paint-order="fill stroke markers" d=" M 877.2729939189995 96.24073507310001 L 877.2718014590959 96.34854561801663 L 877.2682241986298 96.4563453819686 L 877.2622624953245 96.56412358506937 L 877.2539169453452 96.67186944958841 L 877.24318838324 96.7795722010291 L 877.2300778818561 96.88722106920602 L 877.2145867522329 96.99480528932206 L 877.1967165434703 97.10231410304486 L 877.1764690425742 97.20973675958267 L 877.1538462742781 97.31706251675931 L 877.1288505008397 97.42428064208853 L 877.1014842218157 97.53138041384713 L 877.0717501738111 97.6383511221472 L 877.039651330206 97.74518207000703 L 877.0051909008579 97.85186257442088 L 876.9683723317811 97.95838196742719 L 876.9291993048017 98.06472959717544 L 876.88767573719 98.17089482899127 L 876.843805781268 98.27686704643997 L 876.7975938239946 98.38263565238812 L 876.7490444865273 98.48819007006324 L 876.6981626237592 98.59351974411153 L 876.6449533238343 98.69861414165338 L 876.5894219076381 98.8034627533366 L 876.5315739282661 98.9080550943874 L 876.4714151704679 99.01238070565881 L 876.4089516500693 99.11642915467668 L 876.3441896133701 99.2201900366828 L 876.2771355365201 99.32365297567542 L 876.2077961248712 99.42680762544687 L 876.1361783123065 99.52964367061814 L 876.0622892605478 99.63215082767042 L 875.9861363584388 99.73431884597339 L 875.907727221206 99.8361375088104 L 875.8270696896979 99.9375966344 L 875.7441718296004 100.03868607691416 L 875.6590419306306 100.1393957274929 L 875.5716885057071 100.23971551525507 L 875.4821202900999 100.3396354083055 L 875.3903462405559 100.43914541473814 L 875.2963755344035 100.53823558363528 L 875.2002175686349 100.63689600606261 L 875.1018819589668 100.73511681606011 L 875.001378538878 100.83288819162861 L 874.8987173586269 100.93020035571203 L 874.7939086842458 101.02704357717508 L 874.6869629965149 101.12340817177629 L 874.577890989914 101.2192845031365 L 874.4667035715527 101.3146629837025 L 874.3534118600801 101.40953407570571 L 874.2380271845732 101.50388829211596 L 874.1205610834031 101.59771619759026 L 874.0010253030822 101.69100840941624 L 873.879431797089 101.78375559845048 L 873.7557927246726 101.87594849005134 L 873.6301204496372 101.96757786500652 L 873.5024275391057 102.05863456045485 L 873.3727267622627 102.14910947080267 L 873.2410310890778 102.23899354863435 L 873.1073536890085 102.32827780561702 L 872.9717079296836 102.41695331339938 L 872.8341073755657 102.50501120450453 L 872.6945657865958 102.59244267321675 L 872.5530971168165 102.67923897646203 L 872.4097155129767 102.76539143468239 L 872.2644353131176 102.85089143270376 L 872.1172710451377 102.93573042059764 L 871.9682374253416 103.0198999145359 L 871.8173493569667 103.10339149763931 L 871.6646219286944 103.18619682081912 L 871.51007041314 103.26830760361203 L 871.3537102653266 103.34971563500818 L 871.1955571211383 103.43041277427227 L 871.035626795758 103.51039095175761 L 870.8739352820849 103.58964216971313 L 870.7104987491356 103.66815850308305 L 870.545333540427 103.74593210029946 L 870.3784561723427 103.82295518406747 L 870.2098833324802 103.89922005214288 L 870.0396318779831 103.97471907810242 L 869.867718833855 104.04944471210644 L 869.6941613912569 104.12338948165379 L 869.5189769057886 104.19654599232915 L 869.3421828957526 104.26890692854239 L 869.1637970404025 104.34046505426022 L 868.9838371781752 104.4112132137297 L 868.8023213049072 104.4811443321938 L 868.6192675720342 104.55025141659898 L 868.4346942847773 104.6185275562944 L 868.248619900311 104.68596592372296 L 868.0610630259191 104.75255977510412 L 867.8720424171324 104.81830245110825 L 867.6815769758546 104.88318737752253 L 867.4896857484707 104.94720806590838 L 867.2963879239439 105.01035811425034 L 867.1017028318954 105.07263120759616 L 866.9056499406722 105.13402111868842 L 866.7082488554 105.19452170858717 L 866.509519316023 105.25412692728385 L 866.3094811953292 105.31283081430622 L 866.1081544969643 105.37062749931455 L 865.9055593534302 105.42751120268846 L 865.7017160240724 105.48347623610503 L 865.4966448930542 105.53851700310757 L 865.2903664673174 105.59262799966524 L 865.0829013745331 105.64580381472345 L 864.8742703610374 105.69803913074504 L 864.664494289758 105.74932872424193 L 864.453594138127 105.7996674662975 L 864.2415909959839 105.84905032307951 L 864.0285060634662 105.89747235634343 L 863.8143606488899 105.94492872392627 L 863.5991761666176 105.99141468023082 L 863.3829741349183 106.03692557670021 L 863.1657761738152 106.08145686228269 L 862.9476040029232 106.12500408388684 L 862.7284794392776 106.16756288682677 L 862.5084243951522 106.20912901525766 L 862.2874608758682 106.2496983126013 L 862.0656109775932 106.28926672196175 L 861.8428968851322 106.32783028653108 L 861.6193408697087 106.36538514998495 L 861.3949652867383 106.4019275568683 L 861.169792573592 106.43745385297092 L 860.9438452473536 106.47196048569278 L 860.7171459025674 106.50544400439938 L 860.489717208979 106.53790106076674 L 860.2615819092681 106.56932840911628 L 860.0327628167748 106.59972290673934 L 859.8032828132175 106.62908151421152 L 859.5731648464055 106.6574012956965 L 859.3424319279434 106.68467941923974 L 859.111107130931 106.71091315705164 L 858.8792135876552 106.73609988578026 L 858.6467744872771 106.76023708677371 L 858.413813073513 106.78332234633203 L 858.18035264231 106.80535335594848 L 857.946416539517 106.82632791254046 L 857.7120281585491 106.8462439186698 L 857.4772109380491 106.86509938275248 L 857.2419883595435 106.88289241925779 L 857.0063839450938 106.89962124889692 L 856.7704212549455 106.91528419880086 L 856.5341238851709 106.92987970268764 L 856.2975154653099 106.94340630101907 L 856.0606196560072 106.95586264114657 L 855.8234601466468 106.96724747744649 L 855.5860606529816 106.97755967144472 L 855.3484449147631 106.98679819193043 L 855.1106366933675 106.9949621150593 L 854.8726597694184 107.00205062444579 L 854.63453794041 107.00806301124487 L 854.3962950183269 107.01299867422289 L 854.1579548272625 107.01685711981764 L 853.9195412010375 107.0196379621878 L 853.6810779808158 107.02134092325144 L 853.4425890127206 107.02196583271387 L 853.2040981454501 107.02151262808466 L 852.9656292278922 107.01998135468392 L 852.72720610674 107.0173721656377 L 852.488852624107 107.01368532186271 L 852.2505926151426 107.00892119204028 L 852.0124499056494 107.00308025257941 L 851.7744483096998 106.99616308756919 L 851.536611627255 106.98817038872035 L 851.298963641785 106.9791029552961 L 851.0615281178905 106.96896169403226 L 850.8243287989258 106.95774761904647 L 850.5873894046254 106.94546185173691 L 850.3507336287311 106.93210562067006 L 850.1143851366232 106.91768026145789 L 849.8783675629542 106.90218721662433 L 849.6427045092846 106.88562803546091 L 849.4074195417235 106.86800437387197 L 849.1725361885715 106.84931799420899 L 848.9380779379682 106.82957076509436 L 848.7040682355433 106.80876466123452 L 848.4705304820719 106.78690176322253 L 848.2374880311351 106.76398425732997 L 848.0049641867834 106.74001443528833 L 847.7729822012075 106.71499469405985 L 847.5415652724129 106.6889275355978 L 847.3107365418994 106.66181556659627 L 847.0805190923478 106.63366149822963 L 846.8509359453112 106.6044681458812 L 846.6220100589129 106.57423842886192 L 846.3937643255509 106.54297537011827 L 846.1662215696083 106.5106820959301 L 845.939404545171 106.4773618355979 L 845.7133359337525 106.44301792111996 L 845.4880383420256 106.40765378685909 L 845.2635342995615 106.37127296919923 L 845.0398462565776 106.33387910619186 L 844.8169965816917 106.29547593719211 L 844.5950075596855 106.25606730248487 L 844.3739013892765 106.21565714290077 L 844.1537001808971 106.17424949942209 L 843.9344259544849 106.13184851277869 L 843.7161006372797 106.08845842303388 L 843.4987460616313 106.0440835691605 L 843.2823839628163 105.99872838860693 L 843.067035976864 105.95239741685346 L 842.8527236383937 105.90509528695863 L 842.6394683784606 105.85682672909601 L 842.4272915224132 105.80759657008119 L 842.2162142877598 105.75740973288903 L 842.0062577820485 105.70627123616141 L 841.7974430007546 105.65418619370543 L 841.5897908251823 105.6011598139819 L 841.3833220203761 105.54719739958459 L 841.1780572330445 105.49230434671 L 840.974016989495 105.43648614461767 L 840.771221693582 105.37974837508128 L 840.5696916246662 105.32209671183051 L 840.3694469355866 105.26353691998366 L 840.1705076506449 105.20407485547109 L 839.9728936636042 105.14371646444971 L 839.7766247356983 105.0824677827083 L 839.5817204936565 105.02033493506404 L 839.3882004277406 104.95732413474988 L 839.1960838897958 104.89344168279337 L 839.005390091316 104.82869396738644 L 838.816138101522 104.76308746324669 L 838.6283468454551 104.69662873096988 L 838.4420351020844 104.62932441637382 L 838.257221502429 104.56118124983391 L 838.073924527695 104.49220604561 L 837.8921625074267 104.42240570116505 L 837.7119536176752 104.35178719647531 L 837.533315879179 104.28035759333244 L 837.356267155563 104.20812403463721 L 837.1808251515522 104.13509374368529 L 837.0070074112008 104.06127402344492 L 836.8348313161379 103.98667225582662 L 836.6643140838295 103.91129590094496 L 836.4954727658569 103.83515249637263 L 836.328324246211 103.75824965638664 L 836.1628852396046 103.6805950712069 L 835.9991722898004 103.6021965062272 L 835.8372017679571 103.52306180123873 L 835.6769898709919 103.44319886964601 L 835.5185526199607 103.3626156976757 L 835.3619058584569 103.28132034357779 L 835.207065251026 103.19932093681997 L 835.0540462815998 103.11662567727458 L 834.9028642519474 103.03324283439866 L 834.7535342801461 102.94918074640702 L 834.6060712990686 102.86444781943841 L 834.4604900548901 102.7790525267149 L 834.3168051056136 102.6930034076946 L 834.1750308196144 102.60630906721774 L 834.035181374203 102.51897817464607 L 833.8972707542073 102.4310194629961 L 833.7613127505742 102.34244172806571 L 833.6273209589912 102.25325382755454 L 833.4953087785254 102.16346468017835 L 833.3652894102851 102.07308326477704 L 833.2372758560986 101.98211861941685 L 833.1112809172147 101.89057984048648 L 832.9873171930224 101.79847608178757 L 832.8653970797907 101.70581655361923 L 832.7455327694292 101.61261052185705 L 832.6277362482693 101.51886730702655 L 832.5120192958649 101.42459628337107 L 832.3983934838146 101.32980687791445 L 832.2868701746053 101.23450856951823 L 832.1774605204746 101.13871088793383 L 832.0701754622969 101.04242341284956 L 831.9650257284886 100.94565577293272 L 831.8620218339356 100.84841764486666 L 831.7611740789413 100.75071875238314 L 831.6624925481972 100.65256886529 L 831.5659871097743 100.55397779849415 L 831.4716674141358 100.45495541102012 L 831.3795428931728 100.35551160502415 L 831.2896227592606 100.25565632480394 L 831.2019160043377 100.15539955580432 L 831.1164313990064 100.05475132361865 L 831.0331774916561 99.95372169298625 L 830.9521626076081 99.85232076678601 L 830.8733948482833 99.75055868502605 L 830.796882090392 99.64844562382973 L 830.7226319851462 99.5459917944181 L 830.6506519574947 99.4432074420887 L 830.58094920538 99.34010284519113 L 830.5135306990195 99.23668831409914 L 830.4484031802075 99.13297419017968 L 830.3855731616416 99.02897084475869 L 830.3250469262714 98.92468867808407 L 830.2668305266699 98.82013811828556 L 830.2109297844287 98.71532962033203 L 830.1573502895752 98.61027366498594 L 830.1060974000144 98.50498075775526 L 830.0571762409926 98.39946142784298 L 830.0105917045847 98.29372622709415 L 829.9663484492058 98.18778572894077 L 829.9244508991444 98.08165052734432 L 829.8849032441207 97.97533123573653 L 829.847709438867 97.868838485958 L 829.8128732027332 97.7621829271949 L 829.7803980193135 97.65537522491428 L 829.7502871360995 97.54842605979732 L 829.7225435641542 97.44134612667145 L 829.6971700778118 97.33414613344073 L 829.6741692143999 97.22683680001514 L 829.6535432739854 97.1194288572386 L 829.6352943191453 97.0119330458159 L 829.6194241747598 96.90436011523857 L 829.6059344278303 96.79672082271007 L 829.5948264273201 96.68902593206992 L 829.5861012840201 96.58128621271746 L 829.5797598704371 96.47351243853481 L 829.5758028207075 96.36571538680961 L 829.5742305305328 96.25790583715718 L 829.5750431571407 96.15009457044266 L 829.5782406192693 96.04229236770287 L 829.583822597175 95.93451000906825 L 829.5917885326646 95.82675827268484 L 829.6021376291513 95.7190479336365 L 829.6148688517342 95.61138976286738 L 829.6299809273013 95.50379452610481 L 829.6474723446579 95.39627298278283 L 829.6673413546766 95.28883588496618 L 829.6895859704733 95.18149397627508 L 829.7142039676048 95.07425799081098 L 829.7411928842918 94.96713865208302 L 829.7705500216651 94.86014667193587 L 829.8022724440357 94.75329274947832 L 829.8363569791876 94.64658757001362 L 829.8728002186956 94.54004180397077 L 829.9115985182664 94.43366610583759 L 829.952747998102 94.32747111309526 L 829.9962445432891 94.22146744515454 L 830.0420838042091 94.1156657022939 L 830.0902611969743 94.01007646459945 L 830.1407719038856 93.90471029090699 L 830.1936108739142 93.79957771774606 L 830.2487728232073 93.69468925828637 L 830.306252235616 93.59005540128646 L 830.3660433632467 93.48568661004485 L 830.4281402270366 93.38159332135368 L 830.4925366173511 93.27778594445506 L 830.5592260946049 93.1742748600002 L 830.6282019899057 93.07107041901128 L 830.6994574057215 92.96818294184638 L 830.7729852165702 92.86562271716748 L 830.8487780697318 92.7634000009116 L 830.9268283859842 92.66152501526518 L 831.007128360361 92.56000794764186 L 831.0896699629313 92.45885894966383 L 831.1744449396041 92.35808813614659 L 831.261444812952 92.25770558408753 L 831.3506608830604 92.15772133165818 L 831.4420842283965 92.05814537720047 L 831.5357057067021 91.95898767822688 L 831.631515955907 91.86025815042466 L 831.7295053950667 91.76196666666432 L 831.8296642253185 91.66412305601233 L 831.9319824308631 91.56673710274822 L 832.0364497799649 91.46981854538616 L 832.1430558259764 91.37337707570111 L 832.2517899083816 91.2774223377597 L 832.3626411538629 91.18196392695573 L 832.4755984773883 91.08701138905076 L 832.5906505833194 90.99257421921942 L 832.7077859665416 90.89866186110004 L 832.8269929136139 90.80528370585013 L 832.9482595039414 90.71244909120742 L 833.0715736109657 90.620167300556 L 833.1969229033792 90.52844756199806 L 833.3242948463569 90.437299047431 L 833.4536767028108 90.34673087163033 L 833.5850555346628 90.25675209133814 L 833.7184182041394 90.1673717043575 L 833.8537513750848 90.07859864865262 L 833.9910415142947 89.99044180145509 L 834.1302748928695 89.90290997837616 L 834.2714375875873 89.81601193252519 L 834.4145154822965 89.72975635363437 L 834.5594942693266 89.64415186718969 L 834.7063594509199 89.55920703356847 L 834.8550963406806 89.47493034718329 L 835.0056900650435 89.39133023563254 L 835.1581255647619 89.30841505885772 L 835.3123875964127 89.22619310830741 L 835.4684607339213 89.14467260610814 L 835.6263293701041 89.06386170424221 L 835.7859777182291 88.98376848373246 L 835.9473898135942 88.9044009538342 L 836.1105495151247 88.82576705123427 L 836.2754405069862 88.7478746392574 L 836.4420463002172 88.67073150707989 L 836.6103502343769 88.59434536895068 L 836.7803354792122 88.5187238634199 L 836.9519850363405 88.4438745525751 L 837.1252817409489 88.369804921285 L 837.3002082635114 88.29652237645098 L 837.4767471115216 88.22403424626648 L 837.6548806312417 88.1523477794841 L 837.8345910094682 88.08147014469078 L 838.0158602753131 88.01140842959094 L 838.1986703020008 87.94216964029769 L 838.383002808681 87.87376070063229 L 838.5688393622568 87.80618845143167 L 838.7561613792274 87.73945964986444 L 838.9449501275473 87.67358096875519 L 839.1351867284991 87.60855899591708 L 839.3268521585812 87.54440023349323 L 839.5199272514103 87.48111109730644 L 839.714392699638 87.41869791621755 L 839.9102290568816 87.35716693149269 L 840.1074167396683 87.29652429617903 L 840.3059360293946 87.23677607448957 L 840.5057670742966 87.17792824119671 L 840.7068898914364 87.11998668103473 L 840.9092843687 87.06295718811135 L 841.1129302668083 87.00684546532835 L 841.3178072213411 86.95165712381124 L 841.5238947447738 86.89739768234818 L 841.7311722285257 86.84407256683812 L 841.9396189450212 86.79168710974815 L 842.1492140497623 86.74024654958035 L 842.3599365834133 86.68975603034785 L 842.5717654738963 86.64022060106049 L 842.784679538499 86.59164521521994 L 842.9986574859921 86.5440347303243 L 843.2136779187593 86.49739390738237 L 843.4297193349365 86.4517274104376 L 843.646760130562 86.40703980610161 L 843.8647786017374 86.3633355630976 L 844.083752946797 86.32061905181345 L 844.3036612684887 86.27889454386471 L 844.5244815761639 86.23816621166738 L 844.7461917879756 86.19843812802074 L 844.9687697330875 86.15971426570005 L 845.1921931538905 86.12199849705928 L 845.4164397082286 86.08529459364387 L 845.6414869716335 86.04960622581356 L 845.8673124395663 86.0149369623754 L 846.0938935296683 85.98129027022685 L 846.3212075840195 85.94866951400907 L 846.5492318714035 85.91707795577051 L 846.777943589582 85.88651875464066 L 847.0073198675736 85.85699496651418 L 847.2373377679418 85.82850954374526 L 847.4679742890879 85.80106533485245 L 847.6992063675523 85.77466508423377 L 847.9310108803196 85.7493114318923 L 848.163364647132 85.7250069131721 L 848.3962444328062 85.70175395850482 L 848.6296269495577 85.67955489316655 L 848.8634888593295 85.65841193704532 L 849.0978067761254 85.63832720441913 L 849.3325572683489 85.61930270374448 L 849.5677168611464 85.60134033745561 L 849.8032620387548 85.58444190177417 L 850.0391692468525 85.56860908652965 L 850.2754148949152 85.55384347499039 L 850.511975358575 85.5401465437052 L 850.7488269819828 85.52751966235584 L 850.9859460801734 85.51596409361991 L 851.2233089414349 85.50548099304464 L 851.4608918296786 85.49607140893136 L 851.6986709868139 85.48773628223064 L 851.9366226351233 85.48047644644821 L 852.17472297964 85.4742926275616 L 852.4129482105282 85.46918544394751 L 852.6512745054632 85.4651554063201 L 852.8896780320142 85.46220291767973 L 853.1281349500271 85.46032827327284 L 853.3666214140089 85.45953166056228 L 853.605113575512 85.45981315920866 L 853.8435875855188 85.46117274106237 L 854.0820195968272 85.46361027016634 L 854.3203857664347 85.4671255027697 L 854.558662257923 85.47171808735212 L 854.7968252438415 85.47738756465895 L 855.03485090809 85.4841333677472 L 855.2727154483005 85.49195482204219 L 855.5103950782171 85.500851145405 L 855.7478660300752 85.51082144821069 L 855.9851045569771 85.52186473343731 L 856.2220869352681 85.53397989676554 L 856.4587894669077 85.54716572668913 L 856.69518848184 85.5614209046361 L 856.9312603403606 85.5767440051005 L 857.1669814354802 85.59313349578507 L 857.4023281952859 85.6105877377544 L 857.6372770852978 85.62910498559884 L 857.8718046108226 85.64868338760904 L 858.1058873193033 85.66932098596111 L 858.339501802664 85.6910157169124 L 858.5726246996511 85.71376541100791 L 858.8052326981692 85.73756779329719 L 859.0373025376123 85.76242048356184 L 859.2688110111898 85.78832099655354 L 859.4997349682473 85.81526674224258 L 859.7300513165815 85.84325502607685 L 859.9597370247494 85.87228304925127 L 860.1887691243718 85.90234790898774 L 860.4171247124294 85.93344659882531 L 860.6447809535539 85.96557600892095 L 860.8717150823106 85.99873292636039 L 861.097904405476 86.03291403547954 L 861.3233263043063 86.06811591819596 L 861.5479582367992 86.10433505435071 L 861.7717777399489 86.14156782206037 L 861.9947624319915 86.17981049807918 L 862.2168900146435 86.21905925817143 L 862.438138275332 86.25931017749379 L 862.6584850894151 86.30055923098789 L 862.877908422395 86.34280229378275 L 863.0963863321214 86.3860351416073 L 863.3138969709853 86.43025345121276 L 863.5304185881041 86.47545280080504 L 863.7459295314965 86.52162867048685 L 863.9604082502477 86.56877644270969 L 864.1738332966647 86.61689140273562 L 864.3861833284207 86.66596873910875 L 864.5974371106894 86.71600354413634 L 864.8075735182686 86.76699081437957 L 865.0165715376926 86.81892545115392 L 865.2244102693338 86.87180226103897 L 865.4310689294921 86.9256159563978 L 865.6365268524738 86.98036115590575 L 865.8407634926577 87.03603238508846 L 866.0437584265501 87.0926240768694 L 866.2454913548266 87.15013057212657 L 866.4459421043628 87.20854612025836 L 866.6450906302504 87.26786487975863 L 866.842917017803 87.32808091880088 L 867.0394014845466 87.38918821583137 L 867.2345243821984 87.45118066017132 L 867.4282661986311 87.51405205262795 L 867.6206075598245 87.57779610611442 L 867.811529231803 87.6424064462785 L 868.0010121225581 87.70787661214001 L 868.189037283959 87.77420005673692 L 868.3755859136461 87.84137014778005 L 868.5606393569118 87.90938016831626 L 868.7441791085661 87.97822331740018 L 868.9261868147868 88.04789271077426 L 869.1066442749549 88.11838138155724 L 869.2855334434747 88.18968228094076 L 869.4628364315785 88.2617882788943 L 869.6385355091153 88.33469216487818 L 869.8126131063236 88.40838664856452 L 869.9850518155889 88.48286436056638 L 870.1558343931839 88.55811785317462 L 870.3249437609932 88.6341396011027 L 870.4923630082208 88.71092200223917 L 870.6580753930816 88.7884573784079 L 870.8220643444753 88.8667379761359 L 870.9843134636433 88.9457559674286 L 871.1448065258089 89.02550345055275 L 871.3035274817997 89.10597245082647 L 871.4604604596523 89.1871549214168 L 871.6155897661996 89.26904274414436 L 871.7688998886405 89.35162773029508 L 871.9203754960902 89.43490162143917 L 872.0700014411143 89.51885609025692 L 872.2177627612431 89.60348274137141 L 872.3636446804676 89.68877311218804 L 872.5076326107175 89.77471867374081 L 872.6497121533197 89.8613108315452 L 872.7898691004384 89.94854092645757 L 872.9280894364956 90.03640023554112 L 873.064359339573 90.12487997293817 L 873.1986651827938 90.2139712907487 L 873.3309935356856 90.3036652799152 L 873.4613311655232 90.39395297111345 L 873.5896650386526 90.48482533564962 L 873.7159823217933 90.57627328636293 L 873.8402703833219 90.66828767853457 L 873.9625167945363 90.76085931080198 L 874.082709330897 90.85397892607905 L 874.2008359732507 90.94763721248188 L 874.3168849090314 91.04182480425987 L 874.4308445334423 91.13653228273235 L 874.5427034506159 91.23175017723037 L 874.6524504747538 91.32746896604384 L 874.760074631245 91.42367907737363 L 874.8655651577634 91.5203708902888 L 874.9689115053444 91.61753473568862 L 875.0701033394394 91.71516089726953 L 875.1691305409493 91.81323961249673 L 875.2659832072362 91.91176107358042 L 875.3606516531146 92.01071542845659 L 875.4531264118185 92.11009278177222 L 875.5433982359493 92.20988319587481 L 875.6314580983997 92.31007669180607 L 875.7172971932567 92.41066325029993 L 875.8009069366827 92.51163281278436 L 875.8822789677727 92.61297528238724 L 875.9614051493916 92.71468052494606 L 876.038277568987 92.81673837002134 L 876.1128885393812 92.9191386119136 L 876.1852305995392 93.02187101068398 L 876.2552965153154 93.12492529317824 L 876.3230792801764 93.22829115405399 L 876.3885721159024 93.33195825681128 L 876.4517684732643 93.43591623482622 L 876.512662032679 93.54015469238766 L 876.5712467048414 93.64466320573669 L 876.627516631333 93.74943132410907 L 876.6814661852083 93.85444857078026 L 876.7330899715565 93.95970444411313 L 876.7823828280422 94.06518841860805 L 876.8293398254208 94.17088994595545 L 876.8739562680316 94.27679845609072 L 876.9162276942677 94.38290335825107 L 876.9561498770215 94.48919404203473 L 876.9937188241082 94.59565987846186 L 877.0289307786642 94.70229022103757 L 877.0617822195236 94.80907440681646 L 877.0922698615694 94.91600175746893 L 877.1203906560631 95.02306158034904 L 877.1461417909485 95.13024316956367 L 877.1695206911337 95.23753580704327 L 877.190525018748 95.34492876361347 L 877.2091526733763 95.4524113000681 L 877.2254017922685 95.55997266824312 L 877.2392707505264 95.66760211209133 L 877.2507581612657 95.77528886875801 L 877.2598628757548 95.88302216965727 L 877.26658398353 95.99079124154878 L 877.270920812486 96.09858530761515 L 877.2728729289436 96.20639358853963 M 877.2729939189995 130.5446620031 L 877.2718014590959 130.65247254801662 L 877.2682241986298 130.7602723119686 L 877.2622624953245 130.86805051506934 L 877.2539169453452 130.97579637958842 L 877.24318838324 131.08349913102907 L 877.2300778818561 131.191147999206 L 877.2145867522329 131.29873221932203 L 877.1967165434703 131.40624103304486 L 877.1764690425742 131.51366368958264 L 877.1538462742781 131.6209894467593 L 877.1288505008397 131.7282075720885 L 877.1014842218157 131.83530734384712 L 877.0717501738111 131.94227805214717 L 877.039651330206 132.049109000007 L 877.0051909008579 132.15578950442085 L 876.9683723317811 132.26230889742718 L 876.9291993048017 132.36865652717543 L 876.88767573719 132.47482175899125 L 876.843805781268 132.58079397643996 L 876.7975938239946 132.6865625823881 L 876.7490444865273 132.79211700006323 L 876.6981626237592 132.89744667411154 L 876.6449533238343 133.00254107165338 L 876.5894219076381 133.10738968333658 L 876.5315739282661 133.2119820243874 L 876.4714151704679 133.3163076356588 L 876.4089516500693 133.42035608467668 L 876.3441896133701 133.52411696668278 L 876.2771355365201 133.62757990567542 L 876.2077961248712 133.73073455544687 L 876.1361783123065 133.83357060061815 L 876.0622892605478 133.9360777576704 L 875.9861363584388 134.0382457759734 L 875.907727221206 134.14006443881038 L 875.8270696896979 134.24152356439998 L 875.7441718296004 134.34261300691415 L 875.6590419306306 134.44332265749287 L 875.5716885057071 134.54364244525505 L 875.4821202900999 134.6435623383055 L 875.3903462405559 134.74307234473812 L 875.2963755344035 134.8421625136353 L 875.2002175686349 134.9408229360626 L 875.1018819589668 135.0390437460601 L 875.001378538878 135.1368151216286 L 874.8987173586269 135.23412728571202 L 874.7939086842458 135.33097050717507 L 874.6869629965149 135.42733510177626 L 874.577890989914 135.5232114331365 L 874.4667035715527 135.6185899137025 L 874.3534118600801 135.71346100570568 L 874.2380271845732 135.80781522211595 L 874.1205610834031 135.90164312759026 L 874.0010253030822 135.99493533941623 L 873.879431797089 136.08768252845047 L 873.7557927246726 136.17987542005133 L 873.6301204496372 136.2715047950065 L 873.5024275391057 136.36256149045482 L 873.3727267622627 136.45303640080266 L 873.2410310890778 136.54292047863436 L 873.1073536890085 136.63220473561702 L 872.9717079296836 136.72088024339936 L 872.8341073755657 136.8089381345045 L 872.6945657865958 136.89636960321673 L 872.5530971168165 136.98316590646203 L 872.4097155129767 137.06931836468237 L 872.2644353131176 137.15481836270376 L 872.1172710451377 137.23965735059764 L 871.9682374253416 137.3238268445359 L 871.8173493569667 137.4073184276393 L 871.6646219286944 137.49012375081912 L 871.51007041314 137.57223453361203 L 871.3537102653266 137.65364256500817 L 871.1955571211383 137.73433970427226 L 871.035626795758 137.8143178817576 L 870.8739352820849 137.89356909971312 L 870.7104987491356 137.97208543308304 L 870.545333540427 138.04985903029944 L 870.3784561723427 138.12688211406746 L 870.2098833324802 138.20314698214287 L 870.0396318779831 138.2786460081024 L 869.867718833855 138.35337164210642 L 869.6941613912569 138.42731641165378 L 869.5189769057886 138.50047292232912 L 869.3421828957526 138.5728338585424 L 869.1637970404025 138.6443919842602 L 868.9838371781752 138.71514014372968 L 868.8023213049072 138.78507126219378 L 868.6192675720342 138.85417834659899 L 868.4346942847773 138.92245448629438 L 868.248619900311 138.98989285372295 L 868.0610630259191 139.0564867051041 L 867.8720424171324 139.12222938110824 L 867.6815769758546 139.18711430752253 L 867.4896857484707 139.2511349959084 L 867.2963879239439 139.3142850442503 L 867.1017028318954 139.37655813759613 L 866.9056499406722 139.4379480486884 L 866.7082488554 139.49844863858718 L 866.509519316023 139.55805385728382 L 866.3094811953292 139.61675774430623 L 866.1081544969643 139.67455442931453 L 865.9055593534302 139.73143813268845 L 865.7017160240724 139.78740316610504 L 865.4966448930542 139.84244393310757 L 865.2903664673174 139.89655492966523 L 865.0829013745331 139.94973074472344 L 864.8742703610374 140.00196606074505 L 864.664494289758 140.05325565424192 L 864.453594138127 140.1035943962975 L 864.2415909959839 140.1529772530795 L 864.0285060634662 140.20139928634342 L 863.8143606488899 140.24885565392626 L 863.5991761666176 140.29534161023082 L 863.3829741349183 140.3408525067002 L 863.1657761738152 140.38538379228268 L 862.9476040029232 140.42893101388682 L 862.7284794392776 140.47148981682676 L 862.5084243951522 140.51305594525763 L 862.2874608758682 140.55362524260127 L 862.0656109775932 140.59319365196174 L 861.8428968851322 140.63175721653107 L 861.6193408697087 140.66931207998493 L 861.3949652867383 140.7058544868683 L 861.169792573592 140.7413807829709 L 860.9438452473536 140.77588741569278 L 860.7171459025674 140.80937093439937 L 860.489717208979 140.84182799076672 L 860.2615819092681 140.87325533911627 L 860.0327628167748 140.90364983673933 L 859.8032828132175 140.9330084442115 L 859.5731648464055 140.9613282256965 L 859.3424319279434 140.98860634923975 L 859.111107130931 141.01484008705162 L 858.8792135876552 141.04002681578024 L 858.6467744872771 141.0641640167737 L 858.413813073513 141.08724927633202 L 858.18035264231 141.10928028594847 L 857.946416539517 141.13025484254044 L 857.7120281585491 141.15017084866977 L 857.4772109380491 141.16902631275246 L 857.2419883595435 141.18681934925777 L 857.0063839450938 141.2035481788969 L 856.7704212549455 141.21921112880085 L 856.5341238851709 141.23380663268765 L 856.2975154653099 141.24733323101907 L 856.0606196560072 141.25978957114654 L 855.8234601466468 141.2711744074465 L 855.5860606529816 141.28148660144473 L 855.3484449147631 141.29072512193042 L 855.1106366933675 141.2988890450593 L 854.8726597694184 141.30597755444578 L 854.63453794041 141.31198994124486 L 854.3962950183269 141.31692560422286 L 854.1579548272625 141.32078404981763 L 853.9195412010375 141.3235648921878 L 853.6810779808158 141.32526785325143 L 853.4425890127206 141.32589276271386 L 853.2040981454501 141.32543955808467 L 852.9656292278922 141.3239082846839 L 852.72720610674 141.32129909563767 L 852.488852624107 141.3176122518627 L 852.2505926151426 141.31284812204026 L 852.0124499056494 141.3070071825794 L 851.7744483096998 141.30009001756918 L 851.536611627255 141.29209731872032 L 851.298963641785 141.2830298852961 L 851.0615281178905 141.27288862403225 L 850.8243287989258 141.26167454904646 L 850.5873894046254 141.2493887817369 L 850.3507336287311 141.23603255067005 L 850.1143851366232 141.22160719145788 L 849.8783675629542 141.20611414662432 L 849.6427045092846 141.1895549654609 L 849.4074195417235 141.17193130387196 L 849.1725361885715 141.153244924209 L 848.9380779379682 141.13349769509435 L 848.7040682355433 141.1126915912345 L 848.4705304820719 141.0908286932225 L 848.2374880311351 141.06791118732997 L 848.0049641867834 141.04394136528833 L 847.7729822012075 141.01892162405983 L 847.5415652724129 140.9928544655978 L 847.3107365418994 140.96574249659628 L 847.0805190923478 140.93758842822962 L 846.8509359453112 140.90839507588117 L 846.6220100589129 140.8781653588619 L 846.3937643255509 140.84690230011824 L 846.1662215696083 140.81460902593008 L 845.939404545171 140.7812887655979 L 845.7133359337525 140.74694485111993 L 845.4880383420256 140.71158071685906 L 845.2635342995615 140.6751998991992 L 845.0398462565776 140.63780603619185 L 844.8169965816917 140.59940286719208 L 844.5950075596855 140.55999423248485 L 844.3739013892765 140.51958407290076 L 844.1537001808971 140.4781764294221 L 843.9344259544849 140.4357754427787 L 843.7161006372797 140.3923853530339 L 843.4987460616313 140.3480104991605 L 843.2823839628163 140.30265531860692 L 843.067035976864 140.25632434685343 L 842.8527236383937 140.2090222169586 L 842.6394683784606 140.160753659096 L 842.4272915224132 140.11152350008118 L 842.2162142877598 140.061336662889 L 842.0062577820485 140.01019816616142 L 841.7974430007546 139.9581131237054 L 841.5897908251823 139.90508674398188 L 841.3833220203761 139.85112432958456 L 841.1780572330445 139.79623127671 L 840.974016989495 139.74041307461766 L 840.771221693582 139.68367530508127 L 840.5696916246662 139.6260236418305 L 840.3694469355866 139.56746384998365 L 840.1705076506449 139.50800178547107 L 839.9728936636042 139.4476433944497 L 839.7766247356983 139.3863947127083 L 839.5817204936565 139.32426186506405 L 839.3882004277406 139.26125106474987 L 839.1960838897958 139.19736861279335 L 839.005390091316 139.13262089738643 L 838.816138101522 139.0670143932467 L 838.6283468454551 139.00055566096987 L 838.4420351020844 138.93325134637382 L 838.257221502429 138.8651081798339 L 838.073924527695 138.79613297561 L 837.8921625074267 138.72633263116504 L 837.7119536176752 138.65571412647532 L 837.533315879179 138.58428452333243 L 837.356267155563 138.5120509646372 L 837.1808251515522 138.4390206736853 L 837.0070074112008 138.3652009534449 L 836.8348313161379 138.2905991858266 L 836.6643140838295 138.21522283094495 L 836.4954727658569 138.13907942637263 L 836.328324246211 138.06217658638664 L 836.1628852396046 137.9845220012069 L 835.9991722898004 137.90612343622718 L 835.8372017679571 137.8269887312387 L 835.6769898709919 137.747125799646 L 835.5185526199607 137.66654262767568 L 835.3619058584569 137.58524727357778 L 835.207065251026 137.50324786681995 L 835.0540462815998 137.42055260727457 L 834.9028642519474 137.33716976439865 L 834.7535342801461 137.253107676407 L 834.6060712990686 137.16837474943839 L 834.4604900548901 137.0829794567149 L 834.3168051056136 136.9969303376946 L 834.1750308196144 136.9102359972177 L 834.035181374203 136.82290510464605 L 833.8972707542073 136.73494639299608 L 833.7613127505742 136.64636865806568 L 833.6273209589912 136.55718075755453 L 833.4953087785254 136.46739161017834 L 833.3652894102851 136.37701019477703 L 833.2372758560986 136.28604554941683 L 833.1112809172147 136.19450677048647 L 832.9873171930224 136.10240301178757 L 832.8653970797907 136.00974348361922 L 832.7455327694292 135.91653745185704 L 832.6277362482693 135.82279423702653 L 832.5120192958649 135.72852321337106 L 832.3983934838146 135.63373380791444 L 832.2868701746053 135.53843549951822 L 832.1774605204746 135.44263781793381 L 832.0701754622969 135.34635034284955 L 831.9650257284886 135.2495827029327 L 831.8620218339356 135.15234457486665 L 831.7611740789413 135.05464568238312 L 831.6624925481972 134.95649579528998 L 831.5659871097743 134.85790472849413 L 831.4716674141358 134.75888234102013 L 831.3795428931728 134.65943853502412 L 831.2896227592606 134.55958325480393 L 831.2019160043377 134.4593264858043 L 831.1164313990064 134.35867825361862 L 831.0331774916561 134.25764862298624 L 830.9521626076081 134.156247696786 L 830.8733948482833 134.05448561502604 L 830.796882090392 133.95237255382972 L 830.7226319851462 133.8499187244181 L 830.6506519574947 133.7471343720887 L 830.58094920538 133.64402977519111 L 830.5135306990195 133.54061524409914 L 830.4484031802075 133.43690112017967 L 830.3855731616416 133.3328977747587 L 830.3250469262714 133.22861560808406 L 830.2668305266699 133.12406504828556 L 830.2109297844287 133.01925655033202 L 830.1573502895752 132.9142005949859 L 830.1060974000144 132.80890768775524 L 830.0571762409926 132.70338835784298 L 830.0105917045847 132.59765315709416 L 829.9663484492058 132.49171265894074 L 829.9244508991444 132.3855774573443 L 829.8849032441207 132.27925816573654 L 829.847709438867 132.17276541595797 L 829.8128732027332 132.0661098571949 L 829.7803980193135 131.95930215491427 L 829.7502871360995 131.8523529897973 L 829.7225435641542 131.74527305667144 L 829.6971700778118 131.63807306344071 L 829.6741692143999 131.5307637300151 L 829.6535432739854 131.4233557872386 L 829.6352943191453 131.31585997581587 L 829.6194241747598 131.20828704523856 L 829.6059344278303 131.10064775271007 L 829.5948264273201 130.9929528620699 L 829.5861012840201 130.88521314271745 L 829.5797598704371 130.7774393685348 L 829.5758028207075 130.6696423168096 L 829.5742305305328 130.56183276715717" stroke-miterlimit="10" stroke-width="2.7769845610000004" stroke-dasharray=""/></g><g><g/><text fill="black" stroke="none" font-family="monospace" font-size="11pt" font-style="normal" font-weight="normal" text-decoration="normal" x="818.2235963380601" y="157.597015222" text-anchor="start" dominant-baseline="alphabetic" xml:space="preserve">Database</text></g><g><path fill="white" stroke="lightblue" paint-order="fill stroke markers" d=" M 973.216578064439 112.4289215434 A 24.2577769005 24.2577769005 0 1 1 973.2165659355516 112.40466377054244 M 921.9240397024391 141.1298737415 L 975.9935626254389 141.1298737415" stroke-miterlimit="10" stroke-width="5.553969122000001" stroke-dasharray=""/></g><g><g/><text fill="black" stroke="none" font-family="monospace" font-size="11pt" font-style="normal" font-weight="normal" text-decoration="normal" x="904.958801163939" y="157.597015222" text-anchor="start" dominant-baseline="alphabetic" xml:space="preserve">ML Service</text></g><g><path fill="white" stroke="gray" paint-order="fill stroke markers" d=" M 1077.551781364439 114.6505091922 A 24.2577769005 24.2577769005 0 1 1 1077.5517692355515 114.62625141934245 M 1027.647735282939 141.1298737415 L 1078.940273644939 141.1298737415" stroke-miterlimit="10" stroke-width="2.7769845610000004" stroke-dasharray=""/></g><g><g/><text fill="black" stroke="none" font-family="monospace" font-size="11pt" font-style="normal" font-weight="normal" text-decoration="normal" x="1009.294004463939" y="157.597015222" text-anchor="start" dominant-baseline="alphabetic" xml:space="preserve">TwitterAPI</text></g><g><path fill="white" stroke="blue" paint-order="fill stroke markers" d=" M 35.078667912469726 872.5951464335003 A 9.311065881 9.311065881 0 1 1 35.078663256937176 872.5858353691711 M 25.76760203146973 881.9062123145003 L 25.76760203146973 901.8351603405004 M 14.00625565546973 889.0937017665003 L 37.52894840746973 889.0937017665003 M 25.76760203146973 901.8351603405004 L 14.00625565546973 920.4572921025003 M 25.76760203146973 901.8351603405004 L 37.52894840746973 920.4572921025003" stroke-miterlimit="10" stroke-width="1.3884922805000002" stroke-dasharray=""/></g><g><g/><text fill="black" stroke="none" font-family="monospace" font-size="11pt" font-style="normal" font-weight="normal" text-decoration="normal" x="8.167601650000002" y="856.9950272820003" text-anchor="start" dominant-baseline="alphabetic" xml:space="preserve">User</text></g><path fill="none" stroke="none"/><g><path fill="white" stroke="orange" paint-order="fill stroke markers" d=" M 138.9720509972425 841.9163780820003 L 244.8194436841214 841.9163780820003 L 244.8194436841214 884.7648728920003 L 138.9720509972425 884.7648728920003 L 138.9720509972425 841.9163780820003 Z" stroke-miterlimit="10" stroke-width="2.613632528" stroke-dasharray=""/></g><g><g/><text fill="black" stroke="none" font-family="monospace" font-size="11pt" font-style="normal" font-weight="normal" text-decoration="normal" x="156.69574657774248" y="868.4296695920002" text-anchor="start" dominant-baseline="alphabetic" xml:space="preserve">Frontend</text></g><g><path fill="white" stroke="green" paint-order="fill stroke markers" d=" M 496.80536436795467 888.9303497335003 A 24.2577769005 24.2577769005 0 1 1 496.80535223906725 888.9060919606427 M 432.92655186330467 863.7006282366503 L 432.92655186330467 914.1600712303502 M 431.95460726695467 888.9303497335003 L 448.28981056695466 888.9303497335003" stroke-miterlimit="10" stroke-width="1.9438891927000002" stroke-dasharray=""/></g><g><g/><text fill="black" stroke="none" font-family="monospace" font-size="11pt" font-style="normal" font-weight="normal" text-decoration="normal" x="429.1799850545152" y="856.9950272820003" text-anchor="start" dominant-baseline="alphabetic" xml:space="preserve">Endpoint</text></g><g><path fill="white" stroke="red" paint-order="fill stroke markers" d=" M 715.7335050995301 895.7094591030003 A 24.2577769005 24.2577769005 0 1 1 715.7334929706427 895.6852013301427 M 688.2086875390302 871.4516822025004 L 698.0098095190301 863.2840805525003 M 688.2086875390302 871.4516822025004 L 698.0098095190301 879.6192838525004" stroke-miterlimit="10" stroke-width="1.9438891927000002" stroke-dasharray=""/></g><g><g/><text fill="black" stroke="none" font-family="monospace" font-size="11pt" font-style="normal" font-weight="normal" text-decoration="normal" x="660.6757289619696" y="856.9950272820003" text-anchor="start" dominant-baseline="alphabetic" xml:space="preserve">Scraper</text></g><g><path fill="pink" stroke="black" paint-order="fill stroke markers" d=" M 829.5742002829996 909.7577339410003 L 829.5742002829996 875.4538070110002 L 877.2729939189995 875.4538070110002 L 877.2729939189995 909.7577339410003" stroke-miterlimit="10" stroke-width="2.7769845610000004" stroke-dasharray=""/><path fill="pink" stroke="black" paint-order="fill stroke markers" d=" M 877.2729939189995 874.2613371701002 L 877.2718014590959 874.3691477150169 L 877.2682241986298 874.4769474789688 L 877.2622624953245 874.5847256820696 L 877.2539169453452 874.6924715465886 L 877.24318838324 874.8001742980293 L 877.2300778818561 874.9078231662062 L 877.2145867522329 875.0154073863223 L 877.1967165434703 875.1229162000451 L 877.1764690425742 875.2303388565829 L 877.1538462742781 875.3376646137596 L 877.1288505008397 875.4448827390887 L 877.1014842218157 875.5519825108473 L 877.0717501738111 875.6589532191474 L 877.039651330206 875.7657841670073 L 877.0051909008579 875.8724646714211 L 876.9683723317811 875.9789840644273 L 876.9291993048017 876.0853316941756 L 876.88767573719 876.1914969259915 L 876.843805781268 876.2974691434401 L 876.7975938239946 876.4032377493883 L 876.7490444865273 876.5087921670635 L 876.6981626237592 876.6141218411117 L 876.6449533238343 876.7192162386535 L 876.5894219076381 876.8240648503368 L 876.5315739282661 876.9286571913876 L 876.4714151704679 877.032982802659 L 876.4089516500693 877.1370312516768 L 876.3441896133701 877.2407921336829 L 876.2771355365201 877.3442550726757 L 876.2077961248712 877.4474097224471 L 876.1361783123065 877.5502457676183 L 876.0622892605478 877.6527529246706 L 875.9861363584388 877.7549209429736 L 875.907727221206 877.8567396058106 L 875.8270696896979 877.9581987314002 L 875.7441718296004 878.0592881739143 L 875.6590419306306 878.1599978244931 L 875.5716885057071 878.2603176122552 L 875.4821202900999 878.3602375053057 L 875.3903462405559 878.4597475117383 L 875.2963755344035 878.5588376806355 L 875.2002175686349 878.6574981030628 L 875.1018819589668 878.7557189130603 L 875.001378538878 878.8534902886288 L 874.8987173586269 878.9508024527122 L 874.7939086842458 879.0476456741752 L 874.6869629965149 879.1440102687765 L 874.577890989914 879.2398866001367 L 874.4667035715527 879.3352650807027 L 874.3534118600801 879.4301361727059 L 874.2380271845732 879.5244903891162 L 874.1205610834031 879.6183182945905 L 874.0010253030822 879.7116105064165 L 873.879431797089 879.8043576954507 L 873.7557927246726 879.8965505870516 L 873.6301204496372 879.9881799620067 L 873.5024275391057 880.079236657455 L 873.3727267622627 880.1697115678029 L 873.2410310890778 880.2595956456346 L 873.1073536890085 880.3488799026172 L 872.9717079296836 880.4375554103996 L 872.8341073755657 880.5256133015047 L 872.6945657865958 880.6130447702169 L 872.5530971168165 880.6998410734623 L 872.4097155129767 880.7859935316826 L 872.2644353131176 880.8714935297039 L 872.1172710451377 880.9563325175978 L 871.9682374253416 881.0405020115361 L 871.8173493569667 881.1239935946395 L 871.6646219286944 881.2067989178194 L 871.51007041314 881.2889097006122 L 871.3537102653266 881.3703177320084 L 871.1955571211383 881.4510148712725 L 871.035626795758 881.5309930487579 L 870.8739352820849 881.6102442667133 L 870.7104987491356 881.6887606000832 L 870.545333540427 881.7665341972996 L 870.3784561723427 881.8435572810677 L 870.2098833324802 881.9198221491431 L 870.0396318779831 881.9953211751026 L 869.867718833855 882.0700468091067 L 869.6941613912569 882.143991578654 L 869.5189769057886 882.2171480893294 L 869.3421828957526 882.2895090255425 L 869.1637970404025 882.3610671512604 L 868.9838371781752 882.4318153107299 L 868.8023213049072 882.501746429194 L 868.6192675720342 882.5708535135992 L 868.4346942847773 882.6391296532946 L 868.248619900311 882.7065680207231 L 868.0610630259191 882.7731618721043 L 867.8720424171324 882.8389045481084 L 867.6815769758546 882.9037894745227 L 867.4896857484707 882.9678101629086 L 867.2963879239439 883.0309602112505 L 867.1017028318954 883.0932333045963 L 866.9056499406722 883.1546232156886 L 866.7082488554 883.2151238055874 L 866.509519316023 883.274729024284 L 866.3094811953292 883.3334329113064 L 866.1081544969643 883.3912295963147 L 865.9055593534302 883.4481132996887 L 865.7017160240724 883.5040783331052 L 865.4966448930542 883.5591191001078 L 865.2903664673174 883.6132300966655 L 865.0829013745331 883.6664059117237 L 864.8742703610374 883.7186412277453 L 864.664494289758 883.7699308212422 L 864.453594138127 883.8202695632978 L 864.2415909959839 883.8696524200797 L 864.0285060634662 883.9180744533436 L 863.8143606488899 883.9655308209265 L 863.5991761666176 884.012016777231 L 863.3829741349183 884.0575276737004 L 863.1657761738152 884.1020589592829 L 862.9476040029232 884.1456061808871 L 862.7284794392776 884.1881649838269 L 862.5084243951522 884.2297311122578 L 862.2874608758682 884.2703004096015 L 862.0656109775932 884.309868818962 L 861.8428968851322 884.3484323835313 L 861.6193408697087 884.3859872469851 L 861.3949652867383 884.4225296538685 L 861.169792573592 884.4580559499711 L 860.9438452473536 884.4925625826929 L 860.7171459025674 884.5260461013995 L 860.489717208979 884.558503157767 L 860.2615819092681 884.5899305061165 L 860.0327628167748 884.6203250037396 L 859.8032828132175 884.6496836112117 L 859.5731648464055 884.6780033926967 L 859.3424319279434 884.7052815162399 L 859.111107130931 884.7315152540518 L 858.8792135876552 884.7567019827804 L 858.6467744872771 884.7808391837739 L 858.413813073513 884.8039244433322 L 858.18035264231 884.8259554529486 L 857.946416539517 884.8469300095406 L 857.7120281585491 884.86684601567 L 857.4772109380491 884.8857014797527 L 857.2419883595435 884.903494516258 L 857.0063839450938 884.9202233458972 L 856.7704212549455 884.9358862958011 L 856.5341238851709 884.9504817996879 L 856.2975154653099 884.9640083980192 L 856.0606196560072 884.9764647381468 L 855.8234601466468 884.9878495744467 L 855.5860606529816 884.9981617684449 L 855.3484449147631 885.0074002889306 L 855.1106366933675 885.0155642120595 L 854.8726597694184 885.022652721446 L 854.63453794041 885.028665108245 L 854.3962950183269 885.0336007712231 L 854.1579548272625 885.0374592168179 L 853.9195412010375 885.040240059188 L 853.6810779808158 885.0419430202517 L 853.4425890127206 885.0425679297141 L 853.2040981454501 885.0421147250848 L 852.9656292278922 885.0405834516841 L 852.72720610674 885.0379742626379 L 852.488852624107 885.034287418863 L 852.2505926151426 885.0295232890405 L 852.0124499056494 885.0236823495796 L 851.7744483096998 885.0167651845694 L 851.536611627255 885.0087724857206 L 851.298963641785 884.9997050522963 L 851.0615281178905 884.9895637910324 L 850.8243287989258 884.9783497160466 L 850.5873894046254 884.9660639487371 L 850.3507336287311 884.9527077176703 L 850.1143851366232 884.9382823584581 L 849.8783675629542 884.9227893136245 L 849.6427045092846 884.9062301324611 L 849.4074195417235 884.8886064708722 L 849.1725361885715 884.8699200912092 L 848.9380779379682 884.8501728620945 L 848.7040682355433 884.8293667582348 L 848.4705304820719 884.8075038602227 L 848.2374880311351 884.7845863543301 L 848.0049641867834 884.7606165322885 L 847.7729822012075 884.7355967910601 L 847.5415652724129 884.709529632598 L 847.3107365418994 884.6824176635964 L 847.0805190923478 884.6542635952298 L 846.8509359453112 884.6250702428814 L 846.6220100589129 884.5948405258621 L 846.3937643255509 884.5635774671184 L 846.1662215696083 884.5312841929303 L 845.939404545171 884.497963932598 L 845.7133359337525 884.4636200181202 L 845.4880383420256 884.4282558838593 L 845.2635342995615 884.3918750661994 L 845.0398462565776 884.3544812031921 L 844.8169965816917 884.3160780341923 L 844.5950075596855 884.2766693994851 L 844.3739013892765 884.236259239901 L 844.1537001808971 884.1948515964223 L 843.9344259544849 884.1524506097788 L 843.7161006372797 884.1090605200341 L 843.4987460616313 884.0646856661607 L 843.2823839628163 884.0193304856072 L 843.067035976864 883.9729995138537 L 842.8527236383937 883.9256973839588 L 842.6394683784606 883.8774288260962 L 842.4272915224132 883.8281986670814 L 842.2162142877598 883.7780118298892 L 842.0062577820485 883.7268733331616 L 841.7974430007546 883.6747882907056 L 841.5897908251823 883.6217619109821 L 841.3833220203761 883.5677994965848 L 841.1780572330445 883.5129064437102 L 840.974016989495 883.4570882416178 L 840.771221693582 883.4003504720815 L 840.5696916246662 883.3426988088307 L 840.3694469355866 883.2841390169839 L 840.1705076506449 883.2246769524713 L 839.9728936636042 883.1643185614499 L 839.7766247356983 883.1030698797085 L 839.5817204936565 883.0409370320642 L 839.3882004277406 882.9779262317501 L 839.1960838897958 882.9140437797936 L 839.005390091316 882.8492960643866 L 838.816138101522 882.7836895602469 L 838.6283468454551 882.7172308279701 L 838.4420351020844 882.649926513374 L 838.257221502429 882.5817833468341 L 838.073924527695 882.5128081426102 L 837.8921625074267 882.4430077981652 L 837.7119536176752 882.3723892934755 L 837.533315879179 882.3009596903327 L 837.356267155563 882.2287261316374 L 837.1808251515522 882.1556958406854 L 837.0070074112008 882.0818761204451 L 836.8348313161379 882.0072743528268 L 836.6643140838295 881.9318979979452 L 836.4954727658569 881.8557545933728 L 836.328324246211 881.7788517533868 L 836.1628852396046 881.701197168207 L 835.9991722898004 881.6227986032274 L 835.8372017679571 881.543663898239 L 835.6769898709919 881.4638009666462 L 835.5185526199607 881.3832177946758 L 835.3619058584569 881.301922440578 L 835.207065251026 881.2199230338201 L 835.0540462815998 881.1372277742747 L 834.9028642519474 881.0538449313989 L 834.7535342801461 880.9697828434072 L 834.6060712990686 880.8850499164386 L 834.4604900548901 880.7996546237151 L 834.3168051056136 880.7136055046948 L 834.1750308196144 880.626911164218 L 834.035181374203 880.5395802716463 L 833.8972707542073 880.4516215599963 L 833.7613127505742 880.3630438250659 L 833.6273209589912 880.2738559245547 L 833.4953087785254 880.1840667771786 L 833.3652894102851 880.0936853617773 L 833.2372758560986 880.002720716417 L 833.1112809172147 879.9111819374867 L 832.9873171930224 879.8190781787878 L 832.8653970797907 879.7264186506194 L 832.7455327694292 879.6332126188572 L 832.6277362482693 879.5394694040267 L 832.5120192958649 879.4451983803713 L 832.3983934838146 879.3504089749147 L 832.2868701746053 879.2551106665184 L 832.1774605204746 879.159312984934 L 832.0701754622969 879.0630255098498 L 831.9650257284886 878.966257869933 L 831.8620218339356 878.8690197418669 L 831.7611740789413 878.7713208493833 L 831.6624925481972 878.6731709622902 L 831.5659871097743 878.5745798954944 L 831.4716674141358 878.4755575080203 L 831.3795428931728 878.3761137020243 L 831.2896227592606 878.2762584218042 L 831.2019160043377 878.1760016528045 L 831.1164313990064 878.0753534206189 L 831.0331774916561 877.9743237899864 L 830.9521626076081 877.8729228637862 L 830.8733948482833 877.7711607820262 L 830.796882090392 877.6690477208299 L 830.7226319851462 877.5665938914183 L 830.6506519574947 877.4638095390889 L 830.58094920538 877.3607049421913 L 830.5135306990195 877.2572904110993 L 830.4484031802075 877.1535762871798 L 830.3855731616416 877.0495729417589 L 830.3250469262714 876.9452907750842 L 830.2668305266699 876.8407402152858 L 830.2109297844287 876.7359317173323 L 830.1573502895752 876.6308757619861 L 830.1060974000144 876.5255828547555 L 830.0571762409926 876.4200635248432 L 830.0105917045847 876.3143283240944 L 829.9663484492058 876.2083878259409 L 829.9244508991444 876.1022526243445 L 829.8849032441207 875.9959333327367 L 829.847709438867 875.8894405829582 L 829.8128732027332 875.782785024195 L 829.7803980193135 875.6759773219145 L 829.7502871360995 875.5690281567976 L 829.7225435641542 875.4619482236717 L 829.6971700778118 875.3547482304409 L 829.6741692143999 875.2474388970153 L 829.6535432739854 875.1400309542388 L 829.6352943191453 875.0325351428161 L 829.6194241747598 874.9249622122388 L 829.6059344278303 874.8173229197103 L 829.5948264273201 874.7096280290701 L 829.5861012840201 874.6018883097177 L 829.5797598704371 874.494114535535 L 829.5758028207075 874.3863174838098 L 829.5742305305328 874.2785079341573 L 829.5750431571407 874.1706966674428 L 829.5782406192693 874.062894464703 L 829.583822597175 873.9551121060684 L 829.5917885326646 873.847360369685 L 829.6021376291513 873.7396500306367 L 829.6148688517342 873.6319918598675 L 829.6299809273013 873.524396623105 L 829.6474723446579 873.416875079783 L 829.6673413546766 873.3094379819663 L 829.6895859704733 873.2020960732752 L 829.7142039676048 873.0948600878112 L 829.7411928842918 872.9877407490832 L 829.7705500216651 872.8807487689361 L 829.8022724440357 872.7738948464785 L 829.8363569791876 872.6671896670138 L 829.8728002186956 872.560643900971 L 829.9115985182664 872.4542682028377 L 829.952747998102 872.3480732100954 L 829.9962445432891 872.2420695421547 L 830.0420838042091 872.136267799294 L 830.0902611969743 872.0306785615996 L 830.1407719038856 871.9253123879072 L 830.1936108739142 871.8201798147462 L 830.2487728232073 871.7152913552866 L 830.306252235616 871.6106574982866 L 830.3660433632467 871.5062887070451 L 830.4281402270366 871.4021954183538 L 830.4925366173511 871.2983880414553 L 830.5592260946049 871.1948769570004 L 830.6282019899057 871.0916725160115 L 830.6994574057215 870.9887850388466 L 830.7729852165702 870.8862248141677 L 830.8487780697318 870.7840020979118 L 830.9268283859842 870.6821271122653 L 831.007128360361 870.5806100446421 L 831.0896699629313 870.479461046664 L 831.1744449396041 870.3786902331468 L 831.261444812952 870.2783076810878 L 831.3506608830604 870.1783234286584 L 831.4420842283965 870.0787474742007 L 831.5357057067021 869.979589775227 L 831.631515955907 869.8808602474248 L 831.7295053950667 869.7825687636645 L 831.8296642253185 869.6847251530126 L 831.9319824308631 869.5873391997484 L 832.0364497799649 869.4904206423863 L 832.1430558259764 869.3939791727013 L 832.2517899083816 869.2980244347599 L 832.3626411538629 869.2025660239559 L 832.4755984773883 869.1076134860509 L 832.5906505833194 869.0131763162196 L 832.7077859665416 868.9192639581003 L 832.8269929136139 868.8258858028503 L 832.9482595039414 868.7330511882076 L 833.0715736109657 868.6407693975563 L 833.1969229033792 868.5490496589982 L 833.3242948463569 868.4579011444312 L 833.4536767028108 868.3673329686305 L 833.5850555346628 868.2773541883383 L 833.7184182041394 868.1879738013577 L 833.8537513750848 868.0992007456529 L 833.9910415142947 868.0110438984552 L 834.1302748928695 867.9235120753764 L 834.2714375875873 867.8366140295254 L 834.4145154822965 867.7503584506345 L 834.5594942693266 867.6647539641899 L 834.7063594509199 867.5798091305687 L 834.8550963406806 867.4955324441835 L 835.0056900650435 867.4119323326328 L 835.1581255647619 867.3290171558579 L 835.3123875964127 867.2467952053076 L 835.4684607339213 867.1652747031084 L 835.6263293701041 867.0844638012425 L 835.7859777182291 867.0043705807327 L 835.9473898135942 866.9250030508344 L 836.1105495151247 866.8463691482344 L 836.2754405069862 866.7684767362576 L 836.4420463002172 866.6913336040801 L 836.6103502343769 866.6149474659509 L 836.7803354792122 866.5393259604201 L 836.9519850363405 866.4644766495753 L 837.1252817409489 866.3904070182851 L 837.3002082635114 866.3171244734511 L 837.4767471115216 866.2446363432666 L 837.6548806312417 866.1729498764843 L 837.8345910094682 866.102072241691 L 838.0158602753131 866.0320105265911 L 838.1986703020008 865.9627717372979 L 838.383002808681 865.8943627976324 L 838.5688393622568 865.8267905484319 L 838.7561613792274 865.7600617468646 L 838.9449501275473 865.6941830657554 L 839.1351867284991 865.6291610929172 L 839.3268521585812 865.5650023304935 L 839.5199272514103 865.5017131943066 L 839.714392699638 865.4393000132177 L 839.9102290568816 865.3777690284928 L 840.1074167396683 865.3171263931793 L 840.3059360293946 865.2573781714898 L 840.5057670742966 865.1985303381969 L 840.7068898914364 865.140588778035 L 840.9092843687 865.0835592851115 L 841.1129302668083 865.0274475623286 L 841.3178072213411 864.9722592208115 L 841.5238947447738 864.9179997793484 L 841.7311722285257 864.8646746638383 L 841.9396189450212 864.8122892067483 L 842.1492140497623 864.7608486465806 L 842.3599365834133 864.7103581273481 L 842.5717654738963 864.6608226980607 L 842.784679538499 864.6122473122201 L 842.9986574859921 864.5646368273245 L 843.2136779187593 864.5179960043826 L 843.4297193349365 864.4723295074378 L 843.646760130562 864.4276419031019 L 843.8647786017374 864.3839376600978 L 844.083752946797 864.3412211488137 L 844.3036612684887 864.2994966408648 L 844.5244815761639 864.2587683086675 L 844.7461917879756 864.2190402250209 L 844.9687697330875 864.1803163627003 L 845.1921931538905 864.1426005940594 L 845.4164397082286 864.105896690644 L 845.6414869716335 864.0702083228138 L 845.8673124395663 864.0355390593757 L 846.0938935296683 864.001892367227 L 846.3212075840195 863.9692716110093 L 846.5492318714035 863.9376800527707 L 846.777943589582 863.9071208516408 L 847.0073198675736 863.8775970635144 L 847.2373377679418 863.8491116407455 L 847.4679742890879 863.8216674318527 L 847.6992063675523 863.795267181234 L 847.9310108803196 863.7699135288925 L 848.163364647132 863.7456090101723 L 848.3962444328062 863.722356055505 L 848.6296269495577 863.7001569901668 L 848.8634888593295 863.6790140340455 L 849.0978067761254 863.6589293014193 L 849.3325572683489 863.6399048007447 L 849.5677168611464 863.6219424344558 L 849.8032620387548 863.6050439987744 L 850.0391692468525 863.5892111835299 L 850.2754148949152 863.5744455719906 L 850.511975358575 863.5607486407054 L 850.7488269819828 863.548121759356 L 850.9859460801734 863.5365661906201 L 851.2233089414349 863.5260830900448 L 851.4608918296786 863.5166735059315 L 851.6986709868139 863.5083383792308 L 851.9366226351233 863.5010785434484 L 852.17472297964 863.4948947245617 L 852.4129482105282 863.4897875409478 L 852.6512745054632 863.4857575033203 L 852.8896780320142 863.4828050146799 L 853.1281349500271 863.4809303702731 L 853.3666214140089 863.4801337575625 L 853.605113575512 863.4804152562089 L 853.8435875855188 863.4817748380626 L 854.0820195968272 863.4842123671665 L 854.3203857664347 863.4877275997699 L 854.558662257923 863.4923201843524 L 854.7968252438415 863.4979896616592 L 855.03485090809 863.5047354647475 L 855.2727154483005 863.5125569190424 L 855.5103950782171 863.5214532424052 L 855.7478660300752 863.5314235452108 L 855.9851045569771 863.5424668304375 L 856.2220869352681 863.5545819937657 L 856.4587894669077 863.5677678236893 L 856.69518848184 863.5820230016362 L 856.9312603403606 863.5973461021007 L 857.1669814354802 863.6137355927852 L 857.4023281952859 863.6311898347547 L 857.6372770852978 863.6497070825991 L 857.8718046108226 863.6692854846092 L 858.1058873193033 863.6899230829613 L 858.339501802664 863.7116178139127 L 858.5726246996511 863.7343675080081 L 858.8052326981692 863.7581698902974 L 859.0373025376123 863.783022580562 L 859.2688110111898 863.8089230935537 L 859.4997349682473 863.8358688392427 L 859.7300513165815 863.8638571230771 L 859.9597370247494 863.8928851462515 L 860.1887691243718 863.9229500059879 L 860.4171247124294 863.9540486958255 L 860.6447809535539 863.9861781059211 L 860.8717150823106 864.0193350233606 L 861.097904405476 864.0535161324798 L 861.3233263043063 864.0887180151962 L 861.5479582367992 864.1249371513509 L 861.7717777399489 864.1621699190606 L 861.9947624319915 864.2004125950793 L 862.2168900146435 864.2396613551716 L 862.438138275332 864.279912274494 L 862.6584850894151 864.3211613279881 L 862.877908422395 864.363404390783 L 863.0963863321214 864.4066372386075 L 863.3138969709853 864.450855548213 L 863.5304185881041 864.4960548978053 L 863.7459295314965 864.542230767487 L 863.9604082502477 864.5893785397099 L 864.1738332966647 864.6374934997358 L 864.3861833284207 864.6865708361089 L 864.5974371106894 864.7366056411365 L 864.8075735182686 864.7875929113798 L 865.0165715376926 864.8395275481541 L 865.2244102693338 864.8924043580391 L 865.4310689294921 864.946218053398 L 865.6365268524738 865.000963252906 L 865.8407634926577 865.0566344820886 L 866.0437584265501 865.1132261738696 L 866.2454913548266 865.1707326691268 L 866.4459421043628 865.2291482172585 L 866.6450906302504 865.2884669767589 L 866.842917017803 865.348683015801 L 867.0394014845466 865.4097903128315 L 867.2345243821984 865.4717827571715 L 867.4282661986311 865.5346541496282 L 867.6206075598245 865.5983982031146 L 867.811529231803 865.6630085432787 L 868.0010121225581 865.7284787091402 L 868.189037283959 865.7948021537371 L 868.3755859136461 865.8619722447802 L 868.5606393569118 865.9299822653164 L 868.7441791085661 865.9988254144004 L 868.9261868147868 866.0684948077744 L 869.1066442749549 866.1389834785574 L 869.2855334434747 866.210284377941 L 869.4628364315785 866.2823903758945 L 869.6385355091153 866.3552942618784 L 869.8126131063236 866.4289887455648 L 869.9850518155889 866.5034664575666 L 870.1558343931839 866.5787199501748 L 870.3249437609932 866.6547416981028 L 870.4923630082208 866.7315240992393 L 870.6580753930816 866.809059475408 L 870.8220643444753 866.8873400731361 L 870.9843134636433 866.9663580644288 L 871.1448065258089 867.0461055475529 L 871.3035274817997 867.1265745478266 L 871.4604604596523 867.207757018417 L 871.6155897661996 867.2896448411445 L 871.7688998886405 867.3722298272953 L 871.9203754960902 867.4555037184393 L 872.0700014411143 867.5394581872571 L 872.2177627612431 867.6240848383716 L 872.3636446804676 867.7093752091882 L 872.5076326107175 867.795320770741 L 872.6497121533197 867.8819129285454 L 872.7898691004384 867.9691430234577 L 872.9280894364956 868.0570023325413 L 873.064359339573 868.1454820699383 L 873.1986651827938 868.2345733877489 L 873.3309935356856 868.3242673769154 L 873.4613311655232 868.4145550681136 L 873.5896650386526 868.5054274326498 L 873.7159823217933 868.5968753833631 L 873.8402703833219 868.6888897755348 L 873.9625167945363 868.7814614078021 L 874.082709330897 868.8745810230793 L 874.2008359732507 868.9682393094821 L 874.3168849090314 869.0624269012601 L 874.4308445334423 869.1571343797325 L 874.5427034506159 869.2523522742306 L 874.6524504747538 869.348071063044 L 874.760074631245 869.4442811743738 L 874.8655651577634 869.540972987289 L 874.9689115053444 869.6381368326888 L 875.0701033394394 869.7357629942697 L 875.1691305409493 869.8338417094969 L 875.2659832072362 869.9323631705806 L 875.3606516531146 870.0313175254568 L 875.4531264118185 870.1306948787724 L 875.5433982359493 870.230485292875 L 875.6314580983997 870.3306787888063 L 875.7172971932567 870.4312653473002 L 875.8009069366827 870.5322349097845 L 875.8822789677727 870.6335773793875 L 875.9614051493916 870.7352826219462 L 876.038277568987 870.8373404670215 L 876.1128885393812 870.9397407089137 L 876.1852305995392 871.0424731076841 L 876.2552965153154 871.1455273901785 L 876.3230792801764 871.2488932510541 L 876.3885721159024 871.3525603538114 L 876.4517684732643 871.4565183318264 L 876.512662032679 871.5607567893878 L 876.5712467048414 871.6652653027369 L 876.627516631333 871.7700334211092 L 876.6814661852083 871.8750506677804 L 876.7330899715565 871.9803065411134 L 876.7823828280422 872.0857905156082 L 876.8293398254208 872.1914920429557 L 876.8739562680316 872.2974005530909 L 876.9162276942677 872.4035054552512 L 876.9561498770215 872.509796139035 L 876.9937188241082 872.6162619754621 L 877.0289307786642 872.7228923180378 L 877.0617822195236 872.8296765038167 L 877.0922698615694 872.9366038544691 L 877.1203906560631 873.0436636773492 L 877.1461417909485 873.1508452665639 L 877.1695206911337 873.2581379040435 L 877.190525018748 873.3655308606136 L 877.2091526733763 873.4730133970683 L 877.2254017922685 873.5805747652433 L 877.2392707505264 873.6882042090915 L 877.2507581612657 873.7958909657582 L 877.2598628757548 873.9036242666575 L 877.26658398353 874.0113933385489 L 877.270920812486 874.1191874046153 L 877.2728729289436 874.2269956855398 M 877.2729939189995 908.5652641001003 L 877.2718014590959 908.673074645017 L 877.2682241986298 908.7808744089689 L 877.2622624953245 908.8886526120697 L 877.2539169453452 908.9963984765888 L 877.24318838324 909.1041012280294 L 877.2300778818561 909.2117500962063 L 877.2145867522329 909.3193343163224 L 877.1967165434703 909.4268431300452 L 877.1764690425742 909.534265786583 L 877.1538462742781 909.6415915437597 L 877.1288505008397 909.7488096690888 L 877.1014842218157 909.8559094408474 L 877.0717501738111 909.9628801491475 L 877.039651330206 910.0697110970074 L 877.0051909008579 910.1763916014212 L 876.9683723317811 910.2829109944275 L 876.9291993048017 910.3892586241757 L 876.88767573719 910.4954238559916 L 876.843805781268 910.6013960734402 L 876.7975938239946 910.7071646793884 L 876.7490444865273 910.8127190970636 L 876.6981626237592 910.9180487711118 L 876.6449533238343 911.0231431686536 L 876.5894219076381 911.1279917803369 L 876.5315739282661 911.2325841213877 L 876.4714151704679 911.3369097326591 L 876.4089516500693 911.4409581816769 L 876.3441896133701 911.544719063683 L 876.2771355365201 911.6481820026758 L 876.2077961248712 911.7513366524472 L 876.1361783123065 911.8541726976184 L 876.0622892605478 911.9566798546707 L 875.9861363584388 912.0588478729737 L 875.907727221206 912.1606665358107 L 875.8270696896979 912.2621256614003 L 875.7441718296004 912.3632151039144 L 875.6590419306306 912.4639247544932 L 875.5716885057071 912.5642445422553 L 875.4821202900999 912.6641644353058 L 875.3903462405559 912.7636744417384 L 875.2963755344035 912.8627646106356 L 875.2002175686349 912.9614250330629 L 875.1018819589668 913.0596458430604 L 875.001378538878 913.1574172186289 L 874.8987173586269 913.2547293827123 L 874.7939086842458 913.3515726041753 L 874.6869629965149 913.4479371987766 L 874.577890989914 913.5438135301368 L 874.4667035715527 913.6391920107028 L 874.3534118600801 913.734063102706 L 874.2380271845732 913.8284173191163 L 874.1205610834031 913.9222452245906 L 874.0010253030822 914.0155374364166 L 873.879431797089 914.1082846254508 L 873.7557927246726 914.2004775170517 L 873.6301204496372 914.2921068920068 L 873.5024275391057 914.3831635874551 L 873.3727267622627 914.473638497803 L 873.2410310890778 914.5635225756347 L 873.1073536890085 914.6528068326173 L 872.9717079296836 914.7414823403997 L 872.8341073755657 914.8295402315048 L 872.6945657865958 914.916971700217 L 872.5530971168165 915.0037680034624 L 872.4097155129767 915.0899204616827 L 872.2644353131176 915.175420459704 L 872.1172710451377 915.260259447598 L 871.9682374253416 915.3444289415362 L 871.8173493569667 915.4279205246396 L 871.6646219286944 915.5107258478195 L 871.51007041314 915.5928366306123 L 871.3537102653266 915.6742446620085 L 871.1955571211383 915.7549418012726 L 871.035626795758 915.834919978758 L 870.8739352820849 915.9141711967134 L 870.7104987491356 915.9926875300833 L 870.545333540427 916.0704611272997 L 870.3784561723427 916.1474842110678 L 870.2098833324802 916.2237490791432 L 870.0396318779831 916.2992481051027 L 869.867718833855 916.3739737391068 L 869.6941613912569 916.4479185086541 L 869.5189769057886 916.5210750193295 L 869.3421828957526 916.5934359555426 L 869.1637970404025 916.6649940812605 L 868.9838371781752 916.73574224073 L 868.8023213049072 916.8056733591941 L 868.6192675720342 916.8747804435993 L 868.4346942847773 916.9430565832947 L 868.248619900311 917.0104949507232 L 868.0610630259191 917.0770888021044 L 867.8720424171324 917.1428314781085 L 867.6815769758546 917.2077164045228 L 867.4896857484707 917.2717370929087 L 867.2963879239439 917.3348871412506 L 867.1017028318954 917.3971602345964 L 866.9056499406722 917.4585501456887 L 866.7082488554 917.5190507355875 L 866.509519316023 917.5786559542842 L 866.3094811953292 917.6373598413065 L 866.1081544969643 917.6951565263148 L 865.9055593534302 917.7520402296888 L 865.7017160240724 917.8080052631053 L 865.4966448930542 917.8630460301079 L 865.2903664673174 917.9171570266656 L 865.0829013745331 917.9703328417238 L 864.8742703610374 918.0225681577454 L 864.664494289758 918.0738577512423 L 864.453594138127 918.1241964932979 L 864.2415909959839 918.1735793500798 L 864.0285060634662 918.2220013833437 L 863.8143606488899 918.2694577509266 L 863.5991761666176 918.3159437072311 L 863.3829741349183 918.3614546037005 L 863.1657761738152 918.405985889283 L 862.9476040029232 918.4495331108872 L 862.7284794392776 918.492091913827 L 862.5084243951522 918.5336580422579 L 862.2874608758682 918.5742273396016 L 862.0656109775932 918.613795748962 L 861.8428968851322 918.6523593135314 L 861.6193408697087 918.6899141769852 L 861.3949652867383 918.7264565838686 L 861.169792573592 918.7619828799712 L 860.9438452473536 918.796489512693 L 860.7171459025674 918.8299730313997 L 860.489717208979 918.862430087767 L 860.2615819092681 918.8938574361166 L 860.0327628167748 918.9242519337397 L 859.8032828132175 918.9536105412118 L 859.5731648464055 918.9819303226968 L 859.3424319279434 919.00920844624 L 859.111107130931 919.0354421840519 L 858.8792135876552 919.0606289127805 L 858.6467744872771 919.084766113774 L 858.413813073513 919.1078513733323 L 858.18035264231 919.1298823829487 L 857.946416539517 919.1508569395407 L 857.7120281585491 919.1707729456701 L 857.4772109380491 919.1896284097528 L 857.2419883595435 919.2074214462581 L 857.0063839450938 919.2241502758973 L 856.7704212549455 919.2398132258012 L 856.5341238851709 919.254408729688 L 856.2975154653099 919.2679353280193 L 856.0606196560072 919.2803916681469 L 855.8234601466468 919.2917765044468 L 855.5860606529816 919.302088698445 L 855.3484449147631 919.3113272189307 L 855.1106366933675 919.3194911420596 L 854.8726597694184 919.3265796514461 L 854.63453794041 919.3325920382451 L 854.3962950183269 919.3375277012232 L 854.1579548272625 919.341386146818 L 853.9195412010375 919.3441669891881 L 853.6810779808158 919.3458699502518 L 853.4425890127206 919.3464948597142 L 853.2040981454501 919.346041655085 L 852.9656292278922 919.3445103816842 L 852.72720610674 919.341901192638 L 852.488852624107 919.338214348863 L 852.2505926151426 919.3334502190406 L 852.0124499056494 919.3276092795797 L 851.7744483096998 919.3206921145695 L 851.536611627255 919.3126994157207 L 851.298963641785 919.3036319822965 L 851.0615281178905 919.2934907210325 L 850.8243287989258 919.2822766460467 L 850.5873894046254 919.2699908787372 L 850.3507336287311 919.2566346476704 L 850.1143851366232 919.2422092884582 L 849.8783675629542 919.2267162436247 L 849.6427045092846 919.2101570624612 L 849.4074195417235 919.1925334008723 L 849.1725361885715 919.1738470212093 L 848.9380779379682 919.1540997920946 L 848.7040682355433 919.1332936882349 L 848.4705304820719 919.1114307902228 L 848.2374880311351 919.0885132843302 L 848.0049641867834 919.0645434622886 L 847.7729822012075 919.0395237210602 L 847.5415652724129 919.0134565625981 L 847.3107365418994 918.9863445935965 L 847.0805190923478 918.95819052523 L 846.8509359453112 918.9289971728815 L 846.6220100589129 918.8987674558622 L 846.3937643255509 918.8675043971185 L 846.1662215696083 918.8352111229304 L 845.939404545171 918.8018908625982 L 845.7133359337525 918.7675469481203 L 845.4880383420256 918.7321828138594 L 845.2635342995615 918.6958019961995 L 845.0398462565776 918.6584081331922 L 844.8169965816917 918.6200049641924 L 844.5950075596855 918.5805963294852 L 844.3739013892765 918.5401861699011 L 844.1537001808971 918.4987785264224 L 843.9344259544849 918.4563775397789 L 843.7161006372797 918.4129874500342 L 843.4987460616313 918.3686125961608 L 843.2823839628163 918.3232574156073 L 843.067035976864 918.2769264438538 L 842.8527236383937 918.2296243139589 L 842.6394683784606 918.1813557560963 L 842.4272915224132 918.1321255970815 L 842.2162142877598 918.0819387598893 L 842.0062577820485 918.0308002631617 L 841.7974430007546 917.9787152207057 L 841.5897908251823 917.9256888409822 L 841.3833220203761 917.8717264265849 L 841.1780572330445 917.8168333737103 L 840.974016989495 917.7610151716179 L 840.771221693582 917.7042774020816 L 840.5696916246662 917.6466257388308 L 840.3694469355866 917.588065946984 L 840.1705076506449 917.5286038824714 L 839.9728936636042 917.46824549145 L 839.7766247356983 917.4069968097086 L 839.5817204936565 917.3448639620643 L 839.3882004277406 917.2818531617502 L 839.1960838897958 917.2179707097937 L 839.005390091316 917.1532229943867 L 838.816138101522 917.087616490247 L 838.6283468454551 917.0211577579702 L 838.4420351020844 916.9538534433741 L 838.257221502429 916.8857102768342 L 838.073924527695 916.8167350726103 L 837.8921625074267 916.7469347281653 L 837.7119536176752 916.6763162234756 L 837.533315879179 916.6048866203328 L 837.356267155563 916.5326530616375 L 837.1808251515522 916.4596227706855 L 837.0070074112008 916.3858030504452 L 836.8348313161379 916.3112012828269 L 836.6643140838295 916.2358249279453 L 836.4954727658569 916.1596815233729 L 836.328324246211 916.0827786833869 L 836.1628852396046 916.0051240982071 L 835.9991722898004 915.9267255332275 L 835.8372017679571 915.847590828239 L 835.6769898709919 915.7677278966463 L 835.5185526199607 915.6871447246759 L 835.3619058584569 915.6058493705781 L 835.207065251026 915.5238499638202 L 835.0540462815998 915.4411547042748 L 834.9028642519474 915.357771861399 L 834.7535342801461 915.2737097734073 L 834.6060712990686 915.1889768464387 L 834.4604900548901 915.1035815537152 L 834.3168051056136 915.0175324346949 L 834.1750308196144 914.9308380942181 L 834.035181374203 914.8435072016464 L 833.8972707542073 914.7555484899964 L 833.7613127505742 914.666970755066 L 833.6273209589912 914.5777828545548 L 833.4953087785254 914.4879937071787 L 833.3652894102851 914.3976122917774 L 833.2372758560986 914.3066476464171 L 833.1112809172147 914.2151088674868 L 832.9873171930224 914.1230051087879 L 832.8653970797907 914.0303455806195 L 832.7455327694292 913.9371395488573 L 832.6277362482693 913.8433963340268 L 832.5120192958649 913.7491253103714 L 832.3983934838146 913.6543359049148 L 832.2868701746053 913.5590375965185 L 832.1774605204746 913.4632399149341 L 832.0701754622969 913.3669524398499 L 831.9650257284886 913.2701847999331 L 831.8620218339356 913.172946671867 L 831.7611740789413 913.0752477793834 L 831.6624925481972 912.9770978922903 L 831.5659871097743 912.8785068254945 L 831.4716674141358 912.7794844380204 L 831.3795428931728 912.6800406320244 L 831.2896227592606 912.5801853518043 L 831.2019160043377 912.4799285828046 L 831.1164313990064 912.379280350619 L 831.0331774916561 912.2782507199865 L 830.9521626076081 912.1768497937863 L 830.8733948482833 912.0750877120263 L 830.796882090392 911.97297465083 L 830.7226319851462 911.8705208214184 L 830.6506519574947 911.767736469089 L 830.58094920538 911.6646318721914 L 830.5135306990195 911.5612173410995 L 830.4484031802075 911.4575032171799 L 830.3855731616416 911.353499871759 L 830.3250469262714 911.2492177050843 L 830.2668305266699 911.1446671452859 L 830.2109297844287 911.0398586473324 L 830.1573502895752 910.9348026919862 L 830.1060974000144 910.8295097847556 L 830.0571762409926 910.7239904548433 L 830.0105917045847 910.6182552540945 L 829.9663484492058 910.512314755941 L 829.9244508991444 910.4061795543446 L 829.8849032441207 910.2998602627368 L 829.847709438867 910.1933675129583 L 829.8128732027332 910.0867119541952 L 829.7803980193135 909.9799042519146 L 829.7502871360995 909.8729550867977 L 829.7225435641542 909.7658751536718 L 829.6971700778118 909.658675160441 L 829.6741692143999 909.5513658270154 L 829.6535432739854 909.4439578842389 L 829.6352943191453 909.3364620728162 L 829.6194241747598 909.2288891422389 L 829.6059344278303 909.1212498497104 L 829.5948264273201 909.0135549590702 L 829.5861012840201 908.9058152397178 L 829.5797598704371 908.7980414655351 L 829.5758028207075 908.6902444138099 L 829.5742305305328 908.5824348641574" stroke-miterlimit="10" stroke-width="2.7769845610000004" stroke-dasharray=""/></g><g><g/><text fill="black" stroke="none" font-family="monospace" font-size="11pt" font-style="normal" font-weight="normal" text-decoration="normal" x="818.2235963380601" y="856.9950272820003" text-anchor="start" dominant-baseline="alphabetic" xml:space="preserve">Database</text></g><g><path fill="white" stroke="lightblue" paint-order="fill stroke markers" d=" M 973.216578064439 885.8756667164002 A 24.2577769005 24.2577769005 0 1 1 973.2165659355516 885.8514089435427 M 921.9240397024391 914.5766189145002 L 975.9935626254389 914.5766189145002" stroke-miterlimit="10" stroke-width="5.553969122000001" stroke-dasharray=""/></g><g><g/><text fill="black" stroke="none" font-family="monospace" font-size="11pt" font-style="normal" font-weight="normal" text-decoration="normal" x="904.958801163939" y="856.9950272820003" text-anchor="start" dominant-baseline="alphabetic" xml:space="preserve">ML Service</text></g><g><path fill="white" stroke="gray" paint-order="fill stroke markers" d=" M 1077.551781364439 888.0972543652002 A 24.2577769005 24.2577769005 0 1 1 1077.5517692355515 888.0729965923426 M 1027.647735282939 914.5766189145002 L 1078.940273644939 914.5766189145002" stroke-miterlimit="10" stroke-width="2.7769845610000004" stroke-dasharray=""/></g><g><g/><text fill="black" stroke="none" font-family="monospace" font-size="11pt" font-style="normal" font-weight="normal" text-decoration="normal" x="1009.294004463939" y="856.9950272820003" text-anchor="start" dominant-baseline="alphabetic" xml:space="preserve">TwitterAPI</text></g></g><g><path fill="white" stroke="black" paint-order="fill stroke markers" d=" M 183.72814569068194 229.848875972 L 200.06334899068193 229.848875972 L 200.06334899068193 784.7431665320003 L 183.72814569068194 784.7431665320003 L 183.72814569068194 229.848875972" stroke-miterlimit="10" stroke-width="1.3612669416666667" stroke-dasharray=""/><path fill="white" stroke="black" paint-order="fill stroke markers" d=" M 456.2123841674547 273.953924882 L 472.54758746745466 273.953924882 L 472.54758746745466 740.6381176220002 L 456.2123841674547 740.6381176220002 L 456.2123841674547 273.953924882" stroke-miterlimit="10" stroke-width="1.3612669416666667" stroke-dasharray=""/><path fill="white" stroke="black" paint-order="fill stroke markers" d=" M 845.2559954509995 318.058973792 L 861.5911987509996 318.058973792 L 861.5911987509996 656.9516145620001 L 845.2559954509995 656.9516145620001 L 845.2559954509995 318.058973792" stroke-miterlimit="10" stroke-width="1.3612669416666667" stroke-dasharray=""/><path fill="white" stroke="black" paint-order="fill stroke markers" d=" M 683.3081265490301 421.34772081200003 L 699.6433298490302 421.34772081200003 L 699.6433298490302 509.557818632 L 683.3081265490301 509.557818632 L 683.3081265490301 421.34772081200003" stroke-miterlimit="10" stroke-width="1.3612669416666667" stroke-dasharray=""/><path fill="white" stroke="black" paint-order="fill stroke markers" d=" M 940.791199513939 553.6628675420001 L 957.1264028139391 553.6628675420001 L 957.1264028139391 597.7679164520001 L 940.791199513939 597.7679164520001 L 940.791199513939 553.6628675420001" stroke-miterlimit="10" stroke-width="1.3612669416666667" stroke-dasharray=""/><g><text fill="black" stroke="none" font-family="monospace" font-size="11pt" font-style="normal" font-weight="normal" text-decoration="normal" x="47.54787309813639" y="208.738767092" text-anchor="start" dominant-baseline="alphabetic" xml:space="preserve">Input Twitter</text><text fill="black" stroke="none" font-family="monospace" font-size="11pt" font-style="normal" font-weight="normal" text-decoration="normal" x="47.54787309813639" y="223.817416292" text-anchor="start" dominant-baseline="alphabetic" xml:space="preserve">account URL</text></g><g><path fill="none" stroke="black" paint-order="fill stroke markers" d=" M 25.76760203146973 229.848875972 L 170.27882830701526 229.848875972" stroke-miterlimit="10" stroke-width="1.3612669416666667" stroke-dasharray=""/><g transform="translate(183.72814569068194,229.848875972) translate(-183.72814569068194,-229.848875972)"><path fill="black" stroke="none" paint-order="stroke fill markers" d=" M 170.11547627401526 223.04254126366666 L 183.72814569068194 229.848875972 L 170.11547627401526 236.65521068033334 Z"/></g></g><g><text fill="black" stroke="none" font-family="monospace" font-size="11pt" font-style="normal" font-weight="normal" text-decoration="normal" x="240.13786657906826" y="267.922465202" text-anchor="start" dominant-baseline="alphabetic" xml:space="preserve">Request check result</text></g><g><path fill="none" stroke="black" paint-order="fill stroke markers" d=" M 200.06334899068193 273.953924882 L 442.763066783788 273.953924882" stroke-miterlimit="10" stroke-width="1.3612669416666667" stroke-dasharray=""/><g transform="translate(456.2123841674547,273.953924882) translate(-456.2123841674547,-273.953924882)"><path fill="black" stroke="none" paint-order="stroke fill markers" d=" M 442.599714750788 267.1475901736667 L 456.2123841674547 273.953924882 L 442.599714750788 280.76025959033336 Z"/></g></g><g><text fill="black" stroke="none" font-family="monospace" font-size="11pt" font-style="normal" font-weight="normal" text-decoration="normal" x="588.5017899333482" y="312.02751411200006" text-anchor="start" dominant-baseline="alphabetic" xml:space="preserve">Get check result</text></g><g><path fill="none" stroke="black" paint-order="fill stroke markers" d=" M 472.54758746745466 318.058973792 L 831.8066780673329 318.058973792" stroke-miterlimit="10" stroke-width="1.3612669416666667" stroke-dasharray=""/><g transform="translate(845.2559954509995,318.058973792) translate(-845.2559954509995,-318.058973792)"><path fill="black" stroke="none" paint-order="stroke fill markers" d=" M 831.6433260343329 311.2526390836667 L 845.2559954509995 318.058973792 L 831.6433260343329 324.86530850033336 Z"/></g></g><g><text fill="black" stroke="none" font-family="monospace" font-size="11pt" font-style="normal" font-weight="normal" text-decoration="normal" x="520.727856245303" y="400.23761193200005" text-anchor="start" dominant-baseline="alphabetic" xml:space="preserve">Fetch account</text><text fill="black" stroke="none" font-family="monospace" font-size="11pt" font-style="normal" font-weight="normal" text-decoration="normal" x="520.727856245303" y="415.316261132" text-anchor="start" dominant-baseline="alphabetic" xml:space="preserve">information</text></g><g><path fill="none" stroke="black" paint-order="fill stroke markers" d=" M 472.54758746745466 421.34772081200003 L 669.8588091653635 421.34772081200003" stroke-miterlimit="10" stroke-width="1.3612669416666667" stroke-dasharray=""/><g transform="translate(683.3081265490301,421.34772081200003) translate(-683.3081265490301,-421.34772081200003)"><path fill="black" stroke="none" paint-order="stroke fill markers" d=" M 669.6954571323635 414.5413861036667 L 683.3081265490301 421.34772081200003 L 669.6954571323635 428.1540555203334 Z"/></g></g><g><text fill="black" stroke="none" font-family="monospace" font-size="11pt" font-style="normal" font-weight="normal" text-decoration="normal" x="801.6686641047268" y="459.4213100420001" text-anchor="start" dominant-baseline="alphabetic" xml:space="preserve">getUser(username)</text></g><g><path fill="none" stroke="black" paint-order="fill stroke markers" d=" M 699.6433298490302 465.452769722 L 1039.8446870802723 465.452769722" stroke-miterlimit="10" stroke-width="1.3612669416666667" stroke-dasharray=""/><g transform="translate(1053.294004463939,465.452769722) translate(-1053.294004463939,-465.452769722)"><path fill="black" stroke="none" paint-order="stroke fill markers" d=" M 1039.6813350472723 458.6464350136667 L 1053.294004463939 465.452769722 L 1039.6813350472723 472.25910443033337 Z"/></g></g><g><text fill="black" stroke="none" font-family="monospace" font-size="11pt" font-style="normal" font-weight="normal" text-decoration="normal" x="494.32785853412133" y="503.526358952" text-anchor="start" dominant-baseline="alphabetic" xml:space="preserve">Account information</text></g><g><path fill="none" stroke="black" paint-order="fill stroke markers" d=" M 683.3081265490301 509.557818632 L 485.9969048511213 509.557818632" stroke-miterlimit="10" stroke-width="1.3612669416666667" stroke-dasharray="6.53408132"/><g transform="translate(472.54758746745466,509.557818632) translate(-472.54758746745466,-509.557818632)"><path fill="black" stroke="none" paint-order="stroke fill markers" d=" M 486.16025688412134 502.7514839236667 L 472.54758746745466 509.557818632 L 486.16025688412134 516.3641533403334 Z"/></g></g><g><text fill="black" stroke="none" font-family="monospace" font-size="11pt" font-style="normal" font-weight="normal" text-decoration="normal" x="618.6693934906968" y="547.6314078620001" text-anchor="start" dominant-baseline="alphabetic" xml:space="preserve">Run model on account</text></g><g><path fill="none" stroke="black" paint-order="fill stroke markers" d=" M 472.54758746745466 553.6628675420001 L 927.3418821302723 553.6628675420001" stroke-miterlimit="10" stroke-width="1.3612669416666667" stroke-dasharray=""/><g transform="translate(940.791199513939,553.6628675420001) translate(-940.791199513939,-553.6628675420001)"><path fill="black" stroke="none" paint-order="stroke fill markers" d=" M 927.1785300972723 546.8565328336667 L 940.791199513939 553.6628675420001 L 927.1785300972723 560.4692022503334 Z"/></g></g><g><text fill="black" stroke="none" font-family="monospace" font-size="11pt" font-style="normal" font-weight="normal" text-decoration="normal" x="653.8693942536363" y="591.7364567720001" text-anchor="start" dominant-baseline="alphabetic" xml:space="preserve">Check result</text></g><g><path fill="none" stroke="black" paint-order="fill stroke markers" d=" M 940.791199513939 597.7679164520001 L 485.9969048511213 597.7679164520001" stroke-miterlimit="10" stroke-width="1.3612669416666667" stroke-dasharray="6.53408132"/><g transform="translate(472.54758746745466,597.7679164520001) translate(-472.54758746745466,-597.7679164520001)"><path fill="black" stroke="none" paint-order="stroke fill markers" d=" M 486.16025688412134 590.9615817436668 L 472.54758746745466 597.7679164520001 L 486.16025688412134 604.5742511603335 Z"/></g></g><g><text fill="black" stroke="none" font-family="monospace" font-size="11pt" font-style="normal" font-weight="normal" text-decoration="normal" x="557.7017945109849" y="635.8415056820002" text-anchor="start" dominant-baseline="alphabetic" xml:space="preserve">Save check result</text><text fill="black" stroke="none" font-family="monospace" font-size="11pt" font-style="normal" font-weight="normal" text-decoration="normal" x="557.7017945109849" y="650.9201548820001" text-anchor="start" dominant-baseline="alphabetic" xml:space="preserve">and account information</text></g><g><path fill="none" stroke="black" paint-order="fill stroke markers" d=" M 472.54758746745466 656.9516145620001 L 831.8066780673329 656.9516145620001" stroke-miterlimit="10" stroke-width="1.3612669416666667" stroke-dasharray=""/><g transform="translate(845.2559954509995,656.9516145620001) translate(-845.2559954509995,-656.9516145620001)"><path fill="black" stroke="none" paint-order="stroke fill markers" d=" M 831.6433260343329 650.1452798536668 L 845.2559954509995 656.9516145620001 L 831.6433260343329 663.7579492703335 Z"/></g></g><g><text fill="black" stroke="none" font-family="monospace" font-size="11pt" font-style="normal" font-weight="normal" text-decoration="normal" x="244.53786810494717" y="719.5280087420002" text-anchor="start" dominant-baseline="alphabetic" xml:space="preserve">Check result and</text><text fill="black" stroke="none" font-family="monospace" font-size="11pt" font-style="normal" font-weight="normal" text-decoration="normal" x="244.53786810494717" y="734.6066579420002" text-anchor="start" dominant-baseline="alphabetic" xml:space="preserve">account information</text></g><g><path fill="none" stroke="black" paint-order="fill stroke markers" d=" M 456.2123841674547 740.6381176220002 L 213.5126663743486 740.6381176220002" stroke-miterlimit="10" stroke-width="1.3612669416666667" stroke-dasharray="6.53408132"/><g transform="translate(200.06334899068193,740.6381176220002) translate(-200.06334899068193,-740.6381176220002)"><path fill="black" stroke="none" paint-order="stroke fill markers" d=" M 213.6760184073486 733.8317829136669 L 200.06334899068193 740.6381176220002 L 213.6760184073486 747.4444523303335 Z"/></g></g><g><text fill="black" stroke="none" font-family="monospace" font-size="11pt" font-style="normal" font-weight="normal" text-decoration="normal" x="56.34787233519694" y="778.7117068520002" text-anchor="start" dominant-baseline="alphabetic" xml:space="preserve">Show result</text></g><g><path fill="none" stroke="black" paint-order="fill stroke markers" d=" M 183.72814569068194 784.7431665320003 L 39.216919415136395 784.7431665320003" stroke-miterlimit="10" stroke-width="1.3612669416666667" stroke-dasharray="6.53408132"/><g transform="translate(25.76760203146973,784.7431665320003) translate(-25.76760203146973,-784.7431665320003)"><path fill="black" stroke="none" paint-order="stroke fill markers" d=" M 39.3802714481364 777.9368318236669 L 25.76760203146973 784.7431665320003 L 39.3802714481364 791.5495012403336 Z"/></g></g><g><g/><path fill="none" stroke="black" paint-order="fill stroke markers" d=" M 399.03917261745465 342.561778742 L 1110.467216013939 342.561778742 L 1110.467216013939 681.4544195120002 L 399.03917261745465 681.4544195120002 L 399.03917261745465 342.561778742 Z" stroke-miterlimit="10" stroke-width="2.3336004714285714" stroke-dasharray=""/><path fill="white" stroke="black" paint-order="fill stroke markers" d=" M 399.03917261745465 342.561778742 L 399.03917261745465 362.164022702 L 452.8595788359849 362.164022702 L 462.6607008159849 352.362900722 L 462.6607008159849 342.561778742 L 399.03917261745465 342.561778742" stroke-miterlimit="10" stroke-width="2.3336004714285714" stroke-dasharray=""/><text fill="black" stroke="none" font-family="monospace" font-size="8.8pt" font-style="normal" font-weight="bold" text-decoration="normal" x="415.37437591745464" y="355.629941382" text-anchor="start" dominant-baseline="alphabetic" xml:space="preserve">opt</text><text fill="black" stroke="none" font-family="monospace" font-size="8.8pt" font-style="normal" font-weight="bold" text-decoration="normal" x="478.9959041159849" y="355.629941382" text-anchor="start" dominant-baseline="alphabetic" xml:space="preserve">[account not in database]</text></g></g><g/><g/><g/><g/><g/><g/><g/></g></svg>