<svg version="1.1" xmlns="http://www.w3.org/2000/svg" xmlns:xlink="http://www.w3.org/1999/xlink" width="962" height="753"><desc>%23%20-----%20font%20-----%0Afontfamily%20monospace%0A%0A%23%20-----%20setup%20components%20-----%0Atitle%20User%20get%20Twitter%20account%20details%20and%20tweets%0Aactor%20%23blue%3A0.5%20User%0A%0Aparticipant%20%23orange%20Frontend%0Aparticipantgroup%20%23e4fcd9%20Backend%20API%0Aboundary%20%23green%3A0.7%20Endpoint%0Acontrol%20%23red%3A0.7%20Scraper%0Aend%0A%0Adatabase%20Database%20%23pink%0Aentity%20%23gray%20TwitterAPI%0A%0A%23%20-----%20to%20show%20bottom%20icons%20-----%0Abottomparticipants%0A%0A%23%20-----%20START%20OF%20SEQUENCE%20-----%0AUser-%3EFrontend%3A%20Input%20Twitter%5Cnaccount%20URL%0Aactivate%20Frontend%0AFrontend-%3EEndpoint%3A%20Request%20check%20result%0Aactivate%20Endpoint%0AEndpoint-%3EDatabase%3A%20Get%20check%20result%0Aactivate%20Database%0AEndpoint%3C--Database%3A%20Check%20result%0Adeactivate%20Database%0AEndpoint-%3EScraper%3A%20Get%20recent%20tweets%0Aactivate%20Scraper%0AScraper-%3ETwitterAPI%3A%20Get%20recent%20tweets%0AEndpoint%3C--Scraper%3A%20Recent%20tweets%0Adeactivate%20Scraper%0AEndpoint--%3EFrontend%3A%20Profile%20detail%5Cnand%20result%0Adeactivate%20Endpoint%0AFrontend--%3EUser%3A%20Show%20result%0Adeactivate%20Frontend%0A%23%20-----%20END%20OF%20SEQUENCE%20-----</desc><defs/><g><g/><g/><g/><g/><g/><g/><g/><g/><g/><g/><g/><g/><g><rect fill="white" stroke="none" x="0" y="0" width="962" height="753"/></g><g><text fill="black" stroke="none" font-family="monospace" font-size="16.5pt" font-style="normal" font-weight="normal" text-decoration="normal" x="197.48575703407727" y="22.617973800000005" text-anchor="start" dominant-baseline="alphabetic" xml:space="preserve">User get Twitter account details and tweets</text></g><g><g><path fill="#e4fcd9" stroke="black" paint-order="fill stroke markers" d=" M 421.0123834045152 48.50927103050001 L 712.8433382413642 48.50927103050001 L 712.8433382413642 745.161712382 L 421.0123834045152 745.161712382 L 421.0123834045152 48.50927103050001" stroke-miterlimit="10" stroke-width="1.3612669416666667" stroke-dasharray=""/></g><g><text fill="black" stroke="none" font-family="monospace" font-size="11pt" font-style="normal" font-weight="normal" text-decoration="normal" x="518.5278592970608" y="70.24765696050001" text-anchor="start" dominant-baseline="alphabetic" xml:space="preserve">Backend API</text></g></g><g><path fill="none" stroke="black" paint-order="fill stroke markers" d=" M 25.76760203146973 162.497576212 L 25.76760203146973 654.941128002" stroke-miterlimit="10" stroke-width="1.3612669416666667" stroke-dasharray="12.565541,5.445067766666667"/><path fill="none" stroke="black" paint-order="fill stroke markers" d=" M 191.89574734068194 162.497576212 L 191.89574734068194 654.941128002" stroke-miterlimit="10" stroke-width="1.3612669416666667" stroke-dasharray="12.565541,5.445067766666667"/><path fill="none" stroke="black" paint-order="fill stroke markers" d=" M 464.37998581745467 162.497576212 L 464.37998581745467 654.941128002" stroke-miterlimit="10" stroke-width="1.3612669416666667" stroke-dasharray="12.565541,5.445067766666667"/><path fill="none" stroke="black" paint-order="fill stroke markers" d=" M 673.8757373543036 162.497576212 L 673.8757373543036 654.941128002" stroke-miterlimit="10" stroke-width="1.3612669416666667" stroke-dasharray="12.565541,5.445067766666667"/><path fill="none" stroke="black" paint-order="fill stroke markers" d=" M 805.6560122356675 162.497576212 L 805.6560122356675 654.941128002" stroke-miterlimit="10" stroke-width="1.3612669416666667" stroke-dasharray="12.565541,5.445067766666667"/><path fill="none" stroke="black" paint-order="fill stroke markers" d=" M 910.403888004092 162.497576212 L 910.403888004092 654.941128002" stroke-miterlimit="10" stroke-width="1.3612669416666667" stroke-dasharray="12.565541,5.445067766666667"/></g><g><g><path fill="white" stroke="blue" paint-order="fill stroke markers" d=" M 35.078667912469726 94.65622035300002 A 9.311065881 9.311065881 0 1 1 35.078663256937176 94.64690928867086 M 25.76760203146973 103.96728623400001 L 25.76760203146973 123.89623426000001 M 14.00625565546973 111.15477568600002 L 37.52894840746973 111.15477568600002 M 25.76760203146973 123.89623426000001 L 14.00625565546973 142.518366022 M 25.76760203146973 123.89623426000001 L 37.52894840746973 142.518366022" stroke-miterlimit="10" stroke-width="1.3884922805000002" stroke-dasharray=""/></g><g><g/><text fill="black" stroke="none" font-family="monospace" font-size="11pt" font-style="normal" font-weight="normal" text-decoration="normal" x="8.167601650000002" y="157.597015222" text-anchor="start" dominant-baseline="alphabetic" xml:space="preserve">User</text></g><path fill="none" stroke="none"/><g><path fill="white" stroke="orange" paint-order="fill stroke markers" d=" M 138.9720509972425 119.64908140200002 L 244.8194436841214 119.64908140200002 L 244.8194436841214 162.497576212 L 138.9720509972425 162.497576212 L 138.9720509972425 119.64908140200002 Z" stroke-miterlimit="10" stroke-width="2.613632528" stroke-dasharray=""/></g><g><g/><text fill="black" stroke="none" font-family="monospace" font-size="11pt" font-style="normal" font-weight="normal" text-decoration="normal" x="156.69574657774248" y="146.16237291200002" text-anchor="start" dominant-baseline="alphabetic" xml:space="preserve">Frontend</text></g><g><path fill="white" stroke="green" paint-order="fill stroke markers" d=" M 496.80536436795467 116.872096841 A 24.2577769005 24.2577769005 0 1 1 496.80535223906725 116.84783906814245 M 432.92655186330467 91.64237534415 L 432.92655186330467 142.10181833785 M 431.95460726695467 116.872096841 L 448.28981056695466 116.872096841" stroke-miterlimit="10" stroke-width="1.9438891927000002" stroke-dasharray=""/></g><g><g/><text fill="black" stroke="none" font-family="monospace" font-size="11pt" font-style="normal" font-weight="normal" text-decoration="normal" x="429.1799850545152" y="157.597015222" text-anchor="start" dominant-baseline="alphabetic" xml:space="preserve">Endpoint</text></g><g><path fill="white" stroke="red" paint-order="fill stroke markers" d=" M 698.1335142548036 116.872096841 A 24.2577769005 24.2577769005 0 1 1 698.1335021259162 116.84783906814245 M 670.6086966943036 92.6143199405 L 680.4098186743036 84.4467182905 M 670.6086966943036 92.6143199405 L 680.4098186743036 100.78192159049999" stroke-miterlimit="10" stroke-width="1.9438891927000002" stroke-dasharray=""/></g><g><g/><text fill="black" stroke="none" font-family="monospace" font-size="11pt" font-style="normal" font-weight="normal" text-decoration="normal" x="643.0757381172431" y="157.597015222" text-anchor="start" dominant-baseline="alphabetic" xml:space="preserve">Scraper</text></g><g><path fill="pink" stroke="black" paint-order="fill stroke markers" d=" M 781.8066154176676 131.737131844 L 781.8066154176676 97.43320491400002 L 829.5054090536674 97.43320491400002 L 829.5054090536674 131.737131844" stroke-miterlimit="10" stroke-width="2.7769845610000004" stroke-dasharray=""/><path fill="pink" stroke="black" paint-order="fill stroke markers" d=" M 829.5054090536674 96.24073507310001 L 829.5042165937638 96.34854561801663 L 829.5006393332977 96.4563453819686 L 829.4946776299925 96.56412358506937 L 829.4863320800131 96.67186944958841 L 829.4756035179079 96.7795722010291 L 829.462493016524 96.88722106920602 L 829.4470018869008 96.99480528932206 L 829.4291316781382 97.10231410304486 L 829.4088841772422 97.20973675958267 L 829.386261408946 97.31706251675931 L 829.3612656355076 97.42428064208853 L 829.3338993564836 97.53138041384713 L 829.304165308479 97.6383511221472 L 829.2720664648739 97.74518207000703 L 829.2376060355258 97.85186257442088 L 829.200787466449 97.95838196742719 L 829.1616144394696 98.06472959717544 L 829.1200908718579 98.17089482899127 L 829.0762209159359 98.27686704643997 L 829.0300089586625 98.38263565238812 L 828.9814596211952 98.48819007006324 L 828.9305777584271 98.59351974411153 L 828.8773684585022 98.69861414165338 L 828.821837042306 98.8034627533366 L 828.763989062934 98.9080550943874 L 828.7038303051359 99.01238070565881 L 828.6413667847372 99.11642915467668 L 828.576604748038 99.2201900366828 L 828.509550671188 99.32365297567542 L 828.4402112595391 99.42680762544687 L 828.3685934469744 99.52964367061814 L 828.2947043952157 99.63215082767042 L 828.2185514931067 99.73431884597339 L 828.1401423558739 99.8361375088104 L 828.0594848243658 99.9375966344 L 827.9765869642683 100.03868607691416 L 827.8914570652985 100.1393957274929 L 827.804103640375 100.23971551525507 L 827.7145354247679 100.3396354083055 L 827.6227613752238 100.43914541473814 L 827.5287906690714 100.53823558363528 L 827.4326327033028 100.63689600606261 L 827.3342970936347 100.73511681606011 L 827.233793673546 100.83288819162861 L 827.1311324932948 100.93020035571203 L 827.0263238189137 101.02704357717508 L 826.9193781311828 101.12340817177629 L 826.8103061245819 101.2192845031365 L 826.6991187062206 101.3146629837025 L 826.585826994748 101.40953407570571 L 826.4704423192411 101.50388829211596 L 826.352976218071 101.59771619759026 L 826.2334404377501 101.69100840941624 L 826.1118469317569 101.78375559845048 L 825.9882078593405 101.87594849005134 L 825.8625355843051 101.96757786500652 L 825.7348426737736 102.05863456045485 L 825.6051418969306 102.14910947080267 L 825.4734462237457 102.23899354863435 L 825.3397688236764 102.32827780561702 L 825.2041230643515 102.41695331339938 L 825.0665225102337 102.50501120450453 L 824.9269809212637 102.59244267321675 L 824.7855122514844 102.67923897646203 L 824.6421306476446 102.76539143468239 L 824.4968504477855 102.85089143270376 L 824.3496861798056 102.93573042059764 L 824.2006525600095 103.0198999145359 L 824.0497644916346 103.10339149763931 L 823.8970370633623 103.18619682081912 L 823.742485547808 103.26830760361203 L 823.5861253999946 103.34971563500818 L 823.4279722558063 103.43041277427227 L 823.268041930426 103.51039095175761 L 823.1063504167528 103.58964216971313 L 822.9429138838035 103.66815850308305 L 822.7777486750949 103.74593210029946 L 822.6108713070106 103.82295518406747 L 822.4422984671481 103.89922005214288 L 822.272047012651 103.97471907810242 L 822.1001339685229 104.04944471210644 L 821.9265765259248 104.12338948165379 L 821.7513920404565 104.19654599232915 L 821.5745980304205 104.26890692854239 L 821.3962121750704 104.34046505426022 L 821.2162523128432 104.4112132137297 L 821.0347364395751 104.4811443321938 L 820.8516827067021 104.55025141659898 L 820.6671094194452 104.6185275562944 L 820.481035034979 104.68596592372296 L 820.293478160587 104.75255977510412 L 820.1044575518004 104.81830245110825 L 819.9139921105225 104.88318737752253 L 819.7221008831386 104.94720806590838 L 819.5288030586119 105.01035811425034 L 819.3341179665633 105.07263120759616 L 819.1380650753401 105.13402111868842 L 818.940663990068 105.19452170858717 L 818.7419344506909 105.25412692728385 L 818.5418963299971 105.31283081430622 L 818.3405696316322 105.37062749931455 L 818.1379744880982 105.42751120268846 L 817.9341311587403 105.48347623610503 L 817.7290600277221 105.53851700310757 L 817.5227816019853 105.59262799966524 L 817.315316509201 105.64580381472345 L 817.1066854957053 105.69803913074504 L 816.8969094244259 105.74932872424193 L 816.6860092727949 105.7996674662975 L 816.4740061306518 105.84905032307951 L 816.2609211981342 105.89747235634343 L 816.0467757835578 105.94492872392627 L 815.8315913012855 105.99141468023082 L 815.6153892695862 106.03692557670021 L 815.3981913084831 106.08145686228269 L 815.1800191375911 106.12500408388684 L 814.9608945739456 106.16756288682677 L 814.7408395298202 106.20912901525766 L 814.5198760105361 106.2496983126013 L 814.2980261122611 106.28926672196175 L 814.0753120198001 106.32783028653108 L 813.8517560043766 106.36538514998495 L 813.6273804214062 106.4019275568683 L 813.4022077082599 106.43745385297092 L 813.1762603820215 106.47196048569278 L 812.9495610372353 106.50544400439938 L 812.7221323436469 106.53790106076674 L 812.493997043936 106.56932840911628 L 812.2651779514428 106.59972290673934 L 812.0356979478854 106.62908151421152 L 811.8055799810734 106.6574012956965 L 811.5748470626113 106.68467941923974 L 811.343522265599 106.71091315705164 L 811.1116287223231 106.73609988578026 L 810.879189621945 106.76023708677371 L 810.6462282081809 106.78332234633203 L 810.412767776978 106.80535335594848 L 810.178831674185 106.82632791254046 L 809.944443293217 106.8462439186698 L 809.709626072717 106.86509938275248 L 809.4744034942114 106.88289241925779 L 809.2387990797617 106.89962124889692 L 809.0028363896134 106.91528419880086 L 808.7665390198388 106.92987970268764 L 808.5299305999778 106.94340630101907 L 808.2930347906752 106.95586264114657 L 808.0558752813147 106.96724747744649 L 807.8184757876495 106.97755967144472 L 807.5808600494311 106.98679819193043 L 807.3430518280354 106.9949621150593 L 807.1050749040863 107.00205062444579 L 806.866953075078 107.00806301124487 L 806.6287101529948 107.01299867422289 L 806.3903699619304 107.01685711981764 L 806.1519563357054 107.0196379621878 L 805.9134931154837 107.02134092325144 L 805.6750041473886 107.02196583271387 L 805.436513280118 107.02151262808466 L 805.1980443625602 107.01998135468392 L 804.959621241408 107.0173721656377 L 804.721267758775 107.01368532186271 L 804.4830077498106 107.00892119204028 L 804.2448650403173 107.00308025257941 L 804.0068634443677 106.99616308756919 L 803.7690267619229 106.98817038872035 L 803.5313787764529 106.9791029552961 L 803.2939432525584 106.96896169403226 L 803.0567439335937 106.95774761904647 L 802.8198045392933 106.94546185173691 L 802.583148763399 106.93210562067006 L 802.3468002712912 106.91768026145789 L 802.1107826976221 106.90218721662433 L 801.8751196439525 106.88562803546091 L 801.6398346763914 106.86800437387197 L 801.4049513232394 106.84931799420899 L 801.1704930726361 106.82957076509436 L 800.9364833702112 106.80876466123452 L 800.7029456167398 106.78690176322253 L 800.469903165803 106.76398425732997 L 800.2373793214513 106.74001443528833 L 800.0053973358754 106.71499469405985 L 799.7739804070808 106.6889275355978 L 799.5431516765673 106.66181556659627 L 799.3129342270157 106.63366149822963 L 799.0833510799791 106.6044681458812 L 798.8544251935808 106.57423842886192 L 798.6261794602189 106.54297537011827 L 798.3986367042762 106.5106820959301 L 798.1718196798389 106.4773618355979 L 797.9457510684205 106.44301792111996 L 797.7204534766935 106.40765378685909 L 797.4959494342294 106.37127296919923 L 797.2722613912455 106.33387910619186 L 797.0494117163596 106.29547593719211 L 796.8274226943535 106.25606730248487 L 796.6063165239444 106.21565714290077 L 796.386115315565 106.17424949942209 L 796.1668410891529 106.13184851277869 L 795.9485157719477 106.08845842303388 L 795.7311611962992 106.0440835691605 L 795.5147990974842 105.99872838860693 L 795.2994511115319 105.95239741685346 L 795.0851387730617 105.90509528695863 L 794.8718835131285 105.85682672909601 L 794.6597066570811 105.80759657008119 L 794.4486294224278 105.75740973288903 L 794.2386729167164 105.70627123616141 L 794.0298581354225 105.65418619370543 L 793.8222059598502 105.6011598139819 L 793.615737155044 105.54719739958459 L 793.4104723677124 105.49230434671 L 793.2064321241629 105.43648614461767 L 793.0036368282499 105.37974837508128 L 792.8021067593342 105.32209671183051 L 792.6018620702545 105.26353691998366 L 792.4029227853129 105.20407485547109 L 792.2053087982721 105.14371646444971 L 792.0090398703662 105.0824677827083 L 791.8141356283244 105.02033493506404 L 791.6206155624085 104.95732413474988 L 791.4284990244637 104.89344168279337 L 791.237805225984 104.82869396738644 L 791.04855323619 104.76308746324669 L 790.860761980123 104.69662873096988 L 790.6744502367524 104.62932441637382 L 790.489636637097 104.56118124983391 L 790.3063396623629 104.49220604561 L 790.1245776420947 104.42240570116505 L 789.9443687523432 104.35178719647531 L 789.7657310138469 104.28035759333244 L 789.588682290231 104.20812403463721 L 789.4132402862201 104.13509374368529 L 789.2394225458687 104.06127402344492 L 789.0672464508058 103.98667225582662 L 788.8967292184974 103.91129590094496 L 788.7278879005248 103.83515249637263 L 788.5607393808789 103.75824965638664 L 788.3953003742726 103.6805950712069 L 788.2315874244683 103.6021965062272 L 788.0696169026251 103.52306180123873 L 787.9094050056598 103.44319886964601 L 787.7509677546286 103.3626156976757 L 787.5943209931248 103.28132034357779 L 787.439480385694 103.19932093681997 L 787.2864614162677 103.11662567727458 L 787.1352793866154 103.03324283439866 L 786.9859494148141 102.94918074640702 L 786.8384864337365 102.86444781943841 L 786.692905189558 102.7790525267149 L 786.5492202402816 102.6930034076946 L 786.4074459542824 102.60630906721774 L 786.267596508871 102.51897817464607 L 786.1296858888752 102.4310194629961 L 785.9937278852422 102.34244172806571 L 785.8597360936591 102.25325382755454 L 785.7277239131934 102.16346468017835 L 785.597704544953 102.07308326477704 L 785.4696909907665 101.98211861941685 L 785.3436960518826 101.89057984048648 L 785.2197323276903 101.79847608178757 L 785.0978122144586 101.70581655361923 L 784.9779479040972 101.61261052185705 L 784.8601513829373 101.51886730702655 L 784.7444344305328 101.42459628337107 L 784.6308086184825 101.32980687791445 L 784.5192853092732 101.23450856951823 L 784.4098756551425 101.13871088793383 L 784.3025905969648 101.04242341284956 L 784.1974408631565 100.94565577293272 L 784.0944369686035 100.84841764486666 L 783.9935892136092 100.75071875238314 L 783.8949076828651 100.65256886529 L 783.7984022444422 100.55397779849415 L 783.7040825488037 100.45495541102012 L 783.6119580278407 100.35551160502415 L 783.5220378939285 100.25565632480394 L 783.4343311390056 100.15539955580432 L 783.3488465336743 100.05475132361865 L 783.2655926263241 99.95372169298625 L 783.184577742276 99.85232076678601 L 783.1058099829512 99.75055868502605 L 783.02929722506 99.64844562382973 L 782.9550471198141 99.5459917944181 L 782.8830670921626 99.4432074420887 L 782.8133643400479 99.34010284519113 L 782.7459458336874 99.23668831409914 L 782.6808183148754 99.13297419017968 L 782.6179882963095 99.02897084475869 L 782.5574620609393 98.92468867808407 L 782.4992456613378 98.82013811828556 L 782.4433449190966 98.71532962033203 L 782.3897654242431 98.61027366498594 L 782.3385125346823 98.50498075775526 L 782.2895913756605 98.39946142784298 L 782.2430068392526 98.29372622709415 L 782.1987635838738 98.18778572894077 L 782.1568660338123 98.08165052734432 L 782.1173183787886 97.97533123573653 L 782.0801245735349 97.868838485958 L 782.0452883374011 97.7621829271949 L 782.0128131539814 97.65537522491428 L 781.9827022707674 97.54842605979732 L 781.9549586988221 97.44134612667145 L 781.9295852124798 97.33414613344073 L 781.9065843490678 97.22683680001514 L 781.8859584086533 97.1194288572386 L 781.8677094538132 97.0119330458159 L 781.8518393094278 96.90436011523857 L 781.8383495624983 96.79672082271007 L 781.827241561988 96.68902593206992 L 781.818516418688 96.58128621271746 L 781.812175005105 96.47351243853481 L 781.8082179553754 96.36571538680961 L 781.8066456652007 96.25790583715718 L 781.8074582918086 96.15009457044266 L 781.8106557539372 96.04229236770287 L 781.8162377318429 95.93451000906825 L 781.8242036673325 95.82675827268484 L 781.8345527638193 95.7190479336365 L 781.8472839864021 95.61138976286738 L 781.8623960619692 95.50379452610481 L 781.8798874793258 95.39627298278283 L 781.8997564893446 95.28883588496618 L 781.9220011051412 95.18149397627508 L 781.9466191022727 95.07425799081098 L 781.9736080189597 94.96713865208302 L 782.0029651563331 94.86014667193587 L 782.0346875787036 94.75329274947832 L 782.0687721138555 94.64658757001362 L 782.1052153533635 94.54004180397077 L 782.1440136529343 94.43366610583759 L 782.18516313277 94.32747111309526 L 782.228659677957 94.22146744515454 L 782.2744989388771 94.1156657022939 L 782.3226763316422 94.01007646459945 L 782.3731870385535 93.90471029090699 L 782.4260260085821 93.79957771774606 L 782.4811879578752 93.69468925828637 L 782.5386673702839 93.59005540128646 L 782.5984584979146 93.48568661004485 L 782.6605553617045 93.38159332135368 L 782.724951752019 93.27778594445506 L 782.7916412292728 93.1742748600002 L 782.8606171245737 93.07107041901128 L 782.9318725403895 92.96818294184638 L 783.0054003512381 92.86562271716748 L 783.0811932043997 92.7634000009116 L 783.1592435206521 92.66152501526518 L 783.2395434950289 92.56000794764186 L 783.3220850975993 92.45885894966383 L 783.406860074272 92.35808813614659 L 783.49385994762 92.25770558408753 L 783.5830760177283 92.15772133165818 L 783.6744993630645 92.05814537720047 L 783.76812084137 91.95898767822688 L 783.863931090575 91.86025815042466 L 783.9619205297346 91.76196666666432 L 784.0620793599865 91.66412305601233 L 784.164397565531 91.56673710274822 L 784.2688649146328 91.46981854538616 L 784.3754709606443 91.37337707570111 L 784.4842050430495 91.2774223377597 L 784.5950562885308 91.18196392695573 L 784.7080136120562 91.08701138905076 L 784.8230657179873 90.99257421921942 L 784.9402011012095 90.89866186110004 L 785.0594080482819 90.80528370585013 L 785.1806746386093 90.71244909120742 L 785.3039887456337 90.620167300556 L 785.4293380380471 90.52844756199806 L 785.5567099810248 90.437299047431 L 785.6860918374787 90.34673087163033 L 785.8174706693308 90.25675209133814 L 785.9508333388073 90.1673717043575 L 786.0861665097527 90.07859864865262 L 786.2234566489626 89.99044180145509 L 786.3626900275374 89.90290997837616 L 786.5038527222553 89.81601193252519 L 786.6469306169644 89.72975635363437 L 786.7919094039945 89.64415186718969 L 786.9387745855878 89.55920703356847 L 787.0875114753485 89.47493034718329 L 787.2381051997114 89.39133023563254 L 787.3905406994298 89.30841505885772 L 787.5448027310806 89.22619310830741 L 787.7008758685893 89.14467260610814 L 787.8587445047721 89.06386170424221 L 788.018392852897 88.98376848373246 L 788.1798049482621 88.9044009538342 L 788.3429646497926 88.82576705123427 L 788.5078556416541 88.7478746392574 L 788.6744614348851 88.67073150707989 L 788.8427653690449 88.59434536895068 L 789.0127506138801 88.5187238634199 L 789.1844001710084 88.4438745525751 L 789.3576968756169 88.369804921285 L 789.5326233981793 88.29652237645098 L 789.7091622461895 88.22403424626648 L 789.8872957659096 88.1523477794841 L 790.0670061441361 88.08147014469078 L 790.248275409981 88.01140842959094 L 790.4310854366687 87.94216964029769 L 790.6154179433489 87.87376070063229 L 790.8012544969247 87.80618845143167 L 790.9885765138953 87.73945964986444 L 791.1773652622152 87.67358096875519 L 791.367601863167 87.60855899591708 L 791.5592672932491 87.54440023349323 L 791.7523423860782 87.48111109730644 L 791.9468078343059 87.41869791621755 L 792.1426441915495 87.35716693149269 L 792.3398318743363 87.29652429617903 L 792.5383511640625 87.23677607448957 L 792.7381822089645 87.17792824119671 L 792.9393050261043 87.11998668103473 L 793.1416995033679 87.06295718811135 L 793.3453454014763 87.00684546532835 L 793.550222356009 86.95165712381124 L 793.7563098794417 86.89739768234818 L 793.9635873631936 86.84407256683812 L 794.1720340796891 86.79168710974815 L 794.3816291844303 86.74024654958035 L 794.5923517180812 86.68975603034785 L 794.8041806085643 86.64022060106049 L 795.0170946731669 86.59164521521994 L 795.23107262066 86.5440347303243 L 795.4460930534273 86.49739390738237 L 795.6621344696044 86.4517274104376 L 795.87917526523 86.40703980610161 L 796.0971937364053 86.3633355630976 L 796.3161680814649 86.32061905181345 L 796.5360764031566 86.27889454386471 L 796.7568967108318 86.23816621166738 L 796.9786069226435 86.19843812802074 L 797.2011848677554 86.15971426570005 L 797.4246082885584 86.12199849705928 L 797.6488548428965 86.08529459364387 L 797.8739021063014 86.04960622581356 L 798.0997275742342 86.0149369623754 L 798.3263086643362 85.98129027022685 L 798.5536227186874 85.94866951400907 L 798.7816470060715 85.91707795577051 L 799.01035872425 85.88651875464066 L 799.2397350022416 85.85699496651418 L 799.4697529026097 85.82850954374526 L 799.7003894237558 85.80106533485245 L 799.9316215022202 85.77466508423377 L 800.1634260149875 85.7493114318923 L 800.3957797817999 85.7250069131721 L 800.6286595674741 85.70175395850482 L 800.8620420842257 85.67955489316655 L 801.0959039939975 85.65841193704532 L 801.3302219107933 85.63832720441913 L 801.5649724030168 85.61930270374448 L 801.8001319958144 85.60134033745561 L 802.0356771734228 85.58444190177417 L 802.2715843815204 85.56860908652965 L 802.5078300295831 85.55384347499039 L 802.7443904932429 85.5401465437052 L 802.9812421166507 85.52751966235584 L 803.2183612148414 85.51596409361991 L 803.4557240761028 85.50548099304464 L 803.6933069643466 85.49607140893136 L 803.9310861214818 85.48773628223064 L 804.1690377697912 85.48047644644821 L 804.4071381143079 85.4742926275616 L 804.6453633451961 85.46918544394751 L 804.8836896401311 85.4651554063201 L 805.1220931666821 85.46220291767973 L 805.360550084695 85.46032827327284 L 805.5990365486768 85.45953166056228 L 805.8375287101799 85.45981315920866 L 806.0760027201867 85.46117274106237 L 806.3144347314951 85.46361027016634 L 806.5528009011026 85.4671255027697 L 806.7910773925909 85.47171808735212 L 807.0292403785094 85.47738756465895 L 807.2672660427579 85.4841333677472 L 807.5051305829684 85.49195482204219 L 807.742810212885 85.500851145405 L 807.9802811647431 85.51082144821069 L 808.2175196916451 85.52186473343731 L 808.454502069936 85.53397989676554 L 808.6912046015756 85.54716572668913 L 808.9276036165079 85.5614209046361 L 809.1636754750285 85.5767440051005 L 809.3993965701482 85.59313349578507 L 809.6347433299538 85.6105877377544 L 809.8696922199657 85.62910498559884 L 810.1042197454905 85.64868338760904 L 810.3383024539712 85.66932098596111 L 810.5719169373319 85.6910157169124 L 810.805039834319 85.71376541100791 L 811.0376478328371 85.73756779329719 L 811.2697176722802 85.76242048356184 L 811.5012261458577 85.78832099655354 L 811.7321501029152 85.81526674224258 L 811.9624664512494 85.84325502607685 L 812.1921521594173 85.87228304925127 L 812.4211842590397 85.90234790898774 L 812.6495398470973 85.93344659882531 L 812.8771960882218 85.96557600892095 L 813.1041302169785 85.99873292636039 L 813.3303195401439 86.03291403547954 L 813.5557414389742 86.06811591819596 L 813.7803733714671 86.10433505435071 L 814.0041928746168 86.14156782206037 L 814.2271775666594 86.17981049807918 L 814.4493051493114 86.21905925817143 L 814.6705534099999 86.25931017749379 L 814.890900224083 86.30055923098789 L 815.1103235570629 86.34280229378275 L 815.3288014667893 86.3860351416073 L 815.5463121056532 86.43025345121276 L 815.762833722772 86.47545280080504 L 815.9783446661644 86.52162867048685 L 816.1928233849156 86.56877644270969 L 816.4062484313326 86.61689140273562 L 816.6185984630886 86.66596873910875 L 816.8298522453573 86.71600354413634 L 817.0399886529365 86.76699081437957 L 817.2489866723605 86.81892545115392 L 817.4568254040017 86.87180226103897 L 817.66348406416 86.9256159563978 L 817.8689419871417 86.98036115590575 L 818.0731786273257 87.03603238508846 L 818.276173561218 87.0926240768694 L 818.4779064894946 87.15013057212657 L 818.6783572390307 87.20854612025836 L 818.8775057649183 87.26786487975863 L 819.0753321524709 87.32808091880088 L 819.2718166192145 87.38918821583137 L 819.4669395168663 87.45118066017132 L 819.6606813332991 87.51405205262795 L 819.8530226944924 87.57779610611442 L 820.0439443664709 87.6424064462785 L 820.233427257226 87.70787661214001 L 820.4214524186269 87.77420005673692 L 820.608001048314 87.84137014778005 L 820.7930544915797 87.90938016831626 L 820.976594243234 87.97822331740018 L 821.1586019494547 88.04789271077426 L 821.3390594096228 88.11838138155724 L 821.5179485781426 88.18968228094076 L 821.6952515662464 88.2617882788943 L 821.8709506437832 88.33469216487818 L 822.0450282409915 88.40838664856452 L 822.2174669502568 88.48286436056638 L 822.3882495278518 88.55811785317462 L 822.5573588956611 88.6341396011027 L 822.7247781428887 88.71092200223917 L 822.8904905277495 88.7884573784079 L 823.0544794791432 88.8667379761359 L 823.2167285983112 88.9457559674286 L 823.3772216604768 89.02550345055275 L 823.5359426164677 89.10597245082647 L 823.6928755943202 89.1871549214168 L 823.8480049008675 89.26904274414436 L 824.0013150233084 89.35162773029508 L 824.1527906307581 89.43490162143917 L 824.3024165757822 89.51885609025692 L 824.450177895911 89.60348274137141 L 824.5960598151355 89.68877311218804 L 824.7400477453854 89.77471867374081 L 824.8821272879876 89.8613108315452 L 825.0222842351063 89.94854092645757 L 825.1605045711635 90.03640023554112 L 825.2967744742409 90.12487997293817 L 825.4310803174617 90.2139712907487 L 825.5634086703535 90.3036652799152 L 825.6937463001912 90.39395297111345 L 825.8220801733205 90.48482533564962 L 825.9483974564612 90.57627328636293 L 826.0726855179898 90.66828767853457 L 826.1949319292042 90.76085931080198 L 826.315124465565 90.85397892607905 L 826.4332511079186 90.94763721248188 L 826.5493000436993 91.04182480425987 L 826.6632596681102 91.13653228273235 L 826.7751185852838 91.23175017723037 L 826.8848656094217 91.32746896604384 L 826.9924897659129 91.42367907737363 L 827.0979802924313 91.5203708902888 L 827.2013266400123 91.61753473568862 L 827.3025184741073 91.71516089726953 L 827.4015456756172 91.81323961249673 L 827.4983983419041 91.91176107358042 L 827.5930667877825 92.01071542845659 L 827.6855415464864 92.11009278177222 L 827.7758133706172 92.20988319587481 L 827.8638732330676 92.31007669180607 L 827.9497123279247 92.41066325029993 L 828.0333220713507 92.51163281278436 L 828.1146941024406 92.61297528238724 L 828.1938202840595 92.71468052494606 L 828.270692703655 92.81673837002134 L 828.3453036740491 92.9191386119136 L 828.4176457342071 93.02187101068398 L 828.4877116499833 93.12492529317824 L 828.5554944148444 93.22829115405399 L 828.6209872505704 93.33195825681128 L 828.6841836079323 93.43591623482622 L 828.745077167347 93.54015469238766 L 828.8036618395093 93.64466320573669 L 828.859931766001 93.74943132410907 L 828.9138813198762 93.85444857078026 L 828.9655051062244 93.95970444411313 L 829.0147979627101 94.06518841860805 L 829.0617549600887 94.17088994595545 L 829.1063714026996 94.27679845609072 L 829.1486428289356 94.38290335825107 L 829.1885650116894 94.48919404203473 L 829.2261339587761 94.59565987846186 L 829.2613459133321 94.70229022103757 L 829.2941973541915 94.80907440681646 L 829.3246849962374 94.91600175746893 L 829.352805790731 95.02306158034904 L 829.3785569256164 95.13024316956367 L 829.4019358258016 95.23753580704327 L 829.4229401534159 95.34492876361347 L 829.4415678080442 95.4524113000681 L 829.4578169269364 95.55997266824312 L 829.4716858851943 95.66760211209133 L 829.4831732959336 95.77528886875801 L 829.4922780104228 95.88302216965727 L 829.498999118198 95.99079124154878 L 829.5033359471539 96.09858530761515 L 829.5052880636115 96.20639358853963 M 829.5054090536674 130.5446620031 L 829.5042165937638 130.65247254801662 L 829.5006393332977 130.7602723119686 L 829.4946776299925 130.86805051506934 L 829.4863320800131 130.97579637958842 L 829.4756035179079 131.08349913102907 L 829.462493016524 131.191147999206 L 829.4470018869008 131.29873221932203 L 829.4291316781382 131.40624103304486 L 829.4088841772422 131.51366368958264 L 829.386261408946 131.6209894467593 L 829.3612656355076 131.7282075720885 L 829.3338993564836 131.83530734384712 L 829.304165308479 131.94227805214717 L 829.2720664648739 132.049109000007 L 829.2376060355258 132.15578950442085 L 829.200787466449 132.26230889742718 L 829.1616144394696 132.36865652717543 L 829.1200908718579 132.47482175899125 L 829.0762209159359 132.58079397643996 L 829.0300089586625 132.6865625823881 L 828.9814596211952 132.79211700006323 L 828.9305777584271 132.89744667411154 L 828.8773684585022 133.00254107165338 L 828.821837042306 133.10738968333658 L 828.763989062934 133.2119820243874 L 828.7038303051359 133.3163076356588 L 828.6413667847372 133.42035608467668 L 828.576604748038 133.52411696668278 L 828.509550671188 133.62757990567542 L 828.4402112595391 133.73073455544687 L 828.3685934469744 133.83357060061815 L 828.2947043952157 133.9360777576704 L 828.2185514931067 134.0382457759734 L 828.1401423558739 134.14006443881038 L 828.0594848243658 134.24152356439998 L 827.9765869642683 134.34261300691415 L 827.8914570652985 134.44332265749287 L 827.804103640375 134.54364244525505 L 827.7145354247679 134.6435623383055 L 827.6227613752238 134.74307234473812 L 827.5287906690714 134.8421625136353 L 827.4326327033028 134.9408229360626 L 827.3342970936347 135.0390437460601 L 827.233793673546 135.1368151216286 L 827.1311324932948 135.23412728571202 L 827.0263238189137 135.33097050717507 L 826.9193781311828 135.42733510177626 L 826.8103061245819 135.5232114331365 L 826.6991187062206 135.6185899137025 L 826.585826994748 135.71346100570568 L 826.4704423192411 135.80781522211595 L 826.352976218071 135.90164312759026 L 826.2334404377501 135.99493533941623 L 826.1118469317569 136.08768252845047 L 825.9882078593405 136.17987542005133 L 825.8625355843051 136.2715047950065 L 825.7348426737736 136.36256149045482 L 825.6051418969306 136.45303640080266 L 825.4734462237457 136.54292047863436 L 825.3397688236764 136.63220473561702 L 825.2041230643515 136.72088024339936 L 825.0665225102337 136.8089381345045 L 824.9269809212637 136.89636960321673 L 824.7855122514844 136.98316590646203 L 824.6421306476446 137.06931836468237 L 824.4968504477855 137.15481836270376 L 824.3496861798056 137.23965735059764 L 824.2006525600095 137.3238268445359 L 824.0497644916346 137.4073184276393 L 823.8970370633623 137.49012375081912 L 823.742485547808 137.57223453361203 L 823.5861253999946 137.65364256500817 L 823.4279722558063 137.73433970427226 L 823.268041930426 137.8143178817576 L 823.1063504167528 137.89356909971312 L 822.9429138838035 137.97208543308304 L 822.7777486750949 138.04985903029944 L 822.6108713070106 138.12688211406746 L 822.4422984671481 138.20314698214287 L 822.272047012651 138.2786460081024 L 822.1001339685229 138.35337164210642 L 821.9265765259248 138.42731641165378 L 821.7513920404565 138.50047292232912 L 821.5745980304205 138.5728338585424 L 821.3962121750704 138.6443919842602 L 821.2162523128432 138.71514014372968 L 821.0347364395751 138.78507126219378 L 820.8516827067021 138.85417834659899 L 820.6671094194452 138.92245448629438 L 820.481035034979 138.98989285372295 L 820.293478160587 139.0564867051041 L 820.1044575518004 139.12222938110824 L 819.9139921105225 139.18711430752253 L 819.7221008831386 139.2511349959084 L 819.5288030586119 139.3142850442503 L 819.3341179665633 139.37655813759613 L 819.1380650753401 139.4379480486884 L 818.940663990068 139.49844863858718 L 818.7419344506909 139.55805385728382 L 818.5418963299971 139.61675774430623 L 818.3405696316322 139.67455442931453 L 818.1379744880982 139.73143813268845 L 817.9341311587403 139.78740316610504 L 817.7290600277221 139.84244393310757 L 817.5227816019853 139.89655492966523 L 817.315316509201 139.94973074472344 L 817.1066854957053 140.00196606074505 L 816.8969094244259 140.05325565424192 L 816.6860092727949 140.1035943962975 L 816.4740061306518 140.1529772530795 L 816.2609211981342 140.20139928634342 L 816.0467757835578 140.24885565392626 L 815.8315913012855 140.29534161023082 L 815.6153892695862 140.3408525067002 L 815.3981913084831 140.38538379228268 L 815.1800191375911 140.42893101388682 L 814.9608945739456 140.47148981682676 L 814.7408395298202 140.51305594525763 L 814.5198760105361 140.55362524260127 L 814.2980261122611 140.59319365196174 L 814.0753120198001 140.63175721653107 L 813.8517560043766 140.66931207998493 L 813.6273804214062 140.7058544868683 L 813.4022077082599 140.7413807829709 L 813.1762603820215 140.77588741569278 L 812.9495610372353 140.80937093439937 L 812.7221323436469 140.84182799076672 L 812.493997043936 140.87325533911627 L 812.2651779514428 140.90364983673933 L 812.0356979478854 140.9330084442115 L 811.8055799810734 140.9613282256965 L 811.5748470626113 140.98860634923975 L 811.343522265599 141.01484008705162 L 811.1116287223231 141.04002681578024 L 810.879189621945 141.0641640167737 L 810.6462282081809 141.08724927633202 L 810.412767776978 141.10928028594847 L 810.178831674185 141.13025484254044 L 809.944443293217 141.15017084866977 L 809.709626072717 141.16902631275246 L 809.4744034942114 141.18681934925777 L 809.2387990797617 141.2035481788969 L 809.0028363896134 141.21921112880085 L 808.7665390198388 141.23380663268765 L 808.5299305999778 141.24733323101907 L 808.2930347906752 141.25978957114654 L 808.0558752813147 141.2711744074465 L 807.8184757876495 141.28148660144473 L 807.5808600494311 141.29072512193042 L 807.3430518280354 141.2988890450593 L 807.1050749040863 141.30597755444578 L 806.866953075078 141.31198994124486 L 806.6287101529948 141.31692560422286 L 806.3903699619304 141.32078404981763 L 806.1519563357054 141.3235648921878 L 805.9134931154837 141.32526785325143 L 805.6750041473886 141.32589276271386 L 805.436513280118 141.32543955808467 L 805.1980443625602 141.3239082846839 L 804.959621241408 141.32129909563767 L 804.721267758775 141.3176122518627 L 804.4830077498106 141.31284812204026 L 804.2448650403173 141.3070071825794 L 804.0068634443677 141.30009001756918 L 803.7690267619229 141.29209731872032 L 803.5313787764529 141.2830298852961 L 803.2939432525584 141.27288862403225 L 803.0567439335937 141.26167454904646 L 802.8198045392933 141.2493887817369 L 802.583148763399 141.23603255067005 L 802.3468002712912 141.22160719145788 L 802.1107826976221 141.20611414662432 L 801.8751196439525 141.1895549654609 L 801.6398346763914 141.17193130387196 L 801.4049513232394 141.153244924209 L 801.1704930726361 141.13349769509435 L 800.9364833702112 141.1126915912345 L 800.7029456167398 141.0908286932225 L 800.469903165803 141.06791118732997 L 800.2373793214513 141.04394136528833 L 800.0053973358754 141.01892162405983 L 799.7739804070808 140.9928544655978 L 799.5431516765673 140.96574249659628 L 799.3129342270157 140.93758842822962 L 799.0833510799791 140.90839507588117 L 798.8544251935808 140.8781653588619 L 798.6261794602189 140.84690230011824 L 798.3986367042762 140.81460902593008 L 798.1718196798389 140.7812887655979 L 797.9457510684205 140.74694485111993 L 797.7204534766935 140.71158071685906 L 797.4959494342294 140.6751998991992 L 797.2722613912455 140.63780603619185 L 797.0494117163596 140.59940286719208 L 796.8274226943535 140.55999423248485 L 796.6063165239444 140.51958407290076 L 796.386115315565 140.4781764294221 L 796.1668410891529 140.4357754427787 L 795.9485157719477 140.3923853530339 L 795.7311611962992 140.3480104991605 L 795.5147990974842 140.30265531860692 L 795.2994511115319 140.25632434685343 L 795.0851387730617 140.2090222169586 L 794.8718835131285 140.160753659096 L 794.6597066570811 140.11152350008118 L 794.4486294224278 140.061336662889 L 794.2386729167164 140.01019816616142 L 794.0298581354225 139.9581131237054 L 793.8222059598502 139.90508674398188 L 793.615737155044 139.85112432958456 L 793.4104723677124 139.79623127671 L 793.2064321241629 139.74041307461766 L 793.0036368282499 139.68367530508127 L 792.8021067593342 139.6260236418305 L 792.6018620702545 139.56746384998365 L 792.4029227853129 139.50800178547107 L 792.2053087982721 139.4476433944497 L 792.0090398703662 139.3863947127083 L 791.8141356283244 139.32426186506405 L 791.6206155624085 139.26125106474987 L 791.4284990244637 139.19736861279335 L 791.237805225984 139.13262089738643 L 791.04855323619 139.0670143932467 L 790.860761980123 139.00055566096987 L 790.6744502367524 138.93325134637382 L 790.489636637097 138.8651081798339 L 790.3063396623629 138.79613297561 L 790.1245776420947 138.72633263116504 L 789.9443687523432 138.65571412647532 L 789.7657310138469 138.58428452333243 L 789.588682290231 138.5120509646372 L 789.4132402862201 138.4390206736853 L 789.2394225458687 138.3652009534449 L 789.0672464508058 138.2905991858266 L 788.8967292184974 138.21522283094495 L 788.7278879005248 138.13907942637263 L 788.5607393808789 138.06217658638664 L 788.3953003742726 137.9845220012069 L 788.2315874244683 137.90612343622718 L 788.0696169026251 137.8269887312387 L 787.9094050056598 137.747125799646 L 787.7509677546286 137.66654262767568 L 787.5943209931248 137.58524727357778 L 787.439480385694 137.50324786681995 L 787.2864614162677 137.42055260727457 L 787.1352793866154 137.33716976439865 L 786.9859494148141 137.253107676407 L 786.8384864337365 137.16837474943839 L 786.692905189558 137.0829794567149 L 786.5492202402816 136.9969303376946 L 786.4074459542824 136.9102359972177 L 786.267596508871 136.82290510464605 L 786.1296858888752 136.73494639299608 L 785.9937278852422 136.64636865806568 L 785.8597360936591 136.55718075755453 L 785.7277239131934 136.46739161017834 L 785.597704544953 136.37701019477703 L 785.4696909907665 136.28604554941683 L 785.3436960518826 136.19450677048647 L 785.2197323276903 136.10240301178757 L 785.0978122144586 136.00974348361922 L 784.9779479040972 135.91653745185704 L 784.8601513829373 135.82279423702653 L 784.7444344305328 135.72852321337106 L 784.6308086184825 135.63373380791444 L 784.5192853092732 135.53843549951822 L 784.4098756551425 135.44263781793381 L 784.3025905969648 135.34635034284955 L 784.1974408631565 135.2495827029327 L 784.0944369686035 135.15234457486665 L 783.9935892136092 135.05464568238312 L 783.8949076828651 134.95649579528998 L 783.7984022444422 134.85790472849413 L 783.7040825488037 134.75888234102013 L 783.6119580278407 134.65943853502412 L 783.5220378939285 134.55958325480393 L 783.4343311390056 134.4593264858043 L 783.3488465336743 134.35867825361862 L 783.2655926263241 134.25764862298624 L 783.184577742276 134.156247696786 L 783.1058099829512 134.05448561502604 L 783.02929722506 133.95237255382972 L 782.9550471198141 133.8499187244181 L 782.8830670921626 133.7471343720887 L 782.8133643400479 133.64402977519111 L 782.7459458336874 133.54061524409914 L 782.6808183148754 133.43690112017967 L 782.6179882963095 133.3328977747587 L 782.5574620609393 133.22861560808406 L 782.4992456613378 133.12406504828556 L 782.4433449190966 133.01925655033202 L 782.3897654242431 132.9142005949859 L 782.3385125346823 132.80890768775524 L 782.2895913756605 132.70338835784298 L 782.2430068392526 132.59765315709416 L 782.1987635838738 132.49171265894074 L 782.1568660338123 132.3855774573443 L 782.1173183787886 132.27925816573654 L 782.0801245735349 132.17276541595797 L 782.0452883374011 132.0661098571949 L 782.0128131539814 131.95930215491427 L 781.9827022707674 131.8523529897973 L 781.9549586988221 131.74527305667144 L 781.9295852124798 131.63807306344071 L 781.9065843490678 131.5307637300151 L 781.8859584086533 131.4233557872386 L 781.8677094538132 131.31585997581587 L 781.8518393094278 131.20828704523856 L 781.8383495624983 131.10064775271007 L 781.827241561988 130.9929528620699 L 781.818516418688 130.88521314271745 L 781.812175005105 130.7774393685348 L 781.8082179553754 130.6696423168096 L 781.8066456652007 130.56183276715717" stroke-miterlimit="10" stroke-width="2.7769845610000004" stroke-dasharray=""/></g><g><g/><text fill="black" stroke="none" font-family="monospace" font-size="11pt" font-style="normal" font-weight="normal" text-decoration="normal" x="770.456011472728" y="157.597015222" text-anchor="start" dominant-baseline="alphabetic" xml:space="preserve">Database</text></g><g><path fill="white" stroke="gray" paint-order="fill stroke markers" d=" M 934.6616649045919 114.6505091922 A 24.2577769005 24.2577769005 0 1 1 934.6616527757045 114.62625141934245 M 884.757618823092 141.1298737415 L 936.050157185092 141.1298737415" stroke-miterlimit="10" stroke-width="2.7769845610000004" stroke-dasharray=""/></g><g><g/><text fill="black" stroke="none" font-family="monospace" font-size="11pt" font-style="normal" font-weight="normal" text-decoration="normal" x="866.403888004092" y="157.597015222" text-anchor="start" dominant-baseline="alphabetic" xml:space="preserve">TwitterAPI</text></g><g><path fill="white" stroke="blue" paint-order="fill stroke markers" d=" M 35.078667912469726 685.6198963535 A 9.311065881 9.311065881 0 1 1 35.078663256937176 685.6105852891709 M 25.76760203146973 694.9309622345 L 25.76760203146973 714.8599102605001 M 14.00625565546973 702.1184516865001 L 37.52894840746973 702.1184516865001 M 25.76760203146973 714.8599102605001 L 14.00625565546973 733.4820420225001 M 25.76760203146973 714.8599102605001 L 37.52894840746973 733.4820420225001" stroke-miterlimit="10" stroke-width="1.3884922805000002" stroke-dasharray=""/></g><g><g/><text fill="black" stroke="none" font-family="monospace" font-size="11pt" font-style="normal" font-weight="normal" text-decoration="normal" x="8.167601650000002" y="670.019777202" text-anchor="start" dominant-baseline="alphabetic" xml:space="preserve">User</text></g><path fill="none" stroke="none"/><g><path fill="white" stroke="orange" paint-order="fill stroke markers" d=" M 138.9720509972425 654.941128002 L 244.8194436841214 654.941128002 L 244.8194436841214 697.7896228120001 L 138.9720509972425 697.7896228120001 L 138.9720509972425 654.941128002 Z" stroke-miterlimit="10" stroke-width="2.613632528" stroke-dasharray=""/></g><g><g/><text fill="black" stroke="none" font-family="monospace" font-size="11pt" font-style="normal" font-weight="normal" text-decoration="normal" x="156.69574657774248" y="681.454419512" text-anchor="start" dominant-baseline="alphabetic" xml:space="preserve">Frontend</text></g><g><path fill="white" stroke="green" paint-order="fill stroke markers" d=" M 496.80536436795467 701.9550996535 A 24.2577769005 24.2577769005 0 1 1 496.80535223906725 701.9308418806424 M 432.92655186330467 676.7253781566501 L 432.92655186330467 727.18482115035 M 431.95460726695467 701.9550996535 L 448.28981056695466 701.9550996535" stroke-miterlimit="10" stroke-width="1.9438891927000002" stroke-dasharray=""/></g><g><g/><text fill="black" stroke="none" font-family="monospace" font-size="11pt" font-style="normal" font-weight="normal" text-decoration="normal" x="429.1799850545152" y="670.019777202" text-anchor="start" dominant-baseline="alphabetic" xml:space="preserve">Endpoint</text></g><g><path fill="white" stroke="red" paint-order="fill stroke markers" d=" M 698.1335142548036 708.7342090230001 A 24.2577769005 24.2577769005 0 1 1 698.1335021259162 708.7099512501425 M 670.6086966943036 684.4764321225001 L 680.4098186743036 676.3088304725001 M 670.6086966943036 684.4764321225001 L 680.4098186743036 692.6440337725002" stroke-miterlimit="10" stroke-width="1.9438891927000002" stroke-dasharray=""/></g><g><g/><text fill="black" stroke="none" font-family="monospace" font-size="11pt" font-style="normal" font-weight="normal" text-decoration="normal" x="643.0757381172431" y="670.019777202" text-anchor="start" dominant-baseline="alphabetic" xml:space="preserve">Scraper</text></g><g><path fill="pink" stroke="black" paint-order="fill stroke markers" d=" M 781.8066154176676 722.7824838610001 L 781.8066154176676 688.478556931 L 829.5054090536674 688.478556931 L 829.5054090536674 722.7824838610001" stroke-miterlimit="10" stroke-width="2.7769845610000004" stroke-dasharray=""/><path fill="pink" stroke="black" paint-order="fill stroke markers" d=" M 829.5054090536674 687.2860870901 L 829.5042165937638 687.3938976350166 L 829.5006393332977 687.5016973989685 L 829.4946776299925 687.6094756020693 L 829.4863320800131 687.7172214665884 L 829.4756035179079 687.8249242180291 L 829.462493016524 687.9325730862059 L 829.4470018869008 688.040157306322 L 829.4291316781382 688.1476661200448 L 829.4088841772422 688.2550887765826 L 829.386261408946 688.3624145337593 L 829.3612656355076 688.4696326590885 L 829.3338993564836 688.5767324308471 L 829.304165308479 688.6837031391472 L 829.2720664648739 688.790534087007 L 829.2376060355258 688.8972145914208 L 829.200787466449 689.0037339844271 L 829.1616144394696 689.1100816141753 L 829.1200908718579 689.2162468459912 L 829.0762209159359 689.3222190634399 L 829.0300089586625 689.427987669388 L 828.9814596211952 689.5335420870632 L 828.9305777584271 689.6388717611114 L 828.8773684585022 689.7439661586533 L 828.821837042306 689.8488147703365 L 828.763989062934 689.9534071113874 L 828.7038303051359 690.0577327226588 L 828.6413667847372 690.1617811716766 L 828.576604748038 690.2655420536827 L 828.509550671188 690.3690049926754 L 828.4402112595391 690.4721596424469 L 828.3685934469744 690.5749956876181 L 828.2947043952157 690.6775028446704 L 828.2185514931067 690.7796708629734 L 828.1401423558739 690.8814895258104 L 828.0594848243658 690.9829486514 L 827.9765869642683 691.084038093914 L 827.8914570652985 691.1847477444928 L 827.804103640375 691.285067532255 L 827.7145354247679 691.3849874253054 L 827.6227613752238 691.4844974317381 L 827.5287906690714 691.5835876006353 L 827.4326327033028 691.6822480230626 L 827.3342970936347 691.78046883306 L 827.233793673546 691.8782402086285 L 827.1311324932948 691.975552372712 L 827.0263238189137 692.072395594175 L 826.9193781311828 692.1687601887762 L 826.8103061245819 692.2646365201365 L 826.6991187062206 692.3600150007024 L 826.585826994748 692.4548860927057 L 826.4704423192411 692.5492403091159 L 826.352976218071 692.6430682145902 L 826.2334404377501 692.7363604264162 L 826.1118469317569 692.8291076154504 L 825.9882078593405 692.9213005070513 L 825.8625355843051 693.0129298820065 L 825.7348426737736 693.1039865774547 L 825.6051418969306 693.1944614878026 L 825.4734462237457 693.2843455656343 L 825.3397688236764 693.373629822617 L 825.2041230643515 693.4623053303993 L 825.0665225102337 693.5503632215044 L 824.9269809212637 693.6377946902167 L 824.7855122514844 693.724590993462 L 824.6421306476446 693.8107434516824 L 824.4968504477855 693.8962434497037 L 824.3496861798056 693.9810824375976 L 824.2006525600095 694.0652519315358 L 824.0497644916346 694.1487435146392 L 823.8970370633623 694.2315488378191 L 823.742485547808 694.3136596206119 L 823.5861253999946 694.3950676520082 L 823.4279722558063 694.4757647912722 L 823.268041930426 694.5557429687576 L 823.1063504167528 694.634994186713 L 822.9429138838035 694.713510520083 L 822.7777486750949 694.7912841172994 L 822.6108713070106 694.8683072010674 L 822.4422984671481 694.9445720691429 L 822.272047012651 695.0200710951024 L 822.1001339685229 695.0947967291064 L 821.9265765259248 695.1687414986537 L 821.7513920404565 695.2418980093291 L 821.5745980304205 695.3142589455423 L 821.3962121750704 695.3858170712601 L 821.2162523128432 695.4565652307297 L 821.0347364395751 695.5264963491937 L 820.8516827067021 695.595603433599 L 820.6671094194452 695.6638795732944 L 820.481035034979 695.7313179407229 L 820.293478160587 695.7979117921041 L 820.1044575518004 695.8636544681082 L 819.9139921105225 695.9285393945224 L 819.7221008831386 695.9925600829083 L 819.5288030586119 696.0557101312503 L 819.3341179665633 696.1179832245961 L 819.1380650753401 696.1793731356884 L 818.940663990068 696.2398737255871 L 818.7419344506909 696.2994789442838 L 818.5418963299971 696.3581828313062 L 818.3405696316322 696.4159795163145 L 818.1379744880982 696.4728632196884 L 817.9341311587403 696.528828253105 L 817.7290600277221 696.5838690201075 L 817.5227816019853 696.6379800166652 L 817.315316509201 696.6911558317234 L 817.1066854957053 696.743391147745 L 816.8969094244259 696.7946807412419 L 816.6860092727949 696.8450194832975 L 816.4740061306518 696.8944023400794 L 816.2609211981342 696.9428243733433 L 816.0467757835578 696.9902807409262 L 815.8315913012855 697.0367666972307 L 815.6153892695862 697.0822775937002 L 815.3981913084831 697.1268088792826 L 815.1800191375911 697.1703561008868 L 814.9608945739456 697.2129149038267 L 814.7408395298202 697.2544810322576 L 814.5198760105361 697.2950503296013 L 814.2980261122611 697.3346187389617 L 814.0753120198001 697.373182303531 L 813.8517560043766 697.4107371669849 L 813.6273804214062 697.4472795738683 L 813.4022077082599 697.4828058699709 L 813.1762603820215 697.5173125026927 L 812.9495610372353 697.5507960213993 L 812.7221323436469 697.5832530777667 L 812.493997043936 697.6146804261163 L 812.2651779514428 697.6450749237393 L 812.0356979478854 697.6744335312114 L 811.8055799810734 697.7027533126965 L 811.5748470626113 697.7300314362396 L 811.343522265599 697.7562651740516 L 811.1116287223231 697.7814519027802 L 810.879189621945 697.8055891037736 L 810.6462282081809 697.828674363332 L 810.412767776978 697.8507053729484 L 810.178831674185 697.8716799295404 L 809.944443293217 697.8915959356698 L 809.709626072717 697.9104513997524 L 809.4744034942114 697.9282444362577 L 809.2387990797617 697.9449732658969 L 809.0028363896134 697.9606362158008 L 808.7665390198388 697.9752317196876 L 808.5299305999778 697.988758318019 L 808.2930347906752 698.0012146581465 L 808.0558752813147 698.0125994944465 L 807.8184757876495 698.0229116884447 L 807.5808600494311 698.0321502089304 L 807.3430518280354 698.0403141320593 L 807.1050749040863 698.0474026414457 L 806.866953075078 698.0534150282448 L 806.6287101529948 698.0583506912228 L 806.3903699619304 698.0622091368176 L 806.1519563357054 698.0649899791878 L 805.9134931154837 698.0666929402514 L 805.6750041473886 698.0673178497138 L 805.436513280118 698.0668646450846 L 805.1980443625602 698.0653333716839 L 804.959621241408 698.0627241826377 L 804.721267758775 698.0590373388627 L 804.4830077498106 698.0542732090403 L 804.2448650403173 698.0484322695794 L 804.0068634443677 698.0415151045692 L 803.7690267619229 698.0335224057203 L 803.5313787764529 698.0244549722961 L 803.2939432525584 698.0143137110322 L 803.0567439335937 698.0030996360464 L 802.8198045392933 697.9908138687368 L 802.583148763399 697.97745763767 L 802.3468002712912 697.9630322784578 L 802.1107826976221 697.9475392336243 L 801.8751196439525 697.9309800524609 L 801.6398346763914 697.913356390872 L 801.4049513232394 697.894670011209 L 801.1704930726361 697.8749227820942 L 800.9364833702112 697.8541166782345 L 800.7029456167398 697.8322537802225 L 800.469903165803 697.8093362743299 L 800.2373793214513 697.7853664522883 L 800.0053973358754 697.7603467110598 L 799.7739804070808 697.7342795525977 L 799.5431516765673 697.7071675835962 L 799.3129342270157 697.6790135152296 L 799.0833510799791 697.6498201628812 L 798.8544251935808 697.6195904458618 L 798.6261794602189 697.5883273871182 L 798.3986367042762 697.5560341129301 L 798.1718196798389 697.5227138525978 L 797.9457510684205 697.48836993812 L 797.7204534766935 697.453005803859 L 797.4959494342294 697.4166249861992 L 797.2722613912455 697.3792311231919 L 797.0494117163596 697.340827954192 L 796.8274226943535 697.3014193194848 L 796.6063165239444 697.2610091599007 L 796.386115315565 697.219601516422 L 796.1668410891529 697.1772005297786 L 795.9485157719477 697.1338104400338 L 795.7311611962992 697.0894355861604 L 795.5147990974842 697.0440804056069 L 795.2994511115319 696.9977494338534 L 795.0851387730617 696.9504473039585 L 794.8718835131285 696.902178746096 L 794.6597066570811 696.8529485870812 L 794.4486294224278 696.802761749889 L 794.2386729167164 696.7516232531614 L 794.0298581354225 696.6995382107053 L 793.8222059598502 696.6465118309818 L 793.615737155044 696.5925494165846 L 793.4104723677124 696.53765636371 L 793.2064321241629 696.4818381616176 L 793.0036368282499 696.4251003920813 L 792.8021067593342 696.3674487288305 L 792.6018620702545 696.3088889369836 L 792.4029227853129 696.2494268724711 L 792.2053087982721 696.1890684814497 L 792.0090398703662 696.1278197997083 L 791.8141356283244 696.065686952064 L 791.6206155624085 696.0026761517498 L 791.4284990244637 695.9387936997933 L 791.237805225984 695.8740459843864 L 791.04855323619 695.8084394802466 L 790.860761980123 695.7419807479698 L 790.6744502367524 695.6746764333737 L 790.489636637097 695.6065332668338 L 790.3063396623629 695.53755806261 L 790.1245776420947 695.467757718165 L 789.9443687523432 695.3971392134753 L 789.7657310138469 695.3257096103324 L 789.588682290231 695.2534760516371 L 789.4132402862201 695.1804457606852 L 789.2394225458687 695.1066260404449 L 789.0672464508058 695.0320242728266 L 788.8967292184974 694.9566479179449 L 788.7278879005248 694.8805045133726 L 788.5607393808789 694.8036016733865 L 788.3953003742726 694.7259470882068 L 788.2315874244683 694.6475485232271 L 788.0696169026251 694.5684138182387 L 787.9094050056598 694.488550886646 L 787.7509677546286 694.4079677146756 L 787.5943209931248 694.3266723605777 L 787.439480385694 694.2446729538199 L 787.2864614162677 694.1619776942745 L 787.1352793866154 694.0785948513986 L 786.9859494148141 693.9945327634069 L 786.8384864337365 693.9097998364383 L 786.692905189558 693.8244045437149 L 786.5492202402816 693.7383554246945 L 786.4074459542824 693.6516610842177 L 786.267596508871 693.564330191646 L 786.1296858888752 693.476371479996 L 785.9937278852422 693.3877937450657 L 785.8597360936591 693.2986058445545 L 785.7277239131934 693.2088166971783 L 785.597704544953 693.118435281777 L 785.4696909907665 693.0274706364168 L 785.3436960518826 692.9359318574865 L 785.2197323276903 692.8438280987875 L 785.0978122144586 692.7511685706191 L 784.9779479040972 692.657962538857 L 784.8601513829373 692.5642193240265 L 784.7444344305328 692.469948300371 L 784.6308086184825 692.3751588949144 L 784.5192853092732 692.2798605865181 L 784.4098756551425 692.1840629049337 L 784.3025905969648 692.0877754298496 L 784.1974408631565 691.9910077899327 L 784.0944369686035 691.8937696618666 L 783.9935892136092 691.796070769383 L 783.8949076828651 691.69792088229 L 783.7984022444422 691.5993298154941 L 783.7040825488037 691.50030742802 L 783.6119580278407 691.4008636220241 L 783.5220378939285 691.3010083418039 L 783.4343311390056 691.2007515728043 L 783.3488465336743 691.1001033406186 L 783.2655926263241 690.9990737099862 L 783.184577742276 690.897672783786 L 783.1058099829512 690.7959107020259 L 783.02929722506 690.6937976408296 L 782.9550471198141 690.591343811418 L 782.8830670921626 690.4885594590886 L 782.8133643400479 690.3854548621911 L 782.7459458336874 690.2820403310991 L 782.6808183148754 690.1783262071796 L 782.6179882963095 690.0743228617587 L 782.5574620609393 689.970040695084 L 782.4992456613378 689.8654901352855 L 782.4433449190966 689.760681637332 L 782.3897654242431 689.6556256819858 L 782.3385125346823 689.5503327747552 L 782.2895913756605 689.4448134448429 L 782.2430068392526 689.3390782440941 L 782.1987635838738 689.2331377459407 L 782.1568660338123 689.1270025443442 L 782.1173183787886 689.0206832527365 L 782.0801245735349 688.9141905029579 L 782.0452883374011 688.8075349441948 L 782.0128131539814 688.7007272419143 L 781.9827022707674 688.5937780767973 L 781.9549586988221 688.4866981436714 L 781.9295852124798 688.3794981504407 L 781.9065843490678 688.272188817015 L 781.8859584086533 688.1647808742385 L 781.8677094538132 688.0572850628158 L 781.8518393094278 687.9497121322386 L 781.8383495624983 687.84207283971 L 781.827241561988 687.7343779490699 L 781.818516418688 687.6266382297174 L 781.812175005105 687.5188644555348 L 781.8082179553754 687.4110674038095 L 781.8066456652007 687.3032578541571 L 781.8074582918086 687.1954465874426 L 781.8106557539372 687.0876443847028 L 781.8162377318429 686.9798620260682 L 781.8242036673325 686.8721102896848 L 781.8345527638193 686.7643999506364 L 781.8472839864021 686.6567417798673 L 781.8623960619692 686.5491465431047 L 781.8798874793258 686.4416249997828 L 781.8997564893446 686.3341879019661 L 781.9220011051412 686.226845993275 L 781.9466191022727 686.1196100078109 L 781.9736080189597 686.0124906690829 L 782.0029651563331 685.9054986889358 L 782.0346875787036 685.7986447664782 L 782.0687721138555 685.6919395870135 L 782.1052153533635 685.5853938209707 L 782.1440136529343 685.4790181228375 L 782.18516313277 685.3728231300952 L 782.228659677957 685.2668194621544 L 782.2744989388771 685.1610177192938 L 782.3226763316422 685.0554284815994 L 782.3731870385535 684.9500623079069 L 782.4260260085821 684.844929734746 L 782.4811879578752 684.7400412752863 L 782.5386673702839 684.6354074182864 L 782.5984584979146 684.5310386270448 L 782.6605553617045 684.4269453383536 L 782.724951752019 684.323137961455 L 782.7916412292728 684.2196268770001 L 782.8606171245737 684.1164224360112 L 782.9318725403895 684.0135349588463 L 783.0054003512381 683.9109747341674 L 783.0811932043997 683.8087520179115 L 783.1592435206521 683.7068770322651 L 783.2395434950289 683.6053599646418 L 783.3220850975993 683.5042109666638 L 783.406860074272 683.4034401531466 L 783.49385994762 683.3030576010875 L 783.5830760177283 683.2030733486581 L 783.6744993630645 683.1034973942004 L 783.76812084137 683.0043396952268 L 783.863931090575 682.9056101674246 L 783.9619205297346 682.8073186836642 L 784.0620793599865 682.7094750730123 L 784.164397565531 682.6120891197481 L 784.2688649146328 682.5151705623861 L 784.3754709606443 682.418729092701 L 784.4842050430495 682.3227743547596 L 784.5950562885308 682.2273159439557 L 784.7080136120562 682.1323634060507 L 784.8230657179873 682.0379262362194 L 784.9402011012095 681.9440138781 L 785.0594080482819 681.85063572285 L 785.1806746386093 681.7578011082073 L 785.3039887456337 681.665519317556 L 785.4293380380471 681.573799578998 L 785.5567099810248 681.4826510644309 L 785.6860918374787 681.3920828886303 L 785.8174706693308 681.3021041083381 L 785.9508333388073 681.2127237213574 L 786.0861665097527 681.1239506656526 L 786.2234566489626 681.035793818455 L 786.3626900275374 680.9482619953761 L 786.5038527222553 680.8613639495252 L 786.6469306169644 680.7751083706343 L 786.7919094039945 680.6895038841897 L 786.9387745855878 680.6045590505685 L 787.0875114753485 680.5202823641832 L 787.2381051997114 680.4366822526325 L 787.3905406994298 680.3537670758576 L 787.5448027310806 680.2715451253074 L 787.7008758685893 680.1900246231081 L 787.8587445047721 680.1092137212422 L 788.018392852897 680.0291205007325 L 788.1798049482621 679.9497529708342 L 788.3429646497926 679.8711190682342 L 788.5078556416541 679.7932266562574 L 788.6744614348851 679.7160835240799 L 788.8427653690449 679.6396973859506 L 789.0127506138801 679.5640758804199 L 789.1844001710084 679.4892265695751 L 789.3576968756169 679.4151569382849 L 789.5326233981793 679.3418743934509 L 789.7091622461895 679.2693862632664 L 789.8872957659096 679.197699796484 L 790.0670061441361 679.1268221616907 L 790.248275409981 679.0567604465908 L 790.4310854366687 678.9875216572976 L 790.6154179433489 678.9191127176322 L 790.8012544969247 678.8515404684316 L 790.9885765138953 678.7848116668644 L 791.1773652622152 678.7189329857551 L 791.367601863167 678.653911012917 L 791.5592672932491 678.5897522504932 L 791.7523423860782 678.5264631143064 L 791.9468078343059 678.4640499332174 L 792.1426441915495 678.4025189484926 L 792.3398318743363 678.341876313179 L 792.5383511640625 678.2821280914895 L 792.7381822089645 678.2232802581966 L 792.9393050261043 678.1653386980347 L 793.1416995033679 678.1083092051113 L 793.3453454014763 678.0521974823283 L 793.550222356009 677.9970091408112 L 793.7563098794417 677.9427496993482 L 793.9635873631936 677.889424583838 L 794.1720340796891 677.8370391267481 L 794.3816291844303 677.7855985665803 L 794.5923517180812 677.7351080473478 L 794.8041806085643 677.6855726180604 L 795.0170946731669 677.6369972322199 L 795.23107262066 677.5893867473243 L 795.4460930534273 677.5427459243823 L 795.6621344696044 677.4970794274376 L 795.87917526523 677.4523918231016 L 796.0971937364053 677.4086875800975 L 796.3161680814649 677.3659710688135 L 796.5360764031566 677.3242465608646 L 796.7568967108318 677.2835182286673 L 796.9786069226435 677.2437901450206 L 797.2011848677554 677.2050662827 L 797.4246082885584 677.1673505140592 L 797.6488548428965 677.1306466106438 L 797.8739021063014 677.0949582428135 L 798.0997275742342 677.0602889793754 L 798.3263086643362 677.0266422872268 L 798.5536227186874 676.994021531009 L 798.7816470060715 676.9624299727705 L 799.01035872425 676.9318707716405 L 799.2397350022416 676.9023469835141 L 799.4697529026097 676.8738615607452 L 799.7003894237558 676.8464173518524 L 799.9316215022202 676.8200171012337 L 800.1634260149875 676.7946634488923 L 800.3957797817999 676.770358930172 L 800.6286595674741 676.7471059755047 L 800.8620420842257 676.7249069101665 L 801.0959039939975 676.7037639540453 L 801.3302219107933 676.6836792214191 L 801.5649724030168 676.6646547207445 L 801.8001319958144 676.6466923544556 L 802.0356771734228 676.6297939187741 L 802.2715843815204 676.6139611035296 L 802.5078300295831 676.5991954919904 L 802.7443904932429 676.5854985607051 L 802.9812421166507 676.5728716793558 L 803.2183612148414 676.5613161106198 L 803.4557240761028 676.5508330100446 L 803.6933069643466 676.5414234259313 L 803.9310861214818 676.5330882992306 L 804.1690377697912 676.5258284634482 L 804.4071381143079 676.5196446445615 L 804.6453633451961 676.5145374609475 L 804.8836896401311 676.5105074233201 L 805.1220931666821 676.5075549346797 L 805.360550084695 676.5056802902728 L 805.5990365486768 676.5048836775622 L 805.8375287101799 676.5051651762086 L 806.0760027201867 676.5065247580624 L 806.3144347314951 676.5089622871662 L 806.5528009011026 676.5124775197696 L 806.7910773925909 676.5170701043521 L 807.0292403785094 676.5227395816589 L 807.2672660427579 676.5294853847472 L 807.5051305829684 676.5373068390421 L 807.742810212885 676.5462031624049 L 807.9802811647431 676.5561734652106 L 808.2175196916451 676.5672167504373 L 808.454502069936 676.5793319137655 L 808.6912046015756 676.5925177436891 L 808.9276036165079 676.606772921636 L 809.1636754750285 676.6220960221004 L 809.3993965701482 676.638485512785 L 809.6347433299538 676.6559397547544 L 809.8696922199657 676.6744570025988 L 810.1042197454905 676.6940354046089 L 810.3383024539712 676.714673002961 L 810.5719169373319 676.7363677339124 L 810.805039834319 676.7591174280078 L 811.0376478328371 676.7829198102971 L 811.2697176722802 676.8077725005618 L 811.5012261458577 676.8336730135535 L 811.7321501029152 676.8606187592425 L 811.9624664512494 676.8886070430768 L 812.1921521594173 676.9176350662513 L 812.4211842590397 676.9476999259876 L 812.6495398470973 676.9787986158252 L 812.8771960882218 677.0109280259209 L 813.1041302169785 677.0440849433603 L 813.3303195401439 677.0782660524795 L 813.5557414389742 677.1134679351959 L 813.7803733714671 677.1496870713506 L 814.0041928746168 677.1869198390604 L 814.2271775666594 677.2251625150791 L 814.4493051493114 677.2644112751714 L 814.6705534099999 677.3046621944937 L 814.890900224083 677.3459112479878 L 815.1103235570629 677.3881543107827 L 815.3288014667893 677.4313871586072 L 815.5463121056532 677.4756054682127 L 815.762833722772 677.520804817805 L 815.9783446661644 677.5669806874868 L 816.1928233849156 677.6141284597096 L 816.4062484313326 677.6622434197355 L 816.6185984630886 677.7113207561086 L 816.8298522453573 677.7613555611363 L 817.0399886529365 677.8123428313795 L 817.2489866723605 677.8642774681539 L 817.4568254040017 677.9171542780389 L 817.66348406416 677.9709679733977 L 817.8689419871417 678.0257131729057 L 818.0731786273257 678.0813844020884 L 818.276173561218 678.1379760938694 L 818.4779064894946 678.1954825891265 L 818.6783572390307 678.2538981372583 L 818.8775057649183 678.3132168967586 L 819.0753321524709 678.3734329358008 L 819.2718166192145 678.4345402328313 L 819.4669395168663 678.4965326771712 L 819.6606813332991 678.5594040696279 L 819.8530226944924 678.6231481231143 L 820.0439443664709 678.6877584632784 L 820.233427257226 678.7532286291399 L 820.4214524186269 678.8195520737369 L 820.608001048314 678.8867221647799 L 820.7930544915797 678.9547321853162 L 820.976594243234 679.0235753344001 L 821.1586019494547 679.0932447277742 L 821.3390594096228 679.1637333985572 L 821.5179485781426 679.2350342979407 L 821.6952515662464 679.3071402958942 L 821.8709506437832 679.3800441818781 L 822.0450282409915 679.4537386655645 L 822.2174669502568 679.5282163775663 L 822.3882495278518 679.6034698701745 L 822.5573588956611 679.6794916181026 L 822.7247781428887 679.7562740192391 L 822.8904905277495 679.8338093954078 L 823.0544794791432 679.9120899931359 L 823.2167285983112 679.9911079844286 L 823.3772216604768 680.0708554675526 L 823.5359426164677 680.1513244678264 L 823.6928755943202 680.2325069384168 L 823.8480049008675 680.3143947611443 L 824.0013150233084 680.3969797472951 L 824.1527906307581 680.4802536384391 L 824.3024165757822 680.5642081072568 L 824.450177895911 680.6488347583713 L 824.5960598151355 680.734125129188 L 824.7400477453854 680.8200706907407 L 824.8821272879876 680.9066628485451 L 825.0222842351063 680.9938929434575 L 825.1605045711635 681.081752252541 L 825.2967744742409 681.1702319899381 L 825.4310803174617 681.2593233077487 L 825.5634086703535 681.3490172969151 L 825.6937463001912 681.4393049881133 L 825.8220801733205 681.5301773526495 L 825.9483974564612 681.6216253033629 L 826.0726855179898 681.7136396955345 L 826.1949319292042 681.8062113278019 L 826.315124465565 681.899330943079 L 826.4332511079186 681.9929892294819 L 826.5493000436993 682.0871768212598 L 826.6632596681102 682.1818842997322 L 826.7751185852838 682.2771021942303 L 826.8848656094217 682.3728209830438 L 826.9924897659129 682.4690310943736 L 827.0979802924313 682.5657229072888 L 827.2013266400123 682.6628867526886 L 827.3025184741073 682.7605129142695 L 827.4015456756172 682.8585916294967 L 827.4983983419041 682.9571130905804 L 827.5930667877825 683.0560674454565 L 827.6855415464864 683.1554447987721 L 827.7758133706172 683.2552352128747 L 827.8638732330676 683.355428708806 L 827.9497123279247 683.4560152672999 L 828.0333220713507 683.5569848297843 L 828.1146941024406 683.6583272993872 L 828.1938202840595 683.760032541946 L 828.270692703655 683.8620903870212 L 828.3453036740491 683.9644906289135 L 828.4176457342071 684.0672230276839 L 828.4877116499833 684.1702773101782 L 828.5554944148444 684.2736431710539 L 828.6209872505704 684.3773102738112 L 828.6841836079323 684.4812682518261 L 828.745077167347 684.5855067093876 L 828.8036618395093 684.6900152227366 L 828.859931766001 684.794783341109 L 828.9138813198762 684.8998005877802 L 828.9655051062244 685.0050564611131 L 829.0147979627101 685.110540435608 L 829.0617549600887 685.2162419629555 L 829.1063714026996 685.3221504730907 L 829.1486428289356 685.428255375251 L 829.1885650116894 685.5345460590347 L 829.2261339587761 685.6410118954618 L 829.2613459133321 685.7476422380375 L 829.2941973541915 685.8544264238164 L 829.3246849962374 685.9613537744689 L 829.352805790731 686.0684135973489 L 829.3785569256164 686.1755951865637 L 829.4019358258016 686.2828878240432 L 829.4229401534159 686.3902807806134 L 829.4415678080442 686.497763317068 L 829.4578169269364 686.6053246852431 L 829.4716858851943 686.7129541290913 L 829.4831732959336 686.8206408857579 L 829.4922780104228 686.9283741866573 L 829.498999118198 687.0361432585487 L 829.5033359471539 687.1439373246151 L 829.5052880636115 687.2517456055396 M 829.5054090536674 721.5900140201 L 829.5042165937638 721.6978245650167 L 829.5006393332977 721.8056243289686 L 829.4946776299925 721.9134025320694 L 829.4863320800131 722.0211483965885 L 829.4756035179079 722.1288511480292 L 829.462493016524 722.236500016206 L 829.4470018869008 722.3440842363221 L 829.4291316781382 722.451593050045 L 829.4088841772422 722.5590157065827 L 829.386261408946 722.6663414637594 L 829.3612656355076 722.7735595890886 L 829.3338993564836 722.8806593608472 L 829.304165308479 722.9876300691473 L 829.2720664648739 723.0944610170071 L 829.2376060355258 723.2011415214209 L 829.200787466449 723.3076609144273 L 829.1616144394696 723.4140085441754 L 829.1200908718579 723.5201737759913 L 829.0762209159359 723.62614599344 L 829.0300089586625 723.7319145993881 L 828.9814596211952 723.8374690170633 L 828.9305777584271 723.9427986911115 L 828.8773684585022 724.0478930886534 L 828.821837042306 724.1527417003366 L 828.763989062934 724.2573340413875 L 828.7038303051359 724.3616596526589 L 828.6413667847372 724.4657081016767 L 828.576604748038 724.5694689836828 L 828.509550671188 724.6729319226755 L 828.4402112595391 724.776086572447 L 828.3685934469744 724.8789226176182 L 828.2947043952157 724.9814297746705 L 828.2185514931067 725.0835977929735 L 828.1401423558739 725.1854164558105 L 828.0594848243658 725.2868755814001 L 827.9765869642683 725.3879650239141 L 827.8914570652985 725.4886746744929 L 827.804103640375 725.5889944622551 L 827.7145354247679 725.6889143553055 L 827.6227613752238 725.7884243617382 L 827.5287906690714 725.8875145306354 L 827.4326327033028 725.9861749530627 L 827.3342970936347 726.0843957630601 L 827.233793673546 726.1821671386286 L 827.1311324932948 726.279479302712 L 827.0263238189137 726.3763225241751 L 826.9193781311828 726.4726871187763 L 826.8103061245819 726.5685634501366 L 826.6991187062206 726.6639419307025 L 826.585826994748 726.7588130227058 L 826.4704423192411 726.853167239116 L 826.352976218071 726.9469951445903 L 826.2334404377501 727.0402873564163 L 826.1118469317569 727.1330345454505 L 825.9882078593405 727.2252274370514 L 825.8625355843051 727.3168568120066 L 825.7348426737736 727.4079135074549 L 825.6051418969306 727.4983884178027 L 825.4734462237457 727.5882724956344 L 825.3397688236764 727.6775567526171 L 825.2041230643515 727.7662322603994 L 825.0665225102337 727.8542901515045 L 824.9269809212637 727.9417216202168 L 824.7855122514844 728.0285179234621 L 824.6421306476446 728.1146703816825 L 824.4968504477855 728.2001703797038 L 824.3496861798056 728.2850093675977 L 824.2006525600095 728.3691788615359 L 824.0497644916346 728.4526704446394 L 823.8970370633623 728.5354757678192 L 823.742485547808 728.617586550612 L 823.5861253999946 728.6989945820083 L 823.4279722558063 728.7796917212723 L 823.268041930426 728.8596698987577 L 823.1063504167528 728.9389211167131 L 822.9429138838035 729.0174374500831 L 822.7777486750949 729.0952110472995 L 822.6108713070106 729.1722341310675 L 822.4422984671481 729.248498999143 L 822.272047012651 729.3239980251025 L 822.1001339685229 729.3987236591065 L 821.9265765259248 729.4726684286538 L 821.7513920404565 729.5458249393292 L 821.5745980304205 729.6181858755424 L 821.3962121750704 729.6897440012602 L 821.2162523128432 729.7604921607298 L 821.0347364395751 729.8304232791938 L 820.8516827067021 729.8995303635991 L 820.6671094194452 729.9678065032945 L 820.481035034979 730.035244870723 L 820.293478160587 730.1018387221042 L 820.1044575518004 730.1675813981083 L 819.9139921105225 730.2324663245225 L 819.7221008831386 730.2964870129084 L 819.5288030586119 730.3596370612504 L 819.3341179665633 730.4219101545962 L 819.1380650753401 730.4833000656885 L 818.940663990068 730.5438006555872 L 818.7419344506909 730.6034058742839 L 818.5418963299971 730.6621097613063 L 818.3405696316322 730.7199064463146 L 818.1379744880982 730.7767901496885 L 817.9341311587403 730.8327551831051 L 817.7290600277221 730.8877959501076 L 817.5227816019853 730.9419069466653 L 817.315316509201 730.9950827617236 L 817.1066854957053 731.0473180777451 L 816.8969094244259 731.098607671242 L 816.6860092727949 731.1489464132976 L 816.4740061306518 731.1983292700795 L 816.2609211981342 731.2467513033434 L 816.0467757835578 731.2942076709263 L 815.8315913012855 731.3406936272308 L 815.6153892695862 731.3862045237003 L 815.3981913084831 731.4307358092827 L 815.1800191375911 731.4742830308869 L 814.9608945739456 731.5168418338268 L 814.7408395298202 731.5584079622577 L 814.5198760105361 731.5989772596014 L 814.2980261122611 731.6385456689618 L 814.0753120198001 731.6771092335312 L 813.8517560043766 731.714664096985 L 813.6273804214062 731.7512065038684 L 813.4022077082599 731.786732799971 L 813.1762603820215 731.8212394326928 L 812.9495610372353 731.8547229513995 L 812.7221323436469 731.8871800077668 L 812.493997043936 731.9186073561164 L 812.2651779514428 731.9490018537394 L 812.0356979478854 731.9783604612115 L 811.8055799810734 732.0066802426966 L 811.5748470626113 732.0339583662397 L 811.343522265599 732.0601921040517 L 811.1116287223231 732.0853788327803 L 810.879189621945 732.1095160337737 L 810.6462282081809 732.1326012933321 L 810.412767776978 732.1546323029485 L 810.178831674185 732.1756068595405 L 809.944443293217 732.1955228656699 L 809.709626072717 732.2143783297525 L 809.4744034942114 732.2321713662578 L 809.2387990797617 732.248900195897 L 809.0028363896134 732.2645631458009 L 808.7665390198388 732.2791586496877 L 808.5299305999778 732.2926852480191 L 808.2930347906752 732.3051415881466 L 808.0558752813147 732.3165264244466 L 807.8184757876495 732.3268386184448 L 807.5808600494311 732.3360771389305 L 807.3430518280354 732.3442410620594 L 807.1050749040863 732.3513295714458 L 806.866953075078 732.3573419582449 L 806.6287101529948 732.3622776212229 L 806.3903699619304 732.3661360668177 L 806.1519563357054 732.3689169091879 L 805.9134931154837 732.3706198702515 L 805.6750041473886 732.371244779714 L 805.436513280118 732.3707915750847 L 805.1980443625602 732.369260301684 L 804.959621241408 732.3666511126378 L 804.721267758775 732.3629642688627 L 804.4830077498106 732.3582001390404 L 804.2448650403173 732.3523591995795 L 804.0068634443677 732.3454420345693 L 803.7690267619229 732.3374493357204 L 803.5313787764529 732.3283819022962 L 803.2939432525584 732.3182406410323 L 803.0567439335937 732.3070265660465 L 802.8198045392933 732.2947407987369 L 802.583148763399 732.2813845676701 L 802.3468002712912 732.2669592084579 L 802.1107826976221 732.2514661636244 L 801.8751196439525 732.234906982461 L 801.6398346763914 732.2172833208721 L 801.4049513232394 732.1985969412091 L 801.1704930726361 732.1788497120943 L 800.9364833702112 732.1580436082346 L 800.7029456167398 732.1361807102226 L 800.469903165803 732.11326320433 L 800.2373793214513 732.0892933822884 L 800.0053973358754 732.0642736410599 L 799.7739804070808 732.0382064825978 L 799.5431516765673 732.0110945135963 L 799.3129342270157 731.9829404452297 L 799.0833510799791 731.9537470928813 L 798.8544251935808 731.9235173758619 L 798.6261794602189 731.8922543171183 L 798.3986367042762 731.8599610429302 L 798.1718196798389 731.8266407825979 L 797.9457510684205 731.79229686812 L 797.7204534766935 731.7569327338591 L 797.4959494342294 731.7205519161993 L 797.2722613912455 731.683158053192 L 797.0494117163596 731.6447548841921 L 796.8274226943535 731.6053462494849 L 796.6063165239444 731.5649360899008 L 796.386115315565 731.5235284464221 L 796.1668410891529 731.4811274597787 L 795.9485157719477 731.4377373700339 L 795.7311611962992 731.3933625161606 L 795.5147990974842 731.348007335607 L 795.2994511115319 731.3016763638535 L 795.0851387730617 731.2543742339586 L 794.8718835131285 731.2061056760961 L 794.6597066570811 731.1568755170813 L 794.4486294224278 731.1066886798891 L 794.2386729167164 731.0555501831615 L 794.0298581354225 731.0034651407054 L 793.8222059598502 730.9504387609819 L 793.615737155044 730.8964763465847 L 793.4104723677124 730.8415832937101 L 793.2064321241629 730.7857650916177 L 793.0036368282499 730.7290273220814 L 792.8021067593342 730.6713756588306 L 792.6018620702545 730.6128158669837 L 792.4029227853129 730.5533538024712 L 792.2053087982721 730.4929954114498 L 792.0090398703662 730.4317467297084 L 791.8141356283244 730.3696138820641 L 791.6206155624085 730.3066030817499 L 791.4284990244637 730.2427206297934 L 791.237805225984 730.1779729143865 L 791.04855323619 730.1123664102468 L 790.860761980123 730.0459076779699 L 790.6744502367524 729.9786033633738 L 790.489636637097 729.9104601968339 L 790.3063396623629 729.84148499261 L 790.1245776420947 729.7716846481651 L 789.9443687523432 729.7010661434754 L 789.7657310138469 729.6296365403325 L 789.588682290231 729.5574029816372 L 789.4132402862201 729.4843726906853 L 789.2394225458687 729.410552970445 L 789.0672464508058 729.3359512028267 L 788.8967292184974 729.260574847945 L 788.7278879005248 729.1844314433727 L 788.5607393808789 729.1075286033866 L 788.3953003742726 729.0298740182069 L 788.2315874244683 728.9514754532272 L 788.0696169026251 728.8723407482388 L 787.9094050056598 728.792477816646 L 787.7509677546286 728.7118946446757 L 787.5943209931248 728.6305992905778 L 787.439480385694 728.54859988382 L 787.2864614162677 728.4659046242746 L 787.1352793866154 728.3825217813987 L 786.9859494148141 728.298459693407 L 786.8384864337365 728.2137267664384 L 786.692905189558 728.128331473715 L 786.5492202402816 728.0422823546946 L 786.4074459542824 727.9555880142178 L 786.267596508871 727.8682571216461 L 786.1296858888752 727.7802984099961 L 785.9937278852422 727.6917206750658 L 785.8597360936591 727.6025327745546 L 785.7277239131934 727.5127436271785 L 785.597704544953 727.4223622117771 L 785.4696909907665 727.3313975664169 L 785.3436960518826 727.2398587874866 L 785.2197323276903 727.1477550287876 L 785.0978122144586 727.0550955006192 L 784.9779479040972 726.9618894688571 L 784.8601513829373 726.8681462540266 L 784.7444344305328 726.7738752303711 L 784.6308086184825 726.6790858249145 L 784.5192853092732 726.5837875165182 L 784.4098756551425 726.4879898349338 L 784.3025905969648 726.3917023598497 L 784.1974408631565 726.2949347199328 L 784.0944369686035 726.1976965918667 L 783.9935892136092 726.0999976993832 L 783.8949076828651 726.0018478122901 L 783.7984022444422 725.9032567454942 L 783.7040825488037 725.8042343580202 L 783.6119580278407 725.7047905520242 L 783.5220378939285 725.604935271804 L 783.4343311390056 725.5046785028044 L 783.3488465336743 725.4040302706187 L 783.2655926263241 725.3030006399863 L 783.184577742276 725.2015997137861 L 783.1058099829512 725.099837632026 L 783.02929722506 724.9977245708297 L 782.9550471198141 724.8952707414181 L 782.8830670921626 724.7924863890887 L 782.8133643400479 724.6893817921912 L 782.7459458336874 724.5859672610992 L 782.6808183148754 724.4822531371797 L 782.6179882963095 724.3782497917588 L 782.5574620609393 724.2739676250841 L 782.4992456613378 724.1694170652856 L 782.4433449190966 724.0646085673321 L 782.3897654242431 723.9595526119859 L 782.3385125346823 723.8542597047553 L 782.2895913756605 723.748740374843 L 782.2430068392526 723.6430051740942 L 782.1987635838738 723.5370646759408 L 782.1568660338123 723.4309294743443 L 782.1173183787886 723.3246101827366 L 782.0801245735349 723.218117432958 L 782.0452883374011 723.1114618741949 L 782.0128131539814 723.0046541719144 L 781.9827022707674 722.8977050067974 L 781.9549586988221 722.7906250736715 L 781.9295852124798 722.6834250804408 L 781.9065843490678 722.5761157470151 L 781.8859584086533 722.4687078042386 L 781.8677094538132 722.3612119928159 L 781.8518393094278 722.2536390622387 L 781.8383495624983 722.1459997697101 L 781.827241561988 722.03830487907 L 781.818516418688 721.9305651597175 L 781.812175005105 721.8227913855349 L 781.8082179553754 721.7149943338096 L 781.8066456652007 721.6071847841572" stroke-miterlimit="10" stroke-width="2.7769845610000004" stroke-dasharray=""/></g><g><g/><text fill="black" stroke="none" font-family="monospace" font-size="11pt" font-style="normal" font-weight="normal" text-decoration="normal" x="770.456011472728" y="670.019777202" text-anchor="start" dominant-baseline="alphabetic" xml:space="preserve">Database</text></g><g><path fill="white" stroke="gray" paint-order="fill stroke markers" d=" M 934.6616649045919 701.1220042852 A 24.2577769005 24.2577769005 0 1 1 934.6616527757045 701.0977465123424 M 884.757618823092 727.6013688344999 L 936.050157185092 727.6013688344999" stroke-miterlimit="10" stroke-width="2.7769845610000004" stroke-dasharray=""/></g><g><g/><text fill="black" stroke="none" font-family="monospace" font-size="11pt" font-style="normal" font-weight="normal" text-decoration="normal" x="866.403888004092" y="670.019777202" text-anchor="start" dominant-baseline="alphabetic" xml:space="preserve">TwitterAPI</text></g></g><g><path fill="white" stroke="black" paint-order="fill stroke markers" d=" M 183.72814569068194 229.848875972 L 200.06334899068193 229.848875972 L 200.06334899068193 597.767916452 L 183.72814569068194 597.767916452 L 183.72814569068194 229.848875972" stroke-miterlimit="10" stroke-width="1.3612669416666667" stroke-dasharray=""/><path fill="white" stroke="black" paint-order="fill stroke markers" d=" M 456.2123841674547 273.953924882 L 472.54758746745466 273.953924882 L 472.54758746745466 553.662867542 L 456.2123841674547 553.662867542 L 456.2123841674547 273.953924882" stroke-miterlimit="10" stroke-width="1.3612669416666667" stroke-dasharray=""/><path fill="white" stroke="black" paint-order="fill stroke markers" d=" M 797.4884105856675 318.058973792 L 813.8236138856676 318.058973792 L 813.8236138856676 362.164022702 L 797.4884105856675 362.164022702 L 797.4884105856675 318.058973792" stroke-miterlimit="10" stroke-width="1.3612669416666667" stroke-dasharray=""/><path fill="white" stroke="black" paint-order="fill stroke markers" d=" M 665.7081357043036 406.269071612 L 682.0433390043037 406.269071612 L 682.0433390043037 494.479169432 L 665.7081357043036 494.479169432 L 665.7081357043036 406.269071612" stroke-miterlimit="10" stroke-width="1.3612669416666667" stroke-dasharray=""/><g><text fill="black" stroke="none" font-family="monospace" font-size="11pt" font-style="normal" font-weight="normal" text-decoration="normal" x="47.54787309813639" y="208.738767092" text-anchor="start" dominant-baseline="alphabetic" xml:space="preserve">Input Twitter</text><text fill="black" stroke="none" font-family="monospace" font-size="11pt" font-style="normal" font-weight="normal" text-decoration="normal" x="47.54787309813639" y="223.817416292" text-anchor="start" dominant-baseline="alphabetic" xml:space="preserve">account URL</text></g><g><path fill="none" stroke="black" paint-order="fill stroke markers" d=" M 25.76760203146973 229.848875972 L 170.27882830701526 229.848875972" stroke-miterlimit="10" stroke-width="1.3612669416666667" stroke-dasharray=""/><g transform="translate(183.72814569068194,229.848875972) translate(-183.72814569068194,-229.848875972)"><path fill="black" stroke="none" paint-order="stroke fill markers" d=" M 170.11547627401526 223.04254126366666 L 183.72814569068194 229.848875972 L 170.11547627401526 236.65521068033334 Z"/></g></g><g><text fill="black" stroke="none" font-family="monospace" font-size="11pt" font-style="normal" font-weight="normal" text-decoration="normal" x="240.13786657906826" y="267.922465202" text-anchor="start" dominant-baseline="alphabetic" xml:space="preserve">Request check result</text></g><g><path fill="none" stroke="black" paint-order="fill stroke markers" d=" M 200.06334899068193 273.953924882 L 442.763066783788 273.953924882" stroke-miterlimit="10" stroke-width="1.3612669416666667" stroke-dasharray=""/><g transform="translate(456.2123841674547,273.953924882) translate(-456.2123841674547,-273.953924882)"><path fill="black" stroke="none" paint-order="stroke fill markers" d=" M 442.599714750788 267.1475901736667 L 456.2123841674547 273.953924882 L 442.599714750788 280.76025959033336 Z"/></g></g><g><text fill="black" stroke="none" font-family="monospace" font-size="11pt" font-style="normal" font-weight="normal" text-decoration="normal" x="564.6179975006821" y="312.02751411200006" text-anchor="start" dominant-baseline="alphabetic" xml:space="preserve">Get check result</text></g><g><path fill="none" stroke="black" paint-order="fill stroke markers" d=" M 472.54758746745466 318.058973792 L 784.0390932020008 318.058973792" stroke-miterlimit="10" stroke-width="1.3612669416666667" stroke-dasharray=""/><g transform="translate(797.4884105856675,318.058973792) translate(-797.4884105856675,-318.058973792)"><path fill="black" stroke="none" paint-order="stroke fill markers" d=" M 783.8757411690008 311.2526390836667 L 797.4884105856675 318.058973792 L 783.8757411690008 324.86530850033336 Z"/></g></g><g><text fill="black" stroke="none" font-family="monospace" font-size="11pt" font-style="normal" font-weight="normal" text-decoration="normal" x="582.2179997895005" y="356.132563022" text-anchor="start" dominant-baseline="alphabetic" xml:space="preserve">Check result</text></g><g><path fill="none" stroke="black" paint-order="fill stroke markers" d=" M 797.4884105856675 362.164022702 L 485.9969048511213 362.164022702" stroke-miterlimit="10" stroke-width="1.3612669416666667" stroke-dasharray="6.53408132"/><g transform="translate(472.54758746745466,362.164022702) translate(-472.54758746745466,-362.164022702)"><path fill="black" stroke="none" paint-order="stroke fill markers" d=" M 486.16025688412134 355.3576879936667 L 472.54758746745466 362.164022702 L 486.16025688412134 368.97035741033335 Z"/></g></g><g><text fill="black" stroke="none" font-family="monospace" font-size="11pt" font-style="normal" font-weight="normal" text-decoration="normal" x="494.32785853412133" y="400.23761193200005" text-anchor="start" dominant-baseline="alphabetic" xml:space="preserve">Get recent tweets</text></g><g><path fill="none" stroke="black" paint-order="fill stroke markers" d=" M 472.54758746745466 406.269071612 L 652.2588183206369 406.269071612" stroke-miterlimit="10" stroke-width="1.3612669416666667" stroke-dasharray=""/><g transform="translate(665.7081357043036,406.269071612) translate(-665.7081357043036,-406.269071612)"><path fill="black" stroke="none" paint-order="stroke fill markers" d=" M 652.0954662876369 399.46273690366667 L 665.7081357043036 406.269071612 L 652.0954662876369 413.07540632033334 Z"/></g></g><g><text fill="black" stroke="none" font-family="monospace" font-size="11pt" font-style="normal" font-weight="normal" text-decoration="normal" x="721.42361045244" y="444.342660842" text-anchor="start" dominant-baseline="alphabetic" xml:space="preserve">Get recent tweets</text></g><g><path fill="none" stroke="black" paint-order="fill stroke markers" d=" M 682.0433390043037 450.374120522 L 896.9545706204253 450.374120522" stroke-miterlimit="10" stroke-width="1.3612669416666667" stroke-dasharray=""/><g transform="translate(910.403888004092,450.374120522) translate(-910.403888004092,-450.374120522)"><path fill="black" stroke="none" paint-order="stroke fill markers" d=" M 896.7912185874253 443.56778581366666 L 910.403888004092 450.374120522 L 896.7912185874253 457.18045523033334 Z"/></g></g><g><text fill="black" stroke="none" font-family="monospace" font-size="11pt" font-style="normal" font-weight="normal" text-decoration="normal" x="511.9278608229397" y="488.44770975200004" text-anchor="start" dominant-baseline="alphabetic" xml:space="preserve">Recent tweets</text></g><g><path fill="none" stroke="black" paint-order="fill stroke markers" d=" M 665.7081357043036 494.479169432 L 485.9969048511213 494.479169432" stroke-miterlimit="10" stroke-width="1.3612669416666667" stroke-dasharray="6.53408132"/><g transform="translate(472.54758746745466,494.479169432) translate(-472.54758746745466,-494.479169432)"><path fill="black" stroke="none" paint-order="stroke fill markers" d=" M 486.16025688412134 487.67283472366665 L 472.54758746745466 494.479169432 L 486.16025688412134 501.28550414033333 Z"/></g></g><g><text fill="black" stroke="none" font-family="monospace" font-size="11pt" font-style="normal" font-weight="normal" text-decoration="normal" x="266.53786810494717" y="532.552758662" text-anchor="start" dominant-baseline="alphabetic" xml:space="preserve">Profile detail</text><text fill="black" stroke="none" font-family="monospace" font-size="11pt" font-style="normal" font-weight="normal" text-decoration="normal" x="266.53786810494717" y="547.631407862" text-anchor="start" dominant-baseline="alphabetic" xml:space="preserve">and result</text></g><g><path fill="none" stroke="black" paint-order="fill stroke markers" d=" M 456.2123841674547 553.662867542 L 213.5126663743486 553.662867542" stroke-miterlimit="10" stroke-width="1.3612669416666667" stroke-dasharray="6.53408132"/><g transform="translate(200.06334899068193,553.662867542) translate(-200.06334899068193,-553.662867542)"><path fill="black" stroke="none" paint-order="stroke fill markers" d=" M 213.6760184073486 546.8565328336666 L 200.06334899068193 553.662867542 L 213.6760184073486 560.4692022503333 Z"/></g></g><g><text fill="black" stroke="none" font-family="monospace" font-size="11pt" font-style="normal" font-weight="normal" text-decoration="normal" x="56.34787233519694" y="591.736456772" text-anchor="start" dominant-baseline="alphabetic" xml:space="preserve">Show result</text></g><g><path fill="none" stroke="black" paint-order="fill stroke markers" d=" M 183.72814569068194 597.767916452 L 39.216919415136395 597.767916452" stroke-miterlimit="10" stroke-width="1.3612669416666667" stroke-dasharray="6.53408132"/><g transform="translate(25.76760203146973,597.767916452) translate(-25.76760203146973,-597.767916452)"><path fill="black" stroke="none" paint-order="stroke fill markers" d=" M 39.3802714481364 590.9615817436667 L 25.76760203146973 597.767916452 L 39.3802714481364 604.5742511603333 Z"/></g></g></g><g/><g/><g/><g/><g/><g/></g></svg>