<svg version="1.1" xmlns="http://www.w3.org/2000/svg" xmlns:xlink="http://www.w3.org/1999/xlink" width="1096" height="925"><desc>%23%20-----%20font%20-----%0Afontfamily%20monospace%0A%0A%23%20-----%20setup%20components%20-----%0Atitle%20User%20check%20Twitter%20account%0Aactor%20%23blue%3A0.5%20User%0A%0Aparticipant%20%23orange%20Frontend%0Aparticipantgroup%20%23e4fcd9%20Backend%20API%0Aboundary%20%23green%3A0.7%20Endpoint%0Acontrol%20%23red%3A0.7%20Scraper%0Aend%0A%0Adatabase%20Database%20%23pink%0Aentity%20%23lightblue%3A2%20ML%20Service%0Aentity%20%23gray%20TwitterAPI%0A%0A%23%20-----%20to%20show%20bottom%20icons%20-----%0Abottomparticipants%0A%0A%23autoactivation%20on%0A%23%20-----%20START%20OF%20SEQUENCE%20-----%0AUser-%3EFrontend%3A%20Input%20Twitter%5Cnaccount%20URL%0Aactivate%20Frontend%0AFrontend-%3EEndpoint%3A%20Request%20check%20result%0Aactivate%20Endpoint%0AEndpoint-%3EDatabase%3A%20Get%20check%20result%0Aactivate%20Database%0A%0Aopt%20account%20not%20in%20database%0AEndpoint-%3EScraper%3A%20Fetch%20account%5Cninformation%0Aactivate%20Scraper%0AScraper-%3ETwitterAPI%3A%20Fetch%20account%5Cninformation%0AEndpoint%3C--Scraper%3A%20Account%20information%0Adeactivate%20Scraper%0AEndpoint-%3EML%20Service%3A%20Run%20model%20on%20account%0Aactivate%20ML%20Service%0AML%20Service--%3EEndpoint%3A%20Return%20check%20result%0Adeactivate%20ML%20Service%0AEndpoint-%3EDatabase%3A%20Save%20result%0Adeactivate%20Database%0Aend%20%0A%0AEndpoint--%3EFrontend%3A%20Return%20result%0Adeactivate%20Endpoint%0AFrontend--%3EUser%3A%20Show%20result%0Adeactivate%20Frontend%0A%23%20-----%20END%20OF%20SEQUENCE%20-----</desc><defs/><g><g/><g/><g/><g/><g/><g/><g/><g/><g/><g/><g/><g/><g/><g/><g/><g><rect fill="white" stroke="none" x="0" y="0" width="1096" height="925"/></g><g><text fill="black" stroke="none" font-family="monospace" font-size="16.5pt" font-style="normal" font-weight="normal" text-decoration="normal" x="376.40120584227225" y="22.617973800000005" text-anchor="start" dominant-baseline="alphabetic" xml:space="preserve">User check Twitter account</text></g><g><g><path fill="#e4fcd9" stroke="black" paint-order="fill stroke markers" d=" M 421.0123834045152 48.50927103050001 L 730.4433290860908 48.50927103050001 L 730.4433290860908 917.0583132620004 L 421.0123834045152 917.0583132620004 L 421.0123834045152 48.50927103050001" stroke-miterlimit="10" stroke-width="1.3612669416666667" stroke-dasharray=""/></g><g><text fill="black" stroke="none" font-family="monospace" font-size="11pt" font-style="normal" font-weight="normal" text-decoration="normal" x="527.3278547194241" y="70.24765696050001" text-anchor="start" dominant-baseline="alphabetic" xml:space="preserve">Backend API</text></g></g><g><path fill="none" stroke="black" paint-order="fill stroke markers" d=" M 25.76760203146973 162.497576212 L 25.76760203146973 826.8377288820004" stroke-miterlimit="10" stroke-width="1.3612669416666667" stroke-dasharray="12.565541,5.445067766666667"/><path fill="none" stroke="black" paint-order="fill stroke markers" d=" M 191.89574734068194 162.497576212 L 191.89574734068194 826.8377288820004" stroke-miterlimit="10" stroke-width="1.3612669416666667" stroke-dasharray="12.565541,5.445067766666667"/><path fill="none" stroke="black" paint-order="fill stroke markers" d=" M 464.37998581745467 162.497576212 L 464.37998581745467 826.8377288820004" stroke-miterlimit="10" stroke-width="1.3612669416666667" stroke-dasharray="12.565541,5.445067766666667"/><path fill="none" stroke="black" paint-order="fill stroke markers" d=" M 691.4757281990302 162.497576212 L 691.4757281990302 826.8377288820004" stroke-miterlimit="10" stroke-width="1.3612669416666667" stroke-dasharray="12.565541,5.445067766666667"/><path fill="none" stroke="black" paint-order="fill stroke markers" d=" M 822.6236016786363 162.497576212 L 822.6236016786363 826.8377288820004" stroke-miterlimit="10" stroke-width="1.3612669416666667" stroke-dasharray="12.565541,5.445067766666667"/><path fill="none" stroke="black" paint-order="fill stroke markers" d=" M 918.1588057415757 162.497576212 L 918.1588057415757 826.8377288820004" stroke-miterlimit="10" stroke-width="1.3612669416666667" stroke-dasharray="12.565541,5.445067766666667"/><path fill="none" stroke="black" paint-order="fill stroke markers" d=" M 1022.4940090415757 162.497576212 L 1022.4940090415757 826.8377288820004" stroke-miterlimit="10" stroke-width="1.3612669416666667" stroke-dasharray="12.565541,5.445067766666667"/></g><g><g><path fill="white" stroke="blue" paint-order="fill stroke markers" d=" M 35.078667912469726 94.65622035300002 A 9.311065881 9.311065881 0 1 1 35.078663256937176 94.64690928867086 M 25.76760203146973 103.96728623400001 L 25.76760203146973 123.89623426000001 M 14.00625565546973 111.15477568600002 L 37.52894840746973 111.15477568600002 M 25.76760203146973 123.89623426000001 L 14.00625565546973 142.518366022 M 25.76760203146973 123.89623426000001 L 37.52894840746973 142.518366022" stroke-miterlimit="10" stroke-width="1.3884922805000002" stroke-dasharray=""/></g><g><g/><text fill="black" stroke="none" font-family="monospace" font-size="11pt" font-style="normal" font-weight="normal" text-decoration="normal" x="8.167601650000002" y="157.597015222" text-anchor="start" dominant-baseline="alphabetic" xml:space="preserve">User</text></g><path fill="none" stroke="none"/><g><path fill="white" stroke="orange" paint-order="fill stroke markers" d=" M 138.9720509972425 119.64908140200002 L 244.8194436841214 119.64908140200002 L 244.8194436841214 162.497576212 L 138.9720509972425 162.497576212 L 138.9720509972425 119.64908140200002 Z" stroke-miterlimit="10" stroke-width="2.613632528" stroke-dasharray=""/></g><g><g/><text fill="black" stroke="none" font-family="monospace" font-size="11pt" font-style="normal" font-weight="normal" text-decoration="normal" x="156.69574657774248" y="146.16237291200002" text-anchor="start" dominant-baseline="alphabetic" xml:space="preserve">Frontend</text></g><g><path fill="white" stroke="green" paint-order="fill stroke markers" d=" M 496.80536436795467 116.872096841 A 24.2577769005 24.2577769005 0 1 1 496.80535223906725 116.84783906814245 M 432.92655186330467 91.64237534415 L 432.92655186330467 142.10181833785 M 431.95460726695467 116.872096841 L 448.28981056695466 116.872096841" stroke-miterlimit="10" stroke-width="1.9438891927000002" stroke-dasharray=""/></g><g><g/><text fill="black" stroke="none" font-family="monospace" font-size="11pt" font-style="normal" font-weight="normal" text-decoration="normal" x="429.1799850545152" y="157.597015222" text-anchor="start" dominant-baseline="alphabetic" xml:space="preserve">Endpoint</text></g><g><path fill="white" stroke="red" paint-order="fill stroke markers" d=" M 715.7335050995301 116.872096841 A 24.2577769005 24.2577769005 0 1 1 715.7334929706427 116.84783906814245 M 688.2086875390302 92.6143199405 L 698.0098095190301 84.4467182905 M 688.2086875390302 92.6143199405 L 698.0098095190301 100.78192159049999" stroke-miterlimit="10" stroke-width="1.9438891927000002" stroke-dasharray=""/></g><g><g/><text fill="black" stroke="none" font-family="monospace" font-size="11pt" font-style="normal" font-weight="normal" text-decoration="normal" x="660.6757289619696" y="157.597015222" text-anchor="start" dominant-baseline="alphabetic" xml:space="preserve">Scraper</text></g><g><path fill="pink" stroke="black" paint-order="fill stroke markers" d=" M 798.7742048606364 131.737131844 L 798.7742048606364 97.43320491400002 L 846.4729984966363 97.43320491400002 L 846.4729984966363 131.737131844" stroke-miterlimit="10" stroke-width="2.7769845610000004" stroke-dasharray=""/><path fill="pink" stroke="black" paint-order="fill stroke markers" d=" M 846.4729984966363 96.24073507310001 L 846.4718060367326 96.34854561801663 L 846.4682287762665 96.4563453819686 L 846.4622670729613 96.56412358506937 L 846.4539215229819 96.67186944958841 L 846.4431929608767 96.7795722010291 L 846.4300824594928 96.88722106920602 L 846.4145913298696 96.99480528932206 L 846.396721121107 97.10231410304486 L 846.376473620211 97.20973675958267 L 846.3538508519148 97.31706251675931 L 846.3288550784764 97.42428064208853 L 846.3014887994524 97.53138041384713 L 846.2717547514478 97.6383511221472 L 846.2396559078427 97.74518207000703 L 846.2051954784946 97.85186257442088 L 846.1683769094178 97.95838196742719 L 846.1292038824384 98.06472959717544 L 846.0876803148267 98.17089482899127 L 846.0438103589047 98.27686704643997 L 845.9975984016313 98.38263565238812 L 845.949049064164 98.48819007006324 L 845.898167201396 98.59351974411153 L 845.844957901471 98.69861414165338 L 845.7894264852748 98.8034627533366 L 845.7315785059028 98.9080550943874 L 845.6714197481047 99.01238070565881 L 845.608956227706 99.11642915467668 L 845.5441941910068 99.2201900366828 L 845.4771401141568 99.32365297567542 L 845.4078007025079 99.42680762544687 L 845.3361828899432 99.52964367061814 L 845.2622938381845 99.63215082767042 L 845.1861409360755 99.73431884597339 L 845.1077317988427 99.8361375088104 L 845.0270742673346 99.9375966344 L 844.9441764072371 100.03868607691416 L 844.8590465082673 100.1393957274929 L 844.7716930833438 100.23971551525507 L 844.6821248677367 100.3396354083055 L 844.5903508181926 100.43914541473814 L 844.4963801120402 100.53823558363528 L 844.4002221462716 100.63689600606261 L 844.3018865366035 100.73511681606011 L 844.2013831165148 100.83288819162861 L 844.0987219362636 100.93020035571203 L 843.9939132618825 101.02704357717508 L 843.8869675741516 101.12340817177629 L 843.7778955675507 101.2192845031365 L 843.6667081491894 101.3146629837025 L 843.5534164377168 101.40953407570571 L 843.4380317622099 101.50388829211596 L 843.3205656610398 101.59771619759026 L 843.2010298807189 101.69100840941624 L 843.0794363747257 101.78375559845048 L 842.9557973023093 101.87594849005134 L 842.8301250272739 101.96757786500652 L 842.7024321167424 102.05863456045485 L 842.5727313398994 102.14910947080267 L 842.4410356667145 102.23899354863435 L 842.3073582666452 102.32827780561702 L 842.1717125073203 102.41695331339938 L 842.0341119532025 102.50501120450453 L 841.8945703642325 102.59244267321675 L 841.7531016944532 102.67923897646203 L 841.6097200906135 102.76539143468239 L 841.4644398907543 102.85089143270376 L 841.3172756227744 102.93573042059764 L 841.1682420029783 103.0198999145359 L 841.0173539346034 103.10339149763931 L 840.8646265063311 103.18619682081912 L 840.7100749907768 103.26830760361203 L 840.5537148429634 103.34971563500818 L 840.395561698775 103.43041277427227 L 840.2356313733948 103.51039095175761 L 840.0739398597216 103.58964216971313 L 839.9105033267723 103.66815850308305 L 839.7453381180637 103.74593210029946 L 839.5784607499794 103.82295518406747 L 839.4098879101169 103.89922005214288 L 839.2396364556198 103.97471907810242 L 839.0677234114917 104.04944471210644 L 838.8941659688936 104.12338948165379 L 838.7189814834253 104.19654599232915 L 838.5421874733893 104.26890692854239 L 838.3638016180392 104.34046505426022 L 838.183841755812 104.4112132137297 L 838.0023258825439 104.4811443321938 L 837.819272149671 104.55025141659898 L 837.634698862414 104.6185275562944 L 837.4486244779478 104.68596592372296 L 837.2610676035558 104.75255977510412 L 837.0720469947692 104.81830245110825 L 836.8815815534913 104.88318737752253 L 836.6896903261074 104.94720806590838 L 836.4963925015807 105.01035811425034 L 836.3017074095321 105.07263120759616 L 836.1056545183089 105.13402111868842 L 835.9082534330367 105.19452170858717 L 835.7095238936597 105.25412692728385 L 835.509485772966 105.31283081430622 L 835.308159074601 105.37062749931455 L 835.105563931067 105.42751120268846 L 834.9017206017091 105.48347623610503 L 834.6966494706909 105.53851700310757 L 834.4903710449541 105.59262799966524 L 834.2829059521698 105.64580381472345 L 834.0742749386741 105.69803913074504 L 833.8644988673947 105.74932872424193 L 833.6535987157637 105.7996674662975 L 833.4415955736206 105.84905032307951 L 833.228510641103 105.89747235634343 L 833.0143652265266 105.94492872392627 L 832.7991807442543 105.99141468023082 L 832.582978712555 106.03692557670021 L 832.3657807514519 106.08145686228269 L 832.1476085805599 106.12500408388684 L 831.9284840169144 106.16756288682677 L 831.708428972789 106.20912901525766 L 831.4874654535049 106.2496983126013 L 831.2656155552299 106.28926672196175 L 831.0429014627689 106.32783028653108 L 830.8193454473454 106.36538514998495 L 830.594969864375 106.4019275568683 L 830.3697971512287 106.43745385297092 L 830.1438498249903 106.47196048569278 L 829.9171504802041 106.50544400439938 L 829.6897217866157 106.53790106076674 L 829.4615864869048 106.56932840911628 L 829.2327673944116 106.59972290673934 L 829.0032873908542 106.62908151421152 L 828.7731694240422 106.6574012956965 L 828.5424365055801 106.68467941923974 L 828.3111117085678 106.71091315705164 L 828.0792181652919 106.73609988578026 L 827.8467790649138 106.76023708677371 L 827.6138176511497 106.78332234633203 L 827.3803572199467 106.80535335594848 L 827.1464211171537 106.82632791254046 L 826.9120327361858 106.8462439186698 L 826.6772155156858 106.86509938275248 L 826.4419929371802 106.88289241925779 L 826.2063885227305 106.89962124889692 L 825.9704258325822 106.91528419880086 L 825.7341284628076 106.92987970268764 L 825.4975200429466 106.94340630101907 L 825.260624233644 106.95586264114657 L 825.0234647242835 106.96724747744649 L 824.7860652306183 106.97755967144472 L 824.5484494923999 106.98679819193043 L 824.3106412710042 106.9949621150593 L 824.0726643470551 107.00205062444579 L 823.8345425180468 107.00806301124487 L 823.5962995959636 107.01299867422289 L 823.3579594048992 107.01685711981764 L 823.1195457786743 107.0196379621878 L 822.8810825584525 107.02134092325144 L 822.6425935903574 107.02196583271387 L 822.4041027230868 107.02151262808466 L 822.165633805529 107.01998135468392 L 821.9272106843767 107.0173721656377 L 821.6888572017438 107.01368532186271 L 821.4505971927794 107.00892119204028 L 821.2124544832861 107.00308025257941 L 820.9744528873365 106.99616308756919 L 820.7366162048917 106.98817038872035 L 820.4989682194217 106.9791029552961 L 820.2615326955272 106.96896169403226 L 820.0243333765625 106.95774761904647 L 819.7873939822621 106.94546185173691 L 819.5507382063678 106.93210562067006 L 819.31438971426 106.91768026145789 L 819.0783721405909 106.90218721662433 L 818.8427090869213 106.88562803546091 L 818.6074241193602 106.86800437387197 L 818.3725407662082 106.84931799420899 L 818.1380825156049 106.82957076509436 L 817.90407281318 106.80876466123452 L 817.6705350597086 106.78690176322253 L 817.4374926087718 106.76398425732997 L 817.2049687644201 106.74001443528833 L 816.9729867788442 106.71499469405985 L 816.7415698500496 106.6889275355978 L 816.5107411195361 106.66181556659627 L 816.2805236699845 106.63366149822963 L 816.0509405229479 106.6044681458812 L 815.8220146365496 106.57423842886192 L 815.5937689031877 106.54297537011827 L 815.366226147245 106.5106820959301 L 815.1394091228077 106.4773618355979 L 814.9133405113893 106.44301792111996 L 814.6880429196623 106.40765378685909 L 814.4635388771982 106.37127296919923 L 814.2398508342143 106.33387910619186 L 814.0170011593284 106.29547593719211 L 813.7950121373223 106.25606730248487 L 813.5739059669132 106.21565714290077 L 813.3537047585338 106.17424949942209 L 813.1344305321217 106.13184851277869 L 812.9161052149165 106.08845842303388 L 812.698750639268 106.0440835691605 L 812.482388540453 105.99872838860693 L 812.2670405545007 105.95239741685346 L 812.0527282160305 105.90509528695863 L 811.8394729560973 105.85682672909601 L 811.6272961000499 105.80759657008119 L 811.4162188653966 105.75740973288903 L 811.2062623596852 105.70627123616141 L 810.9974475783913 105.65418619370543 L 810.789795402819 105.6011598139819 L 810.5833265980128 105.54719739958459 L 810.3780618106812 105.49230434671 L 810.1740215671317 105.43648614461767 L 809.9712262712187 105.37974837508128 L 809.769696202303 105.32209671183051 L 809.5694515132233 105.26353691998366 L 809.3705122282817 105.20407485547109 L 809.1728982412409 105.14371646444971 L 808.976629313335 105.0824677827083 L 808.7817250712932 105.02033493506404 L 808.5882050053773 104.95732413474988 L 808.3960884674325 104.89344168279337 L 808.2053946689527 104.82869396738644 L 808.0161426791587 104.76308746324669 L 807.8283514230918 104.69662873096988 L 807.6420396797212 104.62932441637382 L 807.4572260800658 104.56118124983391 L 807.2739291053317 104.49220604561 L 807.0921670850635 104.42240570116505 L 806.911958195312 104.35178719647531 L 806.7333204568157 104.28035759333244 L 806.5562717331998 104.20812403463721 L 806.3808297291889 104.13509374368529 L 806.2070119888375 104.06127402344492 L 806.0348358937746 103.98667225582662 L 805.8643186614662 103.91129590094496 L 805.6954773434936 103.83515249637263 L 805.5283288238477 103.75824965638664 L 805.3628898172414 103.6805950712069 L 805.1991768674371 103.6021965062272 L 805.0372063455939 103.52306180123873 L 804.8769944486286 103.44319886964601 L 804.7185571975974 103.3626156976757 L 804.5619104360936 103.28132034357779 L 804.4070698286628 103.19932093681997 L 804.2540508592365 103.11662567727458 L 804.1028688295842 103.03324283439866 L 803.9535388577829 102.94918074640702 L 803.8060758767053 102.86444781943841 L 803.6604946325268 102.7790525267149 L 803.5168096832504 102.6930034076946 L 803.3750353972512 102.60630906721774 L 803.2351859518398 102.51897817464607 L 803.097275331844 102.4310194629961 L 802.961317328211 102.34244172806571 L 802.8273255366279 102.25325382755454 L 802.6953133561622 102.16346468017835 L 802.5652939879218 102.07308326477704 L 802.4372804337353 101.98211861941685 L 802.3112854948514 101.89057984048648 L 802.1873217706591 101.79847608178757 L 802.0654016574274 101.70581655361923 L 801.945537347066 101.61261052185705 L 801.8277408259061 101.51886730702655 L 801.7120238735016 101.42459628337107 L 801.5983980614513 101.32980687791445 L 801.486874752242 101.23450856951823 L 801.3774650981113 101.13871088793383 L 801.2701800399336 101.04242341284956 L 801.1650303061253 100.94565577293272 L 801.0620264115723 100.84841764486666 L 800.961178656578 100.75071875238314 L 800.8624971258339 100.65256886529 L 800.765991687411 100.55397779849415 L 800.6716719917725 100.45495541102012 L 800.5795474708095 100.35551160502415 L 800.4896273368973 100.25565632480394 L 800.4019205819744 100.15539955580432 L 800.3164359766431 100.05475132361865 L 800.2331820692929 99.95372169298625 L 800.1521671852448 99.85232076678601 L 800.07339942592 99.75055868502605 L 799.9968866680288 99.64844562382973 L 799.9226365627829 99.5459917944181 L 799.8506565351314 99.4432074420887 L 799.7809537830167 99.34010284519113 L 799.7135352766562 99.23668831409914 L 799.6484077578442 99.13297419017968 L 799.5855777392783 99.02897084475869 L 799.5250515039081 98.92468867808407 L 799.4668351043066 98.82013811828556 L 799.4109343620654 98.71532962033203 L 799.3573548672119 98.61027366498594 L 799.3061019776511 98.50498075775526 L 799.2571808186293 98.39946142784298 L 799.2105962822214 98.29372622709415 L 799.1663530268426 98.18778572894077 L 799.1244554767811 98.08165052734432 L 799.0849078217574 97.97533123573653 L 799.0477140165037 97.868838485958 L 799.0128777803699 97.7621829271949 L 798.9804025969502 97.65537522491428 L 798.9502917137362 97.54842605979732 L 798.9225481417909 97.44134612667145 L 798.8971746554486 97.33414613344073 L 798.8741737920366 97.22683680001514 L 798.8535478516221 97.1194288572386 L 798.835298896782 97.0119330458159 L 798.8194287523966 96.90436011523857 L 798.805939005467 96.79672082271007 L 798.7948310049568 96.68902593206992 L 798.7861058616568 96.58128621271746 L 798.7797644480738 96.47351243853481 L 798.7758073983442 96.36571538680961 L 798.7742351081695 96.25790583715718 L 798.7750477347774 96.15009457044266 L 798.778245196906 96.04229236770287 L 798.7838271748117 95.93451000906825 L 798.7917931103013 95.82675827268484 L 798.8021422067881 95.7190479336365 L 798.8148734293709 95.61138976286738 L 798.829985504938 95.50379452610481 L 798.8474769222946 95.39627298278283 L 798.8673459323134 95.28883588496618 L 798.88959054811 95.18149397627508 L 798.9142085452415 95.07425799081098 L 798.9411974619285 94.96713865208302 L 798.9705545993019 94.86014667193587 L 799.0022770216724 94.75329274947832 L 799.0363615568243 94.64658757001362 L 799.0728047963323 94.54004180397077 L 799.1116030959031 94.43366610583759 L 799.1527525757388 94.32747111309526 L 799.1962491209258 94.22146744515454 L 799.2420883818459 94.1156657022939 L 799.290265774611 94.01007646459945 L 799.3407764815223 93.90471029090699 L 799.3936154515509 93.79957771774606 L 799.448777400844 93.69468925828637 L 799.5062568132527 93.59005540128646 L 799.5660479408834 93.48568661004485 L 799.6281448046733 93.38159332135368 L 799.6925411949878 93.27778594445506 L 799.7592306722416 93.1742748600002 L 799.8282065675425 93.07107041901128 L 799.8994619833583 92.96818294184638 L 799.9729897942069 92.86562271716748 L 800.0487826473685 92.7634000009116 L 800.1268329636209 92.66152501526518 L 800.2071329379977 92.56000794764186 L 800.2896745405681 92.45885894966383 L 800.3744495172408 92.35808813614659 L 800.4614493905888 92.25770558408753 L 800.5506654606971 92.15772133165818 L 800.6420888060333 92.05814537720047 L 800.7357102843388 91.95898767822688 L 800.8315205335438 91.86025815042466 L 800.9295099727034 91.76196666666432 L 801.0296688029553 91.66412305601233 L 801.1319870084998 91.56673710274822 L 801.2364543576016 91.46981854538616 L 801.3430604036131 91.37337707570111 L 801.4517944860183 91.2774223377597 L 801.5626457314996 91.18196392695573 L 801.675603055025 91.08701138905076 L 801.7906551609561 90.99257421921942 L 801.9077905441783 90.89866186110004 L 802.0269974912507 90.80528370585013 L 802.1482640815781 90.71244909120742 L 802.2715781886025 90.620167300556 L 802.396927481016 90.52844756199806 L 802.5242994239936 90.437299047431 L 802.6536812804475 90.34673087163033 L 802.7850601122996 90.25675209133814 L 802.9184227817761 90.1673717043575 L 803.0537559527215 90.07859864865262 L 803.1910460919314 89.99044180145509 L 803.3302794705062 89.90290997837616 L 803.4714421652241 89.81601193252519 L 803.6145200599332 89.72975635363437 L 803.7594988469633 89.64415186718969 L 803.9063640285566 89.55920703356847 L 804.0551009183173 89.47493034718329 L 804.2056946426802 89.39133023563254 L 804.3581301423986 89.30841505885772 L 804.5123921740494 89.22619310830741 L 804.6684653115581 89.14467260610814 L 804.8263339477409 89.06386170424221 L 804.9859822958658 88.98376848373246 L 805.1473943912309 88.9044009538342 L 805.3105540927614 88.82576705123427 L 805.475445084623 88.7478746392574 L 805.6420508778539 88.67073150707989 L 805.8103548120137 88.59434536895068 L 805.980340056849 88.5187238634199 L 806.1519896139772 88.4438745525751 L 806.3252863185857 88.369804921285 L 806.5002128411481 88.29652237645098 L 806.6767516891583 88.22403424626648 L 806.8548852088784 88.1523477794841 L 807.034595587105 88.08147014469078 L 807.2158648529498 88.01140842959094 L 807.3986748796375 87.94216964029769 L 807.5830073863177 87.87376070063229 L 807.7688439398935 87.80618845143167 L 807.9561659568641 87.73945964986444 L 808.144954705184 87.67358096875519 L 808.3351913061358 87.60855899591708 L 808.526856736218 87.54440023349323 L 808.719931829047 87.48111109730644 L 808.9143972772747 87.41869791621755 L 809.1102336345183 87.35716693149269 L 809.307421317305 87.29652429617903 L 809.5059406070313 87.23677607448957 L 809.7057716519333 87.17792824119671 L 809.9068944690731 87.11998668103473 L 810.1092889463367 87.06295718811135 L 810.3129348444451 87.00684546532835 L 810.5178117989778 86.95165712381124 L 810.7238993224105 86.89739768234818 L 810.9311768061624 86.84407256683812 L 811.1396235226579 86.79168710974815 L 811.3492186273991 86.74024654958035 L 811.55994116105 86.68975603034785 L 811.771770051533 86.64022060106049 L 811.9846841161357 86.59164521521994 L 812.1986620636288 86.5440347303243 L 812.4136824963961 86.49739390738237 L 812.6297239125732 86.4517274104376 L 812.8467647081987 86.40703980610161 L 813.0647831793741 86.3633355630976 L 813.2837575244337 86.32061905181345 L 813.5036658461254 86.27889454386471 L 813.7244861538006 86.23816621166738 L 813.9461963656123 86.19843812802074 L 814.1687743107242 86.15971426570005 L 814.3921977315272 86.12199849705928 L 814.6164442858653 86.08529459364387 L 814.8414915492702 86.04960622581356 L 815.067317017203 86.0149369623754 L 815.293898107305 85.98129027022685 L 815.5212121616562 85.94866951400907 L 815.7492364490403 85.91707795577051 L 815.9779481672188 85.88651875464066 L 816.2073244452104 85.85699496651418 L 816.4373423455785 85.82850954374526 L 816.6679788667246 85.80106533485245 L 816.899210945189 85.77466508423377 L 817.1310154579563 85.7493114318923 L 817.3633692247687 85.7250069131721 L 817.5962490104429 85.70175395850482 L 817.8296315271945 85.67955489316655 L 818.0634934369663 85.65841193704532 L 818.2978113537621 85.63832720441913 L 818.5325618459856 85.61930270374448 L 818.7677214387832 85.60134033745561 L 819.0032666163916 85.58444190177417 L 819.2391738244892 85.56860908652965 L 819.475419472552 85.55384347499039 L 819.7119799362117 85.5401465437052 L 819.9488315596195 85.52751966235584 L 820.1859506578102 85.51596409361991 L 820.4233135190716 85.50548099304464 L 820.6608964073154 85.49607140893136 L 820.8986755644506 85.48773628223064 L 821.13662721276 85.48047644644821 L 821.3747275572767 85.4742926275616 L 821.6129527881649 85.46918544394751 L 821.8512790830999 85.4651554063201 L 822.0896826096509 85.46220291767973 L 822.3281395276638 85.46032827327284 L 822.5666259916457 85.45953166056228 L 822.8051181531487 85.45981315920866 L 823.0435921631555 85.46117274106237 L 823.2820241744639 85.46361027016634 L 823.5203903440714 85.4671255027697 L 823.7586668355597 85.47171808735212 L 823.9968298214782 85.47738756465895 L 824.2348554857267 85.4841333677472 L 824.4727200259372 85.49195482204219 L 824.7103996558538 85.500851145405 L 824.9478706077119 85.51082144821069 L 825.1851091346139 85.52186473343731 L 825.4220915129048 85.53397989676554 L 825.6587940445444 85.54716572668913 L 825.8951930594767 85.5614209046361 L 826.1312649179973 85.5767440051005 L 826.366986013117 85.59313349578507 L 826.6023327729226 85.6105877377544 L 826.8372816629345 85.62910498559884 L 827.0718091884593 85.64868338760904 L 827.30589189694 85.66932098596111 L 827.5395063803007 85.6910157169124 L 827.7726292772878 85.71376541100791 L 828.0052372758059 85.73756779329719 L 828.237307115249 85.76242048356184 L 828.4688155888265 85.78832099655354 L 828.699739545884 85.81526674224258 L 828.9300558942182 85.84325502607685 L 829.1597416023861 85.87228304925127 L 829.3887737020085 85.90234790898774 L 829.6171292900661 85.93344659882531 L 829.8447855311906 85.96557600892095 L 830.0717196599473 85.99873292636039 L 830.2979089831127 86.03291403547954 L 830.523330881943 86.06811591819596 L 830.7479628144359 86.10433505435071 L 830.9717823175856 86.14156782206037 L 831.1947670096282 86.17981049807918 L 831.4168945922802 86.21905925817143 L 831.6381428529687 86.25931017749379 L 831.8584896670518 86.30055923098789 L 832.0779130000317 86.34280229378275 L 832.2963909097581 86.3860351416073 L 832.513901548622 86.43025345121276 L 832.7304231657408 86.47545280080504 L 832.9459341091332 86.52162867048685 L 833.1604128278844 86.56877644270969 L 833.3738378743014 86.61689140273562 L 833.5861879060574 86.66596873910875 L 833.7974416883261 86.71600354413634 L 834.0075780959053 86.76699081437957 L 834.2165761153293 86.81892545115392 L 834.4244148469705 86.87180226103897 L 834.6310735071288 86.9256159563978 L 834.8365314301105 86.98036115590575 L 835.0407680702945 87.03603238508846 L 835.2437630041868 87.0926240768694 L 835.4454959324634 87.15013057212657 L 835.6459466819995 87.20854612025836 L 835.8450952078871 87.26786487975863 L 836.0429215954397 87.32808091880088 L 836.2394060621833 87.38918821583137 L 836.4345289598351 87.45118066017132 L 836.6282707762679 87.51405205262795 L 836.8206121374612 87.57779610611442 L 837.0115338094397 87.6424064462785 L 837.2010167001948 87.70787661214001 L 837.3890418615957 87.77420005673692 L 837.5755904912828 87.84137014778005 L 837.7606439345485 87.90938016831626 L 837.9441836862028 87.97822331740018 L 838.1261913924235 88.04789271077426 L 838.3066488525916 88.11838138155724 L 838.4855380211114 88.18968228094076 L 838.6628410092152 88.2617882788943 L 838.838540086752 88.33469216487818 L 839.0126176839603 88.40838664856452 L 839.1850563932256 88.48286436056638 L 839.3558389708206 88.55811785317462 L 839.5249483386299 88.6341396011027 L 839.6923675858575 88.71092200223917 L 839.8580799707183 88.7884573784079 L 840.022068922112 88.8667379761359 L 840.18431804128 88.9457559674286 L 840.3448111034456 89.02550345055275 L 840.5035320594365 89.10597245082647 L 840.660465037289 89.1871549214168 L 840.8155943438363 89.26904274414436 L 840.9689044662772 89.35162773029508 L 841.1203800737269 89.43490162143917 L 841.270006018751 89.51885609025692 L 841.4177673388798 89.60348274137141 L 841.5636492581043 89.68877311218804 L 841.7076371883542 89.77471867374081 L 841.8497167309564 89.8613108315452 L 841.9898736780751 89.94854092645757 L 842.1280940141323 90.03640023554112 L 842.2643639172097 90.12487997293817 L 842.3986697604305 90.2139712907487 L 842.5309981133223 90.3036652799152 L 842.66133574316 90.39395297111345 L 842.7896696162893 90.48482533564962 L 842.91598689943 90.57627328636293 L 843.0402749609586 90.66828767853457 L 843.162521372173 90.76085931080198 L 843.2827139085338 90.85397892607905 L 843.4008405508874 90.94763721248188 L 843.5168894866681 91.04182480425987 L 843.630849111079 91.13653228273235 L 843.7427080282527 91.23175017723037 L 843.8524550523905 91.32746896604384 L 843.9600792088817 91.42367907737363 L 844.0655697354001 91.5203708902888 L 844.1689160829811 91.61753473568862 L 844.2701079170761 91.71516089726953 L 844.369135118586 91.81323961249673 L 844.4659877848729 91.91176107358042 L 844.5606562307513 92.01071542845659 L 844.6531309894552 92.11009278177222 L 844.743402813586 92.20988319587481 L 844.8314626760364 92.31007669180607 L 844.9173017708935 92.41066325029993 L 845.0009115143195 92.51163281278436 L 845.0822835454094 92.61297528238724 L 845.1614097270283 92.71468052494606 L 845.2382821466238 92.81673837002134 L 845.3128931170179 92.9191386119136 L 845.3852351771759 93.02187101068398 L 845.4553010929521 93.12492529317824 L 845.5230838578132 93.22829115405399 L 845.5885766935392 93.33195825681128 L 845.651773050901 93.43591623482622 L 845.7126666103158 93.54015469238766 L 845.7712512824781 93.64466320573669 L 845.8275212089698 93.74943132410907 L 845.881470762845 93.85444857078026 L 845.9330945491932 93.95970444411313 L 845.9823874056789 94.06518841860805 L 846.0293444030575 94.17088994595545 L 846.0739608456684 94.27679845609072 L 846.1162322719044 94.38290335825107 L 846.1561544546582 94.48919404203473 L 846.1937234017449 94.59565987846186 L 846.2289353563009 94.70229022103757 L 846.2617867971603 94.80907440681646 L 846.2922744392062 94.91600175746893 L 846.3203952336999 95.02306158034904 L 846.3461463685852 95.13024316956367 L 846.3695252687704 95.23753580704327 L 846.3905295963847 95.34492876361347 L 846.409157251013 95.4524113000681 L 846.4254063699052 95.55997266824312 L 846.4392753281631 95.66760211209133 L 846.4507627389024 95.77528886875801 L 846.4598674533916 95.88302216965727 L 846.4665885611668 95.99079124154878 L 846.4709253901227 96.09858530761515 L 846.4728775065803 96.20639358853963 M 846.4729984966363 130.5446620031 L 846.4718060367326 130.65247254801662 L 846.4682287762665 130.7602723119686 L 846.4622670729613 130.86805051506934 L 846.4539215229819 130.97579637958842 L 846.4431929608767 131.08349913102907 L 846.4300824594928 131.191147999206 L 846.4145913298696 131.29873221932203 L 846.396721121107 131.40624103304486 L 846.376473620211 131.51366368958264 L 846.3538508519148 131.6209894467593 L 846.3288550784764 131.7282075720885 L 846.3014887994524 131.83530734384712 L 846.2717547514478 131.94227805214717 L 846.2396559078427 132.049109000007 L 846.2051954784946 132.15578950442085 L 846.1683769094178 132.26230889742718 L 846.1292038824384 132.36865652717543 L 846.0876803148267 132.47482175899125 L 846.0438103589047 132.58079397643996 L 845.9975984016313 132.6865625823881 L 845.949049064164 132.79211700006323 L 845.898167201396 132.89744667411154 L 845.844957901471 133.00254107165338 L 845.7894264852748 133.10738968333658 L 845.7315785059028 133.2119820243874 L 845.6714197481047 133.3163076356588 L 845.608956227706 133.42035608467668 L 845.5441941910068 133.52411696668278 L 845.4771401141568 133.62757990567542 L 845.4078007025079 133.73073455544687 L 845.3361828899432 133.83357060061815 L 845.2622938381845 133.9360777576704 L 845.1861409360755 134.0382457759734 L 845.1077317988427 134.14006443881038 L 845.0270742673346 134.24152356439998 L 844.9441764072371 134.34261300691415 L 844.8590465082673 134.44332265749287 L 844.7716930833438 134.54364244525505 L 844.6821248677367 134.6435623383055 L 844.5903508181926 134.74307234473812 L 844.4963801120402 134.8421625136353 L 844.4002221462716 134.9408229360626 L 844.3018865366035 135.0390437460601 L 844.2013831165148 135.1368151216286 L 844.0987219362636 135.23412728571202 L 843.9939132618825 135.33097050717507 L 843.8869675741516 135.42733510177626 L 843.7778955675507 135.5232114331365 L 843.6667081491894 135.6185899137025 L 843.5534164377168 135.71346100570568 L 843.4380317622099 135.80781522211595 L 843.3205656610398 135.90164312759026 L 843.2010298807189 135.99493533941623 L 843.0794363747257 136.08768252845047 L 842.9557973023093 136.17987542005133 L 842.8301250272739 136.2715047950065 L 842.7024321167424 136.36256149045482 L 842.5727313398994 136.45303640080266 L 842.4410356667145 136.54292047863436 L 842.3073582666452 136.63220473561702 L 842.1717125073203 136.72088024339936 L 842.0341119532025 136.8089381345045 L 841.8945703642325 136.89636960321673 L 841.7531016944532 136.98316590646203 L 841.6097200906135 137.06931836468237 L 841.4644398907543 137.15481836270376 L 841.3172756227744 137.23965735059764 L 841.1682420029783 137.3238268445359 L 841.0173539346034 137.4073184276393 L 840.8646265063311 137.49012375081912 L 840.7100749907768 137.57223453361203 L 840.5537148429634 137.65364256500817 L 840.395561698775 137.73433970427226 L 840.2356313733948 137.8143178817576 L 840.0739398597216 137.89356909971312 L 839.9105033267723 137.97208543308304 L 839.7453381180637 138.04985903029944 L 839.5784607499794 138.12688211406746 L 839.4098879101169 138.20314698214287 L 839.2396364556198 138.2786460081024 L 839.0677234114917 138.35337164210642 L 838.8941659688936 138.42731641165378 L 838.7189814834253 138.50047292232912 L 838.5421874733893 138.5728338585424 L 838.3638016180392 138.6443919842602 L 838.183841755812 138.71514014372968 L 838.0023258825439 138.78507126219378 L 837.819272149671 138.85417834659899 L 837.634698862414 138.92245448629438 L 837.4486244779478 138.98989285372295 L 837.2610676035558 139.0564867051041 L 837.0720469947692 139.12222938110824 L 836.8815815534913 139.18711430752253 L 836.6896903261074 139.2511349959084 L 836.4963925015807 139.3142850442503 L 836.3017074095321 139.37655813759613 L 836.1056545183089 139.4379480486884 L 835.9082534330367 139.49844863858718 L 835.7095238936597 139.55805385728382 L 835.509485772966 139.61675774430623 L 835.308159074601 139.67455442931453 L 835.105563931067 139.73143813268845 L 834.9017206017091 139.78740316610504 L 834.6966494706909 139.84244393310757 L 834.4903710449541 139.89655492966523 L 834.2829059521698 139.94973074472344 L 834.0742749386741 140.00196606074505 L 833.8644988673947 140.05325565424192 L 833.6535987157637 140.1035943962975 L 833.4415955736206 140.1529772530795 L 833.228510641103 140.20139928634342 L 833.0143652265266 140.24885565392626 L 832.7991807442543 140.29534161023082 L 832.582978712555 140.3408525067002 L 832.3657807514519 140.38538379228268 L 832.1476085805599 140.42893101388682 L 831.9284840169144 140.47148981682676 L 831.708428972789 140.51305594525763 L 831.4874654535049 140.55362524260127 L 831.2656155552299 140.59319365196174 L 831.0429014627689 140.63175721653107 L 830.8193454473454 140.66931207998493 L 830.594969864375 140.7058544868683 L 830.3697971512287 140.7413807829709 L 830.1438498249903 140.77588741569278 L 829.9171504802041 140.80937093439937 L 829.6897217866157 140.84182799076672 L 829.4615864869048 140.87325533911627 L 829.2327673944116 140.90364983673933 L 829.0032873908542 140.9330084442115 L 828.7731694240422 140.9613282256965 L 828.5424365055801 140.98860634923975 L 828.3111117085678 141.01484008705162 L 828.0792181652919 141.04002681578024 L 827.8467790649138 141.0641640167737 L 827.6138176511497 141.08724927633202 L 827.3803572199467 141.10928028594847 L 827.1464211171537 141.13025484254044 L 826.9120327361858 141.15017084866977 L 826.6772155156858 141.16902631275246 L 826.4419929371802 141.18681934925777 L 826.2063885227305 141.2035481788969 L 825.9704258325822 141.21921112880085 L 825.7341284628076 141.23380663268765 L 825.4975200429466 141.24733323101907 L 825.260624233644 141.25978957114654 L 825.0234647242835 141.2711744074465 L 824.7860652306183 141.28148660144473 L 824.5484494923999 141.29072512193042 L 824.3106412710042 141.2988890450593 L 824.0726643470551 141.30597755444578 L 823.8345425180468 141.31198994124486 L 823.5962995959636 141.31692560422286 L 823.3579594048992 141.32078404981763 L 823.1195457786743 141.3235648921878 L 822.8810825584525 141.32526785325143 L 822.6425935903574 141.32589276271386 L 822.4041027230868 141.32543955808467 L 822.165633805529 141.3239082846839 L 821.9272106843767 141.32129909563767 L 821.6888572017438 141.3176122518627 L 821.4505971927794 141.31284812204026 L 821.2124544832861 141.3070071825794 L 820.9744528873365 141.30009001756918 L 820.7366162048917 141.29209731872032 L 820.4989682194217 141.2830298852961 L 820.2615326955272 141.27288862403225 L 820.0243333765625 141.26167454904646 L 819.7873939822621 141.2493887817369 L 819.5507382063678 141.23603255067005 L 819.31438971426 141.22160719145788 L 819.0783721405909 141.20611414662432 L 818.8427090869213 141.1895549654609 L 818.6074241193602 141.17193130387196 L 818.3725407662082 141.153244924209 L 818.1380825156049 141.13349769509435 L 817.90407281318 141.1126915912345 L 817.6705350597086 141.0908286932225 L 817.4374926087718 141.06791118732997 L 817.2049687644201 141.04394136528833 L 816.9729867788442 141.01892162405983 L 816.7415698500496 140.9928544655978 L 816.5107411195361 140.96574249659628 L 816.2805236699845 140.93758842822962 L 816.0509405229479 140.90839507588117 L 815.8220146365496 140.8781653588619 L 815.5937689031877 140.84690230011824 L 815.366226147245 140.81460902593008 L 815.1394091228077 140.7812887655979 L 814.9133405113893 140.74694485111993 L 814.6880429196623 140.71158071685906 L 814.4635388771982 140.6751998991992 L 814.2398508342143 140.63780603619185 L 814.0170011593284 140.59940286719208 L 813.7950121373223 140.55999423248485 L 813.5739059669132 140.51958407290076 L 813.3537047585338 140.4781764294221 L 813.1344305321217 140.4357754427787 L 812.9161052149165 140.3923853530339 L 812.698750639268 140.3480104991605 L 812.482388540453 140.30265531860692 L 812.2670405545007 140.25632434685343 L 812.0527282160305 140.2090222169586 L 811.8394729560973 140.160753659096 L 811.6272961000499 140.11152350008118 L 811.4162188653966 140.061336662889 L 811.2062623596852 140.01019816616142 L 810.9974475783913 139.9581131237054 L 810.789795402819 139.90508674398188 L 810.5833265980128 139.85112432958456 L 810.3780618106812 139.79623127671 L 810.1740215671317 139.74041307461766 L 809.9712262712187 139.68367530508127 L 809.769696202303 139.6260236418305 L 809.5694515132233 139.56746384998365 L 809.3705122282817 139.50800178547107 L 809.1728982412409 139.4476433944497 L 808.976629313335 139.3863947127083 L 808.7817250712932 139.32426186506405 L 808.5882050053773 139.26125106474987 L 808.3960884674325 139.19736861279335 L 808.2053946689527 139.13262089738643 L 808.0161426791587 139.0670143932467 L 807.8283514230918 139.00055566096987 L 807.6420396797212 138.93325134637382 L 807.4572260800658 138.8651081798339 L 807.2739291053317 138.79613297561 L 807.0921670850635 138.72633263116504 L 806.911958195312 138.65571412647532 L 806.7333204568157 138.58428452333243 L 806.5562717331998 138.5120509646372 L 806.3808297291889 138.4390206736853 L 806.2070119888375 138.3652009534449 L 806.0348358937746 138.2905991858266 L 805.8643186614662 138.21522283094495 L 805.6954773434936 138.13907942637263 L 805.5283288238477 138.06217658638664 L 805.3628898172414 137.9845220012069 L 805.1991768674371 137.90612343622718 L 805.0372063455939 137.8269887312387 L 804.8769944486286 137.747125799646 L 804.7185571975974 137.66654262767568 L 804.5619104360936 137.58524727357778 L 804.4070698286628 137.50324786681995 L 804.2540508592365 137.42055260727457 L 804.1028688295842 137.33716976439865 L 803.9535388577829 137.253107676407 L 803.8060758767053 137.16837474943839 L 803.6604946325268 137.0829794567149 L 803.5168096832504 136.9969303376946 L 803.3750353972512 136.9102359972177 L 803.2351859518398 136.82290510464605 L 803.097275331844 136.73494639299608 L 802.961317328211 136.64636865806568 L 802.8273255366279 136.55718075755453 L 802.6953133561622 136.46739161017834 L 802.5652939879218 136.37701019477703 L 802.4372804337353 136.28604554941683 L 802.3112854948514 136.19450677048647 L 802.1873217706591 136.10240301178757 L 802.0654016574274 136.00974348361922 L 801.945537347066 135.91653745185704 L 801.8277408259061 135.82279423702653 L 801.7120238735016 135.72852321337106 L 801.5983980614513 135.63373380791444 L 801.486874752242 135.53843549951822 L 801.3774650981113 135.44263781793381 L 801.2701800399336 135.34635034284955 L 801.1650303061253 135.2495827029327 L 801.0620264115723 135.15234457486665 L 800.961178656578 135.05464568238312 L 800.8624971258339 134.95649579528998 L 800.765991687411 134.85790472849413 L 800.6716719917725 134.75888234102013 L 800.5795474708095 134.65943853502412 L 800.4896273368973 134.55958325480393 L 800.4019205819744 134.4593264858043 L 800.3164359766431 134.35867825361862 L 800.2331820692929 134.25764862298624 L 800.1521671852448 134.156247696786 L 800.07339942592 134.05448561502604 L 799.9968866680288 133.95237255382972 L 799.9226365627829 133.8499187244181 L 799.8506565351314 133.7471343720887 L 799.7809537830167 133.64402977519111 L 799.7135352766562 133.54061524409914 L 799.6484077578442 133.43690112017967 L 799.5855777392783 133.3328977747587 L 799.5250515039081 133.22861560808406 L 799.4668351043066 133.12406504828556 L 799.4109343620654 133.01925655033202 L 799.3573548672119 132.9142005949859 L 799.3061019776511 132.80890768775524 L 799.2571808186293 132.70338835784298 L 799.2105962822214 132.59765315709416 L 799.1663530268426 132.49171265894074 L 799.1244554767811 132.3855774573443 L 799.0849078217574 132.27925816573654 L 799.0477140165037 132.17276541595797 L 799.0128777803699 132.0661098571949 L 798.9804025969502 131.95930215491427 L 798.9502917137362 131.8523529897973 L 798.9225481417909 131.74527305667144 L 798.8971746554486 131.63807306344071 L 798.8741737920366 131.5307637300151 L 798.8535478516221 131.4233557872386 L 798.835298896782 131.31585997581587 L 798.8194287523966 131.20828704523856 L 798.805939005467 131.10064775271007 L 798.7948310049568 130.9929528620699 L 798.7861058616568 130.88521314271745 L 798.7797644480738 130.7774393685348 L 798.7758073983442 130.6696423168096 L 798.7742351081695 130.56183276715717" stroke-miterlimit="10" stroke-width="2.7769845610000004" stroke-dasharray=""/></g><g><g/><text fill="black" stroke="none" font-family="monospace" font-size="11pt" font-style="normal" font-weight="normal" text-decoration="normal" x="787.4236009156969" y="157.597015222" text-anchor="start" dominant-baseline="alphabetic" xml:space="preserve">Database</text></g><g><path fill="white" stroke="lightblue" paint-order="fill stroke markers" d=" M 942.4165826420757 112.4289215434 A 24.2577769005 24.2577769005 0 1 1 942.4165705131883 112.40466377054244 M 891.1240442800759 141.1298737415 L 945.1935672030756 141.1298737415" stroke-miterlimit="10" stroke-width="5.553969122000001" stroke-dasharray=""/></g><g><g/><text fill="black" stroke="none" font-family="monospace" font-size="11pt" font-style="normal" font-weight="normal" text-decoration="normal" x="874.1588057415757" y="157.597015222" text-anchor="start" dominant-baseline="alphabetic" xml:space="preserve">ML Service</text></g><g><path fill="white" stroke="gray" paint-order="fill stroke markers" d=" M 1046.7517859420757 114.6505091922 A 24.2577769005 24.2577769005 0 1 1 1046.7517738131883 114.62625141934245 M 996.8477398605758 141.1298737415 L 1048.1402782225757 141.1298737415" stroke-miterlimit="10" stroke-width="2.7769845610000004" stroke-dasharray=""/></g><g><g/><text fill="black" stroke="none" font-family="monospace" font-size="11pt" font-style="normal" font-weight="normal" text-decoration="normal" x="978.4940090415757" y="157.597015222" text-anchor="start" dominant-baseline="alphabetic" xml:space="preserve">TwitterAPI</text></g><g><path fill="white" stroke="blue" paint-order="fill stroke markers" d=" M 35.078667912469726 857.5164972335004 A 9.311065881 9.311065881 0 1 1 35.078663256937176 857.5071861691713 M 25.76760203146973 866.8275631145004 L 25.76760203146973 886.7565111405004 M 14.00625565546973 874.0150525665005 L 37.52894840746973 874.0150525665005 M 25.76760203146973 886.7565111405004 L 14.00625565546973 905.3786429025005 M 25.76760203146973 886.7565111405004 L 37.52894840746973 905.3786429025005" stroke-miterlimit="10" stroke-width="1.3884922805000002" stroke-dasharray=""/></g><g><g/><text fill="black" stroke="none" font-family="monospace" font-size="11pt" font-style="normal" font-weight="normal" text-decoration="normal" x="8.167601650000002" y="841.9163780820004" text-anchor="start" dominant-baseline="alphabetic" xml:space="preserve">User</text></g><path fill="none" stroke="none"/><g><path fill="white" stroke="orange" paint-order="fill stroke markers" d=" M 138.9720509972425 826.8377288820004 L 244.8194436841214 826.8377288820004 L 244.8194436841214 869.6862236920005 L 138.9720509972425 869.6862236920005 L 138.9720509972425 826.8377288820004 Z" stroke-miterlimit="10" stroke-width="2.613632528" stroke-dasharray=""/></g><g><g/><text fill="black" stroke="none" font-family="monospace" font-size="11pt" font-style="normal" font-weight="normal" text-decoration="normal" x="156.69574657774248" y="853.3510203920004" text-anchor="start" dominant-baseline="alphabetic" xml:space="preserve">Frontend</text></g><g><path fill="white" stroke="green" paint-order="fill stroke markers" d=" M 496.80536436795467 873.8517005335004 A 24.2577769005 24.2577769005 0 1 1 496.80535223906725 873.8274427606428 M 432.92655186330467 848.6219790366505 L 432.92655186330467 899.0814220303504 M 431.95460726695467 873.8517005335004 L 448.28981056695466 873.8517005335004" stroke-miterlimit="10" stroke-width="1.9438891927000002" stroke-dasharray=""/></g><g><g/><text fill="black" stroke="none" font-family="monospace" font-size="11pt" font-style="normal" font-weight="normal" text-decoration="normal" x="429.1799850545152" y="841.9163780820004" text-anchor="start" dominant-baseline="alphabetic" xml:space="preserve">Endpoint</text></g><g><path fill="white" stroke="red" paint-order="fill stroke markers" d=" M 715.7335050995301 880.6308099030005 A 24.2577769005 24.2577769005 0 1 1 715.7334929706427 880.6065521301429 M 688.2086875390302 856.3730330025005 L 698.0098095190301 848.2054313525005 M 688.2086875390302 856.3730330025005 L 698.0098095190301 864.5406346525006" stroke-miterlimit="10" stroke-width="1.9438891927000002" stroke-dasharray=""/></g><g><g/><text fill="black" stroke="none" font-family="monospace" font-size="11pt" font-style="normal" font-weight="normal" text-decoration="normal" x="660.6757289619696" y="841.9163780820004" text-anchor="start" dominant-baseline="alphabetic" xml:space="preserve">Scraper</text></g><g><path fill="pink" stroke="black" paint-order="fill stroke markers" d=" M 798.7742048606364 894.6790847410003 L 798.7742048606364 860.3751578110002 L 846.4729984966363 860.3751578110002 L 846.4729984966363 894.6790847410003" stroke-miterlimit="10" stroke-width="2.7769845610000004" stroke-dasharray=""/><path fill="pink" stroke="black" paint-order="fill stroke markers" d=" M 846.4729984966363 859.1826879701002 L 846.4718060367326 859.2904985150169 L 846.4682287762665 859.3982982789688 L 846.4622670729613 859.5060764820696 L 846.4539215229819 859.6138223465887 L 846.4431929608767 859.7215250980294 L 846.4300824594928 859.8291739662062 L 846.4145913298696 859.9367581863223 L 846.396721121107 860.0442670000451 L 846.376473620211 860.1516896565829 L 846.3538508519148 860.2590154137596 L 846.3288550784764 860.3662335390887 L 846.3014887994524 860.4733333108474 L 846.2717547514478 860.5803040191474 L 846.2396559078427 860.6871349670073 L 846.2051954784946 860.7938154714211 L 846.1683769094178 860.9003348644274 L 846.1292038824384 861.0066824941756 L 846.0876803148267 861.1128477259915 L 846.0438103589047 861.2188199434402 L 845.9975984016313 861.3245885493883 L 845.949049064164 861.4301429670635 L 845.898167201396 861.5354726411117 L 845.844957901471 861.6405670386536 L 845.7894264852748 861.7454156503368 L 845.7315785059028 861.8500079913877 L 845.6714197481047 861.9543336026591 L 845.608956227706 862.0583820516769 L 845.5441941910068 862.162142933683 L 845.4771401141568 862.2656058726757 L 845.4078007025079 862.3687605224471 L 845.3361828899432 862.4715965676183 L 845.2622938381845 862.5741037246706 L 845.1861409360755 862.6762717429737 L 845.1077317988427 862.7780904058106 L 845.0270742673346 862.8795495314002 L 844.9441764072371 862.9806389739143 L 844.8590465082673 863.0813486244931 L 844.7716930833438 863.1816684122552 L 844.6821248677367 863.2815883053057 L 844.5903508181926 863.3810983117384 L 844.4963801120402 863.4801884806355 L 844.4002221462716 863.5788489030629 L 844.3018865366035 863.6770697130603 L 844.2013831165148 863.7748410886288 L 844.0987219362636 863.8721532527122 L 843.9939132618825 863.9689964741752 L 843.8869675741516 864.0653610687765 L 843.7778955675507 864.1612374001368 L 843.6667081491894 864.2566158807027 L 843.5534164377168 864.351486972706 L 843.4380317622099 864.4458411891162 L 843.3205656610398 864.5396690945905 L 843.2010298807189 864.6329613064165 L 843.0794363747257 864.7257084954507 L 842.9557973023093 864.8179013870516 L 842.8301250272739 864.9095307620067 L 842.7024321167424 865.000587457455 L 842.5727313398994 865.0910623678029 L 842.4410356667145 865.1809464456346 L 842.3073582666452 865.2702307026173 L 842.1717125073203 865.3589062103996 L 842.0341119532025 865.4469641015047 L 841.8945703642325 865.5343955702169 L 841.7531016944532 865.6211918734623 L 841.6097200906135 865.7073443316826 L 841.4644398907543 865.7928443297039 L 841.3172756227744 865.8776833175979 L 841.1682420029783 865.9618528115361 L 841.0173539346034 866.0453443946395 L 840.8646265063311 866.1281497178194 L 840.7100749907768 866.2102605006122 L 840.5537148429634 866.2916685320084 L 840.395561698775 866.3723656712725 L 840.2356313733948 866.4523438487579 L 840.0739398597216 866.5315950667133 L 839.9105033267723 866.6101114000833 L 839.7453381180637 866.6878849972996 L 839.5784607499794 866.7649080810677 L 839.4098879101169 866.8411729491431 L 839.2396364556198 866.9166719751026 L 839.0677234114917 866.9913976091067 L 838.8941659688936 867.065342378654 L 838.7189814834253 867.1384988893294 L 838.5421874733893 867.2108598255426 L 838.3638016180392 867.2824179512604 L 838.183841755812 867.35316611073 L 838.0023258825439 867.423097229194 L 837.819272149671 867.4922043135992 L 837.634698862414 867.5604804532946 L 837.4486244779478 867.6279188207232 L 837.2610676035558 867.6945126721043 L 837.0720469947692 867.7602553481084 L 836.8815815534913 867.8251402745227 L 836.6896903261074 867.8891609629086 L 836.4963925015807 867.9523110112506 L 836.3017074095321 868.0145841045963 L 836.1056545183089 868.0759740156886 L 835.9082534330367 868.1364746055874 L 835.7095238936597 868.1960798242841 L 835.509485772966 868.2547837113065 L 835.308159074601 868.3125803963147 L 835.105563931067 868.3694640996887 L 834.9017206017091 868.4254291331052 L 834.6966494706909 868.4804699001078 L 834.4903710449541 868.5345808966655 L 834.2829059521698 868.5877567117237 L 834.0742749386741 868.6399920277453 L 833.8644988673947 868.6912816212422 L 833.6535987157637 868.7416203632978 L 833.4415955736206 868.7910032200797 L 833.228510641103 868.8394252533436 L 833.0143652265266 868.8868816209265 L 832.7991807442543 868.933367577231 L 832.582978712555 868.9788784737004 L 832.3657807514519 869.0234097592829 L 832.1476085805599 869.0669569808871 L 831.9284840169144 869.109515783827 L 831.708428972789 869.1510819122578 L 831.4874654535049 869.1916512096016 L 831.2656155552299 869.231219618962 L 831.0429014627689 869.2697831835313 L 830.8193454473454 869.3073380469851 L 830.594969864375 869.3438804538686 L 830.3697971512287 869.3794067499712 L 830.1438498249903 869.413913382693 L 829.9171504802041 869.4473969013995 L 829.6897217866157 869.479853957767 L 829.4615864869048 869.5112813061165 L 829.2327673944116 869.5416758037396 L 829.0032873908542 869.5710344112117 L 828.7731694240422 869.5993541926968 L 828.5424365055801 869.6266323162399 L 828.3111117085678 869.6528660540519 L 828.0792181652919 869.6780527827805 L 827.8467790649138 869.7021899837739 L 827.6138176511497 869.7252752433322 L 827.3803572199467 869.7473062529486 L 827.1464211171537 869.7682808095407 L 826.9120327361858 869.7881968156701 L 826.6772155156858 869.8070522797527 L 826.4419929371802 869.824845316258 L 826.2063885227305 869.8415741458972 L 825.9704258325822 869.8572370958011 L 825.7341284628076 869.8718325996879 L 825.4975200429466 869.8853591980193 L 825.260624233644 869.8978155381468 L 825.0234647242835 869.9092003744468 L 824.7860652306183 869.9195125684449 L 824.5484494923999 869.9287510889307 L 824.3106412710042 869.9369150120596 L 824.0726643470551 869.944003521446 L 823.8345425180468 869.9500159082451 L 823.5962995959636 869.9549515712231 L 823.3579594048992 869.9588100168179 L 823.1195457786743 869.961590859188 L 822.8810825584525 869.9632938202517 L 822.6425935903574 869.9639187297141 L 822.4041027230868 869.9634655250849 L 822.165633805529 869.9619342516842 L 821.9272106843767 869.959325062638 L 821.6888572017438 869.955638218863 L 821.4505971927794 869.9508740890406 L 821.2124544832861 869.9450331495797 L 820.9744528873365 869.9381159845694 L 820.7366162048917 869.9301232857206 L 820.4989682194217 869.9210558522964 L 820.2615326955272 869.9109145910325 L 820.0243333765625 869.8997005160467 L 819.7873939822621 869.8874147487371 L 819.5507382063678 869.8740585176703 L 819.31438971426 869.8596331584581 L 819.0783721405909 869.8441401136246 L 818.8427090869213 869.8275809324612 L 818.6074241193602 869.8099572708722 L 818.3725407662082 869.7912708912093 L 818.1380825156049 869.7715236620945 L 817.90407281318 869.7507175582348 L 817.6705350597086 869.7288546602227 L 817.4374926087718 869.7059371543302 L 817.2049687644201 869.6819673322885 L 816.9729867788442 869.6569475910601 L 816.7415698500496 869.630880432598 L 816.5107411195361 869.6037684635965 L 816.2805236699845 869.5756143952299 L 816.0509405229479 869.5464210428814 L 815.8220146365496 869.5161913258621 L 815.5937689031877 869.4849282671184 L 815.366226147245 869.4526349929304 L 815.1394091228077 869.4193147325981 L 814.9133405113893 869.3849708181202 L 814.6880429196623 869.3496066838593 L 814.4635388771982 869.3132258661994 L 814.2398508342143 869.2758320031921 L 814.0170011593284 869.2374288341923 L 813.7950121373223 869.1980201994851 L 813.5739059669132 869.157610039901 L 813.3537047585338 869.1162023964223 L 813.1344305321217 869.0738014097789 L 812.9161052149165 869.0304113200341 L 812.698750639268 868.9860364661607 L 812.482388540453 868.9406812856072 L 812.2670405545007 868.8943503138537 L 812.0527282160305 868.8470481839588 L 811.8394729560973 868.7987796260962 L 811.6272961000499 868.7495494670815 L 811.4162188653966 868.6993626298893 L 811.2062623596852 868.6482241331616 L 810.9974475783913 868.5961390907056 L 810.789795402819 868.5431127109821 L 810.5833265980128 868.4891502965849 L 810.3780618106812 868.4342572437102 L 810.1740215671317 868.3784390416179 L 809.9712262712187 868.3217012720816 L 809.769696202303 868.2640496088308 L 809.5694515132233 868.2054898169839 L 809.3705122282817 868.1460277524714 L 809.1728982412409 868.08566936145 L 808.976629313335 868.0244206797086 L 808.7817250712932 867.9622878320642 L 808.5882050053773 867.8992770317501 L 808.3960884674325 867.8353945797936 L 808.2053946689527 867.7706468643867 L 808.0161426791587 867.7050403602469 L 807.8283514230918 867.6385816279701 L 807.6420396797212 867.571277313374 L 807.4572260800658 867.5031341468341 L 807.2739291053317 867.4341589426102 L 807.0921670850635 867.3643585981653 L 806.911958195312 867.2937400934755 L 806.7333204568157 867.2223104903327 L 806.5562717331998 867.1500769316374 L 806.3808297291889 867.0770466406855 L 806.2070119888375 867.0032269204452 L 806.0348358937746 866.9286251528268 L 805.8643186614662 866.8532487979452 L 805.6954773434936 866.7771053933728 L 805.5283288238477 866.7002025533868 L 805.3628898172414 866.6225479682071 L 805.1991768674371 866.5441494032274 L 805.0372063455939 866.465014698239 L 804.8769944486286 866.3851517666462 L 804.7185571975974 866.3045685946759 L 804.5619104360936 866.223273240578 L 804.4070698286628 866.1412738338202 L 804.2540508592365 866.0585785742747 L 804.1028688295842 865.9751957313989 L 803.9535388577829 865.8911336434072 L 803.8060758767053 865.8064007164386 L 803.6604946325268 865.7210054237152 L 803.5168096832504 865.6349563046948 L 803.3750353972512 865.548261964218 L 803.2351859518398 865.4609310716463 L 803.097275331844 865.3729723599963 L 802.961317328211 865.2843946250659 L 802.8273255366279 865.1952067245547 L 802.6953133561622 865.1054175771786 L 802.5652939879218 865.0150361617773 L 802.4372804337353 864.924071516417 L 802.3112854948514 864.8325327374868 L 802.1873217706591 864.7404289787878 L 802.0654016574274 864.6477694506194 L 801.945537347066 864.5545634188572 L 801.8277408259061 864.4608202040267 L 801.7120238735016 864.3665491803713 L 801.5983980614513 864.2717597749147 L 801.486874752242 864.1764614665184 L 801.3774650981113 864.080663784934 L 801.2701800399336 863.9843763098498 L 801.1650303061253 863.887608669933 L 801.0620264115723 863.7903705418669 L 800.961178656578 863.6926716493833 L 800.8624971258339 863.5945217622902 L 800.765991687411 863.4959306954944 L 800.6716719917725 863.3969083080203 L 800.5795474708095 863.2974645020244 L 800.4896273368973 863.1976092218042 L 800.4019205819744 863.0973524528046 L 800.3164359766431 862.9967042206189 L 800.2331820692929 862.8956745899865 L 800.1521671852448 862.7942736637863 L 800.07339942592 862.6925115820262 L 799.9968866680288 862.5903985208299 L 799.9226365627829 862.4879446914183 L 799.8506565351314 862.3851603390889 L 799.7809537830167 862.2820557421913 L 799.7135352766562 862.1786412110994 L 799.6484077578442 862.0749270871798 L 799.5855777392783 861.970923741759 L 799.5250515039081 861.8666415750843 L 799.4668351043066 861.7620910152858 L 799.4109343620654 861.6572825173323 L 799.3573548672119 861.5522265619861 L 799.3061019776511 861.4469336547555 L 799.2571808186293 861.3414143248432 L 799.2105962822214 861.2356791240944 L 799.1663530268426 861.129738625941 L 799.1244554767811 861.0236034243445 L 799.0849078217574 860.9172841327368 L 799.0477140165037 860.8107913829582 L 799.0128777803699 860.7041358241951 L 798.9804025969502 860.5973281219145 L 798.9502917137362 860.4903789567976 L 798.9225481417909 860.3832990236717 L 798.8971746554486 860.276099030441 L 798.8741737920366 860.1687896970153 L 798.8535478516221 860.0613817542388 L 798.835298896782 859.9538859428161 L 798.8194287523966 859.8463130122389 L 798.805939005467 859.7386737197103 L 798.7948310049568 859.6309788290702 L 798.7861058616568 859.5232391097177 L 798.7797644480738 859.415465335535 L 798.7758073983442 859.3076682838098 L 798.7742351081695 859.1998587341574 L 798.7750477347774 859.0920474674429 L 798.778245196906 858.9842452647031 L 798.7838271748117 858.8764629060685 L 798.7917931103013 858.768711169685 L 798.8021422067881 858.6610008306367 L 798.8148734293709 858.5533426598676 L 798.829985504938 858.445747423105 L 798.8474769222946 858.3382258797831 L 798.8673459323134 858.2307887819663 L 798.88959054811 858.1234468732753 L 798.9142085452415 858.0162108878112 L 798.9411974619285 857.9090915490832 L 798.9705545993019 857.8020995689361 L 799.0022770216724 857.6952456464785 L 799.0363615568243 857.5885404670138 L 799.0728047963323 857.481994700971 L 799.1116030959031 857.3756190028378 L 799.1527525757388 857.2694240100955 L 799.1962491209258 857.1634203421547 L 799.2420883818459 857.0576185992941 L 799.290265774611 856.9520293615997 L 799.3407764815223 856.8466631879072 L 799.3936154515509 856.7415306147462 L 799.448777400844 856.6366421552866 L 799.5062568132527 856.5320082982867 L 799.5660479408834 856.4276395070451 L 799.6281448046733 856.3235462183538 L 799.6925411949878 856.2197388414553 L 799.7592306722416 856.1162277570004 L 799.8282065675425 856.0130233160115 L 799.8994619833583 855.9101358388466 L 799.9729897942069 855.8075756141677 L 800.0487826473685 855.7053528979118 L 800.1268329636209 855.6034779122654 L 800.2071329379977 855.5019608446421 L 800.2896745405681 855.400811846664 L 800.3744495172408 855.3000410331468 L 800.4614493905888 855.1996584810878 L 800.5506654606971 855.0996742286584 L 800.6420888060333 855.0000982742007 L 800.7357102843388 854.9009405752271 L 800.8315205335438 854.8022110474249 L 800.9295099727034 854.7039195636645 L 801.0296688029553 854.6060759530126 L 801.1319870084998 854.5086899997484 L 801.2364543576016 854.4117714423863 L 801.3430604036131 854.3153299727013 L 801.4517944860183 854.2193752347599 L 801.5626457314996 854.1239168239559 L 801.675603055025 854.028964286051 L 801.7906551609561 853.9345271162197 L 801.9077905441783 853.8406147581003 L 802.0269974912507 853.7472366028503 L 802.1482640815781 853.6544019882076 L 802.2715781886025 853.5621201975563 L 802.396927481016 853.4704004589983 L 802.5242994239936 853.3792519444312 L 802.6536812804475 853.2886837686306 L 802.7850601122996 853.1987049883384 L 802.9184227817761 853.1093246013577 L 803.0537559527215 853.0205515456529 L 803.1910460919314 852.9323946984553 L 803.3302794705062 852.8448628753764 L 803.4714421652241 852.7579648295255 L 803.6145200599332 852.6717092506345 L 803.7594988469633 852.5861047641899 L 803.9063640285566 852.5011599305687 L 804.0551009183173 852.4168832441835 L 804.2056946426802 852.3332831326328 L 804.3581301423986 852.2503679558579 L 804.5123921740494 852.1681460053077 L 804.6684653115581 852.0866255031084 L 804.8263339477409 852.0058146012425 L 804.9859822958658 851.9257213807327 L 805.1473943912309 851.8463538508345 L 805.3105540927614 851.7677199482345 L 805.475445084623 851.6898275362577 L 805.6420508778539 851.6126844040801 L 805.8103548120137 851.5362982659509 L 805.980340056849 851.4606767604201 L 806.1519896139772 851.3858274495753 L 806.3252863185857 851.3117578182852 L 806.5002128411481 851.2384752734512 L 806.6767516891583 851.1659871432666 L 806.8548852088784 851.0943006764843 L 807.034595587105 851.023423041691 L 807.2158648529498 850.9533613265911 L 807.3986748796375 850.8841225372979 L 807.5830073863177 850.8157135976325 L 807.7688439398935 850.7481413484319 L 807.9561659568641 850.6814125468646 L 808.144954705184 850.6155338657554 L 808.3351913061358 850.5505118929173 L 808.526856736218 850.4863531304935 L 808.719931829047 850.4230639943066 L 808.9143972772747 850.3606508132177 L 809.1102336345183 850.2991198284928 L 809.307421317305 850.2384771931793 L 809.5059406070313 850.1787289714898 L 809.7057716519333 850.1198811381969 L 809.9068944690731 850.061939578035 L 810.1092889463367 850.0049100851115 L 810.3129348444451 849.9487983623286 L 810.5178117989778 849.8936100208115 L 810.7238993224105 849.8393505793484 L 810.9311768061624 849.7860254638383 L 811.1396235226579 849.7336400067484 L 811.3492186273991 849.6821994465806 L 811.55994116105 849.6317089273481 L 811.771770051533 849.5821734980607 L 811.9846841161357 849.5335981122201 L 812.1986620636288 849.4859876273246 L 812.4136824963961 849.4393468043826 L 812.6297239125732 849.3936803074379 L 812.8467647081987 849.3489927031019 L 813.0647831793741 849.3052884600978 L 813.2837575244337 849.2625719488137 L 813.5036658461254 849.2208474408649 L 813.7244861538006 849.1801191086676 L 813.9461963656123 849.1403910250209 L 814.1687743107242 849.1016671627003 L 814.3921977315272 849.0639513940595 L 814.6164442858653 849.0272474906441 L 814.8414915492702 848.9915591228138 L 815.067317017203 848.9568898593757 L 815.293898107305 848.923243167227 L 815.5212121616562 848.8906224110093 L 815.7492364490403 848.8590308527707 L 815.9779481672188 848.8284716516408 L 816.2073244452104 848.7989478635144 L 816.4373423455785 848.7704624407455 L 816.6679788667246 848.7430182318527 L 816.899210945189 848.716617981234 L 817.1310154579563 848.6912643288925 L 817.3633692247687 848.6669598101723 L 817.5962490104429 848.643706855505 L 817.8296315271945 848.6215077901668 L 818.0634934369663 848.6003648340455 L 818.2978113537621 848.5802801014194 L 818.5325618459856 848.5612556007447 L 818.7677214387832 848.5432932344559 L 819.0032666163916 848.5263947987744 L 819.2391738244892 848.5105619835299 L 819.475419472552 848.4957963719907 L 819.7119799362117 848.4820994407054 L 819.9488315596195 848.4694725593561 L 820.1859506578102 848.4579169906201 L 820.4233135190716 848.4474338900449 L 820.6608964073154 848.4380243059315 L 820.8986755644506 848.4296891792309 L 821.13662721276 848.4224293434485 L 821.3747275572767 848.4162455245618 L 821.6129527881649 848.4111383409478 L 821.8512790830999 848.4071083033203 L 822.0896826096509 848.4041558146799 L 822.3281395276638 848.4022811702731 L 822.5666259916457 848.4014845575625 L 822.8051181531487 848.4017660562089 L 823.0435921631555 848.4031256380626 L 823.2820241744639 848.4055631671665 L 823.5203903440714 848.4090783997699 L 823.7586668355597 848.4136709843524 L 823.9968298214782 848.4193404616592 L 824.2348554857267 848.4260862647475 L 824.4727200259372 848.4339077190424 L 824.7103996558538 848.4428040424052 L 824.9478706077119 848.4527743452109 L 825.1851091346139 848.4638176304376 L 825.4220915129048 848.4759327937658 L 825.6587940445444 848.4891186236894 L 825.8951930594767 848.5033738016363 L 826.1312649179973 848.5186969021007 L 826.366986013117 848.5350863927853 L 826.6023327729226 848.5525406347547 L 826.8372816629345 848.5710578825991 L 827.0718091884593 848.5906362846092 L 827.30589189694 848.6112738829613 L 827.5395063803007 848.6329686139127 L 827.7726292772878 848.6557183080081 L 828.0052372758059 848.6795206902974 L 828.237307115249 848.7043733805621 L 828.4688155888265 848.7302738935538 L 828.699739545884 848.7572196392427 L 828.9300558942182 848.7852079230771 L 829.1597416023861 848.8142359462515 L 829.3887737020085 848.8443008059879 L 829.6171292900661 848.8753994958255 L 829.8447855311906 848.9075289059211 L 830.0717196599473 848.9406858233606 L 830.2979089831127 848.9748669324798 L 830.523330881943 849.0100688151962 L 830.7479628144359 849.0462879513509 L 830.9717823175856 849.0835207190606 L 831.1947670096282 849.1217633950794 L 831.4168945922802 849.1610121551716 L 831.6381428529687 849.201263074494 L 831.8584896670518 849.2425121279881 L 832.0779130000317 849.284755190783 L 832.2963909097581 849.3279880386075 L 832.513901548622 849.372206348213 L 832.7304231657408 849.4174056978053 L 832.9459341091332 849.463581567487 L 833.1604128278844 849.5107293397099 L 833.3738378743014 849.5588442997358 L 833.5861879060574 849.6079216361089 L 833.7974416883261 849.6579564411365 L 834.0075780959053 849.7089437113798 L 834.2165761153293 849.7608783481542 L 834.4244148469705 849.8137551580392 L 834.6310735071288 849.867568853398 L 834.8365314301105 849.922314052906 L 835.0407680702945 849.9779852820886 L 835.2437630041868 850.0345769738697 L 835.4454959324634 850.0920834691268 L 835.6459466819995 850.1504990172585 L 835.8450952078871 850.2098177767589 L 836.0429215954397 850.2700338158011 L 836.2394060621833 850.3311411128316 L 836.4345289598351 850.3931335571715 L 836.6282707762679 850.4560049496282 L 836.8206121374612 850.5197490031146 L 837.0115338094397 850.5843593432787 L 837.2010167001948 850.6498295091402 L 837.3890418615957 850.7161529537372 L 837.5755904912828 850.7833230447802 L 837.7606439345485 850.8513330653165 L 837.9441836862028 850.9201762144004 L 838.1261913924235 850.9898456077744 L 838.3066488525916 851.0603342785574 L 838.4855380211114 851.131635177941 L 838.6628410092152 851.2037411758945 L 838.838540086752 851.2766450618784 L 839.0126176839603 851.3503395455648 L 839.1850563932256 851.4248172575666 L 839.3558389708206 851.5000707501748 L 839.5249483386299 851.5760924981029 L 839.6923675858575 851.6528748992394 L 839.8580799707183 851.7304102754081 L 840.022068922112 851.8086908731361 L 840.18431804128 851.8877088644289 L 840.3448111034456 851.9674563475529 L 840.5035320594365 852.0479253478267 L 840.660465037289 852.1291078184171 L 840.8155943438363 852.2109956411446 L 840.9689044662772 852.2935806272953 L 841.1203800737269 852.3768545184394 L 841.270006018751 852.4608089872571 L 841.4177673388798 852.5454356383716 L 841.5636492581043 852.6307260091883 L 841.7076371883542 852.716671570741 L 841.8497167309564 852.8032637285454 L 841.9898736780751 852.8904938234577 L 842.1280940141323 852.9783531325413 L 842.2643639172097 853.0668328699384 L 842.3986697604305 853.155924187749 L 842.5309981133223 853.2456181769154 L 842.66133574316 853.3359058681136 L 842.7896696162893 853.4267782326498 L 842.91598689943 853.5182261833631 L 843.0402749609586 853.6102405755348 L 843.162521372173 853.7028122078021 L 843.2827139085338 853.7959318230793 L 843.4008405508874 853.8895901094821 L 843.5168894866681 853.9837777012601 L 843.630849111079 854.0784851797325 L 843.7427080282527 854.1737030742306 L 843.8524550523905 854.269421863044 L 843.9600792088817 854.3656319743739 L 844.0655697354001 854.462323787289 L 844.1689160829811 854.5594876326888 L 844.2701079170761 854.6571137942698 L 844.369135118586 854.755192509497 L 844.4659877848729 854.8537139705807 L 844.5606562307513 854.9526683254568 L 844.6531309894552 855.0520456787724 L 844.743402813586 855.151836092875 L 844.8314626760364 855.2520295888063 L 844.9173017708935 855.3526161473002 L 845.0009115143195 855.4535857097845 L 845.0822835454094 855.5549281793875 L 845.1614097270283 855.6566334219463 L 845.2382821466238 855.7586912670215 L 845.3128931170179 855.8610915089138 L 845.3852351771759 855.9638239076842 L 845.4553010929521 856.0668781901785 L 845.5230838578132 856.1702440510542 L 845.5885766935392 856.2739111538115 L 845.651773050901 856.3778691318264 L 845.7126666103158 856.4821075893879 L 845.7712512824781 856.5866161027369 L 845.8275212089698 856.6913842211093 L 845.881470762845 856.7964014677805 L 845.9330945491932 856.9016573411134 L 845.9823874056789 857.0071413156082 L 846.0293444030575 857.1128428429557 L 846.0739608456684 857.218751353091 L 846.1162322719044 857.3248562552512 L 846.1561544546582 857.431146939035 L 846.1937234017449 857.5376127754621 L 846.2289353563009 857.6442431180378 L 846.2617867971603 857.7510273038167 L 846.2922744392062 857.8579546544692 L 846.3203952336999 857.9650144773492 L 846.3461463685852 858.072196066564 L 846.3695252687704 858.1794887040435 L 846.3905295963847 858.2868816606136 L 846.409157251013 858.3943641970683 L 846.4254063699052 858.5019255652434 L 846.4392753281631 858.6095550090915 L 846.4507627389024 858.7172417657582 L 846.4598674533916 858.8249750666575 L 846.4665885611668 858.932744138549 L 846.4709253901227 859.0405382046154 L 846.4728775065803 859.1483464855398 M 846.4729984966363 893.4866149001003 L 846.4718060367326 893.594425445017 L 846.4682287762665 893.7022252089689 L 846.4622670729613 893.8100034120697 L 846.4539215229819 893.9177492765888 L 846.4431929608767 894.0254520280295 L 846.4300824594928 894.1331008962063 L 846.4145913298696 894.2406851163224 L 846.396721121107 894.3481939300452 L 846.376473620211 894.455616586583 L 846.3538508519148 894.5629423437597 L 846.3288550784764 894.6701604690888 L 846.3014887994524 894.7772602408475 L 846.2717547514478 894.8842309491475 L 846.2396559078427 894.9910618970074 L 846.2051954784946 895.0977424014212 L 846.1683769094178 895.2042617944276 L 846.1292038824384 895.3106094241757 L 846.0876803148267 895.4167746559916 L 846.0438103589047 895.5227468734403 L 845.9975984016313 895.6285154793884 L 845.949049064164 895.7340698970636 L 845.898167201396 895.8393995711118 L 845.844957901471 895.9444939686537 L 845.7894264852748 896.0493425803369 L 845.7315785059028 896.1539349213878 L 845.6714197481047 896.2582605326592 L 845.608956227706 896.362308981677 L 845.5441941910068 896.4660698636831 L 845.4771401141568 896.5695328026758 L 845.4078007025079 896.6726874524472 L 845.3361828899432 896.7755234976185 L 845.2622938381845 896.8780306546707 L 845.1861409360755 896.9801986729738 L 845.1077317988427 897.0820173358107 L 845.0270742673346 897.1834764614003 L 844.9441764072371 897.2845659039144 L 844.8590465082673 897.3852755544932 L 844.7716930833438 897.4855953422554 L 844.6821248677367 897.5855152353058 L 844.5903508181926 897.6850252417385 L 844.4963801120402 897.7841154106356 L 844.4002221462716 897.882775833063 L 844.3018865366035 897.9809966430604 L 844.2013831165148 898.0787680186289 L 844.0987219362636 898.1760801827123 L 843.9939132618825 898.2729234041753 L 843.8869675741516 898.3692879987766 L 843.7778955675507 898.4651643301369 L 843.6667081491894 898.5605428107028 L 843.5534164377168 898.6554139027061 L 843.4380317622099 898.7497681191163 L 843.3205656610398 898.8435960245906 L 843.2010298807189 898.9368882364166 L 843.0794363747257 899.0296354254508 L 842.9557973023093 899.1218283170517 L 842.8301250272739 899.2134576920068 L 842.7024321167424 899.3045143874551 L 842.5727313398994 899.394989297803 L 842.4410356667145 899.4848733756347 L 842.3073582666452 899.5741576326174 L 842.1717125073203 899.6628331403997 L 842.0341119532025 899.7508910315048 L 841.8945703642325 899.838322500217 L 841.7531016944532 899.9251188034624 L 841.6097200906135 900.0112712616827 L 841.4644398907543 900.096771259704 L 841.3172756227744 900.181610247598 L 841.1682420029783 900.2657797415362 L 841.0173539346034 900.3492713246396 L 840.8646265063311 900.4320766478195 L 840.7100749907768 900.5141874306123 L 840.5537148429634 900.5955954620085 L 840.395561698775 900.6762926012726 L 840.2356313733948 900.756270778758 L 840.0739398597216 900.8355219967134 L 839.9105033267723 900.9140383300834 L 839.7453381180637 900.9918119272998 L 839.5784607499794 901.0688350110678 L 839.4098879101169 901.1450998791432 L 839.2396364556198 901.2205989051027 L 839.0677234114917 901.2953245391068 L 838.8941659688936 901.3692693086541 L 838.7189814834253 901.4424258193295 L 838.5421874733893 901.5147867555427 L 838.3638016180392 901.5863448812605 L 838.183841755812 901.65709304073 L 838.0023258825439 901.7270241591941 L 837.819272149671 901.7961312435993 L 837.634698862414 901.8644073832947 L 837.4486244779478 901.9318457507233 L 837.2610676035558 901.9984396021044 L 837.0720469947692 902.0641822781085 L 836.8815815534913 902.1290672045228 L 836.6896903261074 902.1930878929087 L 836.4963925015807 902.2562379412507 L 836.3017074095321 902.3185110345964 L 836.1056545183089 902.3799009456887 L 835.9082534330367 902.4404015355875 L 835.7095238936597 902.5000067542842 L 835.509485772966 902.5587106413066 L 835.308159074601 902.6165073263148 L 835.105563931067 902.6733910296888 L 834.9017206017091 902.7293560631053 L 834.6966494706909 902.7843968301079 L 834.4903710449541 902.8385078266656 L 834.2829059521698 902.8916836417238 L 834.0742749386741 902.9439189577454 L 833.8644988673947 902.9952085512423 L 833.6535987157637 903.0455472932979 L 833.4415955736206 903.0949301500798 L 833.228510641103 903.1433521833437 L 833.0143652265266 903.1908085509266 L 832.7991807442543 903.2372945072311 L 832.582978712555 903.2828054037005 L 832.3657807514519 903.327336689283 L 832.1476085805599 903.3708839108872 L 831.9284840169144 903.4134427138271 L 831.708428972789 903.4550088422579 L 831.4874654535049 903.4955781396017 L 831.2656155552299 903.5351465489621 L 831.0429014627689 903.5737101135314 L 830.8193454473454 903.6112649769852 L 830.594969864375 903.6478073838687 L 830.3697971512287 903.6833336799713 L 830.1438498249903 903.717840312693 L 829.9171504802041 903.7513238313998 L 829.6897217866157 903.7837808877671 L 829.4615864869048 903.8152082361166 L 829.2327673944116 903.8456027337397 L 829.0032873908542 903.8749613412118 L 828.7731694240422 903.9032811226969 L 828.5424365055801 903.93055924624 L 828.3111117085678 903.956792984052 L 828.0792181652919 903.9819797127806 L 827.8467790649138 904.006116913774 L 827.6138176511497 904.0292021733324 L 827.3803572199467 904.0512331829487 L 827.1464211171537 904.0722077395408 L 826.9120327361858 904.0921237456702 L 826.6772155156858 904.1109792097528 L 826.4419929371802 904.1287722462581 L 826.2063885227305 904.1455010758973 L 825.9704258325822 904.1611640258012 L 825.7341284628076 904.175759529688 L 825.4975200429466 904.1892861280194 L 825.260624233644 904.2017424681469 L 825.0234647242835 904.2131273044469 L 824.7860652306183 904.223439498445 L 824.5484494923999 904.2326780189308 L 824.3106412710042 904.2408419420597 L 824.0726643470551 904.2479304514461 L 823.8345425180468 904.2539428382452 L 823.5962995959636 904.2588785012232 L 823.3579594048992 904.262736946818 L 823.1195457786743 904.2655177891882 L 822.8810825584525 904.2672207502518 L 822.6425935903574 904.2678456597142 L 822.4041027230868 904.267392455085 L 822.165633805529 904.2658611816843 L 821.9272106843767 904.2632519926381 L 821.6888572017438 904.259565148863 L 821.4505971927794 904.2548010190407 L 821.2124544832861 904.2489600795798 L 820.9744528873365 904.2420429145695 L 820.7366162048917 904.2340502157207 L 820.4989682194217 904.2249827822965 L 820.2615326955272 904.2148415210326 L 820.0243333765625 904.2036274460468 L 819.7873939822621 904.1913416787372 L 819.5507382063678 904.1779854476704 L 819.31438971426 904.1635600884582 L 819.0783721405909 904.1480670436247 L 818.8427090869213 904.1315078624613 L 818.6074241193602 904.1138842008723 L 818.3725407662082 904.0951978212094 L 818.1380825156049 904.0754505920946 L 817.90407281318 904.0546444882349 L 817.6705350597086 904.0327815902228 L 817.4374926087718 904.0098640843303 L 817.2049687644201 903.9858942622886 L 816.9729867788442 903.9608745210602 L 816.7415698500496 903.9348073625981 L 816.5107411195361 903.9076953935966 L 816.2805236699845 903.87954132523 L 816.0509405229479 903.8503479728815 L 815.8220146365496 903.8201182558622 L 815.5937689031877 903.7888551971186 L 815.366226147245 903.7565619229305 L 815.1394091228077 903.7232416625982 L 814.9133405113893 903.6888977481203 L 814.6880429196623 903.6535336138594 L 814.4635388771982 903.6171527961995 L 814.2398508342143 903.5797589331922 L 814.0170011593284 903.5413557641924 L 813.7950121373223 903.5019471294852 L 813.5739059669132 903.4615369699011 L 813.3537047585338 903.4201293264224 L 813.1344305321217 903.377728339779 L 812.9161052149165 903.3343382500342 L 812.698750639268 903.2899633961608 L 812.482388540453 903.2446082156073 L 812.2670405545007 903.1982772438538 L 812.0527282160305 903.1509751139589 L 811.8394729560973 903.1027065560963 L 811.6272961000499 903.0534763970816 L 811.4162188653966 903.0032895598894 L 811.2062623596852 902.9521510631618 L 810.9974475783913 902.9000660207057 L 810.789795402819 902.8470396409822 L 810.5833265980128 902.793077226585 L 810.3780618106812 902.7381841737104 L 810.1740215671317 902.682365971618 L 809.9712262712187 902.6256282020817 L 809.769696202303 902.5679765388309 L 809.5694515132233 902.509416746984 L 809.3705122282817 902.4499546824715 L 809.1728982412409 902.3895962914501 L 808.976629313335 902.3283476097087 L 808.7817250712932 902.2662147620644 L 808.5882050053773 902.2032039617502 L 808.3960884674325 902.1393215097937 L 808.2053946689527 902.0745737943868 L 808.0161426791587 902.008967290247 L 807.8283514230918 901.9425085579702 L 807.6420396797212 901.8752042433741 L 807.4572260800658 901.8070610768342 L 807.2739291053317 901.7380858726103 L 807.0921670850635 901.6682855281654 L 806.911958195312 901.5976670234757 L 806.7333204568157 901.5262374203328 L 806.5562717331998 901.4540038616375 L 806.3808297291889 901.3809735706856 L 806.2070119888375 901.3071538504453 L 806.0348358937746 901.2325520828269 L 805.8643186614662 901.1571757279453 L 805.6954773434936 901.0810323233729 L 805.5283288238477 901.0041294833869 L 805.3628898172414 900.9264748982072 L 805.1991768674371 900.8480763332275 L 805.0372063455939 900.7689416282391 L 804.8769944486286 900.6890786966463 L 804.7185571975974 900.608495524676 L 804.5619104360936 900.5272001705781 L 804.4070698286628 900.4452007638203 L 804.2540508592365 900.3625055042748 L 804.1028688295842 900.279122661399 L 803.9535388577829 900.1950605734073 L 803.8060758767053 900.1103276464387 L 803.6604946325268 900.0249323537153 L 803.5168096832504 899.9388832346949 L 803.3750353972512 899.8521888942181 L 803.2351859518398 899.7648580016464 L 803.097275331844 899.6768992899964 L 802.961317328211 899.588321555066 L 802.8273255366279 899.4991336545548 L 802.6953133561622 899.4093445071787 L 802.5652939879218 899.3189630917774 L 802.4372804337353 899.2279984464171 L 802.3112854948514 899.1364596674869 L 802.1873217706591 899.0443559087879 L 802.0654016574274 898.9516963806195 L 801.945537347066 898.8584903488573 L 801.8277408259061 898.7647471340268 L 801.7120238735016 898.6704761103714 L 801.5983980614513 898.5756867049148 L 801.486874752242 898.4803883965185 L 801.3774650981113 898.3845907149341 L 801.2701800399336 898.2883032398499 L 801.1650303061253 898.1915355999331 L 801.0620264115723 898.094297471867 L 800.961178656578 897.9965985793834 L 800.8624971258339 897.8984486922903 L 800.765991687411 897.7998576254945 L 800.6716719917725 897.7008352380204 L 800.5795474708095 897.6013914320245 L 800.4896273368973 897.5015361518043 L 800.4019205819744 897.4012793828047 L 800.3164359766431 897.300631150619 L 800.2331820692929 897.1996015199866 L 800.1521671852448 897.0982005937864 L 800.07339942592 896.9964385120263 L 799.9968866680288 896.89432545083 L 799.9226365627829 896.7918716214184 L 799.8506565351314 896.689087269089 L 799.7809537830167 896.5859826721914 L 799.7135352766562 896.4825681410995 L 799.6484077578442 896.37885401718 L 799.5855777392783 896.274850671759 L 799.5250515039081 896.1705685050844 L 799.4668351043066 896.0660179452859 L 799.4109343620654 895.9612094473324 L 799.3573548672119 895.8561534919862 L 799.3061019776511 895.7508605847556 L 799.2571808186293 895.6453412548433 L 799.2105962822214 895.5396060540945 L 799.1663530268426 895.433665555941 L 799.1244554767811 895.3275303543446 L 799.0849078217574 895.2212110627369 L 799.0477140165037 895.1147183129583 L 799.0128777803699 895.0080627541952 L 798.9804025969502 894.9012550519146 L 798.9502917137362 894.7943058867977 L 798.9225481417909 894.6872259536718 L 798.8971746554486 894.580025960441 L 798.8741737920366 894.4727166270154 L 798.8535478516221 894.3653086842389 L 798.835298896782 894.2578128728162 L 798.8194287523966 894.150239942239 L 798.805939005467 894.0426006497104 L 798.7948310049568 893.9349057590703 L 798.7861058616568 893.8271660397178 L 798.7797644480738 893.7193922655351 L 798.7758073983442 893.6115952138099 L 798.7742351081695 893.5037856641575" stroke-miterlimit="10" stroke-width="2.7769845610000004" stroke-dasharray=""/></g><g><g/><text fill="black" stroke="none" font-family="monospace" font-size="11pt" font-style="normal" font-weight="normal" text-decoration="normal" x="787.4236009156969" y="841.9163780820004" text-anchor="start" dominant-baseline="alphabetic" xml:space="preserve">Database</text></g><g><path fill="white" stroke="lightblue" paint-order="fill stroke markers" d=" M 942.4165826420757 870.7970175164004 A 24.2577769005 24.2577769005 0 1 1 942.4165705131883 870.7727597435428 M 891.1240442800759 899.4979697145003 L 945.1935672030756 899.4979697145003" stroke-miterlimit="10" stroke-width="5.553969122000001" stroke-dasharray=""/></g><g><g/><text fill="black" stroke="none" font-family="monospace" font-size="11pt" font-style="normal" font-weight="normal" text-decoration="normal" x="874.1588057415757" y="841.9163780820004" text-anchor="start" dominant-baseline="alphabetic" xml:space="preserve">ML Service</text></g><g><path fill="white" stroke="gray" paint-order="fill stroke markers" d=" M 1046.7517859420757 873.0186051652004 A 24.2577769005 24.2577769005 0 1 1 1046.7517738131883 872.9943473923428 M 996.8477398605758 899.4979697145003 L 1048.1402782225757 899.4979697145003" stroke-miterlimit="10" stroke-width="2.7769845610000004" stroke-dasharray=""/></g><g><g/><text fill="black" stroke="none" font-family="monospace" font-size="11pt" font-style="normal" font-weight="normal" text-decoration="normal" x="978.4940090415757" y="841.9163780820004" text-anchor="start" dominant-baseline="alphabetic" xml:space="preserve">TwitterAPI</text></g></g><g><path fill="white" stroke="black" paint-order="fill stroke markers" d=" M 183.72814569068194 229.848875972 L 200.06334899068193 229.848875972 L 200.06334899068193 769.6645173320004 L 183.72814569068194 769.6645173320004 L 183.72814569068194 229.848875972" stroke-miterlimit="10" stroke-width="1.3612669416666667" stroke-dasharray=""/><path fill="white" stroke="black" paint-order="fill stroke markers" d=" M 456.2123841674547 273.953924882 L 472.54758746745466 273.953924882 L 472.54758746745466 725.5594684220004 L 456.2123841674547 725.5594684220004 L 456.2123841674547 273.953924882" stroke-miterlimit="10" stroke-width="1.3612669416666667" stroke-dasharray=""/><path fill="white" stroke="black" paint-order="fill stroke markers" d=" M 814.4560000286363 318.058973792 L 830.7912033286364 318.058973792 L 830.7912033286364 656.9516145620003 L 814.4560000286363 656.9516145620003 L 814.4560000286363 318.058973792" stroke-miterlimit="10" stroke-width="1.3612669416666667" stroke-dasharray=""/><path fill="white" stroke="black" paint-order="fill stroke markers" d=" M 683.3081265490301 421.34772081200003 L 699.6433298490302 421.34772081200003 L 699.6433298490302 524.6364678320001 L 683.3081265490301 524.6364678320001 L 683.3081265490301 421.34772081200003" stroke-miterlimit="10" stroke-width="1.3612669416666667" stroke-dasharray=""/><path fill="white" stroke="black" paint-order="fill stroke markers" d=" M 909.9912040915757 568.7415167420002 L 926.3264073915758 568.7415167420002 L 926.3264073915758 612.8465656520002 L 909.9912040915757 612.8465656520002 L 909.9912040915757 568.7415167420002" stroke-miterlimit="10" stroke-width="1.3612669416666667" stroke-dasharray=""/><g><text fill="black" stroke="none" font-family="monospace" font-size="11pt" font-style="normal" font-weight="normal" text-decoration="normal" x="47.54787309813639" y="208.738767092" text-anchor="start" dominant-baseline="alphabetic" xml:space="preserve">Input Twitter</text><text fill="black" stroke="none" font-family="monospace" font-size="11pt" font-style="normal" font-weight="normal" text-decoration="normal" x="47.54787309813639" y="223.817416292" text-anchor="start" dominant-baseline="alphabetic" xml:space="preserve">account URL</text></g><g><path fill="none" stroke="black" paint-order="fill stroke markers" d=" M 25.76760203146973 229.848875972 L 170.27882830701526 229.848875972" stroke-miterlimit="10" stroke-width="1.3612669416666667" stroke-dasharray=""/><g transform="translate(183.72814569068194,229.848875972) translate(-183.72814569068194,-229.848875972)"><path fill="black" stroke="none" paint-order="stroke fill markers" d=" M 170.11547627401526 223.04254126366666 L 183.72814569068194 229.848875972 L 170.11547627401526 236.65521068033334 Z"/></g></g><g><text fill="black" stroke="none" font-family="monospace" font-size="11pt" font-style="normal" font-weight="normal" text-decoration="normal" x="240.13786657906826" y="267.922465202" text-anchor="start" dominant-baseline="alphabetic" xml:space="preserve">Request check result</text></g><g><path fill="none" stroke="black" paint-order="fill stroke markers" d=" M 200.06334899068193 273.953924882 L 442.763066783788 273.953924882" stroke-miterlimit="10" stroke-width="1.3612669416666667" stroke-dasharray=""/><g transform="translate(456.2123841674547,273.953924882) translate(-456.2123841674547,-273.953924882)"><path fill="black" stroke="none" paint-order="stroke fill markers" d=" M 442.599714750788 267.1475901736667 L 456.2123841674547 273.953924882 L 442.599714750788 280.76025959033336 Z"/></g></g><g><text fill="black" stroke="none" font-family="monospace" font-size="11pt" font-style="normal" font-weight="normal" text-decoration="normal" x="573.1017922221665" y="312.02751411200006" text-anchor="start" dominant-baseline="alphabetic" xml:space="preserve">Get check result</text></g><g><path fill="none" stroke="black" paint-order="fill stroke markers" d=" M 472.54758746745466 318.058973792 L 801.0066826449696 318.058973792" stroke-miterlimit="10" stroke-width="1.3612669416666667" stroke-dasharray=""/><g transform="translate(814.4560000286363,318.058973792) translate(-814.4560000286363,-318.058973792)"><path fill="black" stroke="none" paint-order="stroke fill markers" d=" M 800.8433306119696 311.2526390836667 L 814.4560000286363 318.058973792 L 800.8433306119696 324.86530850033336 Z"/></g></g><g><text fill="black" stroke="none" font-family="monospace" font-size="11pt" font-style="normal" font-weight="normal" text-decoration="normal" x="520.727856245303" y="400.23761193200005" text-anchor="start" dominant-baseline="alphabetic" xml:space="preserve">Fetch account</text><text fill="black" stroke="none" font-family="monospace" font-size="11pt" font-style="normal" font-weight="normal" text-decoration="normal" x="520.727856245303" y="415.316261132" text-anchor="start" dominant-baseline="alphabetic" xml:space="preserve">information</text></g><g><path fill="none" stroke="black" paint-order="fill stroke markers" d=" M 472.54758746745466 421.34772081200003 L 669.8588091653635 421.34772081200003" stroke-miterlimit="10" stroke-width="1.3612669416666667" stroke-dasharray=""/><g transform="translate(683.3081265490301,421.34772081200003) translate(-683.3081265490301,-421.34772081200003)"><path fill="black" stroke="none" paint-order="stroke fill markers" d=" M 669.6954571323635 414.5413861036667 L 683.3081265490301 421.34772081200003 L 669.6954571323635 428.1540555203334 Z"/></g></g><g><text fill="black" stroke="none" font-family="monospace" font-size="11pt" font-style="normal" font-weight="normal" text-decoration="normal" x="803.8686686823635" y="459.4213100420001" text-anchor="start" dominant-baseline="alphabetic" xml:space="preserve">Fetch account</text><text fill="black" stroke="none" font-family="monospace" font-size="11pt" font-style="normal" font-weight="normal" text-decoration="normal" x="803.8686686823635" y="474.49995924200005" text-anchor="start" dominant-baseline="alphabetic" xml:space="preserve">information</text></g><g><path fill="none" stroke="black" paint-order="fill stroke markers" d=" M 699.6433298490302 480.53141892200006 L 1009.0446916579091 480.53141892200006" stroke-miterlimit="10" stroke-width="1.3612669416666667" stroke-dasharray=""/><g transform="translate(1022.4940090415757,480.53141892200006) translate(-1022.4940090415757,-480.53141892200006)"><path fill="black" stroke="none" paint-order="stroke fill markers" d=" M 1008.8813396249091 473.7250842136667 L 1022.4940090415757 480.53141892200006 L 1008.8813396249091 487.3377536303334 Z"/></g></g><g><text fill="black" stroke="none" font-family="monospace" font-size="11pt" font-style="normal" font-weight="normal" text-decoration="normal" x="494.32785853412133" y="518.6050081520001" text-anchor="start" dominant-baseline="alphabetic" xml:space="preserve">Account information</text></g><g><path fill="none" stroke="black" paint-order="fill stroke markers" d=" M 683.3081265490301 524.6364678320001 L 485.9969048511213 524.6364678320001" stroke-miterlimit="10" stroke-width="1.3612669416666667" stroke-dasharray="6.53408132"/><g transform="translate(472.54758746745466,524.6364678320001) translate(-472.54758746745466,-524.6364678320001)"><path fill="black" stroke="none" paint-order="stroke fill markers" d=" M 486.16025688412134 517.8301331236668 L 472.54758746745466 524.6364678320001 L 486.16025688412134 531.4428025403334 Z"/></g></g><g><text fill="black" stroke="none" font-family="monospace" font-size="11pt" font-style="normal" font-weight="normal" text-decoration="normal" x="603.2693957795152" y="562.7100570620001" text-anchor="start" dominant-baseline="alphabetic" xml:space="preserve">Run model on account</text></g><g><path fill="none" stroke="black" paint-order="fill stroke markers" d=" M 472.54758746745466 568.7415167420002 L 896.541886707909 568.7415167420002" stroke-miterlimit="10" stroke-width="1.3612669416666667" stroke-dasharray=""/><g transform="translate(909.9912040915757,568.7415167420002) translate(-909.9912040915757,-568.7415167420002)"><path fill="black" stroke="none" paint-order="stroke fill markers" d=" M 896.378534674909 561.9351820336668 L 909.9912040915757 568.7415167420002 L 896.378534674909 575.5478514503335 Z"/></g></g><g><text fill="black" stroke="none" font-family="monospace" font-size="11pt" font-style="normal" font-weight="normal" text-decoration="normal" x="607.6693973053941" y="606.8151059720002" text-anchor="start" dominant-baseline="alphabetic" xml:space="preserve">Return check result</text></g><g><path fill="none" stroke="black" paint-order="fill stroke markers" d=" M 909.9912040915757 612.8465656520002 L 485.9969048511213 612.8465656520002" stroke-miterlimit="10" stroke-width="1.3612669416666667" stroke-dasharray="6.53408132"/><g transform="translate(472.54758746745466,612.8465656520002) translate(-472.54758746745466,-612.8465656520002)"><path fill="black" stroke="none" paint-order="stroke fill markers" d=" M 486.16025688412134 606.0402309436669 L 472.54758746745466 612.8465656520002 L 486.16025688412134 619.6529003603335 Z"/></g></g><g><text fill="black" stroke="none" font-family="monospace" font-size="11pt" font-style="normal" font-weight="normal" text-decoration="normal" x="595.1017922221665" y="650.9201548820002" text-anchor="start" dominant-baseline="alphabetic" xml:space="preserve">Save result</text></g><g><path fill="none" stroke="black" paint-order="fill stroke markers" d=" M 472.54758746745466 656.9516145620003 L 801.0066826449696 656.9516145620003" stroke-miterlimit="10" stroke-width="1.3612669416666667" stroke-dasharray=""/><g transform="translate(814.4560000286363,656.9516145620003) translate(-814.4560000286363,-656.9516145620003)"><path fill="black" stroke="none" paint-order="stroke fill markers" d=" M 800.8433306119696 650.1452798536669 L 814.4560000286363 656.9516145620003 L 800.8433306119696 663.7579492703336 Z"/></g></g><g><text fill="black" stroke="none" font-family="monospace" font-size="11pt" font-style="normal" font-weight="normal" text-decoration="normal" x="270.9378658161288" y="719.5280087420003" text-anchor="start" dominant-baseline="alphabetic" xml:space="preserve">Return result</text></g><g><path fill="none" stroke="black" paint-order="fill stroke markers" d=" M 456.2123841674547 725.5594684220004 L 213.5126663743486 725.5594684220004" stroke-miterlimit="10" stroke-width="1.3612669416666667" stroke-dasharray="6.53408132"/><g transform="translate(200.06334899068193,725.5594684220004) translate(-200.06334899068193,-725.5594684220004)"><path fill="black" stroke="none" paint-order="stroke fill markers" d=" M 213.6760184073486 718.753133713667 L 200.06334899068193 725.5594684220004 L 213.6760184073486 732.3658031303337 Z"/></g></g><g><text fill="black" stroke="none" font-family="monospace" font-size="11pt" font-style="normal" font-weight="normal" text-decoration="normal" x="56.34787233519694" y="763.6330576520004" text-anchor="start" dominant-baseline="alphabetic" xml:space="preserve">Show result</text></g><g><path fill="none" stroke="black" paint-order="fill stroke markers" d=" M 183.72814569068194 769.6645173320004 L 39.216919415136395 769.6645173320004" stroke-miterlimit="10" stroke-width="1.3612669416666667" stroke-dasharray="6.53408132"/><g transform="translate(25.76760203146973,769.6645173320004) translate(-25.76760203146973,-769.6645173320004)"><path fill="black" stroke="none" paint-order="stroke fill markers" d=" M 39.3802714481364 762.8581826236671 L 25.76760203146973 769.6645173320004 L 39.3802714481364 776.4708520403337 Z"/></g></g><g><g/><path fill="none" stroke="black" paint-order="fill stroke markers" d=" M 399.03917261745465 342.561778742 L 1079.6672205915756 342.561778742 L 1079.6672205915756 681.4544195120003 L 399.03917261745465 681.4544195120003 L 399.03917261745465 342.561778742 Z" stroke-miterlimit="10" stroke-width="2.3336004714285714" stroke-dasharray=""/><path fill="white" stroke="black" paint-order="fill stroke markers" d=" M 399.03917261745465 342.561778742 L 399.03917261745465 362.164022702 L 452.8595788359849 362.164022702 L 462.6607008159849 352.362900722 L 462.6607008159849 342.561778742 L 399.03917261745465 342.561778742" stroke-miterlimit="10" stroke-width="2.3336004714285714" stroke-dasharray=""/><text fill="black" stroke="none" font-family="monospace" font-size="8.8pt" font-style="normal" font-weight="bold" text-decoration="normal" x="415.37437591745464" y="355.629941382" text-anchor="start" dominant-baseline="alphabetic" xml:space="preserve">opt</text><text fill="black" stroke="none" font-family="monospace" font-size="8.8pt" font-style="normal" font-weight="bold" text-decoration="normal" x="478.9959041159849" y="355.629941382" text-anchor="start" dominant-baseline="alphabetic" xml:space="preserve">[account not in database]</text></g></g><g/><g/><g/><g/><g/><g/><g/></g></svg>