<svg version="1.1" xmlns="http://www.w3.org/2000/svg" xmlns:xlink="http://www.w3.org/1999/xlink" width="948" height="955"><desc>%23%20-----%20font%20-----%0Afontfamily%20monospace%0A%0A%23%20-----%20setup%20components%20-----%0Atitle%20VIEW%20USER%20REPORT%0Aactor%20%23blue%3A0.5%20Operator%0Aparticipant%20%23orange%20Frontend%0Aparticipantgroup%20%23e4fcd9%20Backend%20API%0Aboundary%20%23green%3A0.7%20Endpoint%0Acontrol%20%23red%3A0.7%20Report%20Service%0Aend%0A%0Adatabase%20Database%20%23pink%0A%0A%23%20-----%20to%20show%20bottom%20icons%20-----%0Abottomparticipants%0A%0A%23%20-----%20Activations%20-----%0Aactivate%20Frontend%0Aactivate%20Database%0Aactivate%20Endpoint%0Aactivate%20Report%20Service%0A%0A%23%20-----%20START%20OF%20SEQUENCE%20-----%0AOperator-%3EFrontend%3A%20Get%20on%20Report%20%5CnSummary%20page%0AFrontend-%3EEndpoint%3A%20viewReport()%0AEndpoint-%3EReport%20Service%3A%20requestViewReportList()%0AReport%20Service-%3EDatabase%3A%20getReportList()%0AReport%20Service%3C--Database%3A%20reportList%0AEndpoint%3C--Report%20Service%3A%20reportList%0AFrontend%3C--Endpoint%3A%20reportList%0AOperator%3C-Frontend%3A%20Display%20list%20of%20%5Cnaccounts%20reported%20%5Cnby%20User%0AOperator-%3EFrontend%3A%20click%20'Save'%20button%0AFrontend-%3EEndpoint%3A%20saveReport()%0AEndpoint-%3EReport%20Service%3A%20requestSaveReport(reportID)%0AReport%20Service-%3EDatabase%3A%20upsertReport(reportID)%0AReport%20Service%3C--Database%3A%20success%0AEndpoint%3C--Report%20Service%3A%20success%0AFrontend%3C--Endpoint%3A%20success%0AOperator%3C-Frontend%3A%20Hide%20'Save'%20button%0A%23%20-----%20END%20OF%20SEQUENCE%20-----%0A%0A</desc><defs/><g><g/><g/><g/><g/><g/><g/><g/><g/><g/><g/><g/><g/><g/><g/><g/><g/><g/><g/><g/><g/><g><rect fill="white" stroke="none" x="0" y="0" width="948" height="955"/></g><g><text fill="black" stroke="none" font-family="monospace" font-size="15pt" font-style="normal" font-weight="normal" text-decoration="normal" x="386.4496797150234" y="18.8483115" text-anchor="start" dominant-baseline="alphabetic" xml:space="preserve">VIEW USER REPORT</text></g><g><g><path fill="#e4fcd9" stroke="black" paint-order="fill stroke markers" d=" M 360.8301992628594 42.747970482 L 709.6949705620781 42.747970482 L 709.6949705620781 948.0449373679998 L 360.8301992628594 948.0449373679998 L 360.8301992628594 42.747970482" stroke-miterlimit="10" stroke-width="1.2565541" stroke-dasharray=""/></g><g><text fill="black" stroke="none" font-family="monospace" font-size="10pt" font-style="normal" font-weight="normal" text-decoration="normal" x="494.9537012454766" y="61.596281981999994" text-anchor="start" dominant-baseline="alphabetic" xml:space="preserve">Backend API</text></g></g><g><path fill="none" stroke="black" paint-order="fill stroke markers" d=" M 36.8548763578125 144.855556648 L 36.8548763578125 866.1176100479997" stroke-miterlimit="10" stroke-width="1.2565541" stroke-dasharray="11.598960923076923,5.0262164"/><path fill="none" stroke="black" paint-order="fill stroke markers" d=" M 223.85280300742187 144.855556648 L 223.85280300742187 866.1176100479997" stroke-miterlimit="10" stroke-width="1.2565541" stroke-dasharray="11.598960923076923,5.0262164"/><path fill="none" stroke="black" paint-order="fill stroke markers" d=" M 397.6850756206719 144.855556648 L 397.6850756206719 866.1176100479997" stroke-miterlimit="10" stroke-width="1.2565541" stroke-dasharray="11.598960923076923,5.0262164"/><path fill="none" stroke="black" paint-order="fill stroke markers" d=" M 650.8534303859062 144.855556648 L 650.8534303859062 866.1176100479997" stroke-miterlimit="10" stroke-width="1.2565541" stroke-dasharray="11.598960923076923,5.0262164"/><path fill="none" stroke="black" paint-order="fill stroke markers" d=" M 911.1402364300468 144.855556648 L 911.1402364300468 866.1176100479997" stroke-miterlimit="10" stroke-width="1.2565541" stroke-dasharray="11.598960923076923,5.0262164"/></g><g><g><path fill="white" stroke="blue" paint-order="fill stroke markers" d=" M 45.4497064018125 83.585978732 A 8.594830044 8.594830044 0 1 1 45.449702104397836 83.57738390338847 M 36.8548763578125 92.18080877599999 L 36.8548763578125 110.57676079999999 M 25.998248933812498 98.815414424 L 47.7115037818125 98.815414424 M 36.8548763578125 110.57676079999999 L 25.998248933812498 127.766420888 M 36.8548763578125 110.57676079999999 L 47.7115037818125 127.766420888" stroke-miterlimit="10" stroke-width="1.2816851820000001" stroke-dasharray=""/></g><g><g/><text fill="black" stroke="none" font-family="monospace" font-size="10pt" font-style="normal" font-weight="normal" text-decoration="normal" x="7.5393246000000005" y="140.331961888" text-anchor="start" dominant-baseline="alphabetic" xml:space="preserve">Operator</text></g><path fill="none" stroke="none"/><g><path fill="white" stroke="orange" paint-order="fill stroke markers" d=" M 178.17691686760938 106.656312008 L 269.5286891472344 106.656312008 L 269.5286891472344 144.855556648 L 178.17691686760938 144.855556648 L 178.17691686760938 106.656312008 Z" stroke-miterlimit="10" stroke-width="2.4125838720000004" stroke-dasharray=""/></g><g><g/><text fill="black" stroke="none" font-family="monospace" font-size="10pt" font-style="normal" font-weight="normal" text-decoration="normal" x="194.53725124960937" y="129.776907448" text-anchor="start" dominant-baseline="alphabetic" xml:space="preserve">Frontend</text></g><g><path fill="white" stroke="green" paint-order="fill stroke markers" d=" M 427.6161942826719 104.09294164399999 A 22.391794062000002 22.391794062000002 0 1 1 427.6161830867758 104.07054985366995 M 368.6511365860719 80.80396795459998 L 368.6511365860719 127.3819153334 M 367.7539569586719 104.09294164399999 L 382.83260615867187 104.09294164399999" stroke-miterlimit="10" stroke-width="1.7943592548" stroke-dasharray=""/></g><g><g/><text fill="black" stroke="none" font-family="monospace" font-size="10pt" font-style="normal" font-weight="normal" text-decoration="normal" x="368.3695238628594" y="140.331961888" text-anchor="start" dominant-baseline="alphabetic" xml:space="preserve">Endpoint</text></g><g><path fill="white" stroke="red" paint-order="fill stroke markers" d=" M 673.2452244479063 104.09294164399999 A 22.391794062000002 22.391794062000002 0 1 1 673.2452132520101 104.07054985366995 M 647.8377005459063 81.70114758199999 L 656.8848900659062 74.16182298199999 M 647.8377005459063 81.70114758199999 L 656.8848900659062 89.24047218199999" stroke-miterlimit="10" stroke-width="1.7943592548" stroke-dasharray=""/></g><g><g/><text fill="black" stroke="none" font-family="monospace" font-size="10pt" font-style="normal" font-weight="normal" text-decoration="normal" x="599.5512148097343" y="140.331961888" text-anchor="start" dominant-baseline="alphabetic" xml:space="preserve">Report Service</text></g><g><path fill="pink" stroke="black" paint-order="fill stroke markers" d=" M 889.1254085980468 117.814512416 L 889.1254085980468 86.149349096 L 933.1550642620468 86.149349096 L 933.1550642620468 117.814512416" stroke-miterlimit="10" stroke-width="2.5633703640000003" stroke-dasharray=""/><path fill="pink" stroke="black" paint-order="fill stroke markers" d=" M 933.1550642620468 85.0486077044 L 933.153963529828 85.14812513047688 L 933.150661443244 85.24763260489408 L 933.1451583325005 85.34712017698709 L 933.1374547479043 85.4465778980816 L 933.1275514598071 85.54599582248838 L 933.1154494585297 85.64536400849785 L 933.1011499542622 85.74467251937419 L 933.0846543769428 85.8439114243491 L 933.0659643761157 85.94307079961476 L 933.0450818207654 86.04214072931627 L 933.02200879913 86.14111130654324 L 932.9967476184925 86.23997263432041 L 932.9693008049497 86.3387148265974 L 932.9396711031603 86.43732800923725 L 932.9078614760698 86.53580232100387 L 932.8738751046143 86.63412791454816 L 932.8377153874027 86.7322949573927 L 932.7993859403764 86.830293632915 L 932.7588905964484 86.92811414132919 L 932.7162334051192 87.02574670066593 L 932.6714186320723 87.12318154775068 L 932.624450758748 87.22040893917988 L 932.5753344818943 87.31741915229541 L 932.5240747130978 87.41420248615685 L 932.4706765782928 87.51074926251142 L 932.4151454172484 87.60704982676198 L 932.3574867830342 87.70309454893231 L 932.2977064414657 87.79887382463026 L 932.2358103705272 87.89437807600807 L 932.1718047597743 87.98959775272017 L 932.1056960097147 88.08452333287828 L 932.0374907311683 88.17914532400344 L 931.967195744606 88.27345426397542 L 931.8948180794681 88.36744072197881 L 931.8203649734606 88.46109529944613 L 931.7438438718322 88.55440863099767 L 931.6652624266292 88.64737138537805 L 931.5846284959307 88.73997426638928 L 931.5019501430626 88.83220801382045 L 931.4172356357911 88.92406340437365 L 931.3304934454966 89.0155312525864 L 931.2417322463256 89.10660241175009 L 931.1509609143242 89.1972677748247 L 931.0581885265499 89.28751827534947 L 930.9634243601643 89.37734488834955 L 930.8666778915049 89.46673863123851 L 930.7679587951379 89.55569056471656 L 930.6672769428909 89.64419179366446 L 930.564642402865 89.73223346803307 L 930.4600654384288 89.81980678372832 L 930.3535565071916 89.90690298349165 L 930.2451262599577 89.99351335777561 L 930.1347855396615 90.07962924561498 L 930.0225453802831 90.16524203549274 L 929.9084170057449 90.25034316620123 L 929.7924118287892 90.33492412769832 L 929.6745414498371 90.41897646195831 L 929.5548176558282 90.50249176381784 L 929.4332524190421 90.58546168181633 L 929.3098578959012 90.66787791903108 L 929.1846464257551 90.74973223390711 L 929.0576305296463 90.83101644108109 L 928.9288229090588 90.91172241220006 L 928.798236444647 90.99184207673417 L 928.6658841949488 91.07136742278372 L 928.5317793950787 91.15029049788039 L 928.3959354554052 91.22860340978242 L 928.2583659602086 91.3062983272639 L 928.1190846663242 91.38336748089782 L 927.9781055017651 91.45980316383303 L 927.8354425643304 91.53559773256494 L 927.6911101201948 91.61074360769985 L 927.5451226024826 91.68523327471286 L 927.3974946098239 91.75905928469933 L 927.2482409048948 91.8322142551198 L 927.0973764129416 91.90469087053818 L 926.9449162202875 91.97648188335333 L 926.790875572825 92.04758011452381 L 926.6352698744905 92.11797845428572 L 926.4781146857239 92.18766986286377 L 926.3194257219133 92.25664737117516 L 926.1592188518227 92.32490408152657 L 925.9975100960058 92.39243316830381 L 925.8343156252034 92.4592278786545 L 925.6696517587264 92.52528153316328 L 925.5035349628243 92.5905875265197 L 925.3359818490384 92.65513932817888 L 925.1670091725404 92.71893048301443 L 924.996633830457 92.78195461196404 L 924.8248728601804 92.84420541266734 L 924.6517434376648 92.9056766600961 L 924.4772628757079 92.96636220717684 L 924.3014486222206 93.0262559854054 L 924.1243182584817 93.08535200545388 L 923.94588949738 93.14364435776953 L 923.766180181643 93.20112721316568 L 923.5852082820523 93.25779482340468 L 923.4029918956472 93.31364152177277 L 923.2195492439146 93.36866172364661 L 923.0348986709665 93.42284992705189 L 922.8490586417065 93.47620071321342 L 922.6620477399828 93.52870874709703 L 922.4738846667294 93.58036877794311 L 922.2845882380972 93.63117563979159 L 922.094177383571 93.68112425199867 L 921.9026711440777 93.73020961974471 L 921.7100886700817 93.77842683453387 L 921.5164492196699 93.82577107468485 L 921.3217721566259 93.87223760581307 L 921.1260769484938 93.91782178130416 L 920.9293831646314 93.96251904277854 L 920.7317104742532 94.00632492054731 L 920.5330786444633 94.04923503405921 L 920.3335075382795 94.09124509233864 L 920.1330171126458 94.13235089441478 L 919.9316274164378 94.17254832974169 L 919.7293585884573 94.21183337860931 L 919.5262308554185 94.25020211254552 L 919.3222645299255 94.28765069470887 L 919.1174800084409 94.32417538027238 L 918.911897769246 94.3597725167979 L 918.7055383703937 94.39443854460148 L 918.4984224476517 94.4281699971092 L 918.2905707124397 94.4609635012039 L 918.0820039497581 94.49281577756256 L 917.8727430161093 94.52372364098403 L 917.6628088374123 94.55368400070775 L 917.4522224069101 94.58269386072271 L 917.24100478307 94.61075032006708 L 917.0291770874787 94.63785057311831 L 916.8167605027292 94.66399190987369 L 916.6037762703027 94.6891717162213 L 916.390245688445 94.71338747420151 L 916.1761901100366 94.73663676225868 L 915.9616309404568 94.75891725548342 L 915.7465896354438 94.78022672584494 L 915.5310876989488 94.80056304241397 L 915.315146680986 94.81992417157579 L 915.0987881754771 94.83830817723364 L 914.8820338180925 94.85571322100228 L 914.6649052840872 94.8721375623918 L 914.4474242861338 94.88757955898177 L 914.2296125721508 94.9020376665854 L 914.011491923128 94.91551043940397 L 913.7930841509485 94.92799653017144 L 913.5744110962078 94.93949469028912 L 913.3554946260288 94.9500037699506 L 913.1363566318763 94.95952271825665 L 912.917019027367 94.96805058332039 L 912.6975037460787 94.97558651236241 L 912.4778327393565 94.9821297517961 L 912.258027974118 94.98767964730294 L 912.0381114306566 94.99223564389803 L 911.8181051004433 94.9957972859855 L 911.598030983928 94.99836421740412 L 911.3779110883387 94.99993618146286 L 911.1577674254816 95.00051302096664 L 910.9376220095396 95.00009467823199 L 910.7174968548708 94.99868119509284 L 910.4974139738073 94.99627271289631 L 910.2773953744536 94.99286947248865 L 910.0574630584865 94.98847181419102 L 909.8376390189543 94.9830801777656 L 909.6179452380777 94.97669510237155 L 909.3984036850517 94.96931722651108 L 909.1790363138487 94.96094728796562 L 908.9598650610229 94.95158612372207 L 908.7409118435172 94.94123466988904 L 908.5221985564706 94.92989396160328 L 908.3037470710296 94.9175651329262 L 908.085579232161 94.90424941673035 L 907.8677168564665 94.88994814457628 L 907.6501817300023 94.87466274657929 L 907.4329956060997 94.85839475126643 L 907.2161802031901 94.84114578542368 L 906.9997572026332 94.82291757393324 L 906.7837482465486 94.80371193960109 L 906.5681749356521 94.78353080297462 L 906.3530588270949 94.76237618215073 L 906.1384214323087 94.74025019257384 L 905.9242842148541 94.71715504682447 L 905.7106685882744 94.69309305439795 L 905.4975959139543 94.66806662147349 L 905.2850874989836 94.64207825067349 L 905.0731645940267 94.6151305408134 L 904.8618483911976 94.58722618664176 L 904.6511600219403 94.5583679785707 L 904.4411205549164 94.528558802397 L 904.2317509938973 94.49780163901345 L 904.0230722756648 94.46609956411072 L 903.8151052679169 94.43345574786991 L 903.6078707671809 94.39987345464543 L 903.4013894967342 94.36535604263862 L 903.1956821045318 94.32990696356192 L 902.9907691611415 94.2935297622937 L 902.786671157687 94.25622807652377 L 902.5834085037984 94.2180056363896 L 902.3810015255717 94.17886626410339 L 902.1794704635362 94.13881387356973 L 901.97883547063 94.0978524699943 L 901.7791166101853 94.05598614948332 L 901.5803338539216 94.01321909863395 L 901.382507079949 93.96955559411565 L 901.18565607078 93.92500000224247 L 900.9898005113516 93.87955677853647 L 900.7949599870562 93.83323046728216 L 900.6011539817843 93.78602570107206 L 900.4084018759745 93.73794720034346 L 900.2167229446769 93.68899977290634 L 900.0261363556251 93.63918831346268 L 899.8366611673189 93.58851780311691 L 899.6483163271195 93.53699330887784 L 899.4611206693537 93.48461998315194 L 899.2750929134314 93.43140306322816 L 899.0902516619732 93.37734787075414 L 898.9066153989502 93.32245981120407 L 898.7242024878357 93.26674437333817 L 898.5430311697687 93.2102071286538 L 898.3631195617301 93.15285373082833 L 898.1844856547308 93.09468991515374 L 898.0071473120125 93.0357214979631 L 897.8311222672619 92.975954376049 L 897.6564281228367 92.91539452607387 L 897.4830823480057 92.85404800397218 L 897.311102277202 92.79192094434505 L 897.1405051082894 92.72901955984666 L 896.9713079008425 92.66535014056306 L 896.8035275744412 92.60091905338311 L 896.6371809069782 92.53573274136183 L 896.4722845329816 92.4697977230761 L 896.3088549419515 92.4031205919728 L 896.1469084767108 92.33570801570949 L 895.986461331771 92.2675667354876 L 895.8275295517129 92.19870356537841 L 895.6701290295821 92.1291253916415 L 895.5142755052997 92.05883917203627 L 895.3599845640881 91.98785193512612 L 895.2072716349129 91.91617077957558 L 895.0561519889399 91.84380287344048 L 894.9066407380076 91.77075545345112 L 894.7587528331165 91.69703582428862 L 894.612503062934 91.62265135785447 L 894.4679060523151 91.54760949253333 L 894.3249762608405 91.47191773244919 L 894.18372798137 91.39558364671498 L 894.0441753386141 91.31861486867568 L 893.9063322877206 91.24101909514494 L 893.7702126128797 91.16280408563544 L 893.6358299259457 91.08397766158298 L 893.5031976650752 91.00454770556425 L 893.3723290933837 90.92452216050866 L 893.2432372976192 90.84390902890405 L 893.1159351868539 90.76271637199639 L 892.9904354911927 90.6809523089837 L 892.8667507605005 90.59862501620418 L 892.7448933631475 90.51574272631846 L 892.6248754847719 90.43231372748649 L 892.5067091270613 90.34834636253862 L 892.3904061065531 90.26384902814137 L 892.2759780534525 90.17883017395775 L 892.1634364104693 90.09329830180235 L 892.0527924316741 90.00726196479111 L 891.9440571813727 89.92072976648603 L 891.8372415329994 89.83371036003483 L 891.7323561680299 89.74621244730564 L 891.6294115749135 89.65824477801681 L 891.5284180480237 89.56981614886197 L 891.429385686629 89.48093540263035 L 891.3323243938829 89.3916114273225 L 891.2372438758339 89.30185315526151 L 891.1441536404545 89.2116695621998 L 891.0530629966908 89.12106966642152 L 890.9639810535311 89.03006252784074 L 890.8769167190956 88.93865724709549 L 890.7918786997452 88.84686296463765 L 890.7088754992109 88.75468885981901 L 890.6279154177435 88.6621441499732 L 890.5490065512839 88.56923808949412 L 890.4721567906528 88.47597996891037 L 890.3973738207624 88.3823791139563 L 890.3246651198472 88.28844488463942 L 890.2540379587167 88.19418667430436 L 890.1854994000283 88.09961390869363 L 890.1190562975808 88.00473604500495 L 890.0547152956287 87.90956257094565 L 889.992482828219 87.81410300378381 L 889.9323651185464 87.7183668893966 L 889.8743681783317 87.6223638013157 L 889.8184978072208 87.52610333976989 L 889.7647595922041 87.42959513072512 L 889.7131589070582 87.33284882492187 L 889.6637009118089 87.23587409691008 L 889.6163905522144 87.13868064408176 L 889.571232559271 87.0412781857012 L 889.5282314487408 86.94367646193305 L 889.4873915206987 86.84588523286838 L 889.4487168591036 86.74791427754859 L 889.4122113313892 86.64977339298756 L 889.3778785880783 86.55147239319197 L 889.3457220624163 86.4530211081799 L 889.3157449700288 86.35442938299778 L 889.2879503086006 86.25570707673599 L 889.2623408575741 86.15686406154286 L 889.2389191778735 86.05791022163757 L 889.2176876116471 85.95885545232164 L 889.1986482820337 85.85970965898946 L 889.1818030929505 85.76048275613773 L 889.1671537289025 85.66118466637406 L 889.1547016548136 85.56182531942467 L 889.1444481158811 85.46241465114146 L 889.1363941374502 85.3629626025084 L 889.1305405249122 85.26347911864751 L 889.1268878636233 85.16397414782423 L 889.1254365188466 85.06445764045277 L 889.1261866357155 84.9649395481009 L 889.1291381392189 84.86542982249495 L 889.1342907342087 84.76593841452453 L 889.14164390543 84.66647527324754 L 889.1511969175715 84.56705034489522 L 889.1629488153402 84.46767357187757 L 889.176898423556 84.36835489178904 L 889.1930443472698 84.26910423641492 L 889.2113849719026 84.169931530738 L 889.2319184634072 84.07084669194622 L 889.2546427684516 83.97185962844088 L 889.2795556146242 83.87298023884586 L 889.3066545106612 83.7742184110177 L 889.3359367466956 83.6755840210569 L 889.367399394528 83.57708693232026 L 889.4010393079201 83.47873699443454 L 889.4368531229084 83.38054404231161 L 889.4748372581414 83.28251789516484 L 889.514987915237 83.18466835552725 L 889.5573010791633 83.08700520827128 L 889.6017725186389 82.98953821963026 L 889.648397786557 82.89227713622182 L 889.6971722204296 82.79523168407327 L 889.748090942854 82.69841156764895 L 889.8011488620003 82.6018264688798 L 889.8563406721211 82.50548604619523 L 889.913660854081 82.40939993355722 L 889.9731036759098 82.31357773949696 L 890.0346631933747 82.21802904615402 L 890.0983332505755 82.1227634083181 L 890.1641074805593 82.02779035247357 L 890.2319793059581 81.9331193758469 L 890.3019419396458 81.83875994545686 L 890.3739883854172 81.74472149716784 L 890.4481114386881 81.65101343474632 L 890.5243036872146 81.55764512892046 L 890.6025575118356 81.464625916443 L 890.6828650872337 81.3719650991577 L 890.7652183827183 81.27967194306908 L 890.8496091630286 81.18775567741581 L 890.9360289891567 81.09622549374787 L 891.0244692191922 81.00509054500736 L 891.1149210091857 80.9143599446132 L 891.2073753140335 80.82404276554982 L 891.3018228883823 80.73414803945988 L 891.3982542875533 80.64468475574105 L 891.4966598684869 80.55566186064718 L 891.5970297907071 80.46708825639355 L 891.6993540173053 80.37897280026682 L 891.803622315944 80.29132430373915 L 891.9098242598805 80.20415153158714 L 892.0179492290085 80.1174632010154 L 892.1279864109216 80.03126798078472 L 892.2399248019931 79.9455744903453 L 892.3537532084772 79.86039129897476 L 892.469460247628 79.77572692492127 L 892.5870343488382 79.69158983455168 L 892.7064637547955 79.6079884415049 L 892.827736522659 79.52493110585058 L 892.9508405252528 79.44242613325306 L 893.0757634522794 79.36048177414087 L 893.20249281155 79.27910622288161 L 893.3310159302343 79.1983076169626 L 893.4613199561278 79.11809403617708 L 893.5933918589362 79.03847350181633 L 893.7272184315794 78.95945397586739 L 893.8627862915117 78.88104336021703 L 894.00008188206 78.80324949586148 L 894.1390914737797 78.72608016212233 L 894.2798011658274 78.64954307586865 L 894.4221968873512 78.57364589074528 L 894.5662643988977 78.49839619640751 L 894.7119892938356 78.42380151776203 L 894.8593569997971 78.34986931421457 L 895.0083527801341 78.27660697892387 L 895.1589617353931 78.20402183806239 L 895.3111688048037 78.13212115008375 L 895.4649587677861 78.06091210499682 L 895.620316245472 77.99040182364676 L 895.7772257022432 77.92059735700298 L 895.9356714472846 77.85150568545393 L 896.0956376361538 77.78313371810921 L 896.2571082723654 77.71548829210859 L 896.4200672089902 77.64857617193827 L 896.5844981502703 77.58240404875454 L 896.7503846532486 77.51697853971456 L 896.9177101294131 77.45230618731469 L 897.0864578463556 77.38839345873632 L 897.2566109294451 77.32524674519902 L 897.4281523635149 77.26287236132153 L 897.6010649945647 77.20127654449024 L 897.7753315314754 77.14046545423554 L 897.9509345477387 77.08044517161575 L 898.127856483199 77.02122169860912 L 898.3060796458105 76.96280095751362 L 898.4855862134053 76.90518879035466 L 898.6663582354763 76.84839095830093 L 898.8483776349718 76.79241314108832 L 899.0316262101037 76.7372609364519 L 899.2160856361671 76.68293985956618 L 899.4017374673731 76.62945534249359 L 899.5885631386934 76.57681273364123 L 899.7765439677164 76.52501729722616 L 899.9656611565159 76.47407421274882 L 900.1558957935307 76.42398857447523 L 900.3472288554556 76.37476539092748 L 900.5396412091437 76.3264095843829 L 900.7331136135201 76.27892599038185 L 900.9276267215056 76.23231935724415 L 901.1231610819515 76.18659434559429 L 901.3196971415847 76.14175552789531 L 901.517215246963 76.09780738799165 L 901.7156956464404 76.05475432066063 L 901.9151184921424 76.01260063117316 L 902.1154638419506 75.971350534863 L 902.316711661497 75.93100815670547 L 902.5188418261674 75.89157753090471 L 902.7218341231137 75.85306260049049 L 902.9256682532754 75.81546721692371 L 903.1303238334092 75.77879513971143 L 903.3357803981279 75.7430500360308 L 903.542017401946 75.7082354803624 L 903.7490142213352 75.67435495413278 L 903.9567501567858 75.64141184536635 L 904.1652044348776 75.60940944834651 L 904.3743562103564 75.57835096328631 L 904.5841845682189 75.54823949600836 L 904.7946685258044 75.5190780576343 L 905.0057870348921 75.49086956428367 L 905.2175189838075 75.4636168367823 L 905.4298431995319 75.43732260038023 L 905.6427384498206 75.41198948447916 L 905.8561834453262 75.38762002236962 L 906.0701568417269 75.36421665097748 L 906.2846372418613 75.34178171062038 L 906.4996031978683 75.32031744477366 L 906.7150332133313 75.29982599984604 L 906.9309057454283 75.2803094249649 L 907.1471992070859 75.26176967177149 L 907.3638919691384 75.24420859422567 L 907.58096236249 75.22762794842055 L 907.7983886802824 75.21202939240692 L 908.0161491800649 75.19741448602736 L 908.2342220859689 75.18378469076035 L 908.4525855908856 75.17114136957403 L 908.6712178586466 75.15948578679 L 908.8900970262073 75.14881910795683 L 909.1092012058332 75.1391423997335 L 909.328508487289 75.13045662978278 L 909.5479969400293 75.12276266667443 L 909.7676446153918 75.11606127979833 L 909.9874295487919 75.11035313928761 L 910.2073297619194 75.10563881595154 L 910.4273232649363 75.10191878121854 L 910.6473880586757 75.09919340708898 L 910.8675021368415 75.09746296609799 L 911.0876434882093 75.09672763128825 L 911.3077900988275 75.0969874761926 L 911.5279199542184 75.09824247482679 L 911.74801104158 75.100492501692 L 911.9680413519869 75.1037373317874 L 912.1879888825914 75.10797664063271 L 912.4078316388238 75.11321000430056 L 912.6275476365918 75.11943689945895 L 912.8471149044784 75.12665670342355 L 913.0665114859399 75.13486869421997 L 913.2857154415012 75.144072050656 L 913.5047048509491 75.15426585240365 L 913.7234578155254 75.16544908009125 L 913.9419524601158 75.17762061540535 L 914.1601669354379 75.19077924120253 L 914.3780794202262 75.20492364163121 L 914.5956681234136 75.22005240226312 L 914.8129112863111 75.23616401023482 L 915.0297871847836 75.25325685439893 L 915.2462741314218 75.27132922548526 L 915.4623504777118 75.29037931627178 L 915.6779946161986 75.31040522176528 L 915.8931849826482 75.33140493939192 L 916.1079000582034 75.35337636919739 L 916.3221183715355 75.37631731405708 L 916.5358185009916 75.40022547989557 L 916.748979076737 75.42509847591622 L 916.9615787828916 75.45093381484014 L 917.173596359662 75.477728913155 L 917.3850106054673 75.50548109137328 L 917.5958003790589 75.53418757430028 L 917.8059446016354 75.56384549131162 L 918.0154222589493 75.59445187664035 L 918.2242124034098 75.62600366967341 L 918.432294156176 75.6584977152578 L 918.6396467092464 75.69193076401602 L 918.8462493275384 75.72629947267109 L 919.0520813509623 75.76160040438077 L 919.2571221964873 75.7978300290813 L 919.4613513601997 75.8349847238404 L 919.6647484193534 75.87306077321958 L 919.8672930344118 75.9120543696456 L 920.0689649510823 75.95196161379133 L 920.2697440023413 75.99277851496561 L 920.469610110451 76.03450099151233 L 920.668543288967 76.07712487121861 L 920.8665236447374 76.12064589173201 L 921.0635313798916 76.16505970098672 L 921.2595467938202 76.21036185763883 L 921.454550285145 76.25654783151045 L 921.6485223536797 76.30361300404266 L 921.8414436023788 76.35155266875745 L 922.0332947392784 76.40036203172826 L 922.2240565794245 76.4500362120595 L 922.4137100467922 76.50057024237452 L 922.6022361761927 76.5519590693124 L 922.7896161151704 76.60419755403328 L 922.9758311258871 76.65728047273221 L 923.1608625869974 76.71120251716155 L 923.344691995509 76.76595829516181 L 923.5273009686346 76.8215423312008 L 923.7086712456287 76.87794906692125 L 923.8887846896149 76.93517286169659 L 924.067623289399 76.99320799319501 L 924.2451691612698 77.05204865795176 L 924.4214045507883 77.11168897194936 L 924.5963118345624 77.17212297120615 L 924.7698735220093 77.23334461237253 L 924.9420722571051 77.29534777333542 L 925.1128908201197 77.35812625383038 L 925.282312129339 77.4216737760617 L 925.4503192427735 77.48598398533008 L 925.6168953598517 77.5510504506682 L 925.7820238231008 77.61686666548377 L 925.945688119812 77.68342604821011 L 926.107871883692 77.75072194296445 L 926.2685588964997 77.81874762021339 L 926.4277330896676 77.88749627744588 L 926.5853785459092 77.95696103985348 L 926.7414795008101 78.02713496101786 L 926.8960203444049 78.09801102360537 L 927.048985622738 78.16958214006881 L 927.200360039409 78.24184115335619 L 927.3501284571025 78.31478083762639 L 927.4982758991016 78.38839389897176 L 927.6447875507854 78.4626729761475 L 927.7896487611108 78.53761064130781 L 927.9328450440776 78.61319940074863 L 928.0743620801768 78.68943169565698 L 928.2141857178227 78.7662999028669 L 928.3523019747681 78.84379633562176 L 928.4886970395023 78.92191324434282 L 928.6233572726327 79.00064281740433 L 928.7562692082479 79.07997718191459 L 928.8874195552653 79.15990840450324 L 929.0167951987595 79.24042849211466 L 929.1443832012739 79.32152939280718 L 929.2701708041145 79.40320299655829 L 929.3941454286261 79.48544113607572 L 929.5162946774492 79.56823558761401 L 929.636606335761 79.65157807179702 L 929.7550683724958 79.73546025444578 L 929.8716689415486 79.81987374741193 L 929.9863963829598 79.90481010941652 L 930.0992392240807 79.99026084689412 L 930.2101861807214 80.07621741484219 L 930.3192261582785 80.16267121767558 L 930.4263482528454 80.24961361008603 L 930.5315417523016 80.33703589790677 L 930.6347961373849 80.42492933898187 L 930.736101082743 80.51328514404045 L 930.8354464579655 80.60209447757565 L 930.932822328598 80.6913484587281 L 931.0282189571343 80.7810381621741 L 931.1216268039913 80.87115461901801 L 931.2130365284619 80.96168881768928 L 931.3024389896499 81.05263170484345 L 931.3898252473838 81.14397418626761 L 931.4751865631105 81.23570712778974 L 931.5585144007696 81.32782135619212 L 931.6398004276468 81.42030766012867 L 931.7190365152073 81.51315679104607 L 931.7962147399081 81.60635946410862 L 931.8713273839912 81.69990635912666 L 931.9443669362548 81.79378812148866 L 932.0153260928045 81.8879953630966 L 932.0841977577837 81.98251866330484 L 932.1509750440835 82.07734856986212 L 932.2156512740306 82.17247559985682 L 932.2782199800562 82.26789024066521 L 932.3386749053417 82.36358295090271 L 932.397010004445 82.45954416137805 L 932.4532194439048 82.55576427605014 L 932.5072976028239 82.6522336729877 L 932.5592390734316 82.74894270533143 L 932.609038661624 82.8458817022587 L 932.656691387484 82.94304096995057 L 932.7021924857785 83.04041079256126 L 932.7455374064356 83.13798143318964 L 932.7867218149994 83.23574313485295 L 932.8257415930635 83.3336861214625 L 932.8625928386824 83.43180059880126 L 932.8972718667624 83.53007675550325 L 932.9297752094295 83.62850476403467 L 932.9600996163766 83.72707478167672 L 932.9882420551882 83.82577695150978 L 933.0141997116439 83.9246014033991 L 933.0379699899996 84.02353825498184 L 933.0595505132475 84.1225776126553 L 933.078939123353 84.22170957256627 L 933.0961338814714 84.32092422160132 L 933.1111330681412 84.42021163837826 L 933.1239351834562 84.51956189423814 L 933.1345389472156 84.61896505423816 L 933.1429432990517 84.71841117814516 L 933.1491473985365 84.81789032142963 L 933.1531506252651 84.91739253626012 L 933.1549525789181 85.0169078724981 M 933.1550642620468 116.7137710244 L 933.153963529828 116.81328845047689 L 933.150661443244 116.91279592489408 L 933.1451583325005 117.0122834969871 L 933.1374547479043 117.1117412180816 L 933.1275514598071 117.21115914248838 L 933.1154494585297 117.31052732849786 L 933.1011499542622 117.4098358393742 L 933.0846543769428 117.5090747443491 L 933.0659643761157 117.60823411961476 L 933.0450818207654 117.70730404931628 L 933.02200879913 117.80627462654324 L 932.9967476184925 117.90513595432041 L 932.9693008049497 118.0038781465974 L 932.9396711031603 118.10249132923725 L 932.9078614760698 118.20096564100388 L 932.8738751046143 118.29929123454816 L 932.8377153874027 118.3974582773927 L 932.7993859403764 118.495456952915 L 932.7588905964484 118.5932774613292 L 932.7162334051192 118.69091002066594 L 932.6714186320723 118.78834486775068 L 932.624450758748 118.88557225917988 L 932.5753344818943 118.98258247229542 L 932.5240747130978 119.07936580615686 L 932.4706765782928 119.17591258251143 L 932.4151454172484 119.27221314676198 L 932.3574867830342 119.36825786893232 L 932.2977064414657 119.46403714463027 L 932.2358103705272 119.55954139600807 L 932.1718047597743 119.65476107272018 L 932.1056960097147 119.74968665287828 L 932.0374907311683 119.84430864400345 L 931.967195744606 119.93861758397543 L 931.8948180794681 120.03260404197881 L 931.8203649734606 120.12625861944613 L 931.7438438718322 120.21957195099768 L 931.6652624266292 120.31253470537806 L 931.5846284959307 120.40513758638929 L 931.5019501430626 120.49737133382045 L 931.4172356357911 120.58922672437366 L 931.3304934454966 120.6806945725864 L 931.2417322463256 120.7717657317501 L 931.1509609143242 120.8624310948247 L 931.0581885265499 120.95268159534947 L 930.9634243601643 121.04250820834956 L 930.8666778915049 121.13190195123852 L 930.7679587951379 121.22085388471656 L 930.6672769428909 121.30935511366447 L 930.564642402865 121.39739678803308 L 930.4600654384288 121.48497010372833 L 930.3535565071916 121.57206630349165 L 930.2451262599577 121.65867667777562 L 930.1347855396615 121.74479256561499 L 930.0225453802831 121.83040535549274 L 929.9084170057449 121.91550648620124 L 929.7924118287892 122.00008744769832 L 929.6745414498371 122.08413978195831 L 929.5548176558282 122.16765508381785 L 929.4332524190421 122.25062500181633 L 929.3098578959012 122.33304123903109 L 929.1846464257551 122.41489555390712 L 929.0576305296463 122.4961797610811 L 928.9288229090588 122.57688573220007 L 928.798236444647 122.65700539673418 L 928.6658841949488 122.73653074278373 L 928.5317793950787 122.8154538178804 L 928.3959354554052 122.89376672978243 L 928.2583659602086 122.97146164726391 L 928.1190846663242 123.04853080089782 L 927.9781055017651 123.12496648383303 L 927.8354425643304 123.20076105256494 L 927.6911101201948 123.27590692769985 L 927.5451226024826 123.35039659471286 L 927.3974946098239 123.42422260469934 L 927.2482409048948 123.4973775751198 L 927.0973764129416 123.56985419053818 L 926.9449162202875 123.64164520335333 L 926.790875572825 123.71274343452382 L 926.6352698744905 123.78314177428572 L 926.4781146857239 123.85283318286378 L 926.3194257219133 123.92181069117517 L 926.1592188518227 123.99006740152657 L 925.9975100960058 124.05759648830382 L 925.8343156252034 124.12439119865451 L 925.6696517587264 124.19044485316329 L 925.5035349628243 124.2557508465197 L 925.3359818490384 124.32030264817888 L 925.1670091725404 124.38409380301444 L 924.996633830457 124.44711793196404 L 924.8248728601804 124.50936873266734 L 924.6517434376648 124.57083998009611 L 924.4772628757079 124.63152552717685 L 924.3014486222206 124.6914193054054 L 924.1243182584817 124.75051532545389 L 923.94588949738 124.80880767776954 L 923.766180181643 124.86629053316568 L 923.5852082820523 124.92295814340468 L 923.4029918956472 124.97880484177277 L 923.2195492439146 125.03382504364662 L 923.0348986709665 125.08801324705189 L 922.8490586417065 125.14136403321342 L 922.6620477399828 125.19387206709703 L 922.4738846667294 125.24553209794311 L 922.2845882380972 125.2963389597916 L 922.094177383571 125.34628757199867 L 921.9026711440777 125.39537293974472 L 921.7100886700817 125.44359015453388 L 921.5164492196699 125.49093439468486 L 921.3217721566259 125.53740092581307 L 921.1260769484938 125.58298510130416 L 920.9293831646314 125.62768236277854 L 920.7317104742532 125.67148824054732 L 920.5330786444633 125.71439835405921 L 920.3335075382795 125.75640841233864 L 920.1330171126458 125.79751421441479 L 919.9316274164378 125.83771164974169 L 919.7293585884573 125.87699669860932 L 919.5262308554185 125.91536543254553 L 919.3222645299255 125.95281401470888 L 919.1174800084409 125.98933870027238 L 918.911897769246 126.02493583679791 L 918.7055383703937 126.05960186460149 L 918.4984224476517 126.0933333171092 L 918.2905707124397 126.12612682120391 L 918.0820039497581 126.15797909756256 L 917.8727430161093 126.18888696098404 L 917.6628088374123 126.21884732070775 L 917.4522224069101 126.24785718072272 L 917.24100478307 126.27591364006709 L 917.0291770874787 126.30301389311832 L 916.8167605027292 126.32915522987369 L 916.6037762703027 126.3543350362213 L 916.390245688445 126.37855079420152 L 916.1761901100366 126.40180008225869 L 915.9616309404568 126.42408057548343 L 915.7465896354438 126.44539004584495 L 915.5310876989488 126.46572636241397 L 915.315146680986 126.4850874915758 L 915.0987881754771 126.50347149723365 L 914.8820338180925 126.52087654100228 L 914.6649052840872 126.5373008823918 L 914.4474242861338 126.55274287898177 L 914.2296125721508 126.5672009865854 L 914.011491923128 126.58067375940398 L 913.7930841509485 126.59315985017145 L 913.5744110962078 126.60465801028913 L 913.3554946260288 126.6151670899506 L 913.1363566318763 126.62468603825666 L 912.917019027367 126.6332139033204 L 912.6975037460787 126.64074983236242 L 912.4778327393565 126.6472930717961 L 912.258027974118 126.65284296730294 L 912.0381114306566 126.65739896389803 L 911.8181051004433 126.66096060598551 L 911.598030983928 126.66352753740412 L 911.3779110883387 126.66509950146286 L 911.1577674254816 126.66567634096664 L 910.9376220095396 126.665257998232 L 910.7174968548708 126.66384451509285 L 910.4974139738073 126.66143603289632 L 910.2773953744536 126.65803279248865 L 910.0574630584865 126.65363513419102 L 909.8376390189543 126.6482434977656 L 909.6179452380777 126.64185842237156 L 909.3984036850517 126.63448054651109 L 909.1790363138487 126.62611060796563 L 908.9598650610229 126.61674944372207 L 908.7409118435172 126.60639798988905 L 908.5221985564706 126.59505728160329 L 908.3037470710296 126.5827284529262 L 908.085579232161 126.56941273673036 L 907.8677168564665 126.55511146457629 L 907.6501817300023 126.5398260665793 L 907.4329956060997 126.52355807126644 L 907.2161802031901 126.50630910542368 L 906.9997572026332 126.48808089393324 L 906.7837482465486 126.46887525960109 L 906.5681749356521 126.44869412297463 L 906.3530588270949 126.42753950215074 L 906.1384214323087 126.40541351257384 L 905.9242842148541 126.38231836682448 L 905.7106685882744 126.35825637439795 L 905.4975959139543 126.33322994147349 L 905.2850874989836 126.3072415706735 L 905.0731645940267 126.2802938608134 L 904.8618483911976 126.25238950664176 L 904.6511600219403 126.2235312985707 L 904.4411205549164 126.193722122397 L 904.2317509938973 126.16296495901345 L 904.0230722756648 126.13126288411073 L 903.8151052679169 126.09861906786992 L 903.6078707671809 126.06503677464544 L 903.4013894967342 126.03051936263863 L 903.1956821045318 125.99507028356193 L 902.9907691611415 125.9586930822937 L 902.786671157687 125.92139139652377 L 902.5834085037984 125.88316895638961 L 902.3810015255717 125.8440295841034 L 902.1794704635362 125.80397719356974 L 901.97883547063 125.7630157899943 L 901.7791166101853 125.72114946948332 L 901.5803338539216 125.67838241863396 L 901.382507079949 125.63471891411565 L 901.18565607078 125.59016332224247 L 900.9898005113516 125.54472009853647 L 900.7949599870562 125.49839378728217 L 900.6011539817843 125.45118902107207 L 900.4084018759745 125.40311052034346 L 900.2167229446769 125.35416309290635 L 900.0261363556251 125.30435163346269 L 899.8366611673189 125.25368112311692 L 899.6483163271195 125.20215662887784 L 899.4611206693537 125.14978330315195 L 899.2750929134314 125.09656638322816 L 899.0902516619732 125.04251119075414 L 898.9066153989502 124.98762313120407 L 898.7242024878357 124.93190769333818 L 898.5430311697687 124.87537044865381 L 898.3631195617301 124.81801705082833 L 898.1844856547308 124.75985323515374 L 898.0071473120125 124.7008848179631 L 897.8311222672619 124.64111769604901 L 897.6564281228367 124.58055784607387 L 897.4830823480057 124.51921132397219 L 897.311102277202 124.45708426434506 L 897.1405051082894 124.39418287984667 L 896.9713079008425 124.33051346056307 L 896.8035275744412 124.26608237338311 L 896.6371809069782 124.20089606136183 L 896.4722845329816 124.1349610430761 L 896.3088549419515 124.0682839119728 L 896.1469084767108 124.00087133570949 L 895.986461331771 123.93273005548761 L 895.8275295517129 123.86386688537841 L 895.6701290295821 123.7942887116415 L 895.5142755052997 123.72400249203628 L 895.3599845640881 123.65301525512612 L 895.2072716349129 123.58133409957559 L 895.0561519889399 123.50896619344049 L 894.9066407380076 123.43591877345112 L 894.7587528331165 123.36219914428862 L 894.612503062934 123.28781467785447 L 894.4679060523151 123.21277281253333 L 894.3249762608405 123.13708105244919 L 894.18372798137 123.06074696671499 L 894.0441753386141 122.98377818867569 L 893.9063322877206 122.90618241514494 L 893.7702126128797 122.82796740563545 L 893.6358299259457 122.74914098158298 L 893.5031976650752 122.66971102556425 L 893.3723290933837 122.58968548050866 L 893.2432372976192 122.50907234890406 L 893.1159351868539 122.4278796919964 L 892.9904354911927 122.34611562898371 L 892.8667507605005 122.26378833620419 L 892.7448933631475 122.18090604631847 L 892.6248754847719 122.09747704748649 L 892.5067091270613 122.01350968253863 L 892.3904061065531 121.92901234814137 L 892.2759780534525 121.84399349395775 L 892.1634364104693 121.75846162180235 L 892.0527924316741 121.67242528479112 L 891.9440571813727 121.58589308648604 L 891.8372415329994 121.49887368003483 L 891.7323561680299 121.41137576730564 L 891.6294115749135 121.32340809801681 L 891.5284180480237 121.23497946886198 L 891.429385686629 121.14609872263036 L 891.3323243938829 121.0567747473225 L 891.2372438758339 120.96701647526152 L 891.1441536404545 120.8768328821998 L 891.0530629966908 120.78623298642152 L 890.9639810535311 120.69522584784075 L 890.8769167190956 120.6038205670955 L 890.7918786997452 120.51202628463766 L 890.7088754992109 120.41985217981902 L 890.6279154177435 120.3273074699732 L 890.5490065512839 120.23440140949413 L 890.4721567906528 120.14114328891037 L 890.3973738207624 120.04754243395631 L 890.3246651198472 119.95360820463942 L 890.2540379587167 119.85934999430437 L 890.1854994000283 119.76477722869363 L 890.1190562975808 119.66989936500495 L 890.0547152956287 119.57472589094566 L 889.992482828219 119.47926632378382 L 889.9323651185464 119.38353020939661 L 889.8743681783317 119.2875271213157 L 889.8184978072208 119.1912666597699 L 889.7647595922041 119.09475845072512 L 889.7131589070582 118.99801214492187 L 889.6637009118089 118.90103741691009 L 889.6163905522144 118.80384396408176 L 889.571232559271 118.7064415057012 L 889.5282314487408 118.60883978193306 L 889.4873915206987 118.51104855286839 L 889.4487168591036 118.4130775975486 L 889.4122113313892 118.31493671298756 L 889.3778785880783 118.21663571319198 L 889.3457220624163 118.1181844281799 L 889.3157449700288 118.01959270299778 L 889.2879503086006 117.92087039673599 L 889.2623408575741 117.82202738154287 L 889.2389191778735 117.72307354163758 L 889.2176876116471 117.62401877232165 L 889.1986482820337 117.52487297898946 L 889.1818030929505 117.42564607613774 L 889.1671537289025 117.32634798637406 L 889.1547016548136 117.22698863942468 L 889.1444481158811 117.12757797114146 L 889.1363941374502 117.02812592250841 L 889.1305405249122 116.92864243864751 L 889.1268878636233 116.82913746782424 L 889.1254365188466 116.72962096045278" stroke-miterlimit="10" stroke-width="2.5633703640000003" stroke-dasharray=""/></g><g><g/><text fill="black" stroke="none" font-family="monospace" font-size="10pt" font-style="normal" font-weight="normal" text-decoration="normal" x="881.8246846722343" y="140.331961888" text-anchor="start" dominant-baseline="alphabetic" xml:space="preserve">Database</text></g><g><path fill="white" stroke="blue" paint-order="fill stroke markers" d=" M 45.4497064018125 893.0832610339997 A 8.594830044 8.594830044 0 1 1 45.449702104397836 893.0746662053882 M 36.8548763578125 901.6780910779997 L 36.8548763578125 920.0740431019998 M 25.998248933812498 908.3126967259998 L 47.7115037818125 908.3126967259998 M 36.8548763578125 920.0740431019998 L 25.998248933812498 937.2637031899998 M 36.8548763578125 920.0740431019998 L 47.7115037818125 937.2637031899998" stroke-miterlimit="10" stroke-width="1.2816851820000001" stroke-dasharray=""/></g><g><g/><text fill="black" stroke="none" font-family="monospace" font-size="10pt" font-style="normal" font-weight="normal" text-decoration="normal" x="7.5393246000000005" y="878.6831510479997" text-anchor="start" dominant-baseline="alphabetic" xml:space="preserve">Operator</text></g><path fill="none" stroke="none"/><g><path fill="white" stroke="orange" paint-order="fill stroke markers" d=" M 178.17691686760938 866.1176100479997 L 269.5286891472344 866.1176100479997 L 269.5286891472344 904.3168546879997 L 178.17691686760938 904.3168546879997 L 178.17691686760938 866.1176100479997 Z" stroke-miterlimit="10" stroke-width="2.4125838720000004" stroke-dasharray=""/></g><g><g/><text fill="black" stroke="none" font-family="monospace" font-size="10pt" font-style="normal" font-weight="normal" text-decoration="normal" x="194.53725124960937" y="889.2382054879997" text-anchor="start" dominant-baseline="alphabetic" xml:space="preserve">Frontend</text></g><g><path fill="white" stroke="green" paint-order="fill stroke markers" d=" M 427.6161942826719 908.1619102339998 A 22.391794062000002 22.391794062000002 0 1 1 427.6161830867758 908.1395184436698 M 368.6511365860719 884.8729365445998 L 368.6511365860719 931.4508839233998 M 367.7539569586719 908.1619102339998 L 382.83260615867187 908.1619102339998" stroke-miterlimit="10" stroke-width="1.7943592548" stroke-dasharray=""/></g><g><g/><text fill="black" stroke="none" font-family="monospace" font-size="10pt" font-style="normal" font-weight="normal" text-decoration="normal" x="368.3695238628594" y="878.6831510479997" text-anchor="start" dominant-baseline="alphabetic" xml:space="preserve">Endpoint</text></g><g><path fill="white" stroke="red" paint-order="fill stroke markers" d=" M 673.2452244479063 914.4195496519998 A 22.391794062000002 22.391794062000002 0 1 1 673.2452132520101 914.3971578616697 M 647.8377005459063 892.0277555899997 L 656.8848900659062 884.4884309899998 M 647.8377005459063 892.0277555899997 L 656.8848900659062 899.5670801899997" stroke-miterlimit="10" stroke-width="1.7943592548" stroke-dasharray=""/></g><g><g/><text fill="black" stroke="none" font-family="monospace" font-size="10pt" font-style="normal" font-weight="normal" text-decoration="normal" x="599.5512148097343" y="878.6831510479997" text-anchor="start" dominant-baseline="alphabetic" xml:space="preserve">Report Service</text></g><g><path fill="pink" stroke="black" paint-order="fill stroke markers" d=" M 889.1254085980468 927.3871879639997 L 889.1254085980468 895.7220246439997 L 933.1550642620468 895.7220246439997 L 933.1550642620468 927.3871879639997" stroke-miterlimit="10" stroke-width="2.5633703640000003" stroke-dasharray=""/><path fill="pink" stroke="black" paint-order="fill stroke markers" d=" M 933.1550642620468 894.6212832523997 L 933.153963529828 894.7208006784766 L 933.150661443244 894.8203081528939 L 933.1451583325005 894.9197957249868 L 933.1374547479043 895.0192534460814 L 933.1275514598071 895.1186713704881 L 933.1154494585297 895.2180395564976 L 933.1011499542622 895.3173480673739 L 933.0846543769428 895.4165869723488 L 933.0659643761157 895.5157463476145 L 933.0450818207654 895.614816277316 L 933.02200879913 895.713786854543 L 932.9967476184925 895.8126481823201 L 932.9693008049497 895.9113903745971 L 932.9396711031603 896.0100035572369 L 932.9078614760698 896.1084778690037 L 932.8738751046143 896.2068034625479 L 932.8377153874027 896.3049705053925 L 932.7993859403764 896.4029691809147 L 932.7588905964484 896.5007896893289 L 932.7162334051192 896.5984222486657 L 932.6714186320723 896.6958570957504 L 932.624450758748 896.7930844871796 L 932.5753344818943 896.8900947002952 L 932.5240747130978 896.9868780341566 L 932.4706765782928 897.0834248105111 L 932.4151454172484 897.1797253747617 L 932.3574867830342 897.2757700969321 L 932.2977064414657 897.3715493726299 L 932.2358103705272 897.4670536240078 L 932.1718047597743 897.5622733007199 L 932.1056960097147 897.657198880878 L 932.0374907311683 897.7518208720032 L 931.967195744606 897.8461298119752 L 931.8948180794681 897.9401162699786 L 931.8203649734606 898.0337708474459 L 931.7438438718322 898.1270841789974 L 931.6652624266292 898.2200469333778 L 931.5846284959307 898.312649814389 L 931.5019501430626 898.4048835618202 L 931.4172356357911 898.4967389523734 L 931.3304934454966 898.5882068005861 L 931.2417322463256 898.6792779597498 L 931.1509609143242 898.7699433228245 L 931.0581885265499 898.8601938233492 L 930.9634243601643 898.9500204363493 L 930.8666778915049 899.0394141792383 L 930.7679587951379 899.1283661127163 L 930.6672769428909 899.2168673416642 L 930.564642402865 899.3049090160329 L 930.4600654384288 899.392482331728 L 930.3535565071916 899.4795785314914 L 930.2451262599577 899.5661889057753 L 930.1347855396615 899.6523047936147 L 930.0225453802831 899.7379175834925 L 929.9084170057449 899.823018714201 L 929.7924118287892 899.9075996756981 L 929.6745414498371 899.991652009958 L 929.5548176558282 900.0751673118176 L 929.4332524190421 900.158137229816 L 929.3098578959012 900.2405534670308 L 929.1846464257551 900.3224077819068 L 929.0576305296463 900.4036919890808 L 928.9288229090588 900.4843979601998 L 928.798236444647 900.5645176247339 L 928.6658841949488 900.6440429707835 L 928.5317793950787 900.7229660458801 L 928.3959354554052 900.8012789577822 L 928.2583659602086 900.8789738752637 L 928.1190846663242 900.9560430288975 L 927.9781055017651 901.0324787118327 L 927.8354425643304 901.1082732805647 L 927.6911101201948 901.1834191556995 L 927.5451226024826 901.2579088227126 L 927.3974946098239 901.3317348326991 L 927.2482409048948 901.4048898031195 L 927.0973764129416 901.4773664185379 L 926.9449162202875 901.549157431353 L 926.790875572825 901.6202556625235 L 926.6352698744905 901.6906540022854 L 926.4781146857239 901.7603454108635 L 926.3194257219133 901.829322919175 L 926.1592188518227 901.8975796295263 L 925.9975100960058 901.9651087163036 L 925.8343156252034 902.0319034266543 L 925.6696517587264 902.097957081163 L 925.5035349628243 902.1632630745195 L 925.3359818490384 902.2278148761786 L 925.1670091725404 902.2916060310142 L 924.996633830457 902.3546301599638 L 924.8248728601804 902.4168809606671 L 924.6517434376648 902.4783522080959 L 924.4772628757079 902.5390377551765 L 924.3014486222206 902.5989315334051 L 924.1243182584817 902.6580275534536 L 923.94588949738 902.7163199057693 L 923.766180181643 902.7738027611654 L 923.5852082820523 902.8304703714044 L 923.4029918956472 902.8863170697725 L 923.2195492439146 902.9413372716464 L 923.0348986709665 902.9955254750516 L 922.8490586417065 903.0488762612132 L 922.6620477399828 903.1013842950968 L 922.4738846667294 903.1530443259428 L 922.2845882380972 903.2038511877913 L 922.094177383571 903.2537997999984 L 921.9026711440777 903.3028851677444 L 921.7100886700817 903.3511023825337 L 921.5164492196699 903.3984466226846 L 921.3217721566259 903.4449131538128 L 921.1260769484938 903.4904973293039 L 920.9293831646314 903.5351945907782 L 920.7317104742532 903.5790004685471 L 920.5330786444633 903.621910582059 L 920.3335075382795 903.6639206403383 L 920.1330171126458 903.7050264424145 L 919.9316274164378 903.7452238777414 L 919.7293585884573 903.7845089266091 L 919.5262308554185 903.8228776605453 L 919.3222645299255 903.8603262427087 L 919.1174800084409 903.8968509282721 L 918.911897769246 903.9324480647977 L 918.7055383703937 903.9671140926013 L 918.4984224476517 904.000845545109 L 918.2905707124397 904.0336390492037 L 918.0820039497581 904.0654913255623 L 917.8727430161093 904.0963991889838 L 917.6628088374123 904.1263595487075 L 917.4522224069101 904.1553694087224 L 917.24100478307 904.1834258680668 L 917.0291770874787 904.210526121118 L 916.8167605027292 904.2366674578734 L 916.6037762703027 904.261847264221 L 916.390245688445 904.2860630222012 L 916.1761901100366 904.3093123102584 L 915.9616309404568 904.3315928034832 L 915.7465896354438 904.3529022738446 L 915.5310876989488 904.3732385904137 L 915.315146680986 904.3925997195755 L 915.0987881754771 904.4109837252333 L 914.8820338180925 904.428388769002 L 914.6649052840872 904.4448131103916 L 914.4474242861338 904.4602551069815 L 914.2296125721508 904.4747132145851 L 914.011491923128 904.4881859874037 L 913.7930841509485 904.5006720781712 L 913.5744110962078 904.5121702382888 L 913.3554946260288 904.5226793179503 L 913.1363566318763 904.5321982662564 L 912.917019027367 904.5407261313202 L 912.6975037460787 904.5482620603622 L 912.4778327393565 904.5548052997958 L 912.258027974118 904.5603551953027 L 912.0381114306566 904.5649111918977 L 911.8181051004433 904.5684728339852 L 911.598030983928 904.5710397654038 L 911.3779110883387 904.5726117294626 L 911.1577674254816 904.5731885689664 L 910.9376220095396 904.5727702262317 L 910.7174968548708 904.5713567430926 L 910.4974139738073 904.568948260896 L 910.2773953744536 904.5655450204883 L 910.0574630584865 904.5611473621907 L 909.8376390189543 904.5557557257654 L 909.6179452380777 904.5493706503713 L 909.3984036850517 904.5419927745108 L 909.1790363138487 904.5336228359654 L 908.9598650610229 904.5242616717218 L 908.7409118435172 904.5139102178888 L 908.5221985564706 904.5025695096031 L 908.3037470710296 904.4902406809259 L 908.085579232161 904.4769249647301 L 907.8677168564665 904.462623692576 L 907.6501817300023 904.447338294579 L 907.4329956060997 904.4310702992661 L 907.2161802031901 904.4138213334234 L 906.9997572026332 904.395593121933 L 906.7837482465486 904.3763874876008 L 906.5681749356521 904.3562063509744 L 906.3530588270949 904.3350517301504 L 906.1384214323087 904.3129257405735 L 905.9242842148541 904.2898305948243 L 905.7106685882744 904.2657686023977 L 905.4975959139543 904.2407421694733 L 905.2850874989836 904.2147537986732 L 905.0731645940267 904.1878060888131 L 904.8618483911976 904.1599017346415 L 904.6511600219403 904.1310435265705 L 904.4411205549164 904.1012343503968 L 904.2317509938973 904.0704771870131 L 904.0230722756648 904.0387751121104 L 903.8151052679169 904.0061312958696 L 903.6078707671809 903.9725490026452 L 903.4013894967342 903.9380315906384 L 903.1956821045318 903.9025825115617 L 902.9907691611415 903.8662053102935 L 902.786671157687 903.8289036245235 L 902.5834085037984 903.7906811843893 L 902.3810015255717 903.7515418121031 L 902.1794704635362 903.7114894215695 L 901.97883547063 903.670528017994 L 901.7791166101853 903.628661697483 L 901.5803338539216 903.5858946466337 L 901.382507079949 903.5422311421154 L 901.18565607078 903.4976755502422 L 900.9898005113516 903.4522323265362 L 900.7949599870562 903.4059060152819 L 900.6011539817843 903.3587012490718 L 900.4084018759745 903.3106227483432 L 900.2167229446769 903.2616753209061 L 900.0261363556251 903.2118638614625 L 899.8366611673189 903.1611933511166 L 899.6483163271195 903.1096688568775 L 899.4611206693537 903.0572955311517 L 899.2750929134314 903.0040786112279 L 899.0902516619732 902.9500234187539 L 898.9066153989502 902.8951353592038 L 898.7242024878357 902.8394199213379 L 898.5430311697687 902.7828826766536 L 898.3631195617301 902.725529278828 L 898.1844856547308 902.6673654631535 L 898.0071473120125 902.6083970459629 L 897.8311222672619 902.5486299240488 L 897.6564281228367 902.4880700740736 L 897.4830823480057 902.4267235519719 L 897.311102277202 902.3645964923448 L 897.1405051082894 902.3016951078464 L 896.9713079008425 902.2380256885629 L 896.8035275744412 902.1735946013829 L 896.6371809069782 902.1084082893616 L 896.4722845329816 902.0424732710758 L 896.3088549419515 901.9757961399725 L 896.1469084767108 901.9083835637092 L 895.986461331771 901.8402422834873 L 895.8275295517129 901.7713791133781 L 895.6701290295821 901.7018009396412 L 895.5142755052997 901.631514720036 L 895.3599845640881 901.5605274831258 L 895.2072716349129 901.4888463275753 L 895.0561519889399 901.4164784214402 L 894.9066407380076 901.3434310014509 L 894.7587528331165 901.2697113722884 L 894.612503062934 901.1953269058542 L 894.4679060523151 901.1202850405331 L 894.3249762608405 901.0445932804489 L 894.18372798137 900.9682591947147 L 894.0441753386141 900.8912904166755 L 893.9063322877206 900.8136946431447 L 893.7702126128797 900.7354796336352 L 893.6358299259457 900.6566532095827 L 893.5031976650752 900.577223253564 L 893.3723290933837 900.4971977085085 L 893.2432372976192 900.4165845769038 L 893.1159351868539 900.3353919199961 L 892.9904354911927 900.2536278569835 L 892.8667507605005 900.1713005642039 L 892.7448933631475 900.0884182743182 L 892.6248754847719 900.0049892754862 L 892.5067091270613 899.9210219105383 L 892.3904061065531 899.8365245761411 L 892.2759780534525 899.7515057219575 L 892.1634364104693 899.6659738498021 L 892.0527924316741 899.5799375127908 L 891.9440571813727 899.4934053144858 L 891.8372415329994 899.4063859080346 L 891.7323561680299 899.3188879953053 L 891.6294115749135 899.2309203260165 L 891.5284180480237 899.1424916968617 L 891.429385686629 899.0536109506301 L 891.3323243938829 898.9642869753222 L 891.2372438758339 898.8745287032613 L 891.1441536404545 898.7843451101995 L 891.0530629966908 898.6937452144213 L 890.9639810535311 898.6027380758405 L 890.8769167190956 898.5113327950952 L 890.7918786997452 898.4195385126374 L 890.7088754992109 898.3273644078188 L 890.6279154177435 898.234819697973 L 890.5490065512839 898.1419136374939 L 890.4721567906528 898.0486555169101 L 890.3973738207624 897.9550546619561 L 890.3246651198472 897.8611204326392 L 890.2540379587167 897.7668622223041 L 890.1854994000283 897.6722894566933 L 890.1190562975808 897.5774115930047 L 890.0547152956287 897.4822381189454 L 889.992482828219 897.3867785517836 L 889.9323651185464 897.2910424373963 L 889.8743681783317 897.1950393493155 L 889.8184978072208 897.0987788877696 L 889.7647595922041 897.0022706787248 L 889.7131589070582 896.9055243729216 L 889.6637009118089 896.8085496449098 L 889.6163905522144 896.7113561920816 L 889.571232559271 896.6139537337009 L 889.5282314487408 896.5163520099328 L 889.4873915206987 896.4185607808681 L 889.4487168591036 896.3205898255483 L 889.4122113313892 896.2224489409873 L 889.3778785880783 896.1241479411917 L 889.3457220624163 896.0256966561797 L 889.3157449700288 895.9271049309975 L 889.2879503086006 895.8283826247357 L 889.2623408575741 895.7295396095426 L 889.2389191778735 895.6305857696373 L 889.2176876116471 895.5315310003214 L 889.1986482820337 895.4323852069892 L 889.1818030929505 895.3331583041374 L 889.1671537289025 895.2338602143737 L 889.1547016548136 895.1345008674244 L 889.1444481158811 895.0350901991412 L 889.1363941374502 894.9356381505081 L 889.1305405249122 894.8361546666472 L 889.1268878636233 894.736649695824 L 889.1254365188466 894.6371331884525 L 889.1261866357155 894.5376150961007 L 889.1291381392189 894.4381053704947 L 889.1342907342087 894.3386139625243 L 889.14164390543 894.2391508212472 L 889.1511969175715 894.139725892895 L 889.1629488153402 894.0403491198773 L 889.176898423556 893.9410304397887 L 889.1930443472698 893.8417797844146 L 889.2113849719026 893.7426070787377 L 889.2319184634072 893.6435222399459 L 889.2546427684516 893.5445351764406 L 889.2795556146242 893.4456557868456 L 889.3066545106612 893.3468939590174 L 889.3359367466956 893.2482595690566 L 889.367399394528 893.14976248032 L 889.4010393079201 893.0514125424343 L 889.4368531229084 892.9532195903114 L 889.4748372581414 892.8551934431646 L 889.514987915237 892.757343903527 L 889.5573010791633 892.659680756271 L 889.6017725186389 892.5622137676299 L 889.648397786557 892.4649526842215 L 889.6971722204296 892.367907232073 L 889.748090942854 892.2710871156487 L 889.8011488620003 892.1745020168795 L 889.8563406721211 892.078161594195 L 889.913660854081 891.982075481557 L 889.9731036759098 891.8862532874967 L 890.0346631933747 891.7907045941538 L 890.0983332505755 891.6954389563178 L 890.1641074805593 891.6004659004733 L 890.2319793059581 891.5057949238467 L 890.3019419396458 891.4114354934566 L 890.3739883854172 891.3173970451676 L 890.4481114386881 891.223688982746 L 890.5243036872146 891.1303206769202 L 890.6025575118356 891.0373014644427 L 890.6828650872337 890.9446406471575 L 890.7652183827183 890.8523474910688 L 890.8496091630286 890.7604312254156 L 890.9360289891567 890.6689010417476 L 891.0244692191922 890.5777660930071 L 891.1149210091857 890.4870354926129 L 891.2073753140335 890.3967183135495 L 891.3018228883823 890.3068235874596 L 891.3982542875533 890.2173603037407 L 891.4966598684869 890.1283374086469 L 891.5970297907071 890.0397638043933 L 891.6993540173053 889.9516483482665 L 891.803622315944 889.8639998517389 L 891.9098242598805 889.7768270795868 L 892.0179492290085 889.6901387490151 L 892.1279864109216 889.6039435287845 L 892.2399248019931 889.5182500383451 L 892.3537532084772 889.4330668469745 L 892.469460247628 889.348402472921 L 892.5870343488382 889.2642653825515 L 892.7064637547955 889.1806639895046 L 892.827736522659 889.0976066538503 L 892.9508405252528 889.0151016812528 L 893.0757634522794 888.9331573221406 L 893.20249281155 888.8517817708813 L 893.3310159302343 888.7709831649623 L 893.4613199561278 888.6907695841768 L 893.5933918589362 888.611149049816 L 893.7272184315794 888.5321295238672 L 893.8627862915117 888.4537189082167 L 894.00008188206 888.3759250438612 L 894.1390914737797 888.298755710122 L 894.2798011658274 888.2222186238683 L 894.4221968873512 888.1463214387451 L 894.5662643988977 888.0710717444073 L 894.7119892938356 887.9964770657617 L 894.8593569997971 887.9225448622143 L 895.0083527801341 887.8492825269236 L 895.1589617353931 887.7766973860621 L 895.3111688048037 887.7047966980834 L 895.4649587677861 887.6335876529965 L 895.620316245472 887.5630773716465 L 895.7772257022432 887.4932729050028 L 895.9356714472846 887.4241812334536 L 896.0956376361538 887.355809266109 L 896.2571082723654 887.2881638401083 L 896.4200672089902 887.221251719938 L 896.5844981502703 887.1550795967543 L 896.7503846532486 887.0896540877143 L 896.9177101294131 887.0249817353144 L 897.0864578463556 886.961069006736 L 897.2566109294451 886.8979222931988 L 897.4281523635149 886.8355479093212 L 897.6010649945647 886.7739520924899 L 897.7753315314754 886.7131410022353 L 897.9509345477387 886.6531207196155 L 898.127856483199 886.5938972466089 L 898.3060796458105 886.5354765055133 L 898.4855862134053 886.4778643383544 L 898.6663582354763 886.4210665063007 L 898.8483776349718 886.3650886890881 L 899.0316262101037 886.3099364844517 L 899.2160856361671 886.2556154075659 L 899.4017374673731 886.2021308904933 L 899.5885631386934 886.149488281641 L 899.7765439677164 886.0976928452259 L 899.9656611565159 886.0467497607485 L 900.1558957935307 885.996664122475 L 900.3472288554556 885.9474409389272 L 900.5396412091437 885.8990851323827 L 900.7331136135201 885.8516015383816 L 900.9276267215056 885.8049949052439 L 901.1231610819515 885.759269893594 L 901.3196971415847 885.714431075895 L 901.517215246963 885.6704829359913 L 901.7156956464404 885.6274298686603 L 901.9151184921424 885.5852761791729 L 902.1154638419506 885.5440260828627 L 902.316711661497 885.5036837047052 L 902.5188418261674 885.4642530789044 L 902.7218341231137 885.4257381484903 L 902.9256682532754 885.3881427649235 L 903.1303238334092 885.3514706877112 L 903.3357803981279 885.3157255840306 L 903.542017401946 885.2809110283621 L 903.7490142213352 885.2470305021325 L 903.9567501567858 885.2140873933661 L 904.1652044348776 885.1820849963462 L 904.3743562103564 885.1510265112861 L 904.5841845682189 885.1209150440081 L 904.7946685258044 885.091753605634 L 905.0057870348921 885.0635451122835 L 905.2175189838075 885.0362923847821 L 905.4298431995319 885.00999814838 L 905.6427384498206 884.9846650324789 L 905.8561834453262 884.9602955703693 L 906.0701568417269 884.9368921989773 L 906.2846372418613 884.9144572586201 L 906.4996031978683 884.8929929927734 L 906.7150332133313 884.8725015478458 L 906.9309057454283 884.8529849729646 L 907.1471992070859 884.8344452197712 L 907.3638919691384 884.8168841422254 L 907.58096236249 884.8003034964203 L 907.7983886802824 884.7847049404066 L 908.0161491800649 884.7700900340271 L 908.2342220859689 884.75646023876 L 908.4525855908856 884.7438169175738 L 908.6712178586466 884.7321613347897 L 908.8900970262073 884.7214946559566 L 909.1092012058332 884.7118179477333 L 909.328508487289 884.7031321777825 L 909.5479969400293 884.6954382146741 L 909.7676446153918 884.688736827798 L 909.9874295487919 884.6830286872873 L 910.2073297619194 884.6783143639512 L 910.4273232649363 884.6745943292183 L 910.6473880586757 884.6718689550887 L 910.8675021368415 884.6701385140977 L 911.0876434882093 884.669403179288 L 911.3077900988275 884.6696630241923 L 911.5279199542184 884.6709180228265 L 911.74801104158 884.6731680496918 L 911.9680413519869 884.6764128797871 L 912.1879888825914 884.6806521886324 L 912.4078316388238 884.6858855523003 L 912.6275476365918 884.6921124474587 L 912.8471149044784 884.6993322514232 L 913.0665114859399 884.7075442422197 L 913.2857154415012 884.7167475986557 L 913.5047048509491 884.7269414004033 L 913.7234578155254 884.738124628091 L 913.9419524601158 884.7502961634051 L 914.1601669354379 884.7634547892022 L 914.3780794202262 884.7775991896309 L 914.5956681234136 884.7927279502628 L 914.8129112863111 884.8088395582346 L 915.0297871847836 884.8259324023986 L 915.2462741314218 884.844004773485 L 915.4623504777118 884.8630548642715 L 915.6779946161986 884.883080769765 L 915.8931849826482 884.9040804873916 L 916.1079000582034 884.9260519171971 L 916.3221183715355 884.9489928620568 L 916.5358185009916 884.9729010278953 L 916.748979076737 884.9977740239159 L 916.9615787828916 885.0236093628399 L 917.173596359662 885.0504044611547 L 917.3850106054673 885.078156639373 L 917.5958003790589 885.1068631223001 L 917.8059446016354 885.1365210393113 L 918.0154222589493 885.1671274246401 L 918.2242124034098 885.1986792176731 L 918.432294156176 885.2311732632576 L 918.6396467092464 885.2646063120158 L 918.8462493275384 885.2989750206708 L 919.0520813509623 885.3342759523805 L 919.2571221964873 885.3705055770811 L 919.4613513601997 885.4076602718401 L 919.6647484193534 885.4457363212193 L 919.8672930344118 885.4847299176454 L 920.0689649510823 885.524637161791 L 920.2697440023413 885.5654540629654 L 920.469610110451 885.6071765395121 L 920.668543288967 885.6498004192183 L 920.8665236447374 885.6933214397318 L 921.0635313798916 885.7377352489865 L 921.2595467938202 885.7830374056385 L 921.454550285145 885.8292233795102 L 921.6485223536797 885.8762885520424 L 921.8414436023788 885.9242282167572 L 922.0332947392784 885.973037579728 L 922.2240565794245 886.0227117600592 L 922.4137100467922 886.0732457903742 L 922.6022361761927 886.1246346173122 L 922.7896161151704 886.176873102033 L 922.9758311258871 886.229956020732 L 923.1608625869974 886.2838780651613 L 923.344691995509 886.3386338431616 L 923.5273009686346 886.3942178792005 L 923.7086712456287 886.450624614921 L 923.8887846896149 886.5078484096963 L 924.067623289399 886.5658835411948 L 924.2451691612698 886.6247242059515 L 924.4214045507883 886.6843645199491 L 924.5963118345624 886.7447985192059 L 924.7698735220093 886.8060201603722 L 924.9420722571051 886.8680233213352 L 925.1128908201197 886.9308018018302 L 925.282312129339 886.9943493240614 L 925.4503192427735 887.0586595333298 L 925.6168953598517 887.123725998668 L 925.7820238231008 887.1895422134835 L 925.945688119812 887.2561015962099 L 926.107871883692 887.3233974909642 L 926.2685588964997 887.3914231682131 L 926.4277330896676 887.4601718254456 L 926.5853785459092 887.5296365878532 L 926.7414795008101 887.5998105090176 L 926.8960203444049 887.6706865716051 L 927.048985622738 887.7422576880685 L 927.200360039409 887.814516701356 L 927.3501284571025 887.8874563856261 L 927.4982758991016 887.9610694469715 L 927.6447875507854 888.0353485241473 L 927.7896487611108 888.1102861893075 L 927.9328450440776 888.1858749487484 L 928.0743620801768 888.2621072436567 L 928.2141857178227 888.3389754508667 L 928.3523019747681 888.4164718836215 L 928.4886970395023 888.4945887923426 L 928.6233572726327 888.573318365404 L 928.7562692082479 888.6526527299143 L 928.8874195552653 888.732583952503 L 929.0167951987595 888.8131040401144 L 929.1443832012739 888.894204940807 L 929.2701708041145 888.975878544558 L 929.3941454286261 889.0581166840755 L 929.5162946774492 889.1409111356137 L 929.636606335761 889.2242536197967 L 929.7550683724958 889.3081358024455 L 929.8716689415486 889.3925492954116 L 929.9863963829598 889.4774856574162 L 930.0992392240807 889.5629363948939 L 930.2101861807214 889.648892962842 L 930.3192261582785 889.7353467656753 L 930.4263482528454 889.8222891580858 L 930.5315417523016 889.9097114459065 L 930.6347961373849 889.9976048869815 L 930.736101082743 890.0859606920402 L 930.8354464579655 890.1747700255754 L 930.932822328598 890.2640240067278 L 931.0282189571343 890.3537137101738 L 931.1216268039913 890.4438301670177 L 931.2130365284619 890.534364365689 L 931.3024389896499 890.6253072528432 L 931.3898252473838 890.7166497342673 L 931.4751865631105 890.8083826757895 L 931.5585144007696 890.9004969041919 L 931.6398004276468 890.9929832081284 L 931.7190365152073 891.0858323390459 L 931.7962147399081 891.1790350121083 L 931.8713273839912 891.2725819071264 L 931.9443669362548 891.3664636694884 L 932.0153260928045 891.4606709110964 L 932.0841977577837 891.5551942113045 L 932.1509750440835 891.6500241178619 L 932.2156512740306 891.7451511478565 L 932.2782199800562 891.8405657886649 L 932.3386749053417 891.9362584989025 L 932.397010004445 892.0322197093777 L 932.4532194439048 892.1284398240499 L 932.5072976028239 892.2249092209875 L 932.5592390734316 892.3216182533312 L 932.609038661624 892.4185572502585 L 932.656691387484 892.5157165179503 L 932.7021924857785 892.613086340561 L 932.7455374064356 892.7106569811893 L 932.7867218149994 892.8084186828527 L 932.8257415930635 892.9063616694623 L 932.8625928386824 893.004476146801 L 932.8972718667624 893.1027523035029 L 932.9297752094295 893.2011803120345 L 932.9600996163766 893.2997503296765 L 932.9882420551882 893.3984524995095 L 933.0141997116439 893.4972769513988 L 933.0379699899996 893.5962138029815 L 933.0595505132475 893.695253160655 L 933.078939123353 893.794385120566 L 933.0961338814714 893.8935997696011 L 933.1111330681412 893.992887186378 L 933.1239351834562 894.0922374422379 L 933.1345389472156 894.1916406022378 L 933.1429432990517 894.291086726145 L 933.1491473985365 894.3905658694293 L 933.1531506252651 894.4900680842599 L 933.1549525789181 894.5895834204979 M 933.1550642620468 926.2864465723998 L 933.153963529828 926.3859639984767 L 933.150661443244 926.4854714728939 L 933.1451583325005 926.5849590449868 L 933.1374547479043 926.6844167660814 L 933.1275514598071 926.7838346904881 L 933.1154494585297 926.8832028764976 L 933.1011499542622 926.982511387374 L 933.0846543769428 927.0817502923488 L 933.0659643761157 927.1809096676145 L 933.0450818207654 927.279979597316 L 933.02200879913 927.378950174543 L 932.9967476184925 927.4778115023202 L 932.9693008049497 927.5765536945971 L 932.9396711031603 927.675166877237 L 932.9078614760698 927.7736411890037 L 932.8738751046143 927.8719667825479 L 932.8377153874027 927.9701338253925 L 932.7993859403764 928.0681325009148 L 932.7588905964484 928.165953009329 L 932.7162334051192 928.2635855686657 L 932.6714186320723 928.3610204157504 L 932.624450758748 928.4582478071796 L 932.5753344818943 928.5552580202952 L 932.5240747130978 928.6520413541566 L 932.4706765782928 928.7485881305112 L 932.4151454172484 928.8448886947617 L 932.3574867830342 928.9409334169321 L 932.2977064414657 929.03671269263 L 932.2358103705272 929.1322169440078 L 932.1718047597743 929.2274366207199 L 932.1056960097147 929.322362200878 L 932.0374907311683 929.4169841920033 L 931.967195744606 929.5112931319752 L 931.8948180794681 929.6052795899786 L 931.8203649734606 929.6989341674459 L 931.7438438718322 929.7922474989974 L 931.6652624266292 929.8852102533779 L 931.5846284959307 929.9778131343891 L 931.5019501430626 930.0700468818202 L 931.4172356357911 930.1619022723735 L 931.3304934454966 930.2533701205862 L 931.2417322463256 930.3444412797498 L 931.1509609143242 930.4351066428245 L 931.0581885265499 930.5253571433492 L 930.9634243601643 930.6151837563493 L 930.8666778915049 930.7045774992383 L 930.7679587951379 930.7935294327164 L 930.6672769428909 930.8820306616642 L 930.564642402865 930.9700723360329 L 930.4600654384288 931.0576456517281 L 930.3535565071916 931.1447418514914 L 930.2451262599577 931.2313522257754 L 930.1347855396615 931.3174681136147 L 930.0225453802831 931.4030809034925 L 929.9084170057449 931.488182034201 L 929.7924118287892 931.5727629956981 L 929.6745414498371 931.656815329958 L 929.5548176558282 931.7403306318176 L 929.4332524190421 931.823300549816 L 929.3098578959012 931.9057167870309 L 929.1846464257551 931.9875711019068 L 929.0576305296463 932.0688553090808 L 928.9288229090588 932.1495612801998 L 928.798236444647 932.2296809447339 L 928.6658841949488 932.3092062907835 L 928.5317793950787 932.3881293658801 L 928.3959354554052 932.4664422777822 L 928.2583659602086 932.5441371952637 L 928.1190846663242 932.6212063488975 L 927.9781055017651 932.6976420318327 L 927.8354425643304 932.7734366005648 L 927.6911101201948 932.8485824756996 L 927.5451226024826 932.9230721427126 L 927.3974946098239 932.9968981526991 L 927.2482409048948 933.0700531231196 L 927.0973764129416 933.142529738538 L 926.9449162202875 933.2143207513531 L 926.790875572825 933.2854189825235 L 926.6352698744905 933.3558173222855 L 926.4781146857239 933.4255087308635 L 926.3194257219133 933.494486239175 L 926.1592188518227 933.5627429495263 L 925.9975100960058 933.6302720363036 L 925.8343156252034 933.6970667466543 L 925.6696517587264 933.7631204011631 L 925.5035349628243 933.8284263945195 L 925.3359818490384 933.8929781961787 L 925.1670091725404 933.9567693510143 L 924.996633830457 934.0197934799638 L 924.8248728601804 934.0820442806671 L 924.6517434376648 934.1435155280959 L 924.4772628757079 934.2042010751766 L 924.3014486222206 934.2640948534051 L 924.1243182584817 934.3231908734537 L 923.94588949738 934.3814832257693 L 923.766180181643 934.4389660811654 L 923.5852082820523 934.4956336914045 L 923.4029918956472 934.5514803897726 L 923.2195492439146 934.6065005916464 L 923.0348986709665 934.6606887950517 L 922.8490586417065 934.7140395812132 L 922.6620477399828 934.7665476150968 L 922.4738846667294 934.8182076459428 L 922.2845882380972 934.8690145077913 L 922.094177383571 934.9189631199985 L 921.9026711440777 934.9680484877445 L 921.7100886700817 935.0162657025337 L 921.5164492196699 935.0636099426846 L 921.3217721566259 935.1100764738128 L 921.1260769484938 935.155660649304 L 920.9293831646314 935.2003579107783 L 920.7317104742532 935.2441637885471 L 920.5330786444633 935.287073902059 L 920.3335075382795 935.3290839603384 L 920.1330171126458 935.3701897624146 L 919.9316274164378 935.4103871977414 L 919.7293585884573 935.4496722466091 L 919.5262308554185 935.4880409805453 L 919.3222645299255 935.5254895627087 L 919.1174800084409 935.5620142482721 L 918.911897769246 935.5976113847977 L 918.7055383703937 935.6322774126013 L 918.4984224476517 935.666008865109 L 918.2905707124397 935.6988023692037 L 918.0820039497581 935.7306546455624 L 917.8727430161093 935.7615625089838 L 917.6628088374123 935.7915228687075 L 917.4522224069101 935.8205327287225 L 917.24100478307 935.8485891880669 L 917.0291770874787 935.8756894411181 L 916.8167605027292 935.9018307778734 L 916.6037762703027 935.9270105842211 L 916.390245688445 935.9512263422013 L 916.1761901100366 935.9744756302584 L 915.9616309404568 935.9967561234832 L 915.7465896354438 936.0180655938447 L 915.5310876989488 936.0384019104138 L 915.315146680986 936.0577630395755 L 915.0987881754771 936.0761470452334 L 914.8820338180925 936.0935520890021 L 914.6649052840872 936.1099764303916 L 914.4474242861338 936.1254184269816 L 914.2296125721508 936.1398765345851 L 914.011491923128 936.1533493074037 L 913.7930841509485 936.1658353981712 L 913.5744110962078 936.1773335582889 L 913.3554946260288 936.1878426379503 L 913.1363566318763 936.1973615862564 L 912.917019027367 936.2058894513202 L 912.6975037460787 936.2134253803622 L 912.4778327393565 936.2199686197958 L 912.258027974118 936.2255185153027 L 912.0381114306566 936.2300745118978 L 911.8181051004433 936.2336361539852 L 911.598030983928 936.2362030854039 L 911.3779110883387 936.2377750494626 L 911.1577674254816 936.2383518889665 L 910.9376220095396 936.2379335462317 L 910.7174968548708 936.2365200630926 L 910.4974139738073 936.2341115808961 L 910.2773953744536 936.2307083404884 L 910.0574630584865 936.2263106821907 L 909.8376390189543 936.2209190457654 L 909.6179452380777 936.2145339703713 L 909.3984036850517 936.2071560945109 L 909.1790363138487 936.1987861559654 L 908.9598650610229 936.1894249917218 L 908.7409118435172 936.1790735378888 L 908.5221985564706 936.1677328296031 L 908.3037470710296 936.155404000926 L 908.085579232161 936.1420882847301 L 907.8677168564665 936.127787012576 L 907.6501817300023 936.1125016145791 L 907.4329956060997 936.0962336192662 L 907.2161802031901 936.0789846534234 L 906.9997572026332 936.060756441933 L 906.7837482465486 936.0415508076009 L 906.5681749356521 936.0213696709744 L 906.3530588270949 936.0002150501505 L 906.1384214323087 935.9780890605736 L 905.9242842148541 935.9549939148243 L 905.7106685882744 935.9309319223977 L 905.4975959139543 935.9059054894733 L 905.2850874989836 935.8799171186732 L 905.0731645940267 935.8529694088131 L 904.8618483911976 935.8250650546415 L 904.6511600219403 935.7962068465705 L 904.4411205549164 935.7663976703968 L 904.2317509938973 935.7356405070132 L 904.0230722756648 935.7039384321105 L 903.8151052679169 935.6712946158697 L 903.6078707671809 935.6377123226453 L 903.4013894967342 935.6031949106384 L 903.1956821045318 935.5677458315618 L 902.9907691611415 935.5313686302935 L 902.786671157687 935.4940669445235 L 902.5834085037984 935.4558445043893 L 902.3810015255717 935.4167051321032 L 902.1794704635362 935.3766527415695 L 901.97883547063 935.335691337994 L 901.7791166101853 935.2938250174831 L 901.5803338539216 935.2510579666338 L 901.382507079949 935.2073944621154 L 901.18565607078 935.1628388702422 L 900.9898005113516 935.1173956465362 L 900.7949599870562 935.0710693352819 L 900.6011539817843 935.0238645690719 L 900.4084018759745 934.9757860683433 L 900.2167229446769 934.9268386409061 L 900.0261363556251 934.8770271814625 L 899.8366611673189 934.8263566711166 L 899.6483163271195 934.7748321768776 L 899.4611206693537 934.7224588511517 L 899.2750929134314 934.6692419312279 L 899.0902516619732 934.6151867387539 L 898.9066153989502 934.5602986792038 L 898.7242024878357 934.504583241338 L 898.5430311697687 934.4480459966536 L 898.3631195617301 934.3906925988281 L 898.1844856547308 934.3325287831535 L 898.0071473120125 934.2735603659629 L 897.8311222672619 934.2137932440488 L 897.6564281228367 934.1532333940736 L 897.4830823480057 934.091886871972 L 897.311102277202 934.0297598123449 L 897.1405051082894 933.9668584278464 L 896.9713079008425 933.9031890085628 L 896.8035275744412 933.8387579213829 L 896.6371809069782 933.7735716093616 L 896.4722845329816 933.7076365910758 L 896.3088549419515 933.6409594599726 L 896.1469084767108 933.5735468837092 L 895.986461331771 933.5054056034874 L 895.8275295517129 933.4365424333781 L 895.6701290295821 933.3669642596412 L 895.5142755052997 933.296678040036 L 895.3599845640881 933.2256908031259 L 895.2072716349129 933.1540096475753 L 895.0561519889399 933.0816417414403 L 894.9066407380076 933.0085943214509 L 894.7587528331165 932.9348746922884 L 894.612503062934 932.8604902258543 L 894.4679060523151 932.7854483605331 L 894.3249762608405 932.7097566004489 L 894.18372798137 932.6334225147148 L 894.0441753386141 932.5564537366755 L 893.9063322877206 932.4788579631447 L 893.7702126128797 932.4006429536353 L 893.6358299259457 932.3218165295827 L 893.5031976650752 932.242386573564 L 893.3723290933837 932.1623610285085 L 893.2432372976192 932.0817478969038 L 893.1159351868539 932.0005552399962 L 892.9904354911927 931.9187911769835 L 892.8667507605005 931.8364638842039 L 892.7448933631475 931.7535815943182 L 892.6248754847719 931.6701525954862 L 892.5067091270613 931.5861852305384 L 892.3904061065531 931.5016878961411 L 892.2759780534525 931.4166690419576 L 892.1634364104693 931.3311371698021 L 892.0527924316741 931.2451008327909 L 891.9440571813727 931.1585686344858 L 891.8372415329994 931.0715492280347 L 891.7323561680299 930.9840513153054 L 891.6294115749135 930.8960836460166 L 891.5284180480237 930.8076550168618 L 891.429385686629 930.7187742706301 L 891.3323243938829 930.6294502953223 L 891.2372438758339 930.5396920232613 L 891.1441536404545 930.4495084301996 L 891.0530629966908 930.3589085344213 L 890.9639810535311 930.2679013958406 L 890.8769167190956 930.1764961150952 L 890.7918786997452 930.0847018326374 L 890.7088754992109 929.9925277278188 L 890.6279154177435 929.899983017973 L 890.5490065512839 929.8070769574939 L 890.4721567906528 929.7138188369101 L 890.3973738207624 929.6202179819561 L 890.3246651198472 929.5262837526392 L 890.2540379587167 929.4320255423041 L 890.1854994000283 929.3374527766933 L 890.1190562975808 929.2425749130048 L 890.0547152956287 929.1474014389454 L 889.992482828219 929.0519418717836 L 889.9323651185464 928.9562057573963 L 889.8743681783317 928.8602026693155 L 889.8184978072208 928.7639422077697 L 889.7647595922041 928.6674339987248 L 889.7131589070582 928.5706876929216 L 889.6637009118089 928.4737129649099 L 889.6163905522144 928.3765195120816 L 889.571232559271 928.2791170537009 L 889.5282314487408 928.1815153299328 L 889.4873915206987 928.0837241008682 L 889.4487168591036 927.9857531455484 L 889.4122113313892 927.8876122609873 L 889.3778785880783 927.7893112611918 L 889.3457220624163 927.6908599761797 L 889.3157449700288 927.5922682509976 L 889.2879503086006 927.4935459447357 L 889.2623408575741 927.3947029295426 L 889.2389191778735 927.2957490896373 L 889.2176876116471 927.1966943203214 L 889.1986482820337 927.0975485269893 L 889.1818030929505 926.9983216241375 L 889.1671537289025 926.8990235343738 L 889.1547016548136 926.7996641874245 L 889.1444481158811 926.7002535191413 L 889.1363941374502 926.6008014705081 L 889.1305405249122 926.5013179866472 L 889.1268878636233 926.401813015824 L 889.1254365188466 926.3022965084525" stroke-miterlimit="10" stroke-width="2.5633703640000003" stroke-dasharray=""/></g><g><g/><text fill="black" stroke="none" font-family="monospace" font-size="10pt" font-style="normal" font-weight="normal" text-decoration="normal" x="881.8246846722343" y="878.6831510479997" text-anchor="start" dominant-baseline="alphabetic" xml:space="preserve">Database</text></g></g><g><path fill="white" stroke="black" paint-order="fill stroke markers" d=" M 216.31347840742188 152.39488124800002 L 231.39212760742186 152.39488124800002 L 231.39212760742186 851.0389608479998 L 216.31347840742188 851.0389608479998 L 216.31347840742188 152.39488124800002" stroke-miterlimit="10" stroke-width="1.2565541" stroke-dasharray=""/><path fill="white" stroke="black" paint-order="fill stroke markers" d=" M 903.6009118300468 152.39488124800002 L 918.6795610300468 152.39488124800002 L 918.6795610300468 851.0389608479998 L 903.6009118300468 851.0389608479998 L 903.6009118300468 152.39488124800002" stroke-miterlimit="10" stroke-width="1.2565541" stroke-dasharray=""/><path fill="white" stroke="black" paint-order="fill stroke markers" d=" M 390.1457510206719 152.39488124800002 L 405.2244002206719 152.39488124800002 L 405.2244002206719 851.0389608479998 L 390.1457510206719 851.0389608479998 L 390.1457510206719 152.39488124800002" stroke-miterlimit="10" stroke-width="1.2565541" stroke-dasharray=""/><path fill="white" stroke="black" paint-order="fill stroke markers" d=" M 643.3141057859062 152.39488124800002 L 658.3927549859062 152.39488124800002 L 658.3927549859062 851.0389608479998 L 643.3141057859062 851.0389608479998 L 643.3141057859062 152.39488124800002" stroke-miterlimit="10" stroke-width="1.2565541" stroke-dasharray=""/><g><text fill="black" stroke="none" font-family="monospace" font-size="10pt" font-style="normal" font-weight="normal" text-decoration="normal" x="75.28196180644532" y="186.321841948" text-anchor="start" dominant-baseline="alphabetic" xml:space="preserve">Get on Report </text><text fill="black" stroke="none" font-family="monospace" font-size="10pt" font-style="normal" font-weight="normal" text-decoration="normal" x="75.28196180644532" y="198.887382948" text-anchor="start" dominant-baseline="alphabetic" xml:space="preserve">Summary page</text></g><g><path fill="none" stroke="black" paint-order="fill stroke markers" d=" M 36.8548763578125 203.91359934800002 L 203.8987238994219 203.91359934800002" stroke-miterlimit="10" stroke-width="1.2565541" stroke-dasharray=""/><g transform="translate(216.31347840742188,203.91359934800002) translate(-216.31347840742188,-203.91359934800002)"><path fill="black" stroke="none" paint-order="stroke fill markers" d=" M 203.7479374074219 197.63082884800002 L 216.31347840742188 203.91359934800002 L 203.7479374074219 210.19636984800002 Z"/></g></g><g><text fill="black" stroke="none" font-family="monospace" font-size="10pt" font-style="normal" font-weight="normal" text-decoration="normal" x="266.7956116773281" y="237.84056004800004" text-anchor="start" dominant-baseline="alphabetic" xml:space="preserve">viewReport()</text></g><g><path fill="none" stroke="black" paint-order="fill stroke markers" d=" M 231.39212760742186 242.86677644800002 L 377.73099651267194 242.86677644800002" stroke-miterlimit="10" stroke-width="1.2565541" stroke-dasharray=""/><g transform="translate(390.1457510206719,242.86677644800002) translate(-390.1457510206719,-242.86677644800002)"><path fill="black" stroke="none" paint-order="stroke fill markers" d=" M 377.5802100206719 236.58400594800003 L 390.1457510206719 242.86677644800002 L 377.5802100206719 249.14954694800002 Z"/></g></g><g><text fill="black" stroke="none" font-family="monospace" font-size="10pt" font-style="normal" font-weight="normal" text-decoration="normal" x="439.9870416995782" y="276.79373714800005" text-anchor="start" dominant-baseline="alphabetic" xml:space="preserve">requestViewReportList()</text></g><g><path fill="none" stroke="black" paint-order="fill stroke markers" d=" M 405.2244002206719 281.81995354800006 L 630.8993512779062 281.81995354800006" stroke-miterlimit="10" stroke-width="1.2565541" stroke-dasharray=""/><g transform="translate(643.3141057859062,281.81995354800006) translate(-643.3141057859062,-281.81995354800006)"><path fill="black" stroke="none" paint-order="stroke fill markers" d=" M 630.7485647859062 275.53718304800003 L 643.3141057859062 281.81995354800006 L 630.7485647859062 288.1027240480001 Z"/></g></g><g><text fill="black" stroke="none" font-family="monospace" font-size="10pt" font-style="normal" font-weight="normal" text-decoration="normal" x="726.0301738620781" y="315.74691424800005" text-anchor="start" dominant-baseline="alphabetic" xml:space="preserve">getReportList()</text></g><g><path fill="none" stroke="black" paint-order="fill stroke markers" d=" M 658.3927549859062 320.77313064800006 L 891.1861573220468 320.77313064800006" stroke-miterlimit="10" stroke-width="1.2565541" stroke-dasharray=""/><g transform="translate(903.6009118300468,320.77313064800006) translate(-903.6009118300468,-320.77313064800006)"><path fill="black" stroke="none" paint-order="stroke fill markers" d=" M 891.0353708300468 314.49036014800004 L 903.6009118300468 320.77313064800006 L 891.0353708300468 327.0559011480001 Z"/></g></g><g><text fill="black" stroke="none" font-family="monospace" font-size="10pt" font-style="normal" font-weight="normal" text-decoration="normal" x="744.3523937107109" y="354.70009134800006" text-anchor="start" dominant-baseline="alphabetic" xml:space="preserve">reportList</text></g><g><path fill="none" stroke="black" paint-order="fill stroke markers" d=" M 903.6009118300468 359.72630774800007 L 670.8075094939062 359.72630774800007" stroke-miterlimit="10" stroke-width="1.2565541" stroke-dasharray="6.03145968"/><g transform="translate(658.3927549859062,359.72630774800007) translate(-658.3927549859062,-359.72630774800007)"><path fill="black" stroke="none" paint-order="stroke fill markers" d=" M 670.9582959859063 353.44353724800004 L 658.3927549859062 359.72630774800007 L 670.9582959859063 366.0090782480001 Z"/></g></g><g><text fill="black" stroke="none" font-family="monospace" font-size="10pt" font-style="normal" font-weight="normal" text-decoration="normal" x="487.6248133060235" y="393.65326844800006" text-anchor="start" dominant-baseline="alphabetic" xml:space="preserve">reportList</text></g><g><path fill="none" stroke="black" paint-order="fill stroke markers" d=" M 643.3141057859062 398.6794848480001 L 417.6391547286719 398.6794848480001" stroke-miterlimit="10" stroke-width="1.2565541" stroke-dasharray="6.03145968"/><g transform="translate(405.2244002206719,398.6794848480001) translate(-405.2244002206719,-398.6794848480001)"><path fill="black" stroke="none" paint-order="stroke fill markers" d=" M 417.7899412206719 392.39671434800005 L 405.2244002206719 398.6794848480001 L 417.7899412206719 404.9622553480001 Z"/></g></g><g><text fill="black" stroke="none" font-family="monospace" font-size="10pt" font-style="normal" font-weight="normal" text-decoration="normal" x="274.12449961678124" y="432.60644554800007" text-anchor="start" dominant-baseline="alphabetic" xml:space="preserve">reportList</text></g><g><path fill="none" stroke="black" paint-order="fill stroke markers" d=" M 390.1457510206719 437.6326619480001 L 243.80688211542184 437.6326619480001" stroke-miterlimit="10" stroke-width="1.2565541" stroke-dasharray="6.03145968"/><g transform="translate(231.39212760742186,437.6326619480001) translate(-231.39212760742186,-437.6326619480001)"><path fill="black" stroke="none" paint-order="stroke fill markers" d=" M 243.95766860742185 431.34989144800005 L 231.39212760742186 437.6326619480001 L 243.95766860742185 443.9154324480001 Z"/></g></g><g><text fill="black" stroke="none" font-family="monospace" font-size="10pt" font-style="normal" font-weight="normal" text-decoration="normal" x="60.624185927539074" y="471.5596226480001" text-anchor="start" dominant-baseline="alphabetic" xml:space="preserve">Display list of </text><text fill="black" stroke="none" font-family="monospace" font-size="10pt" font-style="normal" font-weight="normal" text-decoration="normal" x="60.624185927539074" y="484.12516364800007" text-anchor="start" dominant-baseline="alphabetic" xml:space="preserve">accounts reported </text><text fill="black" stroke="none" font-family="monospace" font-size="10pt" font-style="normal" font-weight="normal" text-decoration="normal" x="60.624185927539074" y="496.69070464800006" text-anchor="start" dominant-baseline="alphabetic" xml:space="preserve">by User</text></g><g><path fill="none" stroke="black" paint-order="fill stroke markers" d=" M 216.31347840742188 501.7169210480001 L 49.2696308658125 501.7169210480001" stroke-miterlimit="10" stroke-width="1.2565541" stroke-dasharray=""/><g transform="translate(36.8548763578125,501.7169210480001) translate(-36.8548763578125,-501.7169210480001)"><path fill="black" stroke="none" paint-order="stroke fill markers" d=" M 49.420417357812504 495.43415054800005 L 36.8548763578125 501.7169210480001 L 49.420417357812504 507.9996915480001 Z"/></g></g><g><text fill="black" stroke="none" font-family="monospace" font-size="10pt" font-style="normal" font-weight="normal" text-decoration="normal" x="56.95974195781251" y="535.6438817480001" text-anchor="start" dominant-baseline="alphabetic" xml:space="preserve">click 'Save' button</text></g><g><path fill="none" stroke="black" paint-order="fill stroke markers" d=" M 36.8548763578125 540.6700981480001 L 203.8987238994219 540.6700981480001" stroke-miterlimit="10" stroke-width="1.2565541" stroke-dasharray=""/><g transform="translate(216.31347840742188,540.6700981480001) translate(-216.31347840742188,-540.6700981480001)"><path fill="black" stroke="none" paint-order="stroke fill markers" d=" M 203.7479374074219 534.3873276480001 L 216.31347840742188 540.6700981480001 L 203.7479374074219 546.952868648 Z"/></g></g><g><text fill="black" stroke="none" font-family="monospace" font-size="10pt" font-style="normal" font-weight="normal" text-decoration="normal" x="266.7956116773281" y="574.5970588480001" text-anchor="start" dominant-baseline="alphabetic" xml:space="preserve">saveReport()</text></g><g><path fill="none" stroke="black" paint-order="fill stroke markers" d=" M 231.39212760742186 579.623275248 L 377.73099651267194 579.623275248" stroke-miterlimit="10" stroke-width="1.2565541" stroke-dasharray=""/><g transform="translate(390.1457510206719,579.623275248) translate(-390.1457510206719,-579.623275248)"><path fill="black" stroke="none" paint-order="stroke fill markers" d=" M 377.5802100206719 573.3405047480001 L 390.1457510206719 579.623275248 L 377.5802100206719 585.906045748 Z"/></g></g><g><text fill="black" stroke="none" font-family="monospace" font-size="10pt" font-style="normal" font-weight="normal" text-decoration="normal" x="425.32926582067194" y="613.550235948" text-anchor="start" dominant-baseline="alphabetic" xml:space="preserve">requestSaveReport(reportID)</text></g><g><path fill="none" stroke="black" paint-order="fill stroke markers" d=" M 405.2244002206719 618.576452348 L 630.8993512779062 618.576452348" stroke-miterlimit="10" stroke-width="1.2565541" stroke-dasharray=""/><g transform="translate(643.3141057859062,618.576452348) translate(-643.3141057859062,-618.576452348)"><path fill="black" stroke="none" paint-order="stroke fill markers" d=" M 630.7485647859062 612.293681848 L 643.3141057859062 618.576452348 L 630.7485647859062 624.859222848 Z"/></g></g><g><text fill="black" stroke="none" font-family="monospace" font-size="10pt" font-style="normal" font-weight="normal" text-decoration="normal" x="700.3790660739921" y="652.503413048" text-anchor="start" dominant-baseline="alphabetic" xml:space="preserve">upsertReport(reportID)</text></g><g><path fill="none" stroke="black" paint-order="fill stroke markers" d=" M 658.3927549859062 657.5296294479999 L 891.1861573220468 657.5296294479999" stroke-miterlimit="10" stroke-width="1.2565541" stroke-dasharray=""/><g transform="translate(903.6009118300468,657.5296294479999) translate(-903.6009118300468,-657.5296294479999)"><path fill="black" stroke="none" paint-order="stroke fill markers" d=" M 891.0353708300468 651.246858948 L 903.6009118300468 657.5296294479999 L 891.0353708300468 663.8123999479999 Z"/></g></g><g><text fill="black" stroke="none" font-family="monospace" font-size="10pt" font-style="normal" font-weight="normal" text-decoration="normal" x="755.3457256198906" y="691.4565901479999" text-anchor="start" dominant-baseline="alphabetic" xml:space="preserve">success</text></g><g><path fill="none" stroke="black" paint-order="fill stroke markers" d=" M 903.6009118300468 696.4828065479999 L 670.8075094939062 696.4828065479999" stroke-miterlimit="10" stroke-width="1.2565541" stroke-dasharray="6.03145968"/><g transform="translate(658.3927549859062,696.4828065479999) translate(-658.3927549859062,-696.4828065479999)"><path fill="black" stroke="none" paint-order="stroke fill markers" d=" M 670.9582959859063 690.2000360479999 L 658.3927549859062 696.4828065479999 L 670.9582959859063 702.7655770479998 Z"/></g></g><g><text fill="black" stroke="none" font-family="monospace" font-size="10pt" font-style="normal" font-weight="normal" text-decoration="normal" x="498.6181452152032" y="730.4097672479999" text-anchor="start" dominant-baseline="alphabetic" xml:space="preserve">success</text></g><g><path fill="none" stroke="black" paint-order="fill stroke markers" d=" M 643.3141057859062 735.4359836479998 L 417.6391547286719 735.4359836479998" stroke-miterlimit="10" stroke-width="1.2565541" stroke-dasharray="6.03145968"/><g transform="translate(405.2244002206719,735.4359836479998) translate(-405.2244002206719,-735.4359836479998)"><path fill="black" stroke="none" paint-order="stroke fill markers" d=" M 417.7899412206719 729.1532131479998 L 405.2244002206719 735.4359836479998 L 417.7899412206719 741.7187541479998 Z"/></g></g><g><text fill="black" stroke="none" font-family="monospace" font-size="10pt" font-style="normal" font-weight="normal" text-decoration="normal" x="285.1178315259609" y="769.3629443479998" text-anchor="start" dominant-baseline="alphabetic" xml:space="preserve">success</text></g><g><path fill="none" stroke="black" paint-order="fill stroke markers" d=" M 390.1457510206719 774.3891607479998 L 243.80688211542184 774.3891607479998" stroke-miterlimit="10" stroke-width="1.2565541" stroke-dasharray="6.03145968"/><g transform="translate(231.39212760742186,774.3891607479998) translate(-231.39212760742186,-774.3891607479998)"><path fill="black" stroke="none" paint-order="stroke fill markers" d=" M 243.95766860742185 768.1063902479998 L 231.39212760742186 774.3891607479998 L 243.95766860742185 780.6719312479997 Z"/></g></g><g><text fill="black" stroke="none" font-family="monospace" font-size="10pt" font-style="normal" font-weight="normal" text-decoration="normal" x="60.624185927539074" y="808.3161214479998" text-anchor="start" dominant-baseline="alphabetic" xml:space="preserve">Hide 'Save' button</text></g><g><path fill="none" stroke="black" paint-order="fill stroke markers" d=" M 216.31347840742188 813.3423378479997 L 49.2696308658125 813.3423378479997" stroke-miterlimit="10" stroke-width="1.2565541" stroke-dasharray=""/><g transform="translate(36.8548763578125,813.3423378479997) translate(-36.8548763578125,-813.3423378479997)"><path fill="black" stroke="none" paint-order="stroke fill markers" d=" M 49.420417357812504 807.0595673479997 L 36.8548763578125 813.3423378479997 L 49.420417357812504 819.6251083479997 Z"/></g></g></g><g/><g/><g/><g/><g/></g></svg>